# Generated by lxe_pbrt_scene_convert
v -3.04994011 -0.74158299 1.73084795
v -3.0510931 -0.753208995 1.73077404
v -3.0510931 -0.753196001 1.72881699
v -3.04994011 -0.741569996 1.72889102
v -3.04913402 -0.764961004 1.73069799
v -3.04913402 -0.76494801 1.72874105
v -3.04371309 -0.728846014 1.73093104
v -3.04371309 -0.72883302 1.72897303
v -3.03446794 -0.718724012 1.73099506
v -3.03446794 -0.718711019 1.72903895
v -3.02169394 -0.711896002 1.73103905
v -3.02169394 -0.711884022 1.72908199
v -3.00792003 -0.709493995 1.73105502
v -3.00792003 -0.709481001 1.72909796
v -2.99255991 -0.711836994 1.73104
v -2.99255991 -0.711824 1.72908199
v -2.98107791 -0.719034016 1.73099303
v -2.98107791 -0.719021022 1.72903597
v -2.97147489 -0.729471982 1.73092604
v -2.97147489 -0.729460001 1.72896898
v -2.9662559 -0.74011898 1.73085797
v -2.9662559 -0.740105987 1.72890103
v -2.96458602 -0.75306201 1.730775
v -2.96458602 -0.753049016 1.72881699
v -2.969805 -0.772894025 1.73064697
v -2.969805 -0.772880971 1.72869003
v -2.98065996 -0.785628021 1.73056495
v -2.98065996 -0.785615027 1.72860801
v -2.99381304 -0.793142974 1.73051703
v -2.99381304 -0.793130994 1.72855902
v -3.008008 -0.795911014 1.73049903
v -3.008008 -0.79589802 1.72854197
v -3.02032495 -0.794187009 1.73051
v -3.02032495 -0.794175029 1.72855306
v -3.03326893 -0.787923992 1.730551
v -3.03326893 -0.787912011 1.72859299
v -3.04391503 -0.776859999 1.73062205
v -3.04391503 -0.776848018 1.72866404
v -3.0079639 -0.752690017 1.72881901
v -3.077775 -0.753421009 1.729864
v -3.07591009 -0.734631002 1.729985
v -3.07591009 -0.734622002 1.72859704
v -3.077775 -0.753412008 1.72847605
v -3.07460809 -0.772417009 1.72974205
v -3.07460809 -0.772408009 1.72835398
v -3.06584597 -0.714043975 1.73011804
v -3.06584597 -0.714034975 1.72872996
v -3.05090308 -0.69768399 1.73022401
v -3.05090308 -0.69767499 1.72883499
v -3.03025699 -0.686649978 1.73029399
v -3.03025699 -0.686640978 1.72890604
v -3.00799394 -0.682766974 1.73031902
v -3.00799394 -0.682757974 1.72893095
v -2.98316789 -0.686553001 1.73029494
v -2.98316789 -0.686544001 1.72890699
v -2.9646101 -0.698186994 1.73021996
v -2.9646101 -0.69817698 1.72883201
v -2.94908905 -0.715058029 1.730111
v -2.94908905 -0.715049028 1.72872305
v -2.94065404 -0.732264996 1.73000097
v -2.94065404 -0.732255995 1.72861302
v -2.93795395 -0.753184021 1.72986603
v -2.93795395 -0.75317502 1.72847795
v -2.94638991 -0.785238028 1.72966003
v -2.94638991 -0.785229027 1.72827196
v -2.9639349 -0.805819988 1.729527
v -2.9639349 -0.805810988 1.72813904
v -2.98519301 -0.817966998 1.72944903
v -2.98519301 -0.817957997 1.72806096
v -3.00813699 -0.822441995 1.72941995
v -3.00813699 -0.822432995 1.72803199
v -3.02804494 -0.819655001 1.72943795
v -3.02804494 -0.819646001 1.72804999
v -3.04896498 -0.809531987 1.72950304
v -3.04896498 -0.809522986 1.72811496
v -3.06617308 -0.791648984 1.72961795
v -3.06617308 -0.791639984 1.72823
v -3.06617308 -0.791652977 1.73017502
v -3.07460809 -0.772421002 1.730299
v -3.04896498 -0.80953598 1.73005998
v -3.02804494 -0.819657981 1.72999597
v -3.00813699 -0.822444975 1.72997701
v -2.98519301 -0.817970991 1.73000598
v -2.9639349 -0.805823982 1.73008394
v -2.94638991 -0.785241008 1.73021698
v -2.93795395 -0.753188014 1.73042297
v -2.94065404 -0.732268989 1.73055696
v -2.94908905 -0.715061009 1.73066795
v -2.9646101 -0.698189974 1.73077703
v -2.98316789 -0.686556995 1.73085105
v -3.00799394 -0.682771027 1.73087597
v -3.03025699 -0.686653018 1.73085105
v -3.05090308 -0.69768697 1.73078001
v -3.06584597 -0.714047015 1.73067498
v -3.07591009 -0.734634995 1.73054194
v -3.077775 -0.753425002 1.73042202
v -3.07369494 -0.735228002 1.73053801
v -3.06395793 -0.715309978 1.73066604
v -3.07243609 -0.771784008 1.73030305
v -3.06427407 -0.790391028 1.73018301
v -3.04762602 -0.807691991 1.73007202
v -3.02738595 -0.817485988 1.73000896
v -2.98592806 -0.815853 1.73002005
v -3.00812602 -0.820181012 1.72999203
v -2.94838691 -0.784188986 1.73022401
v -2.96536207 -0.80410099 1.73009503
v -2.942837 -0.732937992 1.73055303
v -2.94022608 -0.753176987 1.73042297
v -2.9660151 -0.69996798 1.73076499
v -2.95099902 -0.716289997 1.73065996
v -3.00798798 -0.685050011 1.73086095
v -2.98396897 -0.688713014 1.73083699
v -3.07549906 -0.753405988 1.73042202
v -3.029526 -0.688805997 1.73083699
v -3.04950094 -0.69948101 1.73076797
vn 0.622200012 -0.181600004 0.761399984
vn 0.659300029 0.0168999992 0.751600027
vn 0.734099984 0.0199999996 0.678799987
vn 0.714600027 -0.207300007 0.668099999
vn 0.634199977 0.183899999 0.750899971
vn 0.702499986 0.204699993 0.681599975
vn 0.543099999 -0.374199986 0.751600027
vn 0.608900011 -0.418599993 0.673799992
vn 0.398299992 -0.51730001 0.757399976
vn 0.4551 -0.589699984 0.667100012
vn 0.212400004 -0.621399999 0.754100025
vn 0.240899995 -0.703499973 0.668600023
vn 0.00689999992 -0.656099975 0.754599988
vn 0.00789999962 -0.744300008 0.667800009
vn -0.222399995 -0.603900015 0.765399992
vn -0.26030001 -0.704999983 0.659699976
vn -0.421499997 -0.511900008 0.74849999
vn -0.469599992 -0.569400012 0.674600005
vn -0.541800022 -0.375200003 0.751999974
vn -0.608099997 -0.420100003 0.673500001
vn -0.623000026 -0.192200005 0.75819999
vn -0.708999991 -0.217500001 0.670799971
vn -0.640600026 0.0362000018 0.76700002
vn -0.744000018 0.0436999984 0.666700006
vn -0.560400009 0.287900001 0.776600003
vn -0.665499985 0.343600005 0.662500024
vn -0.413300008 0.493800014 0.764999986
vn -0.473500013 0.566999972 0.674000025
vn -0.226600006 0.604799986 0.763400018
vn -0.2579 0.689599991 0.676699996
vn -0.0172000006 0.644699991 0.764199972
vn -0.0197999999 0.736100018 0.676500022
vn 0.189700007 0.619799972 0.761500001
vn 0.214699998 0.702700019 0.678300023
vn 0.379799992 0.51849997 0.765999973
vn 0.436199993 0.596899986 0.673399985
vn 0.537599981 0.354900002 0.764800012
vn 0.617200017 0.408699989 0.672299981
vn 0 -0.00639999984 1
vn -0.999499977 -0.0331000015 -0.000199999995
vn -0.961899996 0.273200005 0.00170000002
vn -0.961899996 0.273200005 0.00170000002
vn -0.999499977 -0.0331000015 -0.000199999995
vn -0.958500028 -0.2852 -0.00179999997
vn -0.958400011 -0.2852 -0.00179999997
vn -0.826799989 0.5625 0.00359999994
vn -0.826799989 0.5625 0.00359999994
vn -0.613699973 0.789499998 0.00499999989
vn -0.613699973 0.789499998 0.00510000018
vn -0.325700015 0.9454 0.00600000005
vn -0.325700015 0.9454 0.00600000005
vn -0.0107000005 0.999899983 0.00639999984
vn -0.0107000005 0.999899983 0.00630000001
vn 0.348199993 0.937399983 0.00600000005
vn 0.348199993 0.937399983 0.00609999988
vn 0.639199972 0.768899977 0.00480000023
vn 0.639199972 0.768999994 0.00499999989
vn 0.825500011 0.564400017 0.00340000005
vn 0.825500011 0.564400017 0.00359999994
vn 0.957599998 0.287900001 0.00179999997
vn 0.957599998 0.287900001 0.00179999997
vn 0.997900009 -0.0644999966 -0.00039999999
vn 0.997900009 -0.0644999966 -0.00039999999
vn 0.886200011 -0.463200003 -0.00289999996
vn 0.886200011 -0.463200003 -0.00300000003
vn 0.638100028 -0.769900024 -0.00490000006
vn 0.638000011 -0.769999981 -0.00490000006
vn 0.348399997 -0.937300026 -0.00609999988
vn 0.348399997 -0.937300026 -0.00600000005
vn 0.0266999993 -0.999599993 -0.00650000013
vn 0.0266999993 -0.999599993 -0.00639999984
vn -0.290600002 -0.956799984 -0.00620000018
vn -0.290600002 -0.956799984 -0.00609999988
vn -0.587199986 -0.809400022 -0.00520000001
vn -0.587199986 -0.809400022 -0.00510000018
vn -0.831099987 -0.556100011 -0.00350000011
vn -0.831099987 -0.556100011 -0.00350000011
vn -0.617200017 -0.417299986 0.666999996
vn -0.702400029 -0.213400006 0.678900003
vn -0.436199993 -0.605499983 0.665600002
vn -0.214699998 -0.711399972 0.669200003
vn 0.0197999999 -0.744799972 0.666899979
vn 0.257999986 -0.698199987 0.667699993
vn 0.473500013 -0.575600028 0.666599989
vn 0.665499985 -0.351999998 0.658100009
vn 0.744000018 -0.0522000007 0.666100025
vn 0.709100008 0.208900005 0.673500001
vn 0.608200014 0.411599994 0.67869997
vn 0.469799995 0.560699999 0.681800008
vn 0.260399997 0.696500003 0.668600023
vn -0.00789999962 0.735599995 0.677299976
vn -0.240899995 0.694899976 0.677600026
vn -0.455000013 0.581099987 0.674700022
vn -0.608900011 0.40990001 0.679099977
vn -0.714699984 0.198699996 0.670599997
vn -0.734000027 -0.0286999997 0.678499997
vn 0.637199998 -0.185699999 0.748000026
vn 0.555700004 -0.382800013 0.738099992
vn 0.648800015 0.188299999 0.737200022
vn 0.550800025 0.363799989 0.75120002
vn 0.389099985 0.531499982 0.752399981
vn 0.194299996 0.634800017 0.747799993
vn -0.232199997 0.619799972 0.749599993
vn -0.0177999996 0.66079998 0.750400007
vn -0.575200021 0.295700014 0.762700021
vn -0.423500001 0.506200016 0.75120002
vn -0.638000011 -0.196600005 0.744499981
vn -0.656700015 0.0375999995 0.753099978
vn -0.431100011 -0.523400009 0.734899998
vn -0.554400027 -0.3838 0.738499999
vn 0.00710000005 -0.671500027 0.74089998
vn -0.228 -0.618700027 0.751699984
vn 0.674499989 0.0175999999 0.738099992
vn 0.217399999 -0.635999978 0.740400016
vn 0.407799989 -0.529600024 0.743700027
f 1//1 2//2 3//3
f 1//1 3//3 4//4
f 2//2 5//5 6//6
f 2//2 6//6 3//3
f 7//7 1//1 4//4
f 7//7 4//4 8//8
f 9//9 7//7 8//8
f 9//9 8//8 10//10
f 11//11 9//9 10//10
f 11//11 10//10 12//12
f 13//13 11//11 12//12
f 13//13 12//12 14//14
f 15//15 13//13 14//14
f 15//15 14//14 16//16
f 17//17 15//15 16//16
f 17//17 16//16 18//18
f 19//19 17//17 18//18
f 19//19 18//18 20//20
f 21//21 19//19 20//20
f 21//21 20//20 22//22
f 23//23 21//21 22//22
f 23//23 22//22 24//24
f 25//25 23//23 24//24
f 25//25 24//24 26//26
f 27//27 25//25 26//26
f 27//27 26//26 28//28
f 29//29 27//27 28//28
f 29//29 28//28 30//30
f 31//31 29//29 30//30
f 31//31 30//30 32//32
f 33//33 31//31 32//32
f 33//33 32//32 34//34
f 35//35 33//33 34//34
f 35//35 34//34 36//36
f 37//37 35//35 36//36
f 37//37 36//36 38//38
f 5//5 37//37 38//38
f 5//5 38//38 6//6
f 12//12 39//39 14//14
f 10//10 39//39 12//12
f 8//8 39//39 10//10
f 4//4 39//39 8//8
f 4//4 3//3 39//39
f 3//3 6//6 39//39
f 6//6 38//38 39//39
f 36//36 39//39 38//38
f 34//34 39//39 36//36
f 32//32 39//39 34//34
f 14//14 39//39 16//16
f 16//16 39//39 18//18
f 18//18 39//39 20//20
f 20//20 39//39 22//22
f 22//22 39//39 24//24
f 30//30 39//39 32//32
f 28//28 39//39 30//30
f 26//26 39//39 28//28
f 24//24 39//39 26//26
f 40//40 41//41 42//42
f 40//40 42//42 43//43
f 44//44 40//40 43//43
f 44//44 43//43 45//45
f 41//41 46//46 47//47
f 41//41 47//47 42//42
f 46//46 48//48 49//49
f 46//46 49//49 47//47
f 48//48 50//50 51//51
f 48//48 51//51 49//49
f 50//50 52//52 53//53
f 50//50 53//53 51//51
f 52//52 54//54 55//55
f 52//52 55//55 53//53
f 54//54 56//56 57//57
f 54//54 57//57 55//55
f 56//56 58//58 59//59
f 56//56 59//59 57//57
f 58//58 60//60 61//61
f 58//58 61//61 59//59
f 60//60 62//62 63//63
f 60//60 63//63 61//61
f 62//62 64//64 65//65
f 62//62 65//65 63//63
f 64//64 66//66 67//67
f 64//64 67//67 65//65
f 66//66 68//68 69//69
f 66//66 69//69 67//67
f 68//68 70//70 71//71
f 68//68 71//71 69//69
f 70//70 72//72 73//73
f 70//70 73//73 71//71
f 72//72 74//74 75//75
f 72//72 75//75 73//73
f 74//74 76//76 77//77
f 74//74 77//77 75//75
f 76//76 44//44 45//45
f 76//76 45//45 77//77
f 44//44 76//76 78//78
f 44//44 78//78 79//79
f 76//76 74//74 80//80
f 76//76 80//80 78//78
f 74//74 72//72 81//81
f 74//74 81//81 80//80
f 72//72 70//70 82//82
f 72//72 82//82 81//81
f 70//70 68//68 83//83
f 70//70 83//83 82//82
f 68//68 66//66 84//84
f 68//68 84//84 83//83
f 66//66 64//64 85//85
f 66//66 85//85 84//84
f 64//64 62//62 86//86
f 64//64 86//86 85//85
f 62//62 60//60 87//87
f 62//62 87//87 86//86
f 60//60 58//58 88//88
f 60//60 88//88 87//87
f 58//58 56//56 89//89
f 58//58 89//89 88//88
f 56//56 54//54 90//90
f 56//56 90//90 89//89
f 54//54 52//52 91//91
f 54//54 91//91 90//90
f 52//52 50//50 92//92
f 52//52 92//92 91//91
f 50//50 48//48 93//93
f 50//50 93//93 92//92
f 48//48 46//46 94//94
f 48//48 94//94 93//93
f 46//46 41//41 95//95
f 46//46 95//95 94//94
f 40//40 44//44 79//79
f 40//40 79//79 96//96
f 41//41 40//40 96//96
f 41//41 96//96 95//95
f 94//94 95//95 97//97
f 94//94 97//97 98//98
f 99//99 79//79 78//78
f 99//99 78//78 100//100
f 101//101 80//80 81//81
f 101//101 81//81 102//102
f 103//103 104//104 82//82
f 103//103 82//82 83//83
f 105//105 106//106 84//84
f 105//105 84//84 85//85
f 87//87 107//107 108//108
f 87//87 108//108 86//86
f 89//89 109//109 110//110
f 89//89 110//110 88//88
f 91//91 111//111 112//112
f 91//91 112//112 90//90
f 95//95 96//96 113//113
f 95//95 113//113 97//97
f 100//100 78//78 80//80
f 100//100 80//80 101//101
f 102//102 81//81 82//82
f 102//102 82//82 104//104
f 106//106 103//103 83//83
f 106//106 83//83 84//84
f 108//108 105//105 85//85
f 108//108 85//85 86//86
f 88//88 110//110 107//107
f 88//88 107//107 87//87
f 90//90 112//112 109//109
f 90//90 109//109 89//89
f 91//91 92//92 114//114
f 91//91 114//114 111//111
f 93//93 94//94 98//98
f 93//93 98//98 115//115
f 113//113 96//96 79//79
f 113//113 79//79 99//99
f 92//92 93//93 115//115
f 92//92 115//115 114//114
