# Generated by lxe_pbrt_scene_convert
v 2.63920093 -0.753401995 1.72386599
v 2.66287398 -0.753214002 1.72474694
v 2.664047 -0.741392016 1.72482395
v 2.64100504 -0.735224009 1.72398305
v 2.64226389 -0.771780014 1.72374797
v 2.66486597 -0.765165985 1.72467005
v 2.67037892 -0.728438973 1.72490704
v 2.6507411 -0.715305984 1.72411096
v 2.67978096 -0.718145013 1.72497296
v 2.66519904 -0.699477017 1.724213
v 2.69277096 -0.711202979 1.72501802
v 2.68517399 -0.688802004 1.72428095
v 2.70677805 -0.708760977 1.725034
v 2.70671201 -0.685046017 1.72430503
v 2.72239709 -0.711143017 1.72501802
v 2.73073101 -0.688709021 1.72428203
v 2.73407292 -0.71846199 1.72497106
v 2.74868488 -0.699963987 1.72420895
v 2.74383903 -0.729076028 1.72490299
v 2.76370096 -0.716286004 1.72410405
v 2.74914598 -0.739902973 1.72483301
v 2.77186298 -0.732935011 1.723997
v 2.750844 -0.75306499 1.72474802
v 2.77447391 -0.753172994 1.72386706
v 2.74553704 -0.773231983 1.72461903
v 2.76631308 -0.784184992 1.72366798
v 2.73449802 -0.786181986 1.72453594
v 2.74933791 -0.804096997 1.72353899
v 2.72112393 -0.793824017 1.72448599
v 2.72877192 -0.815849006 1.72346401
v 2.70668793 -0.796639979 1.72446799
v 2.70657301 -0.820177972 1.723436
v 2.69416189 -0.794885993 1.72447896
v 2.68731403 -0.817481995 1.72345304
v 2.68099999 -0.788516998 1.72451997
v 2.66707397 -0.807687998 1.72351694
v 2.67017293 -0.777266026 1.72459304
v 2.65042496 -0.790386975 1.72362697
vn 0.722299993 0.0195000004 0.691200018
vn -0.0373000018 -0.00769999996 0.999300003
vn -0.0353999995 0.00359999994 0.99940002
vn 0.70389998 -0.204400003 0.680199981
vn 0.691100001 0.201199993 0.694100022
vn -0.0359999985 -0.0171000008 0.999199986
vn -0.0307999998 0.0144999996 0.99940002
vn 0.599300027 -0.412200004 0.686200023
vn -0.0228000004 0.0228000004 0.999499977
vn 0.448100001 -0.580900013 0.679499984
vn -0.0120999999 0.0286999997 0.999499977
vn 0.237100005 -0.692799985 0.680999994
vn -0.00039999999 0.0306000002 0.999499977
vn 0.00779999979 -0.73299998 0.680100024
vn 0.0127999997 0.0280000009 0.999499977
vn -0.256500006 -0.694999993 0.671700001
vn 0.0238000005 0.0221999995 0.999499977
vn -0.462199986 -0.560400009 0.68720001
vn 0.0307999998 0.0146000003 0.99940002
vn -0.598500013 -0.413700014 0.68599999
vn 0.0355999991 0.00419999985 0.999300003
vn -0.698099971 -0.214300007 0.683099985
vn 0.0373999998 -0.00889999978 0.999199986
vn -0.732900023 0.0430999994 0.678900003
vn 0.0333000012 -0.0238000005 0.999100029
vn -0.655900002 0.338499993 0.674700022
vn 0.0241 -0.0355999991 0.999100029
vn -0.466100007 0.558000028 0.686500013
vn 0.0131999999 -0.0419000015 0.999000013
vn -0.253899992 0.678600013 0.689100027
vn 0.00100000005 -0.0439000018 0.999000013
vn -0.0196000002 0.724699974 0.688799977
vn -0.0108000003 -0.0421999991 0.999000013
vn 0.211400002 0.691600025 0.690599978
vn -0.0218000002 -0.0366000012 0.999100029
vn 0.429500014 0.587700009 0.685599983
vn -0.0308999997 -0.0271000005 0.999100029
vn 0.607800007 0.402399987 0.684499979
f 1//1 2//2 3//3
f 1//1 3//3 4//4
f 5//5 6//6 2//2
f 5//5 2//2 1//1
f 4//4 3//3 7//7
f 4//4 7//7 8//8
f 8//8 7//7 9//9
f 8//8 9//9 10//10
f 10//10 9//9 11//11
f 10//10 11//11 12//12
f 12//12 11//11 13//13
f 12//12 13//13 14//14
f 14//14 13//13 15//15
f 14//14 15//15 16//16
f 16//16 15//15 17//17
f 16//16 17//17 18//18
f 18//18 17//17 19//19
f 18//18 19//19 20//20
f 20//20 19//19 21//21
f 20//20 21//21 22//22
f 22//22 21//21 23//23
f 22//22 23//23 24//24
f 24//24 23//23 25//25
f 24//24 25//25 26//26
f 26//26 25//25 27//27
f 26//26 27//27 28//28
f 28//28 27//27 29//29
f 28//28 29//29 30//30
f 30//30 29//29 31//31
f 30//30 31//31 32//32
f 32//32 31//31 33//33
f 32//32 33//33 34//34
f 34//34 33//33 35//35
f 34//34 35//35 36//36
f 36//36 35//35 37//37
f 36//36 37//37 38//38
f 38//38 37//37 6//6
f 38//38 6//6 5//5
