# Generated by lxe_pbrt_scene_convert
v -4.62015295 0.0859820023 -0.0739360005
v -4.60454082 0.0933839977 -0.053661
v -4.60423994 0.0935269967 -0.0599730015
v -4.60948277 0.0910409987 -0.0582580008
v -4.60709476 0.0914309993 -0.0506700017
v -4.60972404 0.0903669968 -0.056318
v -4.61099482 0.0903239995 -0.0510030016
v -4.61760712 0.0866290033 -0.0658830032
v -4.61108112 0.090282999 -0.0552259982
v -4.61069489 0.0904660001 -0.0433619991
v -4.60979414 0.0908939987 -0.047846999
v -4.61293697 0.0886610001 -0.0403699987
v -4.61245108 0.0896340013 -0.0552259982
v -4.62112522 0.0855209976 -0.0623000003
v -4.61473417 0.0885509998 -0.0501740016
v -4.61497402 0.0878769979 -0.0478160009
v -4.6180501 0.0869790018 -0.0407040007
v -4.6235671 0.0838029981 -0.0580229983
v -4.61546993 0.0876419991 -0.047084
v -4.6172452 0.0873610005 -0.0461319983
v -4.62683201 0.0828149989 -0.0542160012
v -4.63374901 0.079535 -0.0551250018
v -4.58482981 0.102730997 -0.0158149991
v -4.59829807 0.096345 -0.00166800001
v -4.58414507 0.103055999 -0.00747800013
v -4.58432007 0.102146998 0.0129450001
v -4.584373 0.102946997 0.004648
v -4.60727692 0.0912609994 -0.0172300003
v -4.59259081 0.0990509987 -0.010005
v -4.59259081 0.0990509987 0.0061639999
v -4.6072011 0.0921230018 0.0147540001
v -4.60651588 0.0924480036 -0.010005
v -4.60665417 0.0915570036 -0.00454400014
v -4.60651588 0.0924480036 0.00111099996
v -4.60637188 0.0916899964 0.006697
v -4.60504818 0.092430003 0.0574529991
v -4.60085917 0.0951299965 0.0515349992
v -4.61891508 0.0865689963 0.0366530009
v -4.61473989 0.0885479972 0.0486069992
v -4.61352587 0.0884099975 0.0664160028
v -4.60941076 0.0910750031 0.0619169995
v -4.61655998 0.0876860023 0.0571959987
v -4.62432098 0.0840049982 0.0577020012
v -4.62317896 0.0845469981 0.0415330008
v -4.62835217 0.0820939988 0.0465929992
v -4.62454891 0.083897002 0.0733650029
v -4.61929989 0.0863860026 0.0698280036
v -4.63421202 0.0786010027 0.0502760001
v -4.61863613 0.0827810019 -0.0739360005
v -4.60302401 0.0901840031 -0.053661
v -4.60272312 0.0903259963 -0.0599730015
v -4.60864019 0.0880810022 -0.0580330007
v -4.60608101 0.0892940015 -0.0506700017
v -4.60864019 0.0880810022 -0.056318
v -4.60947704 0.0871239975 -0.0510030016
v -4.61652279 0.0843430012 -0.0658830032
v -4.60956383 0.087082997 -0.0552259982
v -4.60917807 0.0872659981 -0.0433619991
v -4.60827589 0.0876929983 -0.047846999
v -4.61192417 0.0865240023 -0.0403699987
v -4.61093283 0.0864330009 -0.0552259982
v -4.61960793 0.0823199973 -0.0623000003
v -4.61389017 0.0855910033 -0.0499400012
v -4.61389017 0.0855910033 -0.0478160009
v -4.61690712 0.0841609985 -0.0401920006
v -4.62248278 0.0815170035 -0.0580229983
v -4.61390114 0.0850260034 -0.0466369987
v -4.61572695 0.0841600001 -0.0461319983
v -4.62531424 0.0796139985 -0.0542160012
v -4.63308477 0.0764899999 -0.0550529994
v -4.58331299 0.0995299965 -0.0158149991
v -4.59677982 0.0931439996 -0.00166800001
v -4.58262682 0.0998549983 -0.00747800013
v -4.58353996 0.0994220003 0.01248
v -4.58285618 0.0997470021 0.004648
v -4.60557508 0.088973999 -0.0167040005
v -4.59107399 0.0958499983 -0.010005
v -4.59107399 0.0958499983 0.0061639999
v -4.60568285 0.0889229998 0.0147540001
v -4.60563087 0.089507997 -0.00949900039
v -4.60567188 0.0894879997 -0.00454400014
v -4.60567188 0.0894879997 0.00147799996
v -4.60477018 0.0893559977 0.00717499992
v -4.61739683 0.0833680034 0.0366530009
v -4.60402298 0.0902699977 0.0574529991
v -4.59934092 0.091930002 0.0515349992
v -4.61322308 0.0853480026 0.0486069992
v -4.6125021 0.0862499997 0.0664160028
v -4.60789299 0.0878750011 0.0619169995
v -4.61504221 0.0844850019 0.0571959987
v -4.62280416 0.0808050036 0.0577020012
v -4.62242603 0.0815439969 0.0414320007
v -4.62683392 0.0788939968 0.0465929992
v -4.62345219 0.0810569972 0.0740950033
v -4.61778212 0.0831860006 0.0698280036
v -4.63318777 0.0764409974 0.0502760001
v -4.59887123 0.0927129984 0.0514709987
v -4.61227608 0.0863569975 0.0502640009
v -4.62190723 0.0817900002 0.0591749996
v -4.61651802 0.084344998 0.0554130003
v -4.61329985 0.0885170028 0.0502640009
v -4.622931 0.083949998 0.0591749996
v -4.62447596 0.0832180008 0.0740950033
v -4.61754179 0.0865060017 0.0554130003
v -4.62345123 0.0837040022 0.0414320007
v -4.60247087 0.0910060033 -0.0602069981
v -4.61791992 0.0862979963 -0.0401920006
v -4.63409901 0.0786269978 -0.0550529994
v -4.61916208 0.0830919966 -0.0623890013
v -4.60972404 0.0903669968 -0.0580330007
v -4.62489986 0.0803709999 -0.0543200001
v -4.61497402 0.0878769979 -0.0499400012
v -4.58310986 0.100185998 -0.0163049996
v -4.59573984 0.0941969976 -0.00164399995
v -4.5825839 0.100435004 0.00432300009
v -4.6064291 0.0891290009 0.0153160002
v -4.59367085 0.0951780006 0.00583299994
v -4.59379911 0.0951180011 -0.00949900039
v -4.59672117 0.0962660015 -0.00164399995
v -4.60740995 0.0911979973 0.0153160002
v -4.59465218 0.0972469971 0.00583299994
v -4.60665417 0.0915570036 0.00147799996
v -4.59477997 0.0971869975 -0.00949900039
v -4.60661221 0.0915770009 -0.00949900039
v -4.64589024 0.0731339976 -0.0568520017
v -4.65964699 0.0666109994 -0.0583630018
v -4.65854883 0.0642950013 -0.0583630018
v -4.64479208 0.0708179995 -0.0568520017
v -4.67355299 0.0600170009 -0.0557969995
v -4.67245483 0.0577009991 -0.0557969995
v -4.63081789 0.0802799985 -0.0486980006
v -4.62972021 0.0779640004 -0.0486980006
v -4.61884117 0.0859590024 -0.0365910009
v -4.61774302 0.0836429968 -0.0365910009
v -4.61076307 0.0897900015 -0.0198630001
v -4.60966396 0.0874740034 -0.0198630001
v -4.60792017 0.0911379978 -0.00182500004
v -4.60682201 0.0888219997 -0.00182500004
v -4.61069202 0.0898230001 0.0182889998
v -4.60959387 0.0875070021 0.0182889998
v -4.61920786 0.0857850015 0.0333250016
v -4.61811018 0.0834690034 0.0333250016
v -4.63155985 0.0799290016 0.0459010005
v -4.63046217 0.0776130036 0.0459010005
v -4.64415789 0.0739549994 0.0527350008
v -4.64306021 0.0716390014 0.0527350008
v -4.65947294 0.0666930005 0.0549219996
v -4.65837479 0.0643770024 0.0549219996
v -4.68294001 0.0555660017 0.0480879992
v -4.68184185 0.0532499999 0.0480879992
v -4.69800806 0.0484209992 0.0338720009
v -4.6969099 0.0461050011 0.0338720009
v -4.70690107 0.0442049988 0.0166490003
v -4.70580292 0.0418890007 0.0166490003
v -4.71017599 0.0426519997 -0.00194099999
v -4.70907784 0.0403360017 -0.00194099999
v -4.70813608 0.0436189994 -0.0180709995
v -4.70703793 0.0413030013 -0.0180709995
v -4.70072603 0.0471329987 -0.0350200012
v -4.69962692 0.0448170006 -0.0350200012
v -4.68763399 0.0533410013 -0.0489629991
v -4.68653488 0.0510249995 -0.0489629991
v -4.65794992 0.0645790026 -0.00188300002
v -4.65963793 0.0665749982 -0.0593210012
v -4.64564896 0.0732079968 -0.0577850007
v -4.67377996 0.0598700009 -0.0567129999
v -4.63032198 0.0804760009 -0.0494929999
v -4.61814213 0.0862509981 -0.0371810012
v -4.60992718 0.0901459977 -0.0201699995
v -4.60703707 0.0915170014 -0.00182799995
v -4.60985613 0.0901800022 0.0186269991
v -4.61851692 0.0860740021 0.0339169987
v -4.63107586 0.0801180005 0.0467050001
v -4.643888 0.0740439966 0.0536549985
v -4.65946102 0.0666590035 0.0558790006
v -4.68332577 0.0553440005 0.0489289984
v -4.69864893 0.0480780005 0.0344729982
v -4.70769215 0.0437900014 0.0169590004
v -4.71102285 0.0422109999 -0.00194600003
v -4.70894814 0.0431950018 -0.0183479991
v -4.7014122 0.0467679985 -0.035583999
v -4.68809795 0.0530809984 -0.0497630015
v -4.65939617 0.0654139966 -0.0933030024
v -4.63716221 0.0759570003 -0.0908610001
v -4.63638401 0.0743139982 -0.0908610001
v -4.65861702 0.063771002 -0.0933030024
v -4.68187284 0.0547560006 -0.0891560018
v -4.68109512 0.0531129986 -0.0891560018
v -4.61280203 0.0875080004 -0.0776820034
v -4.61202192 0.0858649984 -0.0776820034
v -4.59344292 0.0966869965 -0.0581130013
v -4.59266376 0.0950440019 -0.0581130013
v -4.58038616 0.102877997 -0.0310759991
v -4.57960701 0.101235002 -0.0310759991
v -4.57579184 0.105056003 -0.00192199997
v -4.57501316 0.103413001 -0.00192199997
v -4.5802722 0.102931999 0.0305879992
v -4.57949305 0.101288997 0.0305879992
v -4.59403801 0.0964049995 0.0548910014
v -4.5932579 0.0947619975 0.0548910014
v -4.6140008 0.0869389996 0.0752160028
v -4.61322212 0.0852959976 0.0752160028
v -4.63436222 0.0772840008 0.086263001
v -4.63358402 0.0756419972 0.086263001
v -4.65911579 0.0655469969 0.0897980034
v -4.65833712 0.0639040023 0.0897980034
v -4.6970439 0.0475630015 0.0787509978
v -4.69626617 0.0459199995 0.0787509978
v -4.72139883 0.0360150002 0.0557739995
v -4.72062016 0.0343719982 0.0557739995
v -4.73577309 0.0291990004 0.0279370006
v -4.73499298 0.0275570005 0.0279370006
v -4.74106693 0.0266890004 -0.00211
v -4.74028778 0.0250460003 -0.00211
v -4.73776913 0.0282530002 -0.0281789992
v -4.73698997 0.0266100001 -0.0281789992
v -4.72579098 0.0339320004 -0.0555749983
v -4.72501183 0.0322889984 -0.0555749983
v -4.7046299 0.043965999 -0.078110002
v -4.70385218 0.0423230007 -0.078110002
v -4.60809708 0.0885479972 -0.0478949994
v -4.60767317 0.0888570026 0.0620700009
v -4.61753702 0.0841799974 0.0700270012
v -4.627141 0.0796260014 0.0459709987
v -4.70313692 0.0446729995 -0.0756239966
v -4.68111992 0.0551129989 -0.0863109976
v -4.68143177 0.0557719991 -0.0863109976
v -4.7034502 0.0453319997 -0.0756239966
v -4.72360897 0.0349670015 -0.0538219996
v -4.72392178 0.0356249996 -0.0538219996
v -4.73519802 0.0294720009 -0.0273170006
v -4.73550987 0.0301300008 -0.0273170006
v -4.73838806 0.0279590003 -0.00209499989
v -4.73869991 0.0286180004 -0.00209499989
v -4.73326588 0.0303869992 0.026974
v -4.73357916 0.0310459994 0.026974
v -4.71935987 0.0369810015 0.0539060012
v -4.71967316 0.0376400016 0.0539060012
v -4.69579792 0.0481530018 0.0761360005
v -4.6961112 0.0488119982 0.0761360005
v -4.65910292 0.0655530021 0.0868230015
v -4.65941477 0.0662119985 0.0868230015
v -4.6351552 0.0769089982 0.0834029987
v -4.63546705 0.0775670037 0.0834029987
v -4.61545515 0.0862499997 0.0727159977
v -4.615767 0.0869079977 0.0727159977
v -4.59614086 0.0954070017 0.0530509986
v -4.59645414 0.0960659981 0.0530509986
v -4.58282423 0.101722002 0.0295390002
v -4.58313608 0.102380998 0.0295390002
v -4.57848883 0.103776999 -0.00191400002
v -4.57880116 0.104436003 -0.00191400002
v -4.58293295 0.101669997 -0.030119
v -4.58324623 0.102329001 -0.030119
v -4.59556484 0.0956799984 -0.0562769994
v -4.59587812 0.0963390023 -0.0562769994
v -4.61429501 0.0868000016 -0.0752099976
v -4.61460686 0.0874579996 -0.0752099976
v -4.63786411 0.0756239966 -0.0879599974
v -4.63817596 0.0762830004 -0.0879599974
v -4.65937424 0.0654240027 -0.0903220028
v -4.65968704 0.0660829991 -0.0903220028
v -4.70494318 0.0446240008 -0.078110002
v -4.68218613 0.0554150008 -0.0891560018
v -4.72610283 0.0345910005 -0.0555749983
v -4.73808098 0.0289110001 -0.0281789992
v -4.74137878 0.0273470003 -0.00211
v -4.73608494 0.0298580006 0.0279370006
v -4.72171116 0.0366729982 0.0557739995
v -4.69735718 0.0482209995 0.0787509978
v -4.65942812 0.0662060007 0.0897980034
v -4.63467503 0.0779429972 0.086263001
v -4.61431313 0.0875980034 0.0752160028
v -4.59434986 0.0970640033 0.0548910014
v -4.580585 0.103591003 0.0305879992
v -4.57610416 0.105714999 -0.00192199997
v -4.58069801 0.103536002 -0.0310759991
v -4.59375477 0.097345002 -0.0581130013
v -4.61311388 0.0881659985 -0.0776820034
v -4.63747501 0.0766149983 -0.0908610001
v -4.65970802 0.0660730004 -0.0933030024
vn -0.33829999 0.51700002 -0.786300004
vn 0.296099991 0.883099973 0.363799989
vn 0.357600003 0.883000016 -0.303900003
vn -0.632600009 0.762199998 0.137500003
vn -0.00340000005 0.629999995 0.776499987
vn -0.900900006 0.384299994 -0.2016
vn -0.274500012 0.95450002 0.116300002
vn -0.360000014 0.795400023 0.487399995
vn -0.367599994 0.74089998 -0.561999977
vn 0.187800005 0.90109998 0.390700012
vn 0.371300012 0.925599992 -0.0732999966
vn 0.0480000004 0.677600026 0.733799994
vn -0.157900006 0.813799977 -0.559300005
vn -0.0948999971 0.995400012 -0.0136000002
vn -0.591199994 0.793900013 0.142100006
vn -0.965399981 0.251800001 -0.0672999993
vn -0.490099996 0.739400029 0.461499989
vn -0.315800011 0.809499979 0.494899988
vn -0.746299982 0.349299997 -0.566500008
vn -0.149900004 0.867799997 -0.473699987
vn -0.0753000006 0.99180001 -0.103200004
vn -0.819700003 0.570599973 0.0500000007
vn 0.253199995 0.774600029 -0.57950002
vn -0.393900007 0.918799996 -0.0241
vn 0.339700013 0.840799987 0.421400011
vn 0.295700014 0.746699989 0.595799983
vn 0.325899988 0.867999971 -0.374599993
vn -0.770299971 0.227799997 -0.595499992
vn -0.453000009 0.89139998 -0.0156999994
vn -0.342700005 0.937399983 -0.0617999993
vn -0.698400021 0.630900025 0.337799996
vn -0.683099985 0.633099973 0.363999993
vn -0.848699987 0.206599995 -0.486900002
vn -0.755100012 0.58950001 0.286900014
vn -0.742600024 0.204999998 -0.637499988
vn -0.194999993 0.549499989 0.812399983
vn 0.422699988 0.903299987 -0.0724999979
vn -0.299699992 0.538299978 -0.787599981
vn -0.375400007 0.926800013 0.00109999999
vn -0.224399999 0.543600023 0.808799982
vn 0.360700011 0.913399994 0.188600004
vn -0.392199993 0.919700027 0.0162000004
vn -0.408199996 0.912599981 0.023
vn -0.819800019 0.566600025 -0.0832000002
vn -0.248999998 0.605300009 -0.755999982
vn -0.504800022 0.731100023 0.458999991
vn 0.399300009 0.889299989 0.222800002
vn -0.953700006 0.186700001 -0.235799998
vn -0.326499999 0.502200007 -0.800700009
vn 0.386500001 0.877099991 0.285100013
vn 0.896000028 0.189400002 -0.40169999
vn -0.780399978 0.609499991 0.139400005
vn -0.0136000002 0.649999976 0.759800017
vn -0.864499986 0.430099994 -0.260100007
vn -0.140200004 0.978500009 0.151299998
vn -0.378500015 0.833700001 0.402099997
vn -0.637099981 0.550400019 -0.539600015
vn 0.378500015 0.862900019 0.334800005
vn 0.815999985 0.571099997 -0.0885000005
vn 0.072300002 0.708100021 0.702400029
vn -0.131600007 0.789699972 -0.59920001
vn -0.209399998 0.973200023 -0.0947000012
vn -0.795099974 0.564599991 0.221399993
vn -0.94690001 0.2588 -0.190599993
vn -0.512899995 0.476999998 0.713699996
vn -0.337900013 0.865700006 0.369199991
vn -0.67110002 -0.425700009 -0.606999993
vn -0.256399989 0.756799996 -0.601199985
vn -0.119599998 0.992699981 -0.0120999999
vn -0.981000006 0.182799995 0.0637999997
vn 0.752300024 -0.199000001 -0.628000021
vn -0.341699988 0.939800024 0.000500000024
vn 0.365500003 0.824999988 0.430999994
vn 0.343400002 0.712400019 0.611999989
vn 0.881200016 -0.0337999985 -0.471500009
vn -0.739199996 0.189799994 -0.646200001
vn -0.430700004 0.902499974 -0.000600000028
vn -0.434399992 0.900600016 -0.0104
vn -0.181999996 -0.843800008 0.504800022
vn -0.765799999 0.2086 0.608299971
vn -0.843100011 0.259299994 -0.470999986
vn -0.833700001 0.259799987 0.487199992
vn -0.740800023 0.142900005 -0.656300008
vn -0.263999999 0.55369997 -0.789699972
vn -0.164900005 0.554400027 0.815699995
vn 0.972599983 -0.202600002 -0.113899998
vn -0.444799989 0.895399988 0.0217000004
vn -0.196600005 0.549099982 0.812300026
vn 0.917200029 0.355300009 0.180199996
vn -0.470999986 0.880900025 -0.0461000018
vn -0.371300012 0.92839998 -0.00989999995
vn -0.962599993 0.197300002 -0.185299993
vn 0.119599998 0.0136000002 -0.992699981
vn -0.415800005 0.449699998 0.790499985
vn 0.932099998 0.273499995 0.237399995
vn -0.935599983 0.219500005 -0.2764
vn 0.992500007 0.0815000013 -0.0913000032
vn 0.6171 -0.714600027 0.329400003
vn 0.639999986 -0.686200023 0.345699996
vn 0.177300006 -0.936200023 -0.30340001
vn -0.127599999 0.922100008 0.365399987
vn -0.0881000012 0.919799984 0.382200003
vn -0.406300008 0.237299994 0.882399976
vn -0.628700018 0.700399995 -0.337900013
vn -0.978200018 -0.1074 -0.1778
vn 0.920700014 0.0808999985 -0.381700009
vn -0.411799997 0.149399996 0.898899972
vn -0.99150002 -0.0943000019 0.0890000015
vn 0.989600003 -0.116099998 -0.0842999965
vn -0.929899991 0.0548 0.363700002
vn 0.989400029 -0.0948000029 -0.109700002
vn -0.925199986 0.0606999993 0.374500006
vn 0.740199983 -0.0535000004 -0.67019999
vn 0.876600027 -0.481000006 0.00889999978
vn 0.876699984 0.0263 -0.480199993
vn -0.371899992 -0.704400003 0.604499996
vn 0.121699996 -0.991900027 -0.0364999995
vn 0.139599994 -0.988699973 0.0540999994
vn 0.302700013 0.953000009 0.0104
vn -0.742500007 -0.0713 0.666000009
vn -0.786800027 0.61500001 -0.0522000007
vn -0.827799976 -0.0533000007 0.558499992
vn -0.751299977 0.655900002 0.0724000037
vn -0.709399998 -0.0226000007 0.70450002
vn -0.486400008 0.613499999 0.621999979
vn -0.302300006 0.688399971 0.659300029
vn -0.268700004 0.623600006 0.734000027
vn -0.470200002 0.517799973 0.714699984
vn -0.150600001 0.758300006 0.634299994
vn -0.102499999 0.704200029 0.702499986
vn -0.656799972 0.523199975 0.542900026
vn -0.664099991 0.433699995 0.608900011
vn -0.788900018 0.468100011 0.398200005
vn -0.816399992 0.355399996 0.455000013
vn -0.881900012 0.421000004 0.212300003
vn -0.92019999 0.308600008 0.240899995
vn -0.913500011 0.406699985 0.00689999992
vn -0.956799984 0.290499985 0.00789999962
vn -0.870700002 0.438600004 -0.222399995
vn -0.917800009 0.299800009 -0.26030001
vn -0.780200005 0.462199986 -0.421299994
vn -0.801199973 0.370799989 -0.469700009
vn -0.657899976 0.523100019 -0.541800022
vn -0.665499985 0.432799995 -0.608099997
vn -0.494599998 0.60589999 -0.623099983
vn -0.480599999 0.515999973 -0.708999991
vn -0.291299999 0.710399985 -0.640699983
vn -0.2421 0.622699976 -0.744000018
vn -0.0671999976 0.825500011 -0.560400009
vn 0.0313999988 0.745700002 -0.665499985
vn 0.124200001 0.902100027 -0.413300008
vn 0.229000002 0.850499988 -0.473399997
vn 0.225700006 0.94749999 -0.226500005
vn 0.3389 0.904799998 -0.2579
vn 0.261400014 0.96509999 -0.0172000006
vn 0.381199986 0.924300015 -0.0197999999
vn 0.239999995 0.952000022 0.189799994
vn 0.350199997 0.91170001 0.214699998
vn 0.146400005 0.913399994 0.379900008
vn 0.256399989 0.862500012 0.436199993
vn -0.00150000001 0.843100011 0.537699997
vn 0.0863000005 0.782000005 0.617200017
vn -0.42840001 0.903599977 0
vn -0.42930001 0.902400017 -0.0373000018
vn -0.419 0.907299995 -0.0355000012
vn -0.43779999 0.898299992 -0.0359000005
vn -0.409200013 0.911899984 -0.0307999998
vn -0.401499987 0.915499985 -0.0228000004
vn -0.396299988 0.917999983 -0.0120999999
vn -0.394499987 0.918900013 -0.00039999999
vn -0.396899998 0.917800009 0.0127999997
vn -0.402099997 0.915300012 0.0239000004
vn -0.409000009 0.912 0.0307999998
vn -0.41839999 0.907500029 0.0355999991
vn -0.430400014 0.901899993 0.0373000018
vn -0.443800002 0.895500004 0.0331999995
vn -0.454400003 0.890399992 0.0241
vn -0.460099995 0.887799978 0.0131999999
vn -0.462000012 0.886900008 0.00100000005
vn -0.460399985 0.887600005 -0.0108000003
vn -0.455300003 0.889999986 -0.0218000002
vn -0.446799994 0.89410001 -0.0308999997
vn -0.0298999995 -0.0142000001 -0.999499977
vn 0.246900007 0.1171 -0.961899996
vn 0.246900007 0.1171 -0.961899996
vn -0.0298999995 -0.0142000001 -0.999499977
vn -0.257699996 -0.122199997 -0.958400011
vn -0.257699996 -0.122100003 -0.958400011
vn 0.508300006 0.240899995 -0.826799989
vn 0.508300006 0.240899995 -0.826799989
vn 0.713400006 0.338200003 -0.613699973
vn 0.713400006 0.338200003 -0.613699973
vn 0.854300022 0.405099988 -0.325700015
vn 0.854399979 0.404799998 -0.325700015
vn 0.903500021 0.42840001 -0.0105999997
vn 0.903599977 0.428200006 -0.0107000005
vn 0.847000003 0.401600003 0.348199993
vn 0.847000003 0.40169999 0.348199993
vn 0.694800019 0.329600006 0.639199972
vn 0.694800019 0.329600006 0.639199972
vn 0.50999999 0.241799995 0.825500011
vn 0.50999999 0.241899997 0.825399995
vn 0.260199994 0.123300001 0.957599998
vn 0.260100007 0.123400003 0.957599998
vn -0.0582000017 -0.0275999997 0.997900009
vn -0.0582000017 -0.0275999997 0.997900009
vn -0.418599993 -0.198300004 0.886200011
vn -0.418599993 -0.198400006 0.886200011
vn -0.69569999 -0.329699993 0.638100028
vn -0.69569999 -0.329899997 0.638100028
vn -0.847000003 -0.401499987 0.348399997
vn -0.846899986 -0.401499987 0.348399997
vn -0.903299987 -0.428200006 0.0266999993
vn -0.903199971 -0.428299993 0.0266999993
vn -0.864499986 -0.409999996 -0.290600002
vn -0.864499986 -0.409999996 -0.290600002
vn -0.731299996 -0.346799999 -0.587199986
vn -0.731299996 -0.346799999 -0.587199986
vn -0.502499998 -0.238199994 -0.831099987
vn -0.502499998 -0.238299996 -0.83099997
vn 0.972800016 0.211700007 -0.0935999975
vn 0.955600023 0.188600004 0.226400003
vn 0.943700016 0.176100001 0.279799998
vn 0.159099996 -0.1875 -0.969299972
vn 0.0754000023 0.790499985 0.607800007
vn -0.111000001 0.714100003 0.691100001
vn -0.140900001 0.747799993 0.648800015
vn 0.0121999998 0.834599972 0.550700009
vn 0.242799997 0.869799972 0.429500014
vn 0.163599998 0.906599998 0.388999999
vn 0.334800005 0.918299973 0.211300001
vn 0.259200007 0.946099997 0.194199994
vn 0.365799993 0.930499971 -0.0196000002
vn 0.281699985 0.959299982 -0.0177999996
vn 0.324000001 0.911300004 -0.254000008
vn 0.245199993 0.941200018 -0.232299998
vn 0.215800002 0.857900023 -0.466300011
vn 0.141499996 0.894699991 -0.423700005
vn 0.0217000004 0.754400015 -0.656099975
vn -0.054299999 0.816100001 -0.575299978
vn -0.247799993 0.633599997 -0.732900023
vn -0.284200013 0.698400021 -0.656799972
vn -0.482899994 0.528599977 -0.698099971
vn -0.492799997 0.591600001 -0.638100028
vn -0.664900005 0.446700007 -0.598500013
vn -0.660000026 0.506900012 -0.554400027
vn -0.798399985 0.385800004 -0.462199986
vn -0.785099983 0.444700003 -0.431100011
vn -0.913800001 0.314900011 -0.256500006
vn -0.878499985 0.419699997 -0.228
vn -0.951799989 0.306600004 0.00779999979
vn -0.921700001 0.387699991 0.00710000005
vn -0.915600002 0.324600011 0.237100005
vn -0.889199972 0.402500004 0.217399999
vn -0.81370002 0.370400012 0.448100001
vn -0.794200003 0.450399995 0.407799989
vn -0.663600028 0.447699994 0.599300027
vn -0.658800006 0.507200003 0.555599988
vn -0.4727 0.530200005 0.70389998
vn -0.484499991 0.599399984 0.637099981
vn -0.274399996 0.6347 0.722299993
vn -0.296000004 0.676400006 0.674499989
vn -0.660099983 0.42809999 -0.617200017
vn -0.480399996 0.524999976 -0.702499986
vn -0.829999983 0.34740001 -0.436199993
vn -0.92750001 0.305900007 -0.214699998
vn -0.956900001 0.289799988 0.0197999999
vn -0.915000021 0.310200006 0.2579
vn -0.80339998 0.361099988 0.473399997
vn -0.597199976 0.447699994 0.665499985
vn -0.328900009 0.58160001 0.744000018
vn -0.0952999964 0.698599994 0.709100008
vn 0.0860000029 0.789099991 0.608200014
vn 0.219899997 0.855000019 0.469599992
vn 0.348699987 0.900300026 0.26030001
vn 0.380400002 0.924700022 -0.00779999979
vn 0.343199998 0.907899976 -0.240799993
vn 0.241500005 0.85710001 -0.455000013
vn 0.0844999999 0.788699985 -0.608900011
vn -0.103299998 0.691799998 -0.714699984
vn -0.312700003 0.602800012 -0.734099984
f 1//1 2//2 3//3
f 1//1 4//4 2//2
f 4//4 5//5 2//2
f 4//4 6//6 5//5
f 6//6 7//7 5//5
f 1//1 8//8 4//4
f 9//9 7//7 6//6
f 7//7 10//10 11//11
f 7//7 12//12 10//10
f 9//9 12//12 7//7
f 13//13 12//12 9//9
f 14//14 15//15 13//13
f 15//15 12//12 13//13
f 15//15 16//16 12//12
f 16//16 17//17 12//12
f 14//14 18//18 15//15
f 19//19 17//17 16//16
f 20//20 17//17 19//19
f 21//21 17//17 20//20
f 1//1 14//14 8//8
f 21//21 22//22 17//17
f 22//22 14//14 1//1
f 22//22 18//18 14//14
f 22//22 21//21 18//18
f 23//23 24//24 25//25
f 24//24 26//26 27//27
f 28//28 29//29 23//23
f 29//29 24//24 23//23
f 24//24 30//30 26//26
f 30//30 31//31 26//26
f 28//28 32//32 29//29
f 33//33 24//24 29//29
f 24//24 34//34 30//30
f 35//35 31//31 30//30
f 33//33 34//34 24//24
f 36//36 37//37 38//38
f 38//38 39//39 36//36
f 39//39 40//40 41//41
f 39//39 42//42 40//40
f 42//42 43//43 40//40
f 38//38 42//42 39//39
f 38//38 44//44 42//42
f 45//45 43//43 42//42
f 43//43 46//46 47//47
f 45//45 46//46 43//43
f 45//45 48//48 46//46
f 49//49 50//50 51//51
f 49//49 52//52 50//50
f 52//52 53//53 50//50
f 52//52 54//54 53//53
f 54//54 55//55 53//53
f 49//49 56//56 52//52
f 57//57 55//55 54//54
f 55//55 58//58 59//59
f 55//55 60//60 58//58
f 57//57 60//60 55//55
f 61//61 60//60 57//57
f 62//62 63//63 61//61
f 63//63 60//60 61//61
f 63//63 64//64 60//60
f 64//64 65//65 60//60
f 62//62 66//66 63//63
f 67//67 65//65 64//64
f 68//68 65//65 67//67
f 69//69 65//65 68//68
f 49//49 62//62 56//56
f 69//69 70//70 65//65
f 70//70 62//62 49//49
f 70//70 66//66 62//62
f 70//70 69//69 66//66
f 71//71 72//72 73//73
f 72//72 74//74 75//75
f 76//76 77//77 71//71
f 77//77 72//72 71//71
f 72//72 78//78 74//74
f 78//78 79//79 74//74
f 76//76 80//80 77//77
f 81//81 72//72 77//77
f 72//72 82//82 78//78
f 83//83 79//79 78//78
f 81//81 82//82 72//72
f 84//84 85//85 86//86
f 84//84 87//87 85//85
f 87//87 88//88 89//89
f 87//87 90//90 88//88
f 90//90 91//91 88//88
f 84//84 90//90 87//87
f 84//84 92//92 90//90
f 93//93 91//91 90//90
f 91//91 94//94 95//95
f 93//93 94//94 91//91
f 93//93 96//96 94//94
f 97//97 85//85 86//86
f 85//85 98//98 87//87
f 98//98 89//89 87//87
f 88//88 99//99 91//91
f 99//99 95//95 91//91
f 93//93 100//100 90//90
f 100//100 92//92 90//90
f 84//84 97//97 86//86
f 36//36 39//39 101//101
f 39//39 41//41 101//101
f 40//40 43//43 102//102
f 43//43 47//47 102//102
f 47//47 46//46 103//103
f 46//46 48//48 103//103
f 45//45 42//42 104//104
f 42//42 44//44 105//105
f 42//42 105//105 104//104
f 44//44 38//38 105//105
f 49//49 106//106 51//51
f 106//106 50//50 51//51
f 12//12 17//17 107//107
f 17//17 22//22 108//108
f 17//17 108//108 107//107
f 22//22 1//1 108//108
f 56//56 109//109 62//62
f 109//109 61//61 62//62
f 8//8 14//14 109//109
f 8//8 109//109 56//56
f 14//14 13//13 61//61
f 14//14 61//61 109//109
f 13//13 9//9 57//57
f 13//13 57//57 61//61
f 9//9 6//6 54//54
f 9//9 54//54 57//57
f 6//6 110//110 52//52
f 6//6 52//52 54//54
f 110//110 8//8 56//56
f 110//110 56//56 52//52
f 6//6 4//4 110//110
f 4//4 8//8 110//110
f 66//66 111//111 69//69
f 111//111 68//68 69//69
f 18//18 21//21 111//111
f 18//18 111//111 66//66
f 21//21 20//20 68//68
f 21//21 68//68 111//111
f 20//20 19//19 67//67
f 20//20 67//67 68//68
f 19//19 16//16 64//64
f 19//19 64//64 67//67
f 16//16 112//112 63//63
f 16//16 63//63 64//64
f 112//112 18//18 66//66
f 112//112 66//66 63//63
f 16//16 15//15 112//112
f 15//15 18//18 112//112
f 113//113 73//73 71//71
f 73//73 114//114 72//72
f 114//114 115//115 75//75
f 114//114 75//75 72//72
f 115//115 74//74 75//75
f 74//74 116//116 79//79
f 116//116 83//83 79//79
f 83//83 117//117 78//78
f 117//117 82//82 78//78
f 81//81 118//118 77//77
f 118//118 80//80 77//77
f 76//76 113//113 71//71
f 25//25 24//24 119//119
f 24//24 27//27 119//119
f 26//26 31//31 120//120
f 31//31 35//35 120//120
f 35//35 30//30 121//121
f 30//30 34//34 122//122
f 30//30 122//122 121//121
f 34//34 33//33 122//122
f 33//33 29//29 123//123
f 29//29 32//32 124//124
f 29//29 124//124 123//123
f 32//32 28//28 124//124
f 125//125 126//126 127//127
f 125//125 127//127 128//128
f 126//126 129//129 130//130
f 126//126 130//130 127//127
f 131//131 125//125 128//128
f 131//131 128//128 132//132
f 133//133 131//131 132//132
f 133//133 132//132 134//134
f 135//135 133//133 134//134
f 135//135 134//134 136//136
f 137//137 135//135 136//136
f 137//137 136//136 138//138
f 139//139 137//137 138//138
f 139//139 138//138 140//140
f 141//141 139//139 140//140
f 141//141 140//140 142//142
f 143//143 141//141 142//142
f 143//143 142//142 144//144
f 145//145 143//143 144//144
f 145//145 144//144 146//146
f 147//147 145//145 146//146
f 147//147 146//146 148//148
f 149//149 147//147 148//148
f 149//149 148//148 150//150
f 151//151 149//149 150//150
f 151//151 150//150 152//152
f 153//153 151//151 152//152
f 153//153 152//152 154//154
f 155//155 153//153 154//154
f 155//155 154//154 156//156
f 157//157 155//155 156//156
f 157//157 156//156 158//158
f 159//159 157//157 158//158
f 159//159 158//158 160//160
f 161//161 159//159 160//160
f 161//161 160//160 162//162
f 129//129 161//161 162//162
f 129//129 162//162 130//130
f 136//136 163//163 138//138
f 134//134 163//163 136//136
f 132//132 163//163 134//134
f 128//128 163//163 132//132
f 128//128 127//127 163//163
f 127//127 130//130 163//163
f 130//130 162//162 163//163
f 160//160 163//163 162//162
f 158//158 163//163 160//160
f 156//156 163//163 158//158
f 138//138 163//163 140//140
f 140//140 163//163 142//142
f 142//142 163//163 144//144
f 144//144 163//163 146//146
f 146//146 163//163 148//148
f 154//154 163//163 156//156
f 152//152 163//163 154//154
f 150//150 163//163 152//152
f 148//148 163//163 150//150
f 164//164 126//126 125//125
f 164//164 125//125 165//165
f 166//166 129//129 126//126
f 166//166 126//126 164//164
f 165//165 125//125 131//131
f 165//165 131//131 167//167
f 167//167 131//131 133//133
f 167//167 133//133 168//168
f 168//168 133//133 135//135
f 168//168 135//135 169//169
f 169//169 135//135 137//137
f 169//169 137//137 170//170
f 170//170 137//137 139//139
f 170//170 139//139 171//171
f 171//171 139//139 141//141
f 171//171 141//141 172//172
f 172//172 141//141 143//143
f 172//172 143//143 173//173
f 173//173 143//143 145//145
f 173//173 145//145 174//174
f 174//174 145//145 147//147
f 174//174 147//147 175//175
f 175//175 147//147 149//149
f 175//175 149//149 176//176
f 176//176 149//149 151//151
f 176//176 151//151 177//177
f 177//177 151//151 153//153
f 177//177 153//153 178//178
f 178//178 153//153 155//155
f 178//178 155//155 179//179
f 179//179 155//155 157//157
f 179//179 157//157 180//180
f 180//180 157//157 159//159
f 180//180 159//159 181//181
f 181//181 159//159 161//161
f 181//181 161//161 182//182
f 182//182 161//161 129//129
f 182//182 129//129 166//166
f 183//183 184//184 185//185
f 183//183 185//185 186//186
f 187//187 183//183 186//186
f 187//187 186//186 188//188
f 184//184 189//189 190//190
f 184//184 190//190 185//185
f 189//189 191//191 192//192
f 189//189 192//192 190//190
f 191//191 193//193 194//194
f 191//191 194//194 192//192
f 193//193 195//195 196//196
f 193//193 196//196 194//194
f 195//195 197//197 198//198
f 195//195 198//198 196//196
f 197//197 199//199 200//200
f 197//197 200//200 198//198
f 199//199 201//201 202//202
f 199//199 202//202 200//200
f 201//201 203//203 204//204
f 201//201 204//204 202//202
f 203//203 205//205 206//206
f 203//203 206//206 204//204
f 205//205 207//207 208//208
f 205//205 208//208 206//206
f 207//207 209//209 210//210
f 207//207 210//210 208//208
f 209//209 211//211 212//212
f 209//209 212//212 210//210
f 211//211 213//213 214//214
f 211//211 214//214 212//212
f 213//213 215//215 216//216
f 213//213 216//216 214//214
f 215//215 217//217 218//218
f 215//215 218//218 216//216
f 217//217 219//219 220//220
f 217//217 220//220 218//218
f 219//219 187//187 188//188
f 219//219 188//188 220//220
f 3//3 106//106 49//49
f 3//3 49//49 1//1
f 2//2 50//50 106//106
f 2//2 106//106 3//3
f 5//5 53//53 50//50
f 5//5 50//50 2//2
f 7//7 55//55 53//53
f 7//7 53//53 5//5
f 11//11 221//221 55//55
f 11//11 55//55 7//7
f 221//221 59//59 55//55
f 10//10 58//58 221//221
f 10//10 221//221 11//11
f 58//58 59//59 221//221
f 12//12 60//60 58//58
f 12//12 58//58 10//10
f 107//107 65//65 60//60
f 107//107 60//60 12//12
f 108//108 70//70 65//65
f 108//108 65//65 107//107
f 1//1 49//49 70//70
f 1//1 70//70 108//108
f 25//25 73//73 113//113
f 25//25 113//113 23//23
f 119//119 114//114 73//73
f 119//119 73//73 25//25
f 27//27 115//115 114//114
f 27//27 114//114 119//119
f 26//26 74//74 115//115
f 26//26 115//115 27//27
f 120//120 116//116 74//74
f 120//120 74//74 26//26
f 35//35 83//83 116//116
f 35//35 116//116 120//120
f 121//121 117//117 83//83
f 121//121 83//83 35//35
f 122//122 82//82 117//117
f 122//122 117//117 121//121
f 33//33 81//81 82//82
f 33//33 82//82 122//122
f 123//123 118//118 81//81
f 123//123 81//81 33//33
f 124//124 80//80 118//118
f 124//124 118//118 123//123
f 28//28 76//76 80//80
f 28//28 80//80 124//124
f 23//23 113//113 76//76
f 23//23 76//76 28//28
f 97//97 37//37 36//36
f 97//97 36//36 85//85
f 101//101 98//98 85//85
f 101//101 85//85 36//36
f 41//41 222//222 98//98
f 41//41 98//98 101//101
f 222//222 89//89 98//98
f 40//40 88//88 222//222
f 40//40 222//222 41//41
f 88//88 89//89 222//222
f 102//102 99//99 88//88
f 102//102 88//88 40//40
f 47//47 223//223 99//99
f 47//47 99//99 102//102
f 223//223 95//95 99//99
f 103//103 94//94 223//223
f 103//103 223//223 47//47
f 94//94 95//95 223//223
f 48//48 96//96 94//94
f 48//48 94//94 103//103
f 45//45 224//224 96//96
f 45//45 96//96 48//48
f 224//224 93//93 96//96
f 104//104 100//100 224//224
f 104//104 224//224 45//45
f 100//100 93//93 224//224
f 105//105 92//92 100//100
f 105//105 100//100 104//104
f 38//38 84//84 92//92
f 38//38 92//92 105//105
f 37//37 97//97 84//84
f 37//37 84//84 38//38
f 225//225 226//226 227//227
f 225//225 227//227 228//228
f 229//229 225//225 228//228
f 229//229 228//228 230//230
f 231//231 229//229 230//230
f 231//231 230//230 232//232
f 233//233 231//231 232//232
f 233//233 232//232 234//234
f 235//235 233//233 234//234
f 235//235 234//234 236//236
f 237//237 235//235 236//236
f 237//237 236//236 238//238
f 239//239 237//237 238//238
f 239//239 238//238 240//240
f 241//241 239//239 240//240
f 241//241 240//240 242//242
f 243//243 241//241 242//242
f 243//243 242//242 244//244
f 245//245 243//243 244//244
f 245//245 244//244 246//246
f 247//247 245//245 246//246
f 247//247 246//246 248//248
f 249//249 247//247 248//248
f 249//249 248//248 250//250
f 251//251 249//249 250//250
f 251//251 250//250 252//252
f 253//253 251//251 252//252
f 253//253 252//252 254//254
f 255//255 253//253 254//254
f 255//255 254//254 256//256
f 257//257 255//255 256//256
f 257//257 256//256 258//258
f 259//259 257//257 258//258
f 259//259 258//258 260//260
f 226//226 261//261 262//262
f 226//226 262//262 227//227
f 261//261 259//259 260//260
f 261//261 260//260 262//262
f 187//187 219//219 263//263
f 187//187 263//263 264//264
f 219//219 217//217 265//265
f 219//219 265//265 263//263
f 217//217 215//215 266//266
f 217//217 266//266 265//265
f 215//215 213//213 267//267
f 215//215 267//267 266//266
f 213//213 211//211 268//268
f 213//213 268//268 267//267
f 211//211 209//209 269//269
f 211//211 269//269 268//268
f 209//209 207//207 270//270
f 209//209 270//270 269//269
f 207//207 205//205 271//271
f 207//207 271//271 270//270
f 205//205 203//203 272//272
f 205//205 272//272 271//271
f 203//203 201//201 273//273
f 203//203 273//273 272//272
f 201//201 199//199 274//274
f 201//201 274//274 273//273
f 199//199 197//197 275//275
f 199//199 275//275 274//274
f 197//197 195//195 276//276
f 197//197 276//276 275//275
f 195//195 193//193 277//277
f 195//195 277//277 276//276
f 193//193 191//191 278//278
f 193//193 278//278 277//277
f 191//191 189//189 279//279
f 191//191 279//279 278//278
f 189//189 184//184 280//280
f 189//189 280//280 279//279
f 183//183 187//187 264//264
f 183//183 264//264 281//281
f 184//184 183//183 281//281
f 184//184 281//281 280//280
f 279//279 280//280 260//260
f 279//279 260//260 258//258
f 227//227 264//264 263//263
f 227//227 263//263 228//228
f 230//230 265//265 266//266
f 230//230 266//266 232//232
f 236//236 234//234 267//267
f 236//236 267//267 268//268
f 240//240 238//238 269//269
f 240//240 269//269 270//270
f 272//272 244//244 242//242
f 272//272 242//242 271//271
f 274//274 248//248 246//246
f 274//274 246//246 273//273
f 276//276 252//252 250//250
f 276//276 250//250 275//275
f 280//280 281//281 262//262
f 280//280 262//262 260//260
f 228//228 263//263 265//265
f 228//228 265//265 230//230
f 232//232 266//266 267//267
f 232//232 267//267 234//234
f 238//238 236//236 268//268
f 238//238 268//268 269//269
f 242//242 240//240 270//270
f 242//242 270//270 271//271
f 273//273 246//246 244//244
f 273//273 244//244 272//272
f 275//275 250//250 248//248
f 275//275 248//248 274//274
f 276//276 277//277 254//254
f 276//276 254//254 252//252
f 278//278 279//279 258//258
f 278//278 258//258 256//256
f 262//262 281//281 264//264
f 262//262 264//264 227//227
f 277//277 278//278 256//256
f 277//277 256//256 254//254
