# Generated by lxe_pbrt_scene_convert
v 4.75006294 0.319988012 0.0865560025
v 4.75121784 0.320235014 0.0555550009
v 4.75131798 0.335716993 0.0540190004
v 4.75021601 0.343793988 0.0841939971
v 4.74990797 0.295922011 0.082543999
v 4.75111723 0.304583997 0.0529460013
v 4.75121784 0.320235014 0.0555550009
v 4.75006294 0.319988012 0.0865560025
v 4.75021601 0.343793988 0.0841939971
v 4.75131798 0.335716993 0.0540190004
v 4.75142717 0.352679014 0.0457269996
v 4.75038385 0.369877011 0.0714429989
v 4.75038385 0.369877011 0.0714429989
v 4.75142717 0.352679014 0.0457269996
v 4.751513 0.366158992 0.0334150009
v 4.75051785 0.390605986 0.0525109991
v 4.75051785 0.390605986 0.0525109991
v 4.751513 0.366158992 0.0334150009
v 4.75157213 0.375250012 0.0164039992
v 4.75060701 0.404585004 0.0263529997
v 4.75060701 0.404585004 0.0263529997
v 4.75157213 0.375250012 0.0164039992
v 4.75159311 0.378448993 -0.00193799997
v 4.75063896 0.409503996 -0.00185200002
v 4.75063896 0.409503996 -0.00185200002
v 4.75159311 0.378448993 -0.00193799997
v 4.75157309 0.375328988 -0.0223929994
v 4.75060797 0.404707015 -0.0333050005
v 4.75060797 0.404707015 -0.0333050005
v 4.75157309 0.375328988 -0.0223929994
v 4.7515111 0.365743995 -0.0376829989
v 4.75051308 0.389968008 -0.0568169989
v 4.75051308 0.389968008 -0.0568169989
v 4.7515111 0.365743995 -0.0376829989
v 4.75142097 0.351844013 -0.0504710004
v 4.75037622 0.368593991 -0.076481998
v 4.75037622 0.368593991 -0.076481998
v 4.75142097 0.351844013 -0.0504710004
v 4.75132895 0.337666988 -0.0574220009
v 4.75023603 0.346792012 -0.087168999
v 4.75023603 0.346792012 -0.087168999
v 4.75132895 0.337666988 -0.0574220009
v 4.7512188 0.320430994 -0.0596459992
v 4.75006485 0.320288002 -0.0905890018
v 4.75006485 0.320288002 -0.0905890018
v 4.7512188 0.320430994 -0.0596459992
v 4.75104904 0.294019997 -0.0526960008
v 4.74980402 0.279677004 -0.0799020007
v 4.74980402 0.279677004 -0.0799020007
v 4.75104904 0.294019997 -0.0526960008
v 4.75093985 0.277061999 -0.0382389985
v 4.74963617 0.253601998 -0.0576720014
v 4.74963617 0.253601998 -0.0576720014
v 4.75093985 0.277061999 -0.0382389985
v 4.750875 0.267053992 -0.0207250006
v 4.74953699 0.238212004 -0.0307400003
v 4.74953699 0.238212004 -0.0307400003
v 4.750875 0.267053992 -0.0207250006
v 4.75085211 0.263368011 -0.00182100001
v 4.7494998 0.232544005 -0.00167100003
v 4.7494998 0.232544005 -0.00167100003
v 4.75085211 0.263368011 -0.00182100001
v 4.75086689 0.265664995 0.0145819997
v 4.74952316 0.236074001 0.0235510003
v 4.74952316 0.236074001 0.0235510003
v 4.75086689 0.265664995 0.0145819997
v 4.75091982 0.274004012 0.0318179987
v 4.74960613 0.248898998 0.0500550009
v 4.74960613 0.248898998 0.0500550009
v 4.75091982 0.274004012 0.0318179987
v 4.75101614 0.288738012 0.0459959991
v 4.74975109 0.27155599 0.0718569979
v 4.74975109 0.27155599 0.0718569979
v 4.75101614 0.288738012 0.0459959991
v 4.75111723 0.304583997 0.0529460013
v 4.74990797 0.295922011 0.082543999
vn 0.999300003 -0.0027999999 0.0372000001
vn 0.999300003 -0.0027999999 0.0372000001
vn 0.999300003 -0.0027999999 0.0372000001
vn 0.999300003 -0.0027999999 0.0372000001
vn 0.999199986 -0.0126 0.0370999984
vn 0.999199986 -0.0126 0.0370999984
vn 0.999199986 -0.0126 0.0370999984
vn 0.999199986 -0.0126 0.0370999984
vn 0.99940002 0.0100999996 0.0337999985
vn 0.99940002 0.0100999996 0.0337999985
vn 0.99940002 0.0100999996 0.0337999985
vn 0.99940002 0.0100999996 0.0337999985
vn 0.99940002 0.0189999994 0.0277999993
vn 0.99940002 0.0189999994 0.0277999993
vn 0.99940002 0.0189999994 0.0277999993
vn 0.99940002 0.0189999994 0.0277999993
vn 0.999499977 0.0267999992 0.0177999996
vn 0.999499977 0.0267999992 0.0177999996
vn 0.999499977 0.0267999992 0.0177999996
vn 0.999499977 0.0267999992 0.0177999996
vn 0.999499977 0.0307 0.00650000013
vn 0.999499977 0.0307 0.00650000013
vn 0.999499977 0.0307 0.00650000013
vn 0.999499977 0.0307 0.00650000013
vn 0.999499977 0.0307 -0.0057000001
vn 0.999499977 0.0307 -0.0057000001
vn 0.999499977 0.0307 -0.0057000001
vn 0.999499977 0.0307 -0.0057000001
vn 0.999499977 0.0253999997 -0.0199999996
vn 0.999499977 0.0253999997 -0.0199999996
vn 0.999499977 0.0253999997 -0.0199999996
vn 0.999499977 0.0253999997 -0.0199999996
vn 0.99940002 0.0192000009 -0.0277999993
vn 0.99940002 0.0192000009 -0.0277999993
vn 0.99940002 0.0192000009 -0.0277999993
vn 0.99940002 0.0192000009 -0.0277999993
vn 0.99940002 0.0100999996 -0.0337000005
vn 0.99940002 0.0100999996 -0.0337000005
vn 0.99940002 0.0100999996 -0.0337000005
vn 0.99940002 0.0100999996 -0.0337000005
vn 0.999300003 -0.00159999996 -0.0373000018
vn 0.999300003 -0.00159999996 -0.0373000018
vn 0.999300003 -0.00159999996 -0.0373000018
vn 0.999300003 -0.00159999996 -0.0373000018
vn 0.999199986 -0.0162000004 -0.0372000001
vn 0.999199986 -0.0162000004 -0.0372000001
vn 0.999199986 -0.0162000004 -0.0372000001
vn 0.999199986 -0.0162000004 -0.0372000001
vn 0.999100029 -0.0313000008 -0.0292000007
vn 0.999100029 -0.0313000008 -0.0292000007
vn 0.999100029 -0.0313000008 -0.0292000007
vn 0.999100029 -0.0313000008 -0.0292000007
vn 0.999000013 -0.0397000015 -0.0189999994
vn 0.999000013 -0.0397000015 -0.0189999994
vn 0.999000013 -0.0397000015 -0.0189999994
vn 0.999000013 -0.0397000015 -0.0189999994
vn 0.999000013 -0.0438000001 -0.00730000017
vn 0.999000013 -0.0438000001 -0.00730000017
vn 0.999000013 -0.0438000001 -0.00730000017
vn 0.999000013 -0.0438000001 -0.00730000017
vn 0.999000013 -0.0438000001 0.00520000001
vn 0.999000013 -0.0438000001 0.00520000001
vn 0.999000013 -0.0438000001 0.00520000001
vn 0.999000013 -0.0438000001 0.00520000001
vn 0.999000013 -0.0403999984 0.0164000001
vn 0.999000013 -0.0403999984 0.0164000001
vn 0.999000013 -0.0403999984 0.0164000001
vn 0.999000013 -0.0403999984 0.0164000001
vn 0.999100029 -0.0326000005 0.0272000004
vn 0.999100029 -0.0326000005 0.0272000004
vn 0.999100029 -0.0326000005 0.0272000004
vn 0.999100029 -0.0326000005 0.0272000004
vn 0.999199986 -0.0215000007 0.0344999991
vn 0.999199986 -0.0215000007 0.0344999991
vn 0.999199986 -0.0215000007 0.0344999991
vn 0.999199986 -0.0215000007 0.0344999991
f 1//1 2//2 3//3
f 1//1 3//3 4//4
f 5//5 6//6 7//7
f 5//5 7//7 8//8
f 9//9 10//10 11//11
f 9//9 11//11 12//12
f 13//13 14//14 15//15
f 13//13 15//15 16//16
f 17//17 18//18 19//19
f 17//17 19//19 20//20
f 21//21 22//22 23//23
f 21//21 23//23 24//24
f 25//25 26//26 27//27
f 25//25 27//27 28//28
f 29//29 30//30 31//31
f 29//29 31//31 32//32
f 33//33 34//34 35//35
f 33//33 35//35 36//36
f 37//37 38//38 39//39
f 37//37 39//39 40//40
f 41//41 42//42 43//43
f 41//41 43//43 44//44
f 45//45 46//46 47//47
f 45//45 47//47 48//48
f 49//49 50//50 51//51
f 49//49 51//51 52//52
f 53//53 54//54 55//55
f 53//53 55//55 56//56
f 57//57 58//58 59//59
f 57//57 59//59 60//60
f 61//61 62//62 63//63
f 61//61 63//63 64//64
f 65//65 66//66 67//67
f 65//65 67//67 68//68
f 69//69 70//70 71//71
f 69//69 71//71 72//72
f 73//73 74//74 75//75
f 73//73 75//75 76//76
