# Generated by lxe_pbrt_scene_convert
v -4.65937424 0.0654240027 -0.0903220028
v -4.65963793 0.0665749982 -0.0593210012
v -4.64564896 0.0732079968 -0.0577850007
v -4.63786411 0.0756239966 -0.0879599974
v -4.68111992 0.0551129989 -0.0863109976
v -4.67377996 0.0598700009 -0.0567129999
v -4.63032198 0.0804760009 -0.0494929999
v -4.61429501 0.0868000016 -0.0752099976
v -4.61814213 0.0862509981 -0.0371810012
v -4.59556484 0.0956799984 -0.0562769994
v -4.60992718 0.0901459977 -0.0201699995
v -4.58293295 0.101669997 -0.030119
v -4.60703707 0.0915170014 -0.00182799995
v -4.57848883 0.103776999 -0.00191400002
v -4.60985613 0.0901800022 0.0186269991
v -4.58282423 0.101722002 0.0295390002
v -4.61851692 0.0860740021 0.0339169987
v -4.59614086 0.0954070017 0.0530509986
v -4.63107586 0.0801180005 0.0467050001
v -4.61545515 0.0862499997 0.0727159977
v -4.643888 0.0740439966 0.0536549985
v -4.6351552 0.0769089982 0.0834029987
v -4.65946102 0.0666590035 0.0558790006
v -4.65910292 0.0655530021 0.0868230015
v -4.68332577 0.0553440005 0.0489289984
v -4.69579792 0.0481530018 0.0761360005
v -4.69864893 0.0480780005 0.0344729982
v -4.71935987 0.0369810015 0.0539060012
v -4.70769215 0.0437900014 0.0169590004
v -4.73326588 0.0303869992 0.026974
v -4.71102285 0.0422109999 -0.00194600003
v -4.73838806 0.0279590003 -0.00209499989
v -4.70894814 0.0431950018 -0.0183479991
v -4.73519802 0.0294720009 -0.0273170006
v -4.7014122 0.0467679985 -0.035583999
v -4.72360897 0.0349670015 -0.0538219996
v -4.68809795 0.0530809984 -0.0497630015
v -4.70313692 0.0446729995 -0.0756239966
vn -0.274399996 0.6347 0.722299993
vn -0.42930001 0.902400017 -0.0373000018
vn -0.419 0.907299995 -0.0355000012
vn -0.4727 0.530200005 0.70389998
vn -0.111000001 0.714100003 0.691100001
vn -0.43779999 0.898299992 -0.0359000005
vn -0.409200013 0.911899984 -0.0307999998
vn -0.663600028 0.447699994 0.599300027
vn -0.401499987 0.915499985 -0.0228000004
vn -0.81370002 0.370400012 0.448100001
vn -0.396299988 0.917999983 -0.0120999999
vn -0.915600002 0.324600011 0.237100005
vn -0.394499987 0.918900013 -0.00039999999
vn -0.951799989 0.306600004 0.00779999979
vn -0.396899998 0.917800009 0.0127999997
vn -0.913800001 0.314900011 -0.256500006
vn -0.402099997 0.915300012 0.0239000004
vn -0.798399985 0.385800004 -0.462199986
vn -0.409000009 0.912 0.0307999998
vn -0.664900005 0.446700007 -0.598500013
vn -0.41839999 0.907500029 0.0355999991
vn -0.482899994 0.528599977 -0.698099971
vn -0.430400014 0.901899993 0.0373000018
vn -0.247799993 0.633599997 -0.732900023
vn -0.443800002 0.895500004 0.0331999995
vn 0.0217000004 0.754400015 -0.656099975
vn -0.454400003 0.890399992 0.0241
vn 0.215800002 0.857900023 -0.466300011
vn -0.460099995 0.887799978 0.0131999999
vn 0.324000001 0.911300004 -0.254000008
vn -0.462000012 0.886900008 0.00100000005
vn 0.365799993 0.930499971 -0.0196000002
vn -0.460399985 0.887600005 -0.0108000003
vn 0.334800005 0.918299973 0.211300001
vn -0.455300003 0.889999986 -0.0218000002
vn 0.242799997 0.869799972 0.429500014
vn -0.446799994 0.89410001 -0.0308999997
vn 0.0754000023 0.790499985 0.607800007
f 1//1 2//2 3//3
f 1//1 3//3 4//4
f 5//5 6//6 2//2
f 5//5 2//2 1//1
f 4//4 3//3 7//7
f 4//4 7//7 8//8
f 8//8 7//7 9//9
f 8//8 9//9 10//10
f 10//10 9//9 11//11
f 10//10 11//11 12//12
f 12//12 11//11 13//13
f 12//12 13//13 14//14
f 14//14 13//13 15//15
f 14//14 15//15 16//16
f 16//16 15//15 17//17
f 16//16 17//17 18//18
f 18//18 17//17 19//19
f 18//18 19//19 20//20
f 20//20 19//19 21//21
f 20//20 21//21 22//22
f 22//22 21//21 23//23
f 22//22 23//23 24//24
f 24//24 23//23 25//25
f 24//24 25//25 26//26
f 26//26 25//25 27//27
f 26//26 27//27 28//28
f 28//28 27//27 29//29
f 28//28 29//29 30//30
f 30//30 29//29 31//31
f 30//30 31//31 32//32
f 32//32 31//31 33//33
f 32//32 33//33 34//34
f 34//34 33//33 35//35
f 34//34 35//35 36//36
f 36//36 35//35 37//37
f 36//36 37//37 38//38
f 38//38 37//37 6//6
f 38//38 6//6 5//5
