# Generated by lxe_pbrt_scene_convert
v -4.65956688 0.0631029978 -0.00341399992
v -4.67314911 0.0566629991 -0.0515680015
v -4.65956688 0.0631029978 -0.0544949993
v -4.68721104 0.0499950014 -0.0432499982
v -4.69738913 0.0451689996 -0.0309180003
v -4.70424414 0.0419190004 -0.0153989997
v -4.705513 0.041317001 -0.00341399992
v -4.65613985 0.0647279993 7.79999973e-05
v -4.61019278 0.0865140036 7.79999973e-05
v -4.61146307 0.0859119967 0.0120630004
v -4.61831808 0.0826620013 0.0275829993
v -4.62849522 0.0778359994 0.0399149992
v -4.6425581 0.071167998 0.0482320003
v -4.65613985 0.0647279993 0.0511589982
v -4.70725107 0.0449809991 -0.00341399992
v -4.70598078 0.0455840006 -0.0153989997
v -4.69912577 0.0488339998 -0.0309180003
v -4.68894911 0.0536600016 -0.0432499982
v -4.67488623 0.0603279993 -0.0515680015
v -4.661304 0.066767998 -0.0544949993
v -4.661304 0.066767998 -0.00341399992
v -4.61193085 0.0901789963 7.79999973e-05
v -4.61320114 0.0895769969 0.0120630004
v -4.6200552 0.0863260031 0.0275829993
v -4.63023281 0.0815009996 0.0399149992
v -4.64429522 0.0748329982 0.0482320003
v -4.65787697 0.0683929995 0.0511589982
v -4.65787697 0.0683929995 7.79999973e-05
vn 0.768999994 -0.274399996 0.577300012
vn 0.0659999996 -0.715900004 -0.695100009
vn 0.716300011 -0.288899988 -0.635200024
vn -0.1237 -0.801199973 -0.585399985
vn -0.260399997 -0.872099996 -0.414299995
vn -0.355100006 -0.91109997 -0.208900005
vn -0.309199989 -0.778999984 0.545400023
vn -0.274300009 -0.768999994 -0.577300012
vn 0.798900008 -0.253600001 -0.545400023
vn 0.930199981 -0.301600009 0.208900005
vn 0.839999974 -0.350300014 0.414299995
vn 0.698599994 -0.411300004 0.585399985
vn 0.512499988 -0.504100025 0.695100009
vn -0.229699999 -0.737399995 0.635200024
vn -0.798799992 0.253699988 0.545400023
vn -0.930199981 0.301699996 -0.208900005
vn -0.839999974 0.350300014 -0.414299995
vn -0.698599994 0.411300004 -0.585399985
vn -0.512499988 0.504100025 -0.695100009
vn 0.229699999 0.737399995 -0.635200024
vn 0.274399996 0.768999994 0.577300012
vn 0.309100002 0.778999984 -0.545400023
vn 0.355100006 0.911199987 0.208900005
vn 0.260399997 0.872099996 0.414299995
vn 0.1237 0.801199973 0.585399985
vn -0.0659999996 0.715900004 0.695100009
vn -0.716199994 0.288899988 0.635200024
vn -0.768999994 0.274300009 -0.577300012
f 1//1 2//2 3//3
f 1//1 4//4 2//2
f 1//1 5//5 4//4
f 1//1 6//6 5//5
f 1//1 7//7 6//6
f 8//8 9//9 10//10
f 8//8 10//10 11//11
f 8//8 11//11 12//12
f 8//8 12//12 13//13
f 8//8 13//13 14//14
f 7//7 15//15 16//16
f 7//7 16//16 6//6
f 6//6 16//16 17//17
f 6//6 17//17 5//5
f 5//5 17//17 18//18
f 5//5 18//18 4//4
f 4//4 18//18 19//19
f 4//4 19//19 2//2
f 2//2 19//19 20//20
f 2//2 20//20 3//3
f 1//1 21//21 15//15
f 1//1 15//15 7//7
f 3//3 20//20 21//21
f 3//3 21//21 1//1
f 9//9 22//22 23//23
f 9//9 23//23 10//10
f 10//10 23//23 24//24
f 10//10 24//24 11//11
f 11//11 24//24 25//25
f 11//11 25//25 12//12
f 12//12 25//25 26//26
f 12//12 26//26 13//13
f 13//13 26//26 27//27
f 13//13 27//27 14//14
f 8//8 28//28 22//22
f 8//8 22//22 9//9
f 14//14 27//27 28//28
f 14//14 28//28 8//8
f 19//19 21//21 20//20
f 18//18 21//21 19//19
f 17//17 21//21 18//18
f 16//16 21//21 17//17
f 15//15 21//21 16//16
f 22//22 28//28 23//23
f 23//23 28//28 24//24
f 24//24 28//28 25//25
f 25//25 28//28 26//26
f 26//26 28//28 27//27
