# Generated by lxe_pbrt_scene_convert
v -3.0091331 -0.754285991 -1.72832096
v -3.04590511 -0.765763998 -1.72824597
v -3.04814005 -0.754285991 -1.72832096
v -3.03955293 -0.777647972 -1.72817004
v -3.03013611 -0.786248982 -1.72811401
v -3.01828504 -0.792042017 -1.72807705
v -3.0091331 -0.79311502 -1.72807002
v -3.00646591 -0.751389027 -1.72833896
v -3.00646591 -0.712558985 -1.72858906
v -2.99731398 -0.713631988 -1.72858202
v -2.9854629 -0.719425023 -1.728544
v -2.97604609 -0.728026986 -1.72848904
v -2.9696939 -0.73991102 -1.72841203
v -2.96745896 -0.751389027 -1.72833896
v -3.0091331 -0.793134987 -1.73116696
v -3.01828504 -0.792061985 -1.73117495
v -3.03013611 -0.786269009 -1.73121202
v -3.03955293 -0.777667999 -1.73126698
v -3.04590511 -0.765783012 -1.73134398
v -3.04814005 -0.754305005 -1.73141694
v -3.0091331 -0.754305005 -1.73141694
v -3.00646591 -0.712579012 -1.731686
v -2.99731398 -0.713653028 -1.73167896
v -2.9854629 -0.71944499 -1.73164105
v -2.97604609 -0.728047013 -1.73158598
v -2.9696939 -0.739930987 -1.73151004
v -2.96745896 -0.751408994 -1.73143601
v -3.00646591 -0.751408994 -1.73143601
vn -0.577300012 -0.58099997 -0.573599994
vn 0.695100009 0.242699996 -0.676699996
vn 0.635200024 -0.527100027 -0.564499974
vn 0.585399985 0.450700015 -0.673799992
vn 0.414299995 0.604499996 -0.680299997
vn 0.208900005 0.706900001 -0.675700009
vn -0.545400023 0.609399974 -0.575399995
vn 0.577300012 0.573599994 -0.58099997
vn 0.545400023 -0.61680001 -0.567499995
vn -0.208900005 -0.715600014 -0.666499972
vn -0.414299995 -0.613300025 -0.672500014
vn -0.585399985 -0.459300011 -0.667999983
vn -0.695100009 -0.251399994 -0.673500001
vn -0.635200024 0.519800007 -0.571200013
vn -0.545400023 0.61680001 0.567499995
vn 0.208900005 0.715600014 0.666499972
vn 0.414299995 0.613300025 0.672500014
vn 0.585399985 0.459300011 0.667999983
vn 0.695100009 0.251399994 0.673500001
vn 0.635200024 -0.519800007 0.571200013
vn -0.577300012 -0.573599994 0.58099997
vn 0.545400023 -0.609399974 0.575399995
vn -0.208900005 -0.706900001 0.675700009
vn -0.414299995 -0.604499996 0.680299997
vn -0.585399985 -0.450700015 0.673900008
vn -0.695100009 -0.242699996 0.676699996
vn -0.635200024 0.52700001 0.564499974
vn 0.577300012 0.58099997 0.573599994
f 1//1 2//2 3//3
f 1//1 4//4 2//2
f 1//1 5//5 4//4
f 1//1 6//6 5//5
f 1//1 7//7 6//6
f 8//8 9//9 10//10
f 8//8 10//10 11//11
f 8//8 11//11 12//12
f 8//8 12//12 13//13
f 8//8 13//13 14//14
f 7//7 15//15 16//16
f 7//7 16//16 6//6
f 6//6 16//16 17//17
f 6//6 17//17 5//5
f 5//5 17//17 18//18
f 5//5 18//18 4//4
f 4//4 18//18 19//19
f 4//4 19//19 2//2
f 2//2 19//19 20//20
f 2//2 20//20 3//3
f 1//1 21//21 15//15
f 1//1 15//15 7//7
f 3//3 20//20 21//21
f 3//3 21//21 1//1
f 9//9 22//22 23//23
f 9//9 23//23 10//10
f 10//10 23//23 24//24
f 10//10 24//24 11//11
f 11//11 24//24 25//25
f 11//11 25//25 12//12
f 12//12 25//25 26//26
f 12//12 26//26 13//13
f 13//13 26//26 27//27
f 13//13 27//27 14//14
f 8//8 28//28 22//22
f 8//8 22//22 9//9
f 14//14 27//27 28//28
f 14//14 28//28 8//8
f 19//19 21//21 20//20
f 18//18 21//21 19//19
f 17//17 21//21 18//18
f 16//16 21//21 17//17
f 15//15 21//21 16//16
f 22//22 28//28 23//23
f 23//23 28//28 24//24
f 24//24 28//28 25//25
f 25//25 28//28 26//26
f 26//26 28//28 27//27
