# Generated by lxe_pbrt_scene_convert
v -2.02989411 -0.0432960019 1.840662
v -2.019135 -0.0430639982 1.840662
v -2.00319695 -0.0143830003 1.840662
v -2.01416492 -0.0146190003 1.840662
v -2.02989411 -0.0432960019 -1.840662
v -2.01416492 -0.0146190003 -1.840662
v -2.00319695 -0.0143830003 -1.840662
v -2.019135 -0.0430639982 -1.840662
vt 0.666700006 1
vt 1 1
vt 1 0
vt 0.666700006 0
vt 0.666700006 1
vt 0.666700006 0
vt 1 0
vt 1 1
vn -0 0 1
vn -0 0 1
vn -0 0 1
vn -0 0 1
vn -0 0 -1
vn -0 0 -1
vn -0 0 -1
vn -0 0 -1
f 1/1/1 2/2/2 3/3/3
f 1/1/1 3/3/3 4/4/4
f 5/5/5 6/6/6 7/7/7
f 5/5/5 7/7/7 8/8/8
