# Generated by lxe_pbrt_scene_convert
v -1.91889799 0.524215996 0.410490006
v -2.16954398 0.567664027 0.438414007
v -2.19528198 0.570248008 0
v -1.94279397 0.52975601 0
v -1.85797906 0.512163997 0.817897975
v -2.11777091 0.559285998 0.863519013
v -1.76952398 0.506744027 1.18361199
v -2.02293801 0.542410016 1.244017
v -1.65609598 0.514577985 1.49993205
v -1.72028697 0.540418983 1.49228203
v -1.88777697 0.534065008 1.41664195
v -1.70760298 0.514460981 1.37511301
v -1.91889799 0.524215996 -0.410490006
v -2.16954398 0.567664027 -0.438414007
v -2.11777091 0.559285998 -0.863519013
v -1.85797906 0.512163997 -0.817897975
v -2.02293801 0.542410016 -1.244017
v -1.76952398 0.506744027 -1.18361199
v -1.65609598 0.514577985 -1.49993205
v -1.70760298 0.514460981 -1.37511301
v -1.88777697 0.534065008 -1.41664195
v -1.72028697 0.540418983 -1.49228203
vn -0.169699997 -0.985499978 -0.000199999995
vn -0.169699997 -0.985499978 -0.000199999995
vn -0.164499998 -0.986400008 0
vn -0.164499998 -0.986400008 0
vn -0.165999994 -0.986100018 0.00439999998
vn -0.166199997 -0.986100018 0.00430000015
vn -0.134499997 -0.9903 0.0348000005
vn -0.138699993 -0.989899993 0.0300999992
vn -0.152600005 -0.968200028 0.197999999
vn -0.152600005 -0.968200028 0.197999999
vn -0.122699998 -0.987999976 0.0938000008
vn -0.134399995 -0.98180002 0.134200007
vn -0.169699997 -0.985499978 0.000199999995
vn -0.169699997 -0.985499978 0.000199999995
vn -0.166199997 -0.986100018 -0.00430000015
vn -0.165999994 -0.986100018 -0.00439999998
vn -0.138699993 -0.989899993 -0.0300999992
vn -0.134499997 -0.9903 -0.0348000005
vn -0.152600005 -0.968200028 -0.197999999
vn -0.134399995 -0.98180002 -0.134200007
vn -0.122699998 -0.987999976 -0.0938000008
vn -0.152600005 -0.968200028 -0.197999999
f 1//1 2//2 3//3
f 1//1 3//3 4//4
f 1//1 5//5 6//6
f 1//1 6//6 2//2
f 5//5 7//7 8//8
f 5//5 8//8 6//6
f 9//9 10//10 11//11
f 9//9 11//11 12//12
f 7//7 12//12 11//11
f 7//7 11//11 8//8
f 13//13 4//4 3//3
f 13//13 3//3 14//14
f 13//13 14//14 15//15
f 13//13 15//15 16//16
f 16//16 15//15 17//17
f 16//16 17//17 18//18
f 19//19 20//20 21//21
f 19//19 21//21 22//22
f 18//18 17//17 21//21
f 18//18 21//21 20//20
