# Generated by lxe_pbrt_scene_convert
v 3.1055491 0.652692974 0.236714005
v 3.01267505 0.652692974 0.236886993
v 3.01259708 0.652692974 0.280508012
v 3.10530305 0.652692974 0.280351013
v 3.01235294 0.652692974 0.325522989
v 3.10482597 0.652692974 0.325486004
v 2.92250109 0.652692974 0.237256005
v 2.92258811 0.652692974 0.280914992
v 2.92258811 0.652692974 0.325827986
v 3.19826603 0.652692974 0.280353993
v 3.19874692 0.652692974 0.236671001
v 3.289042 0.652692974 0.280425996
v 3.28989291 0.652692974 0.236689001
v 3.197505 0.652692974 0.325610995
v 3.28788805 0.652692974 0.325792015
v 3.19901109 0.652692974 0.194465995
v 3.10561991 0.652692974 0.194508001
v 3.19911695 0.652692974 0.153642997
v 3.10556889 0.652692974 0.153663993
v 3.29049206 0.652692974 0.194465995
v 3.29089308 0.652692974 0.153642997
v 3.01262903 0.652692974 0.194635004
v 2.92234802 0.652692974 0.194888994
v 3.01249695 0.652692974 0.153727993
v 2.922153 0.652692974 0.153854996
v 3.10531092 0.652692974 0.075538002
v 3.01213908 0.652692974 0.0755439997
v 3.01232004 0.652692974 0.114141002
v 3.10545111 0.652692974 0.114115
v 2.92173791 0.652692974 0.0755570009
v 2.92193699 0.652692974 0.114192002
v 3.19912791 0.652692974 0.114106998
v 3.19908404 0.652692974 0.0755349994
v 3.29114699 0.652692974 0.114106998
v 3.29128695 0.652692974 0.0755349994
v 3.19902396 0.652692974 0.0376069993
v 3.10519195 0.652692974 0.0376069993
v 3.19899106 0.652692974 0
v 3.10513711 0.652692974 0
v 3.29134607 0.652692974 0.0376069993
v 3.29135394 0.652692974 0
v 3.01199698 0.652692974 0.0376069993
v 2.9215889 0.652692974 0.0376069993
v 3.01193595 0.652692974 0
v 2.9215281 0.652692974 0
v 2.75611091 0.652692974 0.238714993
v 2.67735791 0.652692974 0.239675
v 2.67826605 0.652692974 0.283832014
v 2.75670791 0.652692974 0.282660991
v 2.67934299 0.652692974 0.328613013
v 2.75738502 0.652692974 0.327466995
v 2.59987307 0.652692974 0.240700006
v 2.60110807 0.652692974 0.285086989
v 2.60260201 0.652692974 0.329854012
v 2.83771992 0.652692974 0.281661004
v 2.83740211 0.652692974 0.237886995
v 2.83803296 0.652692974 0.326507002
v 2.83708811 0.652692974 0.195313007
v 2.75559402 0.652692974 0.195864007
v 2.83678699 0.652692974 0.154066995
v 2.75515509 0.652692974 0.154341996
v 2.67660999 0.652692974 0.196499005
v 2.59888101 0.652692974 0.197176993
v 2.67601204 0.652692974 0.154660001
v 2.59811401 0.652692974 0.154999003
v 2.75452089 0.652692974 0.0756049976
v 2.67523503 0.652692974 0.0756369978
v 2.67555499 0.652692974 0.114514001
v 2.75479293 0.652692974 0.114386998
v 2.59718394 0.652692974 0.0756710023
v 2.59755492 0.652692974 0.114648998
v 2.83650804 0.652692974 0.114275999
v 2.83627701 0.652692974 0.0755779967
v 2.83611798 0.652692974 0.0376069993
v 2.75434804 0.652692974 0.0376069993
v 2.83605599 0.652692974 0
v 2.754287 0.652692974 0
v 2.67504597 0.652692974 0.0376069993
v 2.5969789 0.652692974 0.0376069993
v 2.67498493 0.652692974 0
v 2.59691691 0.652692974 0
v 3.1055491 0.652692974 -0.236714005
v 3.10530305 0.652692974 -0.280351013
v 3.01259708 0.652692974 -0.280508012
v 3.01267505 0.652692974 -0.236886993
v 2.92258811 0.652692974 -0.280914992
v 2.92250109 0.652692974 -0.237256005
v 3.10482597 0.652692974 -0.325486004
v 3.01235294 0.652692974 -0.325522989
v 2.92258811 0.652692974 -0.325827986
v 3.01262903 0.652692974 -0.194635004
v 3.10561991 0.652692974 -0.194508001
v 3.01249695 0.652692974 -0.153727993
v 3.10556889 0.652692974 -0.153663993
v 2.92234802 0.652692974 -0.194888994
v 2.922153 0.652692974 -0.153854996
v 3.19901109 0.652692974 -0.194465995
v 3.19874692 0.652692974 -0.236671001
v 3.29049206 0.652692974 -0.194465995
v 3.28989291 0.652692974 -0.236689001
v 3.19911695 0.652692974 -0.153642997
v 3.29089308 0.652692974 -0.153642997
v 3.19826603 0.652692974 -0.280353993
v 3.197505 0.652692974 -0.325610995
v 3.289042 0.652692974 -0.280425996
v 3.28788805 0.652692974 -0.325792015
v 3.10531092 0.652692974 -0.075538002
v 3.10545111 0.652692974 -0.114115
v 3.01232004 0.652692974 -0.114141002
v 3.01213908 0.652692974 -0.0755439997
v 2.92193699 0.652692974 -0.114192002
v 2.92173791 0.652692974 -0.0755570009
v 3.01199698 0.652692974 -0.0376069993
v 3.10519195 0.652692974 -0.0376069993
v 2.9215889 0.652692974 -0.0376069993
v 3.19902396 0.652692974 -0.0376069993
v 3.19908404 0.652692974 -0.0755349994
v 3.29134607 0.652692974 -0.0376069993
v 3.29128695 0.652692974 -0.0755349994
v 3.19912791 0.652692974 -0.114106998
v 3.29114699 0.652692974 -0.114106998
v 2.75611091 0.652692974 -0.238714993
v 2.75670791 0.652692974 -0.282660991
v 2.67826509 0.652692974 -0.283832014
v 2.67735696 0.652692974 -0.239675
v 2.60110807 0.652692974 -0.285086989
v 2.59987307 0.652692974 -0.240700006
v 2.75738502 0.652692974 -0.327466995
v 2.67934299 0.652692974 -0.328613013
v 2.60260201 0.652692974 -0.329854012
v 2.67660999 0.652692974 -0.196499005
v 2.75559402 0.652692974 -0.195864007
v 2.67601204 0.652692974 -0.154660001
v 2.75515509 0.652692974 -0.154341996
v 2.59888101 0.652692974 -0.197176993
v 2.59811401 0.652692974 -0.154999003
v 2.83708811 0.652692974 -0.195313007
v 2.83740211 0.652692974 -0.237886995
v 2.83678699 0.652692974 -0.154066995
v 2.83771992 0.652692974 -0.281661004
v 2.83803296 0.652692974 -0.326507002
v 2.75451994 0.652692974 -0.0756049976
v 2.75479293 0.652692974 -0.114386998
v 2.67555499 0.652692974 -0.114514001
v 2.67523503 0.652692974 -0.0756369978
v 2.59755492 0.652692974 -0.114648998
v 2.59718394 0.652692974 -0.0756710023
v 2.67504597 0.652692974 -0.0376069993
v 2.75434804 0.652692974 -0.0376069993
v 2.5969789 0.652692974 -0.0376069993
v 2.83611798 0.652692974 -0.0376069993
v 2.83627701 0.652692974 -0.0755779967
v 2.83650804 0.652692974 -0.114275999
v 3.46472502 0.652692974 0.0755370036
v 3.46520591 0.652692974 0.0376069993
v 3.38000703 0.652692974 0.0376069993
v 3.37975192 0.652692974 0.0755349994
v 3.46536493 0.652692974 0
v 3.38008499 0.652692974 0
v 3.37930298 0.652692974 0.114106998
v 3.46391797 0.652692974 0.114113003
v 3.37864304 0.652692974 0.153642997
v 3.46278095 0.652692974 0.153659001
v 3.54531097 0.652692974 0.114132002
v 3.54645395 0.652692974 0.0755420029
v 3.6238029 0.652692974 0.114169002
v 3.62518501 0.652692974 0.0755510032
v 3.54371905 0.652692974 0.153705001
v 3.62186694 0.652692974 0.153798997
v 3.54714203 0.652692974 0.0376069993
v 3.54737306 0.652692974 0
v 3.62601399 0.652692974 0.0376069993
v 3.62629008 0.652692974 0
v 3.77508307 0.652692974 0.075586997
v 3.77587509 0.652692974 0.0376069993
v 3.70201898 0.652692974 0.0376069993
v 3.70116496 0.652692974 0.0755660012
v 3.77611995 0.652692974 0
v 3.70229602 0.652692974 0
v 3.69971299 0.652692974 0.114230998
v 3.77368689 0.652692974 0.114312001
v 3.69763899 0.652692974 0.153953999
v 3.7716291 0.652692974 0.154155999
v 3.84636998 0.652692974 0.114404999
v 3.84762502 0.652692974 0.0756099969
v 3.91840696 0.652692974 0.114505
v 3.91947889 0.652692974 0.0756350011
v 3.84442997 0.652692974 0.154388994
v 3.91663694 0.652692974 0.154638007
v 3.84829712 0.652692974 0.0376069993
v 3.84848809 0.652692974 0
v 3.92000294 0.652692974 0.0376069993
v 3.92012811 0.652692974 0
v 3.76546597 0.652692974 0.238316
v 3.76885295 0.652692974 0.195491999
v 3.69492292 0.652692974 0.195087001
v 3.69167089 0.652692974 0.237688005
v 3.61937809 0.652692974 0.194776997
v 3.61642694 0.652692974 0.237203002
v 3.6879921 0.652692974 0.281812012
v 3.76157594 0.652692974 0.282629013
v 3.68399191 0.652692974 0.327515006
v 3.75729203 0.652692974 0.328426987
v 3.61311007 0.652692974 0.281177998
v 3.609519 0.652692974 0.326801002
v 3.83429599 0.652692974 0.283569008
v 3.83829498 0.652692974 0.239041001
v 3.90658402 0.652692974 0.284568995
v 3.91064095 0.652692974 0.239813
v 3.82980895 0.652692974 0.329470992
v 3.90193391 0.652692974 0.330579996
v 3.84170604 0.652692974 0.195958003
v 3.91402006 0.652692974 0.196455002
v 3.4595201 0.652692974 0.236759007
v 3.46130896 0.652692974 0.194497004
v 3.37775207 0.652692974 0.194465995
v 3.37660909 0.652692974 0.236701995
v 3.37519002 0.652692974 0.280479014
v 3.45743394 0.652692974 0.280577004
v 3.37347198 0.652692974 0.325924009
v 3.45506692 0.652692974 0.326083004
v 3.53649902 0.652692974 0.280788004
v 3.53925204 0.652692974 0.23691
v 3.53347993 0.652692974 0.32634899
v 3.54167891 0.652692974 0.194590002
v 3.44941711 0.652692974 0.423584014
v 3.36899805 0.652692974 0.423195988
v 3.36608696 0.652692974 0.477016985
v 3.44586992 0.652692974 0.477642
v 3.36262393 0.652692974 0.535624027
v 3.44166803 0.652692974 0.536612988
v 3.28448009 0.652692974 0.422724009
v 3.282161 0.652692974 0.476231009
v 3.27938795 0.652692974 0.534394979
v 3.52242398 0.652692974 0.478181005
v 3.52663302 0.652692974 0.423967987
v 3.5966661 0.652692974 0.478711009
v 3.60154605 0.652692974 0.424428999
v 3.51743793 0.652692974 0.537432015
v 3.59085703 0.652692974 0.538154006
v 3.53025508 0.652692974 0.37371701
v 3.45243812 0.652692974 0.37340799
v 3.60574698 0.652692974 0.374172002
v 3.37143397 0.652692974 0.373163998
v 3.28637791 0.652692974 0.372900993
v 3.747509 0.652692974 0.425781995
v 3.75272107 0.652692974 0.375708997
v 3.67978096 0.652692974 0.374855012
v 3.67505503 0.652692974 0.42504701
v 3.66950989 0.652692974 0.479306996
v 3.74130511 0.652692974 0.479952991
v 3.66284299 0.652692974 0.538851023
v 3.73375392 0.652692974 0.539529979
v 3.81240201 0.652692974 0.480632991
v 3.81926203 0.652692974 0.426595986
v 3.88314891 0.652692974 0.481328994
v 3.8906641 0.652692974 0.427448988
v 3.80394793 0.652692974 0.540196002
v 3.87378502 0.652692974 0.54085499
v 3.82493091 0.652692974 0.376677006
v 3.89677691 0.652692974 0.377703011
v 3.71375203 0.652692974 0.677183986
v 3.72450209 0.652692974 0.605818987
v 3.65475011 0.652692974 0.604896009
v 3.64539194 0.652692974 0.675868988
v 3.58386993 0.652692974 0.603897989
v 3.57581711 0.652692974 0.674427986
v 3.63492393 0.652692974 0.750198007
v 3.70170498 0.652692974 0.75198698
v 3.62350702 0.652692974 0.826310992
v 3.68856311 0.652692974 0.828592002
v 3.56680799 0.652692974 0.748229027
v 3.5569551 0.652692974 0.823786974
v 3.76759601 0.652692974 0.753655016
v 3.78130293 0.652692974 0.678412974
v 3.83304191 0.652692974 0.755262971
v 3.84844995 0.652692974 0.679601014
v 3.75262189 0.652692974 0.830709994
v 3.8161819 0.652692974 0.832746983
v 3.7935009 0.652692974 0.606691003
v 3.86212397 0.652692974 0.607538998
v 3.66001892 0.652692974 0.982073009
v 3.64546204 0.652692974 1.05850601
v 3.69818211 0.652692974 1.05229795
v 3.71875691 0.652692974 0.982585013
v 3.75096798 0.652692974 1.04519701
v 3.77705002 0.652692974 0.98277998
v 3.63088107 0.652692974 1.13480103
v 3.67625308 0.652692974 1.11951005
v 3.71800399 0.652692974 1.09246302
v 3.73662305 0.652692974 0.907871008
v 3.67452693 0.652692974 0.905360997
v 3.79815292 0.652692974 0.910274029
v 3.61129808 0.652692974 0.902634978
v 3.600389 0.652692974 0.98092401
v 3.54636908 0.652692974 0.899587989
v 3.53808808 0.652692974 0.978088021
v 3.5928719 0.652692974 1.06293094
v 3.58705211 0.652692974 1.14679599
v 3.535146 0.652692974 1.06174195
v 3.54993391 0.652692974 1.16395605
v 3.43090296 0.652692974 0.670965016
v 3.35375404 0.652692974 0.668802023
v 3.34823704 0.652692974 0.740602016
v 3.42434812 0.652692974 0.743498981
v 3.34192491 0.652692974 0.814028978
v 3.41701508 0.652692974 0.817704976
v 3.27226996 0.652692974 0.666256011
v 3.267694 0.652692974 0.737259984
v 3.2622869 0.652692974 0.809849977
v 3.4969101 0.652692974 0.746017992
v 3.50462198 0.652692974 0.672816992
v 3.48840809 0.652692974 0.820937991
v 3.5114851 0.652692974 0.602798998
v 3.43667698 0.652692974 0.601527989
v 3.358531 0.652692974 0.600013971
v 3.27612901 0.652692974 0.598185003
v 3.400769 0.652692974 0.965915978
v 3.32701707 0.652692974 0.960029006
v 3.31895304 0.652692974 1.02943802
v 3.39333606 0.652692974 1.03801799
v 3.31083703 0.652692974 1.09434295
v 3.38568711 0.652692974 1.104954
v 3.24888611 0.652692974 0.954180002
v 3.24140096 0.652692974 1.02277803
v 3.23373103 0.652692974 1.08690298
v 3.46701694 0.652692974 1.05111206
v 3.47133589 0.652692974 0.97250998
v 3.46168494 0.652692974 1.12264395
v 3.47917509 0.652692974 0.896111012
v 3.40890789 0.652692974 0.892162025
v 3.33476305 0.652692974 0.887699008
v 3.25593305 0.652692974 0.882681012
v 3.36750793 0.652692974 1.21575201
v 3.29519296 0.652692974 1.20741796
v 3.28755903 0.652692974 1.25863099
v 3.35805511 0.652692974 1.26552999
v 3.27997804 0.652692974 1.30832303
v 3.34856892 0.652692974 1.31392801
v 3.21858501 0.652692974 1.19853199
v 3.21107292 0.652692974 1.24905801
v 3.20357895 0.652692974 1.29807305
v 3.42201591 0.652692974 1.26816106
v 3.43678498 0.652692974 1.22392595
v 3.48270988 0.652692974 1.26865804
v 3.50454211 0.652692974 1.23202097
v 3.40687394 0.652692974 1.31146705
v 3.45241404 0.652692974 1.29751801
v 3.45080805 0.652692974 1.17783499
v 3.37689805 0.652692974 1.16321301
v 3.52468991 0.652692974 1.19474196
v 3.30293489 0.652692974 1.15316296
v 3.22613192 0.652692974 1.14498401
v 3.07844901 0.652692974 0.940792024
v 3.07183504 0.652692974 1.00761998
v 3.15821004 0.652692974 1.01544499
v 3.16517806 0.652692974 0.947700977
v 3.06472707 0.652692974 1.06995595
v 3.15096593 0.652692974 1.07872701
v 3.17161012 0.652692974 0.877065003
v 3.08435702 0.652692974 0.871057987
v 3.17724895 0.652692974 0.805109024
v 3.08934402 0.652692974 0.800002992
v 2.9967339 0.652692974 0.864866018
v 2.991256 0.652692974 0.933656991
v 2.91130209 0.652692974 0.858696997
v 2.90615296 0.652692974 0.926496983
v 3.00110292 0.652692974 0.794730008
v 2.915061 0.652692974 0.789487004
v 2.984725 0.652692974 0.999484003
v 2.97720003 0.652692974 1.06072903
v 2.89933491 0.652692974 0.991217017
v 2.89056897 0.652692974 1.05118597
v 3.09613609 0.652692974 0.659955025
v 3.00659609 0.652692974 0.656508029
v 3.00430799 0.652692974 0.724864006
v 3.09319496 0.652692974 0.729212999
v 2.91947794 0.652692974 0.653068006
v 2.91770911 0.652692974 0.720535994
v 3.18183589 0.652692974 0.733403981
v 3.18554592 0.652692974 0.66325599
v 3.188555 0.652692974 0.595969975
v 3.0983901 0.652692974 0.593497992
v 3.19104004 0.652692974 0.532851994
v 3.10017896 0.652692974 0.531108975
v 3.00821304 0.652692974 0.590900004
v 2.92060494 0.652692974 0.58830601
v 3.00940609 0.652692974 0.529278994
v 2.92132092 0.652692974 0.527472973
v 3.10302806 0.652692974 0.421395987
v 3.01126003 0.652692974 0.420758009
v 3.01042509 0.652692974 0.472882003
v 3.10173011 0.652692974 0.474056005
v 2.92224097 0.652692974 0.42028299
v 2.92186093 0.652692974 0.471794009
v 3.19317508 0.652692974 0.475208998
v 3.19496202 0.652692974 0.422087997
v 3.19640493 0.652692974 0.372539014
v 3.10406399 0.652692974 0.372186989
v 3.01190495 0.652692974 0.371955991
v 2.92247796 0.652692974 0.371955991
v 3.04974604 0.652692974 1.17791295
v 2.95956612 0.652692974 1.16617203
v 2.94992805 0.652692974 1.21346998
v 3.04201102 0.652692974 1.22657299
v 2.94005489 0.652692974 1.25921702
v 3.03420591 0.652692974 1.27371395
v 2.86691499 0.652692974 1.15347099
v 2.85314012 0.652692974 1.19899595
v 2.83880901 0.652692974 1.24291599
v 3.12914109 0.652692974 1.23840404
v 3.13642693 0.652692974 1.18869805
v 3.12185097 0.652692974 1.28660202
v 3.14370298 0.652692974 1.13597596
v 3.0573411 0.652692974 1.12621403
v 2.96873498 0.652692974 1.11577594
v 2.87957692 0.652692974 1.10473597
v 2.75886297 0.652692974 0.420078993
v 2.68183899 0.652692974 0.420215011
v 2.68286991 0.652692974 0.469498008
v 2.75941801 0.652692974 0.470151007
v 2.6834991 0.652692974 0.522745013
v 2.7596879 0.652692974 0.524240971
v 2.606148 0.652692974 0.420419008
v 2.60765696 0.652692974 0.468894988
v 2.6086309 0.652692974 0.521283984
v 2.83863711 0.652692974 0.470899999
v 2.83855295 0.652692974 0.420078993
v 2.83852196 0.652692974 0.52580601
v 2.83833098 0.652692974 0.372296989
v 2.75814509 0.652692974 0.372895002
v 2.68059802 0.652692974 0.373663992
v 2.60437202 0.652692974 0.374518007
v 2.74872494 0.652692974 0.912662983
v 2.67407703 0.652692974 0.905901015
v 2.66401505 0.652692974 0.966664016
v 2.74002194 0.652692974 0.974819005
v 2.64608693 0.652692974 1.02167702
v 2.72578311 0.652692974 1.03161597
v 2.60059094 0.652692974 0.899182975
v 2.58905101 0.652692974 0.958521008
v 2.56716108 0.652692974 1.011693
v 2.81811404 0.652692974 0.982999027
v 2.82569599 0.652692974 0.919514
v 2.80701995 0.652692974 1.04146695
v 2.83062291 0.652692974 0.852756023
v 2.7535069 0.652692974 0.846985996
v 2.83374906 0.652692974 0.784470975
v 2.75598407 0.652692974 0.779627025
v 2.67876792 0.652692974 0.841329992
v 2.60521698 0.652692974 0.835731983
v 2.680583 0.652692974 0.774896979
v 2.60636592 0.652692974 0.770223022
v 2.75893497 0.652692974 0.646627009
v 2.68301797 0.652692974 0.643545985
v 2.682019 0.652692974 0.708541989
v 2.75776911 0.652692974 0.71242398
v 2.60834694 0.652692974 0.640506029
v 2.6074729 0.652692974 0.704708993
v 2.83593106 0.652692974 0.716405988
v 2.83734012 0.652692974 0.649787009
v 2.83814692 0.652692974 0.58584398
v 2.75955105 0.652692974 0.583482981
v 2.68353009 0.652692974 0.581188023
v 2.60879707 0.652692974 0.578926027
v 2.67901897 0.652692974 1.12532794
v 2.70439196 0.652692974 1.08121598
v 2.61779594 0.652692974 1.06899595
v 2.58726001 0.652692974 1.11019194
v 2.53148508 0.652692974 1.05664599
v 2.49652004 0.652692974 1.09472501
v 2.56259298 0.652692974 1.14683199
v 2.65283394 0.652692974 1.16566503
v 2.54086089 0.652692974 1.18119502
v 2.62624097 0.652692974 1.20411396
v 2.47676396 0.652692974 1.12727904
v 2.48671198 0.652692974 1.155653
v 2.7518959 0.652692974 1.18305695
v 2.77281904 0.652692974 1.13980603
v 2.72988105 0.652692974 1.22461796
v 2.79155803 0.652692974 1.09317303
v 3.46472502 0.652692974 -0.0755370036
v 3.37975192 0.652692974 -0.0755349994
v 3.38000703 0.652692974 -0.0376069993
v 3.46520591 0.652692974 -0.0376069993
v 3.54714203 0.652692974 -0.0376069993
v 3.54645395 0.652692974 -0.0755420029
v 3.62601399 0.652692974 -0.0376069993
v 3.62518501 0.652692974 -0.0755510032
v 3.54531097 0.652692974 -0.114132002
v 3.46391797 0.652692974 -0.114113003
v 3.54371905 0.652692974 -0.153705001
v 3.46278095 0.652692974 -0.153659001
v 3.6238029 0.652692974 -0.114169002
v 3.62186694 0.652692974 -0.153798997
v 3.37930298 0.652692974 -0.114106998
v 3.37864304 0.652692974 -0.153642997
v 3.77508307 0.652692974 -0.075586997
v 3.70116496 0.652692974 -0.0755660012
v 3.70201898 0.652692974 -0.0376069993
v 3.77587509 0.652692974 -0.0376069993
v 3.84829712 0.652692974 -0.0376069993
v 3.84762502 0.652692974 -0.0756099969
v 3.92000294 0.652692974 -0.0376069993
v 3.91947889 0.652692974 -0.0756350011
v 3.84636998 0.652692974 -0.114404999
v 3.77368689 0.652692974 -0.114312001
v 3.84442997 0.652692974 -0.154388994
v 3.7716291 0.652692974 -0.154155999
v 3.91840696 0.652692974 -0.114505
v 3.91663694 0.652692974 -0.154638007
v 3.69971299 0.652692974 -0.114230998
v 3.69763899 0.652692974 -0.153953999
v 3.76546597 0.652692974 -0.238316
v 3.69167089 0.652692974 -0.237688005
v 3.69492292 0.652692974 -0.195087001
v 3.76885295 0.652692974 -0.195491999
v 3.61642694 0.652692974 -0.237203002
v 3.61937809 0.652692974 -0.194776997
v 3.84170604 0.652692974 -0.195958003
v 3.83829498 0.652692974 -0.239041001
v 3.91402006 0.652692974 -0.196455002
v 3.91064095 0.652692974 -0.239813
v 3.83429599 0.652692974 -0.283569008
v 3.76157594 0.652692974 -0.282629013
v 3.82980895 0.652692974 -0.329470992
v 3.75729203 0.652692974 -0.328426987
v 3.90658402 0.652692974 -0.284568995
v 3.90193391 0.652692974 -0.330579996
v 3.6879921 0.652692974 -0.281812012
v 3.61311007 0.652692974 -0.281177998
v 3.68399191 0.652692974 -0.327515006
v 3.609519 0.652692974 -0.326801002
v 3.4595201 0.652692974 -0.236759007
v 3.37660909 0.652692974 -0.236701995
v 3.37775207 0.652692974 -0.194465995
v 3.46130896 0.652692974 -0.194497004
v 3.54167795 0.652692974 -0.194590002
v 3.53925204 0.652692974 -0.23691
v 3.53649902 0.652692974 -0.280788004
v 3.45743394 0.652692974 -0.280577004
v 3.53347993 0.652692974 -0.32634899
v 3.45506692 0.652692974 -0.326083004
v 3.37519002 0.652692974 -0.280479014
v 3.37347198 0.652692974 -0.325924009
v 3.44941711 0.652692974 -0.423584014
v 3.44586992 0.652692974 -0.477642
v 3.36608696 0.652692974 -0.477016985
v 3.36899805 0.652692974 -0.423195988
v 3.282161 0.652692974 -0.476231009
v 3.28448009 0.652692974 -0.422724009
v 3.44166803 0.652692974 -0.536612988
v 3.36262393 0.652692974 -0.535624027
v 3.27938795 0.652692974 -0.534394979
v 3.37143397 0.652692974 -0.373163998
v 3.45243812 0.652692974 -0.37340799
v 3.28637791 0.652692974 -0.372900993
v 3.53025508 0.652692974 -0.37371701
v 3.52663302 0.652692974 -0.423967987
v 3.60574698 0.652692974 -0.374172002
v 3.60154605 0.652692974 -0.424428999
v 3.52242398 0.652692974 -0.478181005
v 3.51743889 0.652692974 -0.537432015
v 3.5966661 0.652692974 -0.478711009
v 3.59085703 0.652692974 -0.538154006
v 3.747509 0.652692974 -0.425781995
v 3.67505503 0.652692974 -0.42504701
v 3.67978096 0.652692974 -0.374855012
v 3.75272107 0.652692974 -0.375708997
v 3.82493091 0.652692974 -0.376677006
v 3.81926203 0.652692974 -0.426595986
v 3.89677691 0.652692974 -0.377703011
v 3.8906641 0.652692974 -0.427448988
v 3.81240201 0.652692974 -0.480632991
v 3.74130511 0.652692974 -0.479952991
v 3.80394793 0.652692974 -0.540196002
v 3.73375392 0.652692974 -0.539529979
v 3.88314891 0.652692974 -0.481328994
v 3.87378502 0.652692974 -0.54085499
v 3.66950893 0.652692974 -0.479306996
v 3.66284299 0.652692974 -0.538851023
v 3.71375299 0.652692974 -0.677183986
v 3.64539194 0.652692974 -0.675868988
v 3.65475106 0.652692974 -0.604896009
v 3.72450209 0.652692974 -0.605818987
v 3.57581711 0.652692974 -0.674427986
v 3.58386993 0.652692974 -0.603897989
v 3.7935009 0.652692974 -0.606691003
v 3.78130293 0.652692974 -0.678412974
v 3.86212397 0.652692974 -0.607538998
v 3.84844995 0.652692974 -0.679601014
v 3.76759601 0.652692974 -0.753655016
v 3.70170593 0.652692974 -0.75198698
v 3.75262189 0.652692974 -0.830709994
v 3.68856311 0.652692974 -0.828592002
v 3.83304191 0.652692974 -0.755262971
v 3.8161819 0.652692974 -0.832746983
v 3.63492393 0.652692974 -0.750198007
v 3.56680799 0.652692974 -0.748229027
v 3.62350702 0.652692974 -0.826310992
v 3.5569551 0.652692974 -0.823786974
v 3.66001892 0.652692974 -0.982073009
v 3.71875691 0.652692974 -0.982585013
v 3.69818211 0.652692974 -1.05229795
v 3.64546204 0.652692974 -1.05850601
v 3.67625308 0.652692974 -1.11951005
v 3.63088107 0.652692974 -1.13480103
v 3.77705002 0.652692974 -0.98277998
v 3.75096798 0.652692974 -1.04519701
v 3.71800399 0.652692974 -1.09246302
v 3.5928719 0.652692974 -1.06293094
v 3.600389 0.652692974 -0.98092401
v 3.535146 0.652692974 -1.06174195
v 3.53808689 0.652692974 -0.978088021
v 3.58705211 0.652692974 -1.14679599
v 3.54993391 0.652692974 -1.16395605
v 3.61129808 0.652692974 -0.902634978
v 3.67452693 0.652692974 -0.905360997
v 3.54636908 0.652692974 -0.899587989
v 3.73662305 0.652692974 -0.907871008
v 3.79815292 0.652692974 -0.910274029
v 3.43090296 0.652692974 -0.670965016
v 3.42434812 0.652692974 -0.743498981
v 3.34823704 0.652692974 -0.740602016
v 3.35375404 0.652692974 -0.668802023
v 3.267694 0.652692974 -0.737259984
v 3.27226996 0.652692974 -0.666256011
v 3.41701508 0.652692974 -0.817704976
v 3.34192491 0.652692974 -0.814028978
v 3.2622869 0.652692974 -0.809849977
v 3.358531 0.652692974 -0.600013971
v 3.43667698 0.652692974 -0.601529002
v 3.27612901 0.652692974 -0.598185003
v 3.5114851 0.652692974 -0.602798998
v 3.50462198 0.652692974 -0.672816992
v 3.4969101 0.652692974 -0.746017992
v 3.48840809 0.652692974 -0.820937991
v 3.400769 0.652692974 -0.965915978
v 3.39333606 0.652692974 -1.03801799
v 3.31895304 0.652692974 -1.02943802
v 3.32701707 0.652692974 -0.960029006
v 3.24140096 0.652692974 -1.02277803
v 3.24888611 0.652692974 -0.954180002
v 3.38568711 0.652692974 -1.104954
v 3.31083703 0.652692974 -1.09434295
v 3.23373103 0.652692974 -1.08690298
v 3.334764 0.652692974 -0.887699008
v 3.40890908 0.652692974 -0.892162025
v 3.25593305 0.652692974 -0.882681012
v 3.47917509 0.652692974 -0.896111012
v 3.47133589 0.652692974 -0.97250998
v 3.46701694 0.652692974 -1.05111206
v 3.46168494 0.652692974 -1.12264395
v 3.36750793 0.652692974 -1.21575201
v 3.35805511 0.652692974 -1.26552999
v 3.28755903 0.652692974 -1.25863099
v 3.29519296 0.652692974 -1.20741796
v 3.21107411 0.652692974 -1.24905801
v 3.21858501 0.652692974 -1.19853199
v 3.34856892 0.652692974 -1.31392801
v 3.27997804 0.652692974 -1.30832303
v 3.20357895 0.652692974 -1.29807305
v 3.30293489 0.652692974 -1.15316296
v 3.37689805 0.652692974 -1.16321301
v 3.22613192 0.652692974 -1.14498401
v 3.45080805 0.652692974 -1.17783499
v 3.43678498 0.652692974 -1.22392595
v 3.52468991 0.652692974 -1.19474196
v 3.50454211 0.652692974 -1.23202097
v 3.42201591 0.652692974 -1.26816106
v 3.40687394 0.652692974 -1.31146705
v 3.48270988 0.652692974 -1.26865804
v 3.45241404 0.652692974 -1.29751801
v 3.07844901 0.652692974 -0.940792024
v 3.16517806 0.652692974 -0.947700977
v 3.15821004 0.652692974 -1.01544499
v 3.07183504 0.652692974 -1.00762105
v 3.15096593 0.652692974 -1.07872701
v 3.06472707 0.652692974 -1.06995595
v 2.984725 0.652692974 -0.999484003
v 2.991256 0.652692974 -0.933656991
v 2.89933491 0.652692974 -0.991217017
v 2.90615296 0.652692974 -0.926496983
v 2.97720003 0.652692974 -1.06072903
v 2.89056897 0.652692974 -1.05118597
v 2.9967339 0.652692974 -0.864866018
v 3.08435702 0.652692974 -0.871057987
v 3.00110412 0.652692974 -0.794730008
v 3.08934402 0.652692974 -0.800002992
v 2.91130209 0.652692974 -0.858696997
v 2.915061 0.652692974 -0.789487004
v 3.17161012 0.652692974 -0.877065003
v 3.17724895 0.652692974 -0.805109024
v 3.09613609 0.652692974 -0.659955025
v 3.09319496 0.652692974 -0.729212999
v 3.00430799 0.652692974 -0.724864006
v 3.00659609 0.652692974 -0.656508029
v 2.91770911 0.652692974 -0.720535994
v 2.91947794 0.652692974 -0.653068006
v 3.00821304 0.652692974 -0.590900004
v 3.0983901 0.652692974 -0.593497992
v 3.00940609 0.652692974 -0.529278994
v 3.10017991 0.652692974 -0.531108975
v 2.92060494 0.652692974 -0.58830601
v 2.92132092 0.652692974 -0.527472973
v 3.18855596 0.652692974 -0.595969975
v 3.18554592 0.652692974 -0.66325599
v 3.19104004 0.652692974 -0.532851994
v 3.18183589 0.652692974 -0.733403981
v 3.10302806 0.652692974 -0.421395987
v 3.10172892 0.652692974 -0.474056005
v 3.01042509 0.652692974 -0.472882003
v 3.01126003 0.652692974 -0.420758009
v 2.92186093 0.652692974 -0.471794009
v 2.92224097 0.652692974 -0.42028299
v 3.01190495 0.652692974 -0.371955991
v 3.10406399 0.652692974 -0.372186989
v 2.92247796 0.652692974 -0.371955991
v 3.19640493 0.652692974 -0.372539014
v 3.19496202 0.652692974 -0.422087997
v 3.19317508 0.652692974 -0.475208998
v 3.04974604 0.652692974 -1.17791295
v 3.04201102 0.652692974 -1.22657299
v 2.94992805 0.652692974 -1.21346998
v 2.95956612 0.652692974 -1.16617203
v 2.85314012 0.652692974 -1.19899595
v 2.86691499 0.652692974 -1.15347099
v 3.03420591 0.652692974 -1.27371395
v 2.94005489 0.652692974 -1.25921702
v 2.83880901 0.652692974 -1.24291599
v 2.96873498 0.652692974 -1.11577594
v 3.0573411 0.652692974 -1.12621403
v 2.87957692 0.652692974 -1.10473597
v 3.14370298 0.652692974 -1.13597596
v 3.13642693 0.652692974 -1.18869805
v 3.12914205 0.652692974 -1.23840404
v 3.12185097 0.652692974 -1.28660202
v 2.75886297 0.652692974 -0.420078993
v 2.75941801 0.652692974 -0.470151007
v 2.68286991 0.652692974 -0.469498008
v 2.68183899 0.652692974 -0.420215011
v 2.60765696 0.652692974 -0.468894988
v 2.606148 0.652692974 -0.420419008
v 2.7596879 0.652692974 -0.524240971
v 2.6834991 0.652692974 -0.522745013
v 2.6086309 0.652692974 -0.521283984
v 2.68059802 0.652692974 -0.373663992
v 2.75814509 0.652692974 -0.372895002
v 2.60437202 0.652692974 -0.374518007
v 2.83833098 0.652692974 -0.372296989
v 2.83855295 0.652692974 -0.420078993
v 2.83863711 0.652692974 -0.470899999
v 2.83852196 0.652692974 -0.52580601
v 2.74872494 0.652692974 -0.912662983
v 2.74002194 0.652692974 -0.974819005
v 2.66401505 0.652692974 -0.966664016
v 2.67407703 0.652692974 -0.905901015
v 2.58905101 0.652692974 -0.958521008
v 2.60059094 0.652692974 -0.899182975
v 2.72578311 0.652692974 -1.03161597
v 2.64608598 0.652692974 -1.02167702
v 2.56716108 0.652692974 -1.011693
v 2.67876792 0.652692974 -0.841329992
v 2.7535069 0.652692974 -0.846985996
v 2.68058395 0.652692974 -0.774896979
v 2.75598407 0.652692974 -0.779627025
v 2.60521698 0.652692974 -0.835731983
v 2.60636592 0.652692974 -0.770223022
v 2.83062291 0.652692974 -0.852756023
v 2.82569695 0.652692974 -0.919514
v 2.83374906 0.652692974 -0.784470975
v 2.81811404 0.652692974 -0.982999027
v 2.80701995 0.652692974 -1.04146695
v 2.75893402 0.652692974 -0.646627009
v 2.75776911 0.652692974 -0.71242398
v 2.68201804 0.652692974 -0.708541989
v 2.68301797 0.652692974 -0.643545985
v 2.6074729 0.652692974 -0.704708993
v 2.60834694 0.652692974 -0.640506029
v 2.68353009 0.652692974 -0.581188023
v 2.75955105 0.652692974 -0.583482981
v 2.60879707 0.652692974 -0.578926027
v 2.83814597 0.652692974 -0.58584398
v 2.83734012 0.652692974 -0.649787009
v 2.83593106 0.652692974 -0.716405988
v 2.67901897 0.652692974 -1.12532794
v 2.58726001 0.652692974 -1.11019194
v 2.61779594 0.652692974 -1.06899595
v 2.70439196 0.652692974 -1.08121598
v 2.49652004 0.652692974 -1.09472501
v 2.53148508 0.652692974 -1.05664599
v 2.79155707 0.652692974 -1.09317303
v 2.77281904 0.652692974 -1.13980603
v 2.7518959 0.652692974 -1.18305695
v 2.65283298 0.652692974 -1.16566503
v 2.72988105 0.652692974 -1.22461796
v 2.62624097 0.652692974 -1.20411396
v 2.56259298 0.652692974 -1.14683199
v 2.47676396 0.652692974 -1.12727904
v 2.54086089 0.652692974 -1.18119502
v 2.48671198 0.652692974 -1.155653
vn 0 1 0
vn 0 1 0
vn 0 1 0
vn 0 1 0
vn 0 1 0
vn 0 1 0
vn 0 1 0
vn 0 1 0
vn 0 1 0
vn 0 1 0
vn 0 1 0
vn 0 1 0
vn 0 1 0
vn 0 1 0
vn 0 1 0
vn 0 1 0
vn 0 1 0
vn 0 1 0
vn 0 1 0
vn 0 1 0
vn 0 1 0
vn 0 1 0
vn 0 1 0
vn 0 1 0
vn 0 1 0
vn 0 1 0
vn 0 1 0
vn 0 1 0
vn 0 1 0
vn 0 1 0
vn 0 1 0
vn 0 1 0
vn 0 1 0
vn 0 1 0
vn 0 1 0
vn 0 1 0
vn 0 1 0
vn 0 1 0
vn 0 1 0
vn 0 1 0
vn 0 1 0
vn 0 1 0
vn 0 1 0
vn 0 1 0
vn 0 1 0
vn 0 1 0
vn 0 1 0
vn 0 1 0
vn 0 1 0
vn 0 1 0
vn 0 1 0
vn 0 1 0
vn 0 1 0
vn 0 1 0
vn 0 1 0
vn 0 1 0
vn 0 1 0
vn 0 1 0
vn 0 1 0
vn 0 1 0
vn 0 1 0
vn 0 1 0
vn 0 1 0
vn 0 1 0
vn 0 1 0
vn 0 1 0
vn 0 1 0
vn 0 1 0
vn 0 1 0
vn 0 1 0
vn 0 1 0
vn 0 1 0
vn 0 1 0
vn 0 1 0
vn 0 1 0
vn 0 1 0
vn 0 1 0
vn 0 1 0
vn 0 1 0
vn 0 1 0
vn 0 1 0
vn 0 1 0
vn 0 1 0
vn 0 1 0
vn 0 1 0
vn 0 1 0
vn 0 1 0
vn 0 1 0
vn 0 1 0
vn 0 1 0
vn 0 1 0
vn 0 1 0
vn 0 1 0
vn 0 1 0
vn 0 1 0
vn 0 1 0
vn 0 1 0
vn 0 1 0
vn 0 1 0
vn 0 1 0
vn 0 1 0
vn 0 1 0
vn 0 1 0
vn 0 1 0
vn 0 1 0
vn 0 1 0
vn 0 1 0
vn 0 1 0
vn 0 1 0
vn 0 1 0
vn 0 1 0
vn 0 1 0
vn 0 1 0
vn 0 1 0
vn 0 1 0
vn 0 1 0
vn 0 1 0
vn 0 1 0
vn 0 1 0
vn 0 1 0
vn 0 1 0
vn 0 1 0
vn 0 1 0
vn 0 1 0
vn 0 1 0
vn 0 1 0
vn 0 1 0
vn 0 1 0
vn 0 1 0
vn 0 1 0
vn 0 1 0
vn 0 1 0
vn 0 1 0
vn 0 1 0
vn 0 1 0
vn 0 1 0
vn 0 1 0
vn 0 1 0
vn 0 1 0
vn 0 1 0
vn 0 1 0
vn 0 1 0
vn 0 1 0
vn 0 1 0
vn 0 1 0
vn 0 1 0
vn 0 1 0
vn 0 1 0
vn 0 1 0
vn 0 1 0
vn 0 1 0
vn 0 1 0
vn 0 1 0
vn 0 1 0
vn 0 1 0
vn 0 1 0
vn 0 1 0
vn 0 1 0
vn 0 1 0
vn 0 1 0
vn 0 1 0
vn 0 1 0
vn 0 1 0
vn 0 1 0
vn 0 1 0
vn 0 1 0
vn 0 1 0
vn 0 1 0
vn 0 1 0
vn 0 1 0
vn 0 1 0
vn 0 1 0
vn 0 1 0
vn 0 1 0
vn 0 1 0
vn 0 1 0
vn 0 1 0
vn 0 1 0
vn 0 1 0
vn 0 1 0
vn 0 1 0
vn 0 1 0
vn 0 1 0
vn 0 1 0
vn 0 1 0
vn 0 1 0
vn 0 1 0
vn 0 1 0
vn 0 1 0
vn 0 1 0
vn 0 1 0
vn 0 1 0
vn 0 1 0
vn 0 1 0
vn 0 1 0
vn 0 1 0
vn 0 1 0
vn 0 1 0
vn 0 1 0
vn 0 1 0
vn 0 1 0
vn 0 1 0
vn 0 1 0
vn 0 1 0
vn 0 1 0
vn 0 1 0
vn 0 1 0
vn 0 1 0
vn 0 1 0
vn 0 1 0
vn 0 1 0
vn 0 1 0
vn 0 1 0
vn 0 1 0
vn 0 1 0
vn 0 1 0
vn 0 1 0
vn 0 1 0
vn 0 1 0
vn 0 1 0
vn 0 1 0
vn 0 1 0
vn 0 1 0
vn 0 1 0
vn 0 1 0
vn 0 1 0
vn 0 1 0
vn 0 1 0
vn 0 1 0
vn 0 1 0
vn 0 1 0
vn 0 1 0
vn 0 1 0
vn 0 1 0
vn 0 1 0
vn 0 1 0
vn 0 1 0
vn 0 1 0
vn 0 1 0
vn 0 1 0
vn 0 1 0
vn 0 1 0
vn 0 1 0
vn 0 1 0
vn 0 1 0
vn 0 1 0
vn 0 1 0
vn 0 1 0
vn 0 1 0
vn 0 1 0
vn 0 1 0
vn 0 1 0
vn 0 1 0
vn 0 1 0
vn 0 1 0
vn 0 1 0
vn 0 1 0
vn 0 1 0
vn 0 1 0
vn 0 1 0
vn 0 1 0
vn 0 1 0
vn 0 1 0
vn 0 1 0
vn 0 1 0
vn 0 1 0
vn 0 1 0
vn 0 1 0
vn 0 1 0
vn 0 1 0
vn 0 1 0
vn 0 1 0
vn 0 1 0
vn 0 1 0
vn 0 1 0
vn 0 1 0
vn 0 1 0
vn 0 1 0
vn 0 1 0
vn 0 1 0
vn 0 1 0
vn 0 1 0
vn 0 1 0
vn 0 1 0
vn 0 1 0
vn 0 1 0
vn 0 1 0
vn 0 1 0
vn 0 1 0
vn 0 1 0
vn 0 1 0
vn 0 1 0
vn 0 1 0
vn 0 1 0
vn 0 1 0
vn 0 1 0
vn 0 1 0
vn 0 1 0
vn 0 1 0
vn 0 1 0
vn 0 1 0
vn 0 1 0
vn 0 1 0
vn 0 1 0
vn 0 1 0
vn 0 1 0
vn 0 1 0
vn 0 1 0
vn 0 1 0
vn 0 1 0
vn 0 1 0
vn 0 1 0
vn 0 1 0
vn 0 1 0
vn 0 1 0
vn 0 1 0
vn 0 1 0
vn 0 1 0
vn 0 1 0
vn 0 1 0
vn 0 1 0
vn 0 1 0
vn 0 1 0
vn 0 1 0
vn 0 1 0
vn 0 1 0
vn 0 1 0
vn 0 1 0
vn 0 1 0
vn 0 1 0
vn 0 1 0
vn 0 1 0
vn 0 1 0
vn 0 1 0
vn 0 1 0
vn 0 1 0
vn 0 1 0
vn 0 1 0
vn 0 1 0
vn 0 1 0
vn 0 1 0
vn 0 1 0
vn 0 1 0
vn 0 1 0
vn 0 1 0
vn 0 1 0
vn 0 1 0
vn 0 1 0
vn 0 1 0
vn 0 1 0
vn 0 1 0
vn 0 1 0
vn 0 1 0
vn 0 1 0
vn 0 1 0
vn 0 1 0
vn 0 1 0
vn 0 1 0
vn 0 1 0
vn 0 1 0
vn 0 1 0
vn 0 1 0
vn 0 1 0
vn 0 1 0
vn 0 1 0
vn 0 1 0
vn 0 1 0
vn 0 1 0
vn 0 1 0
vn 0 1 0
vn 0 1 0
vn 0 1 0
vn 0 1 0
vn 0 1 0
vn 0 1 0
vn 0 1 0
vn 0 1 0
vn 0 1 0
vn 0 1 0
vn 0 1 0
vn 0 1 0
vn 0 1 0
vn 0 1 0
vn 0 1 0
vn 0 1 0
vn 0 1 0
vn 0 1 0
vn 0 1 0
vn 0 1 0
vn 0 1 0
vn 0 1 0
vn 0 1 0
vn 0 1 0
vn 0 1 0
vn 0 1 0
vn 0 1 0
vn 0 1 0
vn 0 1 0
vn 0 1 0
vn 0 1 0
vn 0 1 0
vn 0 1 0
vn 0 1 0
vn 0 1 0
vn 0 1 0
vn 0 1 0
vn 0 1 0
vn 0 1 0
vn 0 1 0
vn 0 1 0
vn 0 1 0
vn 0 1 0
vn 0 1 0
vn 0 1 0
vn 0 1 0
vn 0 1 0
vn 0 1 0
vn 0 1 0
vn 0 1 0
vn 0 1 0
vn 0 1 0
vn 0 1 0
vn 0 1 0
vn 0 1 0
vn 0 1 0
vn 0 1 0
vn 0 1 0
vn 0 1 0
vn 0 1 0
vn 0 1 0
vn 0 1 0
vn 0 1 0
vn 0 1 0
vn 0 1 0
vn 0 1 0
vn 0 1 0
vn 0 1 0
vn 0 1 0
vn 0 1 0
vn 0 1 0
vn 0 1 0
vn 0 1 0
vn 0 1 0
vn 0 1 0
vn 0 1 0
vn 0 1 0
vn 0 1 0
vn 0 1 0
vn 0 1 0
vn 0 1 0
vn 0 1 0
vn 0 1 0
vn 0 1 0
vn 0 1 0
vn 0 1 0
vn 0 1 0
vn 0 1 0
vn 0 1 0
vn 0 1 0
vn 0 1 0
vn 0 1 0
vn 0 1 0
vn 0 1 0
vn 0 1 0
vn 0 1 0
vn 0 1 0
vn 0 1 0
vn 0 1 0
vn 0 1 0
vn 0 1 0
vn 0 1 0
vn 0 1 0
vn 0 1 0
vn 0 1 0
vn 0 1 0
vn 0 1 0
vn 0 1 0
vn 0 1 0
vn 0 1 0
vn 0 1 0
vn 0 1 0
vn 0 1 0
vn 0 1 0
vn 0 1 0
vn 0 1 0
vn 0 1 0
vn 0 1 0
vn 0 1 0
vn 0 1 0
vn 0 1 0
vn 0 1 0
vn 0 1 0
vn 0 1 0
vn 0 1 0
vn 0 1 0
vn 0 1 0
vn 0 1 0
vn 0 1 0
vn 0 1 0
vn 0 1 0
vn 0 1 0
vn 0 1 0
vn 0 1 0
vn 0 1 0
vn 0 1 0
vn 0 1 0
vn 0 1 0
vn 0 1 0
vn 0 1 0
vn 0 1 0
vn 0 1 0
vn 0 1 0
vn 0 1 0
vn 0 1 0
vn 0 1 0
vn 0 1 0
vn 0 1 0
vn 0 1 0
vn 0 1 0
vn 0 1 0
vn 0 1 0
vn 0 1 0
vn 0 1 0
vn 0 1 0
vn 0 1 0
vn 0 1 0
vn 0 1 0
vn 0 1 0
vn 0 1 0
vn 0 1 0
vn 0 1 0
vn 0 1 0
vn 0 1 0
vn 0 1 0
vn 0 1 0
vn 0 1 0
vn 0 1 0
vn 0 1 0
vn 0 1 0
vn 0 1 0
vn 0 1 0
vn 0 1 0
vn 0 1 0
vn 0 1 0
vn 0 1 0
vn 0 1 0
vn 0 1 0
vn 0 1 0
vn 0 1 0
vn 0 1 0
vn 0 1 0
vn 0 1 0
vn 0 1 0
vn 0 1 0
vn 0 1 0
vn 0 1 0
vn 0 1 0
vn 0 1 0
vn 0 1 0
vn 0 1 0
vn 0 1 0
vn 0 1 0
vn 0 1 0
vn 0 1 0
vn 0 1 0
vn 0 1 0
vn 0 1 0
vn 0 1 0
vn 0 1 0
vn 0 1 0
vn 0 1 0
vn 0 1 0
vn 0 1 0
vn 0 1 0
vn 0 1 0
vn 0 1 0
vn 0 1 0
vn 0 1 0
vn 0 1 0
vn 0 1 0
vn 0 1 0
vn 0 1 0
vn 0 1 0
vn 0 1 0
vn 0 1 0
vn 0 1 0
vn 0 1 0
vn 0 1 0
vn 0 1 0
vn 0 1 0
vn 0 1 0
vn 0 1 0
vn 0 1 0
vn 0 1 0
vn 0 1 0
vn 0 1 0
vn 0 1 0
vn 0 1 0
vn 0 1 0
vn 0 1 0
vn 0 1 0
vn 0 1 0
vn 0 1 0
vn 0 1 0
vn 0 1 0
vn 0 1 0
vn 0 1 0
vn 0 1 0
vn 0 1 0
vn 0 1 0
vn 0 1 0
vn 0 1 0
vn 0 1 0
vn 0 1 0
vn 0 1 0
vn 0 1 0
vn 0 1 0
vn 0 1 0
vn 0 1 0
vn 0 1 0
vn 0 1 0
vn 0 1 0
vn 0 1 0
vn 0 1 0
vn 0 1 0
vn 0 1 0
vn 0 1 0
vn 0 1 0
vn 0 1 0
vn 0 1 0
vn 0 1 0
vn 0 1 0
vn 0 1 0
vn 0 1 0
vn 0 1 0
vn 0 1 0
vn 0 1 0
vn 0 1 0
vn 0 1 0
vn 0 1 0
vn 0 1 0
vn 0 1 0
vn 0 1 0
vn 0 1 0
vn 0 1 0
vn 0 1 0
vn 0 1 0
vn 0 1 0
vn 0 1 0
vn 0 1 0
vn 0 1 0
vn 0 1 0
vn 0 1 0
vn 0 1 0
vn 0 1 0
vn 0 1 0
vn 0 1 0
vn 0 1 0
vn 0 1 0
vn 0 1 0
vn 0 1 0
vn 0 1 0
vn 0 1 0
vn 0 1 0
vn 0 1 0
vn 0 1 0
vn 0 1 0
vn 0 1 0
vn 0 1 0
vn 0 1 0
vn 0 1 0
vn 0 1 0
vn 0 1 0
vn 0 1 0
vn 0 1 0
vn 0 1 0
vn 0 1 0
vn 0 1 0
vn 0 1 0
vn 0 1 0
vn 0 1 0
vn 0 1 0
vn 0 1 0
vn 0 1 0
vn 0 1 0
vn 0 1 0
vn 0 1 0
vn 0 1 0
vn 0 1 0
vn 0 1 0
vn 0 1 0
vn 0 1 0
vn 0 1 0
vn 0 1 0
vn 0 1 0
vn 0 1 0
vn 0 1 0
vn 0 1 0
vn 0 1 0
vn 0 1 0
vn 0 1 0
vn 0 1 0
vn 0 1 0
vn 0 1 0
vn 0 1 0
vn 0 1 0
vn 0 1 0
vn 0 1 0
vn 0 1 0
vn 0 1 0
vn 0 1 0
vn 0 1 0
vn 0 1 0
vn 0 1 0
vn 0 1 0
vn 0 1 0
vn 0 1 0
vn 0 1 0
vn 0 1 0
vn 0 1 0
vn 0 1 0
vn 0 1 0
vn 0 1 0
vn 0 1 0
vn 0 1 0
vn 0 1 0
vn 0 1 0
vn 0 1 0
vn 0 1 0
vn 0 1 0
vn 0 1 0
vn 0 1 0
vn 0 1 0
vn 0 1 0
vn 0 1 0
vn 0 1 0
vn 0 1 0
vn 0 1 0
vn 0 1 0
vn 0 1 0
vn 0 1 0
vn 0 1 0
vn 0 1 0
vn 0 1 0
vn 0 1 0
vn 0 1 0
vn 0 1 0
vn 0 1 0
vn 0 1 0
vn 0 1 0
vn 0 1 0
vn 0 1 0
vn 0 1 0
vn 0 1 0
vn 0 1 0
vn 0 1 0
vn 0 1 0
vn 0 1 0
vn 0 1 0
vn 0 1 0
vn 0 1 0
vn 0 1 0
vn 0 1 0
vn 0 1 0
vn 0 1 0
vn 0 1 0
vn 0 1 0
vn 0 1 0
vn 0 1 0
vn 0 1 0
vn 0 1 0
vn 0 1 0
vn 0 1 0
vn 0 1 0
vn 0 1 0
vn 0 1 0
vn 0 1 0
vn 0 1 0
vn 0 1 0
vn 0 1 0
vn 0 1 0
vn 0 1 0
vn 0 1 0
vn 0 1 0
vn 0 1 0
vn 0 1 0
vn 0 1 0
vn 0 1 0
vn 0 1 0
vn 0 1 0
vn 0 1 0
vn 0 1 0
vn 0 1 0
vn 0 1 0
vn 0 1 0
vn 0 1 0
vn 0 1 0
vn 0 1 0
vn 0 1 0
vn 0 1 0
vn 0 1 0
f 1//1 2//2 3//3
f 1//1 3//3 4//4
f 4//4 3//3 5//5
f 4//4 5//5 6//6
f 2//2 7//7 8//8
f 2//2 8//8 3//3
f 3//3 8//8 9//9
f 3//3 9//9 5//5
f 1//1 4//4 10//10
f 1//1 10//10 11//11
f 11//11 10//10 12//12
f 11//11 12//12 13//13
f 4//4 6//6 14//14
f 4//4 14//14 10//10
f 10//10 14//14 15//15
f 10//10 15//15 12//12
f 1//1 11//11 16//16
f 1//1 16//16 17//17
f 17//17 16//16 18//18
f 17//17 18//18 19//19
f 11//11 13//13 20//20
f 11//11 20//20 16//16
f 16//16 20//20 21//21
f 16//16 21//21 18//18
f 1//1 17//17 22//22
f 1//1 22//22 2//2
f 2//2 22//22 23//23
f 2//2 23//23 7//7
f 17//17 19//19 24//24
f 17//17 24//24 22//22
f 22//22 24//24 25//25
f 22//22 25//25 23//23
f 26//26 27//27 28//28
f 26//26 28//28 29//29
f 29//29 28//28 24//24
f 29//29 24//24 19//19
f 27//27 30//30 31//31
f 27//27 31//31 28//28
f 28//28 31//31 25//25
f 28//28 25//25 24//24
f 26//26 29//29 32//32
f 26//26 32//32 33//33
f 33//33 32//32 34//34
f 33//33 34//34 35//35
f 29//29 19//19 18//18
f 29//29 18//18 32//32
f 32//32 18//18 21//21
f 32//32 21//21 34//34
f 26//26 33//33 36//36
f 26//26 36//36 37//37
f 37//37 36//36 38//38
f 37//37 38//38 39//39
f 33//33 35//35 40//40
f 33//33 40//40 36//36
f 36//36 40//40 41//41
f 36//36 41//41 38//38
f 26//26 37//37 42//42
f 26//26 42//42 27//27
f 27//27 42//42 43//43
f 27//27 43//43 30//30
f 37//37 39//39 44//44
f 37//37 44//44 42//42
f 42//42 44//44 45//45
f 42//42 45//45 43//43
f 46//46 47//47 48//48
f 46//46 48//48 49//49
f 49//49 48//48 50//50
f 49//49 50//50 51//51
f 47//47 52//52 53//53
f 47//47 53//53 48//48
f 48//48 53//53 54//54
f 48//48 54//54 50//50
f 46//46 49//49 55//55
f 46//46 55//55 56//56
f 56//56 55//55 8//8
f 56//56 8//8 7//7
f 49//49 51//51 57//57
f 49//49 57//57 55//55
f 55//55 57//57 9//9
f 55//55 9//9 8//8
f 46//46 56//56 58//58
f 46//46 58//58 59//59
f 59//59 58//58 60//60
f 59//59 60//60 61//61
f 56//56 7//7 23//23
f 56//56 23//23 58//58
f 58//58 23//23 25//25
f 58//58 25//25 60//60
f 46//46 59//59 62//62
f 46//46 62//62 47//47
f 47//47 62//62 63//63
f 47//47 63//63 52//52
f 59//59 61//61 64//64
f 59//59 64//64 62//62
f 62//62 64//64 65//65
f 62//62 65//65 63//63
f 66//66 67//67 68//68
f 66//66 68//68 69//69
f 69//69 68//68 64//64
f 69//69 64//64 61//61
f 67//67 70//70 71//71
f 67//67 71//71 68//68
f 68//68 71//71 65//65
f 68//68 65//65 64//64
f 66//66 69//69 72//72
f 66//66 72//72 73//73
f 73//73 72//72 31//31
f 73//73 31//31 30//30
f 69//69 61//61 60//60
f 69//69 60//60 72//72
f 72//72 60//60 25//25
f 72//72 25//25 31//31
f 66//66 73//73 74//74
f 66//66 74//74 75//75
f 75//75 74//74 76//76
f 75//75 76//76 77//77
f 73//73 30//30 43//43
f 73//73 43//43 74//74
f 74//74 43//43 45//45
f 74//74 45//45 76//76
f 66//66 75//75 78//78
f 66//66 78//78 67//67
f 67//67 78//78 79//79
f 67//67 79//79 70//70
f 75//75 77//77 80//80
f 75//75 80//80 78//78
f 78//78 80//80 81//81
f 78//78 81//81 79//79
f 82//82 83//83 84//84
f 82//82 84//84 85//85
f 85//85 84//84 86//86
f 85//85 86//86 87//87
f 83//83 88//88 89//89
f 83//83 89//89 84//84
f 84//84 89//89 90//90
f 84//84 90//90 86//86
f 82//82 85//85 91//91
f 82//82 91//91 92//92
f 92//92 91//91 93//93
f 92//92 93//93 94//94
f 85//85 87//87 95//95
f 85//85 95//95 91//91
f 91//91 95//95 96//96
f 91//91 96//96 93//93
f 82//82 92//92 97//97
f 82//82 97//97 98//98
f 98//98 97//97 99//99
f 98//98 99//99 100//100
f 92//92 94//94 101//101
f 92//92 101//101 97//97
f 97//97 101//101 102//102
f 97//97 102//102 99//99
f 82//82 98//98 103//103
f 82//82 103//103 83//83
f 83//83 103//103 104//104
f 83//83 104//104 88//88
f 98//98 100//100 105//105
f 98//98 105//105 103//103
f 103//103 105//105 106//106
f 103//103 106//106 104//104
f 107//107 108//108 109//109
f 107//107 109//109 110//110
f 110//110 109//109 111//111
f 110//110 111//111 112//112
f 108//108 94//94 93//93
f 108//108 93//93 109//109
f 109//109 93//93 96//96
f 109//109 96//96 111//111
f 107//107 110//110 113//113
f 107//107 113//113 114//114
f 114//114 113//113 44//44
f 114//114 44//44 39//39
f 110//110 112//112 115//115
f 110//110 115//115 113//113
f 113//113 115//115 45//45
f 113//113 45//45 44//44
f 107//107 114//114 116//116
f 107//107 116//116 117//117
f 117//117 116//116 118//118
f 117//117 118//118 119//119
f 114//114 39//39 38//38
f 114//114 38//38 116//116
f 116//116 38//38 41//41
f 116//116 41//41 118//118
f 107//107 117//117 120//120
f 107//107 120//120 108//108
f 108//108 120//120 101//101
f 108//108 101//101 94//94
f 117//117 119//119 121//121
f 117//117 121//121 120//120
f 120//120 121//121 102//102
f 120//120 102//102 101//101
f 122//122 123//123 124//124
f 122//122 124//124 125//125
f 125//125 124//124 126//126
f 125//125 126//126 127//127
f 123//123 128//128 129//129
f 123//123 129//129 124//124
f 124//124 129//129 130//130
f 124//124 130//130 126//126
f 122//122 125//125 131//131
f 122//122 131//131 132//132
f 132//132 131//131 133//133
f 132//132 133//133 134//134
f 125//125 127//127 135//135
f 125//125 135//135 131//131
f 131//131 135//135 136//136
f 131//131 136//136 133//133
f 122//122 132//132 137//137
f 122//122 137//137 138//138
f 138//138 137//137 95//95
f 138//138 95//95 87//87
f 132//132 134//134 139//139
f 132//132 139//139 137//137
f 137//137 139//139 96//96
f 137//137 96//96 95//95
f 122//122 138//138 140//140
f 122//122 140//140 123//123
f 123//123 140//140 141//141
f 123//123 141//141 128//128
f 138//138 87//87 86//86
f 138//138 86//86 140//140
f 140//140 86//86 90//90
f 140//140 90//90 141//141
f 142//142 143//143 144//144
f 142//142 144//144 145//145
f 145//145 144//144 146//146
f 145//145 146//146 147//147
f 143//143 134//134 133//133
f 143//143 133//133 144//144
f 144//144 133//133 136//136
f 144//144 136//136 146//146
f 142//142 145//145 148//148
f 142//142 148//148 149//149
f 149//149 148//148 80//80
f 149//149 80//80 77//77
f 145//145 147//147 150//150
f 145//145 150//150 148//148
f 148//148 150//150 81//81
f 148//148 81//81 80//80
f 142//142 149//149 151//151
f 142//142 151//151 152//152
f 152//152 151//151 115//115
f 152//152 115//115 112//112
f 149//149 77//77 76//76
f 149//149 76//76 151//151
f 151//151 76//76 45//45
f 151//151 45//45 115//115
f 142//142 152//152 153//153
f 142//142 153//153 143//143
f 143//143 153//153 139//139
f 143//143 139//139 134//134
f 152//152 112//112 111//111
f 152//152 111//111 153//153
f 153//153 111//111 96//96
f 153//153 96//96 139//139
f 154//154 155//155 156//156
f 154//154 156//156 157//157
f 157//157 156//156 40//40
f 157//157 40//40 35//35
f 155//155 158//158 159//159
f 155//155 159//159 156//156
f 156//156 159//159 41//41
f 156//156 41//41 40//40
f 154//154 157//157 160//160
f 154//154 160//160 161//161
f 161//161 160//160 162//162
f 161//161 162//162 163//163
f 157//157 35//35 34//34
f 157//157 34//34 160//160
f 160//160 34//34 21//21
f 160//160 21//21 162//162
f 154//154 161//161 164//164
f 154//154 164//164 165//165
f 165//165 164//164 166//166
f 165//165 166//166 167//167
f 161//161 163//163 168//168
f 161//161 168//168 164//164
f 164//164 168//168 169//169
f 164//164 169//169 166//166
f 154//154 165//165 170//170
f 154//154 170//170 155//155
f 155//155 170//170 171//171
f 155//155 171//171 158//158
f 165//165 167//167 172//172
f 165//165 172//172 170//170
f 170//170 172//172 173//173
f 170//170 173//173 171//171
f 174//174 175//175 176//176
f 174//174 176//176 177//177
f 177//177 176//176 172//172
f 177//177 172//172 167//167
f 175//175 178//178 179//179
f 175//175 179//179 176//176
f 176//176 179//179 173//173
f 176//176 173//173 172//172
f 174//174 177//177 180//180
f 174//174 180//180 181//181
f 181//181 180//180 182//182
f 181//181 182//182 183//183
f 177//177 167//167 166//166
f 177//177 166//166 180//180
f 180//180 166//166 169//169
f 180//180 169//169 182//182
f 174//174 181//181 184//184
f 174//174 184//184 185//185
f 185//185 184//184 186//186
f 185//185 186//186 187//187
f 181//181 183//183 188//188
f 181//181 188//188 184//184
f 184//184 188//188 189//189
f 184//184 189//189 186//186
f 174//174 185//185 190//190
f 174//174 190//190 175//175
f 175//175 190//190 191//191
f 175//175 191//191 178//178
f 185//185 187//187 192//192
f 185//185 192//192 190//190
f 190//190 192//192 193//193
f 190//190 193//193 191//191
f 194//194 195//195 196//196
f 194//194 196//196 197//197
f 197//197 196//196 198//198
f 197//197 198//198 199//199
f 195//195 183//183 182//182
f 195//195 182//182 196//196
f 196//196 182//182 169//169
f 196//196 169//169 198//198
f 194//194 197//197 200//200
f 194//194 200//200 201//201
f 201//201 200//200 202//202
f 201//201 202//202 203//203
f 197//197 199//199 204//204
f 197//197 204//204 200//200
f 200//200 204//204 205//205
f 200//200 205//205 202//202
f 194//194 201//201 206//206
f 194//194 206//206 207//207
f 207//207 206//206 208//208
f 207//207 208//208 209//209
f 201//201 203//203 210//210
f 201//201 210//210 206//206
f 206//206 210//210 211//211
f 206//206 211//211 208//208
f 194//194 207//207 212//212
f 194//194 212//212 195//195
f 195//195 212//212 188//188
f 195//195 188//188 183//183
f 207//207 209//209 213//213
f 207//207 213//213 212//212
f 212//212 213//213 189//189
f 212//212 189//189 188//188
f 214//214 215//215 216//216
f 214//214 216//216 217//217
f 217//217 216//216 20//20
f 217//217 20//20 13//13
f 215//215 163//163 162//162
f 215//215 162//162 216//216
f 216//216 162//162 21//21
f 216//216 21//21 20//20
f 214//214 217//217 218//218
f 214//214 218//218 219//219
f 219//219 218//218 220//220
f 219//219 220//220 221//221
f 217//217 13//13 12//12
f 217//217 12//12 218//218
f 218//218 12//12 15//15
f 218//218 15//15 220//220
f 214//214 219//219 222//222
f 214//214 222//222 223//223
f 223//223 222//222 204//204
f 223//223 204//204 199//199
f 219//219 221//221 224//224
f 219//219 224//224 222//222
f 222//222 224//224 205//205
f 222//222 205//205 204//204
f 214//214 223//223 225//225
f 214//214 225//225 215//215
f 215//215 225//225 168//168
f 215//215 168//168 163//163
f 223//223 199//199 198//198
f 223//223 198//198 225//225
f 225//225 198//198 169//169
f 225//225 169//169 168//168
f 226//226 227//227 228//228
f 226//226 228//228 229//229
f 229//229 228//228 230//230
f 229//229 230//230 231//231
f 227//227 232//232 233//233
f 227//227 233//233 228//228
f 228//228 233//233 234//234
f 228//228 234//234 230//230
f 226//226 229//229 235//235
f 226//226 235//235 236//236
f 236//236 235//235 237//237
f 236//236 237//237 238//238
f 229//229 231//231 239//239
f 229//229 239//239 235//235
f 235//235 239//239 240//240
f 235//235 240//240 237//237
f 226//226 236//236 241//241
f 226//226 241//241 242//242
f 242//242 241//241 224//224
f 242//242 224//224 221//221
f 236//236 238//238 243//243
f 236//236 243//243 241//241
f 241//241 243//243 205//205
f 241//241 205//205 224//224
f 226//226 242//242 244//244
f 226//226 244//244 227//227
f 227//227 244//244 245//245
f 227//227 245//245 232//232
f 242//242 221//221 220//220
f 242//242 220//220 244//244
f 244//244 220//220 15//15
f 244//244 15//15 245//245
f 246//246 247//247 248//248
f 246//246 248//248 249//249
f 249//249 248//248 243//243
f 249//249 243//243 238//238
f 247//247 203//203 202//202
f 247//247 202//202 248//248
f 248//248 202//202 205//205
f 248//248 205//205 243//243
f 246//246 249//249 250//250
f 246//246 250//250 251//251
f 251//251 250//250 252//252
f 251//251 252//252 253//253
f 249//249 238//238 237//237
f 249//249 237//237 250//250
f 250//250 237//237 240//240
f 250//250 240//240 252//252
f 246//246 251//251 254//254
f 246//246 254//254 255//255
f 255//255 254//254 256//256
f 255//255 256//256 257//257
f 251//251 253//253 258//258
f 251//251 258//258 254//254
f 254//254 258//258 259//259
f 254//254 259//259 256//256
f 246//246 255//255 260//260
f 246//246 260//260 247//247
f 247//247 260//260 210//210
f 247//247 210//210 203//203
f 255//255 257//257 261//261
f 255//255 261//261 260//260
f 260//260 261//261 211//211
f 260//260 211//211 210//210
f 262//262 263//263 264//264
f 262//262 264//264 265//265
f 265//265 264//264 266//266
f 265//265 266//266 267//267
f 263//263 253//253 252//252
f 263//263 252//252 264//264
f 264//264 252//252 240//240
f 264//264 240//240 266//266
f 262//262 265//265 268//268
f 262//262 268//268 269//269
f 269//269 268//268 270//270
f 269//269 270//270 271//271
f 265//265 267//267 272//272
f 265//265 272//272 268//268
f 268//268 272//272 273//273
f 268//268 273//273 270//270
f 262//262 269//269 274//274
f 262//262 274//274 275//275
f 275//275 274//274 276//276
f 275//275 276//276 277//277
f 269//269 271//271 278//278
f 269//269 278//278 274//274
f 274//274 278//278 279//279
f 274//274 279//279 276//276
f 262//262 275//275 280//280
f 262//262 280//280 263//263
f 263//263 280//280 258//258
f 263//263 258//258 253//253
f 275//275 277//277 281//281
f 275//275 281//281 280//280
f 280//280 281//281 259//259
f 280//280 259//259 258//258
f 282//282 283//283 284//284
f 282//282 284//284 285//285
f 285//285 284//284 286//286
f 285//285 286//286 287//287
f 283//283 288//288 289//289
f 283//283 289//289 284//284
f 284//284 289//289 290//290
f 284//284 290//290 286//286
f 282//282 285//285 291//291
f 282//282 291//291 292//292
f 292//292 291//291 278//278
f 292//292 278//278 271//271
f 285//285 287//287 293//293
f 285//285 293//293 291//291
f 291//291 293//293 279//279
f 291//291 279//279 278//278
f 282//282 292//292 294//294
f 282//282 294//294 295//295
f 295//295 294//294 296//296
f 295//295 296//296 297//297
f 292//292 271//271 270//270
f 292//292 270//270 294//294
f 294//294 270//270 273//273
f 294//294 273//273 296//296
f 282//282 295//295 298//298
f 282//282 298//298 283//283
f 283//283 298//298 299//299
f 283//283 299//299 288//288
f 295//295 297//297 300//300
f 295//295 300//300 298//298
f 298//298 300//300 301//301
f 298//298 301//301 299//299
f 302//302 303//303 304//304
f 302//302 304//304 305//305
f 305//305 304//304 306//306
f 305//305 306//306 307//307
f 303//303 308//308 309//309
f 303//303 309//309 304//304
f 304//304 309//309 310//310
f 304//304 310//310 306//306
f 302//302 305//305 311//311
f 302//302 311//311 312//312
f 312//312 311//311 272//272
f 312//312 272//272 267//267
f 305//305 307//307 313//313
f 305//305 313//313 311//311
f 311//311 313//313 273//273
f 311//311 273//273 272//272
f 302//302 312//312 314//314
f 302//302 314//314 315//315
f 315//315 314//314 239//239
f 315//315 239//239 231//231
f 312//312 267//267 266//266
f 312//312 266//266 314//314
f 314//314 266//266 240//240
f 314//314 240//240 239//239
f 302//302 315//315 316//316
f 302//302 316//316 303//303
f 303//303 316//316 317//317
f 303//303 317//317 308//308
f 315//315 231//231 230//230
f 315//315 230//230 316//316
f 316//316 230//230 234//234
f 316//316 234//234 317//317
f 318//318 319//319 320//320
f 318//318 320//320 321//321
f 321//321 320//320 322//322
f 321//321 322//322 323//323
f 319//319 324//324 325//325
f 319//319 325//325 320//320
f 320//320 325//325 326//326
f 320//320 326//326 322//322
f 318//318 321//321 327//327
f 318//318 327//327 328//328
f 328//328 327//327 300//300
f 328//328 300//300 297//297
f 321//321 323//323 329//329
f 321//321 329//329 327//327
f 327//327 329//329 301//301
f 327//327 301//301 300//300
f 318//318 328//328 330//330
f 318//318 330//330 331//331
f 331//331 330//330 313//313
f 331//331 313//313 307//307
f 328//328 297//297 296//296
f 328//328 296//296 330//330
f 330//330 296//296 273//273
f 330//330 273//273 313//313
f 318//318 331//331 332//332
f 318//318 332//332 319//319
f 319//319 332//332 333//333
f 319//319 333//333 324//324
f 331//331 307//307 306//306
f 331//331 306//306 332//332
f 332//332 306//306 310//310
f 332//332 310//310 333//333
f 334//334 335//335 336//336
f 334//334 336//336 337//337
f 337//337 336//336 338//338
f 337//337 338//338 339//339
f 335//335 340//340 341//341
f 335//335 341//341 336//336
f 336//336 341//341 342//342
f 336//336 342//342 338//338
f 334//334 337//337 343//343
f 334//334 343//343 344//344
f 344//344 343//343 345//345
f 344//344 345//345 346//346
f 337//337 339//339 347//347
f 337//337 347//347 343//343
f 343//343 347//347 348//348
f 343//343 348//348 345//345
f 334//334 344//344 349//349
f 334//334 349//349 350//350
f 350//350 349//349 329//329
f 350//350 329//329 323//323
f 344//344 346//346 351//351
f 344//344 351//351 349//349
f 349//349 351//351 301//301
f 349//349 301//301 329//329
f 334//334 350//350 352//352
f 334//334 352//352 335//335
f 335//335 352//352 353//353
f 335//335 353//353 340//340
f 350//350 323//323 322//322
f 350//350 322//322 352//352
f 352//352 322//322 326//326
f 352//352 326//326 353//353
f 354//354 355//355 356//356
f 354//354 356//356 357//357
f 357//357 356//356 325//325
f 357//357 325//325 324//324
f 355//355 358//358 359//359
f 355//355 359//359 356//356
f 356//356 359//359 326//326
f 356//356 326//326 325//325
f 354//354 357//357 360//360
f 354//354 360//360 361//361
f 361//361 360//360 362//362
f 361//361 362//362 363//363
f 357//357 324//324 333//333
f 357//357 333//333 360//360
f 360//360 333//333 310//310
f 360//360 310//310 362//362
f 354//354 361//361 364//364
f 354//354 364//364 365//365
f 365//365 364//364 366//366
f 365//365 366//366 367//367
f 361//361 363//363 368//368
f 361//361 368//368 364//364
f 364//364 368//368 369//369
f 364//364 369//369 366//366
f 354//354 365//365 370//370
f 354//354 370//370 355//355
f 355//355 370//370 371//371
f 355//355 371//371 358//358
f 365//365 367//367 372//372
f 365//365 372//372 370//370
f 370//370 372//372 373//373
f 370//370 373//373 371//371
f 374//374 375//375 376//376
f 374//374 376//376 377//377
f 377//377 376//376 368//368
f 377//377 368//368 363//363
f 375//375 378//378 379//379
f 375//375 379//379 376//376
f 376//376 379//379 369//369
f 376//376 369//369 368//368
f 374//374 377//377 380//380
f 374//374 380//380 381//381
f 381//381 380//380 309//309
f 381//381 309//309 308//308
f 377//377 363//363 362//362
f 377//377 362//362 380//380
f 380//380 362//362 310//310
f 380//380 310//310 309//309
f 374//374 381//381 382//382
f 374//374 382//382 383//383
f 383//383 382//382 384//384
f 383//383 384//384 385//385
f 381//381 308//308 317//317
f 381//381 317//317 382//382
f 382//382 317//317 234//234
f 382//382 234//234 384//384
f 374//374 383//383 386//386
f 374//374 386//386 375//375
f 375//375 386//386 387//387
f 375//375 387//387 378//378
f 383//383 385//385 388//388
f 383//383 388//388 386//386
f 386//386 388//388 389//389
f 386//386 389//389 387//387
f 390//390 391//391 392//392
f 390//390 392//392 393//393
f 393//393 392//392 388//388
f 393//393 388//388 385//385
f 391//391 394//394 395//395
f 391//391 395//395 392//392
f 392//392 395//395 389//389
f 392//392 389//389 388//388
f 390//390 393//393 396//396
f 390//390 396//396 397//397
f 397//397 396//396 233//233
f 397//397 233//233 232//232
f 393//393 385//385 384//384
f 393//393 384//384 396//396
f 396//396 384//384 234//234
f 396//396 234//234 233//233
f 390//390 397//397 398//398
f 390//390 398//398 399//399
f 399//399 398//398 14//14
f 399//399 14//14 6//6
f 397//397 232//232 245//245
f 397//397 245//245 398//398
f 398//398 245//245 15//15
f 398//398 15//15 14//14
f 390//390 399//399 400//400
f 390//390 400//400 391//391
f 391//391 400//400 401//401
f 391//391 401//401 394//394
f 399//399 6//6 5//5
f 399//399 5//5 400//400
f 400//400 5//5 9//9
f 400//400 9//9 401//401
f 402//402 403//403 404//404
f 402//402 404//404 405//405
f 405//405 404//404 406//406
f 405//405 406//406 407//407
f 403//403 408//408 409//409
f 403//403 409//409 404//404
f 404//404 409//409 410//410
f 404//404 410//410 406//406
f 402//402 405//405 411//411
f 402//402 411//411 412//412
f 412//412 411//411 341//341
f 412//412 341//341 340//340
f 405//405 407//407 413//413
f 405//405 413//413 411//411
f 411//411 413//413 342//342
f 411//411 342//342 341//341
f 402//402 412//412 414//414
f 402//402 414//414 415//415
f 415//415 414//414 359//359
f 415//415 359//359 358//358
f 412//412 340//340 353//353
f 412//412 353//353 414//414
f 414//414 353//353 326//326
f 414//414 326//326 359//359
f 402//402 415//415 416//416
f 402//402 416//416 403//403
f 403//403 416//416 417//417
f 403//403 417//417 408//408
f 415//415 358//358 371//371
f 415//415 371//371 416//416
f 416//416 371//371 373//373
f 416//416 373//373 417//417
f 418//418 419//419 420//420
f 418//418 420//420 421//421
f 421//421 420//420 422//422
f 421//421 422//422 423//423
f 419//419 424//424 425//425
f 419//419 425//425 420//420
f 420//420 425//425 426//426
f 420//420 426//426 422//422
f 418//418 421//421 427//427
f 418//418 427//427 428//428
f 428//428 427//427 395//395
f 428//428 395//395 394//394
f 421//421 423//423 429//429
f 421//421 429//429 427//427
f 427//427 429//429 389//389
f 427//427 389//389 395//395
f 418//418 428//428 430//430
f 418//418 430//430 431//431
f 431//431 430//430 57//57
f 431//431 57//57 51//51
f 428//428 394//394 401//401
f 428//428 401//401 430//430
f 430//430 401//401 9//9
f 430//430 9//9 57//57
f 418//418 431//431 432//432
f 418//418 432//432 419//419
f 419//419 432//432 433//433
f 419//419 433//433 424//424
f 431//431 51//51 50//50
f 431//431 50//50 432//432
f 432//432 50//50 54//54
f 432//432 54//54 433//433
f 434//434 435//435 436//436
f 434//434 436//436 437//437
f 437//437 436//436 438//438
f 437//437 438//438 439//439
f 435//435 440//440 441//441
f 435//435 441//441 436//436
f 436//436 441//441 442//442
f 436//436 442//442 438//438
f 434//434 437//437 443//443
f 434//434 443//443 444//444
f 444//444 443//443 372//372
f 444//444 372//372 367//367
f 437//437 439//439 445//445
f 437//437 445//445 443//443
f 443//443 445//445 373//373
f 443//443 373//373 372//372
f 434//434 444//444 446//446
f 434//434 446//446 447//447
f 447//447 446//446 448//448
f 447//447 448//448 449//449
f 444//444 367//367 366//366
f 444//444 366//366 446//446
f 446//446 366//366 369//369
f 446//446 369//369 448//448
f 434//434 447//447 450//450
f 434//434 450//450 435//435
f 435//435 450//450 451//451
f 435//435 451//451 440//440
f 447//447 449//449 452//452
f 447//447 452//452 450//450
f 450//450 452//452 453//453
f 450//450 453//453 451//451
f 454//454 455//455 456//456
f 454//454 456//456 457//457
f 457//457 456//456 452//452
f 457//457 452//452 449//449
f 455//455 458//458 459//459
f 455//455 459//459 456//456
f 456//456 459//459 453//453
f 456//456 453//453 452//452
f 454//454 457//457 460//460
f 454//454 460//460 461//461
f 461//461 460//460 379//379
f 461//461 379//379 378//378
f 457//457 449//449 448//448
f 457//457 448//448 460//460
f 460//460 448//448 369//369
f 460//460 369//369 379//379
f 454//454 461//461 462//462
f 454//454 462//462 463//463
f 463//463 462//462 429//429
f 463//463 429//429 423//423
f 461//461 378//378 387//387
f 461//461 387//387 462//462
f 462//462 387//387 389//389
f 462//462 389//389 429//429
f 454//454 463//463 464//464
f 454//454 464//464 455//455
f 455//455 464//464 465//465
f 455//455 465//465 458//458
f 463//463 423//423 422//422
f 463//463 422//422 464//464
f 464//464 422//422 426//426
f 464//464 426//426 465//465
f 466//466 467//467 468//468
f 466//466 468//468 469//469
f 469//469 468//468 470//470
f 469//469 470//470 471//471
f 467//467 439//439 438//438
f 467//467 438//438 468//468
f 468//468 438//438 442//442
f 468//468 442//442 470//470
f 466//466 469//469 472//472
f 466//466 472//472 473//473
f 473//473 472//472 474//474
f 473//473 474//474 475//475
f 469//469 471//471 476//476
f 469//469 476//476 472//472
f 472//472 476//476 477//477
f 472//472 477//477 474//474
f 466//466 473//473 478//478
f 466//466 478//478 479//479
f 479//479 478//478 409//409
f 479//479 409//409 408//408
f 473//473 475//475 480//480
f 473//473 480//480 478//478
f 478//478 480//480 410//410
f 478//478 410//410 409//409
f 466//466 479//479 481//481
f 466//466 481//481 467//467
f 467//467 481//481 445//445
f 467//467 445//445 439//439
f 479//479 408//408 417//417
f 479//479 417//417 481//481
f 481//481 417//417 373//373
f 481//481 373//373 445//445
f 482//482 483//483 484//484
f 482//482 484//484 485//485
f 485//485 484//484 159//159
f 485//485 159//159 158//158
f 483//483 119//119 118//118
f 483//483 118//118 484//484
f 484//484 118//118 41//41
f 484//484 41//41 159//159
f 482//482 485//485 486//486
f 482//482 486//486 487//487
f 487//487 486//486 488//488
f 487//487 488//488 489//489
f 485//485 158//158 171//171
f 485//485 171//171 486//486
f 486//486 171//171 173//173
f 486//486 173//173 488//488
f 482//482 487//487 490//490
f 482//482 490//490 491//491
f 491//491 490//490 492//492
f 491//491 492//492 493//493
f 487//487 489//489 494//494
f 487//487 494//494 490//490
f 490//490 494//494 495//495
f 490//490 495//495 492//492
f 482//482 491//491 496//496
f 482//482 496//496 483//483
f 483//483 496//496 121//121
f 483//483 121//121 119//119
f 491//491 493//493 497//497
f 491//491 497//497 496//496
f 496//496 497//497 102//102
f 496//496 102//102 121//121
f 498//498 499//499 500//500
f 498//498 500//500 501//501
f 501//501 500//500 179//179
f 501//501 179//179 178//178
f 499//499 489//489 488//488
f 499//499 488//488 500//500
f 500//500 488//488 173//173
f 500//500 173//173 179//179
f 498//498 501//501 502//502
f 498//498 502//502 503//503
f 503//503 502//502 504//504
f 503//503 504//504 505//505
f 501//501 178//178 191//191
f 501//501 191//191 502//502
f 502//502 191//191 193//193
f 502//502 193//193 504//504
f 498//498 503//503 506//506
f 498//498 506//506 507//507
f 507//507 506//506 508//508
f 507//507 508//508 509//509
f 503//503 505//505 510//510
f 503//503 510//510 506//506
f 506//506 510//510 511//511
f 506//506 511//511 508//508
f 498//498 507//507 512//512
f 498//498 512//512 499//499
f 499//499 512//512 494//494
f 499//499 494//494 489//489
f 507//507 509//509 513//513
f 507//507 513//513 512//512
f 512//512 513//513 495//495
f 512//512 495//495 494//494
f 514//514 515//515 516//516
f 514//514 516//516 517//517
f 517//517 516//516 513//513
f 517//517 513//513 509//509
f 515//515 518//518 519//519
f 515//515 519//519 516//516
f 516//516 519//519 495//495
f 516//516 495//495 513//513
f 514//514 517//517 520//520
f 514//514 520//520 521//521
f 521//521 520//520 522//522
f 521//521 522//522 523//523
f 517//517 509//509 508//508
f 517//517 508//508 520//520
f 520//520 508//508 511//511
f 520//520 511//511 522//522
f 514//514 521//521 524//524
f 514//514 524//524 525//525
f 525//525 524//524 526//526
f 525//525 526//526 527//527
f 521//521 523//523 528//528
f 521//521 528//528 524//524
f 524//524 528//528 529//529
f 524//524 529//529 526//526
f 514//514 525//525 530//530
f 514//514 530//530 515//515
f 515//515 530//530 531//531
f 515//515 531//531 518//518
f 525//525 527//527 532//532
f 525//525 532//532 530//530
f 530//530 532//532 533//533
f 530//530 533//533 531//531
f 534//534 535//535 536//536
f 534//534 536//536 537//537
f 537//537 536//536 497//497
f 537//537 497//497 493//493
f 535//535 100//100 99//99
f 535//535 99//99 536//536
f 536//536 99//99 102//102
f 536//536 102//102 497//497
f 534//534 537//537 538//538
f 534//534 538//538 539//539
f 539//539 538//538 519//519
f 539//539 519//519 518//518
f 537//537 493//493 492//492
f 537//537 492//492 538//538
f 538//538 492//492 495//495
f 538//538 495//495 519//519
f 534//534 539//539 540//540
f 534//534 540//540 541//541
f 541//541 540//540 542//542
f 541//541 542//542 543//543
f 539//539 518//518 531//531
f 539//539 531//531 540//540
f 540//540 531//531 533//533
f 540//540 533//533 542//542
f 534//534 541//541 544//544
f 534//534 544//544 535//535
f 535//535 544//544 105//105
f 535//535 105//105 100//100
f 541//541 543//543 545//545
f 541//541 545//545 544//544
f 544//544 545//545 106//106
f 544//544 106//106 105//105
f 546//546 547//547 548//548
f 546//546 548//548 549//549
f 549//549 548//548 550//550
f 549//549 550//550 551//551
f 547//547 552//552 553//553
f 547//547 553//553 548//548
f 548//548 553//553 554//554
f 548//548 554//554 550//550
f 546//546 549//549 555//555
f 546//546 555//555 556//556
f 556//556 555//555 545//545
f 556//556 545//545 543//543
f 549//549 551//551 557//557
f 549//549 557//557 555//555
f 555//555 557//557 106//106
f 555//555 106//106 545//545
f 546//546 556//556 558//558
f 546//546 558//558 559//559
f 559//559 558//558 560//560
f 559//559 560//560 561//561
f 556//556 543//543 542//542
f 556//556 542//542 558//558
f 558//558 542//542 533//533
f 558//558 533//533 560//560
f 546//546 559//559 562//562
f 546//546 562//562 547//547
f 547//547 562//562 563//563
f 547//547 563//563 552//552
f 559//559 561//561 564//564
f 559//559 564//564 562//562
f 562//562 564//564 565//565
f 562//562 565//565 563//563
f 566//566 567//567 568//568
f 566//566 568//568 569//569
f 569//569 568//568 532//532
f 569//569 532//532 527//527
f 567//567 561//561 560//560
f 567//567 560//560 568//568
f 568//568 560//560 533//533
f 568//568 533//533 532//532
f 566//566 569//569 570//570
f 566//566 570//570 571//571
f 571//571 570//570 572//572
f 571//571 572//572 573//573
f 569//569 527//527 526//526
f 569//569 526//526 570//570
f 570//570 526//526 529//529
f 570//570 529//529 572//572
f 566//566 571//571 574//574
f 566//566 574//574 575//575
f 575//575 574//574 576//576
f 575//575 576//576 577//577
f 571//571 573//573 578//578
f 571//571 578//578 574//574
f 574//574 578//578 579//579
f 574//574 579//579 576//576
f 566//566 575//575 580//580
f 566//566 580//580 567//567
f 567//567 580//580 564//564
f 567//567 564//564 561//561
f 575//575 577//577 581//581
f 575//575 581//581 580//580
f 580//580 581//581 565//565
f 580//580 565//565 564//564
f 582//582 583//583 584//584
f 582//582 584//584 585//585
f 585//585 584//584 581//581
f 585//585 581//581 577//577
f 583//583 586//586 587//587
f 583//583 587//587 584//584
f 584//584 587//587 565//565
f 584//584 565//565 581//581
f 582//582 585//585 588//588
f 582//582 588//588 589//589
f 589//589 588//588 590//590
f 589//589 590//590 591//591
f 585//585 577//577 576//576
f 585//585 576//576 588//588
f 588//588 576//576 579//579
f 588//588 579//579 590//590
f 582//582 589//589 592//592
f 582//582 592//592 593//593
f 593//593 592//592 594//594
f 593//593 594//594 595//595
f 589//589 591//591 596//596
f 589//589 596//596 592//592
f 592//592 596//596 597//597
f 592//592 597//597 594//594
f 582//582 593//593 598//598
f 582//582 598//598 583//583
f 583//583 598//598 599//599
f 583//583 599//599 586//586
f 593//593 595//595 600//600
f 593//593 600//600 598//598
f 598//598 600//600 601//601
f 598//598 601//601 599//599
f 602//602 603//603 604//604
f 602//602 604//604 605//605
f 605//605 604//604 606//606
f 605//605 606//606 607//607
f 603//603 608//608 609//609
f 603//603 609//609 604//604
f 604//604 609//609 610//610
f 604//604 610//610 606//606
f 602//602 605//605 611//611
f 602//602 611//611 612//612
f 612//612 611//611 613//613
f 612//612 613//613 614//614
f 605//605 607//607 615//615
f 605//605 615//615 611//611
f 611//611 615//615 616//616
f 611//611 616//616 613//613
f 602//602 612//612 617//617
f 602//602 617//617 618//618
f 618//618 617//617 600//600
f 618//618 600//600 595//595
f 612//612 614//614 619//619
f 612//612 619//619 617//617
f 617//617 619//619 601//601
f 617//617 601//601 600//600
f 602//602 618//618 620//620
f 602//602 620//620 603//603
f 603//603 620//620 621//621
f 603//603 621//621 608//608
f 618//618 595//595 594//594
f 618//618 594//594 620//620
f 620//620 594//594 597//597
f 620//620 597//597 621//621
f 622//622 623//623 624//624
f 622//622 624//624 625//625
f 625//625 624//624 626//626
f 625//625 626//626 627//627
f 623//623 628//628 629//629
f 623//623 629//629 624//624
f 624//624 629//629 630//630
f 624//624 630//630 626//626
f 622//622 625//625 631//631
f 622//622 631//631 632//632
f 632//632 631//631 553//553
f 632//632 553//553 552//552
f 625//625 627//627 633//633
f 625//625 633//633 631//631
f 631//631 633//633 554//554
f 631//631 554//554 553//553
f 622//622 632//632 634//634
f 622//622 634//634 635//635
f 635//635 634//634 587//587
f 635//635 587//587 586//586
f 632//632 552//552 563//563
f 632//632 563//563 634//634
f 634//634 563//563 565//565
f 634//634 565//565 587//587
f 622//622 635//635 636//636
f 622//622 636//636 623//623
f 623//623 636//636 637//637
f 623//623 637//637 628//628
f 635//635 586//586 599//599
f 635//635 599//599 636//636
f 636//636 599//599 601//601
f 636//636 601//601 637//637
f 638//638 639//639 640//640
f 638//638 640//640 641//641
f 641//641 640//640 642//642
f 641//641 642//642 643//643
f 639//639 644//644 645//645
f 639//639 645//645 640//640
f 640//640 645//645 646//646
f 640//640 646//646 642//642
f 638//638 641//641 647//647
f 638//638 647//647 648//648
f 648//648 647//647 629//629
f 648//648 629//629 628//628
f 641//641 643//643 649//649
f 641//641 649//649 647//647
f 647//647 649//649 630//630
f 647//647 630//630 629//629
f 638//638 648//648 650//650
f 638//638 650//650 651//651
f 651//651 650//650 619//619
f 651//651 619//619 614//614
f 648//648 628//628 637//637
f 648//648 637//637 650//650
f 650//650 637//637 601//601
f 650//650 601//601 619//619
f 638//638 651//651 652//652
f 638//638 652//652 639//639
f 639//639 652//652 653//653
f 639//639 653//653 644//644
f 651//651 614//614 613//613
f 651//651 613//613 652//652
f 652//652 613//613 616//616
f 652//652 616//616 653//653
f 654//654 655//655 656//656
f 654//654 656//656 657//657
f 657//657 656//656 658//658
f 657//657 658//658 659//659
f 655//655 660//660 661//661
f 655//655 661//661 656//656
f 656//656 661//661 662//662
f 656//656 662//662 658//658
f 654//654 657//657 663//663
f 654//654 663//663 664//664
f 664//664 663//663 645//645
f 664//664 645//645 644//644
f 657//657 659//659 665//665
f 657//657 665//665 663//663
f 663//663 665//665 646//646
f 663//663 646//646 645//645
f 654//654 664//664 666//666
f 654//654 666//666 667//667
f 667//667 666//666 668//668
f 667//667 668//668 669//669
f 664//664 644//644 653//653
f 664//664 653//653 666//666
f 666//666 653//653 616//616
f 666//666 616//616 668//668
f 654//654 667//667 670//670
f 654//654 670//670 655//655
f 655//655 670//670 671//671
f 655//655 671//671 660//660
f 667//667 669//669 672//672
f 667//667 672//672 670//670
f 670//670 672//672 673//673
f 670//670 673//673 671//671
f 674//674 675//675 676//676
f 674//674 676//676 677//677
f 677//677 676//676 678//678
f 677//677 678//678 679//679
f 675//675 643//643 642//642
f 675//675 642//642 676//676
f 676//676 642//642 646//646
f 676//676 646//646 678//678
f 674//674 677//677 680//680
f 674//674 680//680 681//681
f 681//681 680//680 682//682
f 681//681 682//682 683//683
f 677//677 679//679 684//684
f 677//677 684//684 680//680
f 680//680 684//684 685//685
f 680//680 685//685 682//682
f 674//674 681//681 686//686
f 674//674 686//686 687//687
f 687//687 686//686 688//688
f 687//687 688//688 689//689
f 681//681 683//683 690//690
f 681//681 690//690 686//686
f 686//686 690//690 691//691
f 686//686 691//691 688//688
f 674//674 687//687 692//692
f 674//674 692//692 675//675
f 675//675 692//692 649//649
f 675//675 649//649 643//643
f 687//687 689//689 693//693
f 687//687 693//693 692//692
f 692//692 693//693 630//630
f 692//692 630//630 649//649
f 694//694 695//695 696//696
f 694//694 696//696 697//697
f 697//697 696//696 698//698
f 697//697 698//698 699//699
f 695//695 689//689 688//688
f 695//695 688//688 696//696
f 696//696 688//688 691//691
f 696//696 691//691 698//698
f 694//694 697//697 700//700
f 694//694 700//700 701//701
f 701//701 700//700 702//702
f 701//701 702//702 703//703
f 697//697 699//699 704//704
f 697//697 704//704 700//700
f 700//700 704//704 705//705
f 700//700 705//705 702//702
f 694//694 701//701 706//706
f 694//694 706//706 707//707
f 707//707 706//706 633//633
f 707//707 633//633 627//627
f 701//701 703//703 708//708
f 701//701 708//708 706//706
f 706//706 708//708 554//554
f 706//706 554//554 633//633
f 694//694 707//707 709//709
f 694//694 709//709 695//695
f 695//695 709//709 693//693
f 695//695 693//693 689//689
f 707//707 627//627 626//626
f 707//707 626//626 709//709
f 709//709 626//626 630//630
f 709//709 630//630 693//693
f 710//710 711//711 712//712
f 710//710 712//712 713//713
f 713//713 712//712 714//714
f 713//713 714//714 715//715
f 711//711 703//703 702//702
f 711//711 702//702 712//712
f 712//712 702//702 705//705
f 712//712 705//705 714//714
f 710//710 713//713 716//716
f 710//710 716//716 717//717
f 717//717 716//716 89//89
f 717//717 89//89 88//88
f 713//713 715//715 718//718
f 713//713 718//718 716//716
f 716//716 718//718 90//90
f 716//716 90//90 89//89
f 710//710 717//717 719//719
f 710//710 719//719 720//720
f 720//720 719//719 557//557
f 720//720 557//557 551//551
f 717//717 88//88 104//104
f 717//717 104//104 719//719
f 719//719 104//104 106//106
f 719//719 106//106 557//557
f 710//710 720//720 721//721
f 710//710 721//721 711//711
f 711//711 721//721 708//708
f 711//711 708//708 703//703
f 720//720 551//551 550//550
f 720//720 550//550 721//721
f 721//721 550//550 554//554
f 721//721 554//554 708//708
f 722//722 723//723 724//724
f 722//722 724//724 725//725
f 725//725 724//724 726//726
f 725//725 726//726 727//727
f 723//723 728//728 729//729
f 723//723 729//729 724//724
f 724//724 729//729 730//730
f 724//724 730//730 726//726
f 722//722 725//725 731//731
f 722//722 731//731 732//732
f 732//732 731//731 684//684
f 732//732 684//684 679//679
f 725//725 727//727 733//733
f 725//725 733//733 731//731
f 731//731 733//733 685//685
f 731//731 685//685 684//684
f 722//722 732//732 734//734
f 722//722 734//734 735//735
f 735//735 734//734 665//665
f 735//735 665//665 659//659
f 732//732 679//679 678//678
f 732//732 678//678 734//734
f 734//734 678//678 646//646
f 734//734 646//646 665//665
f 722//722 735//735 736//736
f 722//722 736//736 723//723
f 723//723 736//736 737//737
f 723//723 737//737 728//728
f 735//735 659//659 658//658
f 735//735 658//658 736//736
f 736//736 658//658 662//662
f 736//736 662//662 737//737
f 738//738 739//739 740//740
f 738//738 740//740 741//741
f 741//741 740//740 742//742
f 741//741 742//742 743//743
f 739//739 744//744 745//745
f 739//739 745//745 740//740
f 740//740 745//745 746//746
f 740//740 746//746 742//742
f 738//738 741//741 747//747
f 738//738 747//747 748//748
f 748//748 747//747 129//129
f 748//748 129//129 128//128
f 741//741 743//743 749//749
f 741//741 749//749 747//747
f 747//747 749//749 130//130
f 747//747 130//130 129//129
f 738//738 748//748 750//750
f 738//738 750//750 751//751
f 751//751 750//750 718//718
f 751//751 718//718 715//715
f 748//748 128//128 141//141
f 748//748 141//141 750//750
f 750//750 141//141 90//90
f 750//750 90//90 718//718
f 738//738 751//751 752//752
f 738//738 752//752 739//739
f 739//739 752//752 753//753
f 739//739 753//753 744//744
f 751//751 715//715 714//714
f 751//751 714//714 752//752
f 752//752 714//714 705//705
f 752//752 705//705 753//753
f 754//754 755//755 756//756
f 754//754 756//756 757//757
f 757//757 756//756 758//758
f 757//757 758//758 759//759
f 755//755 760//760 761//761
f 755//755 761//761 756//756
f 756//756 761//761 762//762
f 756//756 762//762 758//758
f 754//754 757//757 763//763
f 754//754 763//763 764//764
f 764//764 763//763 765//765
f 764//764 765//765 766//766
f 757//757 759//759 767//767
f 757//757 767//767 763//763
f 763//763 767//767 768//768
f 763//763 768//768 765//765
f 754//754 764//764 769//769
f 754//754 769//769 770//770
f 770//770 769//769 690//690
f 770//770 690//690 683//683
f 764//764 766//766 771//771
f 764//764 771//771 769//769
f 769//769 771//771 691//691
f 769//769 691//691 690//690
f 754//754 770//770 772//772
f 754//754 772//772 755//755
f 755//755 772//772 773//773
f 755//755 773//773 760//760
f 770//770 683//683 682//682
f 770//770 682//682 772//772
f 772//772 682//682 685//685
f 772//772 685//685 773//773
f 774//774 775//775 776//776
f 774//774 776//776 777//777
f 777//777 776//776 778//778
f 777//777 778//778 779//779
f 775//775 766//766 765//765
f 775//775 765//765 776//776
f 776//776 765//765 768//768
f 776//776 768//768 778//778
f 774//774 777//777 780//780
f 774//774 780//780 781//781
f 781//781 780//780 745//745
f 781//781 745//745 744//744
f 777//777 779//779 782//782
f 777//777 782//782 780//780
f 780//780 782//782 746//746
f 780//780 746//746 745//745
f 774//774 781//781 783//783
f 774//774 783//783 784//784
f 784//784 783//783 704//704
f 784//784 704//704 699//699
f 781//781 744//744 753//753
f 781//781 753//753 783//783
f 783//783 753//753 705//705
f 783//783 705//705 704//704
f 774//774 784//784 785//785
f 774//774 785//785 775//775
f 775//775 785//785 771//771
f 775//775 771//771 766//766
f 784//784 699//699 698//698
f 784//784 698//698 785//785
f 785//785 698//698 691//691
f 785//785 691//691 771//771
f 786//786 787//787 788//788
f 786//786 788//788 789//789
f 789//789 788//788 761//761
f 789//789 761//761 760//760
f 787//787 790//790 791//791
f 787//787 791//791 788//788
f 788//788 791//791 762//762
f 788//788 762//762 761//761
f 786//786 789//789 792//792
f 786//786 792//792 793//793
f 793//793 792//792 733//733
f 793//793 733//733 727//727
f 789//789 760//760 773//773
f 789//789 773//773 792//792
f 792//792 773//773 685//685
f 792//792 685//685 733//733
f 786//786 793//793 794//794
f 786//786 794//794 795//795
f 795//795 794//794 796//796
f 795//795 796//796 797//797
f 793//793 727//727 726//726
f 793//793 726//726 794//794
f 794//794 726//726 730//730
f 794//794 730//730 796//796
f 786//786 795//795 798//798
f 786//786 798//798 787//787
f 787//787 798//798 799//799
f 787//787 799//799 790//790
f 795//795 797//797 800//800
f 795//795 800//800 798//798
f 798//798 800//800 801//801
f 798//798 801//801 799//799
