# Generated by lxe_pbrt_scene_convert
v -1.01755297 0.448172003 1.63545597
v -1.01959002 0.448091 1.63542104
v -1.02081895 0.447086006 1.645859
v -1.01879799 0.447160989 1.64589095
v -0.984108984 0.448457003 1.646456
v -0.982574999 0.449562997 1.63604701
v -0.980618 0.450973988 1.62277198
v -1.01596403 0.449461013 1.62214696
v -1.01789999 0.449075013 1.62544703
v -0.881716013 0.453574002 1.63775098
v -0.884081006 0.452194005 1.64808404
v -0.755970001 0.457024992 1.64993596
v -0.752817988 0.458745986 1.63957703
v -0.748798013 0.460940003 1.62636399
v -0.878699005 0.455334991 1.62457299
v -1.01935804 0.44670701 1.65058005
v -0.984798014 0.447959989 1.65113199
v -1.02137101 0.446633995 1.65054798
v -1.02173102 0.444943994 1.65371096
v -1.01973295 0.445015997 1.65373898
v -0.985303998 0.446289003 1.65426397
v -0.885143995 0.451573014 1.65272605
v -0.757386029 0.456252009 1.65459096
v -0.886014998 0.449961007 1.65578306
v -0.758572996 0.454679012 1.65758395
v -1.02042401 0.440295011 1.65958905
v -0.986289978 0.44165799 1.66003895
v -0.985303998 0.446289003 1.65426397
v -1.01973295 0.445015997 1.65373898
v -1.02173102 0.444943994 1.65371096
v -1.02238297 0.440223992 1.65957296
v -1.02250397 0.435564011 1.66498101
v -1.02127397 0.434058011 1.66678298
v -0.987514973 0.435548007 1.66713595
v -0.887803018 0.445605993 1.661358
v -0.761035979 0.45055601 1.66296101
v -0.758572996 0.454679012 1.65758395
v -0.886014998 0.449961007 1.65578306
v -0.890049994 0.439877987 1.66819406
v -0.76413703 0.445158005 1.66953003
v 0.986016989 0.522979021 1.63937795
v 0.947751999 0.521807015 1.64039195
v 0.949021995 0.520340025 1.643852
v 0.987289011 0.521497011 1.64286101
v 0.988789976 0.521542013 1.64282203
v 0.987518013 0.523024976 1.63933897
v 0.986087978 0.523707986 1.63513505
v 0.984588981 0.523661971 1.63517404
v 0.946341991 0.522490025 1.63615799
v 0.835958004 0.518383026 1.64335406
v 0.688848972 0.513994992 1.64656198
v 0.689953029 0.512584984 1.64990604
v 0.83722198 0.516960979 1.64674604
v 0.834603012 0.519068003 1.63903296
v 0.687705994 0.514662981 1.64213395
v 0.981409013 0.525182009 1.62581503
v 0.943203986 0.524011016 1.62673295
v 0.982906997 0.525228024 1.62577903
v 0.979489982 0.526669979 1.61683798
v 0.977352977 0.527119994 1.61387897
v 0.939202011 0.525951028 1.61471295
v 0.831586003 0.520591974 1.62941599
v 0.827740014 0.52253598 1.61714995
v 0.681915998 0.518049002 1.61970699
v 0.685160995 0.516152024 1.63227701
v 0.839963019 0.513225973 1.65357995
v 0.95174098 0.516471028 1.65095305
v 0.949021995 0.520340025 1.643852
v 0.83722198 0.516960979 1.64674604
v 0.689953029 0.512584984 1.64990604
v 0.692378998 0.508871973 1.65650904
v 0.695465982 0.504007995 1.66474104
v 0.84344399 0.508334994 1.66213298
v 0.955183029 0.511398971 1.65987504
v 0.99000001 0.517580986 1.65005398
v 0.99150002 0.517624974 1.65001798
v 0.988789976 0.521542013 1.64282203
v 0.987289011 0.521497011 1.64286101
v 0.993429005 0.512448013 1.65910101
v 0.993696988 0.513763011 1.65681601
v -0.0700829998 0.485698998 1.65374994
v -0.0698769987 0.486422002 1.64895296
v -0.222040996 0.479472995 1.650213
v -0.222440004 0.478688985 1.655002
v -0.222995996 0.477073997 1.658306
v -0.0703639984 0.484079987 1.65715802
v 0.0844620019 0.491032988 1.65583396
v 0.0845189989 0.49266699 1.65236199
v 0.0846540034 0.493344992 1.64756095
v -0.0694179982 0.488032997 1.63827705
v -0.0688320026 0.490085989 1.62466097
v -0.220017001 0.483444005 1.62595999
v -0.221150994 0.481218994 1.63955402
v 0.0849530026 0.494854003 1.63687301
v 0.0853359997 0.496778011 1.62324297
v 0.242568001 0.501390994 1.635638
v 0.242441997 0.500020981 1.64615297
v 0.39753601 0.505928993 1.64485705
v 0.397177011 0.507220984 1.63458705
v 0.396719009 0.508867979 1.62149
v 0.242728993 0.503139019 1.62222803
v 0.0853359997 0.496778011 1.62324297
v 0.0849530026 0.494854003 1.63687301
v 0.0846540034 0.493344992 1.64756095
v 0.242385 0.49940601 1.650877
v 0.242405996 0.497772008 1.654351
v 0.397875994 0.50375402 1.65290499
v 0.397697985 0.50534898 1.64947104
v 0.0845189989 0.49266699 1.65236199
v 0.0844620019 0.491032988 1.65583396
v 0.54253298 0.511918008 1.63373399
v 0.543986976 0.510546982 1.64379597
v 0.687705994 0.514662981 1.64213395
v 0.685160995 0.516152024 1.63227701
v 0.681915998 0.518049002 1.61970699
v 0.540678024 0.513665974 1.62090194
v 0.396719009 0.508867979 1.62149
v 0.397177011 0.507220984 1.63458705
v 0.39753601 0.505928993 1.64485705
v 0.544641018 0.509931028 1.64831698
v 0.545280993 0.508436978 1.65169096
v 0.689953029 0.512584984 1.64990604
v 0.688848972 0.513994992 1.64656198
v 0.397697985 0.50534898 1.64947104
v 0.397875994 0.50375402 1.65290499
v -0.37085101 0.474703014 1.64040804
v -0.372727007 0.472719014 1.65122199
v -0.368458986 0.477232993 1.62661695
v -0.507257998 0.471471012 1.62686896
v -0.510910988 0.468748003 1.64075994
v -0.513776004 0.466612011 1.65165102
v -0.373569012 0.471828014 1.65608001
v -0.374357015 0.470176995 1.65926003
v -0.515062988 0.465653002 1.65654397
v -0.516052008 0.463981986 1.65961301
v -0.638513982 0.460702986 1.65595603
v -0.637030005 0.461605996 1.65117395
v -0.755970001 0.457024992 1.64993596
v -0.757386029 0.456252009 1.65459096
v -0.758572996 0.454679012 1.65758395
v -0.639688015 0.459084004 1.65895796
v -0.633724988 0.463616014 1.64053094
v -0.629510999 0.466179013 1.62695706
v -0.748798013 0.460940003 1.62636399
v -0.752817988 0.458745986 1.63957703
v -0.071047999 0.479781985 1.66366994
v 0.0843949988 0.486653 1.66253304
v 0.0844620019 0.491032988 1.65583396
v -0.0703639984 0.484079987 1.65715802
v -0.222995996 0.477073997 1.658306
v -0.224354997 0.472835004 1.66451001
v -0.226115003 0.467285007 1.67216396
v -0.0719320029 0.474146008 1.67173302
v 0.0843229964 0.480901003 1.67084599
v 0.242512003 0.493346006 1.661116
v 0.398286015 0.499419987 1.65963602
v 0.397875994 0.50375402 1.65290499
v 0.242405996 0.497772008 1.654351
v 0.0844620019 0.491032988 1.65583396
v 0.0843949988 0.486653 1.66253304
v 0.0843229964 0.480901003 1.67084599
v 0.242661998 0.487524986 1.66952598
v 0.398811996 0.493716002 1.66801596
v 0.546697021 0.504432976 1.65831399
v 0.692378998 0.508871973 1.65650904
v 0.689953029 0.512584984 1.64990604
v 0.545280993 0.508436978 1.65169096
v 0.397875994 0.50375402 1.65290499
v 0.398286015 0.499419987 1.65963602
v 0.398811996 0.493716002 1.66801596
v 0.548501015 0.499172986 1.66656196
v 0.695465982 0.504007995 1.66474104
v -0.642060995 0.454925001 1.66426206
v -0.639688015 0.459084004 1.65895796
v -0.758572996 0.454679012 1.65758395
v -0.761035979 0.45055601 1.66296101
v -0.76413703 0.445158005 1.66953003
v -0.645033002 0.449497014 1.670717
v -0.520484984 0.454142988 1.67162395
v -0.518023014 0.459711999 1.66503096
v -0.516052008 0.463981986 1.65961301
v -0.376067013 0.465914011 1.66503894
v -0.374357015 0.470176995 1.65926003
v -0.378239006 0.460345 1.67211699
v -1.01755297 0.448172003 -1.63545597
v -1.01879799 0.447160989 -1.64589095
v -1.02081895 0.447086006 -1.645859
v -1.01959002 0.448091 -1.63542104
v -1.01789999 0.449075013 -1.62544703
v -1.01596403 0.449461013 -1.62214696
v -0.980618 0.450973988 -1.62277198
v -0.982574999 0.449562997 -1.63604701
v -0.984108984 0.448457003 -1.646456
v -0.881716013 0.453574985 -1.63775098
v -0.884081006 0.452194005 -1.64808404
v -0.878699005 0.455334991 -1.62457299
v -0.748798013 0.460940003 -1.62636399
v -0.752817988 0.458745986 -1.63957703
v -0.755970001 0.457024992 -1.64993596
v -1.01935804 0.44670701 -1.65058005
v -0.984798014 0.447959989 -1.65113199
v -0.985303998 0.446289003 -1.65426397
v -1.01973295 0.445015997 -1.65373898
v -1.02173102 0.444943994 -1.65371096
v -1.02137101 0.446633995 -1.65054798
v -0.885143995 0.451573014 -1.65272605
v -0.757386029 0.456252009 -1.65459096
v -0.758572996 0.454679012 -1.65758395
v -0.886014998 0.449961007 -1.65578306
v -1.02042401 0.440295011 -1.65958905
v -1.01973295 0.445015997 -1.65373898
v -0.985303998 0.446289003 -1.65426397
v -0.986289978 0.44165799 -1.66003895
v -0.987514973 0.435548007 -1.66713595
v -1.02127397 0.434058011 -1.66678298
v -1.02250397 0.435564011 -1.66498101
v -1.02238297 0.440223992 -1.65957296
v -1.02173102 0.444943994 -1.65371096
v -0.887803018 0.445605993 -1.661358
v -0.886014998 0.449961007 -1.65578306
v -0.758572996 0.454679012 -1.65758395
v -0.761035979 0.45055601 -1.66296101
v -0.76413703 0.445158005 -1.66953003
v -0.890049994 0.439877987 -1.66819406
v 0.986016989 0.522979021 -1.63937795
v 0.987289011 0.521497011 -1.64286101
v 0.949021995 0.520340025 -1.643852
v 0.947751999 0.521807015 -1.64039195
v 0.946341991 0.522490025 -1.63615799
v 0.984588981 0.523661971 -1.63517404
v 0.986087978 0.523707986 -1.63513505
v 0.987518013 0.523024976 -1.63933897
v 0.988789976 0.521542013 -1.64282203
v 0.835958004 0.518383026 -1.64335406
v 0.83722198 0.516960979 -1.64674604
v 0.689953029 0.512584984 -1.64990604
v 0.688848972 0.513994992 -1.64656198
v 0.687705994 0.514663994 -1.64213395
v 0.834603012 0.519068003 -1.63903296
v 0.981409013 0.525182009 -1.62581503
v 0.943203986 0.524011016 -1.62673295
v 0.939202011 0.525951028 -1.61471295
v 0.977352977 0.527119994 -1.61387897
v 0.979489982 0.526669979 -1.61683798
v 0.982906997 0.525228024 -1.62577903
v 0.831586003 0.520591974 -1.62941599
v 0.827740014 0.52253598 -1.61714995
v 0.685160995 0.516152024 -1.63227701
v 0.681915998 0.518049002 -1.61970699
v 0.839963019 0.513225973 -1.65357995
v 0.83722198 0.516960979 -1.64674604
v 0.949021995 0.520340025 -1.643852
v 0.95174098 0.516471028 -1.65095305
v 0.955183029 0.511398971 -1.65987504
v 0.84344399 0.508334994 -1.66213298
v 0.695465982 0.504007995 -1.66474104
v 0.692378998 0.508871973 -1.65650904
v 0.689953029 0.512584984 -1.64990604
v 0.99000001 0.517580986 -1.65005398
v 0.987289011 0.521497011 -1.64286101
v 0.988789976 0.521542013 -1.64282203
v 0.99150002 0.517624974 -1.65001798
v 0.993696988 0.513763011 -1.65681601
v 0.993429005 0.512448013 -1.65910101
v -0.0700829998 0.485698998 -1.65374994
v -0.222440004 0.478688985 -1.655002
v -0.222040996 0.479472995 -1.650213
v -0.0698769987 0.486422002 -1.64895296
v 0.0846540034 0.493344992 -1.64756095
v 0.0845189989 0.49266699 -1.65236199
v 0.0844620019 0.491032988 -1.65583396
v -0.0703639984 0.484079987 -1.65715802
v -0.222995996 0.477073997 -1.658306
v -0.0694179982 0.488032997 -1.63827705
v -0.221150994 0.481218994 -1.63955402
v -0.220017001 0.483444005 -1.62595999
v -0.0688320026 0.490085989 -1.62466097
v 0.0853359997 0.496778011 -1.62324297
v 0.0849530026 0.494854003 -1.63687301
v 0.242568001 0.501390994 -1.635638
v 0.397177011 0.507220984 -1.63458705
v 0.39753601 0.505928993 -1.64485705
v 0.242441997 0.500020981 -1.64615297
v 0.0846540034 0.493344992 -1.64756095
v 0.0849530026 0.494854003 -1.63687301
v 0.0853359997 0.496778011 -1.62324297
v 0.242728993 0.503139019 -1.62222803
v 0.396719009 0.508867979 -1.62149
v 0.242385 0.49940601 -1.650877
v 0.397697985 0.50534898 -1.64946997
v 0.397875994 0.50375402 -1.65290499
v 0.242405996 0.497772008 -1.654351
v 0.0844620019 0.491032988 -1.65583396
v 0.0845189989 0.49266699 -1.65236199
v 0.54253298 0.511918008 -1.63373399
v 0.685160995 0.516152024 -1.63227701
v 0.687705994 0.514663994 -1.64213395
v 0.543986976 0.510546982 -1.64379597
v 0.39753601 0.505928993 -1.64485705
v 0.397177011 0.507220984 -1.63458705
v 0.396719009 0.508867979 -1.62149
v 0.540678024 0.513665974 -1.62090194
v 0.681915998 0.518049002 -1.61970699
v 0.544641018 0.509931028 -1.64831603
v 0.688848972 0.513994992 -1.64656198
v 0.689953029 0.512584984 -1.64990604
v 0.545280993 0.508436978 -1.65169096
v 0.397875994 0.50375402 -1.65290499
v 0.397697985 0.50534898 -1.64946997
v -0.37085101 0.474703014 -1.64040804
v -0.372727007 0.472719014 -1.65122199
v -0.513776004 0.466612011 -1.65165102
v -0.510910988 0.468748003 -1.64075994
v -0.507257998 0.471471012 -1.62686896
v -0.368458986 0.477232993 -1.62661695
v -0.373569012 0.471828014 -1.65608001
v -0.374357015 0.470176995 -1.65926003
v -0.516052008 0.463981986 -1.65961301
v -0.515062988 0.465653002 -1.65654504
v -0.638513982 0.460702986 -1.65595603
v -0.757386029 0.456252009 -1.65459096
v -0.755970001 0.457024992 -1.64993596
v -0.637030005 0.461605996 -1.65117395
v -0.639688015 0.459084004 -1.65895796
v -0.758572996 0.454679012 -1.65758395
v -0.633724988 0.463616014 -1.64053094
v -0.752817988 0.458745986 -1.63957703
v -0.748798013 0.460940003 -1.62636399
v -0.629510999 0.466179013 -1.62695706
v -0.071047999 0.479781985 -1.66366994
v -0.0703639984 0.484079987 -1.65715802
v 0.0844620019 0.491032988 -1.65583396
v 0.0843949988 0.486653 -1.66253304
v 0.0843229964 0.480901003 -1.67084599
v -0.0719320029 0.474146008 -1.67173302
v -0.226115003 0.467285007 -1.67216396
v -0.224354997 0.472835004 -1.66451001
v -0.222995996 0.477073997 -1.658306
v 0.242512003 0.493346006 -1.661116
v 0.242405996 0.497772008 -1.654351
v 0.397875994 0.50375402 -1.65290499
v 0.398286015 0.499419987 -1.65963602
v 0.398811996 0.493716002 -1.66801596
v 0.242661998 0.487524986 -1.66952598
v 0.0843229964 0.480901003 -1.67084599
v 0.0843949988 0.486653 -1.66253304
v 0.0844620019 0.491032988 -1.65583396
v 0.546697021 0.504432976 -1.65831399
v 0.545280993 0.508436978 -1.65169096
v 0.689953029 0.512584984 -1.64990604
v 0.692378998 0.508871973 -1.65650904
v 0.695465982 0.504007995 -1.66474104
v 0.548501015 0.499172986 -1.66656196
v 0.398811996 0.493716002 -1.66801596
v 0.398286015 0.499419987 -1.65963602
v 0.397875994 0.50375402 -1.65290499
v -0.642060995 0.454925001 -1.66426206
v -0.761035979 0.45055601 -1.66296101
v -0.758572996 0.454679012 -1.65758395
v -0.639688015 0.459084004 -1.65895796
v -0.516052008 0.463981986 -1.65961301
v -0.518023014 0.459711999 -1.66503096
v -0.520484984 0.454142988 -1.67162395
v -0.645033002 0.449497014 -1.670717
v -0.76413703 0.445158005 -1.66953003
v -0.376067013 0.465914011 -1.66503894
v -0.374357015 0.470176995 -1.65926003
v -0.378239006 0.460345 -1.67211699
vt 0.125 0.0936999992
vt 0 0.0936999992
vt 0 0.104199998
vt 0.125 0.104199998
vt 0.25 0.104199998
vt 0.25 0.0938000008
vt 0.25 0.0833000019
vt 0.125 0.0833000019
vt 0.0313000008 0.0859000012
vt 0.375 0.0938000008
vt 0.375 0.104199998
vt 0.5 0.104199998
vt 0.5 0.0938000008
vt 0.5 0.0833000019
vt 0.375 0.0833000019
vt 0.125 0.114600003
vt 0.25 0.114600003
vt 0 0.114600003
vt 0 0.125
vt 0.125 0.125
vt 0.25 0.125
vt 0.375 0.114600003
vt 0.5 0.114600003
vt 0.375 0.125
vt 0.5 0.125
vt 0.125 0.416700006
vt 0.25 0.416700006
vt 0.25 0.333299994
vt 0.125 0.333299994
vt 0 0.333299994
vt 0 0.416700006
vt 0.0313000008 0.479200006
vt 0.125 0.5
vt 0.25 0.5
vt 0.375 0.416700006
vt 0.5 0.416700006
vt 0.5 0.333299994
vt 0.375 0.333299994
vt 0.375 0.5
vt 0.5 0.5
vt 0.281199992 0.114600003
vt 0.3125 0.114600003
vt 0.3125 0.125
vt 0.281199992 0.125
vt 0.25 0.125
vt 0.25 0.114600003
vt 0.25 0.104199998
vt 0.281199992 0.104199998
vt 0.3125 0.104199998
vt 0.343699992 0.114600003
vt 0.375 0.114600003
vt 0.375 0.125
vt 0.343699992 0.125
vt 0.343699992 0.104199998
vt 0.375 0.104199998
vt 0.281199992 0.0938000008
vt 0.3125 0.0938000008
vt 0.25 0.0938000008
vt 0.257800013 0.0859000012
vt 0.281199992 0.0833000019
vt 0.3125 0.0833000019
vt 0.343699992 0.0938000008
vt 0.343699992 0.0833000019
vt 0.375 0.0833000019
vt 0.375 0.0938000008
vt 0.343800008 0.416700006
vt 0.3125 0.416700006
vt 0.3125 0.333299994
vt 0.343800008 0.333299994
vt 0.375 0.333299994
vt 0.375 0.416700006
vt 0.375 0.5
vt 0.343800008 0.5
vt 0.3125 0.5
vt 0.281300008 0.416700006
vt 0.25 0.416700006
vt 0.25 0.333299994
vt 0.281300008 0.333299994
vt 0.281300008 0.5
vt 0.257800013 0.479200006
vt 0.5 0.114600003
vt 0.5 0.104199998
vt 0 0.104199998
vt 0 0.114600003
vt 0 0.125
vt 0.5 0.125
vt 1 0.125
vt 1 0.114600003
vt 1 0.104199998
vt 0.5 0.0936999992
vt 0.5 0.0833000019
vt 0 0.0833000019
vt 0 0.0938000008
vt 1 0.0936999992
vt 1 0.0833000019
vt 0.5 0.0936999992
vt 0.5 0.104199998
vt 1 0.104199998
vt 1 0.0938000008
vt 1 0.0833000019
vt 0.5 0.0833000019
vt -0 0.0833000019
vt -0 0.0936999992
vt -0 0.104199998
vt 0.5 0.114600003
vt 0.5 0.125
vt 1 0.125
vt 1 0.114600003
vt -0 0.114600003
vt -0 0.125
vt 0.5 0.0938000008
vt 0.5 0.104199998
vt 1 0.104199998
vt 1 0.0938000008
vt 1 0.0833000019
vt 0.5 0.0833000019
vt 0 0.0833000019
vt 0 0.0938000008
vt 0 0.104199998
vt 0.5 0.114600003
vt 0.5 0.125
vt 1 0.125
vt 1 0.114600003
vt 0 0.114600003
vt 0 0.125
vt 0.25 0.0938000008
vt 0.25 0.104199998
vt 0.25 0.0833000019
vt 0.5 0.0833000019
vt 0.5 0.0938000008
vt 0.5 0.104199998
vt 0.25 0.114600003
vt 0.25 0.125
vt 0.5 0.114600003
vt 0.5 0.125
vt 0.75 0.114600003
vt 0.75 0.104199998
vt 1 0.104199998
vt 1 0.114600003
vt 1 0.125
vt 0.75 0.125
vt 0.75 0.0938000008
vt 0.75 0.0833000019
vt 1 0.0833000019
vt 1 0.0938000008
vt 0.5 0.416700006
vt 1 0.416700006
vt 1 0.333299994
vt 0.5 0.333299994
vt 0 0.333299994
vt -0 0.416700006
vt -0 0.5
vt 0.5 0.5
vt 1 0.5
vt 0.5 0.416700006
vt 1 0.416700006
vt 1 0.333299994
vt 0.5 0.333299994
vt 0 0.333299994
vt 0 0.416700006
vt 0 0.5
vt 0.5 0.5
vt 1 0.5
vt 0.5 0.416700006
vt 1 0.416700006
vt 1 0.333299994
vt 0.5 0.333299994
vt -0 0.333299994
vt -0 0.416700006
vt 0 0.5
vt 0.5 0.5
vt 1 0.5
vt 0.75 0.416700006
vt 0.75 0.333299994
vt 1 0.333299994
vt 1 0.416700006
vt 1 0.5
vt 0.75 0.5
vt 0.5 0.5
vt 0.5 0.416700006
vt 0.5 0.333299994
vt 0.25 0.416700006
vt 0.25 0.333299994
vt 0.25 0.5
vt 0.125 0.0936999992
vt 0.125 0.104199998
vt 0 0.104199998
vt 0 0.0936999992
vt 0.0313000008 0.0859000012
vt 0.125 0.0833000019
vt 0.25 0.0833000019
vt 0.25 0.0938000008
vt 0.25 0.104199998
vt 0.375 0.0938000008
vt 0.375 0.104199998
vt 0.375 0.0833000019
vt 0.5 0.0833000019
vt 0.5 0.0938000008
vt 0.5 0.104199998
vt 0.125 0.114600003
vt 0.25 0.114600003
vt 0.25 0.125
vt 0.125 0.125
vt 0 0.125
vt 0 0.114600003
vt 0.375 0.114600003
vt 0.5 0.114600003
vt 0.5 0.125
vt 0.375 0.125
vt 0.125 0.416700006
vt 0.125 0.333299994
vt 0.25 0.333299994
vt 0.25 0.416700006
vt 0.25 0.5
vt 0.125 0.5
vt 0.0313000008 0.479200006
vt 0 0.416700006
vt 0 0.333299994
vt 0.375 0.416700006
vt 0.375 0.333299994
vt 0.5 0.333299994
vt 0.5 0.416700006
vt 0.5 0.5
vt 0.375 0.5
vt 0.281199992 0.114600003
vt 0.281199992 0.125
vt 0.3125 0.125
vt 0.3125 0.114600003
vt 0.3125 0.104199998
vt 0.281199992 0.104199998
vt 0.25 0.104199998
vt 0.25 0.114600003
vt 0.25 0.125
vt 0.343699992 0.114600003
vt 0.343699992 0.125
vt 0.375 0.125
vt 0.375 0.114600003
vt 0.375 0.104199998
vt 0.343699992 0.104199998
vt 0.281199992 0.0938000008
vt 0.3125 0.0938000008
vt 0.3125 0.0833000019
vt 0.281199992 0.0833000019
vt 0.257800013 0.0859000012
vt 0.25 0.0938000008
vt 0.343699992 0.0938000008
vt 0.343699992 0.0833000019
vt 0.375 0.0938000008
vt 0.375 0.0833000019
vt 0.343800008 0.416700006
vt 0.343800008 0.333299994
vt 0.3125 0.333299994
vt 0.3125 0.416700006
vt 0.3125 0.5
vt 0.343800008 0.5
vt 0.375 0.5
vt 0.375 0.416700006
vt 0.375 0.333299994
vt 0.281300008 0.416700006
vt 0.281300008 0.333299994
vt 0.25 0.333299994
vt 0.25 0.416700006
vt 0.257800013 0.479200006
vt 0.281300008 0.5
vt 0.5 0.114600003
vt 0 0.114600003
vt 0 0.104199998
vt 0.5 0.104199998
vt 1 0.104199998
vt 1 0.114600003
vt 1 0.125
vt 0.5 0.125
vt 0 0.125
vt 0.5 0.0936999992
vt 0 0.0938000008
vt 0 0.0833000019
vt 0.5 0.0833000019
vt 1 0.0833000019
vt 1 0.0936999992
vt 0.5 0.0936999992
vt 1 0.0938000008
vt 1 0.104199998
vt 0.5 0.104199998
vt -0 0.104199998
vt -0 0.0936999992
vt -0 0.0833000019
vt 0.5 0.0833000019
vt 1 0.0833000019
vt 0.5 0.114600003
vt 1 0.114600003
vt 1 0.125
vt 0.5 0.125
vt -0 0.125
vt -0 0.114600003
vt 0.5 0.0938000008
vt 1 0.0938000008
vt 1 0.104199998
vt 0.5 0.104199998
vt 0 0.104199998
vt 0 0.0938000008
vt 0 0.0833000019
vt 0.5 0.0833000019
vt 1 0.0833000019
vt 0.5 0.114600003
vt 1 0.114600003
vt 1 0.125
vt 0.5 0.125
vt 0 0.125
vt 0 0.114600003
vt 0.25 0.0938000008
vt 0.25 0.104199998
vt 0.5 0.104199998
vt 0.5 0.0938000008
vt 0.5 0.0833000019
vt 0.25 0.0833000019
vt 0.25 0.114600003
vt 0.25 0.125
vt 0.5 0.125
vt 0.5 0.114600003
vt 0.75 0.114600003
vt 1 0.114600003
vt 1 0.104199998
vt 0.75 0.104199998
vt 0.75 0.125
vt 1 0.125
vt 0.75 0.0938000008
vt 1 0.0938000008
vt 1 0.0833000019
vt 0.75 0.0833000019
vt 0.5 0.416700006
vt 0.5 0.333299994
vt 1 0.333299994
vt 1 0.416700006
vt 1 0.5
vt 0.5 0.5
vt -0 0.5
vt -0 0.416700006
vt 0 0.333299994
vt 0.5 0.416700006
vt 0.5 0.333299994
vt 1 0.333299994
vt 1 0.416700006
vt 1 0.5
vt 0.5 0.5
vt 0 0.5
vt 0 0.416700006
vt 0 0.333299994
vt 0.5 0.416700006
vt 0.5 0.333299994
vt 1 0.333299994
vt 1 0.416700006
vt 1 0.5
vt 0.5 0.5
vt 0 0.5
vt -0 0.416700006
vt -0 0.333299994
vt 0.75 0.416700006
vt 1 0.416700006
vt 1 0.333299994
vt 0.75 0.333299994
vt 0.5 0.333299994
vt 0.5 0.416700006
vt 0.5 0.5
vt 0.75 0.5
vt 1 0.5
vt 0.25 0.416700006
vt 0.25 0.333299994
vt 0.25 0.5
vn -0.0410999991 0.994799972 0.0934000015
vn -0.0408999994 0.995000005 0.0913000032
vn -0.0388999991 0.995000005 0.0914999992
vn -0.0390000008 0.994799972 0.0935999975
vn -0.0390999988 0.993799984 0.103699997
vn -0.0414000005 0.993799984 0.103299998
vn -0.0428000018 0.993700027 0.103799999
vn -0.0425999984 0.994599998 0.0944999978
vn -0.0421000011 0.994899988 0.0912000015
vn -0.0417000018 0.991400003 0.124200001
vn -0.0394000001 0.991400003 0.124700002
vn -0.0397999994 0.987800002 0.150299996
vn -0.0417999998 0.987800002 0.149700001
vn -0.0430000015 0.987500012 0.151700005
vn -0.0430000015 0.991100013 0.125599995
vn -0.0395000018 0.957499981 0.28580001
vn -0.0395999998 0.95660001 0.288700014
vn -0.0392999984 0.953800023 0.297699988
vn -0.0370999984 0.831799984 0.55369997
vn -0.0384000018 0.835600019 0.547900021
vn -0.0395000018 0.838400006 0.543600023
vn -0.0395999998 0.954599977 0.295100003
vn -0.0392999984 0.950999975 0.306699991
vn -0.0392000005 0.843800008 0.535099983
vn -0.0381000005 0.846400023 0.531199992
vn -0.0362999998 0.769500017 0.637600005
vn -0.0395000018 0.773800015 0.632200003
vn -0.0395000018 0.838400006 0.543600023
vn -0.0384000018 0.835600019 0.547900021
vn -0.0370999984 0.831799984 0.55369997
vn -0.0331000015 0.76819998 0.639299989
vn -0.0311999992 0.757300019 0.652400017
vn -0.0372000001 0.758400023 0.650600016
vn -0.0397999994 0.762300014 0.646000028
vn -0.0390999988 0.782199979 0.621800005
vn -0.0370000005 0.787100017 0.615700006
vn -0.0381000005 0.846400023 0.531199992
vn -0.0392000005 0.843800008 0.535099983
vn -0.0395999998 0.770600021 0.636099994
vn -0.0373000018 0.776499987 0.629000008
vn -0.0218000002 0.958400011 0.284500003
vn -0.0219000001 0.958800018 0.283100009
vn -0.0157999992 0.898000002 0.439599991
vn -0.0157999992 0.897899985 0.439900011
vn -0.0153999999 0.893999994 0.447699994
vn -0.0209999997 0.951799989 0.305999994
vn -0.0258000009 0.985300004 0.168799996
vn -0.0259000007 0.985400021 0.168500006
vn -0.0259000007 0.985599995 0.167099997
vn -0.0222999994 0.959500015 0.280600011
vn -0.0232999995 0.959999979 0.278800011
vn -0.0187999997 0.89319998 0.449299991
vn -0.0165999997 0.897400022 0.440800011
vn -0.0261000004 0.986199975 0.163100004
vn -0.0264999997 0.987699986 0.153699994
vn -0.0261000004 0.985300004 0.168599993
vn -0.0262000002 0.985599995 0.167199999
vn -0.0261000004 0.985300004 0.168899998
vn -0.0262000002 0.985300004 0.168899998
vn -0.0263 0.985400021 0.168500006
vn -0.0263 0.985599995 0.167099997
vn -0.0264999997 0.986199975 0.163200006
vn -0.0267999992 0.986299992 0.162799999
vn -0.0280000009 0.987800002 0.153099999
vn -0.0273000002 0.987699986 0.153899997
vn -0.0148 0.868799984 0.494800001
vn -0.0137999998 0.871200025 0.490700006
vn -0.0157999992 0.898000002 0.439599991
vn -0.0165999997 0.897400022 0.440800011
vn -0.0187999997 0.89319998 0.449299991
vn -0.0177999996 0.861000001 0.50819999
vn -0.0176999997 0.856700003 0.515500009
vn -0.0143999998 0.864499986 0.502399981
vn -0.0136000002 0.86680001 0.498299986
vn -0.0137999998 0.871599972 0.489899993
vn -0.0137 0.870999992 0.490999997
vn -0.0153999999 0.893999994 0.447699994
vn -0.0157999992 0.897899985 0.439900011
vn -0.0136000002 0.867299974 0.497599989
vn -0.0136000002 0.867399991 0.497299999
vn -0.0410000011 0.955799997 0.290899992
vn -0.0432999991 0.988099992 0.147599995
vn -0.0432999991 0.986299992 0.158999994
vn -0.0412000008 0.952799976 0.300900012
vn -0.0362999998 0.864799976 0.500800014
vn -0.0355999991 0.870800018 0.490200013
vn -0.0337999985 0.872399986 0.487599999
vn -0.0392999984 0.957599998 0.2852
vn -0.0417000018 0.989499986 0.1382
vn -0.0427000001 0.988099992 0.147699997
vn -0.0423000008 0.988099992 0.147599995
vn -0.0419000015 0.986400008 0.158800006
vn -0.0423999988 0.986299992 0.159099996
vn -0.0410999991 0.989499986 0.1382
vn -0.0406999998 0.989600003 0.138099998
vn -0.0381999984 0.990700006 0.130500004
vn -0.0386000015 0.990700006 0.130500004
vn -0.0335000008 0.99089998 0.129899994
vn -0.0339000002 0.99089998 0.129899994
vn -0.0342000015 0.99089998 0.129899994
vn -0.0379999988 0.990700006 0.130400002
vn -0.0406999998 0.989600003 0.138099998
vn -0.0410999991 0.989499986 0.1382
vn -0.0417000018 0.989499986 0.1382
vn -0.0362000018 0.958999991 0.280800015
vn -0.0308999997 0.873099983 0.486499995
vn -0.0266999993 0.876800001 0.480100006
vn -0.0310999993 0.960099995 0.27790001
vn -0.0392999984 0.957599998 0.2852
vn -0.0337999985 0.872399986 0.487599999
vn -0.0296 0.989700019 0.140000001
vn -0.0285999998 0.989700019 0.139899999
vn -0.0264999997 0.987699986 0.153699994
vn -0.0273000002 0.987699986 0.153899997
vn -0.0280000009 0.987800002 0.153099999
vn -0.0304000005 0.989700019 0.139500007
vn -0.0342000015 0.99089998 0.129899994
vn -0.0339000002 0.99089998 0.129899994
vn -0.0335000008 0.99089998 0.129899994
vn -0.0260000005 0.960300028 0.27759999
vn -0.0221999995 0.884800017 0.46540001
vn -0.0187999997 0.89319998 0.449299991
vn -0.0232999995 0.959999979 0.278800011
vn -0.0310999993 0.960099995 0.27790001
vn -0.0266999993 0.876800001 0.480100006
vn -0.0416000001 0.984300017 0.171599999
vn -0.0423999988 0.984300017 0.171499997
vn -0.0410999991 0.984399974 0.171100006
vn -0.0412999988 0.983200014 0.177499995
vn -0.0414000005 0.983200014 0.177499995
vn -0.0414000005 0.983200014 0.177499995
vn -0.0406000018 0.948199987 0.314999998
vn -0.0361000001 0.853399992 0.519999981
vn -0.0397999994 0.945100009 0.324299991
vn -0.0359999985 0.843900025 0.535300016
vn -0.0392000005 0.94660002 0.319999993
vn -0.0403000005 0.984600008 0.170200005
vn -0.0397999994 0.987800002 0.150299996
vn -0.0392999984 0.950999975 0.306699991
vn -0.0381000005 0.846400023 0.531199992
vn -0.0366999991 0.843500018 0.53579998
vn -0.0417000018 0.984600008 0.169799998
vn -0.0423000008 0.984300017 0.171100006
vn -0.0430000015 0.987500012 0.151700005
vn -0.0417999998 0.987800002 0.149700001
vn -0.0333999991 0.826799989 0.561399996
vn -0.0313000008 0.829100013 0.558200002
vn -0.0337999985 0.872399986 0.487599999
vn -0.0355999991 0.870800018 0.490200013
vn -0.0362999998 0.864799976 0.500800014
vn -0.0346999988 0.817900002 0.574400008
vn -0.0351000018 0.808600008 0.587199986
vn -0.0333000012 0.819000006 0.572799981
vn -0.0308999997 0.82160002 0.569100022
vn -0.0285999998 0.829999983 0.556900024
vn -0.0253999997 0.835399985 0.549000025
vn -0.0266999993 0.876800001 0.480100006
vn -0.0308999997 0.873099983 0.486499995
vn -0.0337999985 0.872399986 0.487599999
vn -0.0313000008 0.829100013 0.558200002
vn -0.0308999997 0.82160002 0.569100022
vn -0.0283000004 0.822700024 0.567700028
vn -0.0254999995 0.828400016 0.559499979
vn -0.0217000004 0.847599983 0.530200005
vn -0.0177999996 0.861000001 0.50819999
vn -0.0187999997 0.89319998 0.449299991
vn -0.0221999995 0.884800017 0.46540001
vn -0.0266999993 0.876800001 0.480100006
vn -0.0253999997 0.835399985 0.549000025
vn -0.0254999995 0.828400016 0.559499979
vn -0.0219999999 0.842000008 0.538999975
vn -0.0176999997 0.856700003 0.515500009
vn -0.0348000005 0.784500003 0.619099975
vn -0.0366999991 0.843500018 0.53579998
vn -0.0381000005 0.846400023 0.531199992
vn -0.0370000005 0.787100017 0.615700006
vn -0.0373000018 0.776499987 0.629000008
vn -0.0344000012 0.774399996 0.631699979
vn -0.0342000015 0.774900019 0.631099999
vn -0.0344999991 0.786199987 0.616900027
vn -0.0359999985 0.843900025 0.535300016
vn -0.0348999985 0.800899982 0.597800016
vn -0.0361000001 0.853399992 0.519999981
vn -0.0353999995 0.789699972 0.612399995
vn -0.0410999991 0.994799972 -0.0934000015
vn -0.0390000008 0.994799972 -0.0935999975
vn -0.0388999991 0.995000005 -0.0914999992
vn -0.0408999994 0.995000005 -0.0913000032
vn -0.0421000011 0.994899988 -0.0912000015
vn -0.0425999984 0.994599998 -0.0944999978
vn -0.0428000018 0.993700027 -0.103799999
vn -0.0414000005 0.993799984 -0.103399999
vn -0.0390999988 0.993799984 -0.103699997
vn -0.0417000018 0.991400003 -0.124200001
vn -0.0394000001 0.991400003 -0.124700002
vn -0.0430000015 0.991100013 -0.125599995
vn -0.0430000015 0.987500012 -0.151700005
vn -0.0417999998 0.987800002 -0.149700001
vn -0.0397999994 0.987800002 -0.150299996
vn -0.0395000018 0.957499981 -0.28580001
vn -0.0395999998 0.95660001 -0.288700014
vn -0.0395000018 0.838400006 -0.543600023
vn -0.0384000018 0.835699975 -0.547900021
vn -0.0370999984 0.831799984 -0.55369997
vn -0.0392999984 0.953800023 -0.297699988
vn -0.0395999998 0.954599977 -0.295100003
vn -0.0392999984 0.950999975 -0.306699991
vn -0.0381000005 0.846400023 -0.531199992
vn -0.0392000005 0.843800008 -0.535099983
vn -0.0362999998 0.769500017 -0.637600005
vn -0.0384000018 0.835699975 -0.547900021
vn -0.0395000018 0.838400006 -0.543600023
vn -0.0395000018 0.773800015 -0.632200003
vn -0.0397999994 0.762300014 -0.646000028
vn -0.0372000001 0.758400023 -0.650600016
vn -0.0311999992 0.757300019 -0.652400017
vn -0.0331000015 0.76819998 -0.639299989
vn -0.0370999984 0.831799984 -0.55369997
vn -0.0390999988 0.782199979 -0.621800005
vn -0.0392000005 0.843800008 -0.535099983
vn -0.0381000005 0.846400023 -0.531199992
vn -0.0370000005 0.787100017 -0.615700006
vn -0.0373000018 0.776499987 -0.629000008
vn -0.0395999998 0.770600021 -0.636099994
vn -0.0218000002 0.958400011 -0.284500003
vn -0.0157999992 0.897899985 -0.439900011
vn -0.0157999992 0.898000002 -0.439599991
vn -0.0219000001 0.958800018 -0.283100009
vn -0.0259000007 0.985599995 -0.167099997
vn -0.0259000007 0.985400021 -0.168500006
vn -0.0258000009 0.985300004 -0.168799996
vn -0.0209999997 0.951799989 -0.305999994
vn -0.0153999999 0.893999994 -0.447699994
vn -0.0222999994 0.959500015 -0.280600011
vn -0.0165999997 0.897400022 -0.440800011
vn -0.0187999997 0.89319998 -0.449299991
vn -0.0232999995 0.959999979 -0.278800011
vn -0.0264999997 0.987699986 -0.153699994
vn -0.0261000004 0.986199975 -0.163100004
vn -0.0261000004 0.985300004 -0.168599993
vn -0.0262000002 0.985599995 -0.167199999
vn -0.0263 0.985599995 -0.167099997
vn -0.0263 0.985400021 -0.168500006
vn -0.0262000002 0.985300004 -0.168899998
vn -0.0261000004 0.985300004 -0.168899998
vn -0.0264999997 0.986199975 -0.163200006
vn -0.0267999992 0.986299992 -0.162799999
vn -0.0273000002 0.987699986 -0.153899997
vn -0.0280000009 0.987800002 -0.153099999
vn -0.0148 0.868799984 -0.494800001
vn -0.0165999997 0.897400022 -0.440800011
vn -0.0157999992 0.898000002 -0.439599991
vn -0.0137999998 0.871200025 -0.490700006
vn -0.0136000002 0.86680001 -0.498299986
vn -0.0143999998 0.864499986 -0.502399981
vn -0.0176999997 0.856700003 -0.515500009
vn -0.0177999996 0.861000001 -0.50819999
vn -0.0187999997 0.89319998 -0.449299991
vn -0.0137999998 0.871599972 -0.489899993
vn -0.0157999992 0.897899985 -0.439900011
vn -0.0153999999 0.893999994 -0.447699994
vn -0.0137 0.870999992 -0.490999997
vn -0.0136000002 0.867399991 -0.497299999
vn -0.0136000002 0.867299974 -0.497599989
vn -0.0410000011 0.955799997 -0.290899992
vn -0.0412000008 0.952799976 -0.300900012
vn -0.0432999991 0.986299992 -0.158999994
vn -0.0432999991 0.988099992 -0.147599995
vn -0.0417000018 0.989499986 -0.1382
vn -0.0392999984 0.957599998 -0.2852
vn -0.0337999985 0.872399986 -0.487599999
vn -0.0355999991 0.870800018 -0.490200013
vn -0.0362999998 0.864799976 -0.500800014
vn -0.0427000001 0.988099992 -0.147699997
vn -0.0423999988 0.986299992 -0.159099996
vn -0.0419000015 0.986400008 -0.158800006
vn -0.0423000008 0.988099992 -0.147599995
vn -0.0406999998 0.989600003 -0.138099998
vn -0.0410999991 0.989499986 -0.1382
vn -0.0381999984 0.990700006 -0.130500004
vn -0.0339000002 0.99089998 -0.129899994
vn -0.0335000008 0.99089998 -0.129899994
vn -0.0386000015 0.990700006 -0.130500004
vn -0.0417000018 0.989499986 -0.1382
vn -0.0410999991 0.989499986 -0.1382
vn -0.0406999998 0.989600003 -0.138099998
vn -0.0379999988 0.990700006 -0.130400002
vn -0.0342000015 0.99089998 -0.129899994
vn -0.0362000018 0.958999991 -0.280800015
vn -0.0310999993 0.960099995 -0.27790001
vn -0.0266999993 0.876800001 -0.480100006
vn -0.0308999997 0.873099983 -0.486499995
vn -0.0337999985 0.872399986 -0.487599999
vn -0.0392999984 0.957599998 -0.2852
vn -0.0296 0.989700019 -0.140000001
vn -0.0273000002 0.987699986 -0.153899997
vn -0.0264999997 0.987699986 -0.153699994
vn -0.0285999998 0.989700019 -0.139899999
vn -0.0335000008 0.99089998 -0.129899994
vn -0.0339000002 0.99089998 -0.129899994
vn -0.0342000015 0.99089998 -0.129899994
vn -0.0304000005 0.989700019 -0.139500007
vn -0.0280000009 0.987800002 -0.153099999
vn -0.0260000005 0.960300028 -0.27759999
vn -0.0232999995 0.959999979 -0.278800011
vn -0.0187999997 0.89319998 -0.449299991
vn -0.0221999995 0.884800017 -0.46540001
vn -0.0266999993 0.876800001 -0.480100006
vn -0.0310999993 0.960099995 -0.27790001
vn -0.0416000001 0.984300017 -0.171599999
vn -0.0423999988 0.984300017 -0.171499997
vn -0.0414000005 0.983200014 -0.177499995
vn -0.0414000005 0.983200014 -0.177499995
vn -0.0412999988 0.983200014 -0.177499995
vn -0.0410999991 0.984399974 -0.171100006
vn -0.0406000018 0.948199987 -0.314999998
vn -0.0361000001 0.853399992 -0.519999981
vn -0.0359999985 0.843900025 -0.535300016
vn -0.0397999994 0.945100009 -0.324299991
vn -0.0392000005 0.94660002 -0.319999993
vn -0.0392999984 0.950999975 -0.306699991
vn -0.0397999994 0.987800002 -0.150299996
vn -0.0403000005 0.984600008 -0.170200005
vn -0.0366999991 0.843500018 -0.53579998
vn -0.0381000005 0.846400023 -0.531199992
vn -0.0417000018 0.984600008 -0.169799998
vn -0.0417999998 0.987800002 -0.149700001
vn -0.0430000015 0.987500012 -0.151700005
vn -0.0423000008 0.984300017 -0.171100006
vn -0.0333999991 0.826799989 -0.561399996
vn -0.0355999991 0.870800018 -0.490200013
vn -0.0337999985 0.872399986 -0.487599999
vn -0.0313000008 0.829100013 -0.558200002
vn -0.0308999997 0.82160002 -0.569100022
vn -0.0333000012 0.819000006 -0.572799981
vn -0.0351000018 0.808600008 -0.587199986
vn -0.0346999988 0.817900002 -0.574400008
vn -0.0362999998 0.864799976 -0.500800014
vn -0.0285999998 0.829999983 -0.556900024
vn -0.0308999997 0.873099983 -0.486499995
vn -0.0266999993 0.876800001 -0.480100006
vn -0.0253999997 0.835399985 -0.549000025
vn -0.0254999995 0.828400016 -0.559499979
vn -0.0283000004 0.822700024 -0.567700028
vn -0.0308999997 0.82160002 -0.569100022
vn -0.0313000008 0.829100013 -0.558200002
vn -0.0337999985 0.872399986 -0.487599999
vn -0.0217000004 0.847599983 -0.530200005
vn -0.0221999995 0.884800017 -0.46540001
vn -0.0187999997 0.89319998 -0.449299991
vn -0.0177999996 0.861000001 -0.50819999
vn -0.0176999997 0.856700003 -0.515500009
vn -0.0219999999 0.842000008 -0.538999975
vn -0.0254999995 0.828400016 -0.559499979
vn -0.0253999997 0.835399985 -0.549000025
vn -0.0266999993 0.876800001 -0.480100006
vn -0.0348000005 0.784500003 -0.619099975
vn -0.0370000005 0.787100017 -0.615700006
vn -0.0381000005 0.846400023 -0.531199992
vn -0.0366999991 0.843500018 -0.53579998
vn -0.0359999985 0.843900025 -0.535300016
vn -0.0344999991 0.786199987 -0.616900027
vn -0.0342000015 0.774900019 -0.631099999
vn -0.0344000012 0.774399996 -0.631699979
vn -0.0373000018 0.776499987 -0.629000008
vn -0.0348999985 0.800899982 -0.597800016
vn -0.0361000001 0.853399992 -0.519999981
vn -0.0353999995 0.789699972 -0.612399995
f 1/1/1 2/2/2 3/3/3
f 1/1/1 3/3/3 4/4/4
f 1/1/1 4/4/4 5/5/5
f 1/1/1 5/5/5 6/6/6
f 1/1/1 6/6/6 7/7/7
f 1/1/1 7/7/7 8/8/8
f 1/1/1 8/8/8 9/9/9
f 1/1/1 9/9/9 2/2/2
f 10/10/10 6/6/6 5/5/5
f 10/10/10 5/5/5 11/11/11
f 10/10/10 11/11/11 12/12/12
f 10/10/10 12/12/12 13/13/13
f 10/10/10 13/13/13 14/14/14
f 10/10/10 14/14/14 15/15/15
f 10/10/10 15/15/15 7/7/7
f 10/10/10 7/7/7 6/6/6
f 16/16/16 17/17/17 5/5/5
f 16/16/16 5/5/5 4/4/4
f 16/16/16 4/4/4 3/3/3
f 16/16/16 3/3/3 18/18/18
f 16/16/16 18/18/18 19/19/19
f 16/16/16 19/19/19 20/20/20
f 16/16/16 20/20/20 21/21/21
f 16/16/16 21/21/21 17/17/17
f 22/22/22 23/23/23 12/12/12
f 22/22/22 12/12/12 11/11/11
f 22/22/22 11/11/11 5/5/5
f 22/22/22 5/5/5 17/17/17
f 22/22/22 17/17/17 21/21/21
f 22/22/22 21/21/21 24/24/24
f 22/22/22 24/24/24 25/25/25
f 22/22/22 25/25/25 23/23/23
f 26/26/26 27/27/27 28/28/28
f 26/26/26 28/28/28 29/29/29
f 26/26/26 29/29/29 30/30/30
f 26/26/26 30/30/30 31/31/31
f 26/26/26 31/31/31 32/32/32
f 26/26/26 32/32/32 33/33/33
f 26/26/26 33/33/33 34/34/34
f 26/26/26 34/34/34 27/27/27
f 35/35/35 36/36/36 37/37/37
f 35/35/35 37/37/37 38/38/38
f 35/35/35 38/38/38 28/28/28
f 35/35/35 28/28/28 27/27/27
f 35/35/35 27/27/27 34/34/34
f 35/35/35 34/34/34 39/39/39
f 35/35/35 39/39/39 40/40/40
f 35/35/35 40/40/40 36/36/36
f 41/41/41 42/42/42 43/43/43
f 41/41/41 43/43/43 44/44/44
f 41/41/41 44/44/44 45/45/45
f 41/41/41 45/45/45 46/46/46
f 41/41/41 46/46/46 47/47/47
f 41/41/41 47/47/47 48/48/48
f 41/41/41 48/48/48 49/49/49
f 41/41/41 49/49/49 42/42/42
f 50/50/50 51/51/51 52/52/52
f 50/50/50 52/52/52 53/53/53
f 50/50/50 53/53/53 43/43/43
f 50/50/50 43/43/43 42/42/42
f 50/50/50 42/42/42 49/49/49
f 50/50/50 49/49/49 54/54/54
f 50/50/50 54/54/54 55/55/55
f 50/50/50 55/55/55 51/51/51
f 56/56/56 57/57/57 49/49/49
f 56/56/56 49/49/49 48/48/48
f 56/56/56 48/48/48 47/47/47
f 56/56/56 47/47/47 58/58/58
f 56/56/56 58/58/58 59/59/59
f 56/56/56 59/59/59 60/60/60
f 56/56/56 60/60/60 61/61/61
f 56/56/56 61/61/61 57/57/57
f 62/62/62 57/57/57 61/61/61
f 62/62/62 61/61/61 63/63/63
f 62/62/62 63/63/63 64/64/64
f 62/62/62 64/64/64 65/65/65
f 62/62/62 65/65/65 55/55/55
f 62/62/62 55/55/55 54/54/54
f 62/62/62 54/54/54 49/49/49
f 62/62/62 49/49/49 57/57/57
f 66/66/66 67/67/67 68/68/68
f 66/66/66 68/68/68 69/69/69
f 66/66/66 69/69/69 70/70/70
f 66/66/66 70/70/70 71/71/71
f 66/66/66 71/71/71 72/72/72
f 66/66/66 72/72/72 73/73/73
f 66/66/66 73/73/73 74/74/74
f 66/66/66 74/74/74 67/67/67
f 75/75/75 76/76/76 77/77/77
f 75/75/75 77/77/77 78/78/78
f 75/75/75 78/78/78 68/68/68
f 75/75/75 68/68/68 67/67/67
f 75/75/75 67/67/67 74/74/74
f 75/75/75 74/74/74 79/79/79
f 75/75/75 79/79/79 80/80/80
f 75/75/75 80/80/80 76/76/76
f 81/81/81 82/82/82 83/83/83
f 81/81/81 83/83/83 84/84/84
f 81/81/81 84/84/84 85/85/85
f 81/81/81 85/85/85 86/86/86
f 81/81/81 86/86/86 87/87/87
f 81/81/81 87/87/87 88/88/88
f 81/81/81 88/88/88 89/89/89
f 81/81/81 89/89/89 82/82/82
f 90/90/90 91/91/91 92/92/92
f 90/90/90 92/92/92 93/93/93
f 90/90/90 93/93/93 83/83/83
f 90/90/90 83/83/83 82/82/82
f 90/90/90 82/82/82 89/89/89
f 90/90/90 89/89/89 94/94/94
f 90/90/90 94/94/94 95/95/95
f 90/90/90 95/95/95 91/91/91
f 96/96/96 97/97/97 98/98/98
f 96/96/96 98/98/98 99/99/99
f 96/96/96 99/99/99 100/100/100
f 96/96/96 100/100/100 101/101/101
f 96/96/96 101/101/101 102/102/102
f 96/96/96 102/102/102 103/103/103
f 96/96/96 103/103/103 104/104/104
f 96/96/96 104/104/104 97/97/97
f 105/105/105 106/106/106 107/107/107
f 105/105/105 107/107/107 108/108/108
f 105/105/105 108/108/108 98/98/98
f 105/105/105 98/98/98 97/97/97
f 105/105/105 97/97/97 104/104/104
f 105/105/105 104/104/104 109/109/109
f 105/105/105 109/109/109 110/110/110
f 105/105/105 110/110/110 106/106/106
f 111/111/111 112/112/112 113/113/113
f 111/111/111 113/113/113 114/114/114
f 111/111/111 114/114/114 115/115/115
f 111/111/111 115/115/115 116/116/116
f 111/111/111 116/116/116 117/117/117
f 111/111/111 117/117/117 118/118/118
f 111/111/111 118/118/118 119/119/119
f 111/111/111 119/119/119 112/112/112
f 120/120/120 121/121/121 122/122/122
f 120/120/120 122/122/122 123/123/123
f 120/120/120 123/123/123 113/113/113
f 120/120/120 113/113/113 112/112/112
f 120/120/120 112/112/112 119/119/119
f 120/120/120 119/119/119 124/124/124
f 120/120/120 124/124/124 125/125/125
f 120/120/120 125/125/125 121/121/121
f 126/126/126 127/127/127 83/83/83
f 126/126/126 83/83/83 93/93/93
f 126/126/126 93/93/93 92/92/92
f 126/126/126 92/92/92 128/128/128
f 126/126/126 128/128/128 129/129/129
f 126/126/126 129/129/129 130/130/130
f 126/126/126 130/130/130 131/131/131
f 126/126/126 131/131/131 127/127/127
f 132/132/132 133/133/133 85/85/85
f 132/132/132 85/85/85 84/84/84
f 132/132/132 84/84/84 83/83/83
f 132/132/132 83/83/83 127/127/127
f 132/132/132 127/127/127 131/131/131
f 132/132/132 131/131/131 134/134/134
f 132/132/132 134/134/134 135/135/135
f 132/132/132 135/135/135 133/133/133
f 136/136/136 137/137/137 138/138/138
f 136/136/136 138/138/138 139/139/139
f 136/136/136 139/139/139 140/140/140
f 136/136/136 140/140/140 141/141/141
f 136/136/136 141/141/141 135/135/135
f 136/136/136 135/135/135 134/134/134
f 136/136/136 134/134/134 131/131/131
f 136/136/136 131/131/131 137/137/137
f 142/142/142 143/143/143 144/144/144
f 142/142/142 144/144/144 145/145/145
f 142/142/142 145/145/145 138/138/138
f 142/142/142 138/138/138 137/137/137
f 142/142/142 137/137/137 131/131/131
f 142/142/142 131/131/131 130/130/130
f 142/142/142 130/130/130 129/129/129
f 142/142/142 129/129/129 143/143/143
f 146/146/146 147/147/147 148/148/148
f 146/146/146 148/148/148 149/149/149
f 146/146/146 149/149/149 150/150/150
f 146/146/146 150/150/150 151/151/151
f 146/146/146 151/151/151 152/152/152
f 146/146/146 152/152/152 153/153/153
f 146/146/146 153/153/153 154/154/154
f 146/146/146 154/154/154 147/147/147
f 155/155/155 156/156/156 157/157/157
f 155/155/155 157/157/157 158/158/158
f 155/155/155 158/158/158 159/159/159
f 155/155/155 159/159/159 160/160/160
f 155/155/155 160/160/160 161/161/161
f 155/155/155 161/161/161 162/162/162
f 155/155/155 162/162/162 163/163/163
f 155/155/155 163/163/163 156/156/156
f 164/164/164 165/165/165 166/166/166
f 164/164/164 166/166/166 167/167/167
f 164/164/164 167/167/167 168/168/168
f 164/164/164 168/168/168 169/169/169
f 164/164/164 169/169/169 170/170/170
f 164/164/164 170/170/170 171/171/171
f 164/164/164 171/171/171 172/172/172
f 164/164/164 172/172/172 165/165/165
f 173/173/173 174/174/174 175/175/175
f 173/173/173 175/175/175 176/176/176
f 173/173/173 176/176/176 177/177/177
f 173/173/173 177/177/177 178/178/178
f 173/173/173 178/178/178 179/179/179
f 173/173/173 179/179/179 180/180/180
f 173/173/173 180/180/180 181/181/181
f 173/173/173 181/181/181 174/174/174
f 182/182/182 183/183/183 181/181/181
f 182/182/182 181/181/181 180/180/180
f 182/182/182 180/180/180 179/179/179
f 182/182/182 179/179/179 184/184/184
f 182/182/182 184/184/184 152/152/152
f 182/182/182 152/152/152 151/151/151
f 182/182/182 151/151/151 150/150/150
f 182/182/182 150/150/150 183/183/183
f 185/185/185 186/186/186 187/187/187
f 185/185/185 187/187/187 188/188/188
f 185/185/185 188/188/188 189/189/189
f 185/185/185 189/189/189 190/190/190
f 185/185/185 190/190/190 191/191/191
f 185/185/185 191/191/191 192/192/192
f 185/185/185 192/192/192 193/193/193
f 185/185/185 193/193/193 186/186/186
f 194/194/194 195/195/195 193/193/193
f 194/194/194 193/193/193 192/192/192
f 194/194/194 192/192/192 191/191/191
f 194/194/194 191/191/191 196/196/196
f 194/194/194 196/196/196 197/197/197
f 194/194/194 197/197/197 198/198/198
f 194/194/194 198/198/198 199/199/199
f 194/194/194 199/199/199 195/195/195
f 200/200/200 186/186/186 193/193/193
f 200/200/200 193/193/193 201/201/201
f 200/200/200 201/201/201 202/202/202
f 200/200/200 202/202/202 203/203/203
f 200/200/200 203/203/203 204/204/204
f 200/200/200 204/204/204 205/205/205
f 200/200/200 205/205/205 187/187/187
f 200/200/200 187/187/187 186/186/186
f 206/206/206 195/195/195 199/199/199
f 206/206/206 199/199/199 207/207/207
f 206/206/206 207/207/207 208/208/208
f 206/206/206 208/208/208 209/209/209
f 206/206/206 209/209/209 202/202/202
f 206/206/206 202/202/202 201/201/201
f 206/206/206 201/201/201 193/193/193
f 206/206/206 193/193/193 195/195/195
f 210/210/210 211/211/211 212/212/212
f 210/210/210 212/212/212 213/213/213
f 210/210/210 213/213/213 214/214/214
f 210/210/210 214/214/214 215/215/215
f 210/210/210 215/215/215 216/216/216
f 210/210/210 216/216/216 217/217/217
f 210/210/210 217/217/217 218/218/218
f 210/210/210 218/218/218 211/211/211
f 219/219/219 220/220/220 221/221/221
f 219/219/219 221/221/221 222/222/222
f 219/219/219 222/222/222 223/223/223
f 219/219/219 223/223/223 224/224/224
f 219/219/219 224/224/224 214/214/214
f 219/219/219 214/214/214 213/213/213
f 219/219/219 213/213/213 212/212/212
f 219/219/219 212/212/212 220/220/220
f 225/225/225 226/226/226 227/227/227
f 225/225/225 227/227/227 228/228/228
f 225/225/225 228/228/228 229/229/229
f 225/225/225 229/229/229 230/230/230
f 225/225/225 230/230/230 231/231/231
f 225/225/225 231/231/231 232/232/232
f 225/225/225 232/232/232 233/233/233
f 225/225/225 233/233/233 226/226/226
f 234/234/234 235/235/235 236/236/236
f 234/234/234 236/236/236 237/237/237
f 234/234/234 237/237/237 238/238/238
f 234/234/234 238/238/238 239/239/239
f 234/234/234 239/239/239 229/229/229
f 234/234/234 229/229/229 228/228/228
f 234/234/234 228/228/228 227/227/227
f 234/234/234 227/227/227 235/235/235
f 240/240/240 230/230/230 229/229/229
f 240/240/240 229/229/229 241/241/241
f 240/240/240 241/241/241 242/242/242
f 240/240/240 242/242/242 243/243/243
f 240/240/240 243/243/243 244/244/244
f 240/240/240 244/244/244 245/245/245
f 240/240/240 245/245/245 231/231/231
f 240/240/240 231/231/231 230/230/230
f 246/246/246 247/247/247 242/242/242
f 246/246/246 242/242/242 241/241/241
f 246/246/246 241/241/241 229/229/229
f 246/246/246 229/229/229 239/239/239
f 246/246/246 239/239/239 238/238/238
f 246/246/246 238/238/238 248/248/248
f 246/246/246 248/248/248 249/249/249
f 246/246/246 249/249/249 247/247/247
f 250/250/250 251/251/251 252/252/252
f 250/250/250 252/252/252 253/253/253
f 250/250/250 253/253/253 254/254/254
f 250/250/250 254/254/254 255/255/255
f 250/250/250 255/255/255 256/256/256
f 250/250/250 256/256/256 257/257/257
f 250/250/250 257/257/257 258/258/258
f 250/250/250 258/258/258 251/251/251
f 259/259/259 260/260/260 261/261/261
f 259/259/259 261/261/261 262/262/262
f 259/259/259 262/262/262 263/263/263
f 259/259/259 263/263/263 264/264/264
f 259/259/259 264/264/264 254/254/254
f 259/259/259 254/254/254 253/253/253
f 259/259/259 253/253/253 252/252/252
f 259/259/259 252/252/252 260/260/260
f 265/265/265 266/266/266 267/267/267
f 265/265/265 267/267/267 268/268/268
f 265/265/265 268/268/268 269/269/269
f 265/265/265 269/269/269 270/270/270
f 265/265/265 270/270/270 271/271/271
f 265/265/265 271/271/271 272/272/272
f 265/265/265 272/272/272 273/273/273
f 265/265/265 273/273/273 266/266/266
f 274/274/274 275/275/275 276/276/276
f 274/274/274 276/276/276 277/277/277
f 274/274/274 277/277/277 278/278/278
f 274/274/274 278/278/278 279/279/279
f 274/274/274 279/279/279 269/269/269
f 274/274/274 269/269/269 268/268/268
f 274/274/274 268/268/268 267/267/267
f 274/274/274 267/267/267 275/275/275
f 280/280/280 281/281/281 282/282/282
f 280/280/280 282/282/282 283/283/283
f 280/280/280 283/283/283 284/284/284
f 280/280/280 284/284/284 285/285/285
f 280/280/280 285/285/285 286/286/286
f 280/280/280 286/286/286 287/287/287
f 280/280/280 287/287/287 288/288/288
f 280/280/280 288/288/288 281/281/281
f 289/289/289 290/290/290 291/291/291
f 289/289/289 291/291/291 292/292/292
f 289/289/289 292/292/292 293/293/293
f 289/289/289 293/293/293 294/294/294
f 289/289/289 294/294/294 284/284/284
f 289/289/289 284/284/284 283/283/283
f 289/289/289 283/283/283 282/282/282
f 289/289/289 282/282/282 290/290/290
f 295/295/295 296/296/296 297/297/297
f 295/295/295 297/297/297 298/298/298
f 295/295/295 298/298/298 299/299/299
f 295/295/295 299/299/299 300/300/300
f 295/295/295 300/300/300 301/301/301
f 295/295/295 301/301/301 302/302/302
f 295/295/295 302/302/302 303/303/303
f 295/295/295 303/303/303 296/296/296
f 304/304/304 305/305/305 306/306/306
f 304/304/304 306/306/306 307/307/307
f 304/304/304 307/307/307 308/308/308
f 304/304/304 308/308/308 309/309/309
f 304/304/304 309/309/309 299/299/299
f 304/304/304 299/299/299 298/298/298
f 304/304/304 298/298/298 297/297/297
f 304/304/304 297/297/297 305/305/305
f 310/310/310 275/275/275 267/267/267
f 310/310/310 267/267/267 311/311/311
f 310/310/310 311/311/311 312/312/312
f 310/310/310 312/312/312 313/313/313
f 310/310/310 313/313/313 314/314/314
f 310/310/310 314/314/314 315/315/315
f 310/310/310 315/315/315 276/276/276
f 310/310/310 276/276/276 275/275/275
f 316/316/316 266/266/266 273/273/273
f 316/316/316 273/273/273 317/317/317
f 316/316/316 317/317/317 318/318/318
f 316/316/316 318/318/318 319/319/319
f 316/316/316 319/319/319 312/312/312
f 316/316/316 312/312/312 311/311/311
f 316/316/316 311/311/311 267/267/267
f 316/316/316 267/267/267 266/266/266
f 320/320/320 321/321/321 322/322/322
f 320/320/320 322/322/322 323/323/323
f 320/320/320 323/323/323 312/312/312
f 320/320/320 312/312/312 319/319/319
f 320/320/320 319/319/319 318/318/318
f 320/320/320 318/318/318 324/324/324
f 320/320/320 324/324/324 325/325/325
f 320/320/320 325/325/325 321/321/321
f 326/326/326 327/327/327 328/328/328
f 326/326/326 328/328/328 329/329/329
f 326/326/326 329/329/329 314/314/314
f 326/326/326 314/314/314 313/313/313
f 326/326/326 313/313/313 312/312/312
f 326/326/326 312/312/312 323/323/323
f 326/326/326 323/323/323 322/322/322
f 326/326/326 322/322/322 327/327/327
f 330/330/330 331/331/331 332/332/332
f 330/330/330 332/332/332 333/333/333
f 330/330/330 333/333/333 334/334/334
f 330/330/330 334/334/334 335/335/335
f 330/330/330 335/335/335 336/336/336
f 330/330/330 336/336/336 337/337/337
f 330/330/330 337/337/337 338/338/338
f 330/330/330 338/338/338 331/331/331
f 339/339/339 340/340/340 341/341/341
f 339/339/339 341/341/341 342/342/342
f 339/339/339 342/342/342 343/343/343
f 339/339/339 343/343/343 344/344/344
f 339/339/339 344/344/344 345/345/345
f 339/339/339 345/345/345 346/346/346
f 339/339/339 346/346/346 347/347/347
f 339/339/339 347/347/347 340/340/340
f 348/348/348 349/349/349 350/350/350
f 348/348/348 350/350/350 351/351/351
f 348/348/348 351/351/351 352/352/352
f 348/348/348 352/352/352 353/353/353
f 348/348/348 353/353/353 354/354/354
f 348/348/348 354/354/354 355/355/355
f 348/348/348 355/355/355 356/356/356
f 348/348/348 356/356/356 349/349/349
f 357/357/357 358/358/358 359/359/359
f 357/357/357 359/359/359 360/360/360
f 357/357/357 360/360/360 361/361/361
f 357/357/357 361/361/361 362/362/362
f 357/357/357 362/362/362 363/363/363
f 357/357/357 363/363/363 364/364/364
f 357/357/357 364/364/364 365/365/365
f 357/357/357 365/365/365 358/358/358
f 366/366/366 362/362/362 361/361/361
f 366/366/366 361/361/361 367/367/367
f 366/366/366 367/367/367 338/338/338
f 366/366/366 338/338/338 337/337/337
f 366/366/366 337/337/337 336/336/336
f 366/366/366 336/336/336 368/368/368
f 366/366/366 368/368/368 363/363/363
f 366/366/366 363/363/363 362/362/362
