# Generated by lxe_pbrt_scene_convert
v 2.70556688 -0.754285991 -1.72232199
v 2.66879511 -0.765762985 -1.722247
v 2.66655993 -0.754285991 -1.72232199
v 2.67514706 -0.777647018 -1.72217095
v 2.68456411 -0.786248982 -1.72211599
v 2.69641399 -0.792042017 -1.72207797
v 2.70556688 -0.79311502 -1.72207105
v 2.70823312 -0.751389027 -1.72233999
v 2.70823312 -0.712558985 -1.72258997
v 2.71738601 -0.713631988 -1.72258306
v 2.72923589 -0.719425023 -1.72254503
v 2.73865294 -0.728026986 -1.72248995
v 2.74500489 -0.73991102 -1.72241294
v 2.74724007 -0.751389027 -1.72233999
v 2.70556688 -0.793134987 -1.72516799
v 2.69641399 -0.792061985 -1.72517598
v 2.68456411 -0.786269009 -1.72521305
v 2.67514706 -0.777666986 -1.72526801
v 2.66879511 -0.765783012 -1.72534502
v 2.66655993 -0.754305005 -1.72541797
v 2.70556688 -0.754305005 -1.72541797
v 2.70823312 -0.712579012 -1.72568703
v 2.71738601 -0.713653028 -1.72567999
v 2.72923589 -0.71944499 -1.72564197
v 2.73865294 -0.728047013 -1.72558701
v 2.74500489 -0.739930987 -1.72551095
v 2.74724007 -0.751408994 -1.72543705
v 2.70823312 -0.751408994 -1.72543705
vn -0.577300012 -0.58099997 -0.573599994
vn 0.695100009 0.242699996 -0.676699996
vn 0.635200024 -0.527100027 -0.564499974
vn 0.585399985 0.450700015 -0.673799992
vn 0.414299995 0.604499996 -0.680299997
vn 0.208900005 0.706900001 -0.675700009
vn -0.545400023 0.609399974 -0.575399995
vn 0.577300012 0.573599994 -0.58099997
vn 0.545400023 -0.61680001 -0.567499995
vn -0.208900005 -0.715600014 -0.666499972
vn -0.414299995 -0.613300025 -0.672500014
vn -0.585399985 -0.459300011 -0.667999983
vn -0.695100009 -0.251399994 -0.673500001
vn -0.635200024 0.519800007 -0.571200013
vn -0.545400023 0.61680001 0.567499995
vn 0.208900005 0.715600014 0.666499972
vn 0.414299995 0.613200009 0.672500014
vn 0.585399985 0.459399998 0.667999983
vn 0.695100009 0.251399994 0.673500001
vn 0.635200024 -0.519800007 0.571200013
vn -0.577300012 -0.573599994 0.58099997
vn 0.545400023 -0.609399974 0.575399995
vn -0.208900005 -0.706900001 0.675700009
vn -0.414299995 -0.604499996 0.680299997
vn -0.585399985 -0.450700015 0.673799992
vn -0.695100009 -0.242699996 0.676699996
vn -0.635200024 0.527100027 0.564499974
vn 0.577300012 0.58099997 0.573599994
f 1//1 2//2 3//3
f 1//1 4//4 2//2
f 1//1 5//5 4//4
f 1//1 6//6 5//5
f 1//1 7//7 6//6
f 8//8 9//9 10//10
f 8//8 10//10 11//11
f 8//8 11//11 12//12
f 8//8 12//12 13//13
f 8//8 13//13 14//14
f 7//7 15//15 16//16
f 7//7 16//16 6//6
f 6//6 16//16 17//17
f 6//6 17//17 5//5
f 5//5 17//17 18//18
f 5//5 18//18 4//4
f 4//4 18//18 19//19
f 4//4 19//19 2//2
f 2//2 19//19 20//20
f 2//2 20//20 3//3
f 1//1 21//21 15//15
f 1//1 15//15 7//7
f 3//3 20//20 21//21
f 3//3 21//21 1//1
f 9//9 22//22 23//23
f 9//9 23//23 10//10
f 10//10 23//23 24//24
f 10//10 24//24 11//11
f 11//11 24//24 25//25
f 11//11 25//25 12//12
f 12//12 25//25 26//26
f 12//12 26//26 13//13
f 13//13 26//26 27//27
f 13//13 27//27 14//14
f 8//8 28//28 22//22
f 8//8 22//22 9//9
f 14//14 27//27 28//28
f 14//14 28//28 8//8
f 19//19 21//21 20//20
f 18//18 21//21 19//19
f 17//17 21//21 18//18
f 16//16 21//21 17//17
f 15//15 21//21 16//16
f 22//22 28//28 23//23
f 23//23 28//28 24//24
f 24//24 28//28 25//25
f 25//25 28//28 26//26
f 26//26 28//28 27//27
