# Generated by lxe_pbrt_scene_convert
v -2.46276402 -0.0449969992 1.86531794
v -2.42006207 -0.0431639999 1.85515904
v -2.39246798 -0.0771789998 1.85388899
v -2.42750907 -0.0740389973 1.86348295
v -2.50393701 0.00165899994 1.866822
v -2.45318604 0.00191200001 1.85839903
v -2.42828989 -0.0311280005 1.85580599
v -2.47414589 -0.0310689993 1.86183703
v -2.40418792 0.00186900003 1.85573101
v -2.37697697 -0.0309020001 1.85219502
v -2.35784698 0.00227000006 1.85350597
v -2.32405996 -0.0299810003 1.84855294
v -2.3669951 -0.0438069999 1.85093105
v -2.33899593 -0.0779210031 1.84958601
v -2.31461 -0.0433119982 1.84705496
v -2.2809689 -0.0758780017 1.84377503
v -2.42604208 -0.0728569999 1.86917996
v -2.39147997 -0.0764959976 1.85981202
v -2.41907406 -0.0424819998 1.86108303
v -2.46129704 -0.0438150018 1.871014
v -2.47325802 -0.0310149994 1.86776996
v -2.42765689 -0.0312319994 1.86177897
v -2.45255303 0.00180900004 1.86437201
v -2.50305009 0.00171300001 1.872756
v -2.37661004 -0.031254001 1.85817397
v -2.40382099 0.00151700003 1.86170995
v -2.3237009 -0.0304249991 1.85452604
v -2.35748911 0.00182699994 1.85947895
v -2.33849502 -0.0778049976 1.855564
v -2.36649394 -0.0436910018 1.85690904
v -2.28044605 -0.0758090019 1.84975195
v -2.31408691 -0.0432429984 1.85303199
v -2.42750907 -0.0740389973 1.86348295
v -2.39246798 -0.0771789998 1.85388899
v -2.39147997 -0.0764959976 1.85981202
v -2.42604208 -0.0728569999 1.86917996
v -2.2809689 -0.0758780017 1.84377503
v -2.31461 -0.0433119982 1.84705496
v -2.31408691 -0.0432429984 1.85303199
v -2.28044605 -0.0758090019 1.84975195
v -2.31461 -0.0433119982 1.84705496
v -2.3669951 -0.0438069999 1.85093105
v -2.36649394 -0.0436910018 1.85690904
v -2.31408691 -0.0432429984 1.85303199
v -2.42006207 -0.0431639999 1.85515904
v -2.41907406 -0.0424819998 1.86108303
v -2.42828989 -0.0311280005 1.85580599
v -2.37697697 -0.0309020001 1.85219502
v -2.37661004 -0.031254001 1.85817397
v -2.42765689 -0.0312319994 1.86177897
v -2.46276402 -0.0449969992 1.86531794
v -2.42750907 -0.0740389973 1.86348295
v -2.42604208 -0.0728569999 1.86917996
v -2.46129704 -0.0438150018 1.871014
v -2.35784698 0.00227000006 1.85350597
v -2.40418792 0.00186900003 1.85573101
v -2.40382099 0.00151700003 1.86170995
v -2.35748911 0.00182699994 1.85947895
v -2.45318604 0.00191200001 1.85839903
v -2.45255303 0.00180900004 1.86437201
v -2.50393701 0.00165899994 1.866822
v -2.47414589 -0.0310689993 1.86183703
v -2.47325802 -0.0310149994 1.86776996
v -2.50305009 0.00171300001 1.872756
v -2.32405996 -0.0299810003 1.84855294
v -2.3237009 -0.0304249991 1.85452604
v -2.47414589 -0.0310689993 1.86183703
v -2.47325802 -0.0310149994 1.86776996
v -2.46276402 -0.0449969992 1.86531794
v -2.46129704 -0.0438150018 1.871014
v -2.32405996 -0.0299810003 1.84855294
v -2.35784698 0.00227000006 1.85350597
v -2.35748911 0.00182699994 1.85947895
v -2.3237009 -0.0304249991 1.85452604
v -2.50393701 0.00165899994 1.866822
v -2.50305009 0.00171300001 1.872756
v -2.33899593 -0.0779210031 1.84958601
v -2.2809689 -0.0758780017 1.84377503
v -2.28044605 -0.0758090019 1.84975195
v -2.33849502 -0.0778049976 1.855564
v -2.46276402 -0.0449969992 -1.86531794
v -2.42750907 -0.0740389973 -1.86348295
v -2.39246798 -0.0771789998 -1.85388899
v -2.42006207 -0.0431639999 -1.85515904
v -2.50393701 0.00165899994 -1.866822
v -2.47414589 -0.0310689993 -1.86183703
v -2.42828989 -0.0311280005 -1.85580599
v -2.45318604 0.00191200001 -1.85839903
v -2.37697697 -0.0309020001 -1.85219502
v -2.40418792 0.00186900003 -1.85573101
v -2.32405996 -0.0299810003 -1.84855294
v -2.35784698 0.00227000006 -1.85350597
v -2.33899593 -0.0779210031 -1.84958601
v -2.3669951 -0.0438069999 -1.85093105
v -2.2809689 -0.0758780017 -1.84377503
v -2.31461 -0.0433119982 -1.84705496
v -2.42604208 -0.0728569999 -1.86917996
v -2.46129704 -0.0438150018 -1.871014
v -2.41907406 -0.0424819998 -1.86108303
v -2.39147997 -0.0764959976 -1.85981202
v -2.47325802 -0.0310149994 -1.86776996
v -2.50305009 0.00171300001 -1.872756
v -2.45255303 0.00180900004 -1.86437201
v -2.42765689 -0.0312319994 -1.86177897
v -2.40382099 0.00151700003 -1.86170995
v -2.37661004 -0.031254001 -1.85817397
v -2.35748911 0.00182699994 -1.85947895
v -2.3237009 -0.0304249991 -1.85452604
v -2.36649394 -0.0436910018 -1.85690904
v -2.33849502 -0.0778049976 -1.855564
v -2.31408691 -0.0432429984 -1.85303199
v -2.28044605 -0.0758090019 -1.84975195
v -2.42750907 -0.0740389973 -1.86348295
v -2.42604208 -0.0728569999 -1.86917996
v -2.39147997 -0.0764959976 -1.85981202
v -2.39246798 -0.0771789998 -1.85388899
v -2.2809689 -0.0758780017 -1.84377503
v -2.28044605 -0.0758090019 -1.84975195
v -2.31408691 -0.0432429984 -1.85303199
v -2.31461 -0.0433119982 -1.84705496
v -2.31461 -0.0433119982 -1.84705496
v -2.31408691 -0.0432429984 -1.85303199
v -2.36649394 -0.0436910018 -1.85690904
v -2.3669951 -0.0438069999 -1.85093105
v -2.41907406 -0.0424819998 -1.86108303
v -2.42006207 -0.0431639999 -1.85515904
v -2.42828989 -0.0311280005 -1.85580599
v -2.42765689 -0.0312319994 -1.86177897
v -2.37661004 -0.031254001 -1.85817397
v -2.37697697 -0.0309020001 -1.85219502
v -2.46276402 -0.0449969992 -1.86531794
v -2.46129704 -0.0438150018 -1.871014
v -2.42604208 -0.0728569999 -1.86917996
v -2.42750907 -0.0740389973 -1.86348295
v -2.35784698 0.00227000006 -1.85350597
v -2.35748911 0.00182699994 -1.85947895
v -2.40382099 0.00151700003 -1.86170995
v -2.40418792 0.00186900003 -1.85573101
v -2.45255303 0.00180900004 -1.86437201
v -2.45318604 0.00191200001 -1.85839903
v -2.50393701 0.00165899994 -1.866822
v -2.50305009 0.00171300001 -1.872756
v -2.47325802 -0.0310149994 -1.86776996
v -2.47414589 -0.0310689993 -1.86183703
v -2.3237009 -0.0304249991 -1.85452604
v -2.32405996 -0.0299810003 -1.84855294
v -2.47414589 -0.0310689993 -1.86183703
v -2.47325802 -0.0310149994 -1.86776996
v -2.46129704 -0.0438150018 -1.871014
v -2.46276402 -0.0449969992 -1.86531794
v -2.32405996 -0.0299810003 -1.84855294
v -2.3237009 -0.0304249991 -1.85452604
v -2.35748911 0.00182699994 -1.85947895
v -2.35784698 0.00227000006 -1.85350597
v -2.50305009 0.00171300001 -1.872756
v -2.50393701 0.00165899994 -1.866822
v -2.33899593 -0.0779210031 -1.84958601
v -2.33849502 -0.0778049976 -1.855564
v -2.28044605 -0.0758090019 -1.84975195
v -2.2809689 -0.0758780017 -1.84377503
vn -0.244499996 -0.196999997 -0.949400008
vn -0.198799998 -0.149399996 -0.968599975
vn -0.124700002 -0.072800003 -0.989499986
vn -0.244499996 -0.196999997 -0.949400008
vn -0.1479 -0.00899999961 -0.989000022
vn -0.122900002 0.00639999984 -0.992399991
vn -0.0877000019 0.0280000009 -0.995700002
vn -0.1479 -0.00899999961 -0.989000022
vn -0.0617000014 0.0518999994 -0.996699989
vn -0.0604999997 0.0653000027 -0.995999992
vn -0.059799999 0.0738999993 -0.995500028
vn -0.059799999 0.0738999993 -0.995500028
vn -0.0820999965 -0.0227000006 -0.996299982
vn -0.0851000026 -0.0159000009 -0.996200025
vn -0.0870999992 -0.0114000002 -0.996100008
vn -0.0870999992 -0.0114000002 -0.996100008
vn 0.244499996 0.196999997 0.949400008
vn 0.123899996 0.0719999969 0.989700019
vn 0.199399993 0.150000006 0.968400002
vn 0.244499996 0.196999997 0.949400008
vn 0.1479 0.00899999961 0.989000022
vn 0.0876000002 -0.0280000009 0.995800018
vn 0.123099998 -0.00630000001 0.992399991
vn 0.1479 0.00899999961 0.989000022
vn 0.0604999997 -0.0653000027 0.995999992
vn 0.0617000014 -0.0518999994 0.996699989
vn 0.059799999 -0.0738999993 0.995500028
vn 0.059799999 -0.0738999993 0.995500028
vn 0.0851999968 0.0157999992 0.996200025
vn 0.0820999965 0.0227000006 0.996299982
vn 0.0870999992 0.0114000002 0.996100008
vn 0.0870999992 0.0114000002 0.996100008
vn -0.0500000007 -0.984399974 0.168500006
vn -0.0317000002 -0.992500007 0.118199997
vn -0.0320000015 -0.992299974 0.119099997
vn -0.0500000007 -0.984399974 0.168500006
vn 0.690400004 0.720099986 -0.068599999
vn 0.690400004 0.720099986 -0.068599999
vn 0.690400004 0.720099986 -0.068599999
vn 0.690400004 0.720099986 -0.068599999
vn -0.00999999978 0.999800026 -0.0146000003
vn 0.00100000005 0.999100029 -0.0416000001
vn 0.000899999985 0.999100029 -0.0414000005
vn -0.00999999978 0.999800026 -0.0146000003
vn -0.0296999998 0.993900001 -0.106299996
vn -0.0291000009 0.994000018 -0.105800003
vn -0.00209999993 -0.999800026 -0.0208000001
vn 0.0055999998 -0.998600006 -0.0526000001
vn 0.0055999998 -0.998600006 -0.0524000004
vn -0.00209999993 -0.999800026 -0.0208999999
vn -0.595399976 -0.742200017 0.307300001
vn -0.595399976 -0.742200017 0.307300001
vn -0.595399976 -0.742200017 0.307300001
vn -0.595399976 -0.742200017 0.307300001
vn -0.00439999998 0.997699976 0.0666000023
vn 0.000500000024 0.998600006 0.0520000011
vn 0.000500000024 0.998600006 0.0522000007
vn -0.00439999998 0.997699976 0.0666000023
vn 0.00139999995 0.999800026 0.0210999995
vn 0.00139999995 0.999800026 0.0209999997
vn -0.725899994 -0.678200006 0.114699997
vn -0.725899994 -0.678200006 0.114699997
vn -0.725899994 -0.678200006 0.114699997
vn -0.725899994 -0.678200006 0.114699997
vn 0.0119000003 -0.997699976 -0.0670000017
vn 0.0119000003 -0.997699976 -0.0670000017
vn -0.00350000011 -1 -0.0037
vn -0.00350000011 -1 -0.0037
vn -0.0706999972 0.987100005 -0.143399999
vn -0.0706999972 0.987100005 -0.143399999
vn 0.691299975 0.72240001 0.0120999999
vn 0.691299975 0.72240001 0.0120999999
vn 0.691299975 0.72240001 0.0120999999
vn 0.691299975 0.72240001 0.0120999999
vn -0.00270000007 1 0.00449999981
vn -0.00270000007 1 0.00449999981
vn 0.0111999996 -0.999100029 0.0403999984
vn 0.0359999985 -0.999300003 0.0122999996
vn 0.0359999985 -0.999300003 0.0122999996
vn 0.0109999999 -0.999100029 0.0406000018
vn -0.244499996 -0.196999997 0.949400008
vn -0.244499996 -0.196999997 0.949400008
vn -0.124700002 -0.072800003 0.989499986
vn -0.198799998 -0.149399996 0.968599975
vn -0.1479 -0.00899999961 0.989000022
vn -0.1479 -0.00899999961 0.989000022
vn -0.0877000019 0.0280000009 0.995700002
vn -0.122900002 0.00639999984 0.992399991
vn -0.0604999997 0.0653000027 0.995999992
vn -0.0617000014 0.0518999994 0.996699989
vn -0.059799999 0.0738999993 0.995500028
vn -0.059799999 0.0738999993 0.995500028
vn -0.0851000026 -0.0159000009 0.996200025
vn -0.0820999965 -0.0227000006 0.996299982
vn -0.0870999992 -0.0114000002 0.996100008
vn -0.0870999992 -0.0114000002 0.996100008
vn 0.244499996 0.196999997 -0.949400008
vn 0.244499996 0.196999997 -0.949400008
vn 0.199399993 0.150000006 -0.968400002
vn 0.123899996 0.0719999969 -0.989700019
vn 0.1479 0.00899999961 -0.989000022
vn 0.1479 0.00899999961 -0.989000022
vn 0.123099998 -0.00630000001 -0.992399991
vn 0.0876000002 -0.0280000009 -0.995800018
vn 0.0617000014 -0.0518999994 -0.996699989
vn 0.0604999997 -0.0653000027 -0.995999992
vn 0.059799999 -0.0738999993 -0.995500028
vn 0.059799999 -0.0738999993 -0.995500028
vn 0.0820999965 0.0227000006 -0.996299982
vn 0.0851999968 0.0157999992 -0.996200025
vn 0.0870999992 0.0114000002 -0.996100008
vn 0.0870999992 0.0114000002 -0.996100008
vn -0.0500000007 -0.984399974 -0.168500006
vn -0.0500000007 -0.984399974 -0.168500006
vn -0.0320000015 -0.992299974 -0.119099997
vn -0.0317000002 -0.992500007 -0.118199997
vn 0.690400004 0.720099986 0.068599999
vn 0.690400004 0.720099986 0.068599999
vn 0.690400004 0.720099986 0.068599999
vn 0.690400004 0.720099986 0.068599999
vn -0.00999999978 0.999800026 0.0146000003
vn -0.00999999978 0.999800026 0.0146000003
vn 0.000899999985 0.999100029 0.0414000005
vn 0.00100000005 0.999100029 0.0416000001
vn -0.0291000009 0.994000018 0.105800003
vn -0.0296999998 0.993900001 0.106299996
vn -0.00209999993 -0.999800026 0.0208000001
vn -0.00209999993 -0.999800026 0.0208999999
vn 0.0055999998 -0.998600006 0.0524000004
vn 0.0055999998 -0.998600006 0.0526000001
vn -0.595399976 -0.742200017 -0.307300001
vn -0.595399976 -0.742200017 -0.307300001
vn -0.595399976 -0.742200017 -0.307300001
vn -0.595399976 -0.742200017 -0.307300001
vn -0.00439999998 0.997699976 -0.0666000023
vn -0.00439999998 0.997699976 -0.0666000023
vn 0.000500000024 0.998600006 -0.0522000007
vn 0.000500000024 0.998600006 -0.0520000011
vn 0.00139999995 0.999800026 -0.0209999997
vn 0.00139999995 0.999800026 -0.0210999995
vn -0.725899994 -0.678200006 -0.114699997
vn -0.725899994 -0.678200006 -0.114699997
vn -0.725899994 -0.678200006 -0.114699997
vn -0.725899994 -0.678200006 -0.114699997
vn 0.0119000003 -0.997699976 0.0670000017
vn 0.0119000003 -0.997699976 0.0670000017
vn -0.00350000011 -1 0.0037
vn -0.00350000011 -1 0.0037
vn -0.0706999972 0.987100005 0.143399999
vn -0.0706999972 0.987100005 0.143399999
vn 0.691299975 0.72240001 -0.0120999999
vn 0.691299975 0.72240001 -0.0120999999
vn 0.691299975 0.72240001 -0.0120999999
vn 0.691299975 0.72240001 -0.0120999999
vn -0.00270000007 1 -0.00449999981
vn -0.00270000007 1 -0.00449999981
vn 0.0111999996 -0.999100029 -0.0403999984
vn 0.0109999999 -0.999100029 -0.0406000018
vn 0.0359999985 -0.999300003 -0.0122999996
vn 0.0359999985 -0.999300003 -0.0122999996
f 1//1 2//2 3//3
f 1//1 3//3 4//4
f 5//5 6//6 7//7
f 5//5 7//7 8//8
f 6//6 9//9 10//10
f 6//6 10//10 7//7
f 9//9 11//11 12//12
f 9//9 12//12 10//10
f 2//2 13//13 14//14
f 2//2 14//14 3//3
f 13//13 15//15 16//16
f 13//13 16//16 14//14
f 17//17 18//18 19//19
f 17//17 19//19 20//20
f 21//21 22//22 23//23
f 21//21 23//23 24//24
f 22//22 25//25 26//26
f 22//22 26//26 23//23
f 25//25 27//27 28//28
f 25//25 28//28 26//26
f 18//18 29//29 30//30
f 18//18 30//30 19//19
f 29//29 31//31 32//32
f 29//29 32//32 30//30
f 33//33 34//34 35//35
f 33//33 35//35 36//36
f 37//37 38//38 39//39
f 37//37 39//39 40//40
f 41//41 42//42 43//43
f 41//41 43//43 44//44
f 42//42 45//45 46//46
f 42//42 46//46 43//43
f 47//47 48//48 49//49
f 47//47 49//49 50//50
f 51//51 52//52 53//53
f 51//51 53//53 54//54
f 55//55 56//56 57//57
f 55//55 57//57 58//58
f 56//56 59//59 60//60
f 56//56 60//60 57//57
f 61//61 62//62 63//63
f 61//61 63//63 64//64
f 48//48 65//65 66//66
f 48//48 66//66 49//49
f 67//67 47//47 50//50
f 67//67 50//50 68//68
f 45//45 69//69 70//70
f 45//45 70//70 46//46
f 71//71 72//72 73//73
f 71//71 73//73 74//74
f 59//59 75//75 76//76
f 59//59 76//76 60//60
f 77//77 78//78 79//79
f 77//77 79//79 80//80
f 34//34 77//77 80//80
f 34//34 80//80 35//35
f 81//81 82//82 83//83
f 81//81 83//83 84//84
f 85//85 86//86 87//87
f 85//85 87//87 88//88
f 88//88 87//87 89//89
f 88//88 89//89 90//90
f 90//90 89//89 91//91
f 90//90 91//91 92//92
f 84//84 83//83 93//93
f 84//84 93//93 94//94
f 94//94 93//93 95//95
f 94//94 95//95 96//96
f 97//97 98//98 99//99
f 97//97 99//99 100//100
f 101//101 102//102 103//103
f 101//101 103//103 104//104
f 104//104 103//103 105//105
f 104//104 105//105 106//106
f 106//106 105//105 107//107
f 106//106 107//107 108//108
f 100//100 99//99 109//109
f 100//100 109//109 110//110
f 110//110 109//109 111//111
f 110//110 111//111 112//112
f 113//113 114//114 115//115
f 113//113 115//115 116//116
f 117//117 118//118 119//119
f 117//117 119//119 120//120
f 121//121 122//122 123//123
f 121//121 123//123 124//124
f 124//124 123//123 125//125
f 124//124 125//125 126//126
f 127//127 128//128 129//129
f 127//127 129//129 130//130
f 131//131 132//132 133//133
f 131//131 133//133 134//134
f 135//135 136//136 137//137
f 135//135 137//137 138//138
f 138//138 137//137 139//139
f 138//138 139//139 140//140
f 141//141 142//142 143//143
f 141//141 143//143 144//144
f 130//130 129//129 145//145
f 130//130 145//145 146//146
f 147//147 148//148 128//128
f 147//147 128//128 127//127
f 126//126 125//125 149//149
f 126//126 149//149 150//150
f 151//151 152//152 153//153
f 151//151 153//153 154//154
f 140//140 139//139 155//155
f 140//140 155//155 156//156
f 157//157 158//158 159//159
f 157//157 159//159 160//160
f 116//116 115//115 158//158
f 116//116 158//158 157//157
