# Generated by lxe_pbrt_scene_convert
v -0.716458023 0.793994009 0.856074989
v -0.739798009 0.795127988 0.856074989
v -0.734995008 0.78173703 0.964137018
v -0.711758018 0.780888975 0.96182102
v -0.734995008 0.78173703 0.74801302
v -0.711758018 0.780888975 0.750329018
v -0.696322978 0.764294028 0.956238985
v -0.700774014 0.776706994 0.856074989
v -0.696322978 0.764294028 0.755910993
v -0.697694004 0.741671026 0.95065701
v -0.701897025 0.753391981 0.856074989
v -0.697694004 0.741671026 0.761493027
v -0.715094984 0.72624898 0.948342025
v -0.719196022 0.737682998 0.856074989
v -0.715094984 0.72624898 0.763809025
v -0.738331974 0.727096975 0.95065701
v -0.742536008 0.73881799 0.856074989
v -0.738331974 0.727096975 0.761493027
v -0.753768027 0.743691981 0.956238985
v -0.758220017 0.756105006 0.856074989
v -0.753768027 0.743691981 0.755910993
v -0.752397001 0.766314983 0.96182102
v -0.757097006 0.779419005 0.856074989
v -0.752397001 0.766314983 0.750329018
v -0.72091502 0.742474973 1.064834
v -0.697979987 0.742469013 1.06036103
v -0.697979987 0.742469013 0.651790023
v -0.72091502 0.742474973 0.647315979
v -0.683270991 0.727901995 1.049577
v -0.683270991 0.727901995 0.66257298
v -0.685369015 0.707306981 1.03879404
v -0.685369015 0.707306981 0.673355997
v -0.703073025 0.692726016 1.03432
v -0.703073025 0.692726016 0.677829981
v -0.726007998 0.69273299 1.03879404
v -0.726007998 0.69273299 0.673355997
v -0.740715981 0.707300007 1.049577
v -0.740715981 0.707300007 0.66257298
v -0.738618016 0.727894008 1.06036103
v -0.738618016 0.727894008 0.651790023
v -0.698516011 0.680019021 1.15130496
v -0.676060021 0.681351006 1.144979
v -0.676060021 0.681351006 0.567171991
v -0.698516011 0.680019021 0.560845017
v -0.662509024 0.670009971 1.12972903
v -0.662509024 0.670009971 0.582422018
v -0.665763974 0.652640998 1.11447895
v -0.665763974 0.652640998 0.597671986
v -0.68394798 0.639398992 1.10815203
v -0.68394798 0.639398992 0.603998005
v -0.706403017 0.638067007 1.11447895
v -0.706403017 0.638067007 0.597671986
v -0.719954014 0.649407983 1.12972903
v -0.719954014 0.649407983 0.582422018
v -0.716699004 0.666776001 1.144979
v -0.716699004 0.666776001 0.567171991
v -0.669324994 0.598623991 1.21765697
v -0.647494972 0.601700008 1.20990801
v -0.647494972 0.601700008 0.502242029
v -0.669324994 0.598623991 0.494493991
v -0.635451019 0.594564021 1.19123101
v -0.635451019 0.594564021 0.520919025
v -0.64021498 0.581399977 1.17255402
v -0.64021498 0.581399977 0.539596975
v -0.659024 0.56990099 1.16480505
v -0.659024 0.56990099 0.547344983
v -0.680853009 0.566824973 1.17255402
v -0.680853009 0.566824973 0.539596975
v -0.692897022 0.573961973 1.19123101
v -0.692897022 0.573961973 0.520919025
v -0.688134015 0.587126017 1.20990801
v -0.688134015 0.587126017 0.502242029
v -0.635330975 0.503838003 1.25936699
v -0.614229977 0.508944988 1.25072503
v -0.614229977 0.508944988 0.46142599
v -0.635330975 0.503838003 0.452782989
v -0.603941977 0.506704986 1.22989297
v -0.603941977 0.506704986 0.482257009
v -0.610460997 0.498436987 1.20906103
v -0.610460997 0.498436987 0.503089011
v -0.629998982 0.488970011 1.20041895
v -0.629998982 0.488970011 0.511731982
v -0.65109998 0.483862996 1.20906103
v -0.65109998 0.483862996 0.503089011
v -0.66138798 0.486102998 1.22989297
v -0.66138798 0.486102998 0.482257009
v -0.65486902 0.494370997 1.25072503
v -0.65486902 0.494370997 0.46142599
v -0.562372029 0.300401986 1.25936699
v -0.542833984 0.309868991 1.25072503
v -0.578531981 0.40940699 1.26464605
v -0.598851025 0.402119994 1.27359402
v -0.578531981 0.40940699 0.447504014
v -0.542833984 0.309868991 0.46142599
v -0.562372029 0.300401986 0.452782989
v -0.598851025 0.402119994 0.438556999
v -0.536315024 0.31813699 1.22989297
v -0.570128977 0.412420988 1.24308002
v -0.570128977 0.412420988 0.469071001
v -0.536315024 0.31813699 0.482257009
v -0.546603024 0.320376992 1.20906103
v -0.578531981 0.40940699 1.22151303
v -0.578531981 0.40940699 0.490637004
v -0.546603024 0.320376992 0.503089011
v -0.567704022 0.315270007 1.20041895
v -0.598851025 0.402119994 1.21256602
v -0.598851025 0.402119994 0.499585003
v -0.567704022 0.315270007 0.511731982
v -0.587240994 0.305803001 1.20906103
v -0.619171023 0.394832999 1.22151303
v -0.619171023 0.394832999 0.490637004
v -0.587240994 0.305803001 0.503089011
v -0.593760014 0.297535002 1.22989297
v -0.627574027 0.391819 1.24308002
v -0.627574027 0.391819 0.469071001
v -0.593760014 0.297535002 0.482257009
v -0.583473027 0.295293987 1.25072503
v -0.619171023 0.394832999 1.26464605
v -0.619171023 0.394832999 0.447504014
v -0.583473027 0.295293987 0.46142599
v -0.52837801 0.205615997 1.21765697
v -0.509568989 0.217114002 1.20990801
v -0.509568989 0.217114002 0.502242029
v -0.52837801 0.205615997 0.494493991
v -0.504805982 0.230278 1.19123101
v -0.504805982 0.230278 0.520919025
v -0.516848981 0.237414002 1.17255402
v -0.516849995 0.237414002 0.539596975
v -0.538679004 0.234338 1.16480505
v -0.538679004 0.234338 0.547344983
v -0.557488024 0.222839996 1.17255402
v -0.557488024 0.222839996 0.539596975
v -0.562250972 0.209675997 1.19123101
v -0.562250972 0.209675997 0.520919025
v -0.550207973 0.202538997 1.20990801
v -0.550207973 0.202538997 0.502242029
v -0.499186993 0.124220997 1.15130496
v -0.481004 0.137463003 1.144979
v -0.481004 0.137463003 0.567171991
v -0.499186993 0.124220997 0.560845017
v -0.477748007 0.154832006 1.12972903
v -0.477748007 0.154832006 0.582422018
v -0.491299987 0.166172996 1.11447895
v -0.491299987 0.166172996 0.597671986
v -0.513755023 0.164840996 1.10815203
v -0.513755023 0.164840996 0.603998005
v -0.531938016 0.151598006 1.11447895
v -0.531938016 0.151598006 0.597671986
v -0.53519398 0.134230003 1.12972903
v -0.53519398 0.134230003 0.582422018
v -0.521642029 0.122888997 1.144979
v -0.521642029 0.122888997 0.567171991
v -0.476788014 0.0617640018 1.064834
v -0.459084004 0.0763449967 1.06036103
v -0.459084988 0.0763449967 0.651790023
v -0.476788014 0.0617640018 0.647315979
v -0.45698601 0.0969400033 1.049577
v -0.45698601 0.0969400033 0.66257298
v -0.471695006 0.111506999 1.03879404
v -0.471695006 0.111506999 0.673355997
v -0.494630009 0.111514002 1.03432
v -0.494630009 0.111514002 0.677829981
v -0.512332976 0.0969329998 1.03879404
v -0.512332976 0.0969329998 0.673355997
v -0.514432013 0.0763380006 1.049577
v -0.514432013 0.0763380006 0.66257298
v -0.499722987 0.0617710017 1.06036103
v -0.499722987 0.0617710017 0.651790023
v -0.462707013 0.0225029998 0.964137018
v -0.445306003 0.0379250012 0.96182102
v -0.445306003 0.0379250012 0.750329018
v -0.462707013 0.0225029998 0.74801302
v -0.443935007 0.060548 0.956238985
v -0.443935007 0.060548 0.755910993
v -0.459369987 0.0771429986 0.95065701
v -0.459369987 0.0771429986 0.761493027
v -0.482607007 0.0775939971 0.947972
v -0.482607007 0.0775939971 0.764177978
v -0.500009 0.0625680014 0.95065701
v -0.500009 0.0625680014 0.761493027
v -0.501380026 0.039946001 0.956238985
v -0.501380026 0.039946001 0.755910993
v -0.485944003 0.0233500004 0.96182102
v -0.485944003 0.0233500004 0.750329018
v -0.457904994 0.00911100022 0.856074989
v -0.440605998 0.0248199999 0.856074989
v -0.439482987 0.0481350012 0.856074989
v -0.455166996 0.0654219985 0.856074989
v -0.495806009 0.0508470014 0.856074989
v -0.496928006 0.0275330003 0.856074989
v -0.481245011 0.0102460003 0.856074989
v -0.596381009 0.459176004 1.25768495
v -0.617091 0.452978998 1.26647997
v -0.617091 0.452978998 0.445670009
v -0.596381009 0.459176004 0.454465002
v -0.587035 0.459562987 1.23648596
v -0.587035 0.459562987 0.47566399
v -0.594497025 0.453922004 1.21528697
v -0.594497025 0.453922004 0.496863008
v -0.644481003 0.438960999 1.23648596
v -0.635134995 0.439348012 1.21528697
v -0.635134995 0.439348012 0.496863008
v -0.644481003 0.438960999 0.47566399
v -0.637019992 0.444602013 1.25768495
v -0.637019992 0.444602013 0.454465002
v -0.616240025 0.446583003 1.20935798
v -0.61481601 0.446635008 0.496863008
v -0.482329011 0.0698259994 0.856477976
vn 0.407299995 0.913299978 0
vn -0.337599993 0.941299975 0
vn -0.326099992 0.909200013 0.2588
vn 0.415600002 0.890100002 0.186900005
vn -0.326099992 0.909200013 -0.2588
vn 0.415600002 0.890100002 -0.186900005
vn 0.930400014 0.366299987 0.00820000004
vn 0.930100024 0.367399991 0
vn 0.930400014 0.366299987 -0.00820000004
vn 0.906099975 -0.383300006 -0.1787
vn 0.914099991 -0.405499995 0
vn 0.906099975 -0.383300006 0.1787
vn 0.326099992 -0.909200013 -0.2588
vn 0.337599993 -0.941299975 0
vn 0.326099992 -0.909200013 0.2588
vn -0.455900013 -0.871900022 -0.1787
vn -0.448000014 -0.893999994 0
vn -0.455900013 -0.871900022 0.1787
vn -0.951200008 -0.308499992 0.00820000004
vn -0.951600015 -0.307399988 0
vn -0.951200008 -0.308499992 -0.00820000004
vn -0.886600018 0.423099995 0.186900005
vn -0.894900024 0.4463 0
vn -0.886600018 0.423099995 -0.186900005
vn -0.292299986 0.815199971 0.5
vn 0.439999998 0.8222 0.361099988
vn 0.439900011 0.8222 -0.361099988
vn -0.292299986 0.815199971 -0.5
vn 0.931500018 0.363400012 0.0159000009
vn 0.931500018 0.363400012 -0.0159000009
vn 0.8829 -0.318399996 -0.345099986
vn 0.8829 -0.318399996 0.345099986
vn 0.292299986 -0.815199971 -0.5
vn 0.292299986 -0.815199971 0.5
vn -0.479200006 -0.806900024 -0.345099986
vn -0.479200006 -0.806900024 0.345099986
vn -0.950100005 -0.311399996 0.0159000009
vn -0.950100005 -0.311399996 -0.0159000009
vn -0.862200022 0.355199993 0.361099988
vn -0.862200022 0.355199993 -0.361099988
vn -0.238700002 0.665600002 0.707099974
vn 0.478700012 0.71420002 0.510599971
vn 0.478700012 0.71420002 -0.510599971
vn -0.238700002 0.665600002 -0.707099974
vn 0.933200002 0.358599991 0.0225000009
vn 0.933200002 0.358599991 -0.0225000009
vn 0.845799983 -0.215200007 -0.488099992
vn 0.845799983 -0.215200007 0.488099992
vn 0.238700002 -0.665600002 -0.707099974
vn 0.238700002 -0.665600002 0.707099974
vn -0.516300023 -0.703700006 -0.488099992
vn -0.516300023 -0.703700006 0.488099992
vn -0.948400021 -0.316199988 0.0225000009
vn -0.948400021 -0.316199988 -0.0225000009
vn -0.823499978 0.247199997 0.510599971
vn -0.823499978 0.247199997 -0.510599971
vn -0.168799996 0.470600009 0.865999997
vn 0.529200017 0.573400021 0.625400007
vn 0.529200017 0.573400021 -0.625400007
vn -0.168799996 0.470600009 -0.865999997
vn 0.935400009 0.352400005 0.0275999997
vn 0.935400009 0.352400005 -0.0275999997
vn 0.797599971 -0.0806000009 -0.597800016
vn 0.797599971 -0.0806000009 0.597800016
vn 0.168799996 -0.470600009 -0.865999997
vn 0.168799996 -0.470600009 0.865999997
vn -0.564499974 -0.569100022 -0.597800016
vn -0.564499974 -0.569100022 0.597800016
vn -0.946200013 -0.322400004 0.0275999997
vn -0.946200013 -0.322400004 -0.0275999997
vn -0.773000002 0.106399998 0.625400007
vn -0.773000002 0.106399998 -0.625400007
vn -0.0873000026 0.243599996 0.965900004
vn 0.588 0.409399986 0.697600007
vn 0.588 0.409399986 -0.697600007
vn -0.0873000026 0.243599996 -0.965900004
vn 0.938000023 0.345200002 0.0307
vn 0.938000023 0.345200002 -0.0307
vn 0.733799994 0.0614 -0.676599979
vn 0.722000003 0.0377999991 0.690800011
vn 0.0908000022 -0.258700013 -0.961700022
vn 0.102399997 -0.285600007 0.952799976
vn -0.609600008 -0.417199999 -0.674000025
vn -0.581499994 -0.4296 0.690800011
vn -0.943599999 -0.329600006 0.0307
vn -0.943599999 -0.329600006 -0.0307
vn -0.71420002 -0.057599999 0.697600007
vn -0.71420002 -0.057599999 -0.697600007
vn 0.0873000026 -0.243599996 0.965900004
vn 0.71420002 0.057599999 0.697600007
vn 0.65109998 0.233500004 0.722199976
vn 0 0 1
vn 0.65109998 0.233500004 -0.722199976
vn 0.71420002 0.057599999 -0.697600007
vn 0.0873000026 -0.243599996 -0.965900004
vn 0 0 -1
vn 0.943599999 0.329600006 0.0307
vn 0.940800011 0.337399989 0.0318000019
vn 0.940800011 0.337399989 -0.0318000019
vn 0.943599999 0.329600006 -0.0307
vn 0.620700002 0.412400007 -0.666700006
vn 0.667200029 0.247899994 -0.702400029
vn 0.644200027 0.254599988 0.721199989
vn 0.620700002 0.412400007 0.666700006
vn -0.0873000026 0.243599996 -0.965900004
vn -0.00700000022 0.0138999997 -0.999899983
vn -0.0156999994 0.0436999984 0.998899996
vn -0.0873000026 0.243599996 0.965900004
vn -0.741400003 -0.0760999992 -0.666700006
vn -0.674899995 -0.235799998 -0.699100018
vn -0.659200013 -0.212799996 0.721199989
vn -0.741400003 -0.0760999992 0.666700006
vn -0.938000023 -0.345200002 0.0307
vn -0.940800011 -0.337399989 0.0318000019
vn -0.940800011 -0.337399989 -0.0318000019
vn -0.938000023 -0.345200002 -0.0307
vn -0.588 -0.409399986 0.697600007
vn -0.65109998 -0.233500004 0.722199976
vn -0.65109998 -0.233500004 -0.722199976
vn -0.588 -0.409399986 -0.697600007
vn 0.168799996 -0.470600009 0.865999997
vn 0.773000002 -0.106399998 0.625400007
vn 0.773000002 -0.106399998 -0.625400007
vn 0.168799996 -0.470600009 -0.865999997
vn 0.946200013 0.322400004 0.0275999997
vn 0.946200013 0.322400004 -0.0275999997
vn 0.564499974 0.569100022 -0.597800016
vn 0.564499974 0.569100022 0.597800016
vn -0.168799996 0.470600009 -0.865999997
vn -0.168799996 0.470600009 0.865999997
vn -0.797599971 0.0806000009 -0.597800016
vn -0.797599971 0.0806000009 0.597800016
vn -0.935400009 -0.352400005 0.0275999997
vn -0.935400009 -0.352400005 -0.0275999997
vn -0.529200017 -0.573400021 0.625400007
vn -0.529200017 -0.573400021 -0.625400007
vn 0.238700002 -0.665600002 0.707099974
vn 0.823499978 -0.247199997 0.510599971
vn 0.823499978 -0.247199997 -0.510599971
vn 0.238700002 -0.665600002 -0.707099974
vn 0.948400021 0.316199988 0.0225000009
vn 0.948400021 0.316199988 -0.0225000009
vn 0.516300023 0.703700006 -0.488099992
vn 0.516300023 0.703700006 0.488099992
vn -0.238700002 0.665600002 -0.707099974
vn -0.238700002 0.665600002 0.707099974
vn -0.845799983 0.215200007 -0.488099992
vn -0.845799983 0.215200007 0.488099992
vn -0.933200002 -0.358599991 0.0225000009
vn -0.933200002 -0.358599991 -0.0225000009
vn -0.478700012 -0.71420002 0.510599971
vn -0.478700012 -0.71420002 -0.510599971
vn 0.292299986 -0.815199971 0.5
vn 0.862200022 -0.355199993 0.361099988
vn 0.862200022 -0.355199993 -0.361099988
vn 0.292299986 -0.815199971 -0.5
vn 0.950100005 0.311399996 0.0159000009
vn 0.950100005 0.311399996 -0.0159000009
vn 0.478199989 0.807299972 -0.345800012
vn 0.478199989 0.807299972 0.345800012
vn -0.292600006 0.814800024 -0.500400007
vn -0.292600006 0.814800024 0.500400007
vn -0.882499993 0.318899989 -0.345499992
vn -0.882499993 0.318899989 0.345499992
vn -0.931500018 -0.363400012 0.0159000009
vn -0.931500018 -0.363400012 -0.0159000009
vn -0.439999998 -0.8222 0.361099988
vn -0.439999998 -0.8222 -0.361099988
vn 0.326099992 -0.909200013 0.2588
vn 0.886600018 -0.423099995 0.186900005
vn 0.886600018 -0.423099995 -0.186900005
vn 0.326099992 -0.909200013 -0.2588
vn 0.951200008 0.308499992 0.00820000004
vn 0.951200008 0.308499992 -0.00820000004
vn 0.465700001 0.867500007 -0.1743
vn 0.466100007 0.867399991 0.174099997
vn -0.335999995 0.908699989 -0.247500002
vn -0.335999995 0.908800006 0.247299999
vn -0.916100025 0.363200009 -0.1699
vn -0.916199982 0.362899989 0.169699997
vn -0.930400014 -0.366299987 0.00820000004
vn -0.930400014 -0.366299987 -0.00820000004
vn -0.415600002 -0.890100002 0.186900005
vn -0.415600002 -0.890100002 -0.186900005
vn 0.337599993 -0.941299975 0
vn 0.894900024 -0.4463 0
vn 0.951600015 0.307399988 0
vn 0.471100003 0.882099986 0.00039999999
vn -0.933099985 0.359600008 0.00039999999
vn -0.930100024 -0.367399991 0
vn -0.407299995 -0.913299978 0
vn 0.632499993 0.325100005 0.703000009
vn -0.0439999998 0.1228 0.991400003
vn -0.0439999998 0.1228 -0.991400003
vn 0.632499993 0.325100005 -0.703000009
vn 0.941299975 0.337599993 0
vn 0.941299975 0.337599993 0
vn 0.672100008 0.139699996 -0.727100015
vn 0.63410002 0.120499998 0.763800025
vn -0.941299975 -0.337599993 0
vn -0.614499986 -0.320800006 -0.720700026
vn -0.566100001 -0.309899986 0.763800025
vn -0.941299975 -0.337599993 0
vn -0.694999993 -0.150900006 0.703000009
vn -0.694999993 -0.150900006 -0.703000009
vn 0.0296999998 -0.129600003 -0.991100013
vn 0.0439999998 -0.1228 0.991400003
vn -0.368000001 0.929799974 -0.0013
f 1//1 2//2 3//3
f 1//1 3//3 4//4
f 5//5 2//2 1//1
f 5//5 1//1 6//6
f 4//4 7//7 8//8
f 4//4 8//8 1//1
f 8//8 9//9 6//6
f 8//8 6//6 1//1
f 7//7 10//10 11//11
f 7//7 11//11 8//8
f 11//11 12//12 9//9
f 11//11 9//9 8//8
f 10//10 13//13 14//14
f 10//10 14//14 11//11
f 14//14 15//15 12//12
f 14//14 12//12 11//11
f 13//13 16//16 17//17
f 13//13 17//17 14//14
f 17//17 18//18 15//15
f 17//17 15//15 14//14
f 16//16 19//19 20//20
f 16//16 20//20 17//17
f 20//20 21//21 18//18
f 20//20 18//18 17//17
f 19//19 22//22 23//23
f 19//19 23//23 20//20
f 23//23 24//24 21//21
f 23//23 21//21 20//20
f 2//2 23//23 22//22
f 2//2 22//22 3//3
f 2//2 5//5 24//24
f 2//2 24//24 23//23
f 25//25 26//26 4//4
f 25//25 4//4 3//3
f 6//6 27//27 28//28
f 6//6 28//28 5//5
f 26//26 29//29 7//7
f 26//26 7//7 4//4
f 9//9 30//30 27//27
f 9//9 27//27 6//6
f 29//29 31//31 10//10
f 29//29 10//10 7//7
f 12//12 32//32 30//30
f 12//12 30//30 9//9
f 31//31 33//33 13//13
f 31//31 13//13 10//10
f 15//15 34//34 32//32
f 15//15 32//32 12//12
f 33//33 35//35 16//16
f 33//33 16//16 13//13
f 18//18 36//36 34//34
f 18//18 34//34 15//15
f 35//35 37//37 19//19
f 35//35 19//19 16//16
f 21//21 38//38 36//36
f 21//21 36//36 18//18
f 37//37 39//39 22//22
f 37//37 22//22 19//19
f 24//24 40//40 38//38
f 24//24 38//38 21//21
f 39//39 25//25 3//3
f 39//39 3//3 22//22
f 5//5 28//28 40//40
f 5//5 40//40 24//24
f 41//41 42//42 26//26
f 41//41 26//26 25//25
f 27//27 43//43 44//44
f 27//27 44//44 28//28
f 42//42 45//45 29//29
f 42//42 29//29 26//26
f 30//30 46//46 43//43
f 30//30 43//43 27//27
f 45//45 47//47 31//31
f 45//45 31//31 29//29
f 32//32 48//48 46//46
f 32//32 46//46 30//30
f 47//47 49//49 33//33
f 47//47 33//33 31//31
f 34//34 50//50 48//48
f 34//34 48//48 32//32
f 49//49 51//51 35//35
f 49//49 35//35 33//33
f 36//36 52//52 50//50
f 36//36 50//50 34//34
f 51//51 53//53 37//37
f 51//51 37//37 35//35
f 38//38 54//54 52//52
f 38//38 52//52 36//36
f 53//53 55//55 39//39
f 53//53 39//39 37//37
f 40//40 56//56 54//54
f 40//40 54//54 38//38
f 55//55 41//41 25//25
f 55//55 25//25 39//39
f 28//28 44//44 56//56
f 28//28 56//56 40//40
f 57//57 58//58 42//42
f 57//57 42//42 41//41
f 43//43 59//59 60//60
f 43//43 60//60 44//44
f 58//58 61//61 45//45
f 58//58 45//45 42//42
f 46//46 62//62 59//59
f 46//46 59//59 43//43
f 61//61 63//63 47//47
f 61//61 47//47 45//45
f 48//48 64//64 62//62
f 48//48 62//62 46//46
f 63//63 65//65 49//49
f 63//63 49//49 47//47
f 50//50 66//66 64//64
f 50//50 64//64 48//48
f 65//65 67//67 51//51
f 65//65 51//51 49//49
f 52//52 68//68 66//66
f 52//52 66//66 50//50
f 67//67 69//69 53//53
f 67//67 53//53 51//51
f 54//54 70//70 68//68
f 54//54 68//68 52//52
f 69//69 71//71 55//55
f 69//69 55//55 53//53
f 56//56 72//72 70//70
f 56//56 70//70 54//54
f 71//71 57//57 41//41
f 71//71 41//41 55//55
f 44//44 60//60 72//72
f 44//44 72//72 56//56
f 73//73 74//74 58//58
f 73//73 58//58 57//57
f 59//59 75//75 76//76
f 59//59 76//76 60//60
f 74//74 77//77 61//61
f 74//74 61//61 58//58
f 62//62 78//78 75//75
f 62//62 75//75 59//59
f 77//77 79//79 63//63
f 77//77 63//63 61//61
f 64//64 80//80 78//78
f 64//64 78//78 62//62
f 79//79 81//81 65//65
f 79//79 65//65 63//63
f 66//66 82//82 80//80
f 66//66 80//80 64//64
f 81//81 83//83 67//67
f 81//81 67//67 65//65
f 68//68 84//84 82//82
f 68//68 82//82 66//66
f 83//83 85//85 69//69
f 83//83 69//69 67//67
f 70//70 86//86 84//84
f 70//70 84//84 68//68
f 85//85 87//87 71//71
f 85//85 71//71 69//69
f 72//72 88//88 86//86
f 72//72 86//86 70//70
f 87//87 73//73 57//57
f 87//87 57//57 71//71
f 60//60 76//76 88//88
f 60//60 88//88 72//72
f 89//89 90//90 91//91
f 89//89 91//91 92//92
f 93//93 94//94 95//95
f 93//93 95//95 96//96
f 90//90 97//97 98//98
f 90//90 98//98 91//91
f 99//99 100//100 94//94
f 99//99 94//94 93//93
f 97//97 101//101 102//102
f 97//97 102//102 98//98
f 103//103 104//104 100//100
f 103//103 100//100 99//99
f 101//101 105//105 106//106
f 101//101 106//106 102//102
f 107//107 108//108 104//104
f 107//107 104//104 103//103
f 105//105 109//109 110//110
f 105//105 110//110 106//106
f 111//111 112//112 108//108
f 111//111 108//108 107//107
f 109//109 113//113 114//114
f 109//109 114//114 110//110
f 115//115 116//116 112//112
f 115//115 112//112 111//111
f 113//113 117//117 118//118
f 113//113 118//118 114//114
f 119//119 120//120 116//116
f 119//119 116//116 115//115
f 117//117 89//89 92//92
f 117//117 92//92 118//118
f 96//96 95//95 120//120
f 96//96 120//120 119//119
f 121//121 122//122 90//90
f 121//121 90//90 89//89
f 94//94 123//123 124//124
f 94//94 124//124 95//95
f 122//122 125//125 97//97
f 122//122 97//97 90//90
f 100//100 126//126 123//123
f 100//100 123//123 94//94
f 125//125 127//127 101//101
f 125//125 101//101 97//97
f 104//104 128//128 126//126
f 104//104 126//126 100//100
f 127//127 129//129 105//105
f 127//127 105//105 101//101
f 108//108 130//130 128//128
f 108//108 128//128 104//104
f 129//129 131//131 109//109
f 129//129 109//109 105//105
f 112//112 132//132 130//130
f 112//112 130//130 108//108
f 131//131 133//133 113//113
f 131//131 113//113 109//109
f 116//116 134//134 132//132
f 116//116 132//132 112//112
f 133//133 135//135 117//117
f 133//133 117//117 113//113
f 120//120 136//136 134//134
f 120//120 134//134 116//116
f 135//135 121//121 89//89
f 135//135 89//89 117//117
f 95//95 124//124 136//136
f 95//95 136//136 120//120
f 137//137 138//138 122//122
f 137//137 122//122 121//121
f 123//123 139//139 140//140
f 123//123 140//140 124//124
f 138//138 141//141 125//125
f 138//138 125//125 122//122
f 126//126 142//142 139//139
f 126//126 139//139 123//123
f 141//141 143//143 127//127
f 141//141 127//127 125//125
f 128//128 144//144 142//142
f 128//128 142//142 126//126
f 143//143 145//145 129//129
f 143//143 129//129 127//127
f 130//130 146//146 144//144
f 130//130 144//144 128//128
f 145//145 147//147 131//131
f 145//145 131//131 129//129
f 132//132 148//148 146//146
f 132//132 146//146 130//130
f 147//147 149//149 133//133
f 147//147 133//133 131//131
f 134//134 150//150 148//148
f 134//134 148//148 132//132
f 149//149 151//151 135//135
f 149//149 135//135 133//133
f 136//136 152//152 150//150
f 136//136 150//150 134//134
f 151//151 137//137 121//121
f 151//151 121//121 135//135
f 124//124 140//140 152//152
f 124//124 152//152 136//136
f 153//153 154//154 138//138
f 153//153 138//138 137//137
f 139//139 155//155 156//156
f 139//139 156//156 140//140
f 154//154 157//157 141//141
f 154//154 141//141 138//138
f 142//142 158//158 155//155
f 142//142 155//155 139//139
f 157//157 159//159 143//143
f 157//157 143//143 141//141
f 144//144 160//160 158//158
f 144//144 158//158 142//142
f 159//159 161//161 145//145
f 159//159 145//145 143//143
f 146//146 162//162 160//160
f 146//146 160//160 144//144
f 161//161 163//163 147//147
f 161//161 147//147 145//145
f 148//148 164//164 162//162
f 148//148 162//162 146//146
f 163//163 165//165 149//149
f 163//163 149//149 147//147
f 150//150 166//166 164//164
f 150//150 164//164 148//148
f 165//165 167//167 151//151
f 165//165 151//151 149//149
f 152//152 168//168 166//166
f 152//152 166//166 150//150
f 167//167 153//153 137//137
f 167//167 137//137 151//151
f 140//140 156//156 168//168
f 140//140 168//168 152//152
f 169//169 170//170 154//154
f 169//169 154//154 153//153
f 155//155 171//171 172//172
f 155//155 172//172 156//156
f 170//170 173//173 157//157
f 170//170 157//157 154//154
f 158//158 174//174 171//171
f 158//158 171//171 155//155
f 173//173 175//175 159//159
f 173//173 159//159 157//157
f 160//160 176//176 174//174
f 160//160 174//174 158//158
f 175//175 177//177 161//161
f 175//175 161//161 159//159
f 162//162 178//178 176//176
f 162//162 176//176 160//160
f 177//177 179//179 163//163
f 177//177 163//163 161//161
f 164//164 180//180 178//178
f 164//164 178//178 162//162
f 179//179 181//181 165//165
f 179//179 165//165 163//163
f 166//166 182//182 180//180
f 166//166 180//180 164//164
f 181//181 183//183 167//167
f 181//181 167//167 165//165
f 168//168 184//184 182//182
f 168//168 182//182 166//166
f 183//183 169//169 153//153
f 183//183 153//153 167//167
f 156//156 172//172 184//184
f 156//156 184//184 168//168
f 185//185 186//186 170//170
f 185//185 170//170 169//169
f 171//171 186//186 185//185
f 171//171 185//185 172//172
f 186//186 187//187 173//173
f 186//186 173//173 170//170
f 174//174 187//187 186//186
f 174//174 186//186 171//171
f 187//187 188//188 175//175
f 187//187 175//175 173//173
f 176//176 188//188 187//187
f 176//176 187//187 174//174
f 189//189 190//190 181//181
f 189//189 181//181 179//179
f 182//182 190//190 189//189
f 182//182 189//189 180//180
f 190//190 191//191 183//183
f 190//190 183//183 181//181
f 184//184 191//191 190//190
f 184//184 190//190 182//182
f 191//191 185//185 169//169
f 191//191 169//169 183//183
f 172//172 185//185 191//191
f 172//172 191//191 184//184
f 91//91 192//192 193//193
f 91//91 193//193 92//92
f 194//194 195//195 93//93
f 194//194 93//93 96//96
f 192//192 74//74 73//73
f 192//192 73//73 193//193
f 76//76 75//75 195//195
f 76//76 195//195 194//194
f 98//98 196//196 192//192
f 98//98 192//192 91//91
f 195//195 197//197 99//99
f 195//195 99//99 93//93
f 196//196 77//77 74//74
f 196//196 74//74 192//192
f 75//75 78//78 197//197
f 75//75 197//197 195//195
f 102//102 198//198 196//196
f 102//102 196//196 98//98
f 197//197 199//199 103//103
f 197//197 103//103 99//99
f 198//198 79//79 77//77
f 198//198 77//77 196//196
f 78//78 80//80 199//199
f 78//78 199//199 197//197
f 114//114 200//200 201//201
f 114//114 201//201 110//110
f 202//202 203//203 115//115
f 202//202 115//115 111//111
f 200//200 85//85 83//83
f 200//200 83//83 201//201
f 84//84 86//86 203//203
f 84//84 203//203 202//202
f 118//118 204//204 200//200
f 118//118 200//200 114//114
f 203//203 205//205 119//119
f 203//203 119//119 115//115
f 204//204 87//87 85//85
f 204//204 85//85 200//200
f 86//86 88//88 205//205
f 86//86 205//205 203//203
f 92//92 193//193 204//204
f 92//92 204//204 118//118
f 205//205 194//194 96//96
f 205//205 96//96 119//119
f 193//193 73//73 87//87
f 193//193 87//87 204//204
f 88//88 76//76 194//194
f 88//88 194//194 205//205
f 79//79 198//198 206//206
f 79//79 206//206 81//81
f 81//81 206//206 201//201
f 81//81 201//201 83//83
f 102//102 106//106 206//206
f 102//102 206//206 198//198
f 106//106 110//110 201//201
f 106//106 201//201 206//206
f 80//80 82//82 207//207
f 80//80 207//207 199//199
f 103//103 199//199 207//207
f 103//103 207//207 107//107
f 82//82 84//84 202//202
f 82//82 202//202 207//207
f 107//107 207//207 202//202
f 107//107 202//202 111//111
f 178//178 180//180 189//189
f 178//178 189//189 208//208
f 177//177 208//208 189//189
f 177//177 189//189 179//179
f 175//175 188//188 208//208
f 175//175 208//208 177//177
f 176//176 178//178 208//208
f 176//176 208//208 188//188
