# Generated by lxe_pbrt_scene_convert
v -2.47224307 0.498136997 0.426135987
v -2.44551611 0.502763987 0.424540997
v -2.44548202 0.465844989 0.427085012
v -2.4711051 0.465844989 0.428335994
v -2.44468999 0.502906978 0.424492002
v -2.44468999 0.465844989 0.427046001
v -2.47271895 0.511804998 0.427872986
v -2.44536495 0.516683996 0.427294999
v -2.44451904 0.516834974 0.427276999
v -2.4461019 0.465844989 0.473125994
v -2.44528699 0.465844989 0.473228008
v -2.44423389 0.502330005 0.477470011
v -2.44509506 0.502179027 0.477369994
v -2.47246099 0.465844989 0.469810992
v -2.47292709 0.497307986 0.474151999
v -2.44379401 0.516999006 0.475537002
v -2.44467402 0.516785026 0.475439996
v -2.47312188 0.509876013 0.472290009
v -2.44536495 0.516683996 0.427294999
v -2.47271895 0.511804998 0.427872986
v -2.47437692 0.515008986 0.438252002
v -2.445328 0.52098 0.437965989
v -2.44451904 0.516834974 0.427276999
v -2.44443011 0.521164 0.437956989
v -2.47532511 0.516421974 0.450906992
v -2.44535708 0.523335993 0.451065987
v -2.44443011 0.523549974 0.451070994
v -2.44559097 0.465844989 0.450910002
v -2.47472692 0.465844989 0.450073004
v -2.47289801 0.465844989 0.439096004
v -2.4455359 0.465844989 0.438878
v -2.44468999 0.465844989 0.45093599
v -2.44468999 0.465844989 0.43887201
v -2.4711051 0.465844989 0.428335994
v -2.44548202 0.465844989 0.427085012
v -2.44468999 0.465844989 0.427046001
v -2.47459507 0.514434993 0.463409007
v -2.44515204 0.520964026 0.465303987
v -2.444242 0.521166027 0.465362012
v -2.47312188 0.509876013 0.472290009
v -2.44467402 0.516785026 0.475439996
v -2.44379401 0.516999006 0.475537002
v -2.4461019 0.465844989 0.473125994
v -2.47359395 0.465844989 0.459942013
v -2.44584703 0.465844989 0.462018013
v -2.44528699 0.465844989 0.473228008
v -2.44498897 0.465844989 0.462081999
v -2.49667811 0.493907988 0.427543014
v -2.49452996 0.465844989 0.429479986
v -2.49791193 0.465844989 0.439294994
v -2.501513 0.494771987 0.438149989
v -2.49490404 0.504972994 0.429235995
v -2.49921799 0.507772028 0.438513011
v -2.50136304 0.465844989 0.449308008
v -2.50314689 0.494614005 0.450170994
v -2.50134706 0.50812602 0.449914992
v -2.44468999 0.505135 0.451214999
v -2.44468999 0.465844989 0.45093599
v -2.44468999 0.465844989 0.43887201
v -2.44468999 0.504010022 0.438226998
v -2.44443011 0.523549974 0.451070994
v -2.44443011 0.521164 0.437956989
v -2.44468999 0.465844989 0.427046001
v -2.44468999 0.502906978 0.424492002
v -2.44451904 0.516834974 0.427276999
v -2.49896002 0.465844989 0.458045006
v -2.50179791 0.494253993 0.460326999
v -2.49913502 0.50733602 0.461282015
v -2.49655795 0.465844989 0.46678099
v -2.49837089 0.492855012 0.470483989
v -2.49734712 0.504157007 0.469500989
v -2.44423389 0.502330005 0.477470011
v -2.44498897 0.465844989 0.462081999
v -2.44446206 0.503732026 0.464116007
v -2.44379401 0.516999006 0.475537002
v -2.444242 0.521166027 0.465362012
v -2.49452996 0.465844989 0.429479986
v -2.49667811 0.493907988 0.427543014
v -2.49490404 0.504972994 0.429235995
v -2.49837089 0.492855012 0.470483989
v -2.49655795 0.465844989 0.46678099
v -2.49734712 0.504157007 0.469500989
v -2.49921799 0.507772028 0.438513011
v -2.50136304 0.465844989 0.449308008
v -2.49791193 0.465844989 0.439294994
v -2.49452996 0.465844989 0.429479986
v -2.49913502 0.50733602 0.461282015
v -2.49896002 0.465844989 0.458045006
v -2.47224307 0.498136997 -0.426135987
v -2.4711051 0.465844989 -0.428335994
v -2.44548202 0.465844989 -0.427085012
v -2.44551611 0.502763987 -0.424540997
v -2.44468999 0.465844989 -0.427046001
v -2.44468999 0.502906978 -0.424492002
v -2.44536495 0.516683996 -0.427294999
v -2.47271895 0.511804998 -0.427872986
v -2.44451904 0.516834974 -0.427276999
v -2.4461019 0.465844989 -0.473125994
v -2.44509506 0.502179027 -0.477369994
v -2.44423389 0.502330005 -0.477470011
v -2.44528699 0.465844989 -0.473228008
v -2.47246099 0.465844989 -0.469810992
v -2.47292709 0.497307986 -0.474151999
v -2.44467402 0.516785026 -0.475439996
v -2.44379401 0.516999006 -0.475537002
v -2.47312188 0.509876013 -0.472290009
v -2.44536495 0.516683996 -0.427294999
v -2.445328 0.52098 -0.437965989
v -2.47437692 0.515008986 -0.438252002
v -2.47271895 0.511804998 -0.427872986
v -2.44451904 0.516834974 -0.427276999
v -2.44443011 0.521164 -0.437956989
v -2.44535708 0.523335993 -0.451065987
v -2.47532511 0.516421974 -0.450906992
v -2.44443011 0.523549974 -0.451070994
v -2.44559097 0.465844989 -0.450910002
v -2.4455359 0.465844989 -0.438878
v -2.47289801 0.465844989 -0.439096004
v -2.47472692 0.465844989 -0.450073004
v -2.44468999 0.465844989 -0.45093599
v -2.44468999 0.465844989 -0.43887201
v -2.44548202 0.465844989 -0.427085012
v -2.4711051 0.465844989 -0.428335994
v -2.44468999 0.465844989 -0.427046001
v -2.44515204 0.520964026 -0.465303987
v -2.47459507 0.514434993 -0.463409007
v -2.444242 0.521166027 -0.465362012
v -2.44467402 0.516785026 -0.475439996
v -2.47312188 0.509876013 -0.472290009
v -2.44379401 0.516999006 -0.475537002
v -2.4461019 0.465844989 -0.473125994
v -2.44584703 0.465844989 -0.462018013
v -2.47359395 0.465844989 -0.459942013
v -2.44528699 0.465844989 -0.473228008
v -2.44498897 0.465844989 -0.462081999
v -2.49667811 0.493907988 -0.427543014
v -2.501513 0.494771987 -0.438149989
v -2.49791193 0.465844989 -0.439294994
v -2.49452996 0.465844989 -0.429479986
v -2.49490404 0.504972994 -0.429235995
v -2.49921799 0.507772028 -0.438513011
v -2.50314689 0.494614005 -0.450170994
v -2.50136304 0.465844989 -0.449308008
v -2.50134706 0.50812602 -0.449914992
v -2.44468999 0.505135 -0.451214999
v -2.44468999 0.504010022 -0.438226998
v -2.44468999 0.465844989 -0.43887201
v -2.44468999 0.465844989 -0.45093599
v -2.44443011 0.523549974 -0.451070994
v -2.44443011 0.521164 -0.437956989
v -2.44468999 0.502906978 -0.424492002
v -2.44468999 0.465844989 -0.427046001
v -2.44451904 0.516834974 -0.427276999
v -2.50179791 0.494253993 -0.460326999
v -2.49896002 0.465844989 -0.458045006
v -2.49913502 0.50733602 -0.461282015
v -2.49837089 0.492855012 -0.470483989
v -2.49655795 0.465844989 -0.46678099
v -2.49734712 0.504157007 -0.469500989
v -2.44423389 0.502330005 -0.477470011
v -2.44446206 0.503732026 -0.464116007
v -2.44498897 0.465844989 -0.462081999
v -2.44379401 0.516999006 -0.475537002
v -2.444242 0.521166027 -0.465362012
v -2.49667811 0.493907988 -0.427543014
v -2.49452996 0.465844989 -0.429479986
v -2.49490404 0.504972994 -0.429235995
v -2.49837089 0.492855012 -0.470483989
v -2.49655795 0.465844989 -0.46678099
v -2.49734712 0.504157007 -0.469500989
v -2.49921799 0.507772028 -0.438513011
v -2.49791193 0.465844989 -0.439294994
v -2.50136304 0.465844989 -0.449308008
v -2.49452996 0.465844989 -0.429479986
v -2.49913502 0.50733602 -0.461282015
v -2.49896002 0.465844989 -0.458045006
vt 0.5 0.5
vt 0.985000014 0.5
vt 0.75 0
vt 0.5 0
vt 1 0.5
vt 1 0
vt 0.5 1
vt 0.75 1
vt 1 1
vt 0.25 0
vt 0 0
vt -0 0.5
vt 0.25 0.5
vt 0.5 0
vt 0.5 0.5
vt 0 1
vt 0.25 1
vt 0.5 1
vt -0 0.25
vt 0 0.5
vt 0.25 0.5
vt 0.25 0.0149999997
vt 0 0
vt 0.25 0
vt 0.5 0.5
vt 0.5 0.25
vt 0.5 0
vt 0.75 0.5
vt 0.5 0.5
vt 0.5 0.75
vt 0.75 0.75
vt 1 0.5
vt 1 0.75
vt 0.5 1
vt 0.75 1
vt 1 1
vt 0.75 0.5
vt 0.75 0.0149999997
vt 0.75 0
vt 1 0.5
vt 1 0.25
vt 1 0
vt 0.75 0
vt 0.5 0.25
vt 0.985000014 0.25
vt 1 0
vt 1 0.25
vt 1 0.5
vt 1 0
vt 0.75 0
vt 0.75 0.5
vt 1 1
vt 0.75 1
vt 0.5 0
vt 0.5 0.704999983
vt 0.5 1
vt 0.5 0.704999983
vt 0.5 0
vt 0.25 0
vt 0.25 0.5
vt 0.5 1
vt 0.25 1
vt 0 0
vt 0 0.5
vt 0 1
vt 0.25 0
vt 0.25 0.5
vt 0.25 1
vt 0 0
vt 0 0.5
vt 0 1
vt 1 0.5
vt 0.75 0
vt 0.75 0.704999983
vt 1 1
vt 0.75 1
vt 0 0
vt 0 0.5
vt 0 1
vt 1 0.5
vt 1 0
vt 1 1
vt 0.25 1
vt 0 0.5
vt -0 0.75
vt 0 1
vt 0.75 1
vt 0 0.25
vt 0.5 0.5
vt 0.5 0
vt 0.75 0
vt 0.985000014 0.5
vt 1 0
vt 1 0.5
vt 0.75 1
vt 0.5 1
vt 1 1
vt 0.25 0
vt 0.25 0.5
vt -0 0.5
vt 0 0
vt 0.5 0
vt 0.5 0.5
vt 0.25 1
vt 0 1
vt 0.5 1
vt -0 0.25
vt 0.25 0.0149999997
vt 0.25 0.5
vt 0 0.5
vt 0 0
vt 0.25 0
vt 0.5 0.25
vt 0.5 0.5
vt 0.5 0
vt 0.75 0.5
vt 0.75 0.75
vt 0.5 0.75
vt 0.5 0.5
vt 1 0.5
vt 1 0.75
vt 0.75 1
vt 0.5 1
vt 1 1
vt 0.75 0.0149999997
vt 0.75 0.5
vt 0.75 0
vt 1 0.25
vt 1 0.5
vt 1 0
vt 0.75 0
vt 0.985000014 0.25
vt 0.5 0.25
vt 1 0
vt 1 0.25
vt 1 0.5
vt 0.75 0.5
vt 0.75 0
vt 1 0
vt 1 1
vt 0.75 1
vt 0.5 0.704999983
vt 0.5 0
vt 0.5 1
vt 0.5 0.704999983
vt 0.25 0.5
vt 0.25 0
vt 0.5 0
vt 0.5 1
vt 0.25 1
vt 0 0.5
vt 0 0
vt 0 1
vt 0.25 0.5
vt 0.25 0
vt 0.25 1
vt 0 0.5
vt 0 0
vt 0 1
vt 1 0.5
vt 0.75 0.704999983
vt 0.75 0
vt 1 1
vt 0.75 1
vt 0 0.5
vt 0 0
vt 0 1
vt 1 0.5
vt 1 0
vt 1 1
vt 0.25 1
vt -0 0.75
vt 0 0.5
vt 0 1
vt 0.75 1
vt 0 0.25
vn -0.0645999983 0.0401999988 -0.997099996
vn -0.0595999993 0.0537 -0.996800005
vn -0.0328000002 -0.731000006 -0.681500018
vn -0.0324000008 -0.731400013 -0.681100011
vn 0.653999984 0.0551000014 -0.754499972
vn 0.568700016 -0.592700005 -0.570299983
vn -0.178100005 0.620400012 -0.763800025
vn -0.144700006 0.627900004 -0.764699996
vn 0.558499992 0.548200011 -0.622500002
vn -0.0724999979 -0.747699976 0.660000026
vn 0.54460001 -0.609499991 0.576099992
vn 0.637700021 0.00520000001 0.770299971
vn -0.125 0.00949999969 0.9921
vn -0.0758000016 -0.752300024 0.654399991
vn -0.131200001 -0.000899999985 0.991299987
vn 0.549199998 0.533100009 0.64349997
vn -0.215700001 0.57950002 0.785899997
vn -0.224600002 0.560800016 0.796800017
vn -0.144700006 0.627900004 -0.764699996
vn -0.178100005 0.620400012 -0.763800025
vn -0.243000001 0.939700007 -0.240700006
vn -0.197300002 0.945200026 -0.259900004
vn 0.558499992 0.548200011 -0.622500002
vn 0.61619997 0.756699979 -0.218400002
vn -0.25850001 0.965900004 0.0152000003
vn -0.219899997 0.975499988 0.000899999985
vn 0.589100003 0.808000028 -0.00930000003
vn 0 -1 0
vn 0 -1 0
vn 0 -1 0
vn 0 -1 0
vn 0.708899975 -0.705299973 0.000899999985
vn 0.707099974 -0.707099974 0
vn -0.0324000008 -0.731400013 -0.681100011
vn -0.0328000002 -0.731000006 -0.681500018
vn 0.568700016 -0.592700005 -0.570299983
vn -0.25940001 0.918799996 0.297600001
vn -0.233400002 0.9296 0.285299987
vn 0.597199976 0.773500025 0.212099999
vn -0.224600002 0.560800016 0.796800017
vn -0.215700001 0.57950002 0.785899997
vn 0.549199998 0.533100009 0.64349997
vn -0.0724999979 -0.747699976 0.660000026
vn 0 -1 0
vn 0 -1 0
vn 0.54460001 -0.609499991 0.576099992
vn 0.702099979 -0.712000012 0.00150000001
vn -0.58069998 0.0282000005 -0.813600004
vn -0.442900002 -0.637000024 -0.630900025
vn -0.638400018 -0.743399978 -0.199499995
vn -0.952600002 0.0373999998 -0.301800013
vn -0.492799997 0.486699998 -0.721300006
vn -0.708999991 0.642400026 -0.290699989
vn -0.737800002 -0.674799979 -0.0152000003
vn -0.99940002 0.0335999988 -0.00260000001
vn -0.773199975 0.634000003 0.0105999997
vn 0.999899983 -0.00889999978 -0.00340000005
vn 0.708899975 -0.705299973 0.000899999985
vn 0.707099974 -0.707099974 0
vn 1 -0.00700000022 0.000300000014
vn 0.589100003 0.808000028 -0.00930000003
vn 0.61619997 0.756699979 -0.218400002
vn 0.568700016 -0.592700005 -0.570299983
vn 0.653999984 0.0551000014 -0.754499972
vn 0.558499992 0.548200011 -0.622500002
vn -0.651000023 -0.741900027 0.1602
vn -0.970600009 0.0293000005 0.238700002
vn -0.70389998 0.645099998 0.297199994
vn -0.495299995 -0.654799998 0.570900023
vn -0.64380002 -0.0105999997 0.765100002
vn -0.569199979 0.439599991 0.694800019
vn 0.637700021 0.00520000001 0.770299971
vn 0.702099979 -0.712000012 0.00150000001
vn 0.999800026 -0.0154999997 -0.0116999997
vn 0.549199998 0.533100009 0.64349997
vn 0.597199976 0.773500025 0.212099999
vn -0.442900002 -0.637000024 -0.630900025
vn -0.58069998 0.0282000005 -0.813600004
vn -0.492799997 0.486699998 -0.721300006
vn -0.64380002 -0.0105999997 0.765100002
vn -0.495299995 -0.654799998 0.570900023
vn -0.569199979 0.439599991 0.694800019
vn -0.708999991 0.642400026 -0.290699989
vn -0.737800002 -0.674799979 -0.0152000003
vn -0.638400018 -0.743399978 -0.199499995
vn -0.442900002 -0.637000024 -0.630900025
vn -0.70389998 0.645099998 0.297199994
vn -0.651000023 -0.741900027 0.1602
vn -0.0645999983 0.0401999988 0.997099996
vn -0.0324000008 -0.731400013 0.681100011
vn -0.0328000002 -0.731000006 0.681500018
vn -0.0595999993 0.0537 0.996800005
vn 0.568700016 -0.592700005 0.570299983
vn 0.653999984 0.0551000014 0.754499972
vn -0.144700006 0.627900004 0.764699996
vn -0.178100005 0.620400012 0.763800025
vn 0.558499992 0.548200011 0.622500002
vn -0.0724999979 -0.747699976 -0.660000026
vn -0.125 0.00949999969 -0.9921
vn 0.637700021 0.00529999984 -0.770299971
vn 0.54460001 -0.609499991 -0.576099992
vn -0.0758000016 -0.752300024 -0.654399991
vn -0.131200001 -0.000899999985 -0.991299987
vn -0.215700001 0.57950002 -0.785899997
vn 0.549199998 0.533100009 -0.64349997
vn -0.224600002 0.560800016 -0.796800017
vn -0.144700006 0.627900004 0.764699996
vn -0.197300002 0.945200026 0.259900004
vn -0.243000001 0.939700007 0.240700006
vn -0.178100005 0.620400012 0.763800025
vn 0.558499992 0.548200011 0.622500002
vn 0.61619997 0.756699979 0.218400002
vn -0.219899997 0.975499988 -0.000899999985
vn -0.25850001 0.965900004 -0.0152000003
vn 0.589100003 0.808000028 0.00930000003
vn 0 -1 0
vn 0 -1 0
vn 0 -1 0
vn 0 -1 0
vn 0.708899975 -0.705299973 -0.000899999985
vn 0.707099974 -0.707099974 0
vn -0.0328000002 -0.731000006 0.681500018
vn -0.0324000008 -0.731400013 0.681100011
vn 0.568700016 -0.592700005 0.570299983
vn -0.233400002 0.9296 -0.285299987
vn -0.25940001 0.918799996 -0.297600001
vn 0.597199976 0.773500025 -0.212099999
vn -0.215700001 0.57950002 -0.785899997
vn -0.224600002 0.560800016 -0.796800017
vn 0.549199998 0.533100009 -0.64349997
vn -0.0724999979 -0.747699976 -0.660000026
vn 0 -1 0
vn 0 -1 0
vn 0.54460001 -0.609499991 -0.576099992
vn 0.702099979 -0.712000012 -0.00150000001
vn -0.58069998 0.0281000007 0.813600004
vn -0.952600002 0.0373999998 0.301800013
vn -0.638400018 -0.743399978 0.199499995
vn -0.442900002 -0.637000024 0.630900025
vn -0.492799997 0.486699998 0.721300006
vn -0.708999991 0.642400026 0.290699989
vn -0.99940002 0.0335999988 0.00260000001
vn -0.737800002 -0.674799979 0.0152000003
vn -0.773199975 0.634000003 -0.0105999997
vn 0.999899983 -0.00889999978 0.00340000005
vn 1 -0.00700000022 -0.000300000014
vn 0.707099974 -0.707099974 0
vn 0.708899975 -0.705299973 -0.000899999985
vn 0.589100003 0.808000028 0.00930000003
vn 0.61619997 0.756699979 0.218400002
vn 0.653999984 0.0551000014 0.754499972
vn 0.568700016 -0.592700005 0.570299983
vn 0.558499992 0.548200011 0.622500002
vn -0.970600009 0.0293000005 -0.238700002
vn -0.651000023 -0.741900027 -0.1602
vn -0.70389998 0.645099998 -0.297199994
vn -0.64380002 -0.0105999997 -0.765100002
vn -0.495299995 -0.654799998 -0.570900023
vn -0.569199979 0.439599991 -0.694800019
vn 0.637700021 0.00529999984 -0.770299971
vn 0.999800026 -0.0154999997 0.0116999997
vn 0.702099979 -0.712000012 -0.00150000001
vn 0.549199998 0.533100009 -0.64349997
vn 0.597199976 0.773500025 -0.212099999
vn -0.58069998 0.0281000007 0.813600004
vn -0.442900002 -0.637000024 0.630900025
vn -0.492799997 0.486699998 0.721300006
vn -0.64380002 -0.0105999997 -0.765100002
vn -0.495299995 -0.654799998 -0.570900023
vn -0.569199979 0.439599991 -0.694800019
vn -0.708999991 0.642400026 0.290699989
vn -0.638400018 -0.743399978 0.199499995
vn -0.737800002 -0.674799979 0.0152000003
vn -0.442900002 -0.637000024 0.630900025
vn -0.70389998 0.645099998 -0.297199994
vn -0.651000023 -0.741900027 -0.1602
f 1/1/1 2/2/2 3/3/3
f 1/1/1 3/3/3 4/4/4
f 2/2/2 5/5/5 6/6/6
f 2/2/2 6/6/6 3/3/3
f 2/2/2 1/1/1 7/7/7
f 2/2/2 7/7/7 8/8/8
f 5/5/5 2/2/2 8/8/8
f 5/5/5 8/8/8 9/9/9
f 10/10/10 11/11/11 12/12/12
f 10/10/10 12/12/12 13/13/13
f 14/14/14 10/10/10 13/13/13
f 14/14/14 13/13/13 15/15/15
f 13/13/13 12/12/12 16/16/16
f 13/13/13 16/16/16 17/17/17
f 15/15/15 13/13/13 17/17/17
f 15/15/15 17/17/17 18/18/18
f 19/19/19 20/20/20 21/21/21
f 19/19/19 21/21/21 22/22/22
f 23/23/23 19/19/19 22/22/22
f 23/23/23 22/22/22 24/24/24
f 22/22/22 21/21/21 25/25/25
f 22/22/22 25/25/25 26/26/26
f 24/24/24 22/22/22 26/26/26
f 24/24/24 26/26/26 27/27/27
f 28/28/28 29/29/29 30/30/30
f 28/28/28 30/30/30 31/31/31
f 32/32/32 28/28/28 31/31/31
f 32/32/32 31/31/31 33/33/33
f 31/31/31 30/30/30 34/34/34
f 31/31/31 34/34/34 35/35/35
f 33/33/33 31/31/31 35/35/35
f 33/33/33 35/35/35 36/36/36
f 26/26/26 25/25/25 37/37/37
f 26/26/26 37/37/37 38/38/38
f 27/27/27 26/26/26 38/38/38
f 27/27/27 38/38/38 39/39/39
f 38/38/38 37/37/37 40/40/40
f 38/38/38 40/40/40 41/41/41
f 39/39/39 38/38/38 41/41/41
f 39/39/39 41/41/41 42/42/42
f 43/43/43 14/14/14 44/44/44
f 43/43/43 44/44/44 45/45/45
f 46/46/46 43/43/43 45/45/45
f 46/46/46 45/45/45 47/47/47
f 45/45/45 44/44/44 29/29/29
f 45/45/45 29/29/29 28/28/28
f 47/47/47 45/45/45 28/28/28
f 47/47/47 28/28/28 32/32/32
f 48/48/48 49/49/49 50/50/50
f 48/48/48 50/50/50 51/51/51
f 52/52/52 48/48/48 51/51/51
f 52/52/52 51/51/51 53/53/53
f 51/51/51 50/50/50 54/54/54
f 51/51/51 54/54/54 55/55/55
f 53/53/53 51/51/51 55/55/55
f 53/53/53 55/55/55 56/56/56
f 57/57/57 58/58/58 59/59/59
f 57/57/57 59/59/59 60/60/60
f 61/61/61 57/57/57 60/60/60
f 61/61/61 60/60/60 62/62/62
f 60/60/60 59/59/59 63/63/63
f 60/60/60 63/63/63 64/64/64
f 62/62/62 60/60/60 64/64/64
f 62/62/62 64/64/64 65/65/65
f 55/55/55 54/54/54 66/66/66
f 55/55/55 66/66/66 67/67/67
f 56/56/56 55/55/55 67/67/67
f 56/56/56 67/67/67 68/68/68
f 67/67/67 66/66/66 69/69/69
f 67/67/67 69/69/69 70/70/70
f 68/68/68 67/67/67 70/70/70
f 68/68/68 70/70/70 71/71/71
f 72/72/72 46/46/46 73/73/73
f 72/72/72 73/73/73 74/74/74
f 75/75/75 72/72/72 74/74/74
f 75/75/75 74/74/74 76/76/76
f 74/74/74 73/73/73 58/58/58
f 74/74/74 58/58/58 57/57/57
f 76/76/76 74/74/74 57/57/57
f 76/76/76 57/57/57 61/61/61
f 1/1/1 4/4/4 77/77/77
f 1/1/1 77/77/77 78/78/78
f 7/7/7 1/1/1 78/78/78
f 7/7/7 78/78/78 79/79/79
f 80/80/80 81/81/81 14/14/14
f 80/80/80 14/14/14 15/15/15
f 82/82/82 80/80/80 15/15/15
f 82/82/82 15/15/15 18/18/18
f 21/21/21 20/20/20 79/79/79
f 21/21/21 79/79/79 83/83/83
f 25/25/25 21/21/21 83/83/83
f 25/25/25 83/83/83 56/56/56
f 30/30/30 29/29/29 84/84/84
f 30/30/30 84/84/84 85/85/85
f 34/34/34 30/30/30 85/85/85
f 34/34/34 85/85/85 86/86/86
f 37/37/37 25/25/25 56/56/56
f 37/37/37 56/56/56 87/87/87
f 40/40/40 37/37/37 87/87/87
f 40/40/40 87/87/87 82/82/82
f 44/44/44 14/14/14 69/69/69
f 44/44/44 69/69/69 88/88/88
f 29/29/29 44/44/44 88/88/88
f 29/29/29 88/88/88 84/84/84
f 89/89/89 90/90/90 91/91/91
f 89/89/89 91/91/91 92/92/92
f 92/92/92 91/91/91 93/93/93
f 92/92/92 93/93/93 94/94/94
f 92/92/92 95/95/95 96/96/96
f 92/92/92 96/96/96 89/89/89
f 94/94/94 97/97/97 95/95/95
f 94/94/94 95/95/95 92/92/92
f 98/98/98 99/99/99 100/100/100
f 98/98/98 100/100/100 101/101/101
f 102/102/102 103/103/103 99/99/99
f 102/102/102 99/99/99 98/98/98
f 99/99/99 104/104/104 105/105/105
f 99/99/99 105/105/105 100/100/100
f 103/103/103 106/106/106 104/104/104
f 103/103/103 104/104/104 99/99/99
f 107/107/107 108/108/108 109/109/109
f 107/107/107 109/109/109 110/110/110
f 111/111/111 112/112/112 108/108/108
f 111/111/111 108/108/108 107/107/107
f 108/108/108 113/113/113 114/114/114
f 108/108/108 114/114/114 109/109/109
f 112/112/112 115/115/115 113/113/113
f 112/112/112 113/113/113 108/108/108
f 116/116/116 117/117/117 118/118/118
f 116/116/116 118/118/118 119/119/119
f 120/120/120 121/121/121 117/117/117
f 120/120/120 117/117/117 116/116/116
f 117/117/117 122/122/122 123/123/123
f 117/117/117 123/123/123 118/118/118
f 121/121/121 124/124/124 122/122/122
f 121/121/121 122/122/122 117/117/117
f 113/113/113 125/125/125 126/126/126
f 113/113/113 126/126/126 114/114/114
f 115/115/115 127/127/127 125/125/125
f 115/115/115 125/125/125 113/113/113
f 125/125/125 128/128/128 129/129/129
f 125/125/125 129/129/129 126/126/126
f 127/127/127 130/130/130 128/128/128
f 127/127/127 128/128/128 125/125/125
f 131/131/131 132/132/132 133/133/133
f 131/131/131 133/133/133 102/102/102
f 134/134/134 135/135/135 132/132/132
f 134/134/134 132/132/132 131/131/131
f 132/132/132 116/116/116 119/119/119
f 132/132/132 119/119/119 133/133/133
f 135/135/135 120/120/120 116/116/116
f 135/135/135 116/116/116 132/132/132
f 136/136/136 137/137/137 138/138/138
f 136/136/136 138/138/138 139/139/139
f 140/140/140 141/141/141 137/137/137
f 140/140/140 137/137/137 136/136/136
f 137/137/137 142/142/142 143/143/143
f 137/137/137 143/143/143 138/138/138
f 141/141/141 144/144/144 142/142/142
f 141/141/141 142/142/142 137/137/137
f 145/145/145 146/146/146 147/147/147
f 145/145/145 147/147/147 148/148/148
f 149/149/149 150/150/150 146/146/146
f 149/149/149 146/146/146 145/145/145
f 146/146/146 151/151/151 152/152/152
f 146/146/146 152/152/152 147/147/147
f 150/150/150 153/153/153 151/151/151
f 150/150/150 151/151/151 146/146/146
f 142/142/142 154/154/154 155/155/155
f 142/142/142 155/155/155 143/143/143
f 144/144/144 156/156/156 154/154/154
f 144/144/144 154/154/154 142/142/142
f 154/154/154 157/157/157 158/158/158
f 154/154/154 158/158/158 155/155/155
f 156/156/156 159/159/159 157/157/157
f 156/156/156 157/157/157 154/154/154
f 160/160/160 161/161/161 162/162/162
f 160/160/160 162/162/162 134/134/134
f 163/163/163 164/164/164 161/161/161
f 163/163/163 161/161/161 160/160/160
f 161/161/161 145/145/145 148/148/148
f 161/161/161 148/148/148 162/162/162
f 164/164/164 149/149/149 145/145/145
f 164/164/164 145/145/145 161/161/161
f 89/89/89 165/165/165 166/166/166
f 89/89/89 166/166/166 90/90/90
f 96/96/96 167/167/167 165/165/165
f 96/96/96 165/165/165 89/89/89
f 168/168/168 103/103/103 102/102/102
f 168/168/168 102/102/102 169/169/169
f 170/170/170 106/106/106 103/103/103
f 170/170/170 103/103/103 168/168/168
f 109/109/109 171/171/171 167/167/167
f 109/109/109 167/167/167 110/110/110
f 114/114/114 144/144/144 171/171/171
f 114/114/114 171/171/171 109/109/109
f 118/118/118 172/172/172 173/173/173
f 118/118/118 173/173/173 119/119/119
f 123/123/123 174/174/174 172/172/172
f 123/123/123 172/172/172 118/118/118
f 126/126/126 175/175/175 144/144/144
f 126/126/126 144/144/144 114/114/114
f 129/129/129 170/170/170 175/175/175
f 129/129/129 175/175/175 126/126/126
f 133/133/133 176/176/176 158/158/158
f 133/133/133 158/158/158 102/102/102
f 119/119/119 173/173/173 176/176/176
f 119/119/119 176/176/176 133/133/133
