# Generated by lxe_pbrt_scene_convert
v 0.799632013 0.336602986 1.838485
v 0.78530997 0.33237201 1.82802296
v 0.764957011 0.331023991 1.83094299
v 0.769792974 0.335198998 1.84200704
v 0.774785995 0.336605012 1.85410595
v 0.814338028 0.337956011 1.85004795
v 0.852061987 0.338072002 1.84248495
v 0.824575007 0.337262005 1.82950199
v 0.802644014 0.333095998 1.82096696
v 0.740373015 0.333732009 1.84416401
v 0.739785016 0.32969299 1.83274496
v 0.712803006 0.328272015 1.83331203
v 0.711964011 0.332029998 1.84484005
v 0.711153984 0.333124995 1.85732901
v 0.741029024 0.335049987 1.85656703
v 0.742586017 0.274138987 1.85812497
v 0.743683994 0.278263003 1.87177706
v 0.71449703 0.278766006 1.87097394
v 0.714021981 0.274742991 1.85765803
v 0.713438988 0.273218006 1.84420097
v 0.741375983 0.272657007 1.84426904
v 0.767334998 0.271479011 1.84356499
v 0.772074997 0.272832006 1.85745299
v 0.776759982 0.277020991 1.87106502
v 0.801889002 0.270767987 1.85539401
v 0.787191987 0.269650996 1.84191597
v 0.803878009 0.267890006 1.83770597
v 0.826914012 0.268289 1.84929299
v 0.855368018 0.272944987 1.86249697
v 0.816778004 0.274919987 1.86853504
v 0.633841991 0.323747009 1.83617306
v 0.638090014 0.321175009 1.82462394
v 0.61621201 0.317014992 1.81667197
v 0.606501997 0.319007009 1.82743299
v 0.596445024 0.319016993 1.83909798
v 0.629391015 0.324140996 1.848683
v 0.656328022 0.327659994 1.85342097
v 0.659326971 0.327223003 1.84112501
v 0.66219002 0.324427992 1.82982099
v 0.685158014 0.329921991 1.84391999
v 0.683251977 0.330657989 1.85629201
v 0.68701601 0.326655 1.83252704
v 0.686981976 0.274693996 1.8563
v 0.686142027 0.278652012 1.86896098
v 0.658234 0.278046995 1.86550105
v 0.660785973 0.27422601 1.85344994
v 0.663089991 0.272845 1.84129202
v 0.687650979 0.273196012 1.84353495
v 0.634751022 0.273568004 1.84850395
v 0.630385995 0.277076989 1.86036301
v 0.597202003 0.275377989 1.850981
v 0.607183993 0.272572011 1.84033298
v 0.616761982 0.271982014 1.82941401
v 0.63883698 0.272421986 1.83649504
v 0.575101972 0.312514991 1.81327403
v 0.544929981 0.305063993 1.79847801
v 0.514644027 0.303110987 1.804317
v 0.551495016 0.31120199 1.82168806
v 0.596445024 0.319016993 1.83909798
v 0.606501997 0.319007009 1.82743299
v 0.61621201 0.317014992 1.81667197
v 0.598052979 0.312065989 1.80570102
v 0.577144027 0.307222992 1.79856706
v 0.576388001 0.271086007 1.82780194
v 0.607183993 0.272572011 1.84033298
v 0.597202003 0.275377989 1.850981
v 0.553286016 0.272587001 1.83479297
v 0.517485976 0.271019995 1.818102
v 0.547019005 0.270498991 1.81411397
v 0.578279972 0.271926999 1.81382501
v 0.598738015 0.271580011 1.82031906
v 0.616761982 0.271982014 1.82941401
v 0.742219985 0.321902007 1.86223495
v 0.741029024 0.335049987 1.85656703
v 0.711153984 0.333124995 1.85732901
v 0.71212101 0.320356995 1.86289001
v 0.713138998 0.306250006 1.86713505
v 0.743192971 0.30725801 1.86675203
v 0.776983023 0.307870001 1.86468101
v 0.776193976 0.323085994 1.85986698
v 0.774785995 0.336605012 1.85410595
v 0.816555977 0.323911011 1.85595298
v 0.817395985 0.30795899 1.86107194
v 0.857073009 0.307336986 1.85450995
v 0.856076002 0.324147999 1.84895694
v 0.852061987 0.338072002 1.84248495
v 0.814338028 0.337956011 1.85004795
v 0.739329994 0.314819992 1.83428502
v 0.739785016 0.32969299 1.83274496
v 0.764957011 0.331023991 1.83094299
v 0.764077008 0.315964013 1.83293998
v 0.764199972 0.299914002 1.83638406
v 0.739313006 0.299194992 1.83735502
v 0.712392986 0.298456013 1.83762801
v 0.712532997 0.31368199 1.83470905
v 0.712803006 0.328272015 1.83331203
v 0.783501983 0.316745996 1.83064198
v 0.78530997 0.33237201 1.82802296
v 0.802644014 0.333095998 1.82096696
v 0.800195992 0.31703499 1.82460999
v 0.800336003 0.299686998 1.82936203
v 0.783623993 0.299966007 1.83456302
v 0.683384001 0.318450004 1.86166501
v 0.683934987 0.304978013 1.86567998
v 0.683251977 0.330657989 1.85629201
v 0.656328022 0.327659994 1.85342097
v 0.655525029 0.316154003 1.85860205
v 0.655480981 0.30339399 1.86243296
v 0.62806201 0.313437998 1.853742
v 0.629391015 0.324140996 1.848683
v 0.596445024 0.319016993 1.83909798
v 0.594422996 0.309240013 1.84395099
v 0.593891025 0.298220009 1.847597
v 0.627674997 0.301450014 1.85743797
v 0.686955988 0.312918007 1.83424199
v 0.686872005 0.298345 1.83735394
v 0.662326992 0.298049003 1.83516097
v 0.662320971 0.311789989 1.83182299
v 0.66219002 0.324427992 1.82982099
v 0.68701601 0.326655 1.83252704
v 0.638354003 0.309561998 1.82639301
v 0.638333976 0.296757996 1.82967496
v 0.617039979 0.294860989 1.82157099
v 0.61708498 0.306558013 1.81829906
v 0.61621201 0.317014992 1.81667197
v 0.638090014 0.321175009 1.82462394
v 0.540823996 0.296948999 1.80026102
v 0.544929981 0.305063993 1.79847801
v 0.577144027 0.307222992 1.79856706
v 0.57852602 0.299724996 1.800192
v 0.578604996 0.290542006 1.80420196
v 0.540688992 0.288376004 1.80427504
v 0.502636015 0.286920011 1.80947399
v 0.503087997 0.295307994 1.80563498
v 0.514644027 0.303110987 1.804317
v 0.849868 0.316864014 1.79596901
v 0.848070025 0.333344996 1.790815
v 0.861290991 0.333216012 1.79462004
v 0.864530027 0.317938 1.798491
v 0.865612984 0.298969001 1.80686998
v 0.850741029 0.298806012 1.80421495
v 0.833885014 0.299124986 1.80770504
v 0.833263993 0.316417009 1.80013597
v 0.833046973 0.330895007 1.79536402
v 0.548039019 0.302493989 1.82609701
v 0.547501028 0.292777985 1.829808
v 0.593891025 0.298220009 1.847597
v 0.594422996 0.309240013 1.84395099
v 0.596445024 0.319016993 1.83909798
v 0.551495016 0.31120199 1.82168806
v 0.514644027 0.303110987 1.804317
v 0.503087997 0.295307994 1.80563498
v 0.502636015 0.286920011 1.80947399
v 0.600543976 0.303103 1.80788505
v 0.598052979 0.312065989 1.80570102
v 0.61621201 0.317014992 1.81667197
v 0.61708498 0.306558013 1.81829906
v 0.617039979 0.294860989 1.82157099
v 0.600592971 0.292746007 1.81152296
v 0.578604996 0.290542006 1.80420196
v 0.57852602 0.299724996 1.800192
v 0.577144027 0.307222992 1.79856706
v 0.743628025 0.292353988 1.87023902
v 0.713925004 0.292084992 1.87005699
v 0.71449703 0.278766006 1.87097394
v 0.743683994 0.278263003 1.87177706
v 0.776759982 0.277020991 1.87106502
v 0.77721101 0.292077005 1.86879694
v 0.817839026 0.291099012 1.86568499
v 0.816778004 0.274919987 1.86853504
v 0.855368018 0.272944987 1.86249697
v 0.857903004 0.289407015 1.85968304
v 0.740136027 0.284774989 1.84024298
v 0.765340984 0.28460601 1.83945596
v 0.767334998 0.271479011 1.84356499
v 0.741375983 0.272657007 1.84426904
v 0.713438988 0.273218006 1.84420097
v 0.712786973 0.284666985 1.84036005
v 0.784476995 0.28372401 1.83782005
v 0.800783992 0.282736003 1.83329201
v 0.803878009 0.267890006 1.83770597
v 0.787191987 0.269650996 1.84191597
v 0.684942007 0.291420996 1.86829805
v 0.686142027 0.278652012 1.86896098
v 0.65654099 0.290381998 1.86490405
v 0.658234 0.278046995 1.86550105
v 0.628584981 0.288985997 1.85981596
v 0.59482199 0.286563009 1.85011494
v 0.597202003 0.275377989 1.850981
v 0.630385995 0.277076989 1.86036301
v 0.687222004 0.28471899 1.83998799
v 0.687650979 0.273196012 1.84353495
v 0.663089991 0.272845 1.84129202
v 0.662765026 0.284565002 1.83784604
v 0.713438988 0.273218006 1.84420097
v 0.638740003 0.283834994 1.83265102
v 0.63883698 0.272421986 1.83649504
v 0.616761982 0.271982014 1.82941401
v 0.617367983 0.282799989 1.82503498
v 0.541976988 0.279053003 1.808604
v 0.579118013 0.280510992 1.80872297
v 0.578279972 0.271926999 1.81382501
v 0.547019005 0.270498991 1.81411397
v 0.517485976 0.271019995 1.818102
v 0.504819989 0.277994007 1.81328702
v 0.851505995 0.280927986 1.81231594
v 0.866541982 0.28044799 1.81514001
v 0.864790022 0.266467005 1.82373798
v 0.851127028 0.265179008 1.82115805
v 0.83525598 0.267544001 1.82195902
v 0.83446902 0.281800985 1.81498694
v 0.548996985 0.282442987 1.83288002
v 0.553286016 0.272587001 1.83479297
v 0.597202003 0.275377989 1.850981
v 0.59482199 0.286563009 1.85011494
v 0.504819989 0.277994007 1.81328702
v 0.517485976 0.271019995 1.818102
v 0.60087198 0.281724989 1.81562996
v 0.617367983 0.282799989 1.82503498
v 0.616761982 0.271982014 1.82941401
v 0.598738015 0.271580011 1.82031906
v 0.578279972 0.271926999 1.81382501
v 0.579118013 0.280510992 1.80872297
v 0.83930999 0.336493999 1.81096601
v 0.848070025 0.333344996 1.790815
v 0.833046973 0.330895007 1.79536402
v 0.818758011 0.33255899 1.80676103
v 0.802644014 0.333095998 1.82096696
v 0.824575007 0.337262005 1.82950199
v 0.852061987 0.338072002 1.84248495
v 0.860451996 0.337327987 1.81649494
v 0.861290991 0.333216012 1.79462004
v 0.842040002 0.265733987 1.83649397
v 0.851127028 0.265179008 1.82115805
v 0.864790022 0.266467005 1.82373798
v 0.86413902 0.267740995 1.84276402
v 0.855368018 0.272944987 1.86249697
v 0.826914012 0.268289 1.84929299
v 0.803878009 0.267890006 1.83770597
v 0.820324004 0.26691699 1.82931995
v 0.83525598 0.267544001 1.82195902
v 0.816744983 0.316700011 1.81206203
v 0.800195992 0.31703499 1.82460999
v 0.802644014 0.333095998 1.82096696
v 0.818758011 0.33255899 1.80676103
v 0.833046973 0.330895007 1.79536402
v 0.833263993 0.316417009 1.80013597
v 0.833885014 0.299124986 1.80770504
v 0.817085981 0.299412996 1.81824803
v 0.800336003 0.299686998 1.82936203
v 0.863313019 0.321116 1.823475
v 0.864530027 0.317938 1.798491
v 0.861290991 0.333216012 1.79462004
v 0.860451996 0.337327987 1.81649494
v 0.852061987 0.338072002 1.84248495
v 0.856076002 0.324147999 1.84895694
v 0.857073009 0.307336986 1.85450995
v 0.864373982 0.303128004 1.83047295
v 0.865612984 0.298969001 1.80686998
v 0.817505002 0.282249004 1.82383001
v 0.800783992 0.282736003 1.83329201
v 0.83446902 0.281800985 1.81498694
v 0.83525598 0.267544001 1.82195902
v 0.820324004 0.26691699 1.82931995
v 0.803878009 0.267890006 1.83770597
v 0.865283012 0.284806997 1.83723497
v 0.866541982 0.28044799 1.81514001
v 0.857903004 0.289407015 1.85968304
v 0.855368018 0.272944987 1.86249697
v 0.86413902 0.267740995 1.84276402
v 0.864790022 0.266467005 1.82373798
v 0.906502008 0.28916499 1.85618699
v 0.943081021 0.287638009 1.84997499
v 0.942871988 0.304890007 1.84544206
v 0.905957997 0.306441009 1.85134602
v 0.870562971 0.306910008 1.85263097
v 0.871381998 0.289469004 1.85806894
v 0.876946986 0.274798006 1.85885894
v 0.907355011 0.272823989 1.85800803
v 0.939350009 0.27344799 1.85128999
v 0.904726982 0.323413998 1.84532702
v 0.941357017 0.322113991 1.83928204
v 0.936295986 0.335321993 1.83168399
v 0.903994024 0.338286012 1.83685303
v 0.87371999 0.336526006 1.83771503
v 0.86956799 0.323879987 1.84652102
v 0.921082973 0.276933014 1.81290197
v 0.875707984 0.278189003 1.81523299
v 0.874942005 0.296416014 1.80677497
v 0.921141028 0.295626998 1.80517006
v 0.965821981 0.295919001 1.80818295
v 0.964999974 0.276901007 1.81489897
v 0.956221998 0.263033003 1.82216501
v 0.919564009 0.261103988 1.82158804
v 0.881494999 0.264997005 1.82412899
v 0.919430971 0.315073013 1.79682195
v 0.873826981 0.315854996 1.79781306
v 0.878198028 0.331800997 1.79412496
v 0.916413009 0.333180994 1.79155898
v 0.953580976 0.330653995 1.79689503
v 0.963564992 0.315126002 1.80068195
v 0.867210984 0.319936991 1.82228899
v 0.873826981 0.315854996 1.79781306
v 0.874942005 0.296416014 1.80677497
v 0.868219018 0.301732987 1.82986403
v 0.870562971 0.306910008 1.85263097
v 0.86956799 0.323879987 1.84652102
v 0.870620012 0.33641699 1.81512201
v 0.878198028 0.331800997 1.79412496
v 0.869072974 0.283915013 1.83688498
v 0.875707984 0.278189003 1.81523299
v 0.881494999 0.264997005 1.82412899
v 0.874128997 0.267942011 1.84263003
v 0.876946986 0.274798006 1.85885894
v 0.871381998 0.289469004 1.85806894
v 0.958513021 0.282182992 1.83220303
v 0.964999974 0.276901007 1.81489897
v 0.965821981 0.295919001 1.80818295
v 0.958880007 0.30033499 1.82665205
v 0.942871988 0.304890007 1.84544206
v 0.943081021 0.287638009 1.84997499
v 0.939350009 0.27344799 1.85128999
v 0.952790022 0.265985996 1.83696604
v 0.956221998 0.263033003 1.82216501
v 0.956947029 0.318549991 1.81986105
v 0.963564992 0.315126002 1.80068195
v 0.953580976 0.330653995 1.79689503
v 0.949787021 0.335049987 1.81329
v 0.936295986 0.335321993 1.83168399
v 0.941357017 0.322113991 1.83928204
v 0.909995019 0.337565988 1.81344295
v 0.903994024 0.338286012 1.83685303
v 0.936295986 0.335321993 1.83168399
v 0.949787021 0.335049987 1.81329
v 0.953580976 0.330653995 1.79689503
v 0.916413009 0.333180994 1.79155898
v 0.878198028 0.331800997 1.79412496
v 0.870620012 0.33641699 1.81512201
v 0.87371999 0.336526006 1.83771503
v 0.913423002 0.265177011 1.84038198
v 0.907355011 0.272823989 1.85800803
v 0.876946986 0.274798006 1.85885894
v 0.874128997 0.267942011 1.84263003
v 0.881494999 0.264997005 1.82412899
v 0.919564009 0.261103988 1.82158804
v 0.956221998 0.263033003 1.82216501
v 0.952790022 0.265985996 1.83696604
v 0.939350009 0.27344799 1.85128999
v 0.799632013 0.336602986 -1.838485
v 0.769792974 0.335198998 -1.84200704
v 0.764957011 0.331023991 -1.83094299
v 0.78530997 0.33237201 -1.82802296
v 0.802644014 0.333095998 -1.82096696
v 0.824575007 0.337262005 -1.82950199
v 0.852061987 0.338072002 -1.84248495
v 0.814338028 0.337956011 -1.85004795
v 0.774785995 0.336605012 -1.85410595
v 0.740373015 0.333732009 -1.84416401
v 0.711964011 0.332029998 -1.84484005
v 0.712803006 0.328272015 -1.83331203
v 0.739785016 0.32969299 -1.83274496
v 0.741029024 0.335049987 -1.85656703
v 0.711153984 0.333124995 -1.85732901
v 0.742586017 0.274138987 -1.85812497
v 0.714021981 0.274742991 -1.85765803
v 0.71449703 0.278766006 -1.87097394
v 0.743683994 0.278263003 -1.87177706
v 0.776759982 0.277020991 -1.87106502
v 0.772074997 0.272832006 -1.85745299
v 0.767334998 0.271479011 -1.84356499
v 0.741375983 0.272657007 -1.84426904
v 0.713438988 0.273218006 -1.84420097
v 0.801889002 0.270767987 -1.85539401
v 0.826914012 0.268289 -1.84929299
v 0.803878009 0.267890006 -1.83770597
v 0.787191987 0.269650996 -1.84191597
v 0.816778004 0.274919987 -1.86853504
v 0.855368018 0.272944987 -1.86249697
v 0.633841991 0.323747009 -1.83617306
v 0.606501997 0.319007009 -1.82743299
v 0.61621201 0.317014992 -1.81667197
v 0.638090014 0.321175009 -1.82462394
v 0.66219002 0.324427992 -1.82982099
v 0.659326971 0.327223003 -1.84112501
v 0.656328022 0.327659994 -1.85342097
v 0.629391015 0.324140996 -1.848683
v 0.596445024 0.319016993 -1.83909798
v 0.685158014 0.329921991 -1.84391999
v 0.683251977 0.330657989 -1.85629201
v 0.68701601 0.326655 -1.83252704
v 0.686981976 0.274693996 -1.8563
v 0.660785973 0.27422601 -1.85344994
v 0.658234 0.278046995 -1.86550105
v 0.686142027 0.278652012 -1.86896098
v 0.687650979 0.273196012 -1.84353495
v 0.663089991 0.272845 -1.84129202
v 0.634751022 0.273568004 -1.84850395
v 0.607183993 0.272572011 -1.84033298
v 0.597202003 0.275377989 -1.850981
v 0.630385995 0.277076989 -1.86036301
v 0.63883698 0.272421986 -1.83649504
v 0.616761982 0.271982014 -1.82941401
v 0.575101972 0.312514991 -1.81327403
v 0.551495016 0.31120199 -1.82168806
v 0.514644027 0.303110987 -1.804317
v 0.544929981 0.305063993 -1.79847801
v 0.577144027 0.307222992 -1.79856706
v 0.598052979 0.312065989 -1.80570102
v 0.61621201 0.317014992 -1.81667197
v 0.606501997 0.319007009 -1.82743299
v 0.596445024 0.319016993 -1.83909798
v 0.576388001 0.271086007 -1.82780194
v 0.553286016 0.272587001 -1.83479297
v 0.597202003 0.275377989 -1.850981
v 0.607183993 0.272572011 -1.84033298
v 0.616761982 0.271982014 -1.82941401
v 0.598738015 0.271580011 -1.82031906
v 0.578279972 0.271926999 -1.81382501
v 0.547019005 0.270498991 -1.81411397
v 0.517485976 0.271019995 -1.818102
v 0.742219985 0.321902007 -1.86223495
v 0.71212101 0.320356995 -1.86289001
v 0.711153984 0.333124995 -1.85732901
v 0.741029024 0.335049987 -1.85656703
v 0.774785995 0.336605012 -1.85410595
v 0.776193976 0.323085994 -1.85986698
v 0.776983023 0.307870001 -1.86468101
v 0.743192971 0.30725801 -1.86675203
v 0.713138998 0.306250006 -1.86713505
v 0.816555977 0.323911011 -1.85595298
v 0.856076002 0.324147999 -1.84895694
v 0.857073009 0.307336986 -1.85450995
v 0.817395985 0.30795899 -1.86107194
v 0.814338028 0.337956011 -1.85004795
v 0.852061987 0.338072002 -1.84248495
v 0.739329994 0.314819992 -1.83428502
v 0.764077008 0.315964013 -1.83293998
v 0.764957011 0.331023991 -1.83094299
v 0.739785016 0.32969299 -1.83274496
v 0.712803006 0.328272015 -1.83331203
v 0.712532997 0.31368199 -1.83470905
v 0.712392986 0.298456013 -1.83762801
v 0.739313006 0.299194992 -1.83735502
v 0.764199972 0.299914002 -1.83638406
v 0.783501983 0.316745996 -1.83064198
v 0.800195992 0.31703499 -1.82460999
v 0.802644014 0.333095998 -1.82096696
v 0.78530997 0.33237201 -1.82802296
v 0.783623993 0.299966007 -1.83456302
v 0.800336003 0.299686998 -1.82936203
v 0.683384001 0.318450004 -1.86166501
v 0.683934987 0.304978013 -1.86567998
v 0.655480981 0.30339399 -1.86243296
v 0.655525029 0.316154003 -1.85860205
v 0.656328022 0.327659994 -1.85342097
v 0.683251977 0.330657989 -1.85629201
v 0.62806201 0.313437998 -1.853742
v 0.594422996 0.309240013 -1.84395099
v 0.596445024 0.319016993 -1.83909798
v 0.629391015 0.324140996 -1.848683
v 0.627674997 0.301450014 -1.85743797
v 0.593891025 0.298220009 -1.847597
v 0.686955988 0.312918007 -1.83424103
v 0.662320971 0.311789989 -1.83182299
v 0.662326992 0.298049003 -1.83516097
v 0.686872005 0.298345 -1.83735394
v 0.68701601 0.326655 -1.83252704
v 0.66219002 0.324427992 -1.82982099
v 0.638354003 0.309561998 -1.82639301
v 0.61708498 0.306558013 -1.81829906
v 0.617039979 0.294860989 -1.82157099
v 0.638333976 0.296757996 -1.82967496
v 0.638090014 0.321175009 -1.82462394
v 0.61621201 0.317014992 -1.81667197
v 0.540823996 0.296948999 -1.80026102
v 0.57852602 0.299724996 -1.800192
v 0.577144027 0.307222992 -1.79856706
v 0.544929981 0.305063993 -1.79847801
v 0.514644027 0.303110987 -1.804317
v 0.503087997 0.295307994 -1.80563498
v 0.502636015 0.286920011 -1.80947399
v 0.540688992 0.288376004 -1.80427504
v 0.578604996 0.290542006 -1.80420196
v 0.849868 0.316864014 -1.79596901
v 0.864530027 0.317938 -1.798491
v 0.861290991 0.333216012 -1.79462004
v 0.848070025 0.333344996 -1.790815
v 0.833046973 0.330895007 -1.79536402
v 0.833263993 0.316417009 -1.80013597
v 0.833885014 0.299124986 -1.80770504
v 0.850741029 0.298806012 -1.80421495
v 0.865612984 0.298969001 -1.80686998
v 0.548039019 0.302493989 -1.82609701
v 0.594422996 0.309240013 -1.84395099
v 0.593891025 0.298220009 -1.847597
v 0.547501028 0.292777985 -1.829808
v 0.502636015 0.286920011 -1.80947399
v 0.503087997 0.295307994 -1.80563498
v 0.514644027 0.303110987 -1.804317
v 0.551495016 0.31120199 -1.82168806
v 0.596445024 0.319016993 -1.83909798
v 0.600543976 0.303103 -1.80788505
v 0.61708498 0.306558013 -1.81829906
v 0.61621201 0.317014992 -1.81667197
v 0.598052979 0.312065989 -1.80570102
v 0.577144027 0.307222992 -1.79856706
v 0.57852602 0.299724996 -1.800192
v 0.578604996 0.290542006 -1.80420196
v 0.600592971 0.292746007 -1.81152296
v 0.617039979 0.294860989 -1.82157099
v 0.743628025 0.292353988 -1.87023902
v 0.713925004 0.292084992 -1.87005699
v 0.77721101 0.292077005 -1.86879694
v 0.776759982 0.277020991 -1.87106502
v 0.743683994 0.278263003 -1.87177706
v 0.71449703 0.278766006 -1.87097394
v 0.817839026 0.291099012 -1.86568499
v 0.857903004 0.289407015 -1.85968304
v 0.855368018 0.272944987 -1.86249697
v 0.816778004 0.274919987 -1.86853504
v 0.740136027 0.284774989 -1.84024298
v 0.765340984 0.28460601 -1.83945596
v 0.712786973 0.284666985 -1.84036005
v 0.713438988 0.273218006 -1.84420097
v 0.741375983 0.272657007 -1.84426904
v 0.767334998 0.271479011 -1.84356499
v 0.784476995 0.28372401 -1.83782005
v 0.800783992 0.282736003 -1.83329201
v 0.787191987 0.269650996 -1.84191597
v 0.803878009 0.267890006 -1.83770597
v 0.684942007 0.291420996 -1.86829805
v 0.686142027 0.278652012 -1.86896098
v 0.658234 0.278046995 -1.86550105
v 0.65654099 0.290381998 -1.86490405
v 0.628584981 0.288985997 -1.85981596
v 0.59482199 0.286563009 -1.85011494
v 0.630385995 0.277076989 -1.86036301
v 0.597202003 0.275377989 -1.850981
v 0.687222004 0.28471899 -1.83998799
v 0.662765026 0.284565002 -1.83784604
v 0.663089991 0.272845 -1.84129202
v 0.687650979 0.273196012 -1.84353495
v 0.713438988 0.273218006 -1.84420097
v 0.638740003 0.283834994 -1.83265102
v 0.617367983 0.282799989 -1.82503498
v 0.616761982 0.271982014 -1.82941401
v 0.63883698 0.272421986 -1.83649504
v 0.541976988 0.279053003 -1.808604
v 0.579118013 0.280510992 -1.80872297
v 0.504819989 0.277994007 -1.81328702
v 0.517485976 0.271019995 -1.818102
v 0.547019005 0.270498991 -1.81411397
v 0.578279972 0.271926999 -1.81382501
v 0.851505995 0.280928999 -1.81231594
v 0.866541982 0.28044799 -1.81514001
v 0.83446902 0.281800985 -1.81498694
v 0.83525598 0.267544001 -1.82195902
v 0.851127028 0.265179008 -1.82115805
v 0.864790022 0.266467005 -1.82373798
v 0.548996985 0.282442987 -1.83288002
v 0.59482199 0.286563009 -1.85011494
v 0.597202003 0.275377989 -1.850981
v 0.553286016 0.272587001 -1.83479297
v 0.517485976 0.271019995 -1.818102
v 0.504819989 0.277994007 -1.81328702
v 0.60087198 0.281724989 -1.81562996
v 0.617367983 0.282799989 -1.82503498
v 0.579118013 0.280510992 -1.80872297
v 0.578279972 0.271926999 -1.81382501
v 0.598738015 0.271580011 -1.82031906
v 0.616761982 0.271982014 -1.82941401
v 0.83930999 0.336493999 -1.81096601
v 0.818758011 0.33255899 -1.80676103
v 0.833046973 0.330895007 -1.79536402
v 0.848070025 0.333344996 -1.790815
v 0.861290991 0.333216012 -1.79462004
v 0.860451996 0.337327987 -1.81649494
v 0.852061987 0.338072002 -1.84248495
v 0.824575007 0.337262005 -1.82950199
v 0.802644014 0.333095998 -1.82096696
v 0.842040002 0.265733987 -1.83649397
v 0.86413902 0.267740995 -1.84276402
v 0.864790022 0.266467005 -1.82373798
v 0.851127028 0.265179008 -1.82115805
v 0.83525598 0.267544001 -1.82195902
v 0.820324004 0.26691699 -1.82931995
v 0.803878009 0.267890006 -1.83770597
v 0.826914012 0.268289 -1.84929299
v 0.855368018 0.272944987 -1.86249697
v 0.816744983 0.316700011 -1.81206203
v 0.818758011 0.33255899 -1.80676103
v 0.802644014 0.333095998 -1.82096696
v 0.800195992 0.31703499 -1.82460999
v 0.800336003 0.299686998 -1.82936203
v 0.817085981 0.299412996 -1.81824803
v 0.833885014 0.299124986 -1.80770504
v 0.833263993 0.316417009 -1.80013597
v 0.833046973 0.330895007 -1.79536402
v 0.863313019 0.321116 -1.823475
v 0.860451996 0.337327987 -1.81649494
v 0.861290991 0.333216012 -1.79462004
v 0.864530027 0.317938 -1.798491
v 0.865612984 0.298969001 -1.80686998
v 0.864373982 0.303128004 -1.83047295
v 0.857073009 0.307336986 -1.85450995
v 0.856076002 0.324147999 -1.84895694
v 0.852061987 0.338072002 -1.84248495
v 0.817505002 0.282249004 -1.82383001
v 0.800783992 0.282736003 -1.83329201
v 0.803878009 0.267890006 -1.83770597
v 0.820324004 0.26691699 -1.82931995
v 0.83525598 0.267544001 -1.82195902
v 0.83446902 0.281800985 -1.81498694
v 0.865283012 0.284806997 -1.83723497
v 0.866541982 0.28044799 -1.81514001
v 0.864790022 0.266467005 -1.82373798
v 0.86413902 0.267740995 -1.84276402
v 0.855368018 0.272944987 -1.86249697
v 0.857903004 0.289407015 -1.85968304
v 0.906502008 0.28916499 -1.85618699
v 0.905957997 0.306441009 -1.85134494
v 0.942871988 0.304890007 -1.84544206
v 0.943081021 0.287638009 -1.84997499
v 0.939350009 0.27344799 -1.85128999
v 0.907355011 0.272823989 -1.85800803
v 0.876946986 0.274798006 -1.85885894
v 0.871381998 0.289469004 -1.85806894
v 0.870562971 0.306910008 -1.85263097
v 0.904726982 0.323413998 -1.84532702
v 0.903994024 0.338286012 -1.83685303
v 0.936295986 0.335321993 -1.83168399
v 0.941357017 0.322113991 -1.83928204
v 0.86956799 0.323879987 -1.84652102
v 0.87371999 0.336526006 -1.83771503
v 0.921082973 0.276933014 -1.81290197
v 0.921141028 0.295626998 -1.80517006
v 0.874942005 0.296416014 -1.80677497
v 0.875707984 0.278189003 -1.81523299
v 0.881494999 0.264997005 -1.82412899
v 0.919564009 0.261103988 -1.82158804
v 0.956221998 0.263033003 -1.82216501
v 0.964999974 0.276901007 -1.81489897
v 0.965821981 0.295919001 -1.80818295
v 0.919430971 0.315073013 -1.79682195
v 0.916413009 0.333180994 -1.79155898
v 0.878198028 0.331800997 -1.79412496
v 0.873826981 0.315854996 -1.79781306
v 0.963564992 0.315126002 -1.80068195
v 0.953580976 0.330653995 -1.79689503
v 0.867210984 0.319936991 -1.82228899
v 0.868219018 0.301732987 -1.82986403
v 0.874942005 0.296416014 -1.80677497
v 0.873826981 0.315854996 -1.79781306
v 0.878198028 0.331800997 -1.79412496
v 0.870620012 0.33641699 -1.81512201
v 0.86956799 0.323879987 -1.84652102
v 0.870562971 0.306910008 -1.85263097
v 0.869072974 0.283915013 -1.83688498
v 0.874128997 0.267942011 -1.84263003
v 0.881494999 0.264997005 -1.82412899
v 0.875707984 0.278189003 -1.81523299
v 0.871381998 0.289469004 -1.85806894
v 0.876946986 0.274798006 -1.85885894
v 0.958513021 0.282182992 -1.83220303
v 0.958880007 0.30033499 -1.82665205
v 0.965821981 0.295919001 -1.80818295
v 0.964999974 0.276901007 -1.81489897
v 0.956221998 0.263033003 -1.82216501
v 0.952790022 0.265985996 -1.83696604
v 0.939350009 0.27344799 -1.85128999
v 0.943081021 0.287638009 -1.84997499
v 0.942871988 0.304890007 -1.84544206
v 0.956947029 0.318549991 -1.81986105
v 0.949787021 0.335049987 -1.81329
v 0.953580976 0.330653995 -1.79689503
v 0.963564992 0.315126002 -1.80068195
v 0.941357017 0.322113991 -1.83928204
v 0.936295986 0.335321993 -1.83168399
v 0.909995019 0.337565988 -1.81344295
v 0.949787021 0.335049987 -1.81329
v 0.936295986 0.335321993 -1.83168399
v 0.903994024 0.338286012 -1.83685303
v 0.87371999 0.336526006 -1.83771503
v 0.870620012 0.33641699 -1.81512201
v 0.878198028 0.331800997 -1.79412496
v 0.916413009 0.333180994 -1.79155898
v 0.953580976 0.330653995 -1.79689503
v 0.913423002 0.265177011 -1.84038198
v 0.874128997 0.267942011 -1.84263003
v 0.876946986 0.274798006 -1.85885894
v 0.907355011 0.272823989 -1.85800803
v 0.939350009 0.27344799 -1.85128999
v 0.952790022 0.265985996 -1.83696604
v 0.956221998 0.263033003 -1.82216501
v 0.919564009 0.261103988 -1.82158804
v 0.881494999 0.264997005 -1.82412899
vt 0.25 0.75
vt 0.25 1
vt 0.5 1
vt 0.5 0.75
vt 0.5 0.5
vt 0.25 0.5
vt -0 0.5
vt -0 0.75
vt 0 1
vt 0.75 0.75
vt 0.75 1
vt 1 1
vt 1 0.75
vt 1 0.5
vt 0.75 0.5
vt 0.25 0.625
vt 0.25 0.25
vt 0 0
vt 0 0.5
vt 0 1
vt 0.25 1
vt 0.5 1
vt 0.5 0.718699992
vt 0.5 0.4375
vt 0.75 0.75
vt 0.75 1
vt 1 1
vt 1 0.75
vt 1 0.5
vt 0.75 0.5
vt 0.25 0.625
vt 0.25 1
vt 0 1
vt 0 0.75
vt 0 0.5
vt 0.25 0.25
vt 0.5 0.125
vt 0.5 0.5625
vt 0.5 1
vt 0.75 0.625
vt 0.75 0.25
vt 0.75 1
vt 0.25 0.625
vt 0.25 0.25
vt 0.5 0.4375
vt 0.5 0.718699992
vt 0.5 1
vt 0.25 1
vt 0.75 0.75
vt 0.75 0.5
vt 1 0.5
vt 1 0.75
vt 1 1
vt 0.75 1
vt 0.5625 0.75
vt 0.625 0.75
vt 0.625 0.5
vt 0.5625 0.5
vt 0.5 0.5
vt 0.5 0.75
vt 0.5 1
vt 0.5625 1
vt 0.625 1
vt 0.4375 0.75
vt 0.5 0.75
vt 0.5 0.5
vt 0.4375 0.5
vt 0.375 0.5
vt 0.375 0.75
vt 0.375 1
vt 0.4375 1
vt 0.5 1
vt 0.25 0.445300013
vt 0.25 0.484400004
vt -0 0.5
vt -0 0.4375
vt -0 0.382800013
vt 0.25 0.408199996
vt 0.5 0.427700013
vt 0.5 0.451200008
vt 0.5 0.4727
vt 0.75 0.453099996
vt 0.75 0.435499996
vt 1 0.4375
vt 1 0.453099996
vt 1 0.468800008
vt 0.75 0.468800008
vt 0.25 0.453099996
vt 0.25 0.468800008
vt 0.5 0.468800008
vt 0.5 0.453099996
vt 0.5 0.4375
vt 0.25 0.4375
vt -0 0.4375
vt 0 0.453099996
vt 0 0.468800008
vt 0.75 0.453099996
vt 0.75 0.468800008
vt 1 0.468699992
vt 1 0.453099996
vt 1 0.4375
vt 0.75 0.4375
vt 0.25 0.453099996
vt 0.25 0.412099987
vt 0.25 0.5
vt 0.5 0.496100008
vt 0.5 0.462900013
vt 0.5 0.433600008
vt 0.75 0.460900009
vt 0.75 0.484400004
vt 1 0.468800008
vt 1 0.453099996
vt 1 0.4375
vt 0.75 0.439500004
vt 0.25 0.453099996
vt 0.25 0.424800009
vt 0.5 0.418500006
vt 0.5 0.453099996
vt 0.5 0.492199987
vt 0.25 0.484400004
vt 0.75 0.453099996
vt 0.75 0.424800009
vt 1 0.4375
vt 1 0.453099996
vt 1 0.468699992
vt 0.75 0.484400004
vt 0.453099996 0.75
vt 0.468699992 0.75
vt 0.468800008 1
vt 0.453099996 1
vt 0.4375 1
vt 0.4375 0.75
vt 0.4375 0.5
vt 0.453099996 0.5
vt 0.468699992 0.5
vt 0.460900009 0.375
vt 0.484400004 0.25
vt 0.5 0.5
vt 0.468800008 0.75
vt 0.441399992 0.875
vt 0.439500004 0.4375
vt 0.4375 -0
vt 0.453099996 -0
vt 0.468800008 -0
vt 0.367199987 0.453099996
vt 0.335900009 0.4375
vt 0.5 0.4375
vt 0.5 0.453099996
vt 0.5 0.468800008
vt 0.421900004 0.468699992
vt 0.343800008 0.468699992
vt 0.234400004 0.453099996
vt 0.171900004 0.4375
vt 0.414099991 0.453099996
vt 0.421900004 0.468699992
vt 0.5 0.468699992
vt 0.5 0.453099996
vt 0.5 0.4375
vt 0.3926 0.4375
vt 0.2852 0.4375
vt 0.328099996 0.453099996
vt 0.343699992 0.468699992
vt 0.25 0.375
vt -0 0.343800008
vt -0 0.3125
vt 0.25 0.343800008
vt 0.5 0.371100008
vt 0.5 0.400400013
vt 0.75 0.414099991
vt 0.75 0.390599996
vt 1 0.406300008
vt 1 0.421900004
vt 0.25 0.421900004
vt 0.5 0.421900004
vt 0.5 0.406300008
vt 0.25 0.406199992
vt -0 0.406199992
vt -0 0.421900004
vt 0.75 0.421900004
vt 1 0.421900004
vt 1 0.406199992
vt 0.75 0.406199992
vt 0.25 0.382800013
vt 0.25 0.359400004
vt 0.5 0.412099987
vt 0.5 0.394499987
vt 0.75 0.421900004
vt 1 0.421900004
vt 1 0.406199992
vt 0.75 0.406199992
vt 0.25 0.4023
vt 0.25 0.382800013
vt 0.5 0.371100008
vt 0.5 0.3926
vt 0 0.406300008
vt 0.75 0.4023
vt 0.75 0.382800013
vt 1 0.406199992
vt 1 0.421900004
vt 0.421900004 0.75
vt 0.421900004 1
vt 0.406300008 1
vt 0.406199992 0.75
vt 0.406199992 0.5
vt 0.421900004 0.5
vt 0.421900004 0.375
vt 0.421900004 0.75
vt 0.406300008 0.5
vt 0.406199992 0.25
vt 0.406199992 -0
vt 0.421900004 -0
vt 0.351599991 0.421900004
vt 0.390599996 0.406199992
vt 0.5 0.406300008
vt 0.5 0.421900004
vt 0.203099996 0.421900004
vt 0.281199992 0.406199992
vt 0.343699992 0.421900004
vt 0.5 0.421900004
vt 0.5 0.406199992
vt 0.281199992 0.406199992
vt 0.0625 0.406199992
vt 0.1875 0.421900004
vt 0.75 0.394499987
vt 0.75 0.406300008
vt 1 0.406300008
vt 1 0.398400009
vt 1 0.390599996
vt 0.75 0.382800013
vt 0.5 0.375
vt 0.5 0.390599996
vt 0.5 0.406300008
vt 0.75 0.406300008
vt 0.75 0.421900004
vt 0.5 0.4375
vt 0.5 0.414099991
vt 0.5 0.390599996
vt 0.75 0.390599996
vt 1 0.390599996
vt 1 0.398400009
vt 1 0.406300008
vt 0.546899974 0.387699991
vt 0.546899974 0.341800004
vt 0.531199992 0.371100008
vt 0.531199992 0.384799987
vt 0.531199992 0.398400009
vt 0.546899974 0.433600008
vt 0.5625 0.449200004
vt 0.5625 0.385699987
vt 0.5625 0.322299987
vt 0.546899974 0.361299992
vt 0.546899974 0.394499987
vt 0.531199992 0.398400009
vt 0.531199992 0.371100008
vt 0.531199992 0.343699992
vt 0.546899974 0.328099996
vt 0.5625 0.318800002
vt 0.5625 0.354699999
vt 0.5625 0.390599996
vt 0.578100026 0.374000013
vt 0.578100026 0.322299987
vt 0.578100026 0.425799996
vt 0.593699992 0.382800013
vt 0.593699992 0.3574
vt 0.593699992 0.331999987
vt 0.578100026 0.354499996
vt 0.578100026 0.386700004
vt 0.578100026 0.322299987
vt 0.593699992 0.331999987
vt 0.593699992 0.3574
vt 0.593699992 0.382800013
vt 0.343699992 0.8477
vt 0.343699992 0.867200017
vt 0.3125 0.890600026
vt 0.3125 0.867200017
vt 0.3125 0.843699992
vt 0.343699992 0.828100026
vt 0.375 0.8125
vt 0.375 0.828100026
vt 0.375 0.843699992
vt 0.281199992 0.886699975
vt 0.281199992 0.914099991
vt 0.25 0.9375
vt 0.25 0.906300008
vt 0.25 0.875
vt 0.281199992 0.859399974
vt 0.656300008 0.843699992
vt 0.656300008 0.75
vt 0.6875 0.75
vt 0.6875 0.859399974
vt 0.6875 0.968699992
vt 0.656300008 0.9375
vt 0.625 0.875
vt 0.625 0.8125
vt 0.625 0.75
vt 0.718800008 0.843699992
vt 0.718800008 0.75
vt 0.75 0.75
vt 0.75 0.8125
vt 0.75 0.875
vt 0.718800008 0.9375
vt 0.1875 0.859399974
vt 0.125 0.859399974
vt 0.125 0.843699992
vt 0.1875 0.843800008
vt 0.25 0.843800008
vt 0.25 0.859399974
vt 0.1875 0.875
vt 0.125 0.875
vt 0.1875 0.828100026
vt 0.125 0.828100026
vt 0.125 0.8125
vt 0.1875 0.8125
vt 0.25 0.8125
vt 0.25 0.828100026
vt 0.1875 0.671899974
vt 0.0625 0.671899974
vt 0.0313000008 0.656300008
vt 0.1875 0.656300008
vt 0.343800008 0.656300008
vt 0.3125 0.671899974
vt 0.25 0.6875
vt 0.1875 0.6875
vt 0.125 0.6875
vt 0.1875 0.640600026
vt 0.0625 0.640600026
vt 0.125 0.625
vt 0.1875 0.625
vt 0.25 0.625
vt 0.3125 0.640600026
vt 0.343800008 0.843699992
vt 0.343800008 0.75
vt 0.3125 0.75
vt 0.3125 0.8125
vt 0.3125 0.875
vt 0.343699992 0.9375
vt 0.375 1
vt 0.375 0.875
vt 0.375 0.75
vt 0.328099996 0.843699992
vt 0.3125 0.75
vt 0.375 0.75
vt 0.375 0.875
vt 0.375 1
vt 0.343699992 0.9375
vt 0.3125 0.875
vt 0.281300008 0.8125
vt 0.25 0.75
vt 0.25 0.75
vt 0.5 0.75
vt 0.5 1
vt 0.25 1
vt 0 1
vt -0 0.75
vt -0 0.5
vt 0.25 0.5
vt 0.5 0.5
vt 0.75 0.75
vt 1 0.75
vt 1 1
vt 0.75 1
vt 0.75 0.5
vt 1 0.5
vt 0.25 0.625
vt 0 0.5
vt 0 0
vt 0.25 0.25
vt 0.5 0.4375
vt 0.5 0.718699992
vt 0.5 1
vt 0.25 1
vt 0 1
vt 0.75 0.75
vt 1 0.75
vt 1 1
vt 0.75 1
vt 0.75 0.5
vt 1 0.5
vt 0.25 0.625
vt 0 0.75
vt 0 1
vt 0.25 1
vt 0.5 1
vt 0.5 0.5625
vt 0.5 0.125
vt 0.25 0.25
vt 0 0.5
vt 0.75 0.625
vt 0.75 0.25
vt 0.75 1
vt 0.25 0.625
vt 0.5 0.718699992
vt 0.5 0.4375
vt 0.25 0.25
vt 0.25 1
vt 0.5 1
vt 0.75 0.75
vt 1 0.75
vt 1 0.5
vt 0.75 0.5
vt 0.75 1
vt 1 1
vt 0.5625 0.75
vt 0.5625 0.5
vt 0.625 0.5
vt 0.625 0.75
vt 0.625 1
vt 0.5625 1
vt 0.5 1
vt 0.5 0.75
vt 0.5 0.5
vt 0.4375 0.75
vt 0.4375 0.5
vt 0.5 0.5
vt 0.5 0.75
vt 0.5 1
vt 0.4375 1
vt 0.375 1
vt 0.375 0.75
vt 0.375 0.5
vt 0.25 0.445300013
vt -0 0.4375
vt -0 0.5
vt 0.25 0.484400004
vt 0.5 0.4727
vt 0.5 0.451200008
vt 0.5 0.427700013
vt 0.25 0.408199996
vt -0 0.382800013
vt 0.75 0.453099996
vt 1 0.453099996
vt 1 0.4375
vt 0.75 0.435499996
vt 0.75 0.468800008
vt 1 0.468800008
vt 0.25 0.453099996
vt 0.5 0.453099996
vt 0.5 0.468800008
vt 0.25 0.468800008
vt 0 0.468800008
vt 0 0.453099996
vt -0 0.4375
vt 0.25 0.4375
vt 0.5 0.4375
vt 0.75 0.453099996
vt 1 0.453099996
vt 1 0.468699992
vt 0.75 0.468800008
vt 0.75 0.4375
vt 1 0.4375
vt 0.25 0.453099996
vt 0.25 0.412099987
vt 0.5 0.433600008
vt 0.5 0.462900013
vt 0.5 0.496100008
vt 0.25 0.5
vt 0.75 0.460900009
vt 1 0.453099996
vt 1 0.468800008
vt 0.75 0.484400004
vt 0.75 0.439500004
vt 1 0.4375
vt 0.25 0.453099996
vt 0.5 0.453099996
vt 0.5 0.418500006
vt 0.25 0.424800009
vt 0.25 0.484400004
vt 0.5 0.492199987
vt 0.75 0.453099996
vt 1 0.453099996
vt 1 0.4375
vt 0.75 0.424800009
vt 0.75 0.484400004
vt 1 0.468699992
vt 0.453099996 0.75
vt 0.453099996 1
vt 0.468800008 1
vt 0.468699992 0.75
vt 0.468699992 0.5
vt 0.453099996 0.5
vt 0.4375 0.5
vt 0.4375 0.75
vt 0.4375 1
vt 0.460900009 0.375
vt 0.468800008 0.75
vt 0.5 0.5
vt 0.484400004 0.25
vt 0.468800008 -0
vt 0.453099996 -0
vt 0.4375 -0
vt 0.439500004 0.4375
vt 0.441399992 0.875
vt 0.367199987 0.453099996
vt 0.5 0.453099996
vt 0.5 0.4375
vt 0.335900009 0.4375
vt 0.171900004 0.4375
vt 0.234400004 0.453099996
vt 0.343800008 0.468699992
vt 0.421900004 0.468699992
vt 0.5 0.468800008
vt 0.414099991 0.453099996
vt 0.5 0.453099996
vt 0.5 0.468699992
vt 0.421900004 0.468699992
vt 0.343699992 0.468699992
vt 0.328099996 0.453099996
vt 0.2852 0.4375
vt 0.3926 0.4375
vt 0.5 0.4375
vt 0.25 0.375
vt -0 0.343800008
vt 0.5 0.400400013
vt 0.5 0.371100008
vt 0.25 0.343800008
vt -0 0.3125
vt 0.75 0.414099991
vt 1 0.421900004
vt 1 0.406300008
vt 0.75 0.390599996
vt 0.25 0.421900004
vt 0.5 0.421900004
vt -0 0.421900004
vt -0 0.406199992
vt 0.25 0.406199992
vt 0.5 0.406300008
vt 0.75 0.421900004
vt 1 0.421900004
vt 0.75 0.406199992
vt 1 0.406199992
vt 0.25 0.382800013
vt 0.25 0.359400004
vt 0.5 0.394499987
vt 0.5 0.412099987
vt 0.75 0.421900004
vt 1 0.421900004
vt 0.75 0.406199992
vt 1 0.406199992
vt 0.25 0.4023
vt 0.5 0.3926
vt 0.5 0.371100008
vt 0.25 0.382800013
vt 0 0.406300008
vt 0.75 0.4023
vt 1 0.421900004
vt 1 0.406199992
vt 0.75 0.382800013
vt 0.421900004 0.75
vt 0.421900004 1
vt 0.421900004 0.5
vt 0.406199992 0.5
vt 0.406199992 0.75
vt 0.406300008 1
vt 0.421900004 0.375
vt 0.421900004 0.75
vt 0.421900004 -0
vt 0.406199992 -0
vt 0.406199992 0.25
vt 0.406300008 0.5
vt 0.351599991 0.421900004
vt 0.5 0.421900004
vt 0.5 0.406300008
vt 0.390599996 0.406199992
vt 0.281199992 0.406199992
vt 0.203099996 0.421900004
vt 0.343699992 0.421900004
vt 0.5 0.421900004
vt 0.1875 0.421900004
vt 0.0625 0.406199992
vt 0.281199992 0.406199992
vt 0.5 0.406199992
vt 0.75 0.394499987
vt 1 0.398400009
vt 1 0.406300008
vt 0.75 0.406300008
vt 0.5 0.406300008
vt 0.5 0.390599996
vt 0.5 0.375
vt 0.75 0.382800013
vt 1 0.390599996
vt 0.75 0.406300008
vt 0.5 0.414099991
vt 0.5 0.4375
vt 0.75 0.421900004
vt 1 0.406300008
vt 1 0.398400009
vt 1 0.390599996
vt 0.75 0.390599996
vt 0.5 0.390599996
vt 0.546899974 0.387699991
vt 0.531199992 0.384799987
vt 0.531199992 0.371100008
vt 0.546899974 0.341800004
vt 0.5625 0.322299987
vt 0.5625 0.385699987
vt 0.5625 0.449200004
vt 0.546899974 0.433600008
vt 0.531199992 0.398400009
vt 0.546899974 0.361299992
vt 0.531199992 0.371100008
vt 0.531199992 0.398400009
vt 0.546899974 0.394499987
vt 0.5625 0.390599996
vt 0.5625 0.354699999
vt 0.5625 0.318800002
vt 0.546899974 0.328099996
vt 0.531199992 0.343699992
vt 0.578100026 0.374000013
vt 0.578100026 0.322299987
vt 0.593699992 0.331999987
vt 0.593699992 0.3574
vt 0.593699992 0.382800013
vt 0.578100026 0.425799996
vt 0.578100026 0.354499996
vt 0.578100026 0.386700004
vt 0.593699992 0.382800013
vt 0.593699992 0.3574
vt 0.593699992 0.331999987
vt 0.578100026 0.322299987
vt 0.343699992 0.8477
vt 0.3125 0.867200017
vt 0.3125 0.890600026
vt 0.343699992 0.867200017
vt 0.375 0.843699992
vt 0.375 0.828100026
vt 0.375 0.8125
vt 0.343699992 0.828100026
vt 0.3125 0.843699992
vt 0.281199992 0.886699975
vt 0.25 0.906300008
vt 0.25 0.9375
vt 0.281199992 0.914099991
vt 0.281199992 0.859399974
vt 0.25 0.875
vt 0.656300008 0.843699992
vt 0.6875 0.859399974
vt 0.6875 0.75
vt 0.656300008 0.75
vt 0.625 0.75
vt 0.625 0.8125
vt 0.625 0.875
vt 0.656300008 0.9375
vt 0.6875 0.968699992
vt 0.718800008 0.843699992
vt 0.75 0.8125
vt 0.75 0.75
vt 0.718800008 0.75
vt 0.718800008 0.9375
vt 0.75 0.875
vt 0.1875 0.859399974
vt 0.1875 0.843800008
vt 0.125 0.843699992
vt 0.125 0.859399974
vt 0.125 0.875
vt 0.1875 0.875
vt 0.25 0.859399974
vt 0.25 0.843800008
vt 0.1875 0.828100026
vt 0.1875 0.8125
vt 0.125 0.8125
vt 0.125 0.828100026
vt 0.25 0.828100026
vt 0.25 0.8125
vt 0.1875 0.671899974
vt 0.1875 0.656300008
vt 0.0313000008 0.656300008
vt 0.0625 0.671899974
vt 0.125 0.6875
vt 0.1875 0.6875
vt 0.25 0.6875
vt 0.3125 0.671899974
vt 0.343800008 0.656300008
vt 0.1875 0.640600026
vt 0.1875 0.625
vt 0.125 0.625
vt 0.0625 0.640600026
vt 0.3125 0.640600026
vt 0.25 0.625
vt 0.343800008 0.843699992
vt 0.3125 0.8125
vt 0.3125 0.75
vt 0.343800008 0.75
vt 0.375 0.75
vt 0.375 0.875
vt 0.375 1
vt 0.343699992 0.9375
vt 0.3125 0.875
vt 0.328099996 0.843699992
vt 0.375 0.875
vt 0.375 0.75
vt 0.3125 0.75
vt 0.25 0.75
vt 0.281300008 0.8125
vt 0.3125 0.875
vt 0.343699992 0.9375
vt 0.375 1
vn -0.0716999993 0.986800015 -0.145300001
vn -0.226799995 0.569500029 -0.790000021
vn -0.110600002 0.534500003 -0.837899983
vn -0.0675000027 0.977999985 -0.1972
vn 0.00889999978 0.856999993 0.515200019
vn 0.0566000007 0.849600017 0.524399996
vn 0.443899989 0.781300008 0.438800007
vn -0.0665000007 0.992600024 -0.101000004
vn -0.413899988 0.611299992 -0.674499989
vn -0.0632999986 0.975600004 -0.2104
vn -0.065700002 0.539300025 -0.83950001
vn -0.0340000018 0.549199998 -0.834999979
vn -0.0659999996 0.977800012 -0.198899999
vn -0.0656000003 0.853600025 0.516799986
vn -0.0216000006 0.858299971 0.512600005
vn -0.0303000007 -0.978399992 0.204400003
vn -0.0119000003 -0.541499972 0.840600014
vn -0.0388999991 -0.558200002 0.828800023
vn -0.0163000003 -0.978799999 0.2042
vn -0.00300000003 -0.842499971 -0.538699985
vn -0.0335000008 -0.842299998 -0.537899971
vn -0.0807000026 -0.842800021 -0.532000005
vn -0.0452000014 -0.974600017 0.2192
vn 0.0142000001 -0.521200001 0.853299975
vn -0.0439999998 -0.969500005 0.240999997
vn -0.167199999 -0.857800007 -0.485900015
vn -0.262899995 -0.86589998 -0.425399989
vn -0.0200999994 -0.975700021 0.217899993
vn 0.471799999 -0.478899986 0.7403
vn 0.0676999986 -0.509599984 0.85769999
vn -0.1061 0.980700016 -0.164299995
vn 0.135299996 0.583299994 -0.800899982
vn 0.230900005 0.608399987 -0.759299994
vn -0.108000003 0.976100028 -0.188299999
vn -0.280600011 0.864199996 0.417699993
vn -0.227899998 0.848100007 0.478300005
vn -0.168799996 0.845799983 0.506099999
vn -0.0916000009 0.982500017 -0.162200004
vn 0.0612000003 0.568199992 -0.820599973
vn -0.0760999992 0.981100023 -0.1778
vn -0.1171 0.847500026 0.517700016
vn 0.0037 0.558300018 -0.829599977
vn -0.00760000013 -0.978100002 0.208000004
vn -0.0688000023 -0.567399979 0.820599973
vn -0.107600003 -0.576300025 0.810100019
vn -0.00899999961 -0.978900015 0.204300001
vn 0.0926999971 -0.843200028 -0.529500008
vn 0.0342999995 -0.842800021 -0.537100017
vn -0.0125000002 -0.982800007 0.184100002
vn -0.161400005 -0.58829999 0.792400002
vn -0.216700003 -0.612399995 0.760200024
vn -0.00659999996 -0.989099979 0.147200003
vn 0.230800003 -0.855300009 -0.4639
vn 0.160099998 -0.845499992 -0.50940001
vn -0.100699998 0.963800013 -0.246800005
vn -0.102700002 0.528199971 -0.842899978
vn -0.555899978 0.74089998 -0.376899987
vn -0.307999998 0.896099985 0.319400012
vn -0.280600011 0.864199996 0.417699993
vn -0.108000003 0.976100028 -0.188299999
vn 0.230900005 0.608399987 -0.759299994
vn 0.247600004 0.543799996 -0.801800013
vn 0.0769999996 0.44780001 -0.890799999
vn 0.0027999999 -0.997200012 0.0741999969
vn -0.00659999996 -0.989099979 0.147200003
vn -0.216700003 -0.612399995 0.760200024
vn -0.261099994 -0.659500003 0.704900026
vn -0.496800005 -0.844900012 0.197899997
vn -0.0190999992 -0.896399975 -0.442699999
vn 0.104400001 -0.828199983 -0.550599992
vn 0.231900007 -0.841899991 -0.487100005
vn 0.230800003 -0.855300009 -0.4639
vn 0.0267999992 0.347499996 0.937300026
vn -0.0216000006 0.858299971 0.512600005
vn -0.0656000003 0.853600025 0.516799986
vn -0.0310999993 0.343199998 0.93870002
vn -0.0292000007 0.245800003 0.968900025
vn 0.0269000009 0.262600005 0.96450001
vn 0.0680000037 0.277099997 0.958400011
vn 0.0675000027 0.351099998 0.933899999
vn 0.00889999978 0.856999993 0.515200019
vn 0.124499999 0.363000005 0.923399985
vn 0.122000001 0.288300008 0.949699998
vn 0.6523 0.256500006 0.713199973
vn 0.652499974 0.344599992 0.674899995
vn 0.443899989 0.781300008 0.438800007
vn 0.0566000007 0.849600017 0.524399996
vn -0.0284000002 -0.151600003 -0.987999976
vn -0.065700002 0.539300025 -0.83950001
vn -0.110600002 0.534500003 -0.837899983
vn -0.0781999975 -0.167999998 -0.98269999
vn -0.0644999966 -0.204999998 -0.976599991
vn -0.0197999999 -0.196400002 -0.980300009
vn 0.00520000001 -0.194100007 -0.981000006
vn 0.00700000022 -0.149800003 -0.988699973
vn -0.0340000018 0.549199998 -0.834999979
vn -0.217999995 -0.183799997 -0.958500028
vn -0.226799995 0.569500029 -0.790000021
vn -0.413899988 0.611299992 -0.674499989
vn -0.464300007 -0.192300007 -0.864499986
vn -0.419 -0.239199996 -0.875899971
vn -0.195199996 -0.218500003 -0.956099987
vn -0.0979999974 0.342999995 0.934199989
vn -0.0925000012 0.233899996 0.967800021
vn -0.1171 0.847500026 0.517700016
vn -0.168799996 0.845799983 0.506099999
vn -0.165700004 0.351799995 0.921299994
vn -0.157299995 0.230000004 0.960399985
vn -0.251800001 0.369399995 0.894500017
vn -0.227899998 0.848100007 0.478300005
vn -0.280600011 0.864199996 0.417699993
vn -0.342799991 0.398699999 0.850600004
vn -0.333600014 0.248199999 0.909399986
vn -0.242300004 0.233099997 0.941799998
vn 0.0640999973 -0.167199999 -0.983799994
vn 0.0544000007 -0.200399995 -0.978200018
vn 0.160600007 -0.211600006 -0.964100003
vn 0.168099999 -0.185499996 -0.968100011
vn 0.0612000003 0.568199992 -0.820599973
vn 0.0037 0.558300018 -0.829599977
vn 0.300000012 -0.186700001 -0.935500026
vn 0.294400007 -0.225299999 -0.92869997
vn 0.445199996 -0.244499996 -0.861400008
vn 0.455300003 -0.172999993 -0.873300016
vn 0.230900005 0.608399987 -0.759299994
vn 0.135299996 0.583299994 -0.800899982
vn -0.0715000033 -0.257699996 -0.963500023
vn -0.102700002 0.528199971 -0.842899978
vn 0.0769999996 0.44780001 -0.890799999
vn 0.1928 -0.278299987 -0.940900028
vn 0.176100001 -0.384200007 -0.906300008
vn -0.0449000001 -0.416500002 -0.907999992
vn -0.977699995 -0.195500001 -0.0766000003
vn -0.943300009 0.198799998 -0.265799999
vn -0.555899978 0.74089998 -0.376899987
vn -0.00340000005 -0.342400014 -0.939499974
vn -0.0368000008 0.489100009 -0.871399999
vn 0.597500026 0.506099999 -0.621999979
vn 0.785899997 -0.122199997 -0.60619998
vn 0.784099996 -0.219600007 -0.58039999
vn -0.0107000005 -0.406800002 -0.913399994
vn -0.354200006 -0.368600011 -0.859399974
vn -0.398299992 -0.3213 -0.859099984
vn -0.40990001 0.389999986 -0.824500024
vn -0.407499999 0.461600006 0.787999988
vn -0.400099993 0.281399995 0.872200012
vn -0.333600014 0.248199999 0.909399986
vn -0.342799991 0.398699999 0.850600004
vn -0.280600011 0.864199996 0.417699993
vn -0.307999998 0.896099985 0.319400012
vn -0.555899978 0.74089998 -0.376899987
vn -0.943300009 0.198799998 -0.265799999
vn -0.977699995 -0.195500001 -0.0766000003
vn 0.451900005 -0.199399993 -0.869499981
vn 0.247600004 0.543799996 -0.801800013
vn 0.230900005 0.608399987 -0.759299994
vn 0.455300003 -0.172999993 -0.873300016
vn 0.445199996 -0.244499996 -0.861400008
vn 0.42899999 -0.301800013 -0.851400018
vn 0.176100001 -0.384200007 -0.906300008
vn 0.1928 -0.278299987 -0.940900028
vn 0.0769999996 0.44780001 -0.890799999
vn 0.0168999992 0.169200003 0.985400021
vn -0.0359999985 0.138400003 0.989700019
vn -0.0388999991 -0.558200002 0.828800023
vn -0.0119000003 -0.541499972 0.840600014
vn 0.0142000001 -0.521200001 0.853299975
vn 0.060800001 0.197300002 0.978399992
vn 0.119099997 0.210899994 0.970200002
vn 0.0676999986 -0.509599984 0.85769999
vn 0.471799999 -0.478899986 0.7403
vn 0.65259999 0.158399999 0.74089998
vn -0.0186000001 -0.256000012 -0.966499984
vn -0.0644999966 -0.253800005 -0.96509999
vn -0.0807000026 -0.842800021 -0.532000005
vn -0.0335000008 -0.842299998 -0.537899971
vn -0.00300000003 -0.842499971 -0.538699985
vn 0.00620000018 -0.252900004 -0.967400014
vn -0.184200004 -0.261500001 -0.947399974
vn -0.377999991 -0.287 -0.880200028
vn -0.262899995 -0.86589998 -0.425399989
vn -0.167199999 -0.857800007 -0.485900015
vn -0.0930000022 0.115599997 0.988900006
vn -0.0688000023 -0.567399979 0.820599973
vn -0.153300002 0.101199999 0.98299998
vn -0.107600003 -0.576300025 0.810100019
vn -0.233500004 0.0926999971 0.967899978
vn -0.321700007 0.0961000025 0.941900015
vn -0.216700003 -0.612399995 0.760200024
vn -0.161400005 -0.58829999 0.792400002
vn 0.0522999987 -0.243200004 -0.968599975
vn 0.0342999995 -0.842800021 -0.537100017
vn 0.0926999971 -0.843200028 -0.529500008
vn 0.149900004 -0.241500005 -0.958700001
vn -0.00300000003 -0.842499971 -0.538699985
vn 0.271800011 -0.263700008 -0.925499976
vn 0.160099998 -0.845499992 -0.50940001
vn 0.230800003 -0.855300009 -0.4639
vn 0.405800015 -0.308099985 -0.860499978
vn -0.0461999997 -0.504700005 -0.861999989
vn 0.1646 -0.443599999 -0.880999982
vn 0.104400001 -0.828199983 -0.550599992
vn -0.0190999992 -0.896399975 -0.442699999
vn -0.496800005 -0.844900012 0.197899997
vn -0.857200027 -0.513300002 0.0401000008
vn 0.00760000013 -0.446799994 -0.894599974
vn 0.778599977 -0.297199994 -0.552600026
vn 0.642499983 -0.704299986 -0.301800013
vn 0.0252 -0.861999989 -0.506200016
vn -0.218999997 -0.775300026 -0.592299998
vn -0.307200015 -0.397700012 -0.864499986
vn -0.391499996 0.0934000015 0.915400028
vn -0.261099994 -0.659500003 0.704900026
vn -0.216700003 -0.612399995 0.760200024
vn -0.321700007 0.0961000025 0.941900015
vn -0.857200027 -0.513300002 0.0401000008
vn -0.496800005 -0.844900012 0.197899997
vn 0.394899994 -0.371300012 -0.840300024
vn 0.405800015 -0.308099985 -0.860499978
vn 0.230800003 -0.855300009 -0.4639
vn 0.231900007 -0.841899991 -0.487100005
vn 0.104400001 -0.828199983 -0.550599992
vn 0.1646 -0.443599999 -0.880999982
vn -0.072800003 0.984899998 -0.157299995
vn -0.0368000008 0.489100009 -0.871399999
vn -0.40990001 0.389999986 -0.824500024
vn -0.517499983 0.545099974 -0.659600019
vn -0.413899988 0.611299992 -0.674499989
vn -0.0665000007 0.992600024 -0.101000004
vn 0.443899989 0.781300008 0.438800007
vn 0.629000008 0.7773 0.0121999998
vn 0.597500026 0.506099999 -0.621999979
vn -0.0055999998 -0.995700002 0.0921000019
vn 0.0252 -0.861999989 -0.506200016
vn 0.642499983 -0.704299986 -0.301800013
vn 0.700500011 -0.662699997 0.264699996
vn 0.471799999 -0.478899986 0.7403
vn -0.0200999994 -0.975700021 0.217899993
vn -0.262899995 -0.86589998 -0.425399989
vn -0.296799988 -0.834900022 -0.463499993
vn -0.218999997 -0.775300026 -0.592299998
vn -0.583700001 -0.230800003 -0.778500021
vn -0.464300007 -0.192300007 -0.864499986
vn -0.413899988 0.611299992 -0.674499989
vn -0.517499983 0.545099974 -0.659600019
vn -0.40990001 0.389999986 -0.824500024
vn -0.398299992 -0.3213 -0.859099984
vn -0.354200006 -0.368600011 -0.859399974
vn -0.521899998 -0.286199987 -0.803499997
vn -0.419 -0.239199996 -0.875899971
vn 0.971400023 0.188600004 0.143999994
vn 0.785899997 -0.122199997 -0.60619998
vn 0.597500026 0.506099999 -0.621999979
vn 0.629000008 0.7773 0.0121999998
vn 0.443899989 0.781300008 0.438800007
vn 0.652499974 0.344599992 0.674899995
vn 0.6523 0.256500006 0.713199973
vn 0.981999993 0.107799999 0.154899999
vn 0.784099996 -0.219600007 -0.58039999
vn -0.466399997 -0.327899992 -0.82160002
vn -0.377999991 -0.287 -0.880200028
vn -0.307200015 -0.397700012 -0.864499986
vn -0.218999997 -0.775300026 -0.592299998
vn -0.296799988 -0.834900022 -0.463499993
vn -0.262899995 -0.86589998 -0.425399989
vn 0.982200027 0.0313000008 0.184900001
vn 0.778599977 -0.297199994 -0.552600026
vn 0.65259999 0.158399999 0.74089998
vn 0.471799999 -0.478899986 0.7403
vn 0.700500011 -0.662699997 0.264699996
vn 0.642499983 -0.704299986 -0.301800013
vn 0.110799998 0.182300001 0.976999998
vn 0.507000029 0.1153 0.854200006
vn 0.501100004 0.282200009 0.818099976
vn 0.104599997 0.307799995 0.945599973
vn -0.650099993 0.208499998 0.730599999
vn -0.644599974 0.0386999995 0.763499975
vn -0.429899991 -0.472000003 0.769699991
vn 0.0734999999 -0.499300003 0.863300025
vn 0.356900007 -0.430000007 0.829200029
vn 0.0964000002 0.433999985 0.895699978
vn 0.493600011 0.436699986 0.752099991
vn 0.332800001 0.814999998 0.474299997
vn 0.055399999 0.871900022 0.486400008
vn -0.479400009 0.774999976 0.41170001
vn -0.657700002 0.35800001 0.662699997
vn -0.00769999996 -0.443199992 -0.896399975
vn -0.615700006 -0.435299993 -0.656799972
vn -0.611800015 -0.344700009 -0.711899996
vn 0.0129000004 -0.38530001 -0.922699988
vn 0.851599991 -0.169100001 -0.495999992
vn 0.814400017 -0.390599996 -0.429100007
vn 0.519999981 -0.817600012 -0.247299999
vn -0.0164999999 -0.91140002 -0.411199987
vn -0.414299995 -0.828800023 -0.375999987
vn 0.0284000002 -0.314500004 -0.948800027
vn -0.632300019 -0.204099998 -0.747300029
vn -0.439599991 0.459800005 -0.771600008
vn 0.0359999985 0.525699973 -0.849900007
vn 0.532899976 0.533599973 -0.656700015
vn 0.821099997 0.0524999984 -0.568300009
vn -0.993900001 0.0631999969 -0.0900999978
vn -0.632300019 -0.204099998 -0.747300029
vn -0.611800015 -0.344700009 -0.711899996
vn -0.994000018 -0.0846000016 -0.069600001
vn -0.650099993 0.208499998 0.730599999
vn -0.657700002 0.35800001 0.662699997
vn -0.66839999 0.72359997 -0.172000006
vn -0.439599991 0.459800005 -0.771600008
vn -0.974799991 -0.220400006 -0.0328000002
vn -0.615700006 -0.435299993 -0.656799972
vn -0.414299995 -0.828800023 -0.375999987
vn -0.626399994 -0.761300027 0.167199999
vn -0.429899991 -0.472000003 0.769699991
vn -0.644599974 0.0386999995 0.763499975
vn 0.863200009 -0.0348999985 0.503700018
vn 0.814400017 -0.390599996 -0.429100007
vn 0.851599991 -0.169100001 -0.495999992
vn 0.8671 0.189999998 0.460399985
vn 0.501100004 0.282200009 0.818099976
vn 0.507000029 0.1153 0.854200006
vn 0.356900007 -0.430000007 0.829200029
vn 0.551900029 -0.658999979 0.510999978
vn 0.519999981 -0.817600012 -0.247299999
vn 0.841099977 0.385500014 0.379400015
vn 0.821099997 0.0524999984 -0.568300009
vn 0.532899976 0.533599973 -0.656700015
vn 0.520500004 0.845399976 0.119800001
vn 0.332800001 0.814999998 0.474299997
vn 0.493600011 0.436699986 0.752099991
vn 0.0164000001 0.993900001 -0.1087
vn 0.055399999 0.871900022 0.486400008
vn 0.332800001 0.814999998 0.474299997
vn 0.520500004 0.845399976 0.119800001
vn 0.532899976 0.533599973 -0.656700015
vn 0.0359999985 0.525699973 -0.849900007
vn -0.439599991 0.459800005 -0.771600008
vn -0.66839999 0.72359997 -0.172000006
vn -0.479400009 0.774999976 0.41170001
vn 0.00240000011 -0.949800014 0.312900007
vn 0.0734999999 -0.499300003 0.863300025
vn -0.429899991 -0.472000003 0.769699991
vn -0.626399994 -0.761300027 0.167199999
vn -0.414299995 -0.828800023 -0.375999987
vn -0.0164999999 -0.91140002 -0.411199987
vn 0.519999981 -0.817600012 -0.247299999
vn 0.551900029 -0.658999979 0.510999978
vn 0.356900007 -0.430000007 0.829200029
vn -0.0716999993 0.986800015 0.145300001
vn -0.0675000027 0.977999985 0.1972
vn -0.110600002 0.534500003 0.837899983
vn -0.226799995 0.569500029 0.790000021
vn -0.413899988 0.611299992 0.674499989
vn -0.0665000007 0.992600024 0.101000004
vn 0.443899989 0.781300008 -0.438800007
vn 0.0566000007 0.849600017 -0.524399996
vn 0.00889999978 0.856999993 -0.515200019
vn -0.0632999986 0.975600004 0.2104
vn -0.0659999996 0.977800012 0.198899999
vn -0.0340000018 0.549199998 0.834999979
vn -0.065700002 0.539300025 0.83950001
vn -0.0216000006 0.858299971 -0.512600005
vn -0.0656000003 0.853600025 -0.516799986
vn -0.0303000007 -0.978399992 -0.204400003
vn -0.0163000003 -0.978799999 -0.2042
vn -0.0388999991 -0.558200002 -0.828800023
vn -0.0119000003 -0.541499972 -0.840600014
vn 0.0142000001 -0.521200001 -0.853299975
vn -0.0452000014 -0.974600017 -0.2192
vn -0.0807000026 -0.842800021 0.532000005
vn -0.0335000008 -0.842299998 0.537899971
vn -0.00300000003 -0.842499971 0.538699985
vn -0.0439999998 -0.969500005 -0.240999997
vn -0.0200999994 -0.975700021 -0.217899993
vn -0.262899995 -0.86589998 0.425399989
vn -0.167199999 -0.857800007 0.485900015
vn 0.0676999986 -0.509599984 -0.85769999
vn 0.471799999 -0.478899986 -0.7403
vn -0.1061 0.980700016 0.164299995
vn -0.108000003 0.976100028 0.188299999
vn 0.230900005 0.608399987 0.759299994
vn 0.135299996 0.583299994 0.800899982
vn 0.0612000003 0.568199992 0.820599973
vn -0.0916000009 0.982500017 0.162200004
vn -0.168799996 0.845799983 -0.506099999
vn -0.227899998 0.848100007 -0.478300005
vn -0.280600011 0.864199996 -0.417699993
vn -0.0760999992 0.981100023 0.1778
vn -0.1171 0.847500026 -0.517700016
vn 0.0037 0.558300018 0.829599977
vn -0.00760000013 -0.978100002 -0.208000004
vn -0.00899999961 -0.978900015 -0.204300001
vn -0.107600003 -0.576300025 -0.810100019
vn -0.0688000023 -0.567399979 -0.820599973
vn 0.0342999995 -0.842800021 0.537100017
vn 0.0926999971 -0.843200028 0.529500008
vn -0.0125000002 -0.982800007 -0.184100002
vn -0.00659999996 -0.989099979 -0.147200003
vn -0.216700003 -0.612399995 -0.760200024
vn -0.161400005 -0.58829999 -0.792400002
vn 0.160099998 -0.845499992 0.50940001
vn 0.230800003 -0.855300009 0.4639
vn -0.100699998 0.963800013 0.246800005
vn -0.307999998 0.896099985 -0.319400012
vn -0.555899978 0.74089998 0.376899987
vn -0.102700002 0.528199971 0.842899978
vn 0.0769999996 0.44780001 0.890799999
vn 0.247600004 0.543799996 0.801800013
vn 0.230900005 0.608399987 0.759299994
vn -0.108000003 0.976100028 0.188299999
vn -0.280600011 0.864199996 -0.417699993
vn 0.0027999999 -0.997200012 -0.0741999969
vn -0.261099994 -0.659500003 -0.704900026
vn -0.216700003 -0.612399995 -0.760200024
vn -0.00659999996 -0.989099979 -0.147200003
vn 0.230800003 -0.855300009 0.4639
vn 0.231800005 -0.841899991 0.487100005
vn 0.104400001 -0.828199983 0.550599992
vn -0.0190999992 -0.896399975 0.442699999
vn -0.496800005 -0.844900012 -0.197899997
vn 0.0267999992 0.347499996 -0.937300026
vn -0.0310999993 0.343199998 -0.93870002
vn -0.0656000003 0.853600025 -0.516799986
vn -0.0216000006 0.858299971 -0.512600005
vn 0.00889999978 0.856999993 -0.515200019
vn 0.0675000027 0.351099998 -0.933899999
vn 0.0680000037 0.277099997 -0.958400011
vn 0.0269000009 0.262600005 -0.96450001
vn -0.0292000007 0.245800003 -0.968900025
vn 0.124499999 0.363000005 -0.923399985
vn 0.652499974 0.344599992 -0.674899995
vn 0.6523 0.256500006 -0.713199973
vn 0.122000001 0.288300008 -0.949699998
vn 0.0566000007 0.849600017 -0.524399996
vn 0.443899989 0.781300008 -0.438800007
vn -0.0284000002 -0.151600003 0.987999976
vn -0.0781999975 -0.167999998 0.98269999
vn -0.110600002 0.534500003 0.837899983
vn -0.065700002 0.539300025 0.83950001
vn -0.0340000018 0.549199998 0.834999979
vn 0.00700000022 -0.149800003 0.988699973
vn 0.00520000001 -0.194100007 0.981000006
vn -0.0197999999 -0.196400002 0.980300009
vn -0.0644999966 -0.204999998 0.976599991
vn -0.217999995 -0.183799997 0.958500028
vn -0.464300007 -0.192300007 0.864499986
vn -0.413899988 0.611299992 0.674499989
vn -0.226799995 0.569500029 0.790000021
vn -0.195199996 -0.218500003 0.956099987
vn -0.419 -0.239199996 0.875899971
vn -0.0979999974 0.342999995 -0.934199989
vn -0.0925000012 0.233899996 -0.967800021
vn -0.157299995 0.230000004 -0.960399985
vn -0.165700004 0.351799995 -0.921299994
vn -0.168799996 0.845799983 -0.506099999
vn -0.1171 0.847500026 -0.517700016
vn -0.251800001 0.369399995 -0.894500017
vn -0.342799991 0.398699999 -0.850600004
vn -0.280600011 0.864199996 -0.417699993
vn -0.227899998 0.848100007 -0.478300005
vn -0.242300004 0.233099997 -0.941799998
vn -0.333600014 0.248199999 -0.909399986
vn 0.0640999973 -0.167199999 0.983799994
vn 0.168099999 -0.185499996 0.968100011
vn 0.160500005 -0.211600006 0.964100003
vn 0.0544000007 -0.200399995 0.978200018
vn 0.0037 0.558300018 0.829599977
vn 0.0612000003 0.568199992 0.820599973
vn 0.300000012 -0.186700001 0.935500026
vn 0.455300003 -0.172999993 0.873300016
vn 0.445199996 -0.244499996 0.861400008
vn 0.294400007 -0.225299999 0.92869997
vn 0.135299996 0.583299994 0.800899982
vn 0.230900005 0.608399987 0.759299994
vn -0.0715000033 -0.257699996 0.963500023
vn 0.1928 -0.278299987 0.940900028
vn 0.0769999996 0.44780001 0.890799999
vn -0.102700002 0.528199971 0.842899978
vn -0.555899978 0.74089998 0.376899987
vn -0.943300009 0.198799998 0.265799999
vn -0.977699995 -0.195500001 0.0766000003
vn -0.0449000001 -0.416500002 0.907999992
vn 0.176100001 -0.384200007 0.906300008
vn -0.00340000005 -0.342400014 0.939499974
vn 0.785899997 -0.122199997 0.60619998
vn 0.597500026 0.506099999 0.621999979
vn -0.0368000008 0.489100009 0.871399999
vn -0.40990001 0.389999986 0.824500024
vn -0.398299992 -0.3213 0.859099984
vn -0.354200006 -0.368600011 0.859399974
vn -0.0107000005 -0.406800002 0.913399994
vn 0.784099996 -0.219600007 0.58039999
vn -0.407499999 0.461600006 -0.787999988
vn -0.342799991 0.398699999 -0.850600004
vn -0.333600014 0.248199999 -0.909399986
vn -0.400099993 0.281399995 -0.872200012
vn -0.977699995 -0.195500001 0.0766000003
vn -0.943300009 0.198799998 0.265799999
vn -0.555899978 0.74089998 0.376899987
vn -0.307999998 0.896099985 -0.319400012
vn -0.280600011 0.864199996 -0.417699993
vn 0.451900005 -0.199399993 0.869499981
vn 0.455300003 -0.172999993 0.873300016
vn 0.230900005 0.608399987 0.759299994
vn 0.247600004 0.543799996 0.801800013
vn 0.0769999996 0.44780001 0.890799999
vn 0.1928 -0.278299987 0.940900028
vn 0.176100001 -0.384200007 0.906300008
vn 0.42899999 -0.301800013 0.851400018
vn 0.445199996 -0.244499996 0.861400008
vn 0.0168999992 0.169200003 -0.985400021
vn -0.0359999985 0.138400003 -0.989700019
vn 0.060800001 0.197300002 -0.978399992
vn 0.0142000001 -0.521200001 -0.853299975
vn -0.0119000003 -0.541499972 -0.840600014
vn -0.0388999991 -0.558200002 -0.828800023
vn 0.119099997 0.210899994 -0.970200002
vn 0.65259999 0.158399999 -0.74089998
vn 0.471799999 -0.478899986 -0.7403
vn 0.0676999986 -0.509599984 -0.85769999
vn -0.0186000001 -0.256000012 0.966499984
vn -0.0644999966 -0.253800005 0.96509999
vn 0.00620000018 -0.252900004 0.967400014
vn -0.00300000003 -0.842499971 0.538699985
vn -0.0335000008 -0.842299998 0.537899971
vn -0.0807000026 -0.842800021 0.532000005
vn -0.184200004 -0.261500001 0.947399974
vn -0.377999991 -0.287 0.880200028
vn -0.167199999 -0.857800007 0.485900015
vn -0.262899995 -0.86589998 0.425399989
vn -0.0930000022 0.115599997 -0.988900006
vn -0.0688000023 -0.567399979 -0.820599973
vn -0.107600003 -0.576300025 -0.810100019
vn -0.153300002 0.101199999 -0.98299998
vn -0.233500004 0.0926999971 -0.967899978
vn -0.321700007 0.0961000025 -0.941900015
vn -0.161400005 -0.58829999 -0.792400002
vn -0.216700003 -0.612399995 -0.760200024
vn 0.0522999987 -0.243200004 0.968599975
vn 0.149900004 -0.241500005 0.958700001
vn 0.0926999971 -0.843200028 0.529500008
vn 0.0342999995 -0.842800021 0.537100017
vn -0.00300000003 -0.842499971 0.538699985
vn 0.271800011 -0.263700008 0.925499976
vn 0.405800015 -0.308099985 0.860499978
vn 0.230800003 -0.855300009 0.4639
vn 0.160099998 -0.845499992 0.50940001
vn -0.0461999997 -0.504700005 0.861999989
vn 0.1646 -0.443599999 0.880999982
vn -0.857200027 -0.513300002 -0.0401000008
vn -0.496800005 -0.844900012 -0.197899997
vn -0.0190999992 -0.896399975 0.442699999
vn 0.104400001 -0.828199983 0.550599992
vn 0.00760000013 -0.446799994 0.894599974
vn 0.778599977 -0.297199994 0.552600026
vn -0.307200015 -0.397700012 0.864499986
vn -0.218999997 -0.775300026 0.592299998
vn 0.0252 -0.861999989 0.506200016
vn 0.642499983 -0.704299986 0.301800013
vn -0.391499996 0.0934000015 -0.915400028
vn -0.321700007 0.0961000025 -0.941900015
vn -0.216700003 -0.612399995 -0.760200024
vn -0.261099994 -0.659500003 -0.704900026
vn -0.496800005 -0.844900012 -0.197899997
vn -0.857200027 -0.513300002 -0.0401000008
vn 0.394899994 -0.371300012 0.840300024
vn 0.405800015 -0.308099985 0.860499978
vn 0.1646 -0.443599999 0.880999982
vn 0.104400001 -0.828199983 0.550599992
vn 0.231800005 -0.841899991 0.487100005
vn 0.230800003 -0.855300009 0.4639
vn -0.072800003 0.984899998 0.157299995
vn -0.517499983 0.545099974 0.659600019
vn -0.40990001 0.389999986 0.824500024
vn -0.0368000008 0.489100009 0.871399999
vn 0.597500026 0.506099999 0.621999979
vn 0.629000008 0.7773 -0.0121999998
vn 0.443899989 0.781300008 -0.438800007
vn -0.0665000007 0.992600024 0.101000004
vn -0.413899988 0.611299992 0.674499989
vn -0.0055999998 -0.995700002 -0.0921000019
vn 0.700500011 -0.662699997 -0.264699996
vn 0.642499983 -0.704299986 0.301800013
vn 0.0252 -0.861999989 0.506200016
vn -0.218999997 -0.775300026 0.592299998
vn -0.296799988 -0.834900022 0.463499993
vn -0.262899995 -0.86589998 0.425399989
vn -0.0200999994 -0.975700021 -0.217899993
vn 0.471799999 -0.478899986 -0.7403
vn -0.583700001 -0.230800003 0.778500021
vn -0.517499983 0.545099974 0.659600019
vn -0.413899988 0.611299992 0.674499989
vn -0.464300007 -0.192300007 0.864499986
vn -0.419 -0.239199996 0.875899971
vn -0.521899998 -0.286199987 0.803499997
vn -0.354200006 -0.368600011 0.859399974
vn -0.398299992 -0.3213 0.859099984
vn -0.40990001 0.389999986 0.824500024
vn 0.971400023 0.188600004 -0.143999994
vn 0.629000008 0.7773 -0.0121999998
vn 0.597500026 0.506099999 0.621999979
vn 0.785899997 -0.122199997 0.60619998
vn 0.784099996 -0.219600007 0.58039999
vn 0.981999993 0.107799999 -0.154899999
vn 0.6523 0.256500006 -0.713199973
vn 0.652499974 0.344599992 -0.674899995
vn 0.443899989 0.781300008 -0.438800007
vn -0.466399997 -0.327899992 0.82160002
vn -0.377999991 -0.287 0.880200028
vn -0.262899995 -0.86589998 0.425399989
vn -0.296799988 -0.834900022 0.463499993
vn -0.218999997 -0.775300026 0.592299998
vn -0.307200015 -0.397700012 0.864499986
vn 0.982200027 0.0313000008 -0.184900001
vn 0.778599977 -0.297199994 0.552600026
vn 0.642499983 -0.704299986 0.301800013
vn 0.700500011 -0.662699997 -0.264699996
vn 0.471799999 -0.478899986 -0.7403
vn 0.65259999 0.158399999 -0.74089998
vn 0.110799998 0.182300001 -0.976999998
vn 0.104599997 0.307799995 -0.945599973
vn 0.501100004 0.282200009 -0.818099976
vn 0.507000029 0.1153 -0.854200006
vn 0.356900007 -0.430000007 -0.829200029
vn 0.0734999999 -0.499300003 -0.863300025
vn -0.429899991 -0.472000003 -0.769699991
vn -0.644599974 0.0386999995 -0.763499975
vn -0.650099993 0.208499998 -0.730700016
vn 0.0964000002 0.433999985 -0.895699978
vn 0.055399999 0.871900022 -0.486400008
vn 0.332800001 0.814999998 -0.474299997
vn 0.493600011 0.436699986 -0.752099991
vn -0.657700002 0.35800001 -0.662699997
vn -0.479400009 0.774999976 -0.41170001
vn -0.00769999996 -0.443199992 0.896399975
vn 0.0129000004 -0.38530001 0.922699988
vn -0.611800015 -0.344700009 0.711899996
vn -0.615700006 -0.435299993 0.656799972
vn -0.414299995 -0.828800023 0.375999987
vn -0.0164999999 -0.91140002 0.411199987
vn 0.519999981 -0.817600012 0.247299999
vn 0.814400017 -0.390599996 0.429100007
vn 0.851599991 -0.169100001 0.495999992
vn 0.0284000002 -0.314500004 0.948800027
vn 0.0359999985 0.525699973 0.849900007
vn -0.439599991 0.459800005 0.771600008
vn -0.632300019 -0.204099998 0.747300029
vn 0.821099997 0.0524999984 0.568300009
vn 0.532899976 0.533599973 0.656700015
vn -0.993900001 0.0631999969 0.0900999978
vn -0.994000018 -0.0846000016 0.069600001
vn -0.611800015 -0.344700009 0.711899996
vn -0.632300019 -0.204099998 0.747300029
vn -0.439599991 0.459800005 0.771600008
vn -0.66839999 0.72359997 0.172000006
vn -0.657700002 0.35800001 -0.662699997
vn -0.650099993 0.208499998 -0.730700016
vn -0.974799991 -0.220400006 0.0328000002
vn -0.626399994 -0.761300027 -0.167199999
vn -0.414299995 -0.828800023 0.375999987
vn -0.615700006 -0.435299993 0.656799972
vn -0.644599974 0.0386999995 -0.763499975
vn -0.429899991 -0.472000003 -0.769699991
vn 0.863200009 -0.0348999985 -0.503700018
vn 0.8671 0.189999998 -0.460399985
vn 0.851599991 -0.169100001 0.495999992
vn 0.814400017 -0.390599996 0.429100007
vn 0.519999981 -0.817600012 0.247299999
vn 0.551900029 -0.658999979 -0.510999978
vn 0.356900007 -0.430000007 -0.829200029
vn 0.507000029 0.1153 -0.854200006
vn 0.501100004 0.282200009 -0.818099976
vn 0.841099977 0.385500014 -0.379400015
vn 0.520500004 0.845399976 -0.119800001
vn 0.532899976 0.533599973 0.656700015
vn 0.821099997 0.0524999984 0.568300009
vn 0.493600011 0.436699986 -0.752099991
vn 0.332800001 0.814999998 -0.474299997
vn 0.0164000001 0.993900001 0.1087
vn 0.520500004 0.845399976 -0.119800001
vn 0.332800001 0.814999998 -0.474299997
vn 0.055399999 0.871900022 -0.486400008
vn -0.479400009 0.774999976 -0.41170001
vn -0.66839999 0.72359997 0.172000006
vn -0.439599991 0.459800005 0.771600008
vn 0.0359999985 0.525699973 0.849900007
vn 0.532899976 0.533599973 0.656700015
vn 0.00240000011 -0.949800014 -0.312900007
vn -0.626399994 -0.761300027 -0.167199999
vn -0.429899991 -0.472000003 -0.769699991
vn 0.0734999999 -0.499300003 -0.863300025
vn 0.356900007 -0.430000007 -0.829200029
vn 0.551900029 -0.658999979 -0.510999978
vn 0.519999981 -0.817600012 0.247299999
vn -0.0164999999 -0.91140002 0.411199987
vn -0.414299995 -0.828800023 0.375999987
f 1/1/1 2/2/2 3/3/3
f 1/1/1 3/3/3 4/4/4
f 1/1/1 4/4/4 5/5/5
f 1/1/1 5/5/5 6/6/6
f 1/1/1 6/6/6 7/7/7
f 1/1/1 7/7/7 8/8/8
f 1/1/1 8/8/8 9/9/9
f 1/1/1 9/9/9 2/2/2
f 10/10/10 11/11/11 12/12/12
f 10/10/10 12/12/12 13/13/13
f 10/10/10 13/13/13 14/14/14
f 10/10/10 14/14/14 15/15/15
f 10/10/10 15/15/15 5/5/5
f 10/10/10 5/5/5 4/4/4
f 10/10/10 4/4/4 3/3/3
f 10/10/10 3/3/3 11/11/11
f 16/16/16 17/17/17 18/18/18
f 16/16/16 18/18/18 19/19/19
f 16/16/16 19/19/19 20/20/20
f 16/16/16 20/20/20 21/21/21
f 16/16/16 21/21/21 22/22/22
f 16/16/16 22/22/22 23/23/23
f 16/16/16 23/23/23 24/24/24
f 16/16/16 24/24/24 17/17/17
f 25/25/25 26/26/26 27/27/27
f 25/25/25 27/27/27 28/28/28
f 25/25/25 28/28/28 29/29/29
f 25/25/25 29/29/29 30/30/30
f 25/25/25 30/30/30 24/24/24
f 25/25/25 24/24/24 23/23/23
f 25/25/25 23/23/23 22/22/22
f 25/25/25 22/22/22 26/26/26
f 31/31/31 32/32/32 33/33/33
f 31/31/31 33/33/33 34/34/34
f 31/31/31 34/34/34 35/35/35
f 31/31/31 35/35/35 36/36/36
f 31/31/31 36/36/36 37/37/37
f 31/31/31 37/37/37 38/38/38
f 31/31/31 38/38/38 39/39/39
f 31/31/31 39/39/39 32/32/32
f 40/40/40 41/41/41 14/14/14
f 40/40/40 14/14/14 13/13/13
f 40/40/40 13/13/13 12/12/12
f 40/40/40 12/12/12 42/42/42
f 40/40/40 42/42/42 39/39/39
f 40/40/40 39/39/39 38/38/38
f 40/40/40 38/38/38 37/37/37
f 40/40/40 37/37/37 41/41/41
f 43/43/43 44/44/44 45/45/45
f 43/43/43 45/45/45 46/46/46
f 43/43/43 46/46/46 47/47/47
f 43/43/43 47/47/47 48/48/48
f 43/43/43 48/48/48 20/20/20
f 43/43/43 20/20/20 19/19/19
f 43/43/43 19/19/19 18/18/18
f 43/43/43 18/18/18 44/44/44
f 49/49/49 50/50/50 51/51/51
f 49/49/49 51/51/51 52/52/52
f 49/49/49 52/52/52 53/53/53
f 49/49/49 53/53/53 54/54/54
f 49/49/49 54/54/54 47/47/47
f 49/49/49 47/47/47 46/46/46
f 49/49/49 46/46/46 45/45/45
f 49/49/49 45/45/45 50/50/50
f 55/55/55 56/56/56 57/57/57
f 55/55/55 57/57/57 58/58/58
f 55/55/55 58/58/58 59/59/59
f 55/55/55 59/59/59 60/60/60
f 55/55/55 60/60/60 61/61/61
f 55/55/55 61/61/61 62/62/62
f 55/55/55 62/62/62 63/63/63
f 55/55/55 63/63/63 56/56/56
f 64/64/64 65/65/65 66/66/66
f 64/64/64 66/66/66 67/67/67
f 64/64/64 67/67/67 68/68/68
f 64/64/64 68/68/68 69/69/69
f 64/64/64 69/69/69 70/70/70
f 64/64/64 70/70/70 71/71/71
f 64/64/64 71/71/71 72/72/72
f 64/64/64 72/72/72 65/65/65
f 73/73/73 74/74/74 75/75/75
f 73/73/73 75/75/75 76/76/76
f 73/73/73 76/76/76 77/77/77
f 73/73/73 77/77/77 78/78/78
f 73/73/73 78/78/78 79/79/79
f 73/73/73 79/79/79 80/80/80
f 73/73/73 80/80/80 81/81/81
f 73/73/73 81/81/81 74/74/74
f 82/82/82 83/83/83 84/84/84
f 82/82/82 84/84/84 85/85/85
f 82/82/82 85/85/85 86/86/86
f 82/82/82 86/86/86 87/87/87
f 82/82/82 87/87/87 81/81/81
f 82/82/82 81/81/81 80/80/80
f 82/82/82 80/80/80 79/79/79
f 82/82/82 79/79/79 83/83/83
f 88/88/88 89/89/89 90/90/90
f 88/88/88 90/90/90 91/91/91
f 88/88/88 91/91/91 92/92/92
f 88/88/88 92/92/92 93/93/93
f 88/88/88 93/93/93 94/94/94
f 88/88/88 94/94/94 95/95/95
f 88/88/88 95/95/95 96/96/96
f 88/88/88 96/96/96 89/89/89
f 97/97/97 98/98/98 99/99/99
f 97/97/97 99/99/99 100/100/100
f 97/97/97 100/100/100 101/101/101
f 97/97/97 101/101/101 102/102/102
f 97/97/97 102/102/102 92/92/92
f 97/97/97 92/92/92 91/91/91
f 97/97/97 91/91/91 90/90/90
f 97/97/97 90/90/90 98/98/98
f 103/103/103 104/104/104 77/77/77
f 103/103/103 77/77/77 76/76/76
f 103/103/103 76/76/76 75/75/75
f 103/103/103 75/75/75 105/105/105
f 103/103/103 105/105/105 106/106/106
f 103/103/103 106/106/106 107/107/107
f 103/103/103 107/107/107 108/108/108
f 103/103/103 108/108/108 104/104/104
f 109/109/109 110/110/110 111/111/111
f 109/109/109 111/111/111 112/112/112
f 109/109/109 112/112/112 113/113/113
f 109/109/109 113/113/113 114/114/114
f 109/109/109 114/114/114 108/108/108
f 109/109/109 108/108/108 107/107/107
f 109/109/109 107/107/107 106/106/106
f 109/109/109 106/106/106 110/110/110
f 115/115/115 116/116/116 117/117/117
f 115/115/115 117/117/117 118/118/118
f 115/115/115 118/118/118 119/119/119
f 115/115/115 119/119/119 120/120/120
f 115/115/115 120/120/120 96/96/96
f 115/115/115 96/96/96 95/95/95
f 115/115/115 95/95/95 94/94/94
f 115/115/115 94/94/94 116/116/116
f 121/121/121 122/122/122 123/123/123
f 121/121/121 123/123/123 124/124/124
f 121/121/121 124/124/124 125/125/125
f 121/121/121 125/125/125 126/126/126
f 121/121/121 126/126/126 119/119/119
f 121/121/121 119/119/119 118/118/118
f 121/121/121 118/118/118 117/117/117
f 121/121/121 117/117/117 122/122/122
f 127/127/127 128/128/128 129/129/129
f 127/127/127 129/129/129 130/130/130
f 127/127/127 130/130/130 131/131/131
f 127/127/127 131/131/131 132/132/132
f 127/127/127 132/132/132 133/133/133
f 127/127/127 133/133/133 134/134/134
f 127/127/127 134/134/134 135/135/135
f 127/127/127 135/135/135 128/128/128
f 136/136/136 137/137/137 138/138/138
f 136/136/136 138/138/138 139/139/139
f 136/136/136 139/139/139 140/140/140
f 136/136/136 140/140/140 141/141/141
f 136/136/136 141/141/141 142/142/142
f 136/136/136 142/142/142 143/143/143
f 136/136/136 143/143/143 144/144/144
f 136/136/136 144/144/144 137/137/137
f 145/145/145 146/146/146 147/147/147
f 145/145/145 147/147/147 148/148/148
f 145/145/145 148/148/148 149/149/149
f 145/145/145 149/149/149 150/150/150
f 145/145/145 150/150/150 151/151/151
f 145/145/145 151/151/151 152/152/152
f 145/145/145 152/152/152 153/153/153
f 145/145/145 153/153/153 146/146/146
f 154/154/154 155/155/155 156/156/156
f 154/154/154 156/156/156 157/157/157
f 154/154/154 157/157/157 158/158/158
f 154/154/154 158/158/158 159/159/159
f 154/154/154 159/159/159 160/160/160
f 154/154/154 160/160/160 161/161/161
f 154/154/154 161/161/161 162/162/162
f 154/154/154 162/162/162 155/155/155
f 163/163/163 78/78/78 77/77/77
f 163/163/163 77/77/77 164/164/164
f 163/163/163 164/164/164 165/165/165
f 163/163/163 165/165/165 166/166/166
f 163/163/163 166/166/166 167/167/167
f 163/163/163 167/167/167 168/168/168
f 163/163/163 168/168/168 79/79/79
f 163/163/163 79/79/79 78/78/78
f 169/169/169 170/170/170 171/171/171
f 169/169/169 171/171/171 172/172/172
f 169/169/169 172/172/172 84/84/84
f 169/169/169 84/84/84 83/83/83
f 169/169/169 83/83/83 79/79/79
f 169/169/169 79/79/79 168/168/168
f 169/169/169 168/168/168 167/167/167
f 169/169/169 167/167/167 170/170/170
f 173/173/173 93/93/93 92/92/92
f 173/173/173 92/92/92 174/174/174
f 173/173/173 174/174/174 175/175/175
f 173/173/173 175/175/175 176/176/176
f 173/173/173 176/176/176 177/177/177
f 173/173/173 177/177/177 178/178/178
f 173/173/173 178/178/178 94/94/94
f 173/173/173 94/94/94 93/93/93
f 179/179/179 102/102/102 101/101/101
f 179/179/179 101/101/101 180/180/180
f 179/179/179 180/180/180 181/181/181
f 179/179/179 181/181/181 182/182/182
f 179/179/179 182/182/182 175/175/175
f 179/179/179 175/175/175 174/174/174
f 179/179/179 174/174/174 92/92/92
f 179/179/179 92/92/92 102/102/102
f 183/183/183 184/184/184 165/165/165
f 183/183/183 165/165/165 164/164/164
f 183/183/183 164/164/164 77/77/77
f 183/183/183 77/77/77 104/104/104
f 183/183/183 104/104/104 108/108/108
f 183/183/183 108/108/108 185/185/185
f 183/183/183 185/185/185 186/186/186
f 183/183/183 186/186/186 184/184/184
f 187/187/187 114/114/114 113/113/113
f 187/187/187 113/113/113 188/188/188
f 187/187/187 188/188/188 189/189/189
f 187/187/187 189/189/189 190/190/190
f 187/187/187 190/190/190 186/186/186
f 187/187/187 186/186/186 185/185/185
f 187/187/187 185/185/185 108/108/108
f 187/187/187 108/108/108 114/114/114
f 191/191/191 192/192/192 193/193/193
f 191/191/191 193/193/193 194/194/194
f 191/191/191 194/194/194 117/117/117
f 191/191/191 117/117/117 116/116/116
f 191/191/191 116/116/116 94/94/94
f 191/191/191 94/94/94 178/178/178
f 191/191/191 178/178/178 195/195/195
f 191/191/191 195/195/195 192/192/192
f 196/196/196 197/197/197 198/198/198
f 196/196/196 198/198/198 199/199/199
f 196/196/196 199/199/199 123/123/123
f 196/196/196 123/123/123 122/122/122
f 196/196/196 122/122/122 117/117/117
f 196/196/196 117/117/117 194/194/194
f 196/196/196 194/194/194 193/193/193
f 196/196/196 193/193/193 197/197/197
f 200/200/200 132/132/132 131/131/131
f 200/200/200 131/131/131 201/201/201
f 200/200/200 201/201/201 202/202/202
f 200/200/200 202/202/202 203/203/203
f 200/200/200 203/203/203 204/204/204
f 200/200/200 204/204/204 205/205/205
f 200/200/200 205/205/205 133/133/133
f 200/200/200 133/133/133 132/132/132
f 206/206/206 141/141/141 140/140/140
f 206/206/206 140/140/140 207/207/207
f 206/206/206 207/207/207 208/208/208
f 206/206/206 208/208/208 209/209/209
f 206/206/206 209/209/209 210/210/210
f 206/206/206 210/210/210 211/211/211
f 206/206/206 211/211/211 142/142/142
f 206/206/206 142/142/142 141/141/141
f 212/212/212 213/213/213 214/214/214
f 212/212/212 214/214/214 215/215/215
f 212/212/212 215/215/215 147/147/147
f 212/212/212 147/147/147 146/146/146
f 212/212/212 146/146/146 153/153/153
f 212/212/212 153/153/153 216/216/216
f 212/212/212 216/216/216 217/217/217
f 212/212/212 217/217/217 213/213/213
f 218/218/218 159/159/159 158/158/158
f 218/218/218 158/158/158 219/219/219
f 218/218/218 219/219/219 220/220/220
f 218/218/218 220/220/220 221/221/221
f 218/218/218 221/221/221 222/222/222
f 218/218/218 222/222/222 223/223/223
f 218/218/218 223/223/223 160/160/160
f 218/218/218 160/160/160 159/159/159
f 224/224/224 225/225/225 226/226/226
f 224/224/224 226/226/226 227/227/227
f 224/224/224 227/227/227 228/228/228
f 224/224/224 228/228/228 229/229/229
f 224/224/224 229/229/229 230/230/230
f 224/224/224 230/230/230 231/231/231
f 224/224/224 231/231/231 232/232/232
f 224/224/224 232/232/232 225/225/225
f 233/233/233 234/234/234 235/235/235
f 233/233/233 235/235/235 236/236/236
f 233/233/233 236/236/236 237/237/237
f 233/233/233 237/237/237 238/238/238
f 233/233/233 238/238/238 239/239/239
f 233/233/233 239/239/239 240/240/240
f 233/233/233 240/240/240 241/241/241
f 233/233/233 241/241/241 234/234/234
f 242/242/242 243/243/243 244/244/244
f 242/242/242 244/244/244 245/245/245
f 242/242/242 245/245/245 246/246/246
f 242/242/242 246/246/246 247/247/247
f 242/242/242 247/247/247 248/248/248
f 242/242/242 248/248/248 249/249/249
f 242/242/242 249/249/249 250/250/250
f 242/242/242 250/250/250 243/243/243
f 251/251/251 252/252/252 253/253/253
f 251/251/251 253/253/253 254/254/254
f 251/251/251 254/254/254 255/255/255
f 251/251/251 255/255/255 256/256/256
f 251/251/251 256/256/256 257/257/257
f 251/251/251 257/257/257 258/258/258
f 251/251/251 258/258/258 259/259/259
f 251/251/251 259/259/259 252/252/252
f 260/260/260 261/261/261 250/250/250
f 260/260/260 250/250/250 249/249/249
f 260/260/260 249/249/249 248/248/248
f 260/260/260 248/248/248 262/262/262
f 260/260/260 262/262/262 263/263/263
f 260/260/260 263/263/263 264/264/264
f 260/260/260 264/264/264 265/265/265
f 260/260/260 265/265/265 261/261/261
f 266/266/266 267/267/267 259/259/259
f 266/266/266 259/259/259 258/258/258
f 266/266/266 258/258/258 257/257/257
f 266/266/266 257/257/257 268/268/268
f 266/266/266 268/268/268 269/269/269
f 266/266/266 269/269/269 270/270/270
f 266/266/266 270/270/270 271/271/271
f 266/266/266 271/271/271 267/267/267
f 272/272/272 273/273/273 274/274/274
f 272/272/272 274/274/274 275/275/275
f 272/272/272 275/275/275 276/276/276
f 272/272/272 276/276/276 277/277/277
f 272/272/272 277/277/277 278/278/278
f 272/272/272 278/278/278 279/279/279
f 272/272/272 279/279/279 280/280/280
f 272/272/272 280/280/280 273/273/273
f 281/281/281 282/282/282 283/283/283
f 281/281/281 283/283/283 284/284/284
f 281/281/281 284/284/284 285/285/285
f 281/281/281 285/285/285 286/286/286
f 281/281/281 286/286/286 276/276/276
f 281/281/281 276/276/276 275/275/275
f 281/281/281 275/275/275 274/274/274
f 281/281/281 274/274/274 282/282/282
f 287/287/287 288/288/288 289/289/289
f 287/287/287 289/289/289 290/290/290
f 287/287/287 290/290/290 291/291/291
f 287/287/287 291/291/291 292/292/292
f 287/287/287 292/292/292 293/293/293
f 287/287/287 293/293/293 294/294/294
f 287/287/287 294/294/294 295/295/295
f 287/287/287 295/295/295 288/288/288
f 296/296/296 297/297/297 298/298/298
f 296/296/296 298/298/298 299/299/299
f 296/296/296 299/299/299 300/300/300
f 296/296/296 300/300/300 301/301/301
f 296/296/296 301/301/301 291/291/291
f 296/296/296 291/291/291 290/290/290
f 296/296/296 290/290/290 289/289/289
f 296/296/296 289/289/289 297/297/297
f 302/302/302 303/303/303 304/304/304
f 302/302/302 304/304/304 305/305/305
f 302/302/302 305/305/305 306/306/306
f 302/302/302 306/306/306 307/307/307
f 302/302/302 307/307/307 285/285/285
f 302/302/302 285/285/285 308/308/308
f 302/302/302 308/308/308 309/309/309
f 302/302/302 309/309/309 303/303/303
f 310/310/310 311/311/311 312/312/312
f 310/310/310 312/312/312 313/313/313
f 310/310/310 313/313/313 314/314/314
f 310/310/310 314/314/314 315/315/315
f 310/310/310 315/315/315 306/306/306
f 310/310/310 306/306/306 305/305/305
f 310/310/310 305/305/305 304/304/304
f 310/310/310 304/304/304 311/311/311
f 316/316/316 317/317/317 318/318/318
f 316/316/316 318/318/318 319/319/319
f 316/316/316 319/319/319 320/320/320
f 316/316/316 320/320/320 321/321/321
f 316/316/316 321/321/321 322/322/322
f 316/316/316 322/322/322 323/323/323
f 316/316/316 323/323/323 324/324/324
f 316/316/316 324/324/324 317/317/317
f 325/325/325 326/326/326 327/327/327
f 325/325/325 327/327/327 328/328/328
f 325/325/325 328/328/328 329/329/329
f 325/325/325 329/329/329 330/330/330
f 325/325/325 330/330/330 320/320/320
f 325/325/325 320/320/320 319/319/319
f 325/325/325 319/319/319 318/318/318
f 325/325/325 318/318/318 326/326/326
f 331/331/331 332/332/332 333/333/333
f 331/331/331 333/333/333 334/334/334
f 331/331/331 334/334/334 335/335/335
f 331/331/331 335/335/335 336/336/336
f 331/331/331 336/336/336 337/337/337
f 331/331/331 337/337/337 338/338/338
f 331/331/331 338/338/338 339/339/339
f 331/331/331 339/339/339 332/332/332
f 340/340/340 341/341/341 342/342/342
f 340/340/340 342/342/342 343/343/343
f 340/340/340 343/343/343 344/344/344
f 340/340/340 344/344/344 345/345/345
f 340/340/340 345/345/345 346/346/346
f 340/340/340 346/346/346 347/347/347
f 340/340/340 347/347/347 348/348/348
f 340/340/340 348/348/348 341/341/341
f 349/349/349 350/350/350 351/351/351
f 349/349/349 351/351/351 352/352/352
f 349/349/349 352/352/352 353/353/353
f 349/349/349 353/353/353 354/354/354
f 349/349/349 354/354/354 355/355/355
f 349/349/349 355/355/355 356/356/356
f 349/349/349 356/356/356 357/357/357
f 349/349/349 357/357/357 350/350/350
f 358/358/358 359/359/359 360/360/360
f 358/358/358 360/360/360 361/361/361
f 358/358/358 361/361/361 351/351/351
f 358/358/358 351/351/351 350/350/350
f 358/358/358 350/350/350 357/357/357
f 358/358/358 357/357/357 362/362/362
f 358/358/358 362/362/362 363/363/363
f 358/358/358 363/363/363 359/359/359
f 364/364/364 365/365/365 366/366/366
f 364/364/364 366/366/366 367/367/367
f 364/364/364 367/367/367 368/368/368
f 364/364/364 368/368/368 369/369/369
f 364/364/364 369/369/369 370/370/370
f 364/364/364 370/370/370 371/371/371
f 364/364/364 371/371/371 372/372/372
f 364/364/364 372/372/372 365/365/365
f 373/373/373 374/374/374 375/375/375
f 373/373/373 375/375/375 376/376/376
f 373/373/373 376/376/376 370/370/370
f 373/373/373 370/370/370 369/369/369
f 373/373/373 369/369/369 368/368/368
f 373/373/373 368/368/368 377/377/377
f 373/373/373 377/377/377 378/378/378
f 373/373/373 378/378/378 374/374/374
f 379/379/379 380/380/380 381/381/381
f 379/379/379 381/381/381 382/382/382
f 379/379/379 382/382/382 383/383/383
f 379/379/379 383/383/383 384/384/384
f 379/379/379 384/384/384 385/385/385
f 379/379/379 385/385/385 386/386/386
f 379/379/379 386/386/386 387/387/387
f 379/379/379 387/387/387 380/380/380
f 388/388/388 359/359/359 363/363/363
f 388/388/388 363/363/363 389/389/389
f 388/388/388 389/389/389 385/385/385
f 388/388/388 385/385/385 384/384/384
f 388/388/388 384/384/384 383/383/383
f 388/388/388 383/383/383 390/390/390
f 388/388/388 390/390/390 360/360/360
f 388/388/388 360/360/360 359/359/359
f 391/391/391 392/392/392 393/393/393
f 391/391/391 393/393/393 394/394/394
f 391/391/391 394/394/394 366/366/366
f 391/391/391 366/366/366 365/365/365
f 391/391/391 365/365/365 372/372/372
f 391/391/391 372/372/372 395/395/395
f 391/391/391 395/395/395 396/396/396
f 391/391/391 396/396/396 392/392/392
f 397/397/397 398/398/398 399/399/399
f 397/397/397 399/399/399 400/400/400
f 397/397/397 400/400/400 393/393/393
f 397/397/397 393/393/393 392/392/392
f 397/397/397 392/392/392 396/396/396
f 397/397/397 396/396/396 401/401/401
f 397/397/397 401/401/401 402/402/402
f 397/397/397 402/402/402 398/398/398
f 403/403/403 404/404/404 405/405/405
f 403/403/403 405/405/405 406/406/406
f 403/403/403 406/406/406 407/407/407
f 403/403/403 407/407/407 408/408/408
f 403/403/403 408/408/408 409/409/409
f 403/403/403 409/409/409 410/410/410
f 403/403/403 410/410/410 411/411/411
f 403/403/403 411/411/411 404/404/404
f 412/412/412 413/413/413 414/414/414
f 412/412/412 414/414/414 415/415/415
f 412/412/412 415/415/415 416/416/416
f 412/412/412 416/416/416 417/417/417
f 412/412/412 417/417/417 418/418/418
f 412/412/412 418/418/418 419/419/419
f 412/412/412 419/419/419 420/420/420
f 412/412/412 420/420/420 413/413/413
f 421/421/421 422/422/422 423/423/423
f 421/421/421 423/423/423 424/424/424
f 421/421/421 424/424/424 425/425/425
f 421/421/421 425/425/425 426/426/426
f 421/421/421 426/426/426 427/427/427
f 421/421/421 427/427/427 428/428/428
f 421/421/421 428/428/428 429/429/429
f 421/421/421 429/429/429 422/422/422
f 430/430/430 431/431/431 432/432/432
f 430/430/430 432/432/432 433/433/433
f 430/430/430 433/433/433 427/427/427
f 430/430/430 427/427/427 426/426/426
f 430/430/430 426/426/426 425/425/425
f 430/430/430 425/425/425 434/434/434
f 430/430/430 434/434/434 435/435/435
f 430/430/430 435/435/435 431/431/431
f 436/436/436 437/437/437 438/438/438
f 436/436/436 438/438/438 439/439/439
f 436/436/436 439/439/439 440/440/440
f 436/436/436 440/440/440 441/441/441
f 436/436/436 441/441/441 442/442/442
f 436/436/436 442/442/442 443/443/443
f 436/436/436 443/443/443 444/444/444
f 436/436/436 444/444/444 437/437/437
f 445/445/445 446/446/446 447/447/447
f 445/445/445 447/447/447 448/448/448
f 445/445/445 448/448/448 438/438/438
f 445/445/445 438/438/438 437/437/437
f 445/445/445 437/437/437 444/444/444
f 445/445/445 444/444/444 449/449/449
f 445/445/445 449/449/449 450/450/450
f 445/445/445 450/450/450 446/446/446
f 451/451/451 422/422/422 429/429/429
f 451/451/451 429/429/429 452/452/452
f 451/451/451 452/452/452 453/453/453
f 451/451/451 453/453/453 454/454/454
f 451/451/451 454/454/454 455/455/455
f 451/451/451 455/455/455 456/456/456
f 451/451/451 456/456/456 423/423/423
f 451/451/451 423/423/423 422/422/422
f 457/457/457 458/458/458 459/459/459
f 457/457/457 459/459/459 460/460/460
f 457/457/457 460/460/460 455/455/455
f 457/457/457 455/455/455 454/454/454
f 457/457/457 454/454/454 453/453/453
f 457/457/457 453/453/453 461/461/461
f 457/457/457 461/461/461 462/462/462
f 457/457/457 462/462/462 458/458/458
f 463/463/463 464/464/464 465/465/465
f 463/463/463 465/465/465 466/466/466
f 463/463/463 466/466/466 442/442/442
f 463/463/463 442/442/442 441/441/441
f 463/463/463 441/441/441 440/440/440
f 463/463/463 440/440/440 467/467/467
f 463/463/463 467/467/467 468/468/468
f 463/463/463 468/468/468 464/464/464
f 469/469/469 470/470/470 471/471/471
f 469/469/469 471/471/471 472/472/472
f 469/469/469 472/472/472 465/465/465
f 469/469/469 465/465/465 464/464/464
f 469/469/469 464/464/464 468/468/468
f 469/469/469 468/468/468 473/473/473
f 469/469/469 473/473/473 474/474/474
f 469/469/469 474/474/474 470/470/470
f 475/475/475 476/476/476 477/477/477
f 475/475/475 477/477/477 478/478/478
f 475/475/475 478/478/478 479/479/479
f 475/475/475 479/479/479 480/480/480
f 475/475/475 480/480/480 481/481/481
f 475/475/475 481/481/481 482/482/482
f 475/475/475 482/482/482 483/483/483
f 475/475/475 483/483/483 476/476/476
f 484/484/484 485/485/485 486/486/486
f 484/484/484 486/486/486 487/487/487
f 484/484/484 487/487/487 488/488/488
f 484/484/484 488/488/488 489/489/489
f 484/484/484 489/489/489 490/490/490
f 484/484/484 490/490/490 491/491/491
f 484/484/484 491/491/491 492/492/492
f 484/484/484 492/492/492 485/485/485
f 493/493/493 494/494/494 495/495/495
f 493/493/493 495/495/495 496/496/496
f 493/493/493 496/496/496 497/497/497
f 493/493/493 497/497/497 498/498/498
f 493/493/493 498/498/498 499/499/499
f 493/493/493 499/499/499 500/500/500
f 493/493/493 500/500/500 501/501/501
f 493/493/493 501/501/501 494/494/494
f 502/502/502 503/503/503 504/504/504
f 502/502/502 504/504/504 505/505/505
f 502/502/502 505/505/505 506/506/506
f 502/502/502 506/506/506 507/507/507
f 502/502/502 507/507/507 508/508/508
f 502/502/502 508/508/508 509/509/509
f 502/502/502 509/509/509 510/510/510
f 502/502/502 510/510/510 503/503/503
f 511/511/511 512/512/512 429/429/429
f 511/511/511 429/429/429 428/428/428
f 511/511/511 428/428/428 427/427/427
f 511/511/511 427/427/427 513/513/513
f 511/511/511 513/513/513 514/514/514
f 511/511/511 514/514/514 515/515/515
f 511/511/511 515/515/515 516/516/516
f 511/511/511 516/516/516 512/512/512
f 517/517/517 518/518/518 519/519/519
f 517/517/517 519/519/519 520/520/520
f 517/517/517 520/520/520 514/514/514
f 517/517/517 514/514/514 513/513/513
f 517/517/517 513/513/513 427/427/427
f 517/517/517 427/427/427 433/433/433
f 517/517/517 433/433/433 432/432/432
f 517/517/517 432/432/432 518/518/518
f 521/521/521 522/522/522 444/444/444
f 521/521/521 444/444/444 443/443/443
f 521/521/521 443/443/443 442/442/442
f 521/521/521 442/442/442 523/523/523
f 521/521/521 523/523/523 524/524/524
f 521/521/521 524/524/524 525/525/525
f 521/521/521 525/525/525 526/526/526
f 521/521/521 526/526/526 522/522/522
f 527/527/527 528/528/528 450/450/450
f 527/527/527 450/450/450 449/449/449
f 527/527/527 449/449/449 444/444/444
f 527/527/527 444/444/444 522/522/522
f 527/527/527 522/522/522 526/526/526
f 527/527/527 526/526/526 529/529/529
f 527/527/527 529/529/529 530/530/530
f 527/527/527 530/530/530 528/528/528
f 531/531/531 512/512/512 516/516/516
f 531/531/531 516/516/516 532/532/532
f 531/531/531 532/532/532 533/533/533
f 531/531/531 533/533/533 534/534/534
f 531/531/531 534/534/534 453/453/453
f 531/531/531 453/453/453 452/452/452
f 531/531/531 452/452/452 429/429/429
f 531/531/531 429/429/429 512/512/512
f 535/535/535 536/536/536 462/462/462
f 535/535/535 462/462/462 461/461/461
f 535/535/535 461/461/461 453/453/453
f 535/535/535 453/453/453 534/534/534
f 535/535/535 534/534/534 533/533/533
f 535/535/535 533/533/533 537/537/537
f 535/535/535 537/537/537 538/538/538
f 535/535/535 538/538/538 536/536/536
f 539/539/539 540/540/540 541/541/541
f 539/539/539 541/541/541 542/542/542
f 539/539/539 542/542/542 543/543/543
f 539/539/539 543/543/543 523/523/523
f 539/539/539 523/523/523 442/442/442
f 539/539/539 442/442/442 466/466/466
f 539/539/539 466/466/466 465/465/465
f 539/539/539 465/465/465 540/540/540
f 544/544/544 545/545/545 546/546/546
f 544/544/544 546/546/546 547/547/547
f 544/544/544 547/547/547 541/541/541
f 544/544/544 541/541/541 540/540/540
f 544/544/544 540/540/540 465/465/465
f 544/544/544 465/465/465 472/472/472
f 544/544/544 472/472/472 471/471/471
f 544/544/544 471/471/471 545/545/545
f 548/548/548 549/549/549 483/483/483
f 548/548/548 483/483/483 482/482/482
f 548/548/548 482/482/482 481/481/481
f 548/548/548 481/481/481 550/550/550
f 548/548/548 550/550/550 551/551/551
f 548/548/548 551/551/551 552/552/552
f 548/548/548 552/552/552 553/553/553
f 548/548/548 553/553/553 549/549/549
f 554/554/554 555/555/555 492/492/492
f 554/554/554 492/492/492 491/491/491
f 554/554/554 491/491/491 490/490/490
f 554/554/554 490/490/490 556/556/556
f 554/554/554 556/556/556 557/557/557
f 554/554/554 557/557/557 558/558/558
f 554/554/554 558/558/558 559/559/559
f 554/554/554 559/559/559 555/555/555
f 560/560/560 561/561/561 562/562/562
f 560/560/560 562/562/562 563/563/563
f 560/560/560 563/563/563 564/564/564
f 560/560/560 564/564/564 565/565/565
f 560/560/560 565/565/565 497/497/497
f 560/560/560 497/497/497 496/496/496
f 560/560/560 496/496/496 495/495/495
f 560/560/560 495/495/495 561/561/561
f 566/566/566 567/567/567 510/510/510
f 566/566/566 510/510/510 509/509/509
f 566/566/566 509/509/509 508/508/508
f 566/566/566 508/508/508 568/568/568
f 566/566/566 568/568/568 569/569/569
f 566/566/566 569/569/569 570/570/570
f 566/566/566 570/570/570 571/571/571
f 566/566/566 571/571/571 567/567/567
f 572/572/572 573/573/573 574/574/574
f 572/572/572 574/574/574 575/575/575
f 572/572/572 575/575/575 576/576/576
f 572/572/572 576/576/576 577/577/577
f 572/572/572 577/577/577 578/578/578
f 572/572/572 578/578/578 579/579/579
f 572/572/572 579/579/579 580/580/580
f 572/572/572 580/580/580 573/573/573
f 581/581/581 582/582/582 583/583/583
f 581/581/581 583/583/583 584/584/584
f 581/581/581 584/584/584 585/585/585
f 581/581/581 585/585/585 586/586/586
f 581/581/581 586/586/586 587/587/587
f 581/581/581 587/587/587 588/588/588
f 581/581/581 588/588/588 589/589/589
f 581/581/581 589/589/589 582/582/582
f 590/590/590 591/591/591 592/592/592
f 590/590/590 592/592/592 593/593/593
f 590/590/590 593/593/593 594/594/594
f 590/590/590 594/594/594 595/595/595
f 590/590/590 595/595/595 596/596/596
f 590/590/590 596/596/596 597/597/597
f 590/590/590 597/597/597 598/598/598
f 590/590/590 598/598/598 591/591/591
f 599/599/599 600/600/600 601/601/601
f 599/599/599 601/601/601 602/602/602
f 599/599/599 602/602/602 603/603/603
f 599/599/599 603/603/603 604/604/604
f 599/599/599 604/604/604 605/605/605
f 599/599/599 605/605/605 606/606/606
f 599/599/599 606/606/606 607/607/607
f 599/599/599 607/607/607 600/600/600
f 608/608/608 595/595/595 594/594/594
f 608/608/608 594/594/594 609/609/609
f 608/608/608 609/609/609 610/610/610
f 608/608/608 610/610/610 611/611/611
f 608/608/608 611/611/611 612/612/612
f 608/608/608 612/612/612 613/613/613
f 608/608/608 613/613/613 596/596/596
f 608/608/608 596/596/596 595/595/595
f 614/614/614 604/604/604 603/603/603
f 614/614/614 603/603/603 615/615/615
f 614/614/614 615/615/615 616/616/616
f 614/614/614 616/616/616 617/617/617
f 614/614/614 617/617/617 618/618/618
f 614/614/614 618/618/618 619/619/619
f 614/614/614 619/619/619 605/605/605
f 614/614/614 605/605/605 604/604/604
f 620/620/620 621/621/621 622/622/622
f 620/620/620 622/622/622 623/623/623
f 620/620/620 623/623/623 624/624/624
f 620/620/620 624/624/624 625/625/625
f 620/620/620 625/625/625 626/626/626
f 620/620/620 626/626/626 627/627/627
f 620/620/620 627/627/627 628/628/628
f 620/620/620 628/628/628 621/621/621
f 629/629/629 630/630/630 631/631/631
f 629/629/629 631/631/631 632/632/632
f 629/629/629 632/632/632 622/622/622
f 629/629/629 622/622/622 621/621/621
f 629/629/629 621/621/621 628/628/628
f 629/629/629 628/628/628 633/633/633
f 629/629/629 633/633/633 634/634/634
f 629/629/629 634/634/634 630/630/630
f 635/635/635 636/636/636 637/637/637
f 635/635/635 637/637/637 638/638/638
f 635/635/635 638/638/638 639/639/639
f 635/635/635 639/639/639 640/640/640
f 635/635/635 640/640/640 641/641/641
f 635/635/635 641/641/641 642/642/642
f 635/635/635 642/642/642 643/643/643
f 635/635/635 643/643/643 636/636/636
f 644/644/644 645/645/645 646/646/646
f 644/644/644 646/646/646 647/647/647
f 644/644/644 647/647/647 637/637/637
f 644/644/644 637/637/637 636/636/636
f 644/644/644 636/636/636 643/643/643
f 644/644/644 643/643/643 648/648/648
f 644/644/644 648/648/648 649/649/649
f 644/644/644 649/649/649 645/645/645
f 650/650/650 651/651/651 652/652/652
f 650/650/650 652/652/652 653/653/653
f 650/650/650 653/653/653 654/654/654
f 650/650/650 654/654/654 655/655/655
f 650/650/650 655/655/655 634/634/634
f 650/650/650 634/634/634 656/656/656
f 650/650/650 656/656/656 657/657/657
f 650/650/650 657/657/657 651/651/651
f 658/658/658 659/659/659 660/660/660
f 658/658/658 660/660/660 661/661/661
f 658/658/658 661/661/661 652/652/652
f 658/658/658 652/652/652 651/651/651
f 658/658/658 651/651/651 657/657/657
f 658/658/658 657/657/657 662/662/662
f 658/658/658 662/662/662 663/663/663
f 658/658/658 663/663/663 659/659/659
f 664/664/664 665/665/665 666/666/666
f 664/664/664 666/666/666 667/667/667
f 664/664/664 667/667/667 668/668/668
f 664/664/664 668/668/668 669/669/669
f 664/664/664 669/669/669 670/670/670
f 664/664/664 670/670/670 671/671/671
f 664/664/664 671/671/671 672/672/672
f 664/664/664 672/672/672 665/665/665
f 673/673/673 674/674/674 675/675/675
f 673/673/673 675/675/675 676/676/676
f 673/673/673 676/676/676 666/666/666
f 673/673/673 666/666/666 665/665/665
f 673/673/673 665/665/665 672/672/672
f 673/673/673 672/672/672 677/677/677
f 673/673/673 677/677/677 678/678/678
f 673/673/673 678/678/678 674/674/674
f 679/679/679 680/680/680 681/681/681
f 679/679/679 681/681/681 682/682/682
f 679/679/679 682/682/682 683/683/683
f 679/679/679 683/683/683 684/684/684
f 679/679/679 684/684/684 685/685/685
f 679/679/679 685/685/685 686/686/686
f 679/679/679 686/686/686 687/687/687
f 679/679/679 687/687/687 680/680/680
f 688/688/688 689/689/689 690/690/690
f 688/688/688 690/690/690 691/691/691
f 688/688/688 691/691/691 692/692/692
f 688/688/688 692/692/692 693/693/693
f 688/688/688 693/693/693 694/694/694
f 688/688/688 694/694/694 695/695/695
f 688/688/688 695/695/695 696/696/696
f 688/688/688 696/696/696 689/689/689
