# Generated by lxe_pbrt_scene_convert
v 1.87351096 -1.11036599 1.79445195
v 1.88347101 -1.10555196 1.794312
v 1.88347101 -1.10555196 1.78533995
v 1.87351096 -1.11036599 1.78548002
v -2.07065892 -1.15594399 1.75296605
v -2.07065892 -1.15594399 1.74420202
v -2.07636499 -1.15582597 1.74438095
v -2.07636499 -1.15582597 1.75314701
v -1.27436304 -1.14411795 1.74534094
v -1.27436304 -1.14411795 1.73661399
v -1.42461705 -1.14596295 1.73675096
v -1.42461705 -1.14596295 1.74547899
v -1.54339302 -1.14814699 1.74535596
v -1.54339302 -1.14814699 1.73662996
v 0.671652973 -1.12235296 1.72729003
v 0.671652973 -1.12235296 1.71865296
v 0.372256994 -1.12465703 1.71873903
v 0.372256994 -1.12465703 1.72737598
v 0.0708310008 -1.12896502 1.72937095
v 0.0708310008 -1.12896502 1.72072399
v -0.220093995 -1.12983894 1.72982502
v -0.220093995 -1.12983894 1.72117603
v -0.515904009 -1.13458598 1.72397995
v -0.515904009 -1.13458598 1.73264396
v -0.765483022 -1.13749099 1.73385894
v -0.765483022 -1.13749099 1.72519004
v -1.04054797 -1.13907194 1.74069202
v -0.765483022 -1.13749099 1.73385894
v -0.765483022 -1.13749099 1.72519004
v -1.04054797 -1.13907194 1.73198903
v -1.27436304 -1.14411795 1.73661399
v -1.27436304 -1.14411795 1.74534094
v 1.73692799 -1.106498 1.76815796
v 1.87351096 -1.11036599 1.79445195
v 1.87351096 -1.11036599 1.78548002
v 1.73692799 -1.106498 1.75931799
v -1.62940395 -1.149418 1.74485803
v -1.62940395 -1.149418 1.73613298
v -1.75555396 -1.15274096 1.73731303
v -1.75555396 -1.15274096 1.74604297
v -1.88765597 -1.15423703 1.74888396
v -1.88765597 -1.15423703 1.74013996
v -1.99065697 -1.15500498 1.74326706
v -1.99065697 -1.15500498 1.75202703
v -1.62940395 -1.149418 1.73613298
v -1.62940395 -1.149418 1.74485803
v 0.0708310008 -1.12896502 1.72937095
v 0.0708310008 -1.12896502 1.72072399
v 0.999935985 -1.11628699 1.73160696
v 0.999935985 -1.11628699 1.72294903
v 1.602862 -1.10673797 1.74311495
v 1.73692799 -1.106498 1.76815796
v 1.73692799 -1.106498 1.75931799
v 1.602862 -1.10673797 1.73440003
v 1.94736099 -1.07470703 1.793414
v 1.94736099 -1.07470703 1.78272104
v 1.88347101 -1.10555196 1.78533995
v 1.88347101 -1.10555196 1.794312
v 1.87351096 -1.11036599 1.08053696
v 1.88347101 -1.10555196 1.08053696
v 1.88347101 -1.10555196 0
v 1.87351096 -1.11036599 0
v -2.07065892 -1.15594399 1.08053696
v -2.07065892 -1.15594399 0
v -2.07636499 -1.15582597 0
v -2.07636499 -1.15582597 1.08053696
v -1.27436304 -1.14411795 1.08053696
v -1.27436304 -1.14411795 0
v -1.42461705 -1.14596295 0
v -1.42461705 -1.14596295 1.08053696
v -1.54339302 -1.14814699 1.08053696
v -1.54339302 -1.14814699 0
v 0.671652973 -1.12235296 1.08053696
v 0.671652973 -1.12235296 0
v 0.372256994 -1.12465703 0
v 0.372256994 -1.12465703 1.08053696
v 0.0708310008 -1.12896502 1.08053696
v 0.0708310008 -1.12896502 0
v -0.220093995 -1.12983894 1.08053696
v -0.220093995 -1.12983894 0
v -0.515904009 -1.13458598 0
v -0.515904009 -1.13458598 1.08053696
v -0.765483022 -1.13749099 1.08053696
v -0.765483022 -1.13749099 0
v -1.04054797 -1.13907194 1.08053696
v -0.765483022 -1.13749099 1.08053696
v -0.765483022 -1.13749099 0
v -1.04054797 -1.13907194 0
v -1.27436304 -1.14411795 0
v -1.27436304 -1.14411795 1.08053696
v 1.73692799 -1.106498 1.08053696
v 1.87351096 -1.11036599 1.08053696
v 1.87351096 -1.11036599 0
v 1.73692799 -1.106498 0
v -1.62940395 -1.149418 1.08053696
v -1.62940395 -1.149418 0
v -1.75555396 -1.15274096 0
v -1.75555396 -1.15274096 1.08053696
v -1.88765597 -1.15423703 1.08053696
v -1.88765597 -1.15423703 0
v -1.99065697 -1.15500498 0
v -1.99065697 -1.15500498 1.08053696
v -1.62940395 -1.149418 0
v -1.62940395 -1.149418 1.08053696
v 0.0708310008 -1.12896502 1.08053696
v 0.0708310008 -1.12896502 0
v 0.999935985 -1.11628699 1.08053696
v 0.999935985 -1.11628699 0
v 1.602862 -1.10673797 1.08053696
v 1.73692799 -1.106498 1.08053696
v 1.73692799 -1.106498 0
v 1.602862 -1.10673797 0
v -2.15224695 -1.15418601 1.755252
v -2.07636499 -1.15582597 1.75314701
v -2.07636499 -1.15582597 1.74438095
v -2.15224695 -1.15418601 1.748505
v -3.38102889 -0.0228429995 1.08053696
v -3.32920194 -1.08167803 1.08053696
v -3.46452808 -1.08167803 1.08053696
v -3.51635408 -0.115849003 1.08053696
v -3.16297889 0.0534740016 1.08053696
v -3.11115289 -1.08167803 1.08053696
v -3.32920194 -1.08167803 1.08053696
v -3.38102889 -0.0228429995 1.08053696
v -2.88745689 0.0600740016 1.08053696
v -2.83562994 -1.08167803 1.08053696
v -3.11115289 -1.08167803 1.08053696
v -3.16297889 0.0534740016 1.08053696
v -2.55502796 -0.0765009969 1.08053696
v -2.50320196 -1.08167803 1.08053696
v 2.90547109 0.0245910008 1.08053696
v 3.042871 -0.0189180002 1.08053696
v 3.042871 -0.938355029 1.08053696
v 2.90547109 -0.938355029 1.08053696
v 2.50053096 0.0296080001 1.08053696
v 2.50053096 -0.938355029 1.08053696
v 2.30053806 -0.938355029 1.08053696
v 2.30053806 -0.0510869995 1.08053696
v 2.20370793 -0.122614004 1.08053696
v 2.20370793 -0.938355029 1.08053696
v 2.10705996 -0.216748998 1.08053696
v 2.20370793 -0.122614004 1.08053696
v 2.20370793 -0.938355029 1.08053696
v 2.10705996 -0.938355029 1.08053696
v 2.71360803 0.0504489988 1.08053696
v 2.90547109 0.0245910008 1.08053696
v 2.90547109 -0.938355029 1.08053696
v 2.71360803 -0.938355029 1.08053696
v 2.50053096 -0.938355029 1.08053696
v 2.50053096 0.0296080001 1.08053696
v -2.33900499 -0.311078995 1.08053696
v -2.21596503 -0.568057001 1.08053696
v -2.28717899 -1.08167803 1.08053696
v -3.73942804 -0.467079997 1.08053696
v -3.6751349 -0.310241997 1.08053696
v -3.76282597 -0.551393986 1.08053696
v -3.73942804 -0.467079997 1.08053696
v -3.62355208 -1.08167803 1.08053696
v -3.77849197 -0.642711997 1.08053696
v -3.76282597 -0.551393986 1.08053696
v -3.62355208 -1.08167803 1.08053696
v -3.78318906 -0.813938975 1.08053696
v -3.77870488 -0.987716019 1.08053696
v -3.78318906 -0.813938975 1.08053696
v -3.76087689 -1.08968496 1.08053696
v -2.151021 -0.959466994 1.08053696
v -2.15310001 -1.08167803 1.08053696
v -2.28717899 -1.08167803 1.08053696
v -2.15187502 -0.913497984 1.08053696
v -2.151021 -0.959466994 1.08053696
v -2.16025209 -0.829620004 1.08053696
v -2.15187502 -0.913497984 1.08053696
v -2.21596503 -0.568057001 1.08053696
v -2.16025209 -0.829620004 1.08053696
v -3.32920194 -1.08167803 1.08053696
v -3.32920194 -1.08167803 0
v -3.46452808 -1.08167803 0
v -3.46452808 -1.08167803 1.08053696
v -3.11115289 -1.08167803 1.08053696
v -3.11115289 -1.08167803 0
v -3.32920194 -1.08167803 0
v -3.32920194 -1.08167803 1.08053696
v -2.83562994 -1.08167803 1.08053696
v -2.83562994 -1.08167803 0
v -3.11115289 -1.08167803 0
v -3.11115289 -1.08167803 1.08053696
v -2.50320196 -1.08167803 1.08053696
v -2.50320196 -1.08167803 0
v 1.92122102 -0.864445984 1.08053696
v 2.10705996 -0.938355029 1.08053696
v 1.92597699 -0.938355029 1.08053696
v 1.91694403 -0.767403007 1.08053696
v 2.10705996 -0.938355029 1.08053696
v 1.92122102 -0.864445984 1.08053696
v 1.92150903 -0.685679018 1.08053696
v 1.93152702 -0.609125972 1.08053696
v 1.986462 -0.419910997 1.08053696
v 1.93152702 -0.609125972 1.08053696
v 1.986462 -0.419910997 1.08053696
v 1.94736099 -1.07470703 1.08053696
v 3.042871 -0.0189180002 1.08053696
v 3.13078094 -0.0666270033 1.08053696
v 3.29625297 -0.213090003 1.08053696
v 3.42302299 -0.407220989 1.08053696
v 3.34902 -0.938355029 1.08053696
v 3.29625297 -0.213090003 1.08053696
v 3.510607 -0.603025973 1.08053696
v 3.34902 -0.938355029 1.08053696
v 3.563936 -0.781850994 1.08053696
v 3.60892701 -0.960888028 1.08053696
v 2.90547109 -0.938355029 1.08053696
v 3.042871 -0.938355029 1.08053696
v 3.042871 -0.938355029 0
v 2.90547109 -0.938355029 0
v 2.50053096 -0.938355029 1.08053696
v 2.50053096 -0.938355029 0
v 2.30053806 -0.938355029 0
v 2.30053806 -0.938355029 1.08053696
v 2.20370793 -0.938355029 1.08053696
v 2.20370793 -0.938355029 0
v 2.71360803 -0.938355029 1.08053696
v 2.90547109 -0.938355029 1.08053696
v 2.90547109 -0.938355029 0
v 2.71360803 -0.938355029 0
v 2.50053096 -0.938355029 0
v 2.50053096 -0.938355029 1.08053696
v 3.042871 -0.938355029 1.08053696
v 3.34902 -0.938355029 1.08053696
v 3.34902 -0.938355029 0
v 3.042871 -0.938355029 0
v -3.46452808 -1.08167803 1.08053696
v -3.46452808 -1.08167803 0
v -3.62355208 -1.07995403 0
v -3.62355208 -1.08167803 1.08053696
v -3.76087689 -1.08968496 1.08053696
v -3.76087689 -1.07823098 0
v -2.28717899 -1.08167803 1.08053696
v -2.15310001 -1.08167803 1.08053696
v -2.15310001 -1.08167803 0
v -2.28717899 -1.08167803 0
v -2.15224695 -1.15418601 1.08053696
v -2.15224695 -1.15418601 0
v -2.15310001 -1.08167803 0
v -2.15310001 -1.08167803 1.08053696
v -2.15224695 -1.15418601 1.08053696
v -2.07636499 -1.15582597 1.08053696
v -2.07636499 -1.15582597 0
v -2.15224695 -1.15418601 0
v 1.94736099 -1.07470703 1.08053696
v 2.10705996 -0.938355029 1.08053696
v 2.10705996 -0.938355029 0
v 1.94736099 -1.07470703 0
v 1.88347101 -1.10555196 0
v 1.88347101 -1.10555196 1.08053696
v 2.20370793 -0.938355029 0
v 2.10705996 -0.938355029 0
v 2.10705996 -0.938355029 1.08053696
v 3.60892701 -0.960888028 1.08053696
v 3.60892701 -0.960888028 0
v 3.34902 -0.938355029 1.08053696
v -3.78318906 -0.813938975 1.72918797
v -3.78318906 -0.813938975 1.08053696
v -3.77870488 -0.987716019 1.08053696
v -3.77870488 -0.987716019 1.70616901
v -3.77849197 -0.642711997 1.746889
v -3.77849197 -0.642711997 1.08053696
v -3.78318906 -0.813938975 1.08053696
v -3.76497889 -0.56457603 1.75361001
v -3.76282597 -0.551393986 1.08053696
v -3.73942804 -0.467079997 1.762501
v -3.73942804 -0.467079997 1.08053696
v -3.76282597 -0.551393986 1.08053696
v -3.76497889 -0.56457603 1.75361001
v -3.6751349 -0.310241997 1.76956999
v -3.6751349 -0.310241997 1.08053696
v -3.73942804 -0.467079997 1.08053696
v -3.6751349 -0.310241997 1.08053696
v -3.6751349 -0.310241997 1.76956999
v -3.51635408 -0.115849003 1.792642
v -3.51635408 -0.115849003 1.08053696
v -3.6751349 -0.310241997 1.08053696
v -3.51635408 -0.115849003 1.792642
v -3.38102889 -0.0228429995 1.79413199
v -3.38102889 -0.0228429995 1.08053696
v -3.51635408 -0.115849003 1.08053696
v -3.16297889 0.0534740016 1.79790998
v -3.16297889 0.0534740016 1.08053696
v -3.38102889 -0.0228429995 1.79413199
v -2.88745689 0.0600749999 1.80346501
v -2.88745689 0.0600740016 1.08053696
v -3.16297889 0.0534740016 1.08053696
v -2.58414698 -0.064290002 1.81254804
v -2.55502796 -0.0765009969 1.08053696
v -3.77870488 -0.987716019 1.70616901
v -3.77870488 -0.987716019 1.08053696
v -3.76087689 -1.08968496 1.08053696
v -3.76087689 -1.08968496 1.69052899
v -2.28717899 -1.08167803 1.08053696
v -2.39519095 -1.08167803 1.08053696
v -2.45142889 -0.174669996 1.08053696
v -2.28717899 -1.08167803 0
v -2.39519095 -1.08167803 0
v -2.39519095 -1.08167803 1.08053696
v -2.45587993 -0.175495997 1.80910599
v -2.45142889 -0.174669996 1.08053696
v -2.45587993 -0.175495997 1.80910599
v -2.33900499 -0.311078995 1.80240798
v -2.33900499 -0.311078995 1.08053696
v -2.45142889 -0.174669996 1.08053696
v -2.33900499 -0.311078995 1.80240798
v -2.21218705 -0.566166997 1.78077495
v -2.21596503 -0.568057001 1.08053696
v -2.33900499 -0.311078995 1.08053696
v -2.21218705 -0.566166997 1.78077495
v -2.15858006 -0.839941025 1.75348902
v -2.16025209 -0.829620004 1.08053696
v -2.21596503 -0.568057001 1.08053696
v -2.15858006 -0.839941025 1.75348902
v -2.15147901 -0.913497984 1.74294198
v -2.15187502 -0.913497984 1.08053696
v -2.16025209 -0.829620004 1.08053696
v -2.15147901 -0.913497984 1.74294198
v -2.1510849 -0.959475994 1.73468101
v -2.151021 -0.959466994 1.08053696
v -2.15187502 -0.913497984 1.08053696
v 1.88347101 -1.10555196 1.72895598
v 1.87351096 -1.11036599 1.72908401
v -2.07065892 -1.15594399 1.69110799
v -2.07636499 -1.15582597 1.69127405
v -1.27436304 -1.14411795 1.68412805
v -1.42461705 -1.14596295 1.68425405
v -1.54339302 -1.14814699 1.68414199
v 0.671652973 -1.12235296 1.66760397
v 0.372256994 -1.12465703 1.66768301
v 0.0708310008 -1.12896502 1.66950905
v -0.220093995 -1.12983894 1.66992402
v -0.515904009 -1.13458598 1.67250502
v -0.765483022 -1.13749099 1.67361796
v -0.765483022 -1.13749099 1.67361796
v -1.04054797 -1.13907194 1.67987299
v -1.27436304 -1.14411795 1.68412805
v 1.87351096 -1.11036599 1.72908401
v 1.73692799 -1.106498 1.70501494
v -1.62940395 -1.149418 1.68368602
v -1.75555396 -1.15274096 1.68477094
v -1.88765597 -1.15423703 1.68737197
v -1.99065697 -1.15500498 1.69024897
v -1.62940395 -1.149418 1.68368602
v 0.0708310008 -1.12896502 1.66950905
v 0.999935985 -1.11628699 1.671556
v 1.73692799 -1.106498 1.70501494
v 1.602862 -1.10673797 1.682091
v -2.15224695 -1.15418601 1.695068
v -2.07636499 -1.15582597 1.69127405
v -2.07636499 -1.15582597 1.08053696
v -2.15224695 -1.15418601 1.748505
v 1.88347101 -1.10555196 1.08053696
v 1.88347101 -1.10555196 1.72895598
v 1.94736099 -1.07470703 1.726547
v 1.94736099 -1.07470703 1.78272104
v -2.1510849 -0.959475994 1.73468101
v -2.15221 -1.08167803 1.711833
v -2.15310001 -1.08167803 1.08053696
v -2.151021 -0.959466994 1.08053696
v -2.15221 -1.08167803 1.711833
v -2.15224695 -1.15418601 1.695068
v -2.15224695 -1.15418601 1.08053696
v -2.15310001 -1.08167803 1.08053696
v 2.50053096 0.0296080001 1.83612704
v 2.71360803 0.0504480004 1.83773196
v 2.71360803 0.0504489988 1.08053696
v 2.50053096 0.0296080001 1.08053696
v 2.90547109 0.0245910008 1.83800602
v 2.90547109 0.0245910008 1.08053696
v 3.042871 -0.0189180002 1.83440495
v 3.042871 -0.0189180002 1.08053696
v 2.90547109 0.0245910008 1.08053696
v 3.12514591 -0.0630320013 1.83117902
v 3.13078094 -0.0666270033 1.08053696
v 3.29625297 -0.213090003 1.82866096
v 3.29625297 -0.213090003 1.08053696
v 3.42302299 -0.407220989 1.81647694
v 3.42302299 -0.407220989 1.08053696
v 3.29625297 -0.213090003 1.82866096
v 3.510607 -0.603025973 1.79183996
v 3.510607 -0.603025973 1.08053696
v 3.42302299 -0.407220989 1.08053696
v 3.42302299 -0.407220989 1.81647694
v 3.563936 -0.781850994 1.757025
v 3.563936 -0.781850994 1.08053696
v 3.563936 -0.781850994 1.757025
v 3.60892701 -0.960888028 1.70696795
v 3.60892701 -0.960888028 1.08053696
v 3.563936 -0.781850994 1.08053696
v 2.30053806 -0.0510869995 1.83060598
v 2.50053096 0.0296080001 1.83612704
v 2.50053096 0.0296080001 1.08053696
v 2.30053806 -0.0510869995 1.08053696
v 2.20370793 -0.122614004 1.08053696
v 2.20370793 -0.122614004 1.82766795
v 2.20370793 -0.122614004 1.82766795
v 2.20370793 -0.122614004 1.08053696
v 2.10705996 -0.216748998 1.08053696
v 2.10705996 -0.216748998 1.82487202
v 2.10705996 -0.216748998 1.82487202
v 2.10705996 -0.216748998 1.08053696
v 1.986462 -0.419910997 1.08053696
v 1.986462 -0.419910997 1.81410098
v 1.986462 -0.419910997 1.81410098
v 1.986462 -0.419910997 1.08053696
v 1.93152702 -0.609125972 1.08053696
v 1.92763603 -0.624540985 1.79290903
v 1.92763603 -0.624540985 1.79290903
v 1.93152702 -0.609125972 1.08053696
v 1.92150903 -0.685679018 1.08053696
v 1.92150903 -0.685679018 1.78453195
v 1.91694403 -0.767403007 1.77500105
v 1.91694403 -0.767403007 1.08053696
v 1.92122102 -0.864445984 1.76061702
v 1.91694403 -0.767403007 1.77500105
v 1.91694403 -0.767403007 1.08053696
v 1.92122102 -0.864445984 1.08053696
v 1.92122102 -0.864445984 1.08053696
v 1.92597699 -0.938355029 1.08053696
v 1.92559302 -0.938355029 1.748685
v 1.94736099 -1.07470703 1.726547
v 1.92559302 -0.938355029 1.748685
v 1.94736099 -1.07470703 1.08053696
v 1.87351096 -1.11036599 -1.79445195
v 1.87351096 -1.11036599 -1.78548002
v 1.88347101 -1.10555196 -1.78533995
v 1.88347101 -1.10555196 -1.794312
v -2.07065892 -1.15594399 -1.75296605
v -2.07636499 -1.15582597 -1.75314701
v -2.07636499 -1.15582597 -1.74438095
v -2.07065892 -1.15594399 -1.74420202
v -1.27436304 -1.14411795 -1.74534094
v -1.42461705 -1.14596295 -1.74547899
v -1.42461705 -1.14596295 -1.73675096
v -1.27436304 -1.14411795 -1.73661399
v -1.54339302 -1.14814699 -1.74535596
v -1.54339302 -1.14814699 -1.73662996
v 0.671652973 -1.12235296 -1.72729003
v 0.372256994 -1.12465703 -1.72737598
v 0.372256994 -1.12465703 -1.71873903
v 0.671652973 -1.12235296 -1.71865296
v 0.0708310008 -1.12896502 -1.72937095
v 0.0708310008 -1.12896502 -1.72072399
v -0.220093995 -1.12983894 -1.72982502
v -0.515904009 -1.13458598 -1.73264396
v -0.515904009 -1.13458598 -1.72397995
v -0.220093995 -1.12983894 -1.72117603
v -0.765483022 -1.13749099 -1.73385894
v -0.765483022 -1.13749099 -1.72519004
v -1.04054797 -1.13907194 -1.74069202
v -1.04054797 -1.13907194 -1.73198903
v -0.765483022 -1.13749099 -1.72519004
v -0.765483022 -1.13749099 -1.73385894
v -1.27436304 -1.14411795 -1.74534094
v -1.27436304 -1.14411795 -1.73661399
v 1.73692799 -1.106498 -1.76815796
v 1.73692799 -1.106498 -1.75931799
v 1.87351096 -1.11036599 -1.78548002
v 1.87351096 -1.11036599 -1.79445195
v -1.62940395 -1.149418 -1.74485803
v -1.75555396 -1.15274096 -1.74604297
v -1.75555396 -1.15274096 -1.73731303
v -1.62940395 -1.149418 -1.73613298
v -1.88765597 -1.15423703 -1.74888396
v -1.88765597 -1.15423703 -1.74013996
v -1.99065697 -1.15500498 -1.75202703
v -1.99065697 -1.15500498 -1.74326706
v -1.62940395 -1.149418 -1.74485803
v -1.62940395 -1.149418 -1.73613298
v 0.0708310008 -1.12896502 -1.72072399
v 0.0708310008 -1.12896502 -1.72937095
v 0.999935985 -1.11628699 -1.72294903
v 0.999935985 -1.11628699 -1.73160696
v 1.602862 -1.10673797 -1.74311495
v 1.602862 -1.10673797 -1.73440003
v 1.73692799 -1.106498 -1.75931799
v 1.73692799 -1.106498 -1.76815796
v 1.94736099 -1.07470703 -1.793414
v 1.88347101 -1.10555196 -1.794312
v 1.88347101 -1.10555196 -1.78533995
v 1.94736099 -1.07470703 -1.78272104
v 1.87351096 -1.11036599 -1.08053696
v 1.88347101 -1.10555196 -1.08053696
v -2.07065892 -1.15594399 -1.08053696
v -2.07636499 -1.15582597 -1.08053696
v -1.27436304 -1.14411795 -1.08053696
v -1.42461705 -1.14596295 -1.08053696
v -1.54339302 -1.14814699 -1.08053696
v 0.671652973 -1.12235296 -1.08053696
v 0.372256994 -1.12465703 -1.08053696
v 0.0708310008 -1.12896502 -1.08053696
v -0.220093995 -1.12983894 -1.08053696
v -0.515904009 -1.13458598 -1.08053696
v -0.765483022 -1.13749099 -1.08053696
v -1.04054797 -1.13907194 -1.08053696
v -0.765483022 -1.13749099 -1.08053696
v -1.27436304 -1.14411795 -1.08053696
v 1.73692799 -1.106498 -1.08053696
v 1.87351096 -1.11036599 -1.08053696
v -1.62940395 -1.149418 -1.08053696
v -1.75555396 -1.15274096 -1.08053696
v -1.88765597 -1.15423703 -1.08053696
v -1.99065697 -1.15500498 -1.08053696
v -1.62940395 -1.149418 -1.08053696
v 0.0708310008 -1.12896502 -1.08053696
v 0.999935985 -1.11628699 -1.08053696
v 1.602862 -1.10673797 -1.08053696
v 1.73692799 -1.106498 -1.08053696
v -2.15224695 -1.15418601 -1.755252
v -2.15224695 -1.15418601 -1.748505
v -2.07636499 -1.15582597 -1.74438095
v -2.07636499 -1.15582597 -1.75314701
v -3.38102889 -0.0228429995 -1.08053696
v -3.51635408 -0.115849003 -1.08053696
v -3.46452808 -1.08167803 -1.08053696
v -3.32920194 -1.08167803 -1.08053696
v -3.16297889 0.0534740016 -1.08053696
v -3.38102889 -0.0228429995 -1.08053696
v -3.32920194 -1.08167803 -1.08053696
v -3.11115289 -1.08167803 -1.08053696
v -2.88745689 0.0600740016 -1.08053696
v -3.16297889 0.0534740016 -1.08053696
v -3.11115289 -1.08167803 -1.08053696
v -2.83562994 -1.08167803 -1.08053696
v -2.50320196 -1.08167803 -1.08053696
v -2.55502796 -0.0765009969 -1.08053696
v 2.90547109 0.0245910008 -1.08053696
v 2.90547109 -0.938355029 -1.08053696
v 3.042871 -0.938355029 -1.08053696
v 3.042871 -0.0189180002 -1.08053696
v 2.50053096 0.0296080001 -1.08053696
v 2.30053806 -0.0510869995 -1.08053696
v 2.30053806 -0.938355029 -1.08053696
v 2.50053096 -0.938355029 -1.08053696
v 2.20370793 -0.122614004 -1.08053696
v 2.20370793 -0.938355029 -1.08053696
v 2.10705996 -0.216748998 -1.08053696
v 2.10705996 -0.938355029 -1.08053696
v 2.20370793 -0.938355029 -1.08053696
v 2.20370793 -0.122614004 -1.08053696
v 2.71360803 0.0504489988 -1.08053696
v 2.71360803 -0.938355029 -1.08053696
v 2.90547109 -0.938355029 -1.08053696
v 2.90547109 0.0245910008 -1.08053696
v 2.50053096 0.0296080001 -1.08053696
v 2.50053096 -0.938355029 -1.08053696
v -2.33900499 -0.311078995 -1.08053696
v -2.28717899 -1.08167803 -1.08053696
v -2.21596503 -0.568057001 -1.08053696
v -3.73942804 -0.467079997 -1.08053696
v -3.6751349 -0.310241997 -1.08053696
v -3.76282597 -0.551393986 -1.08053696
v -3.62355208 -1.08167803 -1.08053696
v -3.73942804 -0.467079997 -1.08053696
v -3.77849197 -0.642711997 -1.08053696
v -3.62355208 -1.08167803 -1.08053696
v -3.76282597 -0.551393986 -1.08053696
v -3.78318906 -0.813938975 -1.08053696
v -3.77870488 -0.987716019 -1.08053696
v -3.78318906 -0.813938975 -1.08053696
v -3.76087689 -1.08968496 -1.08053696
v -2.151021 -0.959466994 -1.08053696
v -2.28717899 -1.08167803 -1.08053696
v -2.15310001 -1.08167803 -1.08053696
v -2.15187502 -0.913497984 -1.08053696
v -2.151021 -0.959466994 -1.08053696
v -2.16025209 -0.829620004 -1.08053696
v -2.15187502 -0.913497984 -1.08053696
v -2.21596503 -0.568057001 -1.08053696
v -2.16025209 -0.829620004 -1.08053696
v -3.32920194 -1.08167803 -1.08053696
v -3.46452808 -1.08167803 -1.08053696
v -3.11115289 -1.08167803 -1.08053696
v -3.32920194 -1.08167803 -1.08053696
v -2.83562994 -1.08167803 -1.08053696
v -3.11115289 -1.08167803 -1.08053696
v -2.50320196 -1.08167803 -1.08053696
v 1.92122102 -0.864445984 -1.08053696
v 1.92597699 -0.938355029 -1.08053696
v 2.10705996 -0.938355029 -1.08053696
v 1.91694403 -0.767403007 -1.08053696
v 1.92122102 -0.864445984 -1.08053696
v 2.10705996 -0.938355029 -1.08053696
v 1.92150903 -0.685679018 -1.08053696
v 1.93152702 -0.609125972 -1.08053696
v 1.986462 -0.419910997 -1.08053696
v 1.93152702 -0.609125972 -1.08053696
v 1.986462 -0.419910997 -1.08053696
v 1.94736099 -1.07470703 -1.08053696
v 3.042871 -0.0189180002 -1.08053696
v 3.13078094 -0.0666270033 -1.08053696
v 3.29625297 -0.213090003 -1.08053696
v 3.42302299 -0.407220989 -1.08053696
v 3.29625297 -0.213090003 -1.08053696
v 3.34902 -0.938355029 -1.08053696
v 3.34902 -0.938355029 -1.08053696
v 3.510607 -0.603025973 -1.08053696
v 3.563936 -0.781850994 -1.08053696
v 3.60892701 -0.960888028 -1.08053696
v 2.90547109 -0.938355029 -1.08053696
v 3.042871 -0.938355029 -1.08053696
v 2.50053096 -0.938355029 -1.08053696
v 2.30053806 -0.938355029 -1.08053696
v 2.20370793 -0.938355029 -1.08053696
v 2.71360803 -0.938355029 -1.08053696
v 2.90547109 -0.938355029 -1.08053696
v 2.50053096 -0.938355029 -1.08053696
v 3.042871 -0.938355029 -1.08053696
v 3.34902 -0.938355029 -1.08053696
v -3.46452808 -1.08167803 -1.08053696
v -3.62355208 -1.08167803 -1.08053696
v -3.76087689 -1.08968496 -1.08053696
v -2.28717899 -1.08167803 -1.08053696
v -2.15310001 -1.08167803 -1.08053696
v -2.15224695 -1.15418601 -1.08053696
v -2.15310001 -1.08167803 -1.08053696
v -2.15224695 -1.15418601 -1.08053696
v -2.07636499 -1.15582597 -1.08053696
v 1.94736099 -1.07470703 -1.08053696
v 2.10705996 -0.938355029 -1.08053696
v 1.88347101 -1.10555196 -1.08053696
v 2.10705996 -0.938355029 -1.08053696
v 3.60892701 -0.960888028 -1.08053696
v 3.34902 -0.938355029 -1.08053696
v -3.78318906 -0.813938975 -1.72918797
v -3.77870488 -0.987716019 -1.70616901
v -3.77870488 -0.987716019 -1.08053696
v -3.78318906 -0.813938975 -1.08053696
v -3.78318906 -0.813938975 -1.08053696
v -3.77849197 -0.642711997 -1.08053696
v -3.77849197 -0.642711997 -1.746889
v -3.76497889 -0.56457603 -1.75361001
v -3.76282597 -0.551393986 -1.08053696
v -3.73942804 -0.467079997 -1.762501
v -3.76497889 -0.56457603 -1.75361001
v -3.76282597 -0.551393986 -1.08053696
v -3.73942804 -0.467079997 -1.08053696
v -3.73942804 -0.467079997 -1.08053696
v -3.6751349 -0.310241997 -1.08053696
v -3.6751349 -0.310241997 -1.76956999
v -3.6751349 -0.310241997 -1.08053696
v -3.6751349 -0.310241997 -1.76956999
v -3.6751349 -0.310241997 -1.08053696
v -3.51635408 -0.115849003 -1.08053696
v -3.51635408 -0.115849003 -1.792642
v -3.51635408 -0.115849003 -1.792642
v -3.51635408 -0.115849003 -1.08053696
v -3.38102889 -0.0228429995 -1.08053696
v -3.38102889 -0.0228429995 -1.79413199
v -3.16297889 0.0534740016 -1.79790998
v -3.38102889 -0.0228429995 -1.79413199
v -3.16297889 0.0534740016 -1.08053696
v -3.16297889 0.0534740016 -1.08053696
v -2.88745689 0.0600740016 -1.08053696
v -2.88745689 0.0600749999 -1.80346501
v -2.58414698 -0.064290002 -1.81254804
v -2.55502796 -0.0765009969 -1.08053696
v -3.77870488 -0.987716019 -1.70616901
v -3.76087689 -1.08968496 -1.69052899
v -3.76087689 -1.08968496 -1.08053696
v -3.77870488 -0.987716019 -1.08053696
v -2.28717899 -1.08167803 -1.08053696
v -2.45142889 -0.174669996 -1.08053696
v -2.39519095 -1.08167803 -1.08053696
v -2.39519095 -1.08167803 -1.08053696
v -2.45142889 -0.174669996 -1.08053696
v -2.45587993 -0.175495997 -1.80910599
v -2.45587993 -0.175495997 -1.80910599
v -2.45142889 -0.174669996 -1.08053696
v -2.33900499 -0.311078995 -1.08053696
v -2.33900499 -0.311078995 -1.80240798
v -2.33900499 -0.311078995 -1.80240798
v -2.33900499 -0.311078995 -1.08053696
v -2.21596503 -0.568057001 -1.08053696
v -2.21218705 -0.566166997 -1.78077495
v -2.21218705 -0.566166997 -1.78077495
v -2.21596503 -0.568057001 -1.08053696
v -2.16025209 -0.829620004 -1.08053696
v -2.15858006 -0.839941025 -1.75348902
v -2.15858006 -0.839941025 -1.75348902
v -2.16025209 -0.829620004 -1.08053696
v -2.15187502 -0.913497984 -1.08053696
v -2.15147901 -0.913497984 -1.74294198
v -2.15147901 -0.913497984 -1.74294198
v -2.15187502 -0.913497984 -1.08053696
v -2.151021 -0.959466994 -1.08053696
v -2.1510849 -0.959475994 -1.73468101
v 1.87351096 -1.11036599 -1.72908401
v 1.88347101 -1.10555196 -1.72895598
v -2.07636499 -1.15582597 -1.69127405
v -2.07065892 -1.15594399 -1.69110799
v -1.42461705 -1.14596295 -1.68425405
v -1.27436304 -1.14411795 -1.68412805
v -1.54339302 -1.14814699 -1.68414199
v 0.372256994 -1.12465703 -1.66768301
v 0.671652973 -1.12235296 -1.66760397
v 0.0708310008 -1.12896502 -1.66950905
v -0.515904009 -1.13458598 -1.67250502
v -0.220093995 -1.12983894 -1.66992402
v -0.765483022 -1.13749099 -1.67361796
v -1.04054797 -1.13907194 -1.67987299
v -0.765483022 -1.13749099 -1.67361796
v -1.27436304 -1.14411795 -1.68412805
v 1.73692799 -1.106498 -1.70501494
v 1.87351096 -1.11036599 -1.72908401
v -1.75555396 -1.15274096 -1.68477094
v -1.62940395 -1.149418 -1.68368602
v -1.88765597 -1.15423703 -1.68737197
v -1.99065697 -1.15500498 -1.69024897
v -1.62940395 -1.149418 -1.68368602
v 0.0708310008 -1.12896502 -1.66950905
v 0.999935985 -1.11628699 -1.671556
v 1.602862 -1.10673797 -1.682091
v 1.73692799 -1.106498 -1.70501494
v -2.07636499 -1.15582597 -1.08053696
v -2.07636499 -1.15582597 -1.69127405
v -2.15224695 -1.15418601 -1.695068
v -2.15224695 -1.15418601 -1.748505
v 1.88347101 -1.10555196 -1.08053696
v 1.94736099 -1.07470703 -1.726547
v 1.88347101 -1.10555196 -1.72895598
v 1.94736099 -1.07470703 -1.78272104
v -2.1510849 -0.959475994 -1.73468101
v -2.151021 -0.959466994 -1.08053696
v -2.15310001 -1.08167803 -1.08053696
v -2.15221 -1.08167803 -1.711833
v -2.15221 -1.08167803 -1.711833
v -2.15310001 -1.08167803 -1.08053696
v -2.15224695 -1.15418601 -1.08053696
v -2.15224695 -1.15418601 -1.695068
v 2.50053096 0.0296080001 -1.83612704
v 2.50053096 0.0296080001 -1.08053696
v 2.71360803 0.0504489988 -1.08053696
v 2.71360803 0.0504480004 -1.83773196
v 2.90547109 0.0245910008 -1.83800602
v 2.90547109 0.0245910008 -1.08053696
v 2.90547109 0.0245910008 -1.08053696
v 3.042871 -0.0189180002 -1.08053696
v 3.042871 -0.0189180002 -1.83440495
v 3.12514591 -0.0630320013 -1.83117902
v 3.13078094 -0.0666270033 -1.08053696
v 3.29625297 -0.213090003 -1.08053696
v 3.29625297 -0.213090003 -1.82866096
v 3.42302299 -0.407220989 -1.81647694
v 3.29625297 -0.213090003 -1.82866096
v 3.42302299 -0.407220989 -1.08053696
v 3.510607 -0.603025973 -1.79183996
v 3.42302299 -0.407220989 -1.81647694
v 3.42302299 -0.407220989 -1.08053696
v 3.510607 -0.603025973 -1.08053696
v 3.563936 -0.781850994 -1.08053696
v 3.563936 -0.781850994 -1.757025
v 3.563936 -0.781850994 -1.757025
v 3.563936 -0.781850994 -1.08053696
v 3.60892701 -0.960888028 -1.08053696
v 3.60892701 -0.960888028 -1.70696795
v 2.30053806 -0.0510869995 -1.83060598
v 2.30053806 -0.0510869995 -1.08053696
v 2.50053096 0.0296080001 -1.08053696
v 2.50053096 0.0296080001 -1.83612704
v 2.20370793 -0.122614004 -1.82766795
v 2.20370793 -0.122614004 -1.08053696
v 2.20370793 -0.122614004 -1.82766795
v 2.10705996 -0.216748998 -1.82487202
v 2.10705996 -0.216748998 -1.08053696
v 2.20370793 -0.122614004 -1.08053696
v 2.10705996 -0.216748998 -1.82487202
v 1.986462 -0.419910997 -1.81410098
v 1.986462 -0.419910997 -1.08053696
v 2.10705996 -0.216748998 -1.08053696
v 1.986462 -0.419910997 -1.81410098
v 1.92763603 -0.624540985 -1.79290903
v 1.93152702 -0.609125972 -1.08053696
v 1.986462 -0.419910997 -1.08053696
v 1.92763603 -0.624540985 -1.79290903
v 1.92150903 -0.685679018 -1.78453195
v 1.92150903 -0.685679018 -1.08053696
v 1.93152702 -0.609125972 -1.08053696
v 1.91694403 -0.767403007 -1.77500105
v 1.91694403 -0.767403007 -1.08053696
v 1.92122102 -0.864445984 -1.76061702
v 1.92122102 -0.864445984 -1.08053696
v 1.91694403 -0.767403007 -1.08053696
v 1.91694403 -0.767403007 -1.77500105
v 1.92559302 -0.938355029 -1.748685
v 1.92597699 -0.938355029 -1.08053696
v 1.92122102 -0.864445984 -1.08053696
v 1.94736099 -1.07470703 -1.726547
v 1.94736099 -1.07470703 -1.08053696
v 1.92559302 -0.938355029 -1.748685
vt 1 0.5
vt 0 0.5
vt 0 0.75
vt 1 0.75
vt 1 0.5
vt 1 0.75
vt 0 0.75
vt 0 0.5
vt 1 0.5
vt 1 0.75
vt 0 0.75
vt 0 0.5
vt 1 0.5
vt 1 0.75
vt 1 0.5
vt 1 0.75
vt 0 0.75
vt 0 0.5
vt 1 0.5
vt 1 0.75
vt 1 0.5
vt 1 0.75
vt 0 0.75
vt 0 0.5
vt 1 0.5
vt 1 0.75
vt 1 0.5
vt 0 0.5
vt 0 0.75
vt 1 0.75
vt 0 0.75
vt 0 0.5
vt 1 0.5
vt 0 0.5
vt 0 0.75
vt 1 0.75
vt 1 0.5
vt 1 0.75
vt 0 0.75
vt 0 0.5
vt 1 0.5
vt 1 0.75
vt 0 0.75
vt 0 0.5
vt 0 0.75
vt 0 0.5
vt 0 0.5
vt 0 0.75
vt 0 0.5
vt 0 0.75
vt 1 0.5
vt 0 0.5
vt 0 0.75
vt 1 0.75
vt 0 0
vt 0 1
vt 1 1
vt 1 0
vt 1 0.875
vt 0 0.875
vt 0 1
vt 1 1
vt 1 0.875
vt 1 1
vt 0 1
vt 0 0.875
vt 1 0.875
vt 1 1
vt 0 1
vt 0 0.875
vt 1 0.875
vt 1 1
vt 1 0.875
vt 1 1
vt 0 1
vt 0 0.875
vt 1 0.875
vt 1 1
vt 1 0.875
vt 1 1
vt 0 1
vt 0 0.875
vt 1 0.875
vt 1 1
vt 1 0.875
vt 0 0.875
vt 0 1
vt 1 1
vt 0 1
vt 0 0.875
vt 1 0.875
vt 0 0.875
vt 0 1
vt 1 1
vt 1 0.875
vt 1 1
vt 0 1
vt 0 0.875
vt 1 0.875
vt 1 1
vt 0 1
vt 0 0.875
vt 0 1
vt 0 0.875
vt 0 0.875
vt 0 1
vt 0 0.875
vt 0 1
vt 1 0.875
vt 0 0.875
vt 0 1
vt 1 1
vt 0 0
vt 1 0
vt 1 1
vt 0 1
vt 0 0
vt 0 1
vt 1 1
vt 1 0
vt 0 0
vt 0 1
vt 1 1
vt 1 0
vt 0 0
vt 0 1
vt 1 1
vt 1 0
vt 1 0
vt 1 1
vt 0 0
vt 1 0
vt 1 1
vt 0 1
vt 0 0
vt 0 1
vt 1 1
vt 1 0
vt 0 0
vt 0 1
vt 0 0
vt 1 0
vt 1 1
vt 0 1
vt 0 0
vt 1 0
vt 1 1
vt 0 1
vt 1 1
vt 1 0
vt 0 0
vt 1 0
vt 1 1
vt 0 0
vt 1 0
vt 0 0
vt 1 0
vt 0 1
vt 0 0
vt 1 0
vt 1 1
vt 0 0
vt 1 0
vt 1 0
vt 0 0
vt 0 0
vt 1 1
vt 1 0
vt 0 0
vt 1 0
vt 0 0
vt 1 0
vt 0 0
vt 1 0
vt 0 0
vt 0 1
vt 1 1
vt 1 0
vt 0 0
vt 0 1
vt 1 1
vt 1 0
vt 0 0
vt 0 1
vt 1 1
vt 1 0
vt 1 0
vt 1 1
vt 0 0
vt 1 0
vt 1 1
vt 0 0
vt 1 1
vt 1 0
vt 1 0
vt 0 0
vt 0 0
vt 1 0
vt 1 0
vt 0 0
vt 0 0
vt 1 0
vt 0 0
vt 0 0
vt 0 1
vt 1 0
vt 1 0
vt 1 1
vt 0 0
vt 1 0
vt 0 0
vt 1 0
vt 1 1
vt 0 1
vt 0 0
vt 0 1
vt 1 1
vt 1 0
vt 0 0
vt 0 1
vt 0 0
vt 1 0
vt 1 1
vt 0 1
vt 1 1
vt 1 0
vt 0 0
vt 0 1
vt 1 1
vt 1 0
vt 0 0
vt 1 0
vt 1 1
vt 0 1
vt 0 0
vt 1 0
vt 0 0
vt 0 1
vt 1 1
vt 1 0
vt 0 0
vt 0 1
vt 1 1
vt 1 0
vt 0 0
vt 1 0
vt 1 1
vt 0 1
vt 0 0
vt 1 1
vt 1 0
vt 0 1
vt 1 1
vt 1 0
vt 1 0
vt 1 1
vt 0 1
vt 0 0
vt 0 1
vt 1 0
vt 0 0
vt 1 0
vt 1 1
vt 0 1
vt 1 0
vt 1 1
vt 0 1
vt 0 0
vt 0 1
vt 0 0
vt 0 1
vt 1 1
vt 1 0
vt 0 1
vt 1 1
vt 1 0
vt 0 0
vt 0 0
vt 0 1
vt 1 1
vt 1 0
vt 0 0
vt 0 1
vt 1 1
vt 1 0
vt 0 0
vt 0 1
vt 1 0
vt 0 1
vt 1 1
vt 1 0
vt 0 0
vt 1 0
vt 0 0
vt 0 1
vt 1 1
vt 1 0
vt 0 1
vt 0.5 1
vt 0.5 -0
vt 0 1
vt 0.5 1
vt 0.5 0
vt 0 1
vt 1 1
vt 0 0
vt 1 0
vt 1 1
vt 0 1
vt 0 0
vt 0 1
vt 1 1
vt 1 0
vt 0 0
vt 0 1
vt 1 1
vt 1 0
vt 0 0
vt 0 1
vt 1 1
vt 1 0
vt 0 0
vt 0 1
vt 1 1
vt 1 0
vt 0 0.8125
vt 1 0.8125
vt 1 0.75999999
vt 0 0.8125
vt 1 0.8125
vt 0 0.75999999
vt 1 0.75999999
vt 1 0.75999999
vt 0 0.75999999
vt 1 0.8125
vt 1 0.75999999
vt 0 0.75999999
vt 1 0.8125
vt -0 0.8125
vt 1 0.75999999
vt 0 0.8125
vt 0 0.8125
vt 1 0.8125
vt 1 0.8125
vt 0 0.75999999
vt 1 0.75999999
vt 0 0.75999999
vt 0 0.8125
vt 0 0.8125
vt 0 0.75999999
vt 0 0.8125
vt 1 0.75999999
vt 0.920000017 0
vt 0.5 1
vt 0 1
vt 1 0
vt 0 1
vt 0.5 1
vt 0.920000017 0
vt 1 0
vt 0 0
vt 0 1
vt 1 1
vt 1 0
vt 0 0
vt 1 0
vt 1 1
vt 0 1
vt 0 0
vt 0 1
vt 1 1
vt 1 0
vt 0 0
vt 1 0
vt 1 0
vt 1 1
vt 0 1
vt 0 0
vt 0 1
vt 1 0
vt 1 1
vt 0 0
vt 1 0
vt 0 1
vt 0 0
vt 0 1
vt 1 1
vt 1 0
vt 1 0
vt 1 1
vt 0 0
vt 0 1
vt 1 1
vt 1 0
vt 0 0
vt 0 1
vt 1 1
vt 1 0
vt 1 1
vt 0 1
vt 0 0
vt 1 0
vt 1 1
vt 0 1
vt 0 0
vt 1 0
vt 1 1
vt 0 1
vt 0 0
vt 1 0
vt 1 1
vt 0 1
vt 0 0
vt 1 0
vt 1 1
vt 0 1
vt 0 0
vt 1 0
vt 0 0
vt 1 0
vt 1 1
vt 0 1
vt 1 0
vt 1 1
vt 0 1
vt 0 0
vt 1 0
vt 0 1
vt 1 0.5
vt 1 0.75
vt 0 0.75
vt 0 0.5
vt 1 0.5
vt 0 0.5
vt 0 0.75
vt 1 0.75
vt 1 0.5
vt 0 0.5
vt 0 0.75
vt 1 0.75
vt 1 0.5
vt 1 0.75
vt 1 0.5
vt 0 0.5
vt 0 0.75
vt 1 0.75
vt 1 0.5
vt 1 0.75
vt 1 0.5
vt 0 0.5
vt 0 0.75
vt 1 0.75
vt 1 0.5
vt 1 0.75
vt 1 0.5
vt 1 0.75
vt 0 0.75
vt 0 0.5
vt 0 0.5
vt 0 0.75
vt 1 0.5
vt 1 0.75
vt 0 0.75
vt 0 0.5
vt 1 0.5
vt 0 0.5
vt 0 0.75
vt 1 0.75
vt 1 0.5
vt 1 0.75
vt 0 0.5
vt 0 0.75
vt 0 0.5
vt 0 0.75
vt 0 0.75
vt 0 0.5
vt 0 0.75
vt 0 0.5
vt 1 0.5
vt 1 0.75
vt 0 0.75
vt 0 0.5
vt 0 0
vt 1 0
vt 1 1
vt 0 1
vt 1 0.875
vt 0 0.875
vt 1 0.875
vt 0 0.875
vt 1 0.875
vt 0 0.875
vt 1 0.875
vt 1 0.875
vt 0 0.875
vt 1 0.875
vt 1 0.875
vt 0 0.875
vt 1 0.875
vt 1 0.875
vt 0 0.875
vt 0 0.875
vt 1 0.875
vt 0 0.875
vt 1 0.875
vt 0 0.875
vt 1 0.875
vt 0 0.875
vt 0 0.875
vt 0 0.875
vt 0 0.875
vt 1 0.875
vt 0 0.875
vt 0 0
vt 0 1
vt 1 1
vt 1 0
vt 0 0
vt 1 0
vt 1 1
vt 0 1
vt 0 0
vt 1 0
vt 1 1
vt 0 1
vt 0 0
vt 1 0
vt 1 1
vt 0 1
vt 1 1
vt 1 0
vt 0 0
vt 0 1
vt 1 1
vt 1 0
vt 0 0
vt 1 0
vt 1 1
vt 0 1
vt 0 0
vt 0 1
vt 0 0
vt 0 1
vt 1 1
vt 1 0
vt 0 0
vt 0 1
vt 1 1
vt 1 0
vt 1 0
vt 1 1
vt 0 0
vt 1 1
vt 1 0
vt 0 0
vt 1 0
vt 0 0
vt 0 1
vt 1 0
vt 0 0
vt 1 1
vt 1 0
vt 0 0
vt 1 0
vt 1 0
vt 0 0
vt 0 0
vt 1 0
vt 1 1
vt 0 0
vt 1 0
vt 0 0
vt 1 0
vt 0 0
vt 1 0
vt 0 0
vt 1 0
vt 0 0
vt 1 0
vt 0 0
vt 1 0
vt 1 0
vt 0 0
vt 1 1
vt 1 0
vt 0 0
vt 1 0
vt 1 1
vt 1 0
vt 0 0
vt 0 0
vt 1 0
vt 1 0
vt 0 0
vt 0 0
vt 1 0
vt 0 0
vt 0 0
vt 1 0
vt 0 1
vt 1 1
vt 1 0
vt 0 0
vt 1 0
vt 0 0
vt 1 0
vt 0 0
vt 1 0
vt 0 0
vt 0 0
vt 1 0
vt 1 0
vt 0 0
vt 0 1
vt 0 0
vt 0 1
vt 0 0
vt 0 0
vt 0 1
vt 0 0
vt 1 0
vt 0 0
vt 1 0
vt 0 0
vt 1 1
vt 1 0
vt 0 1
vt 0 0
vt 1 0
vt 0 0
vt 0 1
vt 1 1
vt 1 0
vt 0 1
vt 1 1
vt 1 0
vt 0 0
vt 0 1
vt 0 0
vt 1 0
vt 1 1
vt 0 1
vt 1 0
vt 1 1
vt 0 1
vt 0 0
vt 0 0
vt 1 0
vt 1 1
vt 0 1
vt 0 0
vt 1 0
vt 1 1
vt 0 1
vt 0 0
vt 1 0
vt 0 1
vt 1 0
vt 1 1
vt 0 1
vt 0 0
vt 1 0
vt 0 0
vt 1 0
vt 1 1
vt 0 1
vt 0 1
vt 0.5 -0
vt 0.5 1
vt 0.5 0
vt 1 1
vt 0 1
vt 0 0
vt 0 1
vt 1 1
vt 1 0
vt 0 0
vt 1 0
vt 1 1
vt 0 1
vt 0 0
vt 1 0
vt 1 1
vt 0 1
vt 0 0
vt 1 0
vt 1 1
vt 0 1
vt 0 0
vt 1 0
vt 1 1
vt 0 1
vt 1 0.8125
vt 0 0.8125
vt 0 0.8125
vt 1 0.75999999
vt 0 0.75999999
vt 1 0.8125
vt 1 0.75999999
vt 0 0.75999999
vt 1 0.75999999
vt 1 0.8125
vt 0 0.75999999
vt 1 0.75999999
vt 1 0.8125
vt 1 0.75999999
vt -0 0.8125
vt 0 0.8125
vt 1 0.8125
vt 0 0.8125
vt 0 0.75999999
vt 1 0.8125
vt 1 0.75999999
vt 0 0.75999999
vt 0 0.8125
vt 0 0.8125
vt 0 0.75999999
vt 1 0.75999999
vt 0 0.8125
vt 0 1
vt 0.5 1
vt 0.920000017 0
vt 1 0
vt 0 1
vt 0.920000017 0
vt 0.5 1
vt 1 0
vt 0 0
vt 1 0
vt 1 1
vt 0 1
vt 0 0
vt 0 1
vt 1 1
vt 1 0
vt 0 0
vt 1 0
vt 1 1
vt 0 1
vt 0 0
vt 1 0
vt 0 1
vt 1 1
vt 1 0
vt 0 0
vt 0 1
vt 1 1
vt 1 0
vt 0 0
vt 0 1
vt 1 0
vt 0 0
vt 1 0
vt 1 1
vt 0 1
vt 1 1
vt 1 0
vt 0 0
vt 1 0
vt 1 1
vt 0 1
vt 0 0
vt 1 0
vt 1 1
vt 0 1
vt 0 1
vt 1 1
vt 0 0
vt 0 1
vt 1 1
vt 1 0
vt 0 0
vt 0 1
vt 1 1
vt 1 0
vt 0 0
vt 0 1
vt 1 1
vt 1 0
vt 0 0
vt 0 1
vt 1 1
vt 1 0
vt 0 0
vt 1 0
vt 0 0
vt 0 1
vt 1 1
vt 1 0
vt 0 1
vt 1 1
vt 1 0
vt 0 0
vt 0 1
vt 1 0
vn -0.223800004 0.974600017 0
vn -0.434899986 0.900399983 0
vn -0.434899986 0.900399983 0
vn -0.209399998 0.977800012 0
vn 0.00469999993 1 0
vn 0.00449999981 1 0
vn 0.0210999995 0.999800026 0
vn 0.0210999995 0.999800026 0
vn -0.0168999992 0.999800026 0
vn -0.0168999992 0.999800026 0
vn -0.0153000001 0.999899983 0
vn -0.0153000001 0.999899983 0
vn -0.0165999997 0.999800026 0
vn -0.0165999997 0.999800026 0
vn -0.0131000001 0.999899983 0
vn -0.0131000001 0.999899983 0
vn -0.0109999999 0.999899983 0
vn -0.0109999999 0.999899983 0
vn -0.00860000029 0.999899983 0
vn -0.00860000029 0.999899983 0
vn -0.00949999969 0.999899983 0
vn -0.00949999969 0.999899983 0
vn -0.0137999998 0.999899983 0
vn -0.0137999998 0.999899983 0
vn -0.00860000029 0.999899983 0
vn -0.00870000012 0.999899983 0
vn -0.0137999998 0.999899983 0
vn -0.00860000029 0.999899983 0
vn -0.00870000012 0.999899983 0
vn -0.0136000002 0.999899983 0
vn -0.0168999992 0.999800026 0
vn -0.0168999992 0.999800026 0
vn 0.0149999997 0.999899983 0
vn -0.223800004 0.974600017 0
vn -0.209399998 0.977800012 0
vn 0.0131999999 0.999899983 0
vn -0.0205000006 0.999800026 0
vn -0.0205000006 0.999800026 0
vn -0.0187999997 0.999800026 0
vn -0.0186999999 0.999800026 0
vn -0.00930000003 0.999899983 0
vn -0.00939999986 0.999899983 0
vn -0.00960000046 0.999899983 0
vn -0.00960000046 0.999899983 0
vn -0.0205000006 0.999800026 0
vn -0.0205000006 0.999800026 0
vn -0.00860000029 0.999899983 0
vn -0.00860000029 0.999899983 0
vn -0.0171000008 0.999800026 0
vn -0.0172000006 0.999800026 0
vn -0.0083999997 0.999899983 0
vn 0.0149999997 0.999899983 0
vn 0.0131999999 0.999899983 0
vn -0.00879999995 0.999899983 0
vn -0.434700012 0.9005 0
vn -0.434700012 0.9005 0
vn -0.434899986 0.900399983 0
vn -0.434899986 0.900399983 0
vn -0.209399998 0.977800012 0
vn -0.434899986 0.900399983 0
vn -0.434899986 0.900399983 0
vn -0.209399998 0.977800012 0
vn 0.00449999981 1 0
vn 0.00449999981 1 0
vn 0.0210999995 0.999800026 0
vn 0.0210999995 0.999800026 0
vn -0.0168999992 0.999800026 0
vn -0.0168999992 0.999800026 0
vn -0.0153000001 0.999899983 0
vn -0.0153000001 0.999899983 0
vn -0.0165999997 0.999800026 0
vn -0.0165999997 0.999800026 0
vn -0.0131000001 0.999899983 0
vn -0.0131000001 0.999899983 0
vn -0.0109999999 0.999899983 0
vn -0.0109999999 0.999899983 0
vn -0.00860000029 0.999899983 0
vn -0.00860000029 0.999899983 0
vn -0.00949999969 0.999899983 0
vn -0.00949999969 0.999899983 0
vn -0.0137999998 0.999899983 0
vn -0.0137999998 0.999899983 0
vn -0.00870000012 0.999899983 0
vn -0.00870000012 0.999899983 0
vn -0.0136000002 0.999899983 0
vn -0.00870000012 0.999899983 0
vn -0.00870000012 0.999899983 0
vn -0.0136000002 0.999899983 0
vn -0.0168999992 0.999800026 0
vn -0.0168999992 0.999800026 0
vn 0.0131999999 0.999899983 0
vn -0.209399998 0.977800012 0
vn -0.209399998 0.977800012 0
vn 0.0131999999 0.999899983 0
vn -0.0205000006 0.999800026 0
vn -0.0205000006 0.999800026 0
vn -0.0187999997 0.999800026 0
vn -0.0187999997 0.999800026 0
vn -0.00939999986 0.999899983 0
vn -0.00939999986 0.999899983 0
vn -0.00960000046 0.999899983 0
vn -0.00960000046 0.999899983 0
vn -0.0205000006 0.999800026 0
vn -0.0205000006 0.999800026 0
vn -0.00860000029 0.999899983 0
vn -0.00860000029 0.999899983 0
vn -0.0172000006 0.999800026 0
vn -0.0172000006 0.999800026 0
vn -0.00879999995 0.999899983 0
vn 0.0131999999 0.999899983 0
vn 0.0131999999 0.999899983 0
vn -0.00879999995 0.999899983 0
vn 0.0216000006 0.999800026 0
vn 0.0210999995 0.999800026 0
vn 0.0210999995 0.999800026 0
vn 0.0216000006 0.999800026 0
vn 0 0 -1
vn 0 0 -1
vn 0 0 -1
vn 0 0 -1
vn 0 0 -1
vn 0 0 -1
vn 0 0 -1
vn 0 0 -1
vn 0 0 -1
vn 0 0 -1
vn 0 0 -1
vn 0 0 -1
vn 0 0 -1
vn 0 0 -1
vn 0 0 -1
vn 0 0 -1
vn 0 0 -1
vn 0 0 -1
vn 0 0 -1
vn 0 0 -1
vn 0 0 -1
vn 0 0 -1
vn 0 0 -1
vn 0 0 -1
vn 0 0 -1
vn 0 0 -1
vn 0 0 -1
vn 0 0 -1
vn 0 0 -1
vn 0 0 -1
vn 0 0 -1
vn 0 0 -1
vn 0 0 -1
vn 0 0 -1
vn 0 0 -1
vn 0 0 -1
vn 0 0 -1
vn 0 0 -1
vn 0 0 -1
vn 0 0 -1
vn 0 0 -1
vn 0 0 -1
vn 0 0 -1
vn 0 0 -1
vn 0 0 -1
vn 0 0 -1
vn 0 0 -1
vn 0 0 -1
vn 0 0 -1
vn 0 0 -1
vn 0 0 -1
vn 0 0 -1
vn 0 0 -1
vn 0 0 -1
vn 0 0 -1
vn 0 0 -1
vn 0 0 -1
vn 0 0 -1
vn 0 1 0
vn 0 1 0
vn 0.00270000007 1 0
vn 0.00270000007 1 0.00039999999
vn 0 1 0
vn 0 1 0
vn 0 1 0
vn 0 1 0
vn 0 1 0
vn 0 1 0
vn 0 1 0
vn 0 1 0
vn 0 1 0
vn 0 1 0
vn 0 0 -1
vn 0 0 -1
vn 0 0 -1
vn 0 0 -1
vn 0 0 -1
vn 0 0 -1
vn 0 0 -1
vn 0 0 -1
vn 0 0 -1
vn 0 0 -1
vn 0 0 -1
vn 0 0 -1
vn 0 0 -1
vn 0 0 -1
vn 0 0 -1
vn 0 0 -1
vn 0 0 -1
vn 0 0 -1
vn 0 0 -1
vn 0 0 -1
vn 0 0 -1
vn 0 0 -1
vn 0 1 0
vn 0 1 0
vn 0 1 0
vn 0 1 0
vn 0 1 0
vn 0 1 0
vn 0 1 0
vn 0 1 0
vn 0 1 0
vn 0 1 0
vn 0 1 0
vn 0 1 0
vn 0 1 0
vn 0 1 0
vn 0 1 0
vn 0 1 0
vn 0 1 0
vn 0.0432000011 0.999100029 0
vn 0.0432000011 0.999100029 0
vn 0 1 0
vn 0.00270000007 1 0.00039999999
vn 0.00270000007 1 0
vn -0.00870000012 0.999899983 0
vn -0.00870000012 0.999899983 0.00340000005
vn -0.0229000002 0.99970001 0.00609999988
vn -0.0229000002 0.99970001 0
vn 0 1 0
vn 0 1 0
vn 0 1 0
vn 0 1 0
vn 0.999899983 0.00870000012 -0.000300000014
vn 0.999899983 0.0116999997 0
vn 0.999899983 0.0116999997 0
vn 1 0.00150000001 -0.00039999999
vn 0.0216000006 0.999800026 0
vn 0.0210999995 0.999800026 0
vn 0.0210999995 0.999800026 0
vn 0.0216000006 0.999800026 0
vn -0.50999999 0.860099971 0
vn -0.649299979 0.760500014 0
vn -0.649299979 0.760500014 0
vn -0.546500027 0.837400019 0
vn -0.434899986 0.900399983 0
vn -0.434899986 0.900399983 0
vn 0 1 0
vn 0 1 0
vn 0 1 0
vn 0.0864000022 0.996200025 0
vn 0.0864000022 0.996200025 0
vn 0.0432000011 0.999100029 0
vn -1 0.0027999999 0
vn -1 0.00079999998 0
vn -0.995100021 -0.0992999971 0
vn -0.995700002 -0.0926999971 0
vn -0.994700015 0.103100002 0
vn -0.995100021 0.0988000035 0
vn -1 0.00079999998 0
vn -0.976199985 0.216900006 0.000500000024
vn -0.976499975 0.215599999 0.000500000024
vn -0.946500003 0.322699994 0.000500000024
vn -0.947300017 0.320199996 0.000500000024
vn -0.976499975 0.215599999 0.000500000024
vn -0.976199985 0.216900006 0.000500000024
vn -0.856000006 0.516900003 0
vn -0.859200001 0.511500001 0
vn -0.947300017 0.320199996 0.000500000024
vn 0 0 -1
vn -0.856000006 0.516900003 0
vn -0.673799992 0.738900006 0
vn -0.677200019 0.735700011 0
vn -0.859200001 0.511500001 0
vn -0.673799992 0.738900006 0
vn -0.451400012 0.89230001 0
vn -0.452300012 0.891799986 0
vn -0.677200019 0.735700011 0
vn -0.177499995 0.984099984 0
vn -0.179299995 0.983799994 0
vn -0.451400012 0.89230001 0
vn 0.184900001 0.982800007 -9.99999975e-05
vn 0.181700006 0.983299971 -9.99999975e-05
vn -0.179299995 0.983799994 0
vn 0.529200017 0.848399997 0.00469999993
vn 0.536800027 0.843699992 0.00490000006
vn -0.995700002 -0.0926999971 0
vn -0.995100021 -0.0992999971 0
vn -0.985000014 -0.172199994 0
vn -0.985000014 -0.172199994 0
vn 0 0 -1
vn 0 0 -1
vn 0 0 -1
vn 0 1 0
vn 0 1 0
vn 0 1 0
vn 0.718100011 0.695900023 0.00620000018
vn 0.719200015 0.694800019 0.00620000018
vn 0.718100011 0.695900023 0.00620000018
vn 0.835500002 0.549499989 0
vn 0.838 0.545700014 -9.99999975e-05
vn 0.719200015 0.694800019 0.00620000018
vn 0.835500002 0.549499989 0
vn 0.944400012 0.328700006 -0.0027999999
vn 0.946699977 0.32190001 -0.0027999999
vn 0.838 0.545700014 -9.99999975e-05
vn 0.944400012 0.328700006 -0.0027999999
vn 0.988300025 0.152700007 -0.00179999997
vn 0.988699973 0.149800003 -0.00170000002
vn 0.946699977 0.32190001 -0.0027999999
vn 0.988300025 0.152700007 -0.00179999997
vn 0.998199999 0.0601000004 -0.000500000024
vn 0.998399973 0.0557999983 -0.000500000024
vn 0.988699973 0.149800003 -0.00170000002
vn 0.998199999 0.0601000004 -0.000500000024
vn 1 0.00179999997 -0.00039999999
vn 1 0.000199999995 -0.00039999999
vn 0.998399973 0.0557999983 -0.000500000024
vn -0.434899986 0.900399983 0
vn -0.209399998 0.977800012 0
vn 0.00449999981 1 0
vn 0.0210999995 0.999800026 0
vn -0.0168999992 0.999800026 0
vn -0.0153000001 0.999899983 0
vn -0.0165999997 0.999800026 0
vn -0.0131000001 0.999899983 0
vn -0.0109999999 0.999899983 0
vn -0.00860000029 0.999899983 0
vn -0.00949999969 0.999899983 0
vn -0.0137999998 0.999899983 0
vn -0.00870000012 0.999899983 0
vn -0.00870000012 0.999899983 0
vn -0.0136000002 0.999899983 0
vn -0.0168999992 0.999800026 0
vn -0.209399998 0.977800012 0
vn 0.0131999999 0.999899983 0
vn -0.0205000006 0.999800026 0
vn -0.0187999997 0.999800026 0
vn -0.00939999986 0.999899983 0
vn -0.00960000046 0.999899983 0
vn -0.0205000006 0.999800026 0
vn -0.00860000029 0.999899983 0
vn -0.0172000006 0.999800026 0
vn 0.0131999999 0.999899983 0
vn -0.00879999995 0.999899983 0
vn 0.0216000006 0.999800026 0
vn 0.0210999995 0.999800026 0
vn 0.0210999995 0.999800026 0
vn 0.0216000006 0.999800026 0
vn -0.434899986 0.900399983 0
vn -0.434899986 0.900399983 0
vn -0.434700012 0.9005 0
vn -0.434700012 0.9005 0
vn 1 0.00179999997 -0.00039999999
vn 1 -0.00490000006 -0.000699999975
vn 1 0.00150000001 -0.00039999999
vn 1 0.000199999995 -0.00039999999
vn 1 -0.00490000006 -0.000699999975
vn 1 0.0057000001 -0.000699999975
vn 0.999899983 0.00870000012 -0.000300000014
vn 1 0.00150000001 -0.00039999999
vn -0.236699998 0.971599996 0
vn 0.0186000001 0.999800026 0
vn 0.0182000007 0.999800026 0
vn -0.238199994 0.971199989 0
vn 0.217899993 0.976000011 0
vn 0.218500003 0.975799978 0
vn 0.388399988 0.921500027 -0.000199999995
vn 0.390100002 0.920799971 -0.000199999995
vn 0.218500003 0.975799978 0
vn 0.569800019 0.821799994 0.000199999995
vn 0.5722 0.820100009 0.000199999995
vn 0.754199982 0.656599998 0.000300000014
vn 0.755999982 0.654500008 0.000300000014
vn 0.875699997 0.482800007 0
vn 0.877799988 0.479000002 0
vn 0.754199982 0.656599998 0.000300000014
vn 0.935299993 0.353700012 0
vn 0.937600017 0.347799987 0
vn 0.877799988 0.479000002 0
vn 0.875699997 0.482800007 0
vn 0.963400006 0.26789999 0
vn 0.964299977 0.264800012 0
vn 0.963400006 0.26789999 0
vn 0.969799995 0.243699998 0
vn 0.969799995 0.243699998 0
vn 0.964299977 0.264800012 0
vn -0.486299992 0.87379998 0
vn -0.236699998 0.971599996 0
vn -0.238199994 0.971199989 0
vn -0.488099992 0.872799993 0
vn -0.647400022 0.762099981 0
vn -0.646700025 0.762700021 0
vn -0.646700025 0.762700021 0
vn -0.647400022 0.762099981 0
vn -0.785600007 0.618700027 0
vn -0.783800006 0.620899975 0
vn -0.783800006 0.620899975 0
vn -0.785600007 0.618700027 0
vn -0.917699993 0.397199988 0.000199999995
vn -0.915300012 0.402700007 0.000199999995
vn -0.915300012 0.402700007 0.000199999995
vn -0.917699993 0.397199988 0.000199999995
vn -0.980000019 0.198799998 -0.000500000024
vn -0.979200006 0.202600002 -0.000500000024
vn -0.979200006 0.202600002 -0.000500000024
vn -0.980000019 0.198799998 -0.000500000024
vn -0.996299982 0.0861999989 -0.000699999975
vn -0.996100008 0.0886000022 -0.00079999998
vn -0.999899983 0.0100999996 0
vn -1 0.00590000022 0
vn -0.998600006 -0.0518999994 -9.99999975e-05
vn -0.999899983 0.0100999996 0
vn -1 0.00590000022 0
vn -0.998600006 -0.0527999997 -9.99999975e-05
vn -0.998600006 -0.0527999997 -9.99999975e-05
vn -0.994000018 -0.108999997 -0.000300000014
vn -0.994499981 -0.1043 -0.000300000014
vn -0.987699986 -0.156299993 -0.000300000014
vn -0.994499981 -0.1043 -0.000300000014
vn -0.987699986 -0.156299993 -0.000300000014
vn -0.223800004 0.974600017 0
vn -0.209399998 0.977800012 0
vn -0.434899986 0.900399983 0
vn -0.434899986 0.900399983 0
vn 0.00469999993 1 0
vn 0.0210999995 0.999800026 0
vn 0.0210999995 0.999800026 0
vn 0.00449999981 1 0
vn -0.0168999992 0.999800026 0
vn -0.0153000001 0.999899983 0
vn -0.0153000001 0.999899983 0
vn -0.0168999992 0.999800026 0
vn -0.0165999997 0.999800026 0
vn -0.0165999997 0.999800026 0
vn -0.0131000001 0.999899983 0
vn -0.0109999999 0.999899983 0
vn -0.0109999999 0.999899983 0
vn -0.0131000001 0.999899983 0
vn -0.00860000029 0.999899983 0
vn -0.00860000029 0.999899983 0
vn -0.00949999969 0.999899983 0
vn -0.0137999998 0.999899983 0
vn -0.0137999998 0.999899983 0
vn -0.00949999969 0.999899983 0
vn -0.00860000029 0.999899983 0
vn -0.00870000012 0.999899983 0
vn -0.0137999998 0.999899983 0
vn -0.0136000002 0.999899983 0
vn -0.00870000012 0.999899983 0
vn -0.00860000029 0.999899983 0
vn -0.0168999992 0.999800026 0
vn -0.0168999992 0.999800026 0
vn 0.0149999997 0.999899983 0
vn 0.0131999999 0.999899983 0
vn -0.209399998 0.977800012 0
vn -0.223800004 0.974600017 0
vn -0.0205000006 0.999800026 0
vn -0.0186999999 0.999800026 0
vn -0.0187999997 0.999800026 0
vn -0.0205000006 0.999800026 0
vn -0.00930000003 0.999899983 0
vn -0.00939999986 0.999899983 0
vn -0.00960000046 0.999899983 0
vn -0.00960000046 0.999899983 0
vn -0.0205000006 0.999800026 0
vn -0.0205000006 0.999800026 0
vn -0.00860000029 0.999899983 0
vn -0.00860000029 0.999899983 0
vn -0.0172000006 0.999800026 0
vn -0.0171000008 0.999800026 0
vn -0.0083999997 0.999899983 0
vn -0.00879999995 0.999899983 0
vn 0.0131999999 0.999899983 0
vn 0.0149999997 0.999899983 0
vn -0.434700012 0.9005 0
vn -0.434899986 0.900399983 0
vn -0.434899986 0.900399983 0
vn -0.434700012 0.9005 0
vn -0.209399998 0.977800012 0
vn -0.434899986 0.900399983 0
vn 0.00449999981 1 0
vn 0.0210999995 0.999800026 0
vn -0.0168999992 0.999800026 0
vn -0.0153000001 0.999899983 0
vn -0.0165999997 0.999800026 0
vn -0.0131000001 0.999899983 0
vn -0.0109999999 0.999899983 0
vn -0.00860000029 0.999899983 0
vn -0.00949999969 0.999899983 0
vn -0.0137999998 0.999899983 0
vn -0.00870000012 0.999899983 0
vn -0.0136000002 0.999899983 0
vn -0.00870000012 0.999899983 0
vn -0.0168999992 0.999800026 0
vn 0.0131999999 0.999899983 0
vn -0.209399998 0.977800012 0
vn -0.0205000006 0.999800026 0
vn -0.0187999997 0.999800026 0
vn -0.00939999986 0.999899983 0
vn -0.00960000046 0.999899983 0
vn -0.0205000006 0.999800026 0
vn -0.00860000029 0.999899983 0
vn -0.0172000006 0.999800026 0
vn -0.00879999995 0.999899983 0
vn 0.0131999999 0.999899983 0
vn 0.0216000006 0.999800026 0
vn 0.0216000006 0.999800026 0
vn 0.0210999995 0.999800026 0
vn 0.0210999995 0.999800026 0
vn 0 0 1
vn 0 0 1
vn 0 0 1
vn 0 0 1
vn 0 0 1
vn 0 0 1
vn 0 0 1
vn 0 0 1
vn 0 0 1
vn 0 0 1
vn 0 0 1
vn 0 0 1
vn 0 0 1
vn 0 0 1
vn 0 0 1
vn 0 0 1
vn 0 0 1
vn 0 0 1
vn 0 0 1
vn 0 0 1
vn 0 0 1
vn 0 0 1
vn 0 0 1
vn 0 0 1
vn 0 0 1
vn 0 0 1
vn 0 0 1
vn 0 0 1
vn 0 0 1
vn 0 0 1
vn 0 0 1
vn 0 0 1
vn 0 0 1
vn 0 0 1
vn 0 0 1
vn 0 0 1
vn 0 0 1
vn 0 0 1
vn 0 0 1
vn 0 0 1
vn 0 0 1
vn 0 0 1
vn 0 0 1
vn 0 0 1
vn 0 0 1
vn 0 0 1
vn 0 0 1
vn 0 0 1
vn 0 0 1
vn 0 0 1
vn 0 0 1
vn 0 0 1
vn 0 0 1
vn 0 0 1
vn 0 0 1
vn 0 0 1
vn 0 0 1
vn 0 0 1
vn 0 1 0
vn 0.00270000007 1 -0.00039999999
vn 0 1 0
vn 0 1 0
vn 0 1 0
vn 0 1 0
vn 0 1 0
vn 0 0 1
vn 0 0 1
vn 0 0 1
vn 0 0 1
vn 0 0 1
vn 0 0 1
vn 0 0 1
vn 0 0 1
vn 0 0 1
vn 0 0 1
vn 0 0 1
vn 0 0 1
vn 0 0 1
vn 0 0 1
vn 0 0 1
vn 0 0 1
vn 0 0 1
vn 0 0 1
vn 0 0 1
vn 0 0 1
vn 0 0 1
vn 0 0 1
vn 0 1 0
vn 0 1 0
vn 0 1 0
vn 0 1 0
vn 0 1 0
vn 0 1 0
vn 0 1 0
vn 0 1 0
vn 0 1 0
vn 0.0432000011 0.999100029 0
vn 0.00270000007 1 -0.00039999999
vn -0.00870000012 0.999899983 -0.00340000005
vn -0.0229000002 0.99970001 -0.00609999988
vn 0 1 0
vn 0 1 0
vn 0.999899983 0.00870000012 0.000300000014
vn 1 0.00150000001 0.00039999999
vn 0.0216000006 0.999800026 0
vn 0.0210999995 0.999800026 0
vn -0.50999999 0.860099971 0
vn -0.649299979 0.760500014 0
vn -0.434899986 0.900399983 0
vn 0 1 0
vn 0.0864000022 0.996200025 0
vn 0.0432000011 0.999100029 0
vn -1 0.0027999999 0
vn -0.995700002 -0.0926999971 0
vn -0.995100021 -0.0992999971 0
vn -1 0.00079999998 0
vn -1 0.00079999998 0
vn -0.995100021 0.0988000035 0
vn -0.994700015 0.103100002 0
vn -0.976199985 0.216900006 -0.000500000024
vn -0.976499975 0.215599999 -0.000500000024
vn -0.946500003 0.322699994 -0.000500000024
vn -0.976199985 0.216900006 -0.000500000024
vn -0.976499975 0.215599999 -0.000500000024
vn -0.947300017 0.320199996 -0.000500000024
vn -0.947300017 0.320199996 -0.000500000024
vn -0.859200001 0.511500001 0
vn -0.856000006 0.516900003 0
vn 0 0 1
vn -0.856000006 0.516900003 0
vn -0.859200001 0.511500001 0
vn -0.677200019 0.735700011 0
vn -0.673799992 0.738900006 0
vn -0.673799992 0.738900006 0
vn -0.677200019 0.735700011 0
vn -0.452300012 0.891799986 0
vn -0.451400012 0.89230001 0
vn -0.177499995 0.984099984 0
vn -0.451400012 0.89230001 0
vn -0.179299995 0.983799994 0
vn -0.179299995 0.983799994 0
vn 0.181700006 0.983299971 9.99999975e-05
vn 0.184900001 0.982800007 9.99999975e-05
vn 0.529200017 0.848399997 -0.00469999993
vn 0.536800027 0.843699992 -0.00490000006
vn -0.995700002 -0.0926999971 0
vn -0.985000014 -0.172199994 0
vn -0.985000014 -0.172199994 0
vn -0.995100021 -0.0992999971 0
vn 0 0 1
vn 0 0 1
vn 0 0 1
vn 0 1 0
vn 0.719200015 0.694800019 -0.00620000018
vn 0.718100011 0.695900023 -0.00620000018
vn 0.718100011 0.695900023 -0.00620000018
vn 0.719200015 0.694800019 -0.00620000018
vn 0.838 0.545700014 9.99999975e-05
vn 0.835500002 0.549499989 0
vn 0.835500002 0.549499989 0
vn 0.838 0.545700014 9.99999975e-05
vn 0.946699977 0.32190001 0.0027999999
vn 0.944400012 0.328700006 0.0027999999
vn 0.944400012 0.328700006 0.0027999999
vn 0.946699977 0.32190001 0.0027999999
vn 0.988699973 0.149800003 0.00170000002
vn 0.988300025 0.152700007 0.00179999997
vn 0.988300025 0.152700007 0.00179999997
vn 0.988699973 0.149800003 0.00170000002
vn 0.998399973 0.0557999983 0.000500000024
vn 0.998199999 0.0601000004 0.000500000024
vn 0.998199999 0.0601000004 0.000500000024
vn 0.998399973 0.0557999983 0.000500000024
vn 1 0.000199999995 0.00039999999
vn 1 0.00179999997 0.00039999999
vn -0.209399998 0.977800012 0
vn -0.434899986 0.900399983 0
vn 0.0210999995 0.999800026 0
vn 0.00449999981 1 0
vn -0.0153000001 0.999899983 0
vn -0.0168999992 0.999800026 0
vn -0.0165999997 0.999800026 0
vn -0.0109999999 0.999899983 0
vn -0.0131000001 0.999899983 0
vn -0.00860000029 0.999899983 0
vn -0.0137999998 0.999899983 0
vn -0.00949999969 0.999899983 0
vn -0.00870000012 0.999899983 0
vn -0.0136000002 0.999899983 0
vn -0.00870000012 0.999899983 0
vn -0.0168999992 0.999800026 0
vn 0.0131999999 0.999899983 0
vn -0.209399998 0.977800012 0
vn -0.0187999997 0.999800026 0
vn -0.0205000006 0.999800026 0
vn -0.00939999986 0.999899983 0
vn -0.00960000046 0.999899983 0
vn -0.0205000006 0.999800026 0
vn -0.00860000029 0.999899983 0
vn -0.0172000006 0.999800026 0
vn -0.00879999995 0.999899983 0
vn 0.0131999999 0.999899983 0
vn 0.0210999995 0.999800026 0
vn 0.0210999995 0.999800026 0
vn 0.0216000006 0.999800026 0
vn 0.0216000006 0.999800026 0
vn -0.434899986 0.900399983 0
vn -0.434700012 0.9005 0
vn -0.434899986 0.900399983 0
vn -0.434700012 0.9005 0
vn 1 0.00179999997 0.00039999999
vn 1 0.000199999995 0.00039999999
vn 1 0.00150000001 0.00039999999
vn 1 -0.00490000006 0.000699999975
vn 1 -0.00490000006 0.000699999975
vn 1 0.00150000001 0.00039999999
vn 0.999899983 0.00870000012 0.000300000014
vn 1 0.0057000001 0.000699999975
vn -0.236699998 0.971599996 0
vn -0.238199994 0.971199989 0
vn 0.0182000007 0.999800026 0
vn 0.0186000001 0.999800026 0
vn 0.217899993 0.976000011 0
vn 0.218500003 0.975799978 0
vn 0.218500003 0.975799978 0
vn 0.390100002 0.920799971 0.000199999995
vn 0.388399988 0.921500027 0.000199999995
vn 0.569800019 0.821799994 -0.000199999995
vn 0.5722 0.820100009 -0.000199999995
vn 0.755999982 0.654500008 -0.000300000014
vn 0.754199982 0.656599998 -0.000300000014
vn 0.875699997 0.482800007 0
vn 0.754199982 0.656599998 -0.000300000014
vn 0.877799988 0.479000002 0
vn 0.935299993 0.353700012 0
vn 0.875699997 0.482800007 0
vn 0.877799988 0.479000002 0
vn 0.937600017 0.347799987 0
vn 0.964299977 0.264800012 0
vn 0.963400006 0.26789999 0
vn 0.963400006 0.26789999 0
vn 0.964299977 0.264800012 0
vn 0.969799995 0.243699998 0
vn 0.969799995 0.243699998 0
vn -0.486299992 0.87379998 0
vn -0.488099992 0.872799993 0
vn -0.238199994 0.971199989 0
vn -0.236699998 0.971599996 0
vn -0.646700025 0.762700021 0
vn -0.647400022 0.762099981 0
vn -0.646700025 0.762700021 0
vn -0.783800006 0.620899975 0
vn -0.785600007 0.618700027 0
vn -0.647400022 0.762099981 0
vn -0.783800006 0.620899975 0
vn -0.915300012 0.402700007 -0.000199999995
vn -0.917699993 0.397199988 -0.000199999995
vn -0.785600007 0.618700027 0
vn -0.915300012 0.402700007 -0.000199999995
vn -0.979200006 0.202600002 0.000500000024
vn -0.980000019 0.198799998 0.000500000024
vn -0.917699993 0.397199988 -0.000199999995
vn -0.979200006 0.202600002 0.000500000024
vn -0.996100008 0.0886000022 0.00079999998
vn -0.996299982 0.0861999989 0.000699999975
vn -0.980000019 0.198799998 0.000500000024
vn -0.999899983 0.0100999996 0
vn -1 0.00590000022 0
vn -0.998600006 -0.0518999994 9.99999975e-05
vn -0.998600006 -0.0527999997 9.99999975e-05
vn -1 0.00590000022 0
vn -0.999899983 0.0100999996 0
vn -0.994499981 -0.1043 0.000300000014
vn -0.994000018 -0.108999997 0.000300000014
vn -0.998600006 -0.0527999997 9.99999975e-05
vn -0.987699986 -0.156299993 0.000300000014
vn -0.987699986 -0.156299993 0.000300000014
vn -0.994499981 -0.1043 0.000300000014
f 1/1/1 2/2/2 3/3/3
f 1/1/1 3/3/3 4/4/4
f 5/5/5 6/6/6 7/7/7
f 5/5/5 7/7/7 8/8/8
f 9/9/9 10/10/10 11/11/11
f 9/9/9 11/11/11 12/12/12
f 13/13/13 12/12/12 11/11/11
f 13/13/13 11/11/11 14/14/14
f 15/15/15 16/16/16 17/17/17
f 15/15/15 17/17/17 18/18/18
f 19/19/19 18/18/18 17/17/17
f 19/19/19 17/17/17 20/20/20
f 21/21/21 22/22/22 23/23/23
f 21/21/21 23/23/23 24/24/24
f 25/25/25 24/24/24 23/23/23
f 25/25/25 23/23/23 26/26/26
f 27/27/27 28/28/28 29/29/29
f 27/27/27 29/29/29 30/30/30
f 27/27/27 30/30/30 31/31/31
f 27/27/27 31/31/31 32/32/32
f 33/33/33 34/34/34 35/35/35
f 33/33/33 35/35/35 36/36/36
f 37/37/37 38/38/38 39/39/39
f 37/37/37 39/39/39 40/40/40
f 41/41/41 40/40/40 39/39/39
f 41/41/41 39/39/39 42/42/42
f 41/41/41 42/42/42 43/43/43
f 41/41/41 43/43/43 44/44/44
f 13/13/13 14/14/14 45/45/45
f 13/13/13 45/45/45 46/46/46
f 21/21/21 47/47/47 48/48/48
f 21/21/21 48/48/48 22/22/22
f 5/5/5 44/44/44 43/43/43
f 5/5/5 43/43/43 6/6/6
f 15/15/15 49/49/49 50/50/50
f 15/15/15 50/50/50 16/16/16
f 51/51/51 52/52/52 53/53/53
f 51/51/51 53/53/53 54/54/54
f 51/51/51 54/54/54 50/50/50
f 51/51/51 50/50/50 49/49/49
f 55/55/55 56/56/56 57/57/57
f 55/55/55 57/57/57 58/58/58
f 59/59/59 60/60/60 61/61/61
f 59/59/59 61/61/61 62/62/62
f 63/63/63 64/64/64 65/65/65
f 63/63/63 65/65/65 66/66/66
f 67/67/67 68/68/68 69/69/69
f 67/67/67 69/69/69 70/70/70
f 71/71/71 70/70/70 69/69/69
f 71/71/71 69/69/69 72/72/72
f 73/73/73 74/74/74 75/75/75
f 73/73/73 75/75/75 76/76/76
f 77/77/77 76/76/76 75/75/75
f 77/77/77 75/75/75 78/78/78
f 79/79/79 80/80/80 81/81/81
f 79/79/79 81/81/81 82/82/82
f 83/83/83 82/82/82 81/81/81
f 83/83/83 81/81/81 84/84/84
f 85/85/85 86/86/86 87/87/87
f 85/85/85 87/87/87 88/88/88
f 85/85/85 88/88/88 89/89/89
f 85/85/85 89/89/89 90/90/90
f 91/91/91 92/92/92 93/93/93
f 91/91/91 93/93/93 94/94/94
f 95/95/95 96/96/96 97/97/97
f 95/95/95 97/97/97 98/98/98
f 99/99/99 98/98/98 97/97/97
f 99/99/99 97/97/97 100/100/100
f 99/99/99 100/100/100 101/101/101
f 99/99/99 101/101/101 102/102/102
f 71/71/71 72/72/72 103/103/103
f 71/71/71 103/103/103 104/104/104
f 79/79/79 105/105/105 106/106/106
f 79/79/79 106/106/106 80/80/80
f 63/63/63 102/102/102 101/101/101
f 63/63/63 101/101/101 64/64/64
f 73/73/73 107/107/107 108/108/108
f 73/73/73 108/108/108 74/74/74
f 109/109/109 110/110/110 111/111/111
f 109/109/109 111/111/111 112/112/112
f 109/109/109 112/112/112 108/108/108
f 109/109/109 108/108/108 107/107/107
f 113/113/113 114/114/114 115/115/115
f 113/113/113 115/115/115 116/116/116
f 117/117/117 118/118/118 119/119/119
f 117/117/117 119/119/119 120/120/120
f 121/121/121 122/122/122 123/123/123
f 121/121/121 123/123/123 124/124/124
f 125/125/125 126/126/126 127/127/127
f 125/125/125 127/127/127 128/128/128
f 125/125/125 129/129/129 130/130/130
f 125/125/125 130/130/130 126/126/126
f 131/131/131 132/132/132 133/133/133
f 131/131/131 133/133/133 134/134/134
f 135/135/135 136/136/136 137/137/137
f 135/135/135 137/137/137 138/138/138
f 139/139/139 138/138/138 137/137/137
f 139/139/139 137/137/137 140/140/140
f 141/141/141 142/142/142 143/143/143
f 141/141/141 143/143/143 144/144/144
f 145/145/145 146/146/146 147/147/147
f 145/145/145 147/147/147 148/148/148
f 145/145/145 148/148/148 149/149/149
f 145/145/145 149/149/149 150/150/150
f 151/151/151 152/152/152 153/153/153
f 154/154/154 155/155/155 119/119/119
f 156/156/156 157/157/157 119/119/119
f 156/156/156 119/119/119 158/158/158
f 159/159/159 160/160/160 161/161/161
f 162/162/162 161/161/161 163/163/163
f 159/159/159 161/161/161 164/164/164
f 165/165/165 163/163/163 161/161/161
f 166/166/166 167/167/167 168/168/168
f 169/169/169 170/170/170 153/153/153
f 171/171/171 172/172/172 153/153/153
f 173/173/173 174/174/174 153/153/153
f 175/175/175 176/176/176 177/177/177
f 175/175/175 177/177/177 178/178/178
f 179/179/179 180/180/180 181/181/181
f 179/179/179 181/181/181 182/182/182
f 183/183/183 184/184/184 185/185/185
f 183/183/183 185/185/185 186/186/186
f 183/183/183 187/187/187 188/188/188
f 183/183/183 188/188/188 184/184/184
f 189/189/189 190/190/190 191/191/191
f 192/192/192 193/193/193 194/194/194
f 192/192/192 195/195/195 193/193/193
f 196/196/196 193/193/193 195/195/195
f 197/197/197 193/193/193 198/198/198
f 141/141/141 193/193/193 199/199/199
f 200/200/200 191/191/191 190/190/190
f 201/201/201 202/202/202 133/133/133
f 203/203/203 133/133/133 202/202/202
f 204/204/204 205/205/205 133/133/133
f 204/204/204 133/133/133 206/206/206
f 204/204/204 207/207/207 208/208/208
f 209/209/209 208/208/208 207/207/207
f 209/209/209 210/210/210 208/208/208
f 211/211/211 212/212/212 213/213/213
f 211/211/211 213/213/213 214/214/214
f 215/215/215 216/216/216 217/217/217
f 215/215/215 217/217/217 218/218/218
f 219/219/219 218/218/218 217/217/217
f 219/219/219 217/217/217 220/220/220
f 221/221/221 222/222/222 223/223/223
f 221/221/221 223/223/223 224/224/224
f 221/221/221 224/224/224 225/225/225
f 221/221/221 225/225/225 226/226/226
f 227/227/227 228/228/228 229/229/229
f 227/227/227 229/229/229 230/230/230
f 231/231/231 232/232/232 233/233/233
f 231/231/231 233/233/233 234/234/234
f 235/235/235 234/234/234 233/233/233
f 235/235/235 233/233/233 236/236/236
f 237/237/237 238/238/238 239/239/239
f 237/237/237 239/239/239 240/240/240
f 241/241/241 242/242/242 243/243/243
f 241/241/241 243/243/243 244/244/244
f 245/245/245 246/246/246 247/247/247
f 245/245/245 247/247/247 248/248/248
f 249/249/249 250/250/250 251/251/251
f 249/249/249 251/251/251 252/252/252
f 249/249/249 252/252/252 253/253/253
f 249/249/249 253/253/253 254/254/254
f 219/219/219 255/255/255 256/256/256
f 219/219/219 256/256/256 257/257/257
f 258/258/258 259/259/259 229/229/229
f 258/258/258 229/229/229 260/260/260
f 261/261/261 262/262/262 263/263/263
f 261/261/261 263/263/263 264/264/264
f 261/261/261 265/265/265 266/266/266
f 261/261/261 266/266/266 267/267/267
f 268/268/268 269/269/269 266/266/266
f 268/268/268 266/266/266 265/265/265
f 270/270/270 271/271/271 272/272/272
f 270/270/270 272/272/272 273/273/273
f 270/270/270 274/274/274 275/275/275
f 270/270/270 275/275/275 276/276/276
f 277/277/277 120/120/120 119/119/119
f 278/278/278 279/279/279 280/280/280
f 278/278/278 280/280/280 281/281/281
f 282/282/282 283/283/283 284/284/284
f 282/282/282 284/284/284 285/285/285
f 286/286/286 287/287/287 284/284/284
f 286/286/286 284/284/284 288/288/288
f 286/286/286 289/289/289 290/290/290
f 286/286/286 290/290/290 291/291/291
f 292/292/292 293/293/293 290/290/290
f 292/292/292 290/290/290 289/289/289
f 294/294/294 295/295/295 296/296/296
f 294/294/294 296/296/296 297/297/297
f 298/298/298 299/299/299 300/300/300
f 298/298/298 300/300/300 151/151/151
f 299/299/299 130/130/130 129/129/129
f 299/299/299 129/129/129 300/300/300
f 301/301/301 302/302/302 303/303/303
f 301/301/301 303/303/303 237/237/237
f 302/302/302 188/188/188 187/187/187
f 302/302/302 187/187/187 303/303/303
f 292/292/292 304/304/304 305/305/305
f 292/292/292 305/305/305 293/293/293
f 306/306/306 307/307/307 308/308/308
f 306/306/306 308/308/308 309/309/309
f 310/310/310 311/311/311 312/312/312
f 310/310/310 312/312/312 313/313/313
f 314/314/314 315/315/315 316/316/316
f 314/314/314 316/316/316 317/317/317
f 318/318/318 319/319/319 320/320/320
f 318/318/318 320/320/320 321/321/321
f 322/322/322 323/323/323 324/324/324
f 322/322/322 324/324/324 325/325/325
f 3/3/3 326/326/326 327/327/327
f 3/3/3 327/327/327 4/4/4
f 326/326/326 60/60/60 59/59/59
f 326/326/326 59/59/59 327/327/327
f 6/6/6 328/328/328 329/329/329
f 6/6/6 329/329/329 7/7/7
f 328/328/328 63/63/63 66/66/66
f 328/328/328 66/66/66 329/329/329
f 10/10/10 330/330/330 331/331/331
f 10/10/10 331/331/331 11/11/11
f 330/330/330 67/67/67 70/70/70
f 330/330/330 70/70/70 331/331/331
f 11/11/11 331/331/331 332/332/332
f 11/11/11 332/332/332 14/14/14
f 331/331/331 70/70/70 71/71/71
f 331/331/331 71/71/71 332/332/332
f 16/16/16 333/333/333 334/334/334
f 16/16/16 334/334/334 17/17/17
f 333/333/333 73/73/73 76/76/76
f 333/333/333 76/76/76 334/334/334
f 17/17/17 334/334/334 335/335/335
f 17/17/17 335/335/335 20/20/20
f 334/334/334 76/76/76 77/77/77
f 334/334/334 77/77/77 335/335/335
f 22/22/22 336/336/336 337/337/337
f 22/22/22 337/337/337 23/23/23
f 336/336/336 79/79/79 82/82/82
f 336/336/336 82/82/82 337/337/337
f 23/23/23 337/337/337 338/338/338
f 23/23/23 338/338/338 26/26/26
f 337/337/337 82/82/82 83/83/83
f 337/337/337 83/83/83 338/338/338
f 29/29/29 339/339/339 340/340/340
f 29/29/29 340/340/340 30/30/30
f 339/339/339 86/86/86 85/85/85
f 339/339/339 85/85/85 340/340/340
f 30/30/30 340/340/340 341/341/341
f 30/30/30 341/341/341 31/31/31
f 340/340/340 85/85/85 90/90/90
f 340/340/340 90/90/90 341/341/341
f 35/35/35 342/342/342 343/343/343
f 35/35/35 343/343/343 36/36/36
f 342/342/342 92/92/92 91/91/91
f 342/342/342 91/91/91 343/343/343
f 38/38/38 344/344/344 345/345/345
f 38/38/38 345/345/345 39/39/39
f 344/344/344 95/95/95 98/98/98
f 344/344/344 98/98/98 345/345/345
f 39/39/39 345/345/345 346/346/346
f 39/39/39 346/346/346 42/42/42
f 345/345/345 98/98/98 99/99/99
f 345/345/345 99/99/99 346/346/346
f 42/42/42 346/346/346 347/347/347
f 42/42/42 347/347/347 43/43/43
f 346/346/346 99/99/99 102/102/102
f 346/346/346 102/102/102 347/347/347
f 14/14/14 332/332/332 348/348/348
f 14/14/14 348/348/348 45/45/45
f 332/332/332 71/71/71 104/104/104
f 332/332/332 104/104/104 348/348/348
f 48/48/48 349/349/349 336/336/336
f 48/48/48 336/336/336 22/22/22
f 349/349/349 105/105/105 79/79/79
f 349/349/349 79/79/79 336/336/336
f 43/43/43 347/347/347 328/328/328
f 43/43/43 328/328/328 6/6/6
f 347/347/347 102/102/102 63/63/63
f 347/347/347 63/63/63 328/328/328
f 50/50/50 350/350/350 333/333/333
f 50/50/50 333/333/333 16/16/16
f 350/350/350 107/107/107 73/73/73
f 350/350/350 73/73/73 333/333/333
f 53/53/53 351/351/351 352/352/352
f 53/53/53 352/352/352 54/54/54
f 351/351/351 110/110/110 109/109/109
f 351/351/351 109/109/109 352/352/352
f 54/54/54 352/352/352 350/350/350
f 54/54/54 350/350/350 50/50/50
f 352/352/352 109/109/109 107/107/107
f 352/352/352 107/107/107 350/350/350
f 245/245/245 353/353/353 354/354/354
f 245/245/245 354/354/354 355/355/355
f 353/353/353 356/356/356 115/115/115
f 353/353/353 115/115/115 354/354/354
f 357/357/357 358/358/358 359/359/359
f 357/357/357 359/359/359 249/249/249
f 358/358/358 57/57/57 360/360/360
f 358/358/358 360/360/360 359/359/359
f 361/361/361 362/362/362 363/363/363
f 361/361/361 363/363/363 364/364/364
f 365/365/365 366/366/366 367/367/367
f 365/365/365 367/367/367 368/368/368
f 369/369/369 370/370/370 371/371/371
f 369/369/369 371/371/371 372/372/372
f 373/373/373 374/374/374 371/371/371
f 373/373/373 371/371/371 370/370/370
f 373/373/373 375/375/375 376/376/376
f 373/373/373 376/376/376 377/377/377
f 378/378/378 379/379/379 376/376/376
f 378/378/378 376/376/376 375/375/375
f 378/378/378 380/380/380 381/381/381
f 378/378/378 381/381/381 379/379/379
f 382/382/382 383/383/383 381/381/381
f 382/382/382 381/381/381 384/384/384
f 385/385/385 386/386/386 387/387/387
f 385/385/385 387/387/387 388/388/388
f 385/385/385 389/389/389 390/390/390
f 385/385/385 390/390/390 386/386/386
f 391/391/391 392/392/392 393/393/393
f 391/391/391 393/393/393 394/394/394
f 395/395/395 396/396/396 397/397/397
f 395/395/395 397/397/397 398/398/398
f 395/395/395 398/398/398 399/399/399
f 395/395/395 399/399/399 400/400/400
f 401/401/401 402/402/402 403/403/403
f 401/401/401 403/403/403 404/404/404
f 405/405/405 406/406/406 407/407/407
f 405/405/405 407/407/407 408/408/408
f 409/409/409 410/410/410 411/411/411
f 409/409/409 411/411/411 412/412/412
f 413/413/413 414/414/414 415/415/415
f 413/413/413 415/415/415 416/416/416
f 417/417/417 416/416/416 415/415/415
f 417/417/417 415/415/415 418/418/418
f 419/419/419 420/420/420 421/421/421
f 419/419/419 421/421/421 422/422/422
f 419/419/419 423/423/423 424/424/424
f 419/419/419 424/424/424 425/425/425
f 426/426/426 427/427/427 424/424/424
f 426/426/426 424/424/424 428/428/428
f 429/429/429 430/430/430 431/431/431
f 429/429/429 431/431/431 432/432/432
f 433/433/433 434/434/434 435/435/435
f 433/433/433 435/435/435 436/436/436
f 437/437/437 438/438/438 439/439/439
f 437/437/437 439/439/439 440/440/440
f 441/441/441 442/442/442 439/439/439
f 441/441/441 439/439/439 438/438/438
f 443/443/443 444/444/444 445/445/445
f 443/443/443 445/445/445 446/446/446
f 447/447/447 448/448/448 445/445/445
f 447/447/447 445/445/445 444/444/444
f 449/449/449 450/450/450 451/451/451
f 449/449/449 451/451/451 452/452/452
f 453/453/453 454/454/454 451/451/451
f 453/453/453 451/451/451 450/450/450
f 455/455/455 456/456/456 457/457/457
f 455/455/455 457/457/457 458/458/458
f 455/455/455 459/459/459 460/460/460
f 455/455/455 460/460/460 456/456/456
f 461/461/461 462/462/462 463/463/463
f 461/461/461 463/463/463 464/464/464
f 465/465/465 466/466/466 467/467/467
f 465/465/465 467/467/467 468/468/468
f 469/469/469 470/470/470 467/467/467
f 469/469/469 467/467/467 466/466/466
f 469/469/469 471/471/471 472/472/472
f 469/469/469 472/472/472 470/470/470
f 441/441/441 473/473/473 474/474/474
f 441/441/441 474/474/474 442/442/442
f 449/449/449 452/452/452 475/475/475
f 449/449/449 475/475/475 476/476/476
f 433/433/433 436/436/436 472/472/472
f 433/433/433 472/472/472 471/471/471
f 443/443/443 446/446/446 477/477/477
f 443/443/443 477/477/477 478/478/478
f 479/479/479 480/480/480 481/481/481
f 479/479/479 481/481/481 482/482/482
f 479/479/479 478/478/478 477/477/477
f 479/479/479 477/477/477 480/480/480
f 483/483/483 484/484/484 485/485/485
f 483/483/483 485/485/485 486/486/486
f 487/487/487 62/62/62 61/61/61
f 487/487/487 61/61/61 488/488/488
f 489/489/489 490/490/490 65/65/65
f 489/489/489 65/65/65 64/64/64
f 491/491/491 492/492/492 69/69/69
f 491/491/491 69/69/69 68/68/68
f 493/493/493 72/72/72 69/69/69
f 493/493/493 69/69/69 492/492/492
f 494/494/494 495/495/495 75/75/75
f 494/494/494 75/75/75 74/74/74
f 496/496/496 78/78/78 75/75/75
f 496/496/496 75/75/75 495/495/495
f 497/497/497 498/498/498 81/81/81
f 497/497/497 81/81/81 80/80/80
f 499/499/499 84/84/84 81/81/81
f 499/499/499 81/81/81 498/498/498
f 500/500/500 88/88/88 87/87/87
f 500/500/500 87/87/87 501/501/501
f 500/500/500 502/502/502 89/89/89
f 500/500/500 89/89/89 88/88/88
f 503/503/503 94/94/94 93/93/93
f 503/503/503 93/93/93 504/504/504
f 505/505/505 506/506/506 97/97/97
f 505/505/505 97/97/97 96/96/96
f 507/507/507 100/100/100 97/97/97
f 507/507/507 97/97/97 506/506/506
f 507/507/507 508/508/508 101/101/101
f 507/507/507 101/101/101 100/100/100
f 493/493/493 509/509/509 103/103/103
f 493/493/493 103/103/103 72/72/72
f 497/497/497 80/80/80 106/106/106
f 497/497/497 106/106/106 510/510/510
f 489/489/489 64/64/64 101/101/101
f 489/489/489 101/101/101 508/508/508
f 494/494/494 74/74/74 108/108/108
f 494/494/494 108/108/108 511/511/511
f 512/512/512 112/112/112 111/111/111
f 512/512/512 111/111/111 513/513/513
f 512/512/512 511/511/511 108/108/108
f 512/512/512 108/108/108 112/112/112
f 514/514/514 515/515/515 516/516/516
f 514/514/514 516/516/516 517/517/517
f 518/518/518 519/519/519 520/520/520
f 518/518/518 520/520/520 521/521/521
f 522/522/522 523/523/523 524/524/524
f 522/522/522 524/524/524 525/525/525
f 526/526/526 527/527/527 528/528/528
f 526/526/526 528/528/528 529/529/529
f 526/526/526 529/529/529 530/530/530
f 526/526/526 530/530/530 531/531/531
f 532/532/532 533/533/533 534/534/534
f 532/532/532 534/534/534 535/535/535
f 536/536/536 537/537/537 538/538/538
f 536/536/536 538/538/538 539/539/539
f 540/540/540 541/541/541 538/538/538
f 540/540/540 538/538/538 537/537/537
f 542/542/542 543/543/543 544/544/544
f 542/542/542 544/544/544 545/545/545
f 546/546/546 547/547/547 548/548/548
f 546/546/546 548/548/548 549/549/549
f 546/546/546 550/550/550 551/551/551
f 546/546/546 551/551/551 547/547/547
f 552/552/552 553/553/553 554/554/554
f 555/555/555 520/520/520 556/556/556
f 557/557/557 558/558/558 520/520/520
f 557/557/557 520/520/520 559/559/559
f 560/560/560 561/561/561 562/562/562
f 563/563/563 564/564/564 561/561/561
f 560/560/560 565/565/565 561/561/561
f 566/566/566 561/561/561 564/564/564
f 567/567/567 568/568/568 569/569/569
f 570/570/570 553/553/553 571/571/571
f 572/572/572 553/553/553 573/573/573
f 574/574/574 553/553/553 575/575/575
f 576/576/576 577/577/577 177/177/177
f 576/576/576 177/177/177 176/176/176
f 578/578/578 579/579/579 181/181/181
f 578/578/578 181/181/181 180/180/180
f 580/580/580 581/581/581 185/185/185
f 580/580/580 185/185/185 184/184/184
f 580/580/580 184/184/184 188/188/188
f 580/580/580 188/188/188 582/582/582
f 583/583/583 584/584/584 585/585/585
f 586/586/586 587/587/587 588/588/588
f 586/586/586 588/588/588 589/589/589
f 590/590/590 589/589/589 588/588/588
f 591/591/591 592/592/592 588/588/588
f 542/542/542 593/593/593 588/588/588
f 594/594/594 585/585/585 584/584/584
f 595/595/595 534/534/534 596/596/596
f 597/597/597 596/596/596 534/534/534
f 598/598/598 599/599/599 534/534/534
f 598/598/598 534/534/534 600/600/600
f 598/598/598 601/601/601 602/602/602
f 603/603/603 602/602/602 601/601/601
f 603/603/603 601/601/601 604/604/604
f 605/605/605 214/214/214 213/213/213
f 605/605/605 213/213/213 606/606/606
f 607/607/607 608/608/608 217/217/217
f 607/607/607 217/217/217 216/216/216
f 609/609/609 220/220/220 217/217/217
f 609/609/609 217/217/217 608/608/608
f 610/610/610 224/224/224 223/223/223
f 610/610/610 223/223/223 611/611/611
f 610/610/610 612/612/612 225/225/225
f 610/610/610 225/225/225 224/224/224
f 613/613/613 230/230/230 229/229/229
f 613/613/613 229/229/229 614/614/614
f 615/615/615 616/616/616 233/233/233
f 615/615/615 233/233/233 232/232/232
f 617/617/617 236/236/236 233/233/233
f 617/617/617 233/233/233 616/616/616
f 618/618/618 240/240/240 239/239/239
f 618/618/618 239/239/239 619/619/619
f 620/620/620 621/621/621 243/243/243
f 620/620/620 243/243/243 242/242/242
f 622/622/622 248/248/248 247/247/247
f 622/622/622 247/247/247 623/623/623
f 624/624/624 252/252/252 251/251/251
f 624/624/624 251/251/251 625/625/625
f 624/624/624 626/626/626 253/253/253
f 624/624/624 253/253/253 252/252/252
f 609/609/609 627/627/627 256/256/256
f 609/609/609 256/256/256 255/255/255
f 628/628/628 629/629/629 229/229/229
f 628/628/628 229/229/229 259/259/259
f 630/630/630 631/631/631 632/632/632
f 630/630/630 632/632/632 633/633/633
f 630/630/630 634/634/634 635/635/635
f 630/630/630 635/635/635 636/636/636
f 637/637/637 636/636/636 635/635/635
f 637/637/637 635/635/635 638/638/638
f 639/639/639 640/640/640 641/641/641
f 639/639/639 641/641/641 642/642/642
f 639/639/639 643/643/643 644/644/644
f 639/639/639 644/644/644 645/645/645
f 646/646/646 520/520/520 519/519/519
f 647/647/647 648/648/648 649/649/649
f 647/647/647 649/649/649 650/650/650
f 651/651/651 652/652/652 653/653/653
f 651/651/651 653/653/653 654/654/654
f 655/655/655 656/656/656 653/653/653
f 655/655/655 653/653/653 657/657/657
f 655/655/655 658/658/658 659/659/659
f 655/655/655 659/659/659 660/660/660
f 661/661/661 660/660/660 659/659/659
f 661/661/661 659/659/659 662/662/662
f 663/663/663 664/664/664 665/665/665
f 663/663/663 665/665/665 666/666/666
f 667/667/667 552/552/552 668/668/668
f 667/667/667 668/668/668 669/669/669
f 669/669/669 668/668/668 531/531/531
f 669/669/669 531/531/531 530/530/530
f 301/301/301 618/618/618 670/670/670
f 301/301/301 670/670/670 302/302/302
f 302/302/302 670/670/670 582/582/582
f 302/302/302 582/582/582 188/188/188
f 661/661/661 662/662/662 671/671/671
f 661/661/661 671/671/671 672/672/672
f 673/673/673 674/674/674 675/675/675
f 673/673/673 675/675/675 676/676/676
f 677/677/677 678/678/678 679/679/679
f 677/677/677 679/679/679 680/680/680
f 681/681/681 682/682/682 683/683/683
f 681/681/681 683/683/683 684/684/684
f 685/685/685 686/686/686 687/687/687
f 685/685/685 687/687/687 688/688/688
f 689/689/689 690/690/690 691/691/691
f 689/689/689 691/691/691 692/692/692
f 431/431/431 430/430/430 693/693/693
f 431/431/431 693/693/693 694/694/694
f 694/694/694 693/693/693 487/487/487
f 694/694/694 487/487/487 488/488/488
f 436/436/436 435/435/435 695/695/695
f 436/436/436 695/695/695 696/696/696
f 696/696/696 695/695/695 490/490/490
f 696/696/696 490/490/490 489/489/489
f 440/440/440 439/439/439 697/697/697
f 440/440/440 697/697/697 698/698/698
f 698/698/698 697/697/697 492/492/492
f 698/698/698 492/492/492 491/491/491
f 439/439/439 442/442/442 699/699/699
f 439/439/439 699/699/699 697/697/697
f 697/697/697 699/699/699 493/493/493
f 697/697/697 493/493/493 492/492/492
f 446/446/446 445/445/445 700/700/700
f 446/446/446 700/700/700 701/701/701
f 701/701/701 700/700/700 495/495/495
f 701/701/701 495/495/495 494/494/494
f 445/445/445 448/448/448 702/702/702
f 445/445/445 702/702/702 700/700/700
f 700/700/700 702/702/702 496/496/496
f 700/700/700 496/496/496 495/495/495
f 452/452/452 451/451/451 703/703/703
f 452/452/452 703/703/703 704/704/704
f 704/704/704 703/703/703 498/498/498
f 704/704/704 498/498/498 497/497/497
f 451/451/451 454/454/454 705/705/705
f 451/451/451 705/705/705 703/703/703
f 703/703/703 705/705/705 499/499/499
f 703/703/703 499/499/499 498/498/498
f 457/457/457 456/456/456 706/706/706
f 457/457/457 706/706/706 707/707/707
f 707/707/707 706/706/706 500/500/500
f 707/707/707 500/500/500 501/501/501
f 456/456/456 460/460/460 708/708/708
f 456/456/456 708/708/708 706/706/706
f 706/706/706 708/708/708 502/502/502
f 706/706/706 502/502/502 500/500/500
f 463/463/463 462/462/462 709/709/709
f 463/463/463 709/709/709 710/710/710
f 710/710/710 709/709/709 503/503/503
f 710/710/710 503/503/503 504/504/504
f 468/468/468 467/467/467 711/711/711
f 468/468/468 711/711/711 712/712/712
f 712/712/712 711/711/711 506/506/506
f 712/712/712 506/506/506 505/505/505
f 467/467/467 470/470/470 713/713/713
f 467/467/467 713/713/713 711/711/711
f 711/711/711 713/713/713 507/507/507
f 711/711/711 507/507/507 506/506/506
f 470/470/470 472/472/472 714/714/714
f 470/470/470 714/714/714 713/713/713
f 713/713/713 714/714/714 508/508/508
f 713/713/713 508/508/508 507/507/507
f 442/442/442 474/474/474 715/715/715
f 442/442/442 715/715/715 699/699/699
f 699/699/699 715/715/715 509/509/509
f 699/699/699 509/509/509 493/493/493
f 475/475/475 452/452/452 704/704/704
f 475/475/475 704/704/704 716/716/716
f 716/716/716 704/704/704 497/497/497
f 716/716/716 497/497/497 510/510/510
f 472/472/472 436/436/436 696/696/696
f 472/472/472 696/696/696 714/714/714
f 714/714/714 696/696/696 489/489/489
f 714/714/714 489/489/489 508/508/508
f 477/477/477 446/446/446 701/701/701
f 477/477/477 701/701/701 717/717/717
f 717/717/717 701/701/701 494/494/494
f 717/717/717 494/494/494 511/511/511
f 481/481/481 480/480/480 718/718/718
f 481/481/481 718/718/718 719/719/719
f 719/719/719 718/718/718 512/512/512
f 719/719/719 512/512/512 513/513/513
f 480/480/480 477/477/477 717/717/717
f 480/480/480 717/717/717 718/718/718
f 718/718/718 717/717/717 511/511/511
f 718/718/718 511/511/511 512/512/512
f 622/622/622 720/720/720 721/721/721
f 622/622/622 721/721/721 722/722/722
f 722/722/722 721/721/721 516/516/516
f 722/722/722 516/516/516 723/723/723
f 724/724/724 624/624/624 725/725/725
f 724/724/724 725/725/725 726/726/726
f 726/726/726 725/725/725 727/727/727
f 726/726/726 727/727/727 485/485/485
f 728/728/728 729/729/729 730/730/730
f 728/728/728 730/730/730 731/731/731
f 732/732/732 733/733/733 734/734/734
f 732/732/732 734/734/734 735/735/735
f 736/736/736 737/737/737 738/738/738
f 736/736/736 738/738/738 739/739/739
f 740/740/740 739/739/739 738/738/738
f 740/740/740 738/738/738 741/741/741
f 740/740/740 742/742/742 743/743/743
f 740/740/740 743/743/743 744/744/744
f 745/745/745 744/744/744 743/743/743
f 745/745/745 743/743/743 746/746/746
f 745/745/745 746/746/746 747/747/747
f 745/745/745 747/747/747 748/748/748
f 749/749/749 750/750/750 747/747/747
f 749/749/749 747/747/747 751/751/751
f 752/752/752 753/753/753 754/754/754
f 752/752/752 754/754/754 755/755/755
f 752/752/752 755/755/755 756/756/756
f 752/752/752 756/756/756 757/757/757
f 758/758/758 759/759/759 760/760/760
f 758/758/758 760/760/760 761/761/761
f 762/762/762 763/763/763 764/764/764
f 762/762/762 764/764/764 765/765/765
f 762/762/762 766/766/766 767/767/767
f 762/762/762 767/767/767 763/763/763
f 768/768/768 769/769/769 770/770/770
f 768/768/768 770/770/770 771/771/771
f 772/772/772 773/773/773 774/774/774
f 772/772/772 774/774/774 775/775/775
f 776/776/776 777/777/777 778/778/778
f 776/776/776 778/778/778 779/779/779
f 780/780/780 781/781/781 782/782/782
f 780/780/780 782/782/782 783/783/783
f 784/784/784 785/785/785 782/782/782
f 784/784/784 782/782/782 781/781/781
f 786/786/786 787/787/787 788/788/788
f 786/786/786 788/788/788 789/789/789
f 786/786/786 790/790/790 791/791/791
f 786/786/786 791/791/791 792/792/792
f 793/793/793 794/794/794 791/791/791
f 793/793/793 791/791/791 795/795/795
