# Generated by lxe_pbrt_scene_convert
v -3.06352806 -0.719682992 1.73104703
v -3.04750299 -0.706430972 1.73151898
v -3.0523231 -0.706176996 1.73152101
v -3.05101395 -0.710606992 1.73149204
v -3.04559994 -0.70896697 1.73150301
v -3.04953194 -0.710991025 1.73110402
v -3.04547405 -0.711884975 1.73148406
v -3.05739093 -0.717694998 1.73144698
v -3.0490849 -0.712035 1.73109698
v -3.03963804 -0.711632013 1.73148596
v -3.04306293 -0.710869014 1.73149097
v -3.03773594 -0.713913977 1.73147094
v -3.0486989 -0.713114977 1.73147595
v -3.05410004 -0.720445991 1.73142898
v -3.0448401 -0.715044022 1.73146403
v -3.04304004 -0.715427995 1.73107505
v -3.0376091 -0.717845976 1.73144603
v -3.05139995 -0.722760975 1.73141396
v -3.04214001 -0.715623021 1.73145998
v -3.04175401 -0.717166007 1.73144996
v -3.0479269 -0.72526902 1.73139799
v -3.0485661 -0.731649995 1.73097098
v -3.01860309 -0.689773023 1.73162699
v -3.0078001 -0.701155007 1.73155296
v -3.01223707 -0.68919301 1.73162997
v -2.99699593 -0.68996501 1.73162496
v -3.00297689 -0.689387023 1.73162901
v -3.01968408 -0.709011018 1.73111606
v -3.01416612 -0.696331978 1.73158503
v -3.0018189 -0.696331978 1.73158503
v -2.99526 -0.708678007 1.73150504
v -3.01416612 -0.708099008 1.73150802
v -3.00999594 -0.708483994 1.73111999
v -3.00567698 -0.708099008 1.73150802
v -3.00141191 -0.708245993 1.73112094
v -2.9631741 -0.707130015 1.73151505
v -2.9671731 -0.703319013 1.73153901
v -2.97904897 -0.718617022 1.73105395
v -2.96940899 -0.715049982 1.73146403
v -2.95629001 -0.714272976 1.73146904
v -2.95924497 -0.710546017 1.731493
v -2.9628489 -0.71658802 1.73145401
v -2.96246409 -0.723146975 1.73141205
v -2.97488809 -0.722642004 1.73102903
v -2.971421 -0.726522028 1.731004
v -2.95050192 -0.723339975 1.73141098
v -2.95320296 -0.718903005 1.73143899
v -2.96813393 -0.731737018 1.73097003
v -3.0629859 -0.719606996 1.72872996
v -3.04750299 -0.706413984 1.72881401
v -3.05250192 -0.705766976 1.72934997
v -3.05084109 -0.710978985 1.72917199
v -3.04521894 -0.708818018 1.72932994
v -3.04927802 -0.710590005 1.72878695
v -3.04547405 -0.711866975 1.72877896
v -3.05739093 -0.71767801 1.728742
v -3.0486989 -0.711939991 1.72877896
v -3.03963804 -0.711614013 1.72878098
v -3.04310012 -0.71045202 1.72932005
v -3.03735399 -0.713755012 1.729298
v -3.0490849 -0.712972999 1.729159
v -3.05410004 -0.72042799 1.728724
v -3.044662 -0.715416014 1.72914302
v -3.04291105 -0.715026975 1.72875905
v -3.03721809 -0.71796602 1.72927105
v -3.05139995 -0.722743988 1.72870898
v -3.04214001 -0.715605974 1.728755
v -3.04217291 -0.717064977 1.72913301
v -3.0479269 -0.725251019 1.72869301
v -3.04862094 -0.731096983 1.72865605
v -3.01897693 -0.689404011 1.72945905
v -3.0078001 -0.701137006 1.72884905
v -3.01223707 -0.689176023 1.72892594
v -2.99699593 -0.689947009 1.72892106
v -3.00322509 -0.688960016 1.72946203
v -3.0192821 -0.70856899 1.72880101
v -3.01416612 -0.696313977 1.72887897
v -3.0018189 -0.696313977 1.72887897
v -2.99482989 -0.709110975 1.72933197
v -3.01378012 -0.708437026 1.72933698
v -3.00972891 -0.70808202 1.72880399
v -3.00539804 -0.708472013 1.72933698
v -3.00104809 -0.70788902 1.72880495
v -2.97853708 -0.71855998 1.72873604
v -2.96265292 -0.707078993 1.72941601
v -2.96722198 -0.702724993 1.72944403
v -2.96940899 -0.715031981 1.72875905
v -2.95580912 -0.714244008 1.72937
v -2.9591279 -0.710058987 1.72939706
v -2.9628489 -0.71657002 1.72874999
v -2.96246409 -0.723129988 1.72870696
v -2.97480989 -0.722163975 1.72871304
v -2.97094703 -0.726535976 1.72868502
v -2.94994497 -0.723497987 1.72931004
v -2.95320296 -0.718886018 1.72873402
v -2.96798706 -0.731231987 1.72865498
v -2.96814299 -0.714052975 1.72937095
v -2.961339 -0.722193003 1.72931802
v -2.96813393 -0.731725991 1.72925699
v -2.971421 -0.726511002 1.72929096
v -2.96421099 -0.717638016 1.72934794
v -2.97488809 -0.722630978 1.72931504
v -2.97904897 -0.718605995 1.72934198
v -2.96265292 -0.70709002 1.73112905
v -2.96722198 -0.702735007 1.73115599
v -2.96814299 -0.714064002 1.73108399
v -2.9591279 -0.710070014 1.73110902
v -2.95580912 -0.714254975 1.73108304
v -2.961339 -0.72220403 1.73103094
v -2.95305204 -0.718406022 1.73105597
v -2.94994497 -0.723509014 1.73102295
v -2.96421099 -0.717648983 1.73106098
v -3.06352806 -0.719672024 1.72925997
v -3.0485661 -0.731639028 1.72918296
v -3.04730201 -0.706050992 1.73113501
v -3.04521894 -0.708828986 1.73111796
v -3.04511189 -0.711310983 1.73110104
v -3.03942609 -0.711279988 1.73110199
v -3.03735399 -0.713765979 1.73108602
v -3.0490849 -0.712022007 1.72916496
v -3.04953194 -0.710978985 1.72917199
v -3.05683589 -0.717652977 1.73106003
v -3.05416799 -0.719883025 1.73104596
v -3.04304004 -0.715416014 1.72914302
v -3.05083394 -0.722689986 1.73102796
v -3.04800606 -0.724731982 1.73101497
v -3.00778198 -0.700078011 1.72939003
v -3.00141191 -0.708234012 1.72933805
v -3.0020721 -0.698329985 1.72940099
v -3.00999594 -0.708472013 1.72933698
v -3.01378012 -0.698436975 1.72940099
v -3.01968408 -0.708998978 1.72933304
v -3.01197696 -0.68878001 1.73124695
v -3.00778198 -0.700088978 1.73117399
v -2.99664092 -0.689608991 1.73124099
v -3.0020721 -0.698341012 1.73118496
v -3.01378012 -0.698449016 1.73118401
v -3.0091331 -0.754285991 1.72832096
v -3.04590511 -0.765763998 1.72824597
v -3.04814005 -0.754285991 1.72832096
v -3.03955293 -0.777647972 1.72817004
v -3.03013611 -0.786248982 1.72811401
v -3.01828504 -0.792042017 1.72807705
v -3.0091331 -0.79311502 1.72807002
v -3.00646591 -0.751389027 1.72833896
v -3.00646591 -0.712558985 1.72858906
v -2.99731398 -0.713631988 1.72858202
v -2.9854629 -0.719425023 1.728544
v -2.97604609 -0.728026986 1.72848904
v -2.9696939 -0.73991102 1.72841203
v -2.96745896 -0.751389027 1.72833896
v -3.0091331 -0.793134987 1.73116696
v -3.01828504 -0.792061985 1.73117495
v -3.03013611 -0.786269009 1.73121202
v -3.03955293 -0.777667999 1.73126698
v -3.04590511 -0.765783012 1.73134398
v -3.04814005 -0.754305005 1.73141694
v -3.0091331 -0.754305005 1.73141694
v -3.00646591 -0.712579012 1.731686
v -2.99731398 -0.713653028 1.73167896
v -2.9854629 -0.71944499 1.73164105
v -2.97604609 -0.728047013 1.73158598
v -2.9696939 -0.739930987 1.73151004
v -2.96745896 -0.751408994 1.73143601
v -3.00646591 -0.751408994 1.73143601
v -3.051826 -0.753214002 1.73074603
v -3.0510931 -0.753208995 1.73077404
v -3.04994011 -0.74158299 1.73084795
v -3.05065298 -0.741392016 1.73082304
v -3.04983401 -0.765165985 1.73066902
v -3.04913402 -0.764961004 1.73069799
v -3.04371309 -0.728846014 1.73093104
v -3.04432106 -0.728438973 1.73090601
v -3.03446794 -0.718724012 1.73099506
v -3.03491902 -0.718145013 1.73097205
v -3.02169394 -0.711896002 1.73103905
v -3.02192903 -0.711202979 1.73101699
v -3.00792003 -0.709493995 1.73105502
v -3.00792193 -0.708760977 1.73103297
v -2.99255991 -0.711836994 1.73104
v -2.99230194 -0.711143017 1.73101699
v -2.98107791 -0.719034016 1.73099303
v -2.98062611 -0.71846199 1.73097003
v -2.97147489 -0.729471982 1.73092604
v -2.97086096 -0.729076028 1.730901
v -2.9662559 -0.74011898 1.73085797
v -2.965554 -0.739902973 1.73083198
v -2.96458602 -0.75306201 1.730775
v -2.96385503 -0.75306499 1.73074698
v -2.969805 -0.772894025 1.73064697
v -2.96916199 -0.773232996 1.730618
v -2.98065996 -0.785628021 1.73056495
v -2.98020196 -0.786181986 1.73053396
v -2.99381304 -0.793142974 1.73051703
v -2.99357605 -0.793824971 1.73048496
v -3.008008 -0.795911014 1.73049903
v -3.00801206 -0.796639979 1.73046696
v -3.02032495 -0.794187009 1.73051
v -3.0205369 -0.794885993 1.73047805
v -3.03326893 -0.787923992 1.730551
v -3.03369999 -0.788516998 1.73051906
v -3.04391503 -0.776859999 1.73062205
v -3.0445261 -0.777266026 1.73059201
v -3.04310012 -0.710462987 1.73098195
v -3.03721809 -0.717976987 1.73093295
v -3.06427407 -0.790386975 1.72962606
v -3.07243609 -0.771780014 1.72974598
v -3.07243609 -0.771784008 1.73030305
v -3.06427407 -0.790391028 1.73018301
v -3.04762602 -0.807687998 1.72951603
v -3.04762602 -0.807691991 1.73007202
v -3.02738595 -0.817481995 1.72945201
v -3.02738595 -0.817485988 1.73000896
v -3.00812602 -0.820177972 1.72943497
v -3.00812602 -0.820181012 1.72999203
v -2.98592806 -0.815849006 1.72946298
v -2.98592806 -0.815853 1.73002005
v -2.96536207 -0.804096997 1.72953796
v -2.96536207 -0.80410099 1.73009503
v -2.94838691 -0.784184992 1.72966599
v -2.94838691 -0.784188986 1.73022401
v -2.94022608 -0.753174007 1.72986603
v -2.94022608 -0.753176987 1.73042297
v -2.942837 -0.732935011 1.72999597
v -2.942837 -0.732937992 1.73055303
v -2.95099902 -0.716286004 1.73010302
v -2.95099902 -0.716289997 1.73065996
v -2.9660151 -0.699963987 1.73020804
v -2.9660151 -0.69996798 1.73076499
v -2.98396897 -0.688709021 1.730281
v -2.98396897 -0.688713014 1.73083699
v -3.00798798 -0.685046017 1.730304
v -3.00798798 -0.685050011 1.73086095
v -3.029526 -0.688802004 1.73028004
v -3.029526 -0.688805997 1.73083699
v -3.04950094 -0.699477017 1.73021197
v -3.04950094 -0.69948101 1.73076797
v -3.06395793 -0.715305984 1.73011005
v -3.06395793 -0.715309978 1.73066604
v -3.07369494 -0.735224009 1.72998202
v -3.07369494 -0.735228002 1.73053801
v -3.07549906 -0.753403008 1.729864
v -3.07549906 -0.753405988 1.73042202
vn -0.798799992 -0.0945999995 0.594099998
vn 0.204400003 0.381199986 0.901600003
vn -0.313800007 0.688600004 0.653699994
vn 0.158399999 -0.457100004 0.875100017
vn 0.393299997 0.124300003 0.910899997
vn -0.284399986 -0.638599992 0.714999974
vn -0.0102000004 -0.0764999986 0.996999979
vn 0.0973000005 0.0195000004 0.995100021
vn -0.719600022 -0.154400006 0.676900029
vn 0.225099996 0.363299996 0.903999984
vn -0.0401000008 0.485300004 0.873399973
vn 0.3917 0.136500001 0.90990001
vn -0.466199994 0.2755 0.840600014
vn -0.0410000011 0.109999999 0.993099988
vn 0.203999996 -0.480399996 0.852999985
vn -0.301200002 -0.685400009 0.662899971
vn 0.466500014 -0.164499998 0.869000018
vn 0.116800003 -0.0200999994 0.992999971
vn 0.0883999988 0.809000015 0.581099987
vn -0.469099998 0.0310999993 0.882600009
vn -0.0200999994 0.108999997 0.993799984
vn 0.0800999999 -0.828400016 0.554400027
vn -0.578400016 0.545899987 0.60619998
vn -0.0174000002 0.0193000007 0.999599993
vn 0.233700007 0.3653 0.901000023
vn 0.308699995 0.301899999 0.901899993
vn -0.402200013 0.675000012 0.618499994
vn -0.538600028 -0.578400016 0.612600029
vn -0.0104999999 -0.0251000002 0.999599993
vn -0.00120000006 -0.0198999997 0.999800026
vn 0.564499974 -0.58130002 0.585900009
vn 0.557600021 -0.518299997 0.648400009
vn -0.457300007 -0.671500027 0.583000004
vn 0.433999985 -0.618200004 0.655300021
vn -0.588999987 -0.561800003 0.580799997
vn 0.424199998 0.0231999997 0.905200005
vn -0.0361000001 0.4014 0.915199995
vn -0.815400004 -0.0732000023 0.574199975
vn -0.0151000004 -0.0037 0.999899983
vn 0.439200014 0.00789999962 0.898299992
vn 0.104699999 0.419800013 0.901499987
vn -0.0178999994 -0.0200999994 0.999599993
vn 0.00340000005 -0.0412999988 0.999100029
vn -0.138300002 -0.800499976 0.583199978
vn -0.808600008 0.0379999988 0.587199986
vn 0.3935 -0.128999993 0.9102
vn 0.126599997 0.407299995 0.904399991
vn -0.237599999 -0.784099996 0.573300004
vn -0.932600021 -0.123999998 -0.3389
vn 0.308400005 0.712899983 0.629800022
vn -0.272700012 0.692300022 0.668099999
vn 0.132200003 -0.593500018 0.793900013
vn 0.804700017 0.261799991 0.532899976
vn 0.0239000004 -0.926100016 0.376399994
vn 0.105400003 0.250999987 0.962199986
vn 0.398099989 -0.0214000009 0.917100012
vn -0.597199976 0.0914999992 0.796800017
vn 0.363000005 0.706700027 0.607299984
vn -0.104599997 0.799499989 0.591400027
vn 0.729900002 0.350499988 0.586899996
vn -0.708400011 0.228499994 0.667800009
vn -0.0489999987 0.359699994 0.931800008
vn 0.217999995 -0.652999997 0.725300014
vn -0.0126999998 -0.984399974 -0.175600007
vn 0.722500026 -0.257800013 0.641499996
vn 0.362800002 0.0331999995 0.931299984
vn -0.584399998 -0.49939999 0.639500022
vn -0.674399972 0.0832000002 0.73360002
vn -0.0829000026 0.393599987 0.915499985
vn 0.0747999996 -0.939100027 -0.335399985
vn -0.539900005 0.551900029 0.635500014
vn -0.0151000004 0.0785000026 0.996800005
vn 0.485799998 0.69599998 0.528699994
vn 0.59740001 0.542299986 0.590799987
vn -0.370400012 0.667699993 0.645699978
vn -0.676800013 -0.631500006 -0.378199995
vn -0.0472999997 -0.110600002 0.992699981
vn -0.0324000008 -0.0074 0.99940002
vn 0.519800007 -0.597899973 0.610199988
vn 0.548699975 -0.541800022 0.636699975
vn -0.639400005 -0.764800012 -0.0789000019
vn 0.424100012 -0.652499974 0.628000021
vn -0.756799996 -0.626800001 -0.185599998
vn -0.980700016 -0.1008 -0.167099997
vn 0.827300012 0.0214000009 0.561399996
vn -0.0925000012 0.818400025 0.567099988
vn 0.0370999984 -0.0537 0.997900009
vn 0.809199989 -0.0126999998 0.587400019
vn 0.164900005 0.792699993 0.586899996
vn -0.0676999986 -0.0974999964 0.992900014
vn -0.0163000003 0.0898000002 0.995800018
vn -0.164900005 -0.984600008 -0.057599999
vn -0.995599985 0.0623000003 -0.0693999976
vn 0.848200023 -0.191400006 0.493800014
vn 0.191400006 0.862999976 0.467400014
vn -0.304399997 -0.93809998 -0.165099993
vn 0.424400002 0.335200012 -0.841099977
vn 0.435400009 0.363700002 -0.823499978
vn -0.273900002 -0.9102 -0.310499996
vn -0.953999996 0.0590999983 -0.293900013
vn -0.400200009 -0.306300014 -0.863699973
vn -0.157700002 -0.941200018 -0.298700005
vn -0.949100018 -0.075000003 -0.305799991
vn 0.919799984 0.0631999969 0.387199998
vn -0.0775000006 0.911499977 0.403800011
vn 0.31310001 0.2377 0.919499993
vn 0.221200004 0.895600021 0.385800004
vn 0.925000012 0.0265999995 0.378899992
vn 0.345899999 0.278600007 0.895900011
vn 0.272700012 0.899600029 0.341100007
vn 0.893400013 -0.270399988 0.358700007
vn -0.292199999 -0.233899996 0.927299976
vn -0.947899997 -0.1039 -0.301200002
vn 0.0956000015 -0.934599996 -0.342500001
vn 0.430299997 0.834900022 0.343100011
vn 0.89200002 0.312999994 0.326200008
vn 0.416500002 0.654299974 0.631099999
vn 0.490099996 0.807500005 0.328200012
vn 0.871900022 0.344900012 0.347499996
vn -0.893700004 -0.226999998 -0.386999995
vn -0.511200011 -0.717100024 -0.473699987
vn 0.851199985 0.0548 0.522000015
vn -0.103299998 0.839699984 0.533100009
vn -0.412800014 -0.779600024 -0.470899999
vn 0.840799987 0.0954999998 0.532899976
vn -0.1285 0.84799999 0.514100015
vn 0.0114000002 0.676800013 -0.736000001
vn -0.693599999 -0.657000005 -0.29519999
vn -0.0571999997 -0.419 -0.906199992
vn -0.536300004 -0.792100012 -0.291399986
vn 0.069600001 -0.395799994 -0.915700018
vn -0.656700015 -0.704699993 -0.268599987
vn 0.495599985 0.790899992 0.358999997
vn 0.00999999978 0.559099972 0.828999996
vn 0.654900014 0.647899985 0.388900012
vn -0.0425999984 -0.320100009 0.946399987
vn 0.0509000011 -0.302100003 0.951900005
vn 0.577300012 0.58099997 -0.573599994
vn -0.695100009 -0.242699996 -0.676699996
vn -0.635200024 0.527100027 -0.564499974
vn -0.585399985 -0.450700015 -0.673799992
vn -0.414299995 -0.604499996 -0.680299997
vn -0.208900005 -0.706900001 -0.675700009
vn 0.545400023 -0.609399974 -0.575399995
vn -0.577300012 -0.573599994 -0.58099997
vn -0.545400023 0.61680001 -0.567499995
vn 0.208900005 0.715600014 -0.666499972
vn 0.414299995 0.613300025 -0.672500014
vn 0.585399985 0.459300011 -0.667999983
vn 0.695100009 0.251399994 -0.673500001
vn 0.635200024 -0.519800007 -0.571200013
vn 0.545400023 -0.61680001 0.567499995
vn -0.208900005 -0.715600014 0.666499972
vn -0.414299995 -0.613300025 0.672500014
vn -0.585399985 -0.459300011 0.667999983
vn -0.695100009 -0.251399994 0.673500001
vn -0.635200024 0.519800007 0.571200013
vn 0.577300012 0.573599994 0.58099997
vn -0.545400023 0.609399974 0.575399995
vn 0.208900005 0.706900001 0.675700009
vn 0.414299995 0.604499996 0.680299997
vn 0.585399985 0.450700015 0.673900008
vn 0.695100009 0.242699996 0.676699996
vn 0.635200024 -0.52700001 0.564499974
vn -0.577300012 -0.58099997 0.573599994
vn -0.0372000001 -0.00769999996 0.999300003
vn 0.659300029 0.0168999992 0.751600027
vn 0.622200012 -0.181600004 0.761399984
vn -0.0353000015 0.00359999994 0.99940002
vn -0.0359999985 -0.0171000008 0.999199986
vn 0.634199977 0.183899999 0.750899971
vn 0.543099999 -0.374199986 0.751600027
vn -0.0307 0.0144999996 0.99940002
vn 0.398299992 -0.51730001 0.757399976
vn -0.0227000006 0.0228000004 0.999499977
vn 0.212400004 -0.621399999 0.754100025
vn -0.0120999999 0.0285999998 0.999499977
vn 0.00689999992 -0.656099975 0.754599988
vn -0.00039999999 0.0306000002 0.999499977
vn -0.222399995 -0.603900015 0.765399992
vn 0.0127999997 0.0278999992 0.999499977
vn -0.421499997 -0.511900008 0.74849999
vn 0.0238000005 0.0221999995 0.999499977
vn -0.541800022 -0.375200003 0.751999974
vn 0.0307999998 0.0146000003 0.99940002
vn -0.623000026 -0.192200005 0.75819999
vn 0.0357000008 0.00430000015 0.999300003
vn -0.640600026 0.0362000018 0.76700002
vn 0.0373999998 -0.00889999978 0.999199986
vn -0.560400009 0.287900001 0.776600003
vn 0.0333000012 -0.0238000005 0.999100029
vn -0.413300008 0.493800014 0.764999986
vn 0.0241 -0.0355999991 0.999100029
vn -0.226600006 0.604799986 0.763400018
vn 0.0131999999 -0.0419000015 0.999000013
vn -0.0172000006 0.644699991 0.764199972
vn 0.00100000005 -0.0439000018 0.999000013
vn 0.189700007 0.619799972 0.761500001
vn -0.0109000001 -0.0421999991 0.999000013
vn 0.379799992 0.51849997 0.765999973
vn -0.0219000001 -0.0366000012 0.999100029
vn 0.537599981 0.354900002 0.764800012
vn -0.0308999997 -0.0271000005 0.999100029
vn -0.0909999982 0.961099982 0.260699987
vn 0.898999989 -0.313199997 0.306100011
vn 0.607900023 0.4023 0.684499979
vn 0.691100001 0.201199993 0.694100022
vn 0.648800015 0.188299999 0.737200022
vn 0.550800025 0.363799989 0.75120002
vn 0.4296 0.587700009 0.685599983
vn 0.389099985 0.531499982 0.752399981
vn 0.211400002 0.691600025 0.690599978
vn 0.194299996 0.634800017 0.747799993
vn -0.0196000002 0.724699974 0.68870002
vn -0.0177999996 0.66079998 0.750400007
vn -0.253899992 0.678600013 0.689100027
vn -0.232199997 0.619799972 0.749599993
vn -0.466100007 0.558000028 0.686500013
vn -0.423500001 0.506200016 0.75120002
vn -0.655900002 0.338400006 0.674700022
vn -0.575200021 0.295700014 0.762700021
vn -0.732900023 0.0430999994 0.678900003
vn -0.656700015 0.0375999995 0.753099978
vn -0.698199987 -0.214300007 0.683099985
vn -0.638000011 -0.196600005 0.744499981
vn -0.598500013 -0.413800001 0.68599999
vn -0.554400027 -0.3838 0.738499999
vn -0.462099999 -0.560400009 0.68720001
vn -0.431100011 -0.523400009 0.734899998
vn -0.256500006 -0.694899976 0.671700001
vn -0.228 -0.618700027 0.751699984
vn 0.00779999979 -0.73299998 0.680100024
vn 0.00710000005 -0.671500027 0.74089998
vn 0.237100005 -0.692799985 0.680999994
vn 0.217399999 -0.635999978 0.740400016
vn 0.448100001 -0.58099997 0.679499984
vn 0.407799989 -0.529600024 0.743700027
vn 0.599300027 -0.412200004 0.686200023
vn 0.555700004 -0.382800013 0.738099992
vn 0.70389998 -0.204300001 0.680199981
vn 0.637199998 -0.185699999 0.748000026
vn 0.722299993 0.0195000004 0.691200018
vn 0.674499989 0.0175999999 0.738099992
f 1//1 2//2 3//3
f 1//1 4//4 2//2
f 4//4 5//5 2//2
f 4//4 6//6 5//5
f 6//6 7//7 5//5
f 1//1 8//8 4//4
f 9//9 7//7 6//6
f 7//7 10//10 11//11
f 7//7 12//12 10//10
f 9//9 12//12 7//7
f 13//13 12//12 9//9
f 14//14 15//15 13//13
f 15//15 12//12 13//13
f 15//15 16//16 12//12
f 16//16 17//17 12//12
f 14//14 18//18 15//15
f 19//19 17//17 16//16
f 20//20 17//17 19//19
f 21//21 17//17 20//20
f 1//1 14//14 8//8
f 21//21 22//22 17//17
f 22//22 14//14 1//1
f 22//22 18//18 14//14
f 22//22 21//21 18//18
f 23//23 24//24 25//25
f 24//24 26//26 27//27
f 28//28 29//29 23//23
f 29//29 24//24 23//23
f 24//24 30//30 26//26
f 30//30 31//31 26//26
f 28//28 32//32 29//29
f 33//33 24//24 29//29
f 24//24 34//34 30//30
f 35//35 31//31 30//30
f 33//33 34//34 24//24
f 36//36 37//37 38//38
f 38//38 39//39 36//36
f 39//39 40//40 41//41
f 39//39 42//42 40//40
f 42//42 43//43 40//40
f 38//38 42//42 39//39
f 38//38 44//44 42//42
f 45//45 43//43 42//42
f 43//43 46//46 47//47
f 45//45 46//46 43//43
f 45//45 48//48 46//46
f 49//49 50//50 51//51
f 49//49 52//52 50//50
f 52//52 53//53 50//50
f 52//52 54//54 53//53
f 54//54 55//55 53//53
f 49//49 56//56 52//52
f 57//57 55//55 54//54
f 55//55 58//58 59//59
f 55//55 60//60 58//58
f 57//57 60//60 55//55
f 61//61 60//60 57//57
f 62//62 63//63 61//61
f 63//63 60//60 61//61
f 63//63 64//64 60//60
f 64//64 65//65 60//60
f 62//62 66//66 63//63
f 67//67 65//65 64//64
f 68//68 65//65 67//67
f 69//69 65//65 68//68
f 49//49 62//62 56//56
f 69//69 70//70 65//65
f 70//70 62//62 49//49
f 70//70 66//66 62//62
f 70//70 69//69 66//66
f 71//71 72//72 73//73
f 72//72 74//74 75//75
f 76//76 77//77 71//71
f 77//77 72//72 71//71
f 72//72 78//78 74//74
f 78//78 79//79 74//74
f 76//76 80//80 77//77
f 81//81 72//72 77//77
f 72//72 82//82 78//78
f 83//83 79//79 78//78
f 81//81 82//82 72//72
f 84//84 85//85 86//86
f 84//84 87//87 85//85
f 87//87 88//88 89//89
f 87//87 90//90 88//88
f 90//90 91//91 88//88
f 84//84 90//90 87//87
f 84//84 92//92 90//90
f 93//93 91//91 90//90
f 91//91 94//94 95//95
f 93//93 94//94 91//91
f 93//93 96//96 94//94
f 85//85 97//97 87//87
f 97//97 89//89 87//87
f 88//88 98//98 91//91
f 98//98 95//95 91//91
f 94//94 99//99 96//96
f 99//99 100//100 93//93
f 99//99 93//93 96//96
f 100//100 101//101 90//90
f 100//100 90//90 93//93
f 101//101 102//102 92//92
f 101//101 92//92 90//90
f 102//102 103//103 84//84
f 102//102 84//84 92//92
f 103//103 86//86 84//84
f 37//37 36//36 104//104
f 37//37 104//104 105//105
f 36//36 39//39 106//106
f 36//36 106//106 104//104
f 39//39 41//41 107//107
f 39//39 107//107 106//106
f 41//41 40//40 108//108
f 41//41 108//108 107//107
f 40//40 43//43 109//109
f 40//40 109//109 108//108
f 43//43 47//47 110//110
f 43//43 110//110 109//109
f 47//47 46//46 111//111
f 47//47 111//111 110//110
f 46//46 48//48 111//111
f 45//45 42//42 112//112
f 42//42 44//44 112//112
f 38//38 37//37 105//105
f 113//113 51//51 49//49
f 65//65 114//114 70//70
f 114//114 113//113 49//49
f 114//114 49//49 70//70
f 3//3 2//2 115//115
f 2//2 5//5 116//116
f 2//2 116//116 115//115
f 5//5 7//7 117//117
f 5//5 117//117 116//116
f 7//7 11//11 117//117
f 11//11 10//10 118//118
f 10//10 12//12 119//119
f 10//10 119//119 118//118
f 12//12 17//17 119//119
f 61//61 120//120 57//57
f 120//120 121//121 54//54
f 120//120 54//54 57//57
f 121//121 52//52 54//54
f 122//122 123//123 62//62
f 122//122 62//62 56//56
f 123//123 13//13 61//61
f 123//123 61//61 62//62
f 13//13 9//9 120//120
f 13//13 120//120 61//61
f 9//9 6//6 121//121
f 9//9 121//121 120//120
f 6//6 4//4 52//52
f 6//6 52//52 121//121
f 4//4 122//122 56//56
f 4//4 56//56 52//52
f 8//8 14//14 123//123
f 8//8 123//123 122//122
f 14//14 13//13 123//123
f 4//4 8//8 122//122
f 68//68 124//124 67//67
f 124//124 64//64 67//67
f 124//124 63//63 64//64
f 125//125 126//126 69//69
f 125//125 69//69 66//66
f 126//126 20//20 68//68
f 126//126 68//68 69//69
f 20//20 16//16 124//124
f 20//20 124//124 68//68
f 16//16 15//15 63//63
f 16//16 63//63 124//124
f 15//15 125//125 66//66
f 15//15 66//66 63//63
f 18//18 21//21 126//126
f 18//18 126//126 125//125
f 21//21 20//20 126//126
f 20//20 19//19 16//16
f 15//15 18//18 125//125
f 73//73 127//127 72//72
f 127//127 75//75 72//72
f 79//79 128//128 83//83
f 128//128 129//129 78//78
f 128//128 78//78 83//83
f 129//129 82//82 78//78
f 82//82 130//130 81//81
f 130//130 131//131 77//77
f 130//130 77//77 81//81
f 131//131 80//80 77//77
f 80//80 132//132 76//76
f 132//132 71//71 76//76
f 23//23 25//25 133//133
f 25//25 24//24 134//134
f 25//25 134//134 133//133
f 24//24 27//27 134//134
f 27//27 26//26 135//135
f 26//26 31//31 135//135
f 35//35 30//30 136//136
f 30//30 34//34 136//136
f 33//33 29//29 137//137
f 29//29 32//32 137//137
f 138//138 139//139 140//140
f 138//138 141//141 139//139
f 138//138 142//142 141//141
f 138//138 143//143 142//142
f 138//138 144//144 143//143
f 145//145 146//146 147//147
f 145//145 147//147 148//148
f 145//145 148//148 149//149
f 145//145 149//149 150//150
f 145//145 150//150 151//151
f 144//144 152//152 153//153
f 144//144 153//153 143//143
f 143//143 153//153 154//154
f 143//143 154//154 142//142
f 142//142 154//154 155//155
f 142//142 155//155 141//141
f 141//141 155//155 156//156
f 141//141 156//156 139//139
f 139//139 156//156 157//157
f 139//139 157//157 140//140
f 138//138 158//158 152//152
f 138//138 152//152 144//144
f 140//140 157//157 158//158
f 140//140 158//158 138//138
f 146//146 159//159 160//160
f 146//146 160//160 147//147
f 147//147 160//160 161//161
f 147//147 161//161 148//148
f 148//148 161//161 162//162
f 148//148 162//162 149//149
f 149//149 162//162 163//163
f 149//149 163//163 150//150
f 150//150 163//163 164//164
f 150//150 164//164 151//151
f 145//145 165//165 159//159
f 145//145 159//159 146//146
f 151//151 164//164 165//165
f 151//151 165//165 145//145
f 156//156 158//158 157//157
f 155//155 158//158 156//156
f 154//154 158//158 155//155
f 153//153 158//158 154//154
f 152//152 158//158 153//153
f 159//159 165//165 160//160
f 160//160 165//165 161//161
f 161//161 165//165 162//162
f 162//162 165//165 163//163
f 163//163 165//165 164//164
f 166//166 167//167 168//168
f 166//166 168//168 169//169
f 170//170 171//171 167//167
f 170//170 167//167 166//166
f 169//169 168//168 172//172
f 169//169 172//172 173//173
f 173//173 172//172 174//174
f 173//173 174//174 175//175
f 175//175 174//174 176//176
f 175//175 176//176 177//177
f 177//177 176//176 178//178
f 177//177 178//178 179//179
f 179//179 178//178 180//180
f 179//179 180//180 181//181
f 181//181 180//180 182//182
f 181//181 182//182 183//183
f 183//183 182//182 184//184
f 183//183 184//184 185//185
f 185//185 184//184 186//186
f 185//185 186//186 187//187
f 187//187 186//186 188//188
f 187//187 188//188 189//189
f 189//189 188//188 190//190
f 189//189 190//190 191//191
f 191//191 190//190 192//192
f 191//191 192//192 193//193
f 193//193 192//192 194//194
f 193//193 194//194 195//195
f 195//195 194//194 196//196
f 195//195 196//196 197//197
f 197//197 196//196 198//198
f 197//197 198//198 199//199
f 199//199 198//198 200//200
f 199//199 200//200 201//201
f 201//201 200//200 202//202
f 201//201 202//202 203//203
f 203//203 202//202 171//171
f 203//203 171//171 170//170
f 11//11 204//204 117//117
f 118//118 204//204 11//11
f 17//17 205//205 119//119
f 22//22 205//205 17//17
f 3//3 51//51 113//113
f 3//3 113//113 1//1
f 115//115 50//50 51//51
f 115//115 51//51 3//3
f 116//116 53//53 50//50
f 116//116 50//50 115//115
f 117//117 55//55 53//53
f 117//117 53//53 116//116
f 204//204 59//59 55//55
f 204//204 55//55 117//117
f 118//118 58//58 59//59
f 118//118 59//59 204//204
f 119//119 60//60 58//58
f 119//119 58//58 118//118
f 205//205 65//65 60//60
f 205//205 60//60 119//119
f 22//22 114//114 65//65
f 22//22 65//65 205//205
f 1//1 113//113 114//114
f 1//1 114//114 22//22
f 133//133 73//73 71//71
f 133//133 71//71 23//23
f 134//134 127//127 73//73
f 134//134 73//73 133//133
f 27//27 75//75 127//127
f 27//27 127//127 134//134
f 135//135 74//74 75//75
f 135//135 75//75 27//27
f 31//31 79//79 74//74
f 31//31 74//74 135//135
f 35//35 128//128 79//79
f 35//35 79//79 31//31
f 136//136 129//129 128//128
f 136//136 128//128 35//35
f 34//34 82//82 129//129
f 34//34 129//129 136//136
f 33//33 130//130 82//82
f 33//33 82//82 34//34
f 137//137 131//131 130//130
f 137//137 130//130 33//33
f 32//32 80//80 131//131
f 32//32 131//131 137//137
f 28//28 132//132 80//80
f 28//28 80//80 32//32
f 23//23 71//71 132//132
f 23//23 132//132 28//28
f 104//104 85//85 86//86
f 104//104 86//86 105//105
f 106//106 97//97 85//85
f 106//106 85//85 104//104
f 107//107 89//89 97//97
f 107//107 97//97 106//106
f 108//108 88//88 89//89
f 108//108 89//89 107//107
f 109//109 98//98 88//88
f 109//109 88//88 108//108
f 110//110 95//95 98//98
f 110//110 98//98 109//109
f 111//111 94//94 95//95
f 111//111 95//95 110//110
f 48//48 99//99 94//94
f 48//48 94//94 111//111
f 45//45 100//100 99//99
f 45//45 99//99 48//48
f 112//112 101//101 100//100
f 112//112 100//100 45//45
f 44//44 102//102 101//101
f 44//44 101//101 112//112
f 38//38 103//103 102//102
f 38//38 102//102 44//44
f 105//105 86//86 103//103
f 105//105 103//103 38//38
f 206//206 207//207 208//208
f 206//206 208//208 209//209
f 210//210 206//206 209//209
f 210//210 209//209 211//211
f 212//212 210//210 211//211
f 212//212 211//211 213//213
f 214//214 212//212 213//213
f 214//214 213//213 215//215
f 216//216 214//214 215//215
f 216//216 215//215 217//217
f 218//218 216//216 217//217
f 218//218 217//217 219//219
f 220//220 218//218 219//219
f 220//220 219//219 221//221
f 222//222 220//220 221//221
f 222//222 221//221 223//223
f 224//224 222//222 223//223
f 224//224 223//223 225//225
f 226//226 224//224 225//225
f 226//226 225//225 227//227
f 228//228 226//226 227//227
f 228//228 227//227 229//229
f 230//230 228//228 229//229
f 230//230 229//229 231//231
f 232//232 230//230 231//231
f 232//232 231//231 233//233
f 234//234 232//232 233//233
f 234//234 233//233 235//235
f 236//236 234//234 235//235
f 236//236 235//235 237//237
f 238//238 236//236 237//237
f 238//238 237//237 239//239
f 240//240 238//238 239//239
f 240//240 239//239 241//241
f 207//207 242//242 243//243
f 207//207 243//243 208//208
f 242//242 240//240 241//241
f 242//242 241//241 243//243
