# Generated by lxe_pbrt_scene_convert
v -2.05293298 -0.0446930006 1.83850896
v -2.05293298 -0.0446930006 1.83957803
v -2.03664899 -0.0142040001 1.83957803
v -2.03664899 -0.0142040001 1.83850896
v -2.01860595 -0.0439530015 1.83957803
v -2.01860595 -0.0439530015 1.83850896
v -2.00165606 -0.0134500004 1.83850896
v -2.00165606 -0.0134500004 1.83957803
v -2.01860595 -0.0439530015 1.83957803
v -2.00165606 -0.0134500004 1.83957803
v -2.00319695 -0.0143830003 1.83957803
v -2.019135 -0.0430639982 1.83957803
v -2.03664899 -0.0142040001 1.83957803
v -2.05293298 -0.0446930006 1.83957803
v -2.05141211 -0.0437600017 1.83957803
v -2.03609991 -0.0150920004 1.83957803
v -2.03609991 -0.0150920004 1.83957803
v -2.05141211 -0.0437600017 1.83957803
v -2.05141211 -0.0437600017 1.840662
v -2.03609991 -0.0150920004 1.840662
v -2.019135 -0.0430639982 1.83957803
v -2.00319695 -0.0143830003 1.83957803
v -2.00319695 -0.0143830003 1.840662
v -2.019135 -0.0430639982 1.840662
v -1.91839898 -0.0101079997 1.83344603
v -1.91847706 -0.00855099969 1.83370197
v -1.91847706 -0.00855099969 1.83850896
v -1.91839898 -0.0101079997 1.83850896
v -2.03840899 -0.0111370003 1.83568704
v -2.03922606 -0.0127140004 1.835513
v -2.03922606 -0.0127140004 1.83850896
v -2.03840899 -0.0111370003 1.83850896
v -1.91674304 -0.0431680009 1.82801104
v -1.91681802 -0.0416800007 1.82825601
v -1.91681802 -0.0416800007 1.83850896
v -1.91674304 -0.0431680009 1.83850896
v -1.91839898 -0.0101079997 1.83344603
v -1.91839898 -0.0101079997 1.83850896
v -2.0557909 -0.0446770005 1.83199203
v -2.0557909 -0.0446770005 1.83850896
v -2.0557909 -0.0446770005 1.83199203
v -2.05657101 -0.0461830013 1.83182597
v -2.05657101 -0.0461830013 1.83850896
v -2.0557909 -0.0446770005 1.83850896
v -2.05657101 -0.0461830013 1.83182597
v -2.05377507 -0.0461230017 1.83175004
v -2.05377507 -0.0461230017 1.83850896
v -2.05657101 -0.0461830013 1.83850896
v -2.03601003 -0.0110849999 1.83564699
v -2.03840899 -0.0111370003 1.83568704
v -2.03840899 -0.0111370003 1.83850896
v -2.03601003 -0.0110849999 1.83850896
v -2.03680992 -0.012662 1.83547199
v -2.03922606 -0.0127140004 1.835513
v -2.03840899 -0.0111370003 1.83568704
v -2.03601003 -0.0110849999 1.83564699
v -2.03601003 -0.0110849999 1.83850896
v -2.03840899 -0.0111370003 1.83850896
v -2.03922606 -0.0127140004 1.83850896
v -2.03680992 -0.012662 1.83850896
v -2.05301094 -0.044617001 1.83191705
v -2.0557909 -0.0446770005 1.83199203
v -2.03922606 -0.0127140004 1.835513
v -2.03680992 -0.012662 1.83547199
v -2.05377507 -0.0461230017 1.83175004
v -2.05657101 -0.0461830013 1.83182597
v -2.0557909 -0.0446770005 1.83199203
v -2.05301094 -0.044617001 1.83191705
v -2.05301094 -0.044617001 1.83850896
v -2.0557909 -0.0446770005 1.83850896
v -2.05657101 -0.0461830013 1.83850896
v -2.05377507 -0.0461230017 1.83850896
v -1.91879904 -0.0432120003 1.82806695
v -1.91879904 -0.0432120003 1.83850896
v -1.91674304 -0.0431680009 1.82801104
v -1.91674304 -0.0431680009 1.83850896
v -1.91847706 -0.00855099969 1.83370197
v -1.92024004 -0.00858900044 1.83373201
v -1.92024004 -0.00858900044 1.83850896
v -1.91847706 -0.00855099969 1.83850896
v -1.91839898 -0.0101079997 1.83344603
v -1.92017496 -0.0101469997 1.83347702
v -1.92024004 -0.00858900044 1.83373201
v -1.91847706 -0.00855099969 1.83370197
v -1.92017496 -0.0101469997 1.83347702
v -2.03680992 -0.012662 1.83547199
v -2.03601003 -0.0110849999 1.83564699
v -1.92024004 -0.00858900044 1.83373201
v -1.91847706 -0.00855099969 1.83850896
v -1.92024004 -0.00858900044 1.83850896
v -1.92017496 -0.0101469997 1.83850896
v -1.91839898 -0.0101079997 1.83850896
v -1.92024004 -0.00858900044 1.83850896
v -1.92017496 -0.0101469997 1.83850896
v -1.91681802 -0.0416800007 1.82825601
v -1.91886103 -0.0417240001 1.82831097
v -1.92017496 -0.0101469997 1.83347702
v -1.91839898 -0.0101079997 1.83344603
v -1.91886103 -0.0417240001 1.82831097
v -2.05301094 -0.044617001 1.83191705
v -2.03680992 -0.012662 1.83547199
v -1.92017496 -0.0101469997 1.83347702
v -1.91674304 -0.0431680009 1.82801104
v -1.91879904 -0.0432120003 1.82806695
v -1.91886103 -0.0417240001 1.82831097
v -1.91681802 -0.0416800007 1.82825601
v -1.91879904 -0.0432120003 1.82806695
v -2.05377507 -0.0461230017 1.83175004
v -2.05301094 -0.044617001 1.83191705
v -1.91886103 -0.0417240001 1.82831097
v -1.91681802 -0.0416800007 1.83850896
v -1.91886103 -0.0417240001 1.83850896
v -1.91879904 -0.0432120003 1.83850896
v -1.91674304 -0.0431680009 1.83850896
v -1.91839898 -0.0101079997 1.83850896
v -2.01860595 -0.0439530015 1.83850896
v -2.03004909 -0.044199001 1.83850896
v -2.01331997 -0.0137010003 1.83850896
v -2.00165606 -0.0134500004 1.83850896
v -2.04149103 -0.044445999 1.83850896
v -2.02498507 -0.0139530003 1.83850896
v -2.05293298 -0.0446930006 1.83850896
v -2.03664899 -0.0142040001 1.83850896
v -2.03664899 -0.0142040001 1.83957803
v -2.02498507 -0.0139530003 1.83957803
v -2.02498507 -0.0139530003 1.83850896
v -2.03664899 -0.0142040001 1.83850896
v -2.01331997 -0.0137010003 1.83957803
v -2.01331997 -0.0137010003 1.83850896
v -2.00165606 -0.0134500004 1.83957803
v -2.00165606 -0.0134500004 1.83850896
v -2.03004909 -0.044199001 1.83850896
v -2.01860595 -0.0439530015 1.83850896
v -2.01860595 -0.0439530015 1.83957803
v -2.03004909 -0.044199001 1.83957803
v -2.04149103 -0.044445999 1.83957803
v -2.04149103 -0.044445999 1.83850896
v -2.05293298 -0.0446930006 1.83957803
v -2.05293298 -0.0446930006 1.83850896
v -2.05293298 -0.0446930006 1.83957803
v -2.04149103 -0.044445999 1.83957803
v -2.04065299 -0.0435280018 1.83957803
v -2.05141211 -0.0437600017 1.83957803
v -2.03004909 -0.044199001 1.83957803
v -2.02989411 -0.0432960019 1.83957803
v -2.01860595 -0.0439530015 1.83957803
v -2.019135 -0.0430639982 1.83957803
v -2.00165606 -0.0134500004 1.83957803
v -2.01331997 -0.0137010003 1.83957803
v -2.01416492 -0.0146190003 1.83957803
v -2.00319695 -0.0143830003 1.83957803
v -2.02498507 -0.0139530003 1.83957803
v -2.02513194 -0.0148560004 1.83957803
v -2.03664899 -0.0142040001 1.83957803
v -2.03609991 -0.0150920004 1.83957803
v -2.00319695 -0.0143830003 1.83957803
v -2.01416492 -0.0146190003 1.83957803
v -2.01416492 -0.0146190003 1.840662
v -2.00319695 -0.0143830003 1.840662
v -2.02513194 -0.0148560004 1.83957803
v -2.02513194 -0.0148560004 1.840662
v -2.03609991 -0.0150920004 1.83957803
v -2.03609991 -0.0150920004 1.840662
v -2.05141211 -0.0437600017 1.83957803
v -2.04065299 -0.0435280018 1.83957803
v -2.04065299 -0.0435280018 1.840662
v -2.05141211 -0.0437600017 1.840662
v -2.02989411 -0.0432960019 1.83957803
v -2.02989411 -0.0432960019 1.840662
v -2.019135 -0.0430639982 1.83957803
v -2.019135 -0.0430639982 1.840662
v -2.05293298 -0.0446930006 -1.83850896
v -2.03664899 -0.0142040001 -1.83850896
v -2.03664899 -0.0142040001 -1.83957803
v -2.05293298 -0.0446930006 -1.83957803
v -2.01860595 -0.0439530015 -1.83957803
v -2.00165606 -0.0134500004 -1.83957803
v -2.00165606 -0.0134500004 -1.83850896
v -2.01860595 -0.0439530015 -1.83850896
v -2.01860595 -0.0439530015 -1.83957803
v -2.019135 -0.0430639982 -1.83957803
v -2.00319695 -0.0143830003 -1.83957803
v -2.00165606 -0.0134500004 -1.83957803
v -2.03664899 -0.0142040001 -1.83957803
v -2.03609991 -0.0150920004 -1.83957803
v -2.05141211 -0.0437600017 -1.83957803
v -2.05293298 -0.0446930006 -1.83957803
v -2.03609991 -0.0150920004 -1.83957803
v -2.03609991 -0.0150920004 -1.840662
v -2.05141211 -0.0437600017 -1.840662
v -2.05141211 -0.0437600017 -1.83957803
v -2.019135 -0.0430639982 -1.83957803
v -2.019135 -0.0430639982 -1.840662
v -2.00319695 -0.0143830003 -1.840662
v -2.00319695 -0.0143830003 -1.83957803
v -1.91839898 -0.0101079997 -1.83344603
v -1.91839898 -0.0101079997 -1.83850896
v -1.91847706 -0.00855099969 -1.83850896
v -1.91847706 -0.00855099969 -1.83370197
v -2.03840899 -0.0111370003 -1.83568704
v -2.03840899 -0.0111370003 -1.83850896
v -2.03922606 -0.0127140004 -1.83850896
v -2.03922606 -0.0127140004 -1.835513
v -1.91674304 -0.0431680009 -1.82801104
v -1.91674304 -0.0431680009 -1.83850896
v -1.91681802 -0.0416800007 -1.83850896
v -1.91681802 -0.0416800007 -1.82825601
v -1.91839898 -0.0101079997 -1.83850896
v -1.91839898 -0.0101079997 -1.83344603
v -2.0557909 -0.0446770005 -1.83850896
v -2.0557909 -0.0446770005 -1.83199203
v -2.0557909 -0.0446770005 -1.83199203
v -2.0557909 -0.0446770005 -1.83850896
v -2.05657101 -0.0461830013 -1.83850896
v -2.05657101 -0.0461830013 -1.83182597
v -2.05657101 -0.0461830013 -1.83182597
v -2.05657101 -0.0461830013 -1.83850896
v -2.05377507 -0.0461230017 -1.83850896
v -2.05377507 -0.0461230017 -1.83175004
v -2.03601003 -0.0110849999 -1.83564699
v -2.03601003 -0.0110849999 -1.83850896
v -2.03840899 -0.0111370003 -1.83850896
v -2.03840899 -0.0111370003 -1.83568704
v -2.03680992 -0.012662 -1.83547199
v -2.03601003 -0.0110849999 -1.83564699
v -2.03840899 -0.0111370003 -1.83568704
v -2.03922606 -0.0127140004 -1.835513
v -2.03601003 -0.0110849999 -1.83850896
v -2.03680992 -0.012662 -1.83850896
v -2.03922606 -0.0127140004 -1.83850896
v -2.03840899 -0.0111370003 -1.83850896
v -2.05301094 -0.044617001 -1.83191705
v -2.03680992 -0.012662 -1.83547199
v -2.03922606 -0.0127140004 -1.835513
v -2.0557909 -0.0446770005 -1.83199203
v -2.05377507 -0.0461230017 -1.83175004
v -2.05301094 -0.044617001 -1.83191705
v -2.0557909 -0.0446770005 -1.83199203
v -2.05657101 -0.0461830013 -1.83182597
v -2.05301094 -0.044617001 -1.83850896
v -2.05377507 -0.0461230017 -1.83850896
v -2.05657101 -0.0461830013 -1.83850896
v -2.0557909 -0.0446770005 -1.83850896
v -1.91879904 -0.0432120003 -1.83850896
v -1.91879904 -0.0432120003 -1.82806695
v -1.91674304 -0.0431680009 -1.83850896
v -1.91674304 -0.0431680009 -1.82801104
v -1.91847706 -0.00855099969 -1.83370197
v -1.91847706 -0.00855099969 -1.83850896
v -1.92024004 -0.00858900044 -1.83850896
v -1.92024004 -0.00858900044 -1.83373201
v -1.91839898 -0.0101079997 -1.83344603
v -1.91847706 -0.00855099969 -1.83370197
v -1.92024004 -0.00858900044 -1.83373201
v -1.92017496 -0.0101469997 -1.83347702
v -1.92017496 -0.0101469997 -1.83347702
v -1.92024004 -0.00858900044 -1.83373201
v -2.03601003 -0.0110849999 -1.83564699
v -2.03680992 -0.012662 -1.83547199
v -1.91847706 -0.00855099969 -1.83850896
v -1.91839898 -0.0101079997 -1.83850896
v -1.92017496 -0.0101469997 -1.83850896
v -1.92024004 -0.00858900044 -1.83850896
v -1.92024004 -0.00858900044 -1.83850896
v -1.92017496 -0.0101469997 -1.83850896
v -1.91681802 -0.0416800007 -1.82825601
v -1.91839898 -0.0101079997 -1.83344603
v -1.92017496 -0.0101469997 -1.83347702
v -1.91886103 -0.0417240001 -1.82831097
v -1.91886103 -0.0417240001 -1.82831097
v -1.92017496 -0.0101469997 -1.83347702
v -2.03680992 -0.012662 -1.83547199
v -2.05301094 -0.044617001 -1.83191705
v -1.91674304 -0.0431680009 -1.82801104
v -1.91681802 -0.0416800007 -1.82825601
v -1.91886103 -0.0417240001 -1.82831097
v -1.91879904 -0.0432120003 -1.82806695
v -1.91879904 -0.0432120003 -1.82806695
v -1.91886103 -0.0417240001 -1.82831097
v -2.05301094 -0.044617001 -1.83191705
v -2.05377507 -0.0461230017 -1.83175004
v -1.91681802 -0.0416800007 -1.83850896
v -1.91674304 -0.0431680009 -1.83850896
v -1.91879904 -0.0432120003 -1.83850896
v -1.91886103 -0.0417240001 -1.83850896
v -1.91839898 -0.0101079997 -1.83850896
v -2.01860595 -0.0439530015 -1.83850896
v -2.00165606 -0.0134500004 -1.83850896
v -2.01331997 -0.0137010003 -1.83850896
v -2.03004909 -0.044199001 -1.83850896
v -2.02498507 -0.0139530003 -1.83850896
v -2.04149103 -0.044445999 -1.83850896
v -2.03664899 -0.0142040001 -1.83850896
v -2.05293298 -0.0446930006 -1.83850896
v -2.03664899 -0.0142040001 -1.83957803
v -2.03664899 -0.0142040001 -1.83850896
v -2.02498507 -0.0139530003 -1.83850896
v -2.02498507 -0.0139530003 -1.83957803
v -2.01331997 -0.0137010003 -1.83850896
v -2.01331997 -0.0137010003 -1.83957803
v -2.00165606 -0.0134500004 -1.83850896
v -2.00165606 -0.0134500004 -1.83957803
v -2.03004909 -0.044199001 -1.83850896
v -2.03004909 -0.044199001 -1.83957803
v -2.01860595 -0.0439530015 -1.83957803
v -2.01860595 -0.0439530015 -1.83850896
v -2.04149103 -0.044445999 -1.83850896
v -2.04149103 -0.044445999 -1.83957803
v -2.05293298 -0.0446930006 -1.83850896
v -2.05293298 -0.0446930006 -1.83957803
v -2.05293298 -0.0446930006 -1.83957803
v -2.05141211 -0.0437600017 -1.83957803
v -2.04065299 -0.0435280018 -1.83957803
v -2.04149103 -0.044445999 -1.83957803
v -2.02989411 -0.0432960019 -1.83957803
v -2.03004909 -0.044199001 -1.83957803
v -2.019135 -0.0430639982 -1.83957803
v -2.01860595 -0.0439530015 -1.83957803
v -2.00165606 -0.0134500004 -1.83957803
v -2.00319695 -0.0143830003 -1.83957803
v -2.01416492 -0.0146190003 -1.83957803
v -2.01331997 -0.0137010003 -1.83957803
v -2.02513194 -0.0148560004 -1.83957803
v -2.02498507 -0.0139530003 -1.83957803
v -2.03609991 -0.0150920004 -1.83957803
v -2.03664899 -0.0142040001 -1.83957803
v -2.00319695 -0.0143830003 -1.83957803
v -2.00319695 -0.0143830003 -1.840662
v -2.01416492 -0.0146190003 -1.840662
v -2.01416492 -0.0146190003 -1.83957803
v -2.02513194 -0.0148560004 -1.840662
v -2.02513194 -0.0148560004 -1.83957803
v -2.03609991 -0.0150920004 -1.840662
v -2.03609991 -0.0150920004 -1.83957803
v -2.05141211 -0.0437600017 -1.83957803
v -2.05141211 -0.0437600017 -1.840662
v -2.04065299 -0.0435280018 -1.840662
v -2.04065299 -0.0435280018 -1.83957803
v -2.02989411 -0.0432960019 -1.840662
v -2.02989411 -0.0432960019 -1.83957803
v -2.019135 -0.0430639982 -1.840662
v -2.019135 -0.0430639982 -1.83957803
vt 0 0
vt 0 1
vt 1 1
vt 1 0
vt 1 1
vt 1 0
vt 0 0
vt 0 1
vt 0 0
vt 0 1
vt 1 1
vt 1 0
vt 0 0
vt 0 1
vt 1 1
vt 1 0
vt 0 0
vt 0 1
vt 1 1
vt 1 0
vt 0 0
vt 0 1
vt 1 1
vt 1 0
vt 0.5 0
vt 1 0
vt 1 1
vt 0.5 1
vt 0 0
vt 0.5 -0
vt 0.5 1
vt 0 1
vt 0 0
vt 0.25 0
vt 0.25 1
vt 0 1
vt 0.5 0
vt 0.5 1
vt 0.75 0
vt 0.75 1
vt 0.75 0
vt 1 0
vt 1 1
vt 0.75 1
vt 0 0
vt 0.5 -0
vt 0.5 1
vt 0 1
vt 0.5 -0
vt 1 0
vt 1 1
vt 0.5 1
vt 0.0199999996 0.5
vt 0 0.5
vt 0 0
vt 0.5 -0
vt 1 0.5
vt 1 1
vt 0.5 1
vt 0.5 0.980000019
vt 0.5 0.75
vt 0 0.75
vt 0 0.5
vt 0.0199999996 0.5
vt 0.5 1
vt 0 1
vt 0 0.75
vt 0.5 0.75
vt 0.25 0.980000019
vt 0.25 1
vt 0 1
vt 0 0.5
vt 0.75 -0
vt 0.75 1
vt 1 0
vt 1 1
vt 0 0
vt 0.25 -0
vt 0.25 1
vt 0 1
vt 1 0.5
vt 0.985300004 0.5
vt 0.75 0
vt 1 0
vt 0.985300004 0.5
vt 0.0199999996 0.5
vt 0.5 -0
vt 0.75 0
vt 1 0
vt 1 0.25
vt 0.5 0.49000001
vt 0.5 0
vt 1 0.25
vt 0.5 0.49000001
vt 1 0.75
vt 0.75 0.75
vt 0.985300004 0.5
vt 1 0.5
vt 0.75 0.75
vt 0.5 0.75
vt 0.0199999996 0.5
vt 0.985300004 0.5
vt 1 1
vt 0.75 1
vt 0.75 0.75
vt 1 0.75
vt 0.75 1
vt 0.5 1
vt 0.5 0.75
vt 0.75 0.75
vt 0.25 -0
vt 0.25 0.49000001
vt 0 0.25
vt 0 0
vt 0.5 0
vt 0 0
vt -0 0.333299994
vt 1 0.333299994
vt 1 0
vt 0 0.666700006
vt 1 0.666700006
vt 0 1
vt 1 1
vt 0 1
vt 0.333299994 1
vt 0.333299994 0
vt 0 0
vt 0.666700006 1
vt 0.666700006 0
vt 1 1
vt 1 0
vt 0.333299994 0
vt 0 0
vt 0 1
vt 0.333299994 1
vt 0.666700006 1
vt 0.666700006 0
vt 1 1
vt 1 0
vt 0 0
vt 0 0.333299994
vt 1 0.333299994
vt 1 0
vt -0 0.666700006
vt 1 0.666700006
vt 0 1
vt 1 1
vt 0 0
vt 0 0.333299994
vt 1 0.333299994
vt 1 0
vt -0 0.666700006
vt 1 0.666700006
vt 0 1
vt 1 1
vt 0 0
vt 0 0.333299994
vt 1 0.333299994
vt 1 0
vt 0 0.666700006
vt 1 0.666700006
vt 0 1
vt 1 1
vt 0 0
vt 0 0.333299994
vt 1 0.333299994
vt 1 0
vt 0 0.666700006
vt 1 0.666700006
vt 0 1
vt 1 1
vt 0 0
vt 1 0
vt 1 1
vt 0 1
vt 1 1
vt 0 1
vt 0 0
vt 1 0
vt 0 0
vt 1 0
vt 1 1
vt 0 1
vt 0 0
vt 1 0
vt 1 1
vt 0 1
vt 0 0
vt 1 0
vt 1 1
vt 0 1
vt 0 0
vt 1 0
vt 1 1
vt 0 1
vt 0.5 0
vt 0.5 1
vt 1 1
vt 1 0
vt 0 0
vt 0 1
vt 0.5 1
vt 0.5 -0
vt 0 0
vt 0 1
vt 0.25 1
vt 0.25 0
vt 0.5 1
vt 0.5 0
vt 0.75 1
vt 0.75 0
vt 0.75 0
vt 0.75 1
vt 1 1
vt 1 0
vt 0 0
vt 0 1
vt 0.5 1
vt 0.5 -0
vt 0.5 -0
vt 0.5 1
vt 1 1
vt 1 0
vt 0.0199999996 0.5
vt 0.5 -0
vt 0 0
vt 0 0.5
vt 1 0.5
vt 0.5 0.980000019
vt 0.5 1
vt 1 1
vt 0.5 0.75
vt 0.0199999996 0.5
vt 0 0.5
vt 0 0.75
vt 0.5 1
vt 0.5 0.75
vt 0 0.75
vt 0 1
vt 0.25 0.980000019
vt 0 0.5
vt 0 1
vt 0.25 1
vt 0.75 1
vt 0.75 -0
vt 1 1
vt 1 0
vt 0 0
vt 0 1
vt 0.25 1
vt 0.25 -0
vt 1 0.5
vt 1 0
vt 0.75 0
vt 0.985300004 0.5
vt 0.985300004 0.5
vt 0.75 0
vt 0.5 -0
vt 0.0199999996 0.5
vt 1 0
vt 0.5 0
vt 0.5 0.49000001
vt 1 0.25
vt 1 0.25
vt 0.5 0.49000001
vt 1 0.75
vt 1 0.5
vt 0.985300004 0.5
vt 0.75 0.75
vt 0.75 0.75
vt 0.985300004 0.5
vt 0.0199999996 0.5
vt 0.5 0.75
vt 1 1
vt 1 0.75
vt 0.75 0.75
vt 0.75 1
vt 0.75 1
vt 0.75 0.75
vt 0.5 0.75
vt 0.5 1
vt 0.25 -0
vt 0 0
vt 0 0.25
vt 0.25 0.49000001
vt 0.5 0
vt 0 0
vt 1 0
vt 1 0.333299994
vt -0 0.333299994
vt 1 0.666700006
vt 0 0.666700006
vt 1 1
vt 0 1
vt 0 1
vt 0 0
vt 0.333299994 0
vt 0.333299994 1
vt 0.666700006 0
vt 0.666700006 1
vt 1 0
vt 1 1
vt 0.333299994 0
vt 0.333299994 1
vt 0 1
vt 0 0
vt 0.666700006 0
vt 0.666700006 1
vt 1 0
vt 1 1
vt 0 0
vt 1 0
vt 1 0.333299994
vt 0 0.333299994
vt 1 0.666700006
vt -0 0.666700006
vt 1 1
vt 0 1
vt 0 0
vt 1 0
vt 1 0.333299994
vt 0 0.333299994
vt 1 0.666700006
vt -0 0.666700006
vt 1 1
vt 0 1
vt 0 0
vt 1 0
vt 1 0.333299994
vt 0 0.333299994
vt 1 0.666700006
vt 0 0.666700006
vt 1 1
vt 0 1
vt 0 0
vt 1 0
vt 1 0.333299994
vt 0 0.333299994
vt 1 0.666700006
vt 0 0.666700006
vt 1 1
vt 0 1
vn -0.882099986 0.471100003 0
vn -0.882099986 0.471100003 0
vn -0.882099986 0.471100003 0
vn -0.882099986 0.471100003 0
vn 0.874100029 -0.485700011 0
vn 0.874100029 -0.485700011 0
vn 0.874100029 -0.485700011 0
vn 0.874100029 -0.485700011 0
vn -0 0 1
vn -0 0 1
vn -0 0 1
vn -0 0 1
vn -0 0 1
vn -0 0 1
vn -0 0 1
vn -0 0 1
vn -0.882099986 0.471199989 0
vn -0.882099986 0.471199989 0
vn -0.882099986 0.471199989 0
vn -0.882099986 0.471199989 0
vn 0.874100029 -0.485799998 0
vn 0.874100029 -0.485799998 0
vn 0.874100029 -0.485799998 0
vn 0.874100029 -0.485799998 0
vn 0.99879998 0.0500000007 0
vn 0.99879998 0.0500000007 0
vn 0.99879998 0.0500000007 0
vn 0.99879998 0.0500000007 0
vn -0.887899995 0.460099995 0
vn -0.887899995 0.460099995 0
vn -0.887899995 0.460099995 0
vn -0.887899995 0.460099995 0
vn 0.998700023 0.0500000007 0
vn 0.998700023 0.0500000007 0
vn 0.998700023 0.0500000007 0
vn 0.998700023 0.0500000007 0
vn 0.998700023 0.0500000007 0
vn 0.998700023 0.0500000007 0
vn -0.887899995 0.460099995 0
vn -0.887899995 0.460099995 0
vn -0.887799978 0.460099995 0
vn -0.887799978 0.460099995 0
vn -0.887799978 0.460099995 0
vn -0.887799978 0.460099995 0
vn 0.0216000006 -0.999800026 0
vn 0.0216000006 -0.999800026 0
vn 0.0216000006 -0.999800026 0
vn 0.0216000006 -0.999800026 0
vn -0.0216000006 0.999800026 0
vn -0.0216000006 0.999800026 0
vn -0.0216000006 0.999800026 0
vn -0.0216000006 0.999800026 0
vn -0.0193000007 0.119800001 -0.992600024
vn -0.0193000007 0.119800001 -0.992600024
vn -0.0193000007 0.119800001 -0.992600024
vn -0.0193000007 0.119800001 -0.992600024
vn -0 0 1
vn -0 0 1
vn -0 0 1
vn -0 0 1
vn -0.0249000005 0.122599997 -0.9921
vn -0.0249000005 0.122599997 -0.9921
vn -0.0249000005 0.122599997 -0.9921
vn -0.0249000005 0.122599997 -0.9921
vn -0.0296 0.124899998 -0.991699994
vn -0.0296 0.124899998 -0.991699994
vn -0.0296 0.124899998 -0.991699994
vn -0.0296 0.124899998 -0.991699994
vn -0 0 1
vn -0 0 1
vn -0 0 1
vn -0 0 1
vn 0.0216000006 -0.999800026 0
vn 0.0216000006 -0.999800026 0
vn 0.0216000006 -0.999800026 0
vn 0.0216000006 -0.999800026 0
vn -0.0216000006 0.999800026 0
vn -0.0216000006 0.999800026 0
vn -0.0216000006 0.999800026 0
vn -0.0216000006 0.999800026 0
vn -0.0200999994 0.160899997 -0.986800015
vn -0.0200999994 0.160899997 -0.986800015
vn -0.0200999994 0.160899997 -0.986800015
vn -0.0200999994 0.160899997 -0.986800015
vn -0.0197000001 0.140499994 -0.989899993
vn -0.0197000001 0.140499994 -0.989899993
vn -0.0197000001 0.140499994 -0.989899993
vn -0.0197000001 0.140499994 -0.989899993
vn -9.99999975e-05 0 1
vn -9.99999975e-05 0 1
vn -9.99999975e-05 0 1
vn -9.99999975e-05 0 1
vn -0 0 1
vn -0 0 1
vn -0.0254999995 0.160600007 -0.986699998
vn -0.0254999995 0.160600007 -0.986699998
vn -0.0254999995 0.160600007 -0.986699998
vn -0.0254999995 0.160600007 -0.986699998
vn -0.0252 0.1417 -0.989600003
vn -0.0252 0.1417 -0.989600003
vn -0.0252 0.1417 -0.989600003
vn -0.0252 0.1417 -0.989600003
vn -0.0302000009 0.160500005 -0.986599982
vn -0.0302000009 0.160500005 -0.986599982
vn -0.0302000009 0.160500005 -0.986599982
vn -0.0302000009 0.160500005 -0.986599982
vn -0.0298999995 0.142800003 -0.989300013
vn -0.0298999995 0.142800003 -0.989300013
vn -0.0298999995 0.142800003 -0.989300013
vn -0.0298999995 0.142800003 -0.989300013
vn -0 0 1
vn -0 0 1
vn -0 0 1
vn -0 0 1
vn -0 0 1
vn -0 0 -1
vn -0 0 -1
vn -0 0 -1
vn -0 0 -1
vn -0 0 -1
vn -0 0 -1
vn -0 0 -1
vn -0 0 -1
vn -0.0216000006 0.999800026 0
vn -0.0216000006 0.999800026 0
vn -0.0216000006 0.999800026 0
vn -0.0216000006 0.999800026 0
vn -0.0216000006 0.999800026 0
vn -0.0216000006 0.999800026 0
vn -0.0216000006 0.999800026 0
vn -0.0216000006 0.999800026 0
vn 0.0216000006 -0.999800026 0
vn 0.0216000006 -0.999800026 0
vn 0.0216000006 -0.999800026 0
vn 0.0216000006 -0.999800026 0
vn 0.0216000006 -0.999800026 0
vn 0.0216000006 -0.999800026 0
vn 0.0216000006 -0.999800026 0
vn 0.0216000006 -0.999800026 0
vn -0 0 1
vn -0 0 1
vn -0 0 1
vn -0 0 1
vn -0 0 1
vn -0 0 1
vn -0 0 1
vn -0 0 1
vn -0 0 1
vn -0 0 1
vn -0 0 1
vn -0 0 1
vn -0 0 1
vn -0 0 1
vn -0 0 1
vn -0 0 1
vn -0.0216000006 0.999800026 0
vn -0.0216000006 0.999800026 0
vn -0.0216000006 0.999800026 0
vn -0.0216000006 0.999800026 0
vn -0.0216000006 0.999800026 0
vn -0.0216000006 0.999800026 0
vn -0.0216000006 0.999800026 0
vn -0.0216000006 0.999800026 0
vn 0.0216000006 -0.999800026 0
vn 0.0216000006 -0.999800026 0
vn 0.0216000006 -0.999800026 0
vn 0.0216000006 -0.999800026 0
vn 0.0216000006 -0.999800026 0
vn 0.0216000006 -0.999800026 0
vn 0.0216000006 -0.999800026 0
vn 0.0216000006 -0.999800026 0
vn -0.882099986 0.471100003 0
vn -0.882099986 0.471100003 0
vn -0.882099986 0.471100003 0
vn -0.882099986 0.471100003 0
vn 0.874100029 -0.485700011 0
vn 0.874100029 -0.485700011 0
vn 0.874100029 -0.485700011 0
vn 0.874100029 -0.485700011 0
vn -0 0 -1
vn -0 0 -1
vn -0 0 -1
vn -0 0 -1
vn -0 0 -1
vn -0 0 -1
vn -0 0 -1
vn -0 0 -1
vn -0.882099986 0.471199989 0
vn -0.882099986 0.471199989 0
vn -0.882099986 0.471199989 0
vn -0.882099986 0.471199989 0
vn 0.874100029 -0.485799998 0
vn 0.874100029 -0.485799998 0
vn 0.874100029 -0.485799998 0
vn 0.874100029 -0.485799998 0
vn 0.99879998 0.0500000007 0
vn 0.99879998 0.0500000007 0
vn 0.99879998 0.0500000007 0
vn 0.99879998 0.0500000007 0
vn -0.887899995 0.460099995 0
vn -0.887899995 0.460099995 0
vn -0.887899995 0.460099995 0
vn -0.887899995 0.460099995 0
vn 0.998700023 0.0500000007 0
vn 0.998700023 0.0500000007 0
vn 0.998700023 0.0500000007 0
vn 0.998700023 0.0500000007 0
vn 0.998700023 0.0500000007 0
vn 0.998700023 0.0500000007 0
vn -0.887899995 0.460099995 0
vn -0.887899995 0.460099995 0
vn -0.887799978 0.460099995 0
vn -0.887799978 0.460099995 0
vn -0.887799978 0.460099995 0
vn -0.887799978 0.460099995 0
vn 0.0216000006 -0.999800026 0
vn 0.0216000006 -0.999800026 0
vn 0.0216000006 -0.999800026 0
vn 0.0216000006 -0.999800026 0
vn -0.0216000006 0.999800026 0
vn -0.0216000006 0.999800026 0
vn -0.0216000006 0.999800026 0
vn -0.0216000006 0.999800026 0
vn -0.0193000007 0.119800001 0.992600024
vn -0.0193000007 0.119800001 0.992600024
vn -0.0193000007 0.119800001 0.992600024
vn -0.0193000007 0.119800001 0.992600024
vn -0 0 -1
vn -0 0 -1
vn -0 0 -1
vn -0 0 -1
vn -0.0249000005 0.122599997 0.9921
vn -0.0249000005 0.122599997 0.9921
vn -0.0249000005 0.122599997 0.9921
vn -0.0249000005 0.122599997 0.9921
vn -0.0296 0.124899998 0.991699994
vn -0.0296 0.124899998 0.991699994
vn -0.0296 0.124899998 0.991699994
vn -0.0296 0.124899998 0.991699994
vn -0 0 -1
vn -0 0 -1
vn -0 0 -1
vn -0 0 -1
vn 0.0216000006 -0.999800026 0
vn 0.0216000006 -0.999800026 0
vn 0.0216000006 -0.999800026 0
vn 0.0216000006 -0.999800026 0
vn -0.0216000006 0.999800026 0
vn -0.0216000006 0.999800026 0
vn -0.0216000006 0.999800026 0
vn -0.0216000006 0.999800026 0
vn -0.0200999994 0.160899997 0.986800015
vn -0.0200999994 0.160899997 0.986800015
vn -0.0200999994 0.160899997 0.986800015
vn -0.0200999994 0.160899997 0.986800015
vn -0.0197000001 0.140499994 0.989899993
vn -0.0197000001 0.140499994 0.989899993
vn -0.0197000001 0.140499994 0.989899993
vn -0.0197000001 0.140499994 0.989899993
vn -9.99999975e-05 0 -1
vn -9.99999975e-05 0 -1
vn -9.99999975e-05 0 -1
vn -9.99999975e-05 0 -1
vn -0 0 -1
vn -0 0 -1
vn -0.0254999995 0.160600007 0.986699998
vn -0.0254999995 0.160600007 0.986699998
vn -0.0254999995 0.160600007 0.986699998
vn -0.0254999995 0.160600007 0.986699998
vn -0.0252 0.1417 0.989600003
vn -0.0252 0.1417 0.989600003
vn -0.0252 0.1417 0.989600003
vn -0.0252 0.1417 0.989600003
vn -0.0302000009 0.160500005 0.986599982
vn -0.0302000009 0.160500005 0.986599982
vn -0.0302000009 0.160500005 0.986599982
vn -0.0302000009 0.160500005 0.986599982
vn -0.0298999995 0.142800003 0.989300013
vn -0.0298999995 0.142800003 0.989300013
vn -0.0298999995 0.142800003 0.989300013
vn -0.0298999995 0.142800003 0.989300013
vn -0 0 -1
vn -0 0 -1
vn -0 0 -1
vn -0 0 -1
vn -0 0 -1
vn -0 0 1
vn -0 0 1
vn -0 0 1
vn -0 0 1
vn -0 0 1
vn -0 0 1
vn -0 0 1
vn -0 0 1
vn -0.0216000006 0.999800026 0
vn -0.0216000006 0.999800026 0
vn -0.0216000006 0.999800026 0
vn -0.0216000006 0.999800026 0
vn -0.0216000006 0.999800026 0
vn -0.0216000006 0.999800026 0
vn -0.0216000006 0.999800026 0
vn -0.0216000006 0.999800026 0
vn 0.0216000006 -0.999800026 0
vn 0.0216000006 -0.999800026 0
vn 0.0216000006 -0.999800026 0
vn 0.0216000006 -0.999800026 0
vn 0.0216000006 -0.999800026 0
vn 0.0216000006 -0.999800026 0
vn 0.0216000006 -0.999800026 0
vn 0.0216000006 -0.999800026 0
vn -0 0 -1
vn -0 0 -1
vn -0 0 -1
vn -0 0 -1
vn -0 0 -1
vn -0 0 -1
vn -0 0 -1
vn -0 0 -1
vn -0 0 -1
vn -0 0 -1
vn -0 0 -1
vn -0 0 -1
vn -0 0 -1
vn -0 0 -1
vn -0 0 -1
vn -0 0 -1
vn -0.0216000006 0.999800026 0
vn -0.0216000006 0.999800026 0
vn -0.0216000006 0.999800026 0
vn -0.0216000006 0.999800026 0
vn -0.0216000006 0.999800026 0
vn -0.0216000006 0.999800026 0
vn -0.0216000006 0.999800026 0
vn -0.0216000006 0.999800026 0
vn 0.0216000006 -0.999800026 0
vn 0.0216000006 -0.999800026 0
vn 0.0216000006 -0.999800026 0
vn 0.0216000006 -0.999800026 0
vn 0.0216000006 -0.999800026 0
vn 0.0216000006 -0.999800026 0
vn 0.0216000006 -0.999800026 0
vn 0.0216000006 -0.999800026 0
f 1/1/1 2/2/2 3/3/3
f 1/1/1 3/3/3 4/4/4
f 5/5/5 6/6/6 7/7/7
f 5/5/5 7/7/7 8/8/8
f 9/9/9 10/10/10 11/11/11
f 9/9/9 11/11/11 12/12/12
f 13/13/13 14/14/14 15/15/15
f 13/13/13 15/15/15 16/16/16
f 17/17/17 18/18/18 19/19/19
f 17/17/17 19/19/19 20/20/20
f 21/21/21 22/22/22 23/23/23
f 21/21/21 23/23/23 24/24/24
f 25/25/25 26/26/26 27/27/27
f 25/25/25 27/27/27 28/28/28
f 29/29/29 30/30/30 31/31/31
f 29/29/29 31/31/31 32/32/32
f 33/33/33 34/34/34 35/35/35
f 33/33/33 35/35/35 36/36/36
f 34/34/34 37/37/37 38/38/38
f 34/34/34 38/38/38 35/35/35
f 30/30/30 39/39/39 40/40/40
f 30/30/30 40/40/40 31/31/31
f 41/41/41 42/42/42 43/43/43
f 41/41/41 43/43/43 44/44/44
f 45/45/45 46/46/46 47/47/47
f 45/45/45 47/47/47 48/48/48
f 49/49/49 50/50/50 51/51/51
f 49/49/49 51/51/51 52/52/52
f 53/53/53 54/54/54 55/55/55
f 53/53/53 55/55/55 56/56/56
f 57/57/57 58/58/58 59/59/59
f 57/57/57 59/59/59 60/60/60
f 61/61/61 62/62/62 63/63/63
f 61/61/61 63/63/63 64/64/64
f 65/65/65 66/66/66 67/67/67
f 65/65/65 67/67/67 68/68/68
f 69/69/69 70/70/70 71/71/71
f 69/69/69 71/71/71 72/72/72
f 60/60/60 59/59/59 70/70/70
f 60/60/60 70/70/70 69/69/69
f 46/46/46 73/73/73 74/74/74
f 46/46/46 74/74/74 47/47/47
f 73/73/73 75/75/75 76/76/76
f 73/73/73 76/76/76 74/74/74
f 77/77/77 78/78/78 79/79/79
f 77/77/77 79/79/79 80/80/80
f 78/78/78 49/49/49 52/52/52
f 78/78/78 52/52/52 79/79/79
f 81/81/81 82/82/82 83/83/83
f 81/81/81 83/83/83 84/84/84
f 85/85/85 86/86/86 87/87/87
f 85/85/85 87/87/87 88/88/88
f 89/89/89 90/90/90 91/91/91
f 89/89/89 91/91/91 92/92/92
f 93/93/93 57/57/57 60/60/60
f 93/93/93 60/60/60 94/94/94
f 95/95/95 96/96/96 97/97/97
f 95/95/95 97/97/97 98/98/98
f 99/99/99 100/100/100 101/101/101
f 99/99/99 101/101/101 102/102/102
f 103/103/103 104/104/104 105/105/105
f 103/103/103 105/105/105 106/106/106
f 107/107/107 108/108/108 109/109/109
f 107/107/107 109/109/109 110/110/110
f 111/111/111 112/112/112 113/113/113
f 111/111/111 113/113/113 114/114/114
f 112/112/112 69/69/69 72/72/72
f 112/112/112 72/72/72 113/113/113
f 115/115/115 94/94/94 112/112/112
f 115/115/115 112/112/112 111/111/111
f 116/116/116 117/117/117 118/118/118
f 116/116/116 118/118/118 119/119/119
f 117/117/117 120/120/120 121/121/121
f 117/117/117 121/121/121 118/118/118
f 120/120/120 122/122/122 123/123/123
f 120/120/120 123/123/123 121/121/121
f 124/124/124 125/125/125 126/126/126
f 124/124/124 126/126/126 127/127/127
f 125/125/125 128/128/128 129/129/129
f 125/125/125 129/129/129 126/126/126
f 128/128/128 130/130/130 131/131/131
f 128/128/128 131/131/131 129/129/129
f 132/132/132 133/133/133 134/134/134
f 132/132/132 134/134/134 135/135/135
f 135/135/135 136/136/136 137/137/137
f 135/135/135 137/137/137 132/132/132
f 136/136/136 138/138/138 139/139/139
f 136/136/136 139/139/139 137/137/137
f 140/140/140 141/141/141 142/142/142
f 140/140/140 142/142/142 143/143/143
f 141/141/141 144/144/144 145/145/145
f 141/141/141 145/145/145 142/142/142
f 144/144/144 146/146/146 147/147/147
f 144/144/144 147/147/147 145/145/145
f 148/148/148 149/149/149 150/150/150
f 148/148/148 150/150/150 151/151/151
f 149/149/149 152/152/152 153/153/153
f 149/149/149 153/153/153 150/150/150
f 152/152/152 154/154/154 155/155/155
f 152/152/152 155/155/155 153/153/153
f 156/156/156 157/157/157 158/158/158
f 156/156/156 158/158/158 159/159/159
f 157/157/157 160/160/160 161/161/161
f 157/157/157 161/161/161 158/158/158
f 160/160/160 162/162/162 163/163/163
f 160/160/160 163/163/163 161/161/161
f 164/164/164 165/165/165 166/166/166
f 164/164/164 166/166/166 167/167/167
f 165/165/165 168/168/168 169/169/169
f 165/165/165 169/169/169 166/166/166
f 168/168/168 170/170/170 171/171/171
f 168/168/168 171/171/171 169/169/169
f 172/172/172 173/173/173 174/174/174
f 172/172/172 174/174/174 175/175/175
f 176/176/176 177/177/177 178/178/178
f 176/176/176 178/178/178 179/179/179
f 180/180/180 181/181/181 182/182/182
f 180/180/180 182/182/182 183/183/183
f 184/184/184 185/185/185 186/186/186
f 184/184/184 186/186/186 187/187/187
f 188/188/188 189/189/189 190/190/190
f 188/188/188 190/190/190 191/191/191
f 192/192/192 193/193/193 194/194/194
f 192/192/192 194/194/194 195/195/195
f 196/196/196 197/197/197 198/198/198
f 196/196/196 198/198/198 199/199/199
f 200/200/200 201/201/201 202/202/202
f 200/200/200 202/202/202 203/203/203
f 204/204/204 205/205/205 206/206/206
f 204/204/204 206/206/206 207/207/207
f 207/207/207 206/206/206 208/208/208
f 207/207/207 208/208/208 209/209/209
f 203/203/203 202/202/202 210/210/210
f 203/203/203 210/210/210 211/211/211
f 212/212/212 213/213/213 214/214/214
f 212/212/212 214/214/214 215/215/215
f 216/216/216 217/217/217 218/218/218
f 216/216/216 218/218/218 219/219/219
f 220/220/220 221/221/221 222/222/222
f 220/220/220 222/222/222 223/223/223
f 224/224/224 225/225/225 226/226/226
f 224/224/224 226/226/226 227/227/227
f 228/228/228 229/229/229 230/230/230
f 228/228/228 230/230/230 231/231/231
f 232/232/232 233/233/233 234/234/234
f 232/232/232 234/234/234 235/235/235
f 236/236/236 237/237/237 238/238/238
f 236/236/236 238/238/238 239/239/239
f 240/240/240 241/241/241 242/242/242
f 240/240/240 242/242/242 243/243/243
f 229/229/229 240/240/240 243/243/243
f 229/229/229 243/243/243 230/230/230
f 219/219/219 218/218/218 244/244/244
f 219/219/219 244/244/244 245/245/245
f 245/245/245 244/244/244 246/246/246
f 245/245/245 246/246/246 247/247/247
f 248/248/248 249/249/249 250/250/250
f 248/248/248 250/250/250 251/251/251
f 251/251/251 250/250/250 221/221/221
f 251/251/251 221/221/221 220/220/220
f 252/252/252 253/253/253 254/254/254
f 252/252/252 254/254/254 255/255/255
f 256/256/256 257/257/257 258/258/258
f 256/256/256 258/258/258 259/259/259
f 260/260/260 261/261/261 262/262/262
f 260/260/260 262/262/262 263/263/263
f 264/264/264 265/265/265 229/229/229
f 264/264/264 229/229/229 228/228/228
f 266/266/266 267/267/267 268/268/268
f 266/266/266 268/268/268 269/269/269
f 270/270/270 271/271/271 272/272/272
f 270/270/270 272/272/272 273/273/273
f 274/274/274 275/275/275 276/276/276
f 274/274/274 276/276/276 277/277/277
f 278/278/278 279/279/279 280/280/280
f 278/278/278 280/280/280 281/281/281
f 282/282/282 283/283/283 284/284/284
f 282/282/282 284/284/284 285/285/285
f 285/285/285 284/284/284 241/241/241
f 285/285/285 241/241/241 240/240/240
f 286/286/286 282/282/282 285/285/285
f 286/286/286 285/285/285 265/265/265
f 287/287/287 288/288/288 289/289/289
f 287/287/287 289/289/289 290/290/290
f 290/290/290 289/289/289 291/291/291
f 290/290/290 291/291/291 292/292/292
f 292/292/292 291/291/291 293/293/293
f 292/292/292 293/293/293 294/294/294
f 295/295/295 296/296/296 297/297/297
f 295/295/295 297/297/297 298/298/298
f 298/298/298 297/297/297 299/299/299
f 298/298/298 299/299/299 300/300/300
f 300/300/300 299/299/299 301/301/301
f 300/300/300 301/301/301 302/302/302
f 303/303/303 304/304/304 305/305/305
f 303/303/303 305/305/305 306/306/306
f 304/304/304 303/303/303 307/307/307
f 304/304/304 307/307/307 308/308/308
f 308/308/308 307/307/307 309/309/309
f 308/308/308 309/309/309 310/310/310
f 311/311/311 312/312/312 313/313/313
f 311/311/311 313/313/313 314/314/314
f 314/314/314 313/313/313 315/315/315
f 314/314/314 315/315/315 316/316/316
f 316/316/316 315/315/315 317/317/317
f 316/316/316 317/317/317 318/318/318
f 319/319/319 320/320/320 321/321/321
f 319/319/319 321/321/321 322/322/322
f 322/322/322 321/321/321 323/323/323
f 322/322/322 323/323/323 324/324/324
f 324/324/324 323/323/323 325/325/325
f 324/324/324 325/325/325 326/326/326
f 327/327/327 328/328/328 329/329/329
f 327/327/327 329/329/329 330/330/330
f 330/330/330 329/329/329 331/331/331
f 330/330/330 331/331/331 332/332/332
f 332/332/332 331/331/331 333/333/333
f 332/332/332 333/333/333 334/334/334
f 335/335/335 336/336/336 337/337/337
f 335/335/335 337/337/337 338/338/338
f 338/338/338 337/337/337 339/339/339
f 338/338/338 339/339/339 340/340/340
f 340/340/340 339/339/339 341/341/341
f 340/340/340 341/341/341 342/342/342
