# Generated by lxe_pbrt_scene_convert
v 4.74806404 0.322474986 0.0506480001
v 4.74814081 0.33445999 0.049242001
v 4.74806404 0.322474986 -0.000201999996
v 4.74824095 0.349978 0.0416559987
v 4.74824095 0.349978 0.0416559987
v 4.74832106 0.362309992 0.0303920005
v 4.74806404 0.322474986 -0.000201999996
v 4.74837399 0.370626986 0.0148290005
v 4.74839306 0.373555005 -0.000201999996
v 4.74804211 0.318982989 -0.0548450015
v 4.74796486 0.306998014 -0.0534400009
v 4.74804211 0.318982989 -0.00399499992
v 4.74796486 0.306998014 -0.0534400009
v 4.7478652 0.291478992 -0.0458539985
v 4.74804211 0.318982989 -0.00399499992
v 4.7478652 0.291478992 -0.0458539985
v 4.74778605 0.279146999 -0.0345899984
v 4.74778605 0.279146999 -0.0345899984
v 4.74773121 0.270830005 -0.0190260001
v 4.74773121 0.270830005 -0.0190260001
v 4.74771309 0.267903 -0.00399499992
v 4.74804211 0.318982989 -0.00399499992
v 4.74771309 0.267903 -0.00399499992
v 4.75176907 0.267877012 -0.00399499992
v 4.75209713 0.318957001 -0.00399499992
v 4.74804211 0.318982989 -0.0548450015
v 4.74804211 0.318982989 -0.00399499992
v 4.75209713 0.318957001 -0.00399499992
v 4.75209713 0.318957001 -0.0548450015
v 4.74771309 0.267903 -0.00399499992
v 4.74773121 0.270830005 -0.0190260001
v 4.75178719 0.270803988 -0.0190260001
v 4.75176907 0.267877012 -0.00399499992
v 4.74773121 0.270830005 -0.0190260001
v 4.74778605 0.279146999 -0.0345899984
v 4.75184107 0.279121011 -0.0345899984
v 4.75178719 0.270803988 -0.0190260001
v 4.74778605 0.279146999 -0.0345899984
v 4.7478652 0.291478992 -0.0458539985
v 4.75192118 0.291453004 -0.0458539985
v 4.75184107 0.279121011 -0.0345899984
v 4.7478652 0.291478992 -0.0458539985
v 4.74796486 0.306998014 -0.0534400009
v 4.75201988 0.306971997 -0.0534400009
v 4.75192118 0.291453004 -0.0458539985
v 4.74796486 0.306998014 -0.0534400009
v 4.74804211 0.318982989 -0.0548450015
v 4.75209713 0.318957001 -0.0548450015
v 4.75201988 0.306971997 -0.0534400009
v 4.74806404 0.322474986 -0.000201999996
v 4.74839306 0.373555005 -0.000201999996
v 4.75244808 0.373528987 -0.000201999996
v 4.75212002 0.322448999 -0.000201999996
v 4.74806404 0.322474986 0.0506480001
v 4.74806404 0.322474986 -0.000201999996
v 4.75212002 0.322448999 -0.000201999996
v 4.75212002 0.322448999 0.0506480001
v 4.74839306 0.373555005 -0.000201999996
v 4.74837399 0.370626986 0.0148290005
v 4.75242996 0.370602012 0.0148290005
v 4.75244808 0.373528987 -0.000201999996
v 4.74837399 0.370626986 0.0148290005
v 4.74832106 0.362309992 0.0303920005
v 4.75237608 0.362284005 0.0303920005
v 4.75242996 0.370602012 0.0148290005
v 4.74832106 0.362309992 0.0303920005
v 4.74824095 0.349978 0.0416559987
v 4.75229597 0.349952012 0.0416559987
v 4.75237608 0.362284005 0.0303920005
v 4.74824095 0.349978 0.0416559987
v 4.74814081 0.33445999 0.049242001
v 4.75219679 0.334434003 0.049242001
v 4.75229597 0.349952012 0.0416559987
v 4.74814081 0.33445999 0.049242001
v 4.74806404 0.322474986 0.0506480001
v 4.75212002 0.322448999 0.0506480001
v 4.75219679 0.334434003 0.049242001
v 4.75212002 0.322448999 -0.000201999996
v 4.75219679 0.334434003 0.049242001
v 4.75212002 0.322448999 0.0506480001
v 4.75212002 0.322448999 -0.000201999996
v 4.75229597 0.349952012 0.0416559987
v 4.75219679 0.334434003 0.049242001
v 4.75237608 0.362284005 0.0303920005
v 4.75242996 0.370602012 0.0148290005
v 4.75244808 0.373528987 -0.000201999996
v 4.75209713 0.318957001 -0.00399499992
v 4.75201988 0.306971997 -0.0534400009
v 4.75209713 0.318957001 -0.0548450015
v 4.75209713 0.318957001 -0.00399499992
v 4.75192118 0.291453004 -0.0458539985
v 4.75201988 0.306971997 -0.0534400009
v 4.75184107 0.279121011 -0.0345899984
v 4.75178719 0.270803988 -0.0190260001
v 4.75176907 0.267877012 -0.00399499992
vn -1 0.00650000013 0
vn -1 0.00650000013 0
vn -1 0.00650000013 0
vn -1 0.00650000013 0
vn -1 0.00639999984 0
vn -1 0.00639999984 0
vn -1 0.00639999984 0
vn -1 0.00639999984 0
vn -1 0.00639999984 0
vn -1 0.00639999984 0
vn -1 0.00639999984 0
vn -1 0.00639999984 0
vn -1 0.00650000013 0
vn -1 0.00650000013 0
vn -1 0.00650000013 0
vn -1 0.00639999984 0
vn -1 0.00639999984 0
vn -1 0.00650000013 0
vn -1 0.00650000013 0
vn -1 0.00639999984 0
vn -1 0.00639999984 0
vn 0 0 1
vn 0 0 1
vn 0 0 1
vn 0 0 1
vn 0.00630000001 1 0
vn 0.00630000001 1 0
vn 0.00630000001 1 0
vn 0.00630000001 1 0
vn -0.00630000001 -0.98150003 -0.191100001
vn -0.00630000001 -0.98150003 -0.191100001
vn -0.00630000001 -0.98150003 -0.191100001
vn -0.00630000001 -0.98150003 -0.191100001
vn -0.0057000001 -0.881900012 -0.471300006
vn -0.0057000001 -0.881900012 -0.471300006
vn -0.0057000001 -0.881900012 -0.471300006
vn -0.0057000001 -0.881900012 -0.471300006
vn -0.00430000015 -0.674399972 -0.738300025
vn -0.00430000015 -0.674399972 -0.738300025
vn -0.00430000015 -0.674399972 -0.738300025
vn -0.00430000015 -0.674399972 -0.738300025
vn -0.0027999999 -0.439099997 -0.898400009
vn -0.0027999999 -0.439099997 -0.898400009
vn -0.0027999999 -0.439099997 -0.898400009
vn -0.0027999999 -0.439099997 -0.898400009
vn -0.000699999975 -0.116499998 -0.993200004
vn -0.000699999975 -0.116499998 -0.993200004
vn -0.000699999975 -0.116499998 -0.993200004
vn -0.000699999975 -0.116499998 -0.993200004
vn 0 -0 -1
vn 0 -0 -1
vn 0 -0 -1
vn 0 -0 -1
vn -0.00650000013 -1 0
vn -0.00650000013 -1 0
vn -0.00650000013 -1 0
vn -0.00650000013 -1 0
vn 0.00620000018 0.98150003 0.191200003
vn 0.00620000018 0.98150003 0.191200003
vn 0.00620000018 0.98150003 0.191200003
vn 0.00620000018 0.98150003 0.191200003
vn 0.0057000001 0.881900012 0.471399993
vn 0.0057000001 0.881900012 0.471399993
vn 0.0057000001 0.881900012 0.471399993
vn 0.0057000001 0.881900012 0.471399993
vn 0.00430000015 0.674399972 0.738399982
vn 0.00430000015 0.674399972 0.738399982
vn 0.00430000015 0.674399972 0.738399982
vn 0.00430000015 0.674399972 0.738399982
vn 0.0027999999 0.439200014 0.898400009
vn 0.0027999999 0.439200014 0.898400009
vn 0.0027999999 0.439200014 0.898400009
vn 0.0027999999 0.439200014 0.898400009
vn 0.00079999998 0.116499998 0.993200004
vn 0.00079999998 0.116499998 0.993200004
vn 0.00079999998 0.116499998 0.993200004
vn 0.00079999998 0.116499998 0.993200004
vn 1 -0.00650000013 0
vn 1 -0.00650000013 0
vn 1 -0.00650000013 0
vn 1 -0.00639999984 -0
vn 1 -0.00639999984 -0
vn 1 -0.00639999984 -0
vn 1 -0.00639999984 -0
vn 1 -0.00639999984 -0
vn 1 -0.00639999984 -0
vn 1 -0.00650000013 0
vn 1 -0.00650000013 0
vn 1 -0.00650000013 0
vn 1 -0.00639999984 -0
vn 1 -0.00639999984 -0
vn 1 -0.00639999984 -0
vn 1 -0.00639999984 -0
vn 1 -0.00639999984 -0
vn 1 -0.00639999984 -0
f 1//1 2//2 3//3
f 2//2 4//4 3//3
f 5//5 6//6 7//7
f 6//6 8//8 7//7
f 8//8 9//9 7//7
f 10//10 11//11 12//12
f 13//13 14//14 15//15
f 16//16 17//17 12//12
f 18//18 19//19 15//15
f 20//20 21//21 12//12
f 22//22 23//23 24//24
f 22//22 24//24 25//25
f 26//26 27//27 28//28
f 26//26 28//28 29//29
f 30//30 31//31 32//32
f 30//30 32//32 33//33
f 34//34 35//35 36//36
f 34//34 36//36 37//37
f 38//38 39//39 40//40
f 38//38 40//40 41//41
f 42//42 43//43 44//44
f 42//42 44//44 45//45
f 46//46 47//47 48//48
f 46//46 48//48 49//49
f 50//50 51//51 52//52
f 50//50 52//52 53//53
f 54//54 55//55 56//56
f 54//54 56//56 57//57
f 58//58 59//59 60//60
f 58//58 60//60 61//61
f 62//62 63//63 64//64
f 62//62 64//64 65//65
f 66//66 67//67 68//68
f 66//66 68//68 69//69
f 70//70 71//71 72//72
f 70//70 72//72 73//73
f 74//74 75//75 76//76
f 74//74 76//76 77//77
f 78//78 79//79 80//80
f 81//81 82//82 83//83
f 81//81 84//84 82//82
f 81//81 85//85 84//84
f 81//81 86//86 85//85
f 87//87 88//88 89//89
f 90//90 91//91 92//92
f 90//90 93//93 91//91
f 90//90 94//94 93//93
f 90//90 95//95 94//94
