# Generated by lxe_pbrt_scene_convert
v -4.12578106 -0.119723998 1.51498699
v -4.12493706 -0.12235 1.51323199
v -4.12493706 -0.127988994 1.520841
v -4.12578106 -0.125547007 1.52284503
v -4.12493706 -0.134343997 1.52786195
v -4.12578106 -0.132110998 1.53009498
v -4.12409306 -0.124976002 1.51147699
v -4.12409306 -0.130430996 1.51883698
v -4.12409306 -0.136577994 1.52562797
v -4.12662506 -0.123106003 1.52484906
v -4.12662506 -0.117098004 1.51674104
v -4.12746906 -0.120664001 1.52685201
v -4.12746906 -0.114471003 1.51849604
v -4.12662506 -0.129877001 1.53232896
v -4.12746906 -0.127644002 1.53456199
v -4.12662506 -0.111906998 1.50808799
v -4.12578106 -0.114692003 1.50659895
v -4.12662506 -0.107587002 1.49896896
v -4.12578106 -0.110505 1.49776101
v -4.12746906 -0.109121002 1.50957704
v -4.12746906 -0.104668997 1.50017798
v -4.12493706 -0.117477998 1.50511003
v -4.12409306 -0.120263003 1.50362098
v -4.12493706 -0.113424003 1.49655199
v -4.12409306 -0.116342001 1.49534297
v -4.12578106 -0.104842998 1.47906101
v -4.12662506 -0.101745002 1.47967803
v -4.12662506 -0.100261003 1.46969604
v -4.12578106 -0.103404 1.46938705
v -4.12662506 -0.0997600034 1.45961905
v -4.12578106 -0.102918997 1.45961905
v -4.12746906 -0.0986479968 1.48029399
v -4.12746906 -0.0971179977 1.47000599
v -4.12746906 -0.0966010019 1.45961905
v -4.12493706 -0.106547996 1.46907699
v -4.12493706 -0.107941002 1.47844505
v -4.12409306 -0.109691001 1.46876705
v -4.12409306 -0.111038998 1.47782898
v -4.12493706 -0.106077 1.45961905
v -4.12409306 -0.109236002 1.45961905
v -4.12493706 -0.110238999 1.48763299
v -4.12578106 -0.107216001 1.48854995
v -4.12409306 -0.113260999 1.48671699
v -4.12662506 -0.104194 1.48946702
v -4.12746906 -0.101171002 1.49038398
v -4.12578106 -0.104842998 1.44017601
v -4.12662506 -0.101745002 1.43956006
v -4.12662506 -0.104194 1.42977095
v -4.12578106 -0.107216001 1.43068695
v -4.12662506 -0.107587002 1.42026901
v -4.12578106 -0.110505 1.42147696
v -4.12746906 -0.0986479968 1.43894398
v -4.12746906 -0.101171002 1.42885399
v -4.12746906 -0.104668997 1.41905999
v -4.12493706 -0.110238999 1.43160403
v -4.12493706 -0.107941002 1.44079304
v -4.12409306 -0.113260999 1.43252099
v -4.12409306 -0.111038998 1.44140899
v -4.12493706 -0.113424003 1.42268598
v -4.12409306 -0.116342001 1.423895
v -4.12493706 -0.106547996 1.45016098
v -4.12578106 -0.103404 1.44985104
v -4.12409306 -0.109691001 1.45046997
v -4.12662506 -0.100261003 1.44954205
v -4.12746906 -0.0971179977 1.44923198
v -4.12578106 -0.119723998 1.40425098
v -4.12662506 -0.117098004 1.40249705
v -4.12662506 -0.123106003 1.39438903
v -4.12578106 -0.125547007 1.39639294
v -4.12662506 -0.129877001 1.38690901
v -4.12578106 -0.132110998 1.38914299
v -4.12746906 -0.114471003 1.40074205
v -4.12746906 -0.120664001 1.39238501
v -4.12746906 -0.127644002 1.38467598
v -4.12493706 -0.127988994 1.39839697
v -4.12493706 -0.12235 1.40600598
v -4.12409306 -0.130430996 1.40040004
v -4.12409306 -0.124976002 1.40776098
v -4.12493706 -0.134343997 1.39137602
v -4.12409306 -0.136577994 1.39361
v -4.12493706 -0.117477998 1.41412795
v -4.12578106 -0.114692003 1.41263902
v -4.12409306 -0.120263003 1.41561699
v -4.12662506 -0.111906998 1.41114998
v -4.12746906 -0.109121002 1.40966105
v -4.12578106 -0.147220001 1.376755
v -4.12662506 -0.145465001 1.37412906
v -4.12662506 -0.154118001 1.36893797
v -4.12578106 -0.155607 1.37172401
v -4.12662506 -0.163237005 1.36461902
v -4.12578106 -0.164445996 1.36753702
v -4.12746906 -0.143710002 1.371503
v -4.12746906 -0.152629003 1.366153
v -4.12746906 -0.162028 1.36170101
v -4.12493706 -0.157095999 1.37451005
v -4.12493706 -0.148974001 1.37938201
v -4.12409306 -0.158584997 1.37729502
v -4.12409306 -0.150729001 1.38200796
v -4.12493706 -0.165654004 1.37045598
v -4.12409306 -0.166862994 1.37337399
v -4.12493706 -0.141365007 1.38502097
v -4.12578106 -0.139360994 1.38257897
v -4.12409306 -0.143369004 1.38746202
v -4.12662506 -0.137356997 1.38013804
v -4.12746906 -0.135353997 1.37769604
v -4.12578106 -0.183145002 1.36187506
v -4.12662506 -0.182528004 1.35877705
v -4.12662506 -0.192509994 1.35729301
v -4.12578106 -0.192818999 1.36043596
v -4.12662506 -0.202586994 1.35679197
v -4.12578106 -0.202586994 1.35995102
v -4.12746906 -0.181912005 1.35567999
v -4.12746906 -0.192200005 1.35415006
v -4.12746906 -0.202586994 1.35363305
v -4.12493706 -0.193129003 1.36357903
v -4.12493706 -0.183761001 1.364972
v -4.12409306 -0.193439007 1.36672294
v -4.12409306 -0.184377 1.36807001
v -4.12493706 -0.202586994 1.36310899
v -4.12409306 -0.202586994 1.36626804
v -4.12493706 -0.174573004 1.36726999
v -4.12578106 -0.173656002 1.36424804
v -4.12409306 -0.175490007 1.37029302
v -4.12662506 -0.172738999 1.36122596
v -4.12746906 -0.171821997 1.35820305
v -4.12578106 -0.222029999 1.36187506
v -4.12662506 -0.222645998 1.35877705
v -4.12662506 -0.232435003 1.36122596
v -4.12578106 -0.231518999 1.36424804
v -4.12662506 -0.241936997 1.36461902
v -4.12578106 -0.240729004 1.36753702
v -4.12746906 -0.223261997 1.35567999
v -4.12746906 -0.233352005 1.35820305
v -4.12746906 -0.243146002 1.36170101
v -4.12493706 -0.230601996 1.36726999
v -4.12493706 -0.221413001 1.36497295
v -4.12409306 -0.229684994 1.37029302
v -4.12409306 -0.220797002 1.36807001
v -4.12493706 -0.239519998 1.37045503
v -4.12409306 -0.238310993 1.37337399
v -4.12493706 -0.212044999 1.36357999
v -4.12578106 -0.212355003 1.36043596
v -4.12409306 -0.211735994 1.36672294
v -4.12662506 -0.212663993 1.35729301
v -4.12746906 -0.212973997 1.35415006
v -4.12578106 -0.257955015 1.376755
v -4.12662506 -0.259709001 1.37412906
v -4.12662506 -0.267816991 1.38013804
v -4.12578106 -0.265812993 1.38257897
v -4.12662506 -0.275296986 1.38690901
v -4.12578106 -0.273063004 1.38914299
v -4.12746906 -0.261464 1.371503
v -4.12746906 -0.269820988 1.37769604
v -4.12746906 -0.277530015 1.38467598
v -4.12493706 -0.263808995 1.38502097
v -4.12493706 -0.256199986 1.37938201
v -4.12409306 -0.261806011 1.38746202
v -4.12409306 -0.254444987 1.38200796
v -4.12493706 -0.270830005 1.39137602
v -4.12409306 -0.268595994 1.39361
v -4.12493706 -0.248078004 1.37450898
v -4.12578106 -0.249567002 1.37172401
v -4.12409306 -0.246589005 1.37729502
v -4.12662506 -0.251055986 1.36893797
v -4.12746906 -0.252544999 1.366153
v -4.12578106 -0.285450995 1.40425098
v -4.12662506 -0.288076997 1.40249705
v -4.12662506 -0.293267995 1.41114998
v -4.12578106 -0.290482014 1.41263902
v -4.12662506 -0.297587007 1.42026901
v -4.12578106 -0.294669002 1.42147696
v -4.12746906 -0.290702999 1.40074205
v -4.12746906 -0.296052992 1.40966105
v -4.12746906 -0.300505012 1.41905999
v -4.12493706 -0.287696004 1.41412795
v -4.12493706 -0.28282401 1.40600598
v -4.12409306 -0.284911007 1.41561699
v -4.12409306 -0.280198008 1.40776098
v -4.12493706 -0.291750014 1.42268598
v -4.12409306 -0.288832009 1.423895
v -4.12493706 -0.277184993 1.39839602
v -4.12578106 -0.279626995 1.39639294
v -4.12409306 -0.274744004 1.40040004
v -4.12662506 -0.282068014 1.39438903
v -4.12746906 -0.284509987 1.39238501
v -4.12578106 -0.300330997 1.44017601
v -4.12662506 -0.303429008 1.43956006
v -4.12662506 -0.304913014 1.44954205
v -4.12578106 -0.301770002 1.44985104
v -4.12662506 -0.305413991 1.45961905
v -4.12578106 -0.302255988 1.45961905
v -4.12746906 -0.306526989 1.43894398
v -4.12746906 -0.30805701 1.44923198
v -4.12746906 -0.308573008 1.45961905
v -4.12493706 -0.298626989 1.45016098
v -4.12493706 -0.297232985 1.44079304
v -4.12409306 -0.295482993 1.45046997
v -4.12409306 -0.294135988 1.44140899
v -4.12493706 -0.299097002 1.45961905
v -4.12409306 -0.295937985 1.45961905
v -4.12493706 -0.294934988 1.43160403
v -4.12578106 -0.297957987 1.43068695
v -4.12409306 -0.291913003 1.43252099
v -4.12662506 -0.300980002 1.42976999
v -4.12746906 -0.304003 1.42885399
v -4.12578106 -0.300330997 1.47906101
v -4.12662506 -0.303429008 1.47967696
v -4.12662506 -0.300980002 1.48946702
v -4.12578106 -0.297957987 1.48854995
v -4.12662506 -0.297587007 1.49896896
v -4.12578106 -0.294669002 1.49776006
v -4.12746906 -0.306526989 1.48029399
v -4.12746906 -0.304003 1.49038398
v -4.12746906 -0.300505012 1.50017798
v -4.12493706 -0.294934988 1.48763299
v -4.12493706 -0.297232985 1.47844505
v -4.12409306 -0.291913003 1.48671699
v -4.12409306 -0.294135988 1.47782898
v -4.12493706 -0.291750014 1.49655199
v -4.12409306 -0.288832009 1.49534297
v -4.12493706 -0.298626989 1.46907699
v -4.12578106 -0.301770002 1.46938705
v -4.12409306 -0.295482993 1.46876705
v -4.12662506 -0.304913014 1.46969604
v -4.12746906 -0.30805701 1.47000599
v -4.12578106 -0.285450011 1.51498699
v -4.12662506 -0.288076997 1.51674104
v -4.12662506 -0.282068014 1.52484906
v -4.12578106 -0.279626995 1.52284503
v -4.12662506 -0.275296986 1.53232896
v -4.12578106 -0.273063004 1.53009498
v -4.12746906 -0.290702999 1.51849604
v -4.12746906 -0.284509987 1.52685201
v -4.12746906 -0.277530015 1.53456199
v -4.12493706 -0.277184993 1.520841
v -4.12493706 -0.28282401 1.51323199
v -4.12409306 -0.274744004 1.51883698
v -4.12409306 -0.280198008 1.51147699
v -4.12493706 -0.270830005 1.52786195
v -4.12409306 -0.268595994 1.52562797
v -4.12493706 -0.287696004 1.50511003
v -4.12578106 -0.290482014 1.50659895
v -4.12409306 -0.284911007 1.50362098
v -4.12662506 -0.293267995 1.50808799
v -4.12746906 -0.296052992 1.50957596
v -4.12578106 -0.257955015 1.54248202
v -4.12662506 -0.259709001 1.54510796
v -4.12662506 -0.251055986 1.55029905
v -4.12578106 -0.249567002 1.54751396
v -4.12662506 -0.241936997 1.55461895
v -4.12578106 -0.240729004 1.5517
v -4.12746906 -0.261464 1.54773402
v -4.12746906 -0.252544999 1.55308497
v -4.12746906 -0.243146002 1.55753696
v -4.12493706 -0.248078004 1.54472804
v -4.12493706 -0.256199986 1.53985596
v -4.12409306 -0.246589005 1.54194295
v -4.12409306 -0.254444987 1.53723001
v -4.12493706 -0.239519998 1.54878199
v -4.12409306 -0.238310993 1.54586399
v -4.12493706 -0.263808995 1.534217
v -4.12578106 -0.265812993 1.536659
v -4.12409306 -0.261806011 1.531775
v -4.12662506 -0.267816991 1.53910005
v -4.12746906 -0.269820988 1.54154205
v -4.12578106 -0.222029999 1.55736303
v -4.12493706 -0.221413001 1.55426502
v -4.12493706 -0.230601996 1.55196702
v -4.12578106 -0.231518999 1.55499005
v -4.12409306 -0.220797002 1.55116701
v -4.12409306 -0.229684994 1.54894495
v -4.12662506 -0.232435003 1.55801201
v -4.12662506 -0.222645998 1.56046104
v -4.12746906 -0.233352005 1.56103504
v -4.12746906 -0.223261997 1.56355798
v -4.12662506 -0.212663993 1.56194496
v -4.12578106 -0.212355003 1.55880201
v -4.12662506 -0.202586994 1.562446
v -4.12578106 -0.202586994 1.55928695
v -4.12746906 -0.212973997 1.56508803
v -4.12746906 -0.202586994 1.56560504
v -4.12493706 -0.212044999 1.55565798
v -4.12409306 -0.211735994 1.55251503
v -4.12493706 -0.202586994 1.55612898
v -4.12409306 -0.202586994 1.55297005
v -4.12578106 -0.183145002 1.55736303
v -4.12662506 -0.182528004 1.56046104
v -4.12662506 -0.172738999 1.55801201
v -4.12578106 -0.173656002 1.55499005
v -4.12662506 -0.163237005 1.55461895
v -4.12578106 -0.164445996 1.55170095
v -4.12746906 -0.181912005 1.56355798
v -4.12746906 -0.171821997 1.56103504
v -4.12746906 -0.162028 1.55753696
v -4.12493706 -0.174573004 1.55196702
v -4.12493706 -0.183761001 1.55426502
v -4.12409306 -0.175490007 1.54894495
v -4.12409306 -0.184377 1.55116701
v -4.12493706 -0.165654004 1.54878199
v -4.12409306 -0.166862994 1.54586399
v -4.12493706 -0.193129003 1.55565798
v -4.12578106 -0.192818999 1.55880201
v -4.12409306 -0.193439007 1.55251503
v -4.12662506 -0.192509994 1.56194496
v -4.12746906 -0.192200005 1.56508803
v -4.12578106 -0.147220001 1.54248202
v -4.12662506 -0.145465001 1.54510796
v -4.12662506 -0.137356997 1.53910005
v -4.12578106 -0.139360994 1.536659
v -4.12746906 -0.143710002 1.54773402
v -4.12746906 -0.135353997 1.54154205
v -4.12493706 -0.141365007 1.534217
v -4.12493706 -0.148974001 1.53985596
v -4.12409306 -0.143369004 1.531775
v -4.12409306 -0.150729001 1.53723001
v -4.12493706 -0.157095999 1.54472804
v -4.12578106 -0.155607 1.54751396
v -4.12409306 -0.158584997 1.54194295
v -4.12662506 -0.154118001 1.55029905
v -4.12746906 -0.152630001 1.55308497
v -4.12578106 -0.119723998 -1.51498699
v -4.12578106 -0.125547007 -1.52284503
v -4.12493706 -0.127988994 -1.520841
v -4.12493706 -0.12235 -1.51323199
v -4.12409306 -0.130430996 -1.51883698
v -4.12409306 -0.124976002 -1.51147699
v -4.12578106 -0.132110998 -1.53009498
v -4.12493706 -0.134343997 -1.52786195
v -4.12409306 -0.136577994 -1.52562797
v -4.12493706 -0.117477998 -1.50511003
v -4.12578106 -0.114692003 -1.50659895
v -4.12493706 -0.113424003 -1.49655199
v -4.12578106 -0.110505 -1.49776101
v -4.12409306 -0.120263003 -1.50362098
v -4.12409306 -0.116342001 -1.49534297
v -4.12662506 -0.111906998 -1.50808799
v -4.12662506 -0.117098004 -1.51674104
v -4.12746906 -0.109121002 -1.50957704
v -4.12746906 -0.114471003 -1.51849604
v -4.12662506 -0.107587002 -1.49896896
v -4.12746906 -0.104668997 -1.50017798
v -4.12662506 -0.123106003 -1.52484906
v -4.12662506 -0.129877001 -1.53232896
v -4.12746906 -0.120664001 -1.52685201
v -4.12746906 -0.127644002 -1.53456199
v -4.12578106 -0.104842998 -1.47906196
v -4.12578106 -0.103404 -1.46938705
v -4.12662506 -0.100261003 -1.46969604
v -4.12662506 -0.101745002 -1.47967803
v -4.12746906 -0.0971179977 -1.47000599
v -4.12746906 -0.0986479968 -1.48029399
v -4.12578106 -0.102918997 -1.45961905
v -4.12662506 -0.0997600034 -1.45961905
v -4.12746906 -0.0966010019 -1.45961905
v -4.12662506 -0.104194 -1.48946702
v -4.12578106 -0.107216001 -1.48854995
v -4.12746906 -0.101171002 -1.49038398
v -4.12493706 -0.110238999 -1.48763299
v -4.12493706 -0.107941002 -1.47844505
v -4.12409306 -0.113260999 -1.48671699
v -4.12409306 -0.111038998 -1.47782898
v -4.12493706 -0.106547996 -1.46907699
v -4.12493706 -0.106077 -1.45961905
v -4.12409306 -0.109691001 -1.46876705
v -4.12409306 -0.109236002 -1.45961905
v -4.12578106 -0.104842998 -1.44017601
v -4.12578106 -0.107216001 -1.43068695
v -4.12662506 -0.104194 -1.42976999
v -4.12662506 -0.101745002 -1.43956006
v -4.12746906 -0.101171002 -1.42885399
v -4.12746906 -0.0986479968 -1.43894398
v -4.12578106 -0.110505 -1.42147696
v -4.12662506 -0.107587002 -1.42026901
v -4.12746906 -0.104668997 -1.41905999
v -4.12662506 -0.100261003 -1.44954205
v -4.12578106 -0.103404 -1.44985104
v -4.12746906 -0.0971179977 -1.44923198
v -4.12493706 -0.106547996 -1.45016098
v -4.12493706 -0.107941002 -1.44079304
v -4.12409306 -0.109691001 -1.45046997
v -4.12409306 -0.111038998 -1.44140899
v -4.12493706 -0.110238999 -1.43160403
v -4.12493706 -0.113424003 -1.42268598
v -4.12409306 -0.113260999 -1.43252099
v -4.12409306 -0.116342001 -1.423895
v -4.12578106 -0.119723998 -1.40425098
v -4.12578106 -0.125547007 -1.39639294
v -4.12662506 -0.123106003 -1.39438903
v -4.12662506 -0.117098004 -1.40249705
v -4.12746906 -0.120664001 -1.39238501
v -4.12746906 -0.114471003 -1.40074205
v -4.12578106 -0.132110998 -1.38914299
v -4.12662506 -0.129877001 -1.38690901
v -4.12746906 -0.127644002 -1.38467598
v -4.12662506 -0.111906998 -1.41114998
v -4.12578106 -0.114692003 -1.41263902
v -4.12746906 -0.109121002 -1.40966105
v -4.12493706 -0.117477998 -1.41412795
v -4.12493706 -0.12235 -1.40600598
v -4.12409306 -0.120263003 -1.41561699
v -4.12409306 -0.124976002 -1.40776098
v -4.12493706 -0.127988994 -1.39839602
v -4.12493706 -0.134343997 -1.39137602
v -4.12409306 -0.130430996 -1.40040004
v -4.12409306 -0.136577994 -1.39361
v -4.12578106 -0.147220001 -1.376755
v -4.12578106 -0.155607 -1.37172401
v -4.12662506 -0.154118001 -1.36893797
v -4.12662506 -0.145465001 -1.37412906
v -4.12746906 -0.152629003 -1.366153
v -4.12746906 -0.143710002 -1.371503
v -4.12578106 -0.164445996 -1.36753702
v -4.12662506 -0.163237005 -1.36461902
v -4.12746906 -0.162028 -1.36170101
v -4.12662506 -0.137356997 -1.38013804
v -4.12578106 -0.139360994 -1.38257897
v -4.12746906 -0.135353997 -1.37769604
v -4.12493706 -0.141365007 -1.38502097
v -4.12493706 -0.148974001 -1.37938201
v -4.12409306 -0.143369004 -1.38746202
v -4.12409306 -0.150729001 -1.38200796
v -4.12493706 -0.157095999 -1.37450898
v -4.12493706 -0.165654004 -1.37045598
v -4.12409306 -0.158584997 -1.37729502
v -4.12409306 -0.166862994 -1.37337399
v -4.12578106 -0.183145002 -1.36187506
v -4.12578106 -0.192818999 -1.36043596
v -4.12662506 -0.192509994 -1.35729301
v -4.12662506 -0.182528004 -1.35877705
v -4.12746906 -0.192200005 -1.35415006
v -4.12746906 -0.181912005 -1.35567999
v -4.12578106 -0.202586994 -1.35995102
v -4.12662506 -0.202586994 -1.35679197
v -4.12746906 -0.202586994 -1.35363305
v -4.12662506 -0.172738999 -1.36122596
v -4.12578106 -0.173656002 -1.36424804
v -4.12746906 -0.171821997 -1.35820305
v -4.12493706 -0.174573004 -1.36726999
v -4.12493706 -0.183761001 -1.36497295
v -4.12409306 -0.175490007 -1.37029302
v -4.12409306 -0.184377 -1.36807001
v -4.12493706 -0.193129003 -1.36357999
v -4.12493706 -0.202586994 -1.36310899
v -4.12409306 -0.193439007 -1.36672294
v -4.12409306 -0.202586994 -1.36626804
v -4.12578106 -0.222029999 -1.36187506
v -4.12578106 -0.231518999 -1.36424804
v -4.12662506 -0.232435003 -1.36122596
v -4.12662506 -0.222645998 -1.35877705
v -4.12746906 -0.233352005 -1.35820305
v -4.12746906 -0.223261997 -1.35567999
v -4.12578106 -0.240729004 -1.36753702
v -4.12662506 -0.241936997 -1.36461902
v -4.12746906 -0.243146002 -1.36170101
v -4.12662506 -0.212663993 -1.35729301
v -4.12578106 -0.212355003 -1.36043596
v -4.12746906 -0.212973997 -1.35415006
v -4.12493706 -0.212044999 -1.36357903
v -4.12493706 -0.221413001 -1.364972
v -4.12409306 -0.211735994 -1.36672294
v -4.12409306 -0.220797002 -1.36807001
v -4.12493706 -0.230601996 -1.36726999
v -4.12493706 -0.239519998 -1.37045598
v -4.12409306 -0.229684994 -1.37029302
v -4.12409306 -0.238310993 -1.37337399
v -4.12578106 -0.257955015 -1.376755
v -4.12578106 -0.265812993 -1.38257897
v -4.12662506 -0.267816991 -1.38013804
v -4.12662506 -0.259709001 -1.37412906
v -4.12746906 -0.269820988 -1.37769604
v -4.12746906 -0.261464 -1.371503
v -4.12578106 -0.273063004 -1.38914299
v -4.12662506 -0.275296986 -1.38690901
v -4.12746906 -0.277530015 -1.38467598
v -4.12662506 -0.251055986 -1.36893797
v -4.12578106 -0.249567002 -1.37172401
v -4.12746906 -0.252544999 -1.366153
v -4.12493706 -0.248078004 -1.37451005
v -4.12493706 -0.256199986 -1.37938201
v -4.12409306 -0.246589005 -1.37729502
v -4.12409306 -0.254444987 -1.38200796
v -4.12493706 -0.263808995 -1.38502097
v -4.12493706 -0.270830005 -1.39137602
v -4.12409306 -0.261806011 -1.38746202
v -4.12409306 -0.268595994 -1.39361
v -4.12578106 -0.285450995 -1.40425098
v -4.12578106 -0.290482014 -1.41263902
v -4.12662506 -0.293267995 -1.41114998
v -4.12662506 -0.288076997 -1.40249705
v -4.12746906 -0.296052992 -1.40966105
v -4.12746906 -0.290702999 -1.40074205
v -4.12578106 -0.294669002 -1.42147696
v -4.12662506 -0.297587007 -1.42026901
v -4.12746906 -0.300505012 -1.41905999
v -4.12662506 -0.282068014 -1.39438903
v -4.12578106 -0.279626995 -1.39639294
v -4.12746906 -0.284509987 -1.39238501
v -4.12493706 -0.277184993 -1.39839697
v -4.12493706 -0.28282401 -1.40600598
v -4.12409306 -0.274744004 -1.40040004
v -4.12409306 -0.280198008 -1.40776098
v -4.12493706 -0.287696004 -1.41412795
v -4.12493706 -0.291750014 -1.42268598
v -4.12409306 -0.284911007 -1.41561699
v -4.12409306 -0.288832009 -1.423895
v -4.12578106 -0.300330997 -1.44017601
v -4.12578106 -0.301770002 -1.44985104
v -4.12662506 -0.304913014 -1.44954097
v -4.12662506 -0.303429008 -1.43956006
v -4.12746906 -0.30805701 -1.44923198
v -4.12746906 -0.306526989 -1.43894398
v -4.12578106 -0.302255988 -1.45961905
v -4.12662506 -0.305413991 -1.45961905
v -4.12746906 -0.308573008 -1.45961905
v -4.12662506 -0.300980002 -1.42977095
v -4.12578106 -0.297957987 -1.43068695
v -4.12746906 -0.304003 -1.42885399
v -4.12493706 -0.294934988 -1.43160403
v -4.12493706 -0.297232985 -1.44079196
v -4.12409306 -0.291913003 -1.43252099
v -4.12409306 -0.294135988 -1.44140899
v -4.12493706 -0.298626989 -1.45016098
v -4.12493706 -0.299097002 -1.45961905
v -4.12409306 -0.295482993 -1.45046997
v -4.12409306 -0.295937985 -1.45961905
v -4.12578106 -0.300330997 -1.47906101
v -4.12578106 -0.297957987 -1.48854995
v -4.12662506 -0.300980002 -1.48946702
v -4.12662506 -0.303429008 -1.47967696
v -4.12746906 -0.304003 -1.49038398
v -4.12746906 -0.306526989 -1.48029399
v -4.12578106 -0.294669002 -1.49776006
v -4.12662506 -0.297587007 -1.49896896
v -4.12746906 -0.300505012 -1.50017798
v -4.12662506 -0.304913014 -1.46969604
v -4.12578106 -0.301770002 -1.46938598
v -4.12746906 -0.30805701 -1.47000599
v -4.12493706 -0.298626989 -1.46907699
v -4.12493706 -0.297232985 -1.47844505
v -4.12409306 -0.295482993 -1.46876705
v -4.12409306 -0.294135988 -1.47782898
v -4.12493706 -0.294934988 -1.48763299
v -4.12493706 -0.291750014 -1.49655199
v -4.12409306 -0.291913003 -1.48671699
v -4.12409306 -0.288832009 -1.49534297
v -4.12578106 -0.285450011 -1.51498604
v -4.12578106 -0.279626995 -1.52284503
v -4.12662506 -0.282068014 -1.52484906
v -4.12662506 -0.288076997 -1.51674104
v -4.12746906 -0.284509987 -1.52685201
v -4.12746906 -0.290702999 -1.51849604
v -4.12578106 -0.273063004 -1.53009498
v -4.12662506 -0.275296986 -1.53232896
v -4.12746906 -0.277530015 -1.53456199
v -4.12662506 -0.293267995 -1.50808799
v -4.12578106 -0.290482014 -1.50659895
v -4.12746906 -0.296052992 -1.50957596
v -4.12493706 -0.287696004 -1.50511003
v -4.12493706 -0.28282401 -1.51323199
v -4.12409306 -0.284911007 -1.50362098
v -4.12409306 -0.280198008 -1.51147699
v -4.12493706 -0.277184993 -1.520841
v -4.12493706 -0.270830005 -1.52786195
v -4.12409306 -0.274744004 -1.51883698
v -4.12409306 -0.268595994 -1.52562797
v -4.12578106 -0.257955015 -1.54248202
v -4.12578106 -0.249567002 -1.54751396
v -4.12662506 -0.251055986 -1.55029905
v -4.12662506 -0.259709001 -1.54510796
v -4.12746906 -0.252544999 -1.55308497
v -4.12746906 -0.261464 -1.54773402
v -4.12578106 -0.240729004 -1.5517
v -4.12662506 -0.241936997 -1.55461895
v -4.12746906 -0.243146002 -1.55753696
v -4.12662506 -0.267816991 -1.53910005
v -4.12578106 -0.265812993 -1.536659
v -4.12746906 -0.269820988 -1.54154205
v -4.12493706 -0.263808995 -1.534217
v -4.12493706 -0.256199986 -1.53985596
v -4.12409306 -0.261806011 -1.531775
v -4.12409306 -0.254444987 -1.53723001
v -4.12493706 -0.248078004 -1.54472804
v -4.12493706 -0.239519998 -1.54878199
v -4.12409306 -0.246589005 -1.54194295
v -4.12409306 -0.238310993 -1.54586399
v -4.12578106 -0.222029999 -1.55736303
v -4.12578106 -0.231518999 -1.55499005
v -4.12493706 -0.230601996 -1.55196702
v -4.12493706 -0.221413001 -1.55426502
v -4.12409306 -0.229684994 -1.54894495
v -4.12409306 -0.220797002 -1.55116701
v -4.12493706 -0.212044999 -1.55565798
v -4.12578106 -0.212355003 -1.55880201
v -4.12493706 -0.202586994 -1.55612898
v -4.12578106 -0.202586994 -1.55928695
v -4.12409306 -0.211735994 -1.55251503
v -4.12409306 -0.202586994 -1.55297005
v -4.12662506 -0.212663993 -1.56194496
v -4.12662506 -0.222645998 -1.56046104
v -4.12746906 -0.212973997 -1.56508803
v -4.12746906 -0.223261997 -1.56355798
v -4.12662506 -0.202586994 -1.562446
v -4.12746906 -0.202586994 -1.56560504
v -4.12662506 -0.232435003 -1.55801201
v -4.12746906 -0.233352005 -1.56103504
v -4.12578106 -0.183145002 -1.55736303
v -4.12578106 -0.173656002 -1.55499005
v -4.12662506 -0.172738999 -1.55801201
v -4.12662506 -0.182528004 -1.56046104
v -4.12746906 -0.171821997 -1.56103504
v -4.12746906 -0.181912005 -1.56355798
v -4.12578106 -0.164445996 -1.5517
v -4.12662506 -0.163237005 -1.55461895
v -4.12746906 -0.162028 -1.55753696
v -4.12662506 -0.192509994 -1.56194496
v -4.12578106 -0.192818999 -1.55880201
v -4.12746906 -0.192200005 -1.56508803
v -4.12493706 -0.193129003 -1.55565798
v -4.12493706 -0.183761001 -1.55426502
v -4.12409306 -0.193439007 -1.55251503
v -4.12409306 -0.184377 -1.55116701
v -4.12493706 -0.174573004 -1.55196702
v -4.12493706 -0.165654004 -1.54878199
v -4.12409306 -0.175490007 -1.54894495
v -4.12409306 -0.166862994 -1.54586399
v -4.12578106 -0.147220001 -1.54248202
v -4.12578106 -0.139360994 -1.536659
v -4.12662506 -0.137356997 -1.53910005
v -4.12662506 -0.145465001 -1.54510796
v -4.12746906 -0.135353997 -1.54154205
v -4.12746906 -0.143710002 -1.54773402
v -4.12662506 -0.154118001 -1.55029905
v -4.12578106 -0.155607 -1.54751396
v -4.12746906 -0.152630001 -1.55308497
v -4.12493706 -0.157095999 -1.54472804
v -4.12493706 -0.148974001 -1.53985596
v -4.12409306 -0.158584997 -1.54194295
v -4.12409306 -0.150729001 -1.53723001
v -4.12493706 -0.141365007 -1.534217
v -4.12409306 -0.143369004 -1.531775
vn -0.966099977 -0.214699998 -0.143399999
vn -0.966099977 -0.2148 -0.143399999
vn -0.966099977 -0.199699998 -0.163699999
vn -0.966099977 -0.199699998 -0.163699999
vn -0.966099977 -0.182600006 -0.182600006
vn -0.966099977 -0.182500005 -0.182500005
vn -0.966099977 -0.2148 -0.1435
vn -0.966099977 -0.199699998 -0.163699999
vn -0.966099977 -0.182600006 -0.182600006
vn -0.966099977 -0.199599996 -0.163699999
vn -0.966099977 -0.214599997 -0.143399999
vn -0.966099977 -0.199599996 -0.163699999
vn -0.966099977 -0.214699998 -0.143399999
vn -0.966099977 -0.182500005 -0.182500005
vn -0.966099977 -0.182400003 -0.182500005
vn -0.966099977 -0.227599993 -0.121799998
vn -0.966099977 -0.227599993 -0.121799998
vn -0.966099977 -0.238499999 -0.0988000035
vn -0.966099977 -0.238499999 -0.0988000035
vn -0.966099977 -0.227599993 -0.121799998
vn -0.966099977 -0.238499999 -0.0988000035
vn -0.966099977 -0.227699995 -0.121799998
vn -0.966000021 -0.227799997 -0.1219
vn -0.966099977 -0.238499999 -0.0988000035
vn -0.966099977 -0.238600001 -0.0988000035
vn -0.966099977 -0.253199995 -0.0504000001
vn -0.966099977 -0.253199995 -0.0504000001
vn -0.966099977 -0.256900012 -0.0253999997
vn -0.966099977 -0.256900012 -0.0253999997
vn -0.966099977 -0.258100003 0
vn -0.966099977 -0.258100003 0
vn -0.966099977 -0.253199995 -0.0504000001
vn -0.966099977 -0.256900012 -0.0253999997
vn -0.966099977 -0.258100003 0
vn -0.966099977 -0.256900012 -0.0253999997
vn -0.966099977 -0.253300011 -0.0504000001
vn -0.966099977 -0.256999999 -0.0253999997
vn -0.966000021 -0.253399998 -0.0504000001
vn -0.966099977 -0.25819999 0
vn -0.966099977 -0.25819999 0
vn -0.966099977 -0.247099996 -0.0747999996
vn -0.966099977 -0.247099996 -0.0747999996
vn -0.966000021 -0.247199997 -0.0747999996
vn -0.966099977 -0.247099996 -0.0747999996
vn -0.966099977 -0.247099996 -0.0747999996
vn -0.966099977 -0.253199995 0.0504000001
vn -0.966099977 -0.253199995 0.0504000001
vn -0.966099977 -0.246999994 0.0747999996
vn -0.966099977 -0.246999994 0.0747999996
vn -0.966099977 -0.238399997 0.0988000035
vn -0.966099977 -0.238499999 0.0988000035
vn -0.966099977 -0.253199995 0.0504000001
vn -0.966099977 -0.247099996 0.0747999996
vn -0.966099977 -0.238399997 0.0988000035
vn -0.966099977 -0.247099996 0.0747999996
vn -0.966099977 -0.253199995 0.0504000001
vn -0.966000021 -0.247199997 0.0747999996
vn -0.966099977 -0.253300011 0.0504000001
vn -0.966099977 -0.238499999 0.0988000035
vn -0.966099977 -0.238600001 0.0988000035
vn -0.966099977 -0.256900012 0.0253999997
vn -0.966099977 -0.256900012 0.0253999997
vn -0.966099977 -0.256999999 0.0253999997
vn -0.966099977 -0.256900012 0.0253999997
vn -0.966099977 -0.256900012 0.0253999997
vn -0.966099977 -0.214699998 0.143399999
vn -0.966099977 -0.214599997 0.143399999
vn -0.966099977 -0.199599996 0.163699999
vn -0.966099977 -0.199699998 0.163699999
vn -0.966099977 -0.182500005 0.182500005
vn -0.966099977 -0.182500005 0.182500005
vn -0.966099977 -0.214699998 0.143399999
vn -0.966099977 -0.199599996 0.163699999
vn -0.966099977 -0.182500005 0.182500005
vn -0.966099977 -0.199699998 0.163699999
vn -0.966099977 -0.214699998 0.1435
vn -0.966099977 -0.199699998 0.163699999
vn -0.966099977 -0.214699998 0.1435
vn -0.966099977 -0.182600006 0.182600006
vn -0.966099977 -0.182600006 0.182600006
vn -0.966099977 -0.227699995 0.121799998
vn -0.966099977 -0.227599993 0.121799998
vn -0.966099977 -0.227699995 0.121799998
vn -0.966099977 -0.227599993 0.121799998
vn -0.966099977 -0.227599993 0.121799998
vn -0.966099977 -0.143399999 0.214699998
vn -0.966099977 -0.143399999 0.214599997
vn -0.966099977 -0.121799998 0.227599993
vn -0.966099977 -0.121799998 0.227599993
vn -0.966099977 -0.0988000035 0.238499999
vn -0.966099977 -0.0988000035 0.238499999
vn -0.966099977 -0.143399999 0.214599997
vn -0.966099977 -0.121799998 0.227599993
vn -0.966099977 -0.0988000035 0.238499999
vn -0.966099977 -0.121799998 0.227699995
vn -0.966099977 -0.143399999 0.214699998
vn -0.966099977 -0.121799998 0.227699995
vn -0.966099977 -0.143399999 0.214699998
vn -0.966099977 -0.0988000035 0.238499999
vn -0.966099977 -0.0988000035 0.238600001
vn -0.966099977 -0.163699999 0.199699998
vn -0.966099977 -0.163699999 0.199699998
vn -0.966099977 -0.163699999 0.199699998
vn -0.966099977 -0.163699999 0.199599996
vn -0.966099977 -0.163599998 0.199599996
vn -0.966099977 -0.0502999984 0.253199995
vn -0.966099977 -0.0504000001 0.253199995
vn -0.966099977 -0.0253999997 0.256900012
vn -0.966099977 -0.0253999997 0.256900012
vn -0.966099977 0 0.258100003
vn -0.966099977 0 0.25819999
vn -0.966099977 -0.0504000001 0.253199995
vn -0.966099977 -0.0253999997 0.256900012
vn -0.966099977 0 0.258100003
vn -0.966099977 -0.0253999997 0.256999999
vn -0.966099977 -0.0504000001 0.253300011
vn -0.966099977 -0.0253999997 0.256999999
vn -0.966099977 -0.0504000001 0.253300011
vn -0.966099977 0 0.25819999
vn -0.966099977 0 0.25819999
vn -0.966099977 -0.0747999996 0.247099996
vn -0.966099977 -0.0747999996 0.247099996
vn -0.966099977 -0.0749000013 0.247099996
vn -0.966099977 -0.0747999996 0.247099996
vn -0.966099977 -0.0747999996 0.247099996
vn -0.966099977 0.0504000001 0.253199995
vn -0.966099977 0.0504000001 0.253199995
vn -0.966099977 0.0747999996 0.247099996
vn -0.966099977 0.0747999996 0.247099996
vn -0.966099977 0.0988000035 0.238499999
vn -0.966099977 0.0988000035 0.238499999
vn -0.966099977 0.0504000001 0.253199995
vn -0.966099977 0.0747999996 0.247099996
vn -0.966099977 0.0988000035 0.238499999
vn -0.966099977 0.0747999996 0.247099996
vn -0.966099977 0.0504000001 0.253300011
vn -0.966099977 0.0749000013 0.247199997
vn -0.966099977 0.0504000001 0.253300011
vn -0.966099977 0.0988000035 0.238499999
vn -0.966099977 0.0988000035 0.238600001
vn -0.966099977 0.0253999997 0.256999999
vn -0.966099977 0.0253999997 0.256900012
vn -0.966099977 0.0253999997 0.256999999
vn -0.966099977 0.0253999997 0.256900012
vn -0.966099977 0.0253999997 0.256900012
vn -0.966099977 0.143399999 0.214599997
vn -0.966099977 0.143399999 0.214599997
vn -0.966099977 0.163699999 0.199599996
vn -0.966099977 0.163699999 0.199599996
vn -0.966099977 0.182500005 0.182500005
vn -0.966099977 0.182500005 0.182500005
vn -0.966099977 0.143399999 0.214599997
vn -0.966099977 0.163599998 0.199599996
vn -0.966099977 0.182500005 0.182500005
vn -0.966099977 0.163699999 0.199699998
vn -0.966099977 0.143399999 0.214699998
vn -0.966099977 0.163699999 0.199699998
vn -0.966099977 0.1435 0.214699998
vn -0.966099977 0.182500005 0.182600006
vn -0.966099977 0.182600006 0.182600006
vn -0.966099977 0.121799998 0.227699995
vn -0.966099977 0.121799998 0.227599993
vn -0.966099977 0.121799998 0.227699995
vn -0.966099977 0.121799998 0.227599993
vn -0.966099977 0.121799998 0.227599993
vn -0.966099977 0.214699998 0.143399999
vn -0.966099977 0.214599997 0.143399999
vn -0.966099977 0.227599993 0.121799998
vn -0.966099977 0.227599993 0.121799998
vn -0.966099977 0.238499999 0.0988000035
vn -0.966099977 0.238499999 0.0988000035
vn -0.966099977 0.214699998 0.143399999
vn -0.966099977 0.227599993 0.121799998
vn -0.966099977 0.238499999 0.0988000035
vn -0.966099977 0.227699995 0.121799998
vn -0.966099977 0.2148 0.143399999
vn -0.966000021 0.227799997 0.1219
vn -0.966099977 0.2148 0.1435
vn -0.966099977 0.238499999 0.0988000035
vn -0.966099977 0.238600001 0.0988000035
vn -0.966099977 0.199699998 0.163699999
vn -0.966099977 0.199699998 0.163699999
vn -0.966099977 0.199699998 0.163699999
vn -0.966099977 0.199699998 0.163699999
vn -0.966099977 0.199599996 0.163699999
vn -0.966099977 0.253199995 0.0504000001
vn -0.966099977 0.253199995 0.0504000001
vn -0.966099977 0.256900012 0.0253999997
vn -0.966099977 0.256900012 0.0253999997
vn -0.966099977 0.258100003 0
vn -0.966099977 0.258100003 0
vn -0.966099977 0.253199995 0.0504000001
vn -0.966099977 0.256900012 0.0253999997
vn -0.966099977 0.258100003 0
vn -0.966099977 0.256900012 0.0253999997
vn -0.966099977 0.253300011 0.0504000001
vn -0.966099977 0.256999999 0.0253999997
vn -0.966000021 0.253399998 0.0504000001
vn -0.966099977 0.25819999 0
vn -0.966099977 0.25819999 0
vn -0.966099977 0.247099996 0.0747999996
vn -0.966099977 0.247099996 0.0747999996
vn -0.966000021 0.247199997 0.0747999996
vn -0.966099977 0.247099996 0.0747999996
vn -0.966099977 0.247099996 0.0747999996
vn -0.966099977 0.253199995 -0.0504000001
vn -0.966099977 0.253199995 -0.0504000001
vn -0.966099977 0.247099996 -0.0747999996
vn -0.966099977 0.246999994 -0.0747999996
vn -0.966099977 0.238399997 -0.0988000035
vn -0.966099977 0.238499999 -0.0988000035
vn -0.966099977 0.253199995 -0.0504000001
vn -0.966099977 0.247099996 -0.0747999996
vn -0.966099977 0.238399997 -0.0988000035
vn -0.966099977 0.247099996 -0.0747999996
vn -0.966099977 0.253199995 -0.0504000001
vn -0.966000021 0.247199997 -0.0747999996
vn -0.966099977 0.253300011 -0.0504000001
vn -0.966099977 0.238499999 -0.0988000035
vn -0.966099977 0.238600001 -0.0988000035
vn -0.966099977 0.256900012 -0.0253999997
vn -0.966099977 0.256900012 -0.0253999997
vn -0.966099977 0.256999999 -0.0253999997
vn -0.966099977 0.256900012 -0.0253999997
vn -0.966099977 0.256900012 -0.0253999997
vn -0.966099977 0.214599997 -0.143399999
vn -0.966099977 0.214599997 -0.143399999
vn -0.966099977 0.199599996 -0.163699999
vn -0.966099977 0.199699998 -0.163699999
vn -0.966099977 0.182500005 -0.182500005
vn -0.966099977 0.182500005 -0.182500005
vn -0.966099977 0.214699998 -0.143399999
vn -0.966099977 0.199599996 -0.163699999
vn -0.966099977 0.182500005 -0.182500005
vn -0.966099977 0.199699998 -0.163699999
vn -0.966099977 0.214699998 -0.1435
vn -0.966099977 0.199699998 -0.163800001
vn -0.966099977 0.214699998 -0.1435
vn -0.966099977 0.182600006 -0.182600006
vn -0.966099977 0.182600006 -0.182600006
vn -0.966099977 0.227699995 -0.121799998
vn -0.966099977 0.227599993 -0.121799998
vn -0.966099977 0.227699995 -0.121799998
vn -0.966099977 0.227599993 -0.121799998
vn -0.966099977 0.227599993 -0.121799998
vn -0.966099977 0.143399999 -0.214699998
vn -0.966099977 0.143399999 -0.214599997
vn -0.966099977 0.121799998 -0.227599993
vn -0.966099977 0.121799998 -0.227599993
vn -0.966099977 0.0988000035 -0.238499999
vn -0.966099977 0.0988000035 -0.238499999
vn -0.966099977 0.143399999 -0.214599997
vn -0.966099977 0.121799998 -0.227599993
vn -0.966099977 0.0988000035 -0.238499999
vn -0.966099977 0.121799998 -0.227699995
vn -0.966099977 0.143399999 -0.214699998
vn -0.966099977 0.121799998 -0.227699995
vn -0.966099977 0.143399999 -0.214699998
vn -0.966099977 0.0988000035 -0.238499999
vn -0.966099977 0.0988000035 -0.238600001
vn -0.966099977 0.163699999 -0.199699998
vn -0.966099977 0.163699999 -0.199699998
vn -0.966099977 0.163800001 -0.199699998
vn -0.966099977 0.163599998 -0.199599996
vn -0.966099977 0.163599998 -0.199599996
vn -0.966099977 0.0502999984 -0.253199995
vn -0.966099977 0.0504000001 -0.253199995
vn -0.966099977 0.0747999996 -0.247099996
vn -0.966099977 0.0747999996 -0.247099996
vn -0.966099977 0.0504000001 -0.253300011
vn -0.966099977 0.0749000013 -0.247099996
vn -0.966099977 0.0747999996 -0.246999994
vn -0.966099977 0.0504000001 -0.253199995
vn -0.966099977 0.0749000013 -0.246999994
vn -0.966099977 0.0504000001 -0.253199995
vn -0.966099977 0.0253999997 -0.256900012
vn -0.966099977 0.0253999997 -0.256900012
vn -0.966099977 0 -0.258100003
vn -0.966099977 0 -0.25819999
vn -0.966099977 0.0253999997 -0.256900012
vn -0.966099977 0 -0.258100003
vn -0.966099977 0.0253999997 -0.256999999
vn -0.966099977 0.0253999997 -0.256999999
vn -0.966099977 0 -0.25819999
vn -0.966099977 0 -0.25819999
vn -0.966099977 -0.0504000001 -0.253199995
vn -0.966099977 -0.0504000001 -0.253199995
vn -0.966099977 -0.0747999996 -0.246999994
vn -0.966099977 -0.0747999996 -0.246999994
vn -0.966099977 -0.0988000035 -0.238499999
vn -0.966099977 -0.0987000018 -0.238499999
vn -0.966099977 -0.0504000001 -0.253199995
vn -0.966099977 -0.0747999996 -0.247099996
vn -0.966099977 -0.0988000035 -0.238499999
vn -0.966099977 -0.0747999996 -0.247099996
vn -0.966099977 -0.0504000001 -0.253199995
vn -0.966099977 -0.0749000013 -0.247199997
vn -0.966099977 -0.0504000001 -0.253300011
vn -0.966099977 -0.0988000035 -0.238499999
vn -0.966099977 -0.0988000035 -0.238600001
vn -0.966099977 -0.0253999997 -0.256999999
vn -0.966099977 -0.0253999997 -0.256900012
vn -0.966099977 -0.0253999997 -0.256999999
vn -0.966099977 -0.0253999997 -0.256900012
vn -0.966099977 -0.0253999997 -0.256900012
vn -0.966099977 -0.143399999 -0.214599997
vn -0.966099977 -0.143399999 -0.214599997
vn -0.966099977 -0.163699999 -0.199599996
vn -0.966099977 -0.163699999 -0.199599996
vn -0.966099977 -0.143399999 -0.214599997
vn -0.966099977 -0.163599998 -0.199599996
vn -0.966099977 -0.163699999 -0.199699998
vn -0.966099977 -0.143399999 -0.214699998
vn -0.966000021 -0.163800001 -0.199699998
vn -0.966099977 -0.143399999 -0.214699998
vn -0.966099977 -0.121799998 -0.227699995
vn -0.966099977 -0.121799998 -0.227599993
vn -0.966099977 -0.121799998 -0.227699995
vn -0.966099977 -0.121799998 -0.227599993
vn -0.966099977 -0.121799998 -0.227599993
vn -0.966099977 -0.214599997 0.143399999
vn -0.966099977 -0.199699998 0.163699999
vn -0.966099977 -0.199699998 0.163699999
vn -0.966099977 -0.214699998 0.1435
vn -0.966099977 -0.199699998 0.163800001
vn -0.966099977 -0.214699998 0.1435
vn -0.966099977 -0.182500005 0.182500005
vn -0.966099977 -0.182600006 0.182600006
vn -0.966099977 -0.182600006 0.182600006
vn -0.966099977 -0.227699995 0.121799998
vn -0.966099977 -0.227599993 0.121799998
vn -0.966099977 -0.238499999 0.0988000035
vn -0.966099977 -0.238499999 0.0988000035
vn -0.966099977 -0.227699995 0.121799998
vn -0.966099977 -0.238600001 0.0988000035
vn -0.966099977 -0.227599993 0.121799998
vn -0.966099977 -0.214599997 0.143399999
vn -0.966099977 -0.227599993 0.121799998
vn -0.966099977 -0.214699998 0.143399999
vn -0.966099977 -0.238399997 0.0988000035
vn -0.966099977 -0.238399997 0.0988000035
vn -0.966099977 -0.199599996 0.163699999
vn -0.966099977 -0.182500005 0.182500005
vn -0.966099977 -0.199599996 0.163699999
vn -0.966099977 -0.182500005 0.182500005
vn -0.966099977 -0.253199995 0.0504000001
vn -0.966099977 -0.256900012 0.0253999997
vn -0.966099977 -0.256900012 0.0253999997
vn -0.966099977 -0.253199995 0.0504000001
vn -0.966099977 -0.256900012 0.0253999997
vn -0.966099977 -0.253199995 0.0504000001
vn -0.966099977 -0.25819999 0
vn -0.966099977 -0.25819999 0
vn -0.966099977 -0.258100003 0
vn -0.966099977 -0.247099996 0.0747999996
vn -0.966099977 -0.246999994 0.0747999996
vn -0.966099977 -0.247099996 0.0747999996
vn -0.966099977 -0.247099996 0.0747999996
vn -0.966099977 -0.253199995 0.0504000001
vn -0.966000021 -0.247199997 0.0747999996
vn -0.966099977 -0.253300011 0.0504000001
vn -0.966099977 -0.256799996 0.0253999997
vn -0.966099977 -0.258100003 0
vn -0.966099977 -0.256799996 0.0253999997
vn -0.966099977 -0.257999986 0
vn -0.966099977 -0.253199995 -0.0504000001
vn -0.966099977 -0.247099996 -0.0747999996
vn -0.966099977 -0.247099996 -0.0747999996
vn -0.966099977 -0.253300011 -0.0504000001
vn -0.966099977 -0.247099996 -0.0747999996
vn -0.966099977 -0.253199995 -0.0504000001
vn -0.966099977 -0.238600001 -0.0988000035
vn -0.966099977 -0.238499999 -0.0988000035
vn -0.966099977 -0.238499999 -0.0988000035
vn -0.966099977 -0.256900012 -0.0253999997
vn -0.966099977 -0.256900012 -0.0253999997
vn -0.966099977 -0.256900012 -0.0253999997
vn -0.966099977 -0.256900012 -0.0253999997
vn -0.966099977 -0.253199995 -0.0504000001
vn -0.966099977 -0.256799996 -0.0253999997
vn -0.966099977 -0.253199995 -0.0504000001
vn -0.966099977 -0.246999994 -0.0747999996
vn -0.966099977 -0.238399997 -0.0988000035
vn -0.966099977 -0.247099996 -0.0747999996
vn -0.966099977 -0.238399997 -0.0988000035
vn -0.966099977 -0.214699998 -0.143399999
vn -0.966099977 -0.199699998 -0.163699999
vn -0.966099977 -0.199699998 -0.163699999
vn -0.966099977 -0.214699998 -0.143399999
vn -0.966099977 -0.199599996 -0.163699999
vn -0.966099977 -0.214699998 -0.143399999
vn -0.966099977 -0.182600006 -0.182600006
vn -0.966099977 -0.182600006 -0.182600006
vn -0.966099977 -0.182500005 -0.182500005
vn -0.966099977 -0.227699995 -0.121799998
vn -0.966099977 -0.227699995 -0.121799998
vn -0.966099977 -0.227599993 -0.121799998
vn -0.966099977 -0.227599993 -0.121799998
vn -0.966099977 -0.214599997 -0.143399999
vn -0.966099977 -0.227500007 -0.121799998
vn -0.966099977 -0.214599997 -0.143399999
vn -0.966099977 -0.199599996 -0.163699999
vn -0.966099977 -0.182500005 -0.182500005
vn -0.966099977 -0.199599996 -0.163599998
vn -0.966099977 -0.182600006 -0.182500005
vn -0.966099977 -0.1435 -0.214699998
vn -0.966099977 -0.121799998 -0.227699995
vn -0.966099977 -0.121799998 -0.227699995
vn -0.966099977 -0.143399999 -0.214699998
vn -0.966099977 -0.121799998 -0.227599993
vn -0.966099977 -0.143399999 -0.214599997
vn -0.966099977 -0.0988000035 -0.238499999
vn -0.966099977 -0.0988000035 -0.238499999
vn -0.966099977 -0.0988000035 -0.238499999
vn -0.966099977 -0.163699999 -0.199699998
vn -0.966099977 -0.163699999 -0.199699998
vn -0.966099977 -0.163599998 -0.199599996
vn -0.966099977 -0.163699999 -0.199599996
vn -0.966099977 -0.143399999 -0.214599997
vn -0.966099977 -0.163699999 -0.199599996
vn -0.966099977 -0.143399999 -0.214599997
vn -0.966099977 -0.121799998 -0.227599993
vn -0.966099977 -0.0988000035 -0.238499999
vn -0.966099977 -0.121799998 -0.227599993
vn -0.966099977 -0.0988000035 -0.238499999
vn -0.966099977 -0.0504000001 -0.253300011
vn -0.966099977 -0.0253999997 -0.256999999
vn -0.966099977 -0.0253999997 -0.256999999
vn -0.966099977 -0.0504000001 -0.253199995
vn -0.966099977 -0.0253999997 -0.256900012
vn -0.966099977 -0.0504000001 -0.253199995
vn -0.966099977 0 -0.25819999
vn -0.966099977 0 -0.25819999
vn -0.966099977 0 -0.258100003
vn -0.966099977 -0.0747999996 -0.247099996
vn -0.966099977 -0.0747999996 -0.247099996
vn -0.966099977 -0.0747999996 -0.246999994
vn -0.966099977 -0.0747999996 -0.247099996
vn -0.966099977 -0.0504000001 -0.253199995
vn -0.966099977 -0.0747999996 -0.247099996
vn -0.966099977 -0.0504000001 -0.253199995
vn -0.966099977 -0.0253999997 -0.256900012
vn -0.966099977 0 -0.258100003
vn -0.966099977 -0.0253999997 -0.256900012
vn -0.966099977 0 -0.258100003
vn -0.966099977 0.0504000001 -0.253300011
vn -0.966099977 0.0747999996 -0.247099996
vn -0.966099977 0.0747999996 -0.247099996
vn -0.966099977 0.0504000001 -0.253199995
vn -0.966099977 0.0747999996 -0.247099996
vn -0.966099977 0.0504000001 -0.253199995
vn -0.966099977 0.0988000035 -0.238499999
vn -0.966099977 0.0988000035 -0.238499999
vn -0.966099977 0.0988000035 -0.238499999
vn -0.966099977 0.0253999997 -0.256999999
vn -0.966099977 0.0253999997 -0.256999999
vn -0.966099977 0.0253999997 -0.256900012
vn -0.966099977 0.0253999997 -0.256900012
vn -0.966099977 0.0504000001 -0.253199995
vn -0.966099977 0.0253999997 -0.256900012
vn -0.966099977 0.0504000001 -0.253199995
vn -0.966099977 0.0747999996 -0.247099996
vn -0.966099977 0.0988000035 -0.238499999
vn -0.966099977 0.0747999996 -0.246999994
vn -0.966099977 0.0988000035 -0.238499999
vn -0.966099977 0.1435 -0.214699998
vn -0.966099977 0.163699999 -0.199699998
vn -0.966099977 0.163699999 -0.199699998
vn -0.966099977 0.143399999 -0.214699998
vn -0.966099977 0.163599998 -0.199599996
vn -0.966099977 0.143399999 -0.214599997
vn -0.966099977 0.182600006 -0.182600006
vn -0.966099977 0.182500005 -0.182600006
vn -0.966099977 0.182500005 -0.182500005
vn -0.966099977 0.121799998 -0.227699995
vn -0.966099977 0.121799998 -0.227699995
vn -0.966099977 0.121799998 -0.227599993
vn -0.966099977 0.121799998 -0.227599993
vn -0.966099977 0.143399999 -0.214599997
vn -0.966099977 0.121799998 -0.227599993
vn -0.966099977 0.143399999 -0.214599997
vn -0.966099977 0.163699999 -0.199599996
vn -0.966099977 0.182500005 -0.182500005
vn -0.966099977 0.163599998 -0.199599996
vn -0.966099977 0.182600006 -0.182500005
vn -0.966099977 0.2148 -0.143399999
vn -0.966099977 0.227699995 -0.121799998
vn -0.966099977 0.227699995 -0.121799998
vn -0.966099977 0.214699998 -0.143399999
vn -0.966099977 0.227599993 -0.121799998
vn -0.966099977 0.214699998 -0.143399999
vn -0.966099977 0.238499999 -0.0988000035
vn -0.966099977 0.238499999 -0.0988000035
vn -0.966099977 0.238399997 -0.0988000035
vn -0.966099977 0.199699998 -0.163699999
vn -0.966099977 0.199699998 -0.163699999
vn -0.966099977 0.199599996 -0.163699999
vn -0.966099977 0.199599996 -0.163699999
vn -0.966099977 0.214699998 -0.143399999
vn -0.966099977 0.199599996 -0.163699999
vn -0.966099977 0.214599997 -0.143399999
vn -0.966099977 0.227599993 -0.121799998
vn -0.966099977 0.238499999 -0.0988000035
vn -0.966099977 0.227599993 -0.121799998
vn -0.966099977 0.238399997 -0.0988000035
vn -0.966099977 0.253199995 -0.0504000001
vn -0.966099977 0.256900012 -0.0253999997
vn -0.966099977 0.256900012 -0.0253999997
vn -0.966099977 0.253300011 -0.0504000001
vn -0.966099977 0.256900012 -0.0253999997
vn -0.966099977 0.253199995 -0.0504000001
vn -0.966099977 0.25819999 0
vn -0.966099977 0.25819999 0
vn -0.966099977 0.258100003 0
vn -0.966099977 0.247099996 -0.0747999996
vn -0.966099977 0.247099996 -0.0747999996
vn -0.966099977 0.247099996 -0.0747999996
vn -0.966099977 0.246999994 -0.0747999996
vn -0.966099977 0.253199995 -0.0504000001
vn -0.966099977 0.246999994 -0.0747999996
vn -0.966099977 0.253199995 -0.0504000001
vn -0.966099977 0.256799996 -0.0253999997
vn -0.966099977 0.258100003 0
vn -0.966099977 0.256799996 -0.0253999997
vn -0.966099977 0.257999986 0
vn -0.966099977 0.253199995 0.0504000001
vn -0.966099977 0.247099996 0.0747999996
vn -0.966099977 0.247199997 0.0747999996
vn -0.966099977 0.253300011 0.0504000001
vn -0.966099977 0.247099996 0.0747999996
vn -0.966099977 0.253199995 0.0504000001
vn -0.966099977 0.238600001 0.0988000035
vn -0.966099977 0.238499999 0.0988000035
vn -0.966099977 0.238499999 0.0988000035
vn -0.966099977 0.256900012 0.0253999997
vn -0.966099977 0.256900012 0.0253999997
vn -0.966099977 0.256900012 0.0253999997
vn -0.966099977 0.256900012 0.0253999997
vn -0.966099977 0.253199995 0.0504000001
vn -0.966099977 0.256799996 0.0253999997
vn -0.966099977 0.253199995 0.0504000001
vn -0.966099977 0.246999994 0.0747999996
vn -0.966099977 0.238399997 0.0988000035
vn -0.966099977 0.247099996 0.0747999996
vn -0.966099977 0.238399997 0.0988000035
vn -0.966099977 0.214699998 0.143399999
vn -0.966099977 0.199699998 0.163699999
vn -0.966099977 0.199699998 0.163699999
vn -0.966099977 0.214699998 0.143399999
vn -0.966099977 0.199599996 0.163699999
vn -0.966099977 0.214699998 0.143399999
vn -0.966099977 0.182600006 0.182600006
vn -0.966099977 0.182600006 0.182600006
vn -0.966099977 0.182400003 0.182500005
vn -0.966099977 0.227699995 0.121799998
vn -0.966099977 0.227699995 0.121799998
vn -0.966099977 0.227599993 0.121799998
vn -0.966099977 0.227599993 0.121799998
vn -0.966099977 0.214599997 0.143399999
vn -0.966099977 0.227500007 0.121799998
vn -0.966099977 0.214599997 0.143399999
vn -0.966099977 0.199599996 0.163699999
vn -0.966099977 0.182500005 0.182500005
vn -0.966099977 0.199599996 0.163699999
vn -0.966099977 0.182600006 0.182500005
vn -0.966099977 0.143399999 0.214699998
vn -0.966099977 0.121799998 0.227599993
vn -0.966099977 0.121799998 0.227599993
vn -0.966099977 0.143399999 0.214699998
vn -0.966099977 0.121799998 0.227599993
vn -0.966099977 0.143399999 0.214599997
vn -0.966099977 0.0987000018 0.238499999
vn -0.966099977 0.0988000035 0.238499999
vn -0.966099977 0.0988000035 0.238499999
vn -0.966099977 0.163699999 0.199699998
vn -0.966099977 0.163699999 0.199699998
vn -0.966099977 0.163599998 0.199599996
vn -0.966099977 0.163699999 0.199699998
vn -0.966099977 0.1435 0.214699998
vn -0.966099977 0.163699999 0.199599996
vn -0.966099977 0.143399999 0.214599997
vn -0.966099977 0.121799998 0.227699995
vn -0.966099977 0.0988000035 0.238600001
vn -0.966099977 0.121799998 0.227599993
vn -0.966099977 0.0988000035 0.238600001
vn -0.966099977 0.0504000001 0.253199995
vn -0.966099977 0.0747999996 0.246999994
vn -0.966099977 0.0747999996 0.247099996
vn -0.966099977 0.0504000001 0.253199995
vn -0.966099977 0.0749000013 0.247199997
vn -0.966099977 0.0504000001 0.253300011
vn -0.966099977 0.0253999997 0.256999999
vn -0.966099977 0.0253999997 0.256900012
vn -0.966099977 0 0.25819999
vn -0.966099977 0 0.258100003
vn -0.966099977 0.0253999997 0.256999999
vn -0.966099977 0 0.25819999
vn -0.966099977 0.0253999997 0.256900012
vn -0.966099977 0.0504000001 0.253199995
vn -0.966099977 0.0253999997 0.256900012
vn -0.966099977 0.0504000001 0.253199995
vn -0.966099977 0 0.258100003
vn -0.966099977 0 0.258100003
vn -0.966099977 0.0747999996 0.246999994
vn -0.966099977 0.0747999996 0.247099996
vn -0.966099977 -0.0504000001 0.253199995
vn -0.966099977 -0.0747999996 0.247099996
vn -0.966099977 -0.0749000013 0.247099996
vn -0.966099977 -0.0504000001 0.253199995
vn -0.966099977 -0.0747999996 0.246999994
vn -0.966099977 -0.0504000001 0.253199995
vn -0.966099977 -0.0988000035 0.238499999
vn -0.966099977 -0.0988000035 0.238499999
vn -0.966099977 -0.0988000035 0.238499999
vn -0.966099977 -0.0253999997 0.256900012
vn -0.966099977 -0.0253999997 0.256900012
vn -0.966099977 -0.0253999997 0.256900012
vn -0.966099977 -0.0253999997 0.256900012
vn -0.966099977 -0.0504000001 0.253199995
vn -0.966099977 -0.0253999997 0.256999999
vn -0.966099977 -0.0504000001 0.253199995
vn -0.966099977 -0.0747999996 0.246999994
vn -0.966099977 -0.0988000035 0.238499999
vn -0.966099977 -0.0747999996 0.246999994
vn -0.966099977 -0.0988000035 0.238499999
vn -0.966099977 -0.1435 0.214699998
vn -0.966099977 -0.163699999 0.199699998
vn -0.966099977 -0.163599998 0.199599996
vn -0.966099977 -0.143399999 0.214599997
vn -0.966099977 -0.163599998 0.199599996
vn -0.966099977 -0.143399999 0.214599997
vn -0.966099977 -0.121799998 0.227599993
vn -0.966099977 -0.121799998 0.227599993
vn -0.966099977 -0.121799998 0.227599993
vn -0.966099977 -0.121799998 0.227599993
vn -0.966099977 -0.1435 0.214699998
vn -0.966099977 -0.121799998 0.227599993
vn -0.966099977 -0.143399999 0.214599997
vn -0.966099977 -0.163699999 0.199699998
vn -0.966099977 -0.163699999 0.199699998
f 1//1 2//2 3//3
f 1//1 3//3 4//4
f 4//4 3//3 5//5
f 4//4 5//5 6//6
f 2//2 7//7 8//8
f 2//2 8//8 3//3
f 3//3 8//8 9//9
f 3//3 9//9 5//5
f 1//1 4//4 10//10
f 1//1 10//10 11//11
f 11//11 10//10 12//12
f 11//11 12//12 13//13
f 4//4 6//6 14//14
f 4//4 14//14 10//10
f 10//10 14//14 15//15
f 10//10 15//15 12//12
f 1//1 11//11 16//16
f 1//1 16//16 17//17
f 17//17 16//16 18//18
f 17//17 18//18 19//19
f 11//11 13//13 20//20
f 11//11 20//20 16//16
f 16//16 20//20 21//21
f 16//16 21//21 18//18
f 1//1 17//17 22//22
f 1//1 22//22 2//2
f 2//2 22//22 23//23
f 2//2 23//23 7//7
f 17//17 19//19 24//24
f 17//17 24//24 22//22
f 22//22 24//24 25//25
f 22//22 25//25 23//23
f 26//26 27//27 28//28
f 26//26 28//28 29//29
f 29//29 28//28 30//30
f 29//29 30//30 31//31
f 27//27 32//32 33//33
f 27//27 33//33 28//28
f 28//28 33//33 34//34
f 28//28 34//34 30//30
f 26//26 29//29 35//35
f 26//26 35//35 36//36
f 36//36 35//35 37//37
f 36//36 37//37 38//38
f 29//29 31//31 39//39
f 29//29 39//39 35//35
f 35//35 39//39 40//40
f 35//35 40//40 37//37
f 26//26 36//36 41//41
f 26//26 41//41 42//42
f 42//42 41//41 24//24
f 42//42 24//24 19//19
f 36//36 38//38 43//43
f 36//36 43//43 41//41
f 41//41 43//43 25//25
f 41//41 25//25 24//24
f 26//26 42//42 44//44
f 26//26 44//44 27//27
f 27//27 44//44 45//45
f 27//27 45//45 32//32
f 42//42 19//19 18//18
f 42//42 18//18 44//44
f 44//44 18//18 21//21
f 44//44 21//21 45//45
f 46//46 47//47 48//48
f 46//46 48//48 49//49
f 49//49 48//48 50//50
f 49//49 50//50 51//51
f 47//47 52//52 53//53
f 47//47 53//53 48//48
f 48//48 53//53 54//54
f 48//48 54//54 50//50
f 46//46 49//49 55//55
f 46//46 55//55 56//56
f 56//56 55//55 57//57
f 56//56 57//57 58//58
f 49//49 51//51 59//59
f 49//49 59//59 55//55
f 55//55 59//59 60//60
f 55//55 60//60 57//57
f 46//46 56//56 61//61
f 46//46 61//61 62//62
f 62//62 61//61 39//39
f 62//62 39//39 31//31
f 56//56 58//58 63//63
f 56//56 63//63 61//61
f 61//61 63//63 40//40
f 61//61 40//40 39//39
f 46//46 62//62 64//64
f 46//46 64//64 47//47
f 47//47 64//64 65//65
f 47//47 65//65 52//52
f 62//62 31//31 30//30
f 62//62 30//30 64//64
f 64//64 30//30 34//34
f 64//64 34//34 65//65
f 66//66 67//67 68//68
f 66//66 68//68 69//69
f 69//69 68//68 70//70
f 69//69 70//70 71//71
f 67//67 72//72 73//73
f 67//67 73//73 68//68
f 68//68 73//73 74//74
f 68//68 74//74 70//70
f 66//66 69//69 75//75
f 66//66 75//75 76//76
f 76//76 75//75 77//77
f 76//76 77//77 78//78
f 69//69 71//71 79//79
f 69//69 79//79 75//75
f 75//75 79//79 80//80
f 75//75 80//80 77//77
f 66//66 76//76 81//81
f 66//66 81//81 82//82
f 82//82 81//81 59//59
f 82//82 59//59 51//51
f 76//76 78//78 83//83
f 76//76 83//83 81//81
f 81//81 83//83 60//60
f 81//81 60//60 59//59
f 66//66 82//82 84//84
f 66//66 84//84 67//67
f 67//67 84//84 85//85
f 67//67 85//85 72//72
f 82//82 51//51 50//50
f 82//82 50//50 84//84
f 84//84 50//50 54//54
f 84//84 54//54 85//85
f 86//86 87//87 88//88
f 86//86 88//88 89//89
f 89//89 88//88 90//90
f 89//89 90//90 91//91
f 87//87 92//92 93//93
f 87//87 93//93 88//88
f 88//88 93//93 94//94
f 88//88 94//94 90//90
f 86//86 89//89 95//95
f 86//86 95//95 96//96
f 96//96 95//95 97//97
f 96//96 97//97 98//98
f 89//89 91//91 99//99
f 89//89 99//99 95//95
f 95//95 99//99 100//100
f 95//95 100//100 97//97
f 86//86 96//96 101//101
f 86//86 101//101 102//102
f 102//102 101//101 79//79
f 102//102 79//79 71//71
f 96//96 98//98 103//103
f 96//96 103//103 101//101
f 101//101 103//103 80//80
f 101//101 80//80 79//79
f 86//86 102//102 104//104
f 86//86 104//104 87//87
f 87//87 104//104 105//105
f 87//87 105//105 92//92
f 102//102 71//71 70//70
f 102//102 70//70 104//104
f 104//104 70//70 74//74
f 104//104 74//74 105//105
f 106//106 107//107 108//108
f 106//106 108//108 109//109
f 109//109 108//108 110//110
f 109//109 110//110 111//111
f 107//107 112//112 113//113
f 107//107 113//113 108//108
f 108//108 113//113 114//114
f 108//108 114//114 110//110
f 106//106 109//109 115//115
f 106//106 115//115 116//116
f 116//116 115//115 117//117
f 116//116 117//117 118//118
f 109//109 111//111 119//119
f 109//109 119//119 115//115
f 115//115 119//119 120//120
f 115//115 120//120 117//117
f 106//106 116//116 121//121
f 106//106 121//121 122//122
f 122//122 121//121 99//99
f 122//122 99//99 91//91
f 116//116 118//118 123//123
f 116//116 123//123 121//121
f 121//121 123//123 100//100
f 121//121 100//100 99//99
f 106//106 122//122 124//124
f 106//106 124//124 107//107
f 107//107 124//124 125//125
f 107//107 125//125 112//112
f 122//122 91//91 90//90
f 122//122 90//90 124//124
f 124//124 90//90 94//94
f 124//124 94//94 125//125
f 126//126 127//127 128//128
f 126//126 128//128 129//129
f 129//129 128//128 130//130
f 129//129 130//130 131//131
f 127//127 132//132 133//133
f 127//127 133//133 128//128
f 128//128 133//133 134//134
f 128//128 134//134 130//130
f 126//126 129//129 135//135
f 126//126 135//135 136//136
f 136//136 135//135 137//137
f 136//136 137//137 138//138
f 129//129 131//131 139//139
f 129//129 139//139 135//135
f 135//135 139//139 140//140
f 135//135 140//140 137//137
f 126//126 136//136 141//141
f 126//126 141//141 142//142
f 142//142 141//141 119//119
f 142//142 119//119 111//111
f 136//136 138//138 143//143
f 136//136 143//143 141//141
f 141//141 143//143 120//120
f 141//141 120//120 119//119
f 126//126 142//142 144//144
f 126//126 144//144 127//127
f 127//127 144//144 145//145
f 127//127 145//145 132//132
f 142//142 111//111 110//110
f 142//142 110//110 144//144
f 144//144 110//110 114//114
f 144//144 114//114 145//145
f 146//146 147//147 148//148
f 146//146 148//148 149//149
f 149//149 148//148 150//150
f 149//149 150//150 151//151
f 147//147 152//152 153//153
f 147//147 153//153 148//148
f 148//148 153//153 154//154
f 148//148 154//154 150//150
f 146//146 149//149 155//155
f 146//146 155//155 156//156
f 156//156 155//155 157//157
f 156//156 157//157 158//158
f 149//149 151//151 159//159
f 149//149 159//159 155//155
f 155//155 159//159 160//160
f 155//155 160//160 157//157
f 146//146 156//156 161//161
f 146//146 161//161 162//162
f 162//162 161//161 139//139
f 162//162 139//139 131//131
f 156//156 158//158 163//163
f 156//156 163//163 161//161
f 161//161 163//163 140//140
f 161//161 140//140 139//139
f 146//146 162//162 164//164
f 146//146 164//164 147//147
f 147//147 164//164 165//165
f 147//147 165//165 152//152
f 162//162 131//131 130//130
f 162//162 130//130 164//164
f 164//164 130//130 134//134
f 164//164 134//134 165//165
f 166//166 167//167 168//168
f 166//166 168//168 169//169
f 169//169 168//168 170//170
f 169//169 170//170 171//171
f 167//167 172//172 173//173
f 167//167 173//173 168//168
f 168//168 173//173 174//174
f 168//168 174//174 170//170
f 166//166 169//169 175//175
f 166//166 175//175 176//176
f 176//176 175//175 177//177
f 176//176 177//177 178//178
f 169//169 171//171 179//179
f 169//169 179//179 175//175
f 175//175 179//179 180//180
f 175//175 180//180 177//177
f 166//166 176//176 181//181
f 166//166 181//181 182//182
f 182//182 181//181 159//159
f 182//182 159//159 151//151
f 176//176 178//178 183//183
f 176//176 183//183 181//181
f 181//181 183//183 160//160
f 181//181 160//160 159//159
f 166//166 182//182 184//184
f 166//166 184//184 167//167
f 167//167 184//184 185//185
f 167//167 185//185 172//172
f 182//182 151//151 150//150
f 182//182 150//150 184//184
f 184//184 150//150 154//154
f 184//184 154//154 185//185
f 186//186 187//187 188//188
f 186//186 188//188 189//189
f 189//189 188//188 190//190
f 189//189 190//190 191//191
f 187//187 192//192 193//193
f 187//187 193//193 188//188
f 188//188 193//193 194//194
f 188//188 194//194 190//190
f 186//186 189//189 195//195
f 186//186 195//195 196//196
f 196//196 195//195 197//197
f 196//196 197//197 198//198
f 189//189 191//191 199//199
f 189//189 199//199 195//195
f 195//195 199//199 200//200
f 195//195 200//200 197//197
f 186//186 196//196 201//201
f 186//186 201//201 202//202
f 202//202 201//201 179//179
f 202//202 179//179 171//171
f 196//196 198//198 203//203
f 196//196 203//203 201//201
f 201//201 203//203 180//180
f 201//201 180//180 179//179
f 186//186 202//202 204//204
f 186//186 204//204 187//187
f 187//187 204//204 205//205
f 187//187 205//205 192//192
f 202//202 171//171 170//170
f 202//202 170//170 204//204
f 204//204 170//170 174//174
f 204//204 174//174 205//205
f 206//206 207//207 208//208
f 206//206 208//208 209//209
f 209//209 208//208 210//210
f 209//209 210//210 211//211
f 207//207 212//212 213//213
f 207//207 213//213 208//208
f 208//208 213//213 214//214
f 208//208 214//214 210//210
f 206//206 209//209 215//215
f 206//206 215//215 216//216
f 216//216 215//215 217//217
f 216//216 217//217 218//218
f 209//209 211//211 219//219
f 209//209 219//219 215//215
f 215//215 219//219 220//220
f 215//215 220//220 217//217
f 206//206 216//216 221//221
f 206//206 221//221 222//222
f 222//222 221//221 199//199
f 222//222 199//199 191//191
f 216//216 218//218 223//223
f 216//216 223//223 221//221
f 221//221 223//223 200//200
f 221//221 200//200 199//199
f 206//206 222//222 224//224
f 206//206 224//224 207//207
f 207//207 224//224 225//225
f 207//207 225//225 212//212
f 222//222 191//191 190//190
f 222//222 190//190 224//224
f 224//224 190//190 194//194
f 224//224 194//194 225//225
f 226//226 227//227 228//228
f 226//226 228//228 229//229
f 229//229 228//228 230//230
f 229//229 230//230 231//231
f 227//227 232//232 233//233
f 227//227 233//233 228//228
f 228//228 233//233 234//234
f 228//228 234//234 230//230
f 226//226 229//229 235//235
f 226//226 235//235 236//236
f 236//236 235//235 237//237
f 236//236 237//237 238//238
f 229//229 231//231 239//239
f 229//229 239//239 235//235
f 235//235 239//239 240//240
f 235//235 240//240 237//237
f 226//226 236//236 241//241
f 226//226 241//241 242//242
f 242//242 241//241 219//219
f 242//242 219//219 211//211
f 236//236 238//238 243//243
f 236//236 243//243 241//241
f 241//241 243//243 220//220
f 241//241 220//220 219//219
f 226//226 242//242 244//244
f 226//226 244//244 227//227
f 227//227 244//244 245//245
f 227//227 245//245 232//232
f 242//242 211//211 210//210
f 242//242 210//210 244//244
f 244//244 210//210 214//214
f 244//244 214//214 245//245
f 246//246 247//247 248//248
f 246//246 248//248 249//249
f 249//249 248//248 250//250
f 249//249 250//250 251//251
f 247//247 252//252 253//253
f 247//247 253//253 248//248
f 248//248 253//253 254//254
f 248//248 254//254 250//250
f 246//246 249//249 255//255
f 246//246 255//255 256//256
f 256//256 255//255 257//257
f 256//256 257//257 258//258
f 249//249 251//251 259//259
f 249//249 259//259 255//255
f 255//255 259//259 260//260
f 255//255 260//260 257//257
f 246//246 256//256 261//261
f 246//246 261//261 262//262
f 262//262 261//261 239//239
f 262//262 239//239 231//231
f 256//256 258//258 263//263
f 256//256 263//263 261//261
f 261//261 263//263 240//240
f 261//261 240//240 239//239
f 246//246 262//262 264//264
f 246//246 264//264 247//247
f 247//247 264//264 265//265
f 247//247 265//265 252//252
f 262//262 231//231 230//230
f 262//262 230//230 264//264
f 264//264 230//230 234//234
f 264//264 234//234 265//265
f 266//266 267//267 268//268
f 266//266 268//268 269//269
f 269//269 268//268 259//259
f 269//269 259//259 251//251
f 267//267 270//270 271//271
f 267//267 271//271 268//268
f 268//268 271//271 260//260
f 268//268 260//260 259//259
f 266//266 269//269 272//272
f 266//266 272//272 273//273
f 273//273 272//272 274//274
f 273//273 274//274 275//275
f 269//269 251//251 250//250
f 269//269 250//250 272//272
f 272//272 250//250 254//254
f 272//272 254//254 274//274
f 266//266 273//273 276//276
f 266//266 276//276 277//277
f 277//277 276//276 278//278
f 277//277 278//278 279//279
f 273//273 275//275 280//280
f 273//273 280//280 276//276
f 276//276 280//280 281//281
f 276//276 281//281 278//278
f 266//266 277//277 282//282
f 266//266 282//282 267//267
f 267//267 282//282 283//283
f 267//267 283//283 270//270
f 277//277 279//279 284//284
f 277//277 284//284 282//282
f 282//282 284//284 285//285
f 282//282 285//285 283//283
f 286//286 287//287 288//288
f 286//286 288//288 289//289
f 289//289 288//288 290//290
f 289//289 290//290 291//291
f 287//287 292//292 293//293
f 287//287 293//293 288//288
f 288//288 293//293 294//294
f 288//288 294//294 290//290
f 286//286 289//289 295//295
f 286//286 295//295 296//296
f 296//296 295//295 297//297
f 296//296 297//297 298//298
f 289//289 291//291 299//299
f 289//289 299//299 295//295
f 295//295 299//299 300//300
f 295//295 300//300 297//297
f 286//286 296//296 301//301
f 286//286 301//301 302//302
f 302//302 301//301 284//284
f 302//302 284//284 279//279
f 296//296 298//298 303//303
f 296//296 303//303 301//301
f 301//301 303//303 285//285
f 301//301 285//285 284//284
f 286//286 302//302 304//304
f 286//286 304//304 287//287
f 287//287 304//304 305//305
f 287//287 305//305 292//292
f 302//302 279//279 278//278
f 302//302 278//278 304//304
f 304//304 278//278 281//281
f 304//304 281//281 305//305
f 306//306 307//307 308//308
f 306//306 308//308 309//309
f 309//309 308//308 14//14
f 309//309 14//14 6//6
f 307//307 310//310 311//311
f 307//307 311//311 308//308
f 308//308 311//311 15//15
f 308//308 15//15 14//14
f 306//306 309//309 312//312
f 306//306 312//312 313//313
f 313//313 312//312 314//314
f 313//313 314//314 315//315
f 309//309 6//6 5//5
f 309//309 5//5 312//312
f 312//312 5//5 9//9
f 312//312 9//9 314//314
f 306//306 313//313 316//316
f 306//306 316//316 317//317
f 317//317 316//316 299//299
f 317//317 299//299 291//291
f 313//313 315//315 318//318
f 313//313 318//318 316//316
f 316//316 318//318 300//300
f 316//316 300//300 299//299
f 306//306 317//317 319//319
f 306//306 319//319 307//307
f 307//307 319//319 320//320
f 307//307 320//320 310//310
f 317//317 291//291 290//290
f 317//317 290//290 319//319
f 319//319 290//290 294//294
f 319//319 294//294 320//320
f 321//321 322//322 323//323
f 321//321 323//323 324//324
f 324//324 323//323 325//325
f 324//324 325//325 326//326
f 322//322 327//327 328//328
f 322//322 328//328 323//323
f 323//323 328//328 329//329
f 323//323 329//329 325//325
f 321//321 324//324 330//330
f 321//321 330//330 331//331
f 331//331 330//330 332//332
f 331//331 332//332 333//333
f 324//324 326//326 334//334
f 324//324 334//334 330//330
f 330//330 334//334 335//335
f 330//330 335//335 332//332
f 321//321 331//331 336//336
f 321//321 336//336 337//337
f 337//337 336//336 338//338
f 337//337 338//338 339//339
f 331//331 333//333 340//340
f 331//331 340//340 336//336
f 336//336 340//340 341//341
f 336//336 341//341 338//338
f 321//321 337//337 342//342
f 321//321 342//342 322//322
f 322//322 342//342 343//343
f 322//322 343//343 327//327
f 337//337 339//339 344//344
f 337//337 344//344 342//342
f 342//342 344//344 345//345
f 342//342 345//345 343//343
f 346//346 347//347 348//348
f 346//346 348//348 349//349
f 349//349 348//348 350//350
f 349//349 350//350 351//351
f 347//347 352//352 353//353
f 347//347 353//353 348//348
f 348//348 353//353 354//354
f 348//348 354//354 350//350
f 346//346 349//349 355//355
f 346//346 355//355 356//356
f 356//356 355//355 340//340
f 356//356 340//340 333//333
f 349//349 351//351 357//357
f 349//349 357//357 355//355
f 355//355 357//357 341//341
f 355//355 341//341 340//340
f 346//346 356//356 358//358
f 346//346 358//358 359//359
f 359//359 358//358 360//360
f 359//359 360//360 361//361
f 356//356 333//333 332//332
f 356//356 332//332 358//358
f 358//358 332//332 335//335
f 358//358 335//335 360//360
f 346//346 359//359 362//362
f 346//346 362//362 347//347
f 347//347 362//362 363//363
f 347//347 363//363 352//352
f 359//359 361//361 364//364
f 359//359 364//364 362//362
f 362//362 364//364 365//365
f 362//362 365//365 363//363
f 366//366 367//367 368//368
f 366//366 368//368 369//369
f 369//369 368//368 370//370
f 369//369 370//370 371//371
f 367//367 372//372 373//373
f 367//367 373//373 368//368
f 368//368 373//373 374//374
f 368//368 374//374 370//370
f 366//366 369//369 375//375
f 366//366 375//375 376//376
f 376//376 375//375 353//353
f 376//376 353//353 352//352
f 369//369 371//371 377//377
f 369//369 377//377 375//375
f 375//375 377//377 354//354
f 375//375 354//354 353//353
f 366//366 376//376 378//378
f 366//366 378//378 379//379
f 379//379 378//378 380//380
f 379//379 380//380 381//381
f 376//376 352//352 363//363
f 376//376 363//363 378//378
f 378//378 363//363 365//365
f 378//378 365//365 380//380
f 366//366 379//379 382//382
f 366//366 382//382 367//367
f 367//367 382//382 383//383
f 367//367 383//383 372//372
f 379//379 381//381 384//384
f 379//379 384//384 382//382
f 382//382 384//384 385//385
f 382//382 385//385 383//383
f 386//386 387//387 388//388
f 386//386 388//388 389//389
f 389//389 388//388 390//390
f 389//389 390//390 391//391
f 387//387 392//392 393//393
f 387//387 393//393 388//388
f 388//388 393//393 394//394
f 388//388 394//394 390//390
f 386//386 389//389 395//395
f 386//386 395//395 396//396
f 396//396 395//395 373//373
f 396//396 373//373 372//372
f 389//389 391//391 397//397
f 389//389 397//397 395//395
f 395//395 397//397 374//374
f 395//395 374//374 373//373
f 386//386 396//396 398//398
f 386//386 398//398 399//399
f 399//399 398//398 400//400
f 399//399 400//400 401//401
f 396//396 372//372 383//383
f 396//396 383//383 398//398
f 398//398 383//383 385//385
f 398//398 385//385 400//400
f 386//386 399//399 402//402
f 386//386 402//402 387//387
f 387//387 402//402 403//403
f 387//387 403//403 392//392
f 399//399 401//401 404//404
f 399//399 404//404 402//402
f 402//402 404//404 405//405
f 402//402 405//405 403//403
f 406//406 407//407 408//408
f 406//406 408//408 409//409
f 409//409 408//408 410//410
f 409//409 410//410 411//411
f 407//407 412//412 413//413
f 407//407 413//413 408//408
f 408//408 413//413 414//414
f 408//408 414//414 410//410
f 406//406 409//409 415//415
f 406//406 415//415 416//416
f 416//416 415//415 393//393
f 416//416 393//393 392//392
f 409//409 411//411 417//417
f 409//409 417//417 415//415
f 415//415 417//417 394//394
f 415//415 394//394 393//393
f 406//406 416//416 418//418
f 406//406 418//418 419//419
f 419//419 418//418 420//420
f 419//419 420//420 421//421
f 416//416 392//392 403//403
f 416//416 403//403 418//418
f 418//418 403//403 405//405
f 418//418 405//405 420//420
f 406//406 419//419 422//422
f 406//406 422//422 407//407
f 407//407 422//422 423//423
f 407//407 423//423 412//412
f 419//419 421//421 424//424
f 419//419 424//424 422//422
f 422//422 424//424 425//425
f 422//422 425//425 423//423
f 426//426 427//427 428//428
f 426//426 428//428 429//429
f 429//429 428//428 430//430
f 429//429 430//430 431//431
f 427//427 432//432 433//433
f 427//427 433//433 428//428
f 428//428 433//433 434//434
f 428//428 434//434 430//430
f 426//426 429//429 435//435
f 426//426 435//435 436//436
f 436//436 435//435 413//413
f 436//436 413//413 412//412
f 429//429 431//431 437//437
f 429//429 437//437 435//435
f 435//435 437//437 414//414
f 435//435 414//414 413//413
f 426//426 436//436 438//438
f 426//426 438//438 439//439
f 439//439 438//438 440//440
f 439//439 440//440 441//441
f 436//436 412//412 423//423
f 436//436 423//423 438//438
f 438//438 423//423 425//425
f 438//438 425//425 440//440
f 426//426 439//439 442//442
f 426//426 442//442 427//427
f 427//427 442//442 443//443
f 427//427 443//443 432//432
f 439//439 441//441 444//444
f 439//439 444//444 442//442
f 442//442 444//444 445//445
f 442//442 445//445 443//443
f 446//446 447//447 448//448
f 446//446 448//448 449//449
f 449//449 448//448 450//450
f 449//449 450//450 451//451
f 447//447 452//452 453//453
f 447//447 453//453 448//448
f 448//448 453//453 454//454
f 448//448 454//454 450//450
f 446//446 449//449 455//455
f 446//446 455//455 456//456
f 456//456 455//455 433//433
f 456//456 433//433 432//432
f 449//449 451//451 457//457
f 449//449 457//457 455//455
f 455//455 457//457 434//434
f 455//455 434//434 433//433
f 446//446 456//456 458//458
f 446//446 458//458 459//459
f 459//459 458//458 460//460
f 459//459 460//460 461//461
f 456//456 432//432 443//443
f 456//456 443//443 458//458
f 458//458 443//443 445//445
f 458//458 445//445 460//460
f 446//446 459//459 462//462
f 446//446 462//462 447//447
f 447//447 462//462 463//463
f 447//447 463//463 452//452
f 459//459 461//461 464//464
f 459//459 464//464 462//462
f 462//462 464//464 465//465
f 462//462 465//465 463//463
f 466//466 467//467 468//468
f 466//466 468//468 469//469
f 469//469 468//468 470//470
f 469//469 470//470 471//471
f 467//467 472//472 473//473
f 467//467 473//473 468//468
f 468//468 473//473 474//474
f 468//468 474//474 470//470
f 466//466 469//469 475//475
f 466//466 475//475 476//476
f 476//476 475//475 453//453
f 476//476 453//453 452//452
f 469//469 471//471 477//477
f 469//469 477//477 475//475
f 475//475 477//477 454//454
f 475//475 454//454 453//453
f 466//466 476//476 478//478
f 466//466 478//478 479//479
f 479//479 478//478 480//480
f 479//479 480//480 481//481
f 476//476 452//452 463//463
f 476//476 463//463 478//478
f 478//478 463//463 465//465
f 478//478 465//465 480//480
f 466//466 479//479 482//482
f 466//466 482//482 467//467
f 467//467 482//482 483//483
f 467//467 483//483 472//472
f 479//479 481//481 484//484
f 479//479 484//484 482//482
f 482//482 484//484 485//485
f 482//482 485//485 483//483
f 486//486 487//487 488//488
f 486//486 488//488 489//489
f 489//489 488//488 490//490
f 489//489 490//490 491//491
f 487//487 492//492 493//493
f 487//487 493//493 488//488
f 488//488 493//493 494//494
f 488//488 494//494 490//490
f 486//486 489//489 495//495
f 486//486 495//495 496//496
f 496//496 495//495 473//473
f 496//496 473//473 472//472
f 489//489 491//491 497//497
f 489//489 497//497 495//495
f 495//495 497//497 474//474
f 495//495 474//474 473//473
f 486//486 496//496 498//498
f 486//486 498//498 499//499
f 499//499 498//498 500//500
f 499//499 500//500 501//501
f 496//496 472//472 483//483
f 496//496 483//483 498//498
f 498//498 483//483 485//485
f 498//498 485//485 500//500
f 486//486 499//499 502//502
f 486//486 502//502 487//487
f 487//487 502//502 503//503
f 487//487 503//503 492//492
f 499//499 501//501 504//504
f 499//499 504//504 502//502
f 502//502 504//504 505//505
f 502//502 505//505 503//503
f 506//506 507//507 508//508
f 506//506 508//508 509//509
f 509//509 508//508 510//510
f 509//509 510//510 511//511
f 507//507 512//512 513//513
f 507//507 513//513 508//508
f 508//508 513//513 514//514
f 508//508 514//514 510//510
f 506//506 509//509 515//515
f 506//506 515//515 516//516
f 516//516 515//515 493//493
f 516//516 493//493 492//492
f 509//509 511//511 517//517
f 509//509 517//517 515//515
f 515//515 517//517 494//494
f 515//515 494//494 493//493
f 506//506 516//516 518//518
f 506//506 518//518 519//519
f 519//519 518//518 520//520
f 519//519 520//520 521//521
f 516//516 492//492 503//503
f 516//516 503//503 518//518
f 518//518 503//503 505//505
f 518//518 505//505 520//520
f 506//506 519//519 522//522
f 506//506 522//522 507//507
f 507//507 522//522 523//523
f 507//507 523//523 512//512
f 519//519 521//521 524//524
f 519//519 524//524 522//522
f 522//522 524//524 525//525
f 522//522 525//525 523//523
f 526//526 527//527 528//528
f 526//526 528//528 529//529
f 529//529 528//528 530//530
f 529//529 530//530 531//531
f 527//527 532//532 533//533
f 527//527 533//533 528//528
f 528//528 533//533 534//534
f 528//528 534//534 530//530
f 526//526 529//529 535//535
f 526//526 535//535 536//536
f 536//536 535//535 513//513
f 536//536 513//513 512//512
f 529//529 531//531 537//537
f 529//529 537//537 535//535
f 535//535 537//537 514//514
f 535//535 514//514 513//513
f 526//526 536//536 538//538
f 526//526 538//538 539//539
f 539//539 538//538 540//540
f 539//539 540//540 541//541
f 536//536 512//512 523//523
f 536//536 523//523 538//538
f 538//538 523//523 525//525
f 538//538 525//525 540//540
f 526//526 539//539 542//542
f 526//526 542//542 527//527
f 527//527 542//542 543//543
f 527//527 543//543 532//532
f 539//539 541//541 544//544
f 539//539 544//544 542//542
f 542//542 544//544 545//545
f 542//542 545//545 543//543
f 546//546 547//547 548//548
f 546//546 548//548 549//549
f 549//549 548//548 550//550
f 549//549 550//550 551//551
f 547//547 552//552 553//553
f 547//547 553//553 548//548
f 548//548 553//553 554//554
f 548//548 554//554 550//550
f 546//546 549//549 555//555
f 546//546 555//555 556//556
f 556//556 555//555 533//533
f 556//556 533//533 532//532
f 549//549 551//551 557//557
f 549//549 557//557 555//555
f 555//555 557//557 534//534
f 555//555 534//534 533//533
f 546//546 556//556 558//558
f 546//546 558//558 559//559
f 559//559 558//558 560//560
f 559//559 560//560 561//561
f 556//556 532//532 543//543
f 556//556 543//543 558//558
f 558//558 543//543 545//545
f 558//558 545//545 560//560
f 546//546 559//559 562//562
f 546//546 562//562 547//547
f 547//547 562//562 563//563
f 547//547 563//563 552//552
f 559//559 561//561 564//564
f 559//559 564//564 562//562
f 562//562 564//564 565//565
f 562//562 565//565 563//563
f 566//566 567//567 568//568
f 566//566 568//568 569//569
f 569//569 568//568 570//570
f 569//569 570//570 571//571
f 567//567 572//572 573//573
f 567//567 573//573 568//568
f 568//568 573//573 574//574
f 568//568 574//574 570//570
f 566//566 569//569 575//575
f 566//566 575//575 576//576
f 576//576 575//575 553//553
f 576//576 553//553 552//552
f 569//569 571//571 577//577
f 569//569 577//577 575//575
f 575//575 577//577 554//554
f 575//575 554//554 553//553
f 566//566 576//576 578//578
f 566//566 578//578 579//579
f 579//579 578//578 580//580
f 579//579 580//580 581//581
f 576//576 552//552 563//563
f 576//576 563//563 578//578
f 578//578 563//563 565//565
f 578//578 565//565 580//580
f 566//566 579//579 582//582
f 566//566 582//582 567//567
f 567//567 582//582 583//583
f 567//567 583//583 572//572
f 579//579 581//581 584//584
f 579//579 584//584 582//582
f 582//582 584//584 585//585
f 582//582 585//585 583//583
f 586//586 587//587 588//588
f 586//586 588//588 589//589
f 589//589 588//588 590//590
f 589//589 590//590 591//591
f 587//587 572//572 583//583
f 587//587 583//583 588//588
f 588//588 583//583 585//585
f 588//588 585//585 590//590
f 586//586 589//589 592//592
f 586//586 592//592 593//593
f 593//593 592//592 594//594
f 593//593 594//594 595//595
f 589//589 591//591 596//596
f 589//589 596//596 592//592
f 592//592 596//596 597//597
f 592//592 597//597 594//594
f 586//586 593//593 598//598
f 586//586 598//598 599//599
f 599//599 598//598 600//600
f 599//599 600//600 601//601
f 593//593 595//595 602//602
f 593//593 602//602 598//598
f 598//598 602//602 603//603
f 598//598 603//603 600//600
f 586//586 599//599 604//604
f 586//586 604//604 587//587
f 587//587 604//604 573//573
f 587//587 573//573 572//572
f 599//599 601//601 605//605
f 599//599 605//605 604//604
f 604//604 605//605 574//574
f 604//604 574//574 573//573
f 606//606 607//607 608//608
f 606//606 608//608 609//609
f 609//609 608//608 610//610
f 609//609 610//610 611//611
f 607//607 612//612 613//613
f 607//607 613//613 608//608
f 608//608 613//613 614//614
f 608//608 614//614 610//610
f 606//606 609//609 615//615
f 606//606 615//615 616//616
f 616//616 615//615 602//602
f 616//616 602//602 595//595
f 609//609 611//611 617//617
f 609//609 617//617 615//615
f 615//615 617//617 603//603
f 615//615 603//603 602//602
f 606//606 616//616 618//618
f 606//606 618//618 619//619
f 619//619 618//618 620//620
f 619//619 620//620 621//621
f 616//616 595//595 594//594
f 616//616 594//594 618//618
f 618//618 594//594 597//597
f 618//618 597//597 620//620
f 606//606 619//619 622//622
f 606//606 622//622 607//607
f 607//607 622//622 623//623
f 607//607 623//623 612//612
f 619//619 621//621 624//624
f 619//619 624//624 622//622
f 622//622 624//624 625//625
f 622//622 625//625 623//623
f 626//626 627//627 628//628
f 626//626 628//628 629//629
f 629//629 628//628 630//630
f 629//629 630//630 631//631
f 627//627 327//327 343//343
f 627//627 343//343 628//628
f 628//628 343//343 345//345
f 628//628 345//345 630//630
f 626//626 629//629 632//632
f 626//626 632//632 633//633
f 633//633 632//632 613//613
f 633//633 613//613 612//612
f 629//629 631//631 634//634
f 629//629 634//634 632//632
f 632//632 634//634 614//614
f 632//632 614//614 613//613
f 626//626 633//633 635//635
f 626//626 635//635 636//636
f 636//636 635//635 637//637
f 636//636 637//637 638//638
f 633//633 612//612 623//623
f 633//633 623//623 635//635
f 635//635 623//623 625//625
f 635//635 625//625 637//637
f 626//626 636//636 639//639
f 626//626 639//639 627//627
f 627//627 639//639 328//328
f 627//627 328//328 327//327
f 636//636 638//638 640//640
f 636//636 640//640 639//639
f 639//639 640//640 329//329
f 639//639 329//329 328//328
