# Generated by lxe_pbrt_scene_convert
v 2.65117192 -0.719682992 1.72504795
v 2.66719699 -0.706430972 1.72552001
v 2.66237593 -0.706175983 1.72552204
v 2.66368604 -0.710606992 1.72549295
v 2.66910005 -0.70896697 1.72550404
v 2.66516805 -0.710991025 1.72510505
v 2.66922593 -0.711884022 1.72548497
v 2.6573081 -0.717694998 1.72544801
v 2.66561508 -0.712035 1.72509801
v 2.67506099 -0.711631 1.72548699
v 2.6716361 -0.710869014 1.725492
v 2.67696404 -0.713913977 1.72547197
v 2.66600108 -0.713114977 1.72547698
v 2.66059899 -0.720445991 1.72543001
v 2.66985893 -0.715044022 1.72546506
v 2.67165995 -0.715427995 1.72507596
v 2.67709088 -0.717845976 1.72544706
v 2.66330004 -0.722760975 1.72541499
v 2.67255998 -0.715623021 1.72546101
v 2.67294598 -0.717166007 1.72545099
v 2.66677308 -0.72526902 1.72539902
v 2.66613293 -0.731649995 1.72497201
v 2.6960969 -0.689773023 1.72562802
v 2.70689988 -0.701153994 1.72555399
v 2.70246291 -0.68919301 1.72563195
v 2.7177031 -0.68996501 1.72562599
v 2.71172309 -0.689387023 1.72563004
v 2.69501591 -0.709010005 1.72511697
v 2.70053411 -0.696331978 1.72558606
v 2.71288109 -0.696331978 1.72558606
v 2.71943998 -0.708678007 1.72550595
v 2.70053411 -0.708099008 1.72550905
v 2.70470405 -0.708483994 1.72512102
v 2.70902205 -0.708099008 1.72550905
v 2.71328807 -0.708244979 1.72512305
v 2.75152493 -0.707130015 1.72551596
v 2.74752688 -0.703319013 1.725541
v 2.73565102 -0.718617022 1.72505605
v 2.74529099 -0.715049028 1.72546506
v 2.75840998 -0.714272022 1.72546995
v 2.75545502 -0.710546017 1.72549403
v 2.75184989 -0.71658802 1.72545505
v 2.75223589 -0.723146975 1.72541296
v 2.7398119 -0.722642004 1.72502995
v 2.74327803 -0.726522028 1.72500503
v 2.76419711 -0.723339021 1.72541201
v 2.76149702 -0.718903005 1.72544003
v 2.74656606 -0.731737018 1.72497106
v 2.65171409 -0.719606996 1.72273099
v 2.66719699 -0.706413984 1.72281504
v 2.66219807 -0.705766022 1.723351
v 2.66385794 -0.710978985 1.72317302
v 2.66948009 -0.708817005 1.72333097
v 2.66542196 -0.710590005 1.72278798
v 2.66922593 -0.711866975 1.72277999
v 2.6573081 -0.71767801 1.72274303
v 2.66600108 -0.711939991 1.72277999
v 2.67506099 -0.711614013 1.72278202
v 2.6716001 -0.71045202 1.72332096
v 2.67734599 -0.713755012 1.72329903
v 2.66561508 -0.712972999 1.72316003
v 2.66059899 -0.72042799 1.72272503
v 2.67003798 -0.715416014 1.72314405
v 2.67178893 -0.715026021 1.72275996
v 2.67748189 -0.71796602 1.72327197
v 2.66330004 -0.722743988 1.72271097
v 2.67255998 -0.715605021 1.72275603
v 2.67252588 -0.717064977 1.72313404
v 2.66677308 -0.725251019 1.72269499
v 2.66607809 -0.731096983 1.72265697
v 2.69572306 -0.689404011 1.72345996
v 2.70689988 -0.701137006 1.72284997
v 2.70246291 -0.689176023 1.72292697
v 2.7177031 -0.689947009 1.72292197
v 2.71147394 -0.688960016 1.72346306
v 2.69541788 -0.70856899 1.72280204
v 2.70053411 -0.696313977 1.72288001
v 2.71288109 -0.696313977 1.72288001
v 2.7198689 -0.709110975 1.723333
v 2.7009201 -0.708437026 1.72333801
v 2.70497108 -0.70808202 1.72280502
v 2.70930195 -0.708472013 1.72333801
v 2.7136519 -0.70788902 1.72280598
v 2.7361629 -0.71855998 1.72273803
v 2.75204611 -0.707078993 1.72341704
v 2.74747801 -0.702724993 1.72344506
v 2.74529099 -0.715031981 1.72275996
v 2.75889111 -0.714244008 1.72337103
v 2.75557208 -0.710058987 1.72339797
v 2.75184989 -0.71657002 1.72275102
v 2.75223589 -0.723128974 1.72270799
v 2.73988891 -0.722163975 1.72271395
v 2.74375296 -0.726535022 1.72268605
v 2.76475406 -0.723497987 1.72331095
v 2.76149702 -0.718886018 1.72273505
v 2.74671292 -0.731231987 1.72265601
v 2.746557 -0.714052975 1.72337198
v 2.75336099 -0.722193003 1.72331905
v 2.74656606 -0.731725991 1.72325802
v 2.74327803 -0.726511002 1.72329199
v 2.75048804 -0.717638016 1.72334898
v 2.7398119 -0.722630978 1.72331595
v 2.73565102 -0.718605995 1.72334301
v 2.75204611 -0.70709002 1.72512996
v 2.74747801 -0.702735007 1.72515702
v 2.746557 -0.714064002 1.72508502
v 2.75557208 -0.710070014 1.72511005
v 2.75889111 -0.714254975 1.72508395
v 2.75336099 -0.722203016 1.72503197
v 2.76164794 -0.718406022 1.72505701
v 2.76475406 -0.723509014 1.72502398
v 2.75048804 -0.717648983 1.72506201
v 2.65117192 -0.719672024 1.723261
v 2.66613293 -0.731639028 1.72318399
v 2.66739702 -0.706050992 1.72513604
v 2.66948009 -0.708828986 1.72511899
v 2.66958809 -0.711310983 1.72510195
v 2.6752739 -0.711279988 1.72510302
v 2.67734599 -0.713765979 1.72508705
v 2.66561508 -0.712022007 1.72316599
v 2.66516805 -0.710978985 1.72317302
v 2.65786409 -0.717652977 1.72506106
v 2.660532 -0.719883025 1.72504699
v 2.67165995 -0.715416014 1.72314405
v 2.66386604 -0.722689986 1.72502899
v 2.66669393 -0.724731982 1.725016
v 2.706918 -0.700078011 1.72339106
v 2.71328807 -0.708234012 1.72333896
v 2.71262789 -0.698329985 1.72340202
v 2.70470405 -0.708472013 1.72333801
v 2.7009201 -0.698436975 1.72340202
v 2.69501591 -0.708998978 1.72333395
v 2.70272207 -0.68878001 1.72524798
v 2.706918 -0.700088978 1.72517502
v 2.71805906 -0.689608991 1.72524202
v 2.71262789 -0.698341012 1.72518599
v 2.7009201 -0.698449016 1.72518504
v 2.66476011 -0.74158299 1.72484899
v 2.66360593 -0.753208995 1.72477496
v 2.66360593 -0.753196001 1.72281802
v 2.66476011 -0.741569996 1.72289205
v 2.66556501 -0.764961004 1.72469902
v 2.66556501 -0.76494801 1.72274196
v 2.67098594 -0.728845 1.72493196
v 2.67098594 -0.72883302 1.72297394
v 2.68023205 -0.718722999 1.72499704
v 2.68023205 -0.718711019 1.72303998
v 2.69300604 -0.711896002 1.72503996
v 2.69300604 -0.711884022 1.72308302
v 2.70677996 -0.709493995 1.72505605
v 2.70677996 -0.709481001 1.72309899
v 2.72214007 -0.71183598 1.72504103
v 2.72214007 -0.711824 1.72308302
v 2.73362207 -0.719034016 1.72499394
v 2.73362207 -0.719021022 1.723037
v 2.7432251 -0.729471982 1.72492695
v 2.7432251 -0.729458988 1.72297001
v 2.74844408 -0.74011898 1.724859
v 2.74844408 -0.740105987 1.72290206
v 2.75011301 -0.75306201 1.72477603
v 2.75011301 -0.753049016 1.72281802
v 2.74489498 -0.772894025 1.724648
v 2.74489498 -0.772880971 1.72269106
v 2.73403907 -0.785628021 1.72456598
v 2.73403907 -0.785615027 1.72260904
v 2.72088695 -0.793142974 1.72451794
v 2.72088695 -0.793129981 1.722561
v 2.70669103 -0.795911014 1.72449994
v 2.70669103 -0.79589802 1.722543
v 2.69437408 -0.794187009 1.72451198
v 2.69437408 -0.794174016 1.72255397
v 2.68143106 -0.787923992 1.72455204
v 2.68143106 -0.787912011 1.72259402
v 2.670784 -0.776859999 1.72462296
v 2.670784 -0.776847005 1.72266495
v 2.70673609 -0.752690017 1.722821
v 2.66287398 -0.753214002 1.72474694
v 2.664047 -0.741392016 1.72482395
v 2.66486597 -0.765165985 1.72467005
v 2.67037892 -0.728438973 1.72490704
v 2.67978096 -0.718145013 1.72497296
v 2.69277096 -0.711202979 1.72501802
v 2.70677805 -0.708760977 1.725034
v 2.72239709 -0.711143017 1.72501802
v 2.73407292 -0.71846199 1.72497106
v 2.74383903 -0.729076028 1.72490299
v 2.74914598 -0.739902973 1.72483301
v 2.750844 -0.75306499 1.72474802
v 2.74553704 -0.773231983 1.72461903
v 2.73449802 -0.786181986 1.72453594
v 2.72112393 -0.793824017 1.72448599
v 2.70668793 -0.796639979 1.72446799
v 2.69416189 -0.794885993 1.72447896
v 2.68099999 -0.788516998 1.72451997
v 2.67017293 -0.777266026 1.72459304
v 2.63692498 -0.753421009 1.72386599
v 2.63878989 -0.734631002 1.72398603
v 2.63878989 -0.734622002 1.72259796
v 2.63692498 -0.753412008 1.72247803
v 2.64009094 -0.772417009 1.72374296
v 2.64009094 -0.772408009 1.72235501
v 2.64885306 -0.714043975 1.72411895
v 2.64885306 -0.714034975 1.72273099
v 2.6637969 -0.69768399 1.72422504
v 2.6637969 -0.69767499 1.72283602
v 2.684443 -0.686649024 1.72429502
v 2.684443 -0.686640978 1.72290695
v 2.70670605 -0.682766974 1.72432005
v 2.70670605 -0.682757974 1.72293198
v 2.7315321 -0.686553001 1.72429597
v 2.7315321 -0.686544001 1.72290802
v 2.75008988 -0.69818598 1.72422099
v 2.75008988 -0.69817698 1.72283304
v 2.76561093 -0.715057015 1.72411203
v 2.76561093 -0.715049028 1.72272396
v 2.77404594 -0.732264996 1.724002
v 2.77404594 -0.732255995 1.72261405
v 2.77674508 -0.753184021 1.72386706
v 2.77674508 -0.75317502 1.72247899
v 2.76831007 -0.785238028 1.72366095
v 2.76831007 -0.785229027 1.72227299
v 2.75076389 -0.805819988 1.72352803
v 2.75076389 -0.805810988 1.72213995
v 2.72950697 -0.817966998 1.72344995
v 2.72950697 -0.817957997 1.72206199
v 2.706563 -0.822441995 1.72342098
v 2.706563 -0.822432995 1.72203302
v 2.68665504 -0.819653988 1.72344005
v 2.68665504 -0.819644988 1.72205198
v 2.66573501 -0.809531987 1.72350395
v 2.66573501 -0.809522986 1.72211599
v 2.64852691 -0.791648984 1.72361898
v 2.64852691 -0.791639984 1.72223103
v 2.6716001 -0.710462987 1.72498298
v 2.67748189 -0.717976987 1.72493398
v 2.65042496 -0.790386975 1.72362697
v 2.64226389 -0.771780014 1.72374797
v 2.64226389 -0.771784008 1.72430396
v 2.65042496 -0.790391028 1.72418499
v 2.66707397 -0.807687998 1.72351694
v 2.66707397 -0.807691991 1.72407305
v 2.68731403 -0.817481995 1.72345304
v 2.68731403 -0.817484975 1.72400999
v 2.70657301 -0.820177972 1.723436
v 2.70657301 -0.820181012 1.72399294
v 2.72877192 -0.815849006 1.72346401
v 2.72877192 -0.815853 1.72402096
v 2.74933791 -0.804096997 1.72353899
v 2.74933791 -0.80410099 1.72409594
v 2.76631308 -0.784184992 1.72366798
v 2.76631308 -0.784188986 1.72422504
v 2.77447391 -0.753172994 1.72386706
v 2.77447391 -0.753176987 1.724424
v 2.77186298 -0.732935011 1.723997
v 2.77186298 -0.732937992 1.72455502
v 2.76370096 -0.716286004 1.72410405
v 2.76370096 -0.716289997 1.72466195
v 2.74868488 -0.699963987 1.72420895
v 2.74868488 -0.69996798 1.72476602
v 2.73073101 -0.688709021 1.72428203
v 2.73073101 -0.688713014 1.72483802
v 2.70671201 -0.685046017 1.72430503
v 2.70671201 -0.685048997 1.72486305
v 2.68517399 -0.688802004 1.72428095
v 2.68517399 -0.688805997 1.72483802
v 2.66519904 -0.699477017 1.724213
v 2.66519904 -0.69948101 1.724769
v 2.6507411 -0.715305984 1.72411096
v 2.6507411 -0.715309024 1.72466695
v 2.64100504 -0.735224009 1.72398305
v 2.64100504 -0.735228002 1.72453904
v 2.63920093 -0.753401995 1.72386599
v 2.63920093 -0.753405988 1.72442305
v 2.64852691 -0.791652977 1.724177
v 2.64009094 -0.772419989 1.72430003
v 2.66573501 -0.809535027 1.72406101
v 2.68665504 -0.819657981 1.723997
v 2.706563 -0.822444975 1.72397804
v 2.72950697 -0.817970991 1.72400701
v 2.75076389 -0.805823982 1.72408497
v 2.76831007 -0.785241008 1.72421801
v 2.77674508 -0.753188014 1.724424
v 2.77404594 -0.732268989 1.724558
v 2.76561093 -0.715061009 1.72466898
v 2.75008988 -0.698189974 1.72477806
v 2.7315321 -0.686556995 1.72485197
v 2.70670605 -0.682770014 1.724877
v 2.684443 -0.686653018 1.72485197
v 2.6637969 -0.69768697 1.72478104
v 2.64885306 -0.714047015 1.72467601
v 2.63878989 -0.734634995 1.72454298
v 2.63692498 -0.753425002 1.72442305
vn -0.798799992 -0.0945999995 0.594099998
vn 0.204400003 0.381099999 0.901600003
vn -0.313800007 0.688600004 0.653699994
vn 0.158299997 -0.457199991 0.875100017
vn 0.393299997 0.124300003 0.910899997
vn -0.284399986 -0.638599992 0.714999974
vn -0.0102000004 -0.0764999986 0.996999979
vn 0.0973000005 0.0195000004 0.995100021
vn -0.719600022 -0.154300004 0.676999986
vn 0.224999994 0.363200009 0.904100001
vn -0.0401000008 0.485199988 0.87349999
vn 0.3917 0.136500001 0.90990001
vn -0.466199994 0.275599986 0.840600014
vn -0.0410000011 0.110100001 0.992999971
vn 0.203999996 -0.480399996 0.852999985
vn -0.301200002 -0.685400009 0.662899971
vn 0.466500014 -0.164499998 0.869099975
vn 0.116899997 -0.0200999994 0.992900014
vn 0.0886000022 0.809000015 0.581099987
vn -0.469099998 0.0310999993 0.882600009
vn -0.0200999994 0.108999997 0.993799984
vn 0.0800999999 -0.828400016 0.554400027
vn -0.578400016 0.545899987 0.60619998
vn -0.0174000002 0.0193000007 0.999599993
vn 0.233799994 0.365399987 0.901000023
vn 0.308800012 0.301999986 0.901899993
vn -0.402200013 0.675000012 0.618499994
vn -0.538699985 -0.578400016 0.612600029
vn -0.0107000005 -0.0251000002 0.999599993
vn -0.00100000005 -0.0198999997 0.999800026
vn 0.564499974 -0.58130002 0.586000025
vn 0.557600021 -0.518299997 0.648400009
vn -0.457300007 -0.671500027 0.583000004
vn 0.433999985 -0.618200004 0.655300021
vn -0.588999987 -0.561800003 0.580900013
vn 0.424299985 0.0231999997 0.905200005
vn -0.0361000001 0.4014 0.915199995
vn -0.815400004 -0.0732000023 0.574299991
vn -0.0151000004 -0.0037 0.999899983
vn 0.439200014 0.00779999979 0.898400009
vn 0.104800001 0.419699997 0.901600003
vn -0.0178999994 -0.0200999994 0.999599993
vn 0.00340000005 -0.0412999988 0.999100029
vn -0.138300002 -0.800400019 0.583199978
vn -0.808600008 0.0379999988 0.587199986
vn 0.393400013 -0.128900006 0.9102
vn 0.126499996 0.407299995 0.904500008
vn -0.237599999 -0.784099996 0.573300004
vn -0.932600021 -0.123999998 -0.338999987
vn 0.308299989 0.712899983 0.629800022
vn -0.272599995 0.692300022 0.668099999
vn 0.132200003 -0.593400002 0.793900013
vn 0.8046 0.261799991 0.532899976
vn 0.0238000005 -0.926100016 0.376599997
vn 0.105400003 0.250999987 0.962199986
vn 0.398200005 -0.0214000009 0.917100012
vn -0.59740001 0.0914999992 0.796700001
vn 0.363000005 0.706700027 0.607299984
vn -0.104599997 0.799499989 0.591400027
vn 0.729900002 0.350499988 0.586799979
vn -0.708500028 0.228400007 0.667699993
vn -0.0489999987 0.359699994 0.931800008
vn 0.217999995 -0.652999997 0.725300014
vn -0.0127999997 -0.984399974 -0.175500005
vn 0.722500026 -0.257800013 0.641499996
vn 0.362800002 0.0331999995 0.931299984
vn -0.583800018 -0.499799997 0.639800012
vn -0.674399972 0.0832000002 0.73360002
vn -0.0829000026 0.393599987 0.915499985
vn 0.0749000013 -0.93900001 -0.335500002
vn -0.539900005 0.551800013 0.635500014
vn -0.0151000004 0.0785000026 0.996800005
vn 0.485900015 0.69599998 0.528699994
vn 0.59740001 0.542299986 0.590699971
vn -0.370400012 0.667699993 0.645699978
vn -0.676999986 -0.631600022 -0.377799988
vn -0.0474000014 -0.110600002 0.992699981
vn -0.0324999988 -0.00730000017 0.99940002
vn 0.519800007 -0.597899973 0.610199988
vn 0.548699975 -0.541800022 0.636699975
vn -0.639400005 -0.764800012 -0.0790000036
vn 0.424100012 -0.652499974 0.628000021
vn -0.756799996 -0.626699984 -0.185699999
vn -0.980700016 -0.1008 -0.167199999
vn 0.827300012 0.0214000009 0.56129998
vn -0.0925000012 0.818400025 0.567099988
vn 0.0370999984 -0.0537 0.997900009
vn 0.809099972 -0.0126999998 0.587400019
vn 0.164800003 0.792699993 0.586899996
vn -0.0676999986 -0.0974999964 0.992900014
vn -0.0163000003 0.0898000002 0.995800018
vn -0.164800003 -0.984600008 -0.057599999
vn -0.995599985 0.0623000003 -0.0693999976
vn 0.848200023 -0.191499993 0.493800014
vn 0.191400006 0.862999976 0.467500001
vn -0.304500014 -0.93809998 -0.164900005
vn 0.424499989 0.335299999 -0.841000021
vn 0.435499996 0.363700002 -0.823499978
vn -0.273999989 -0.9102 -0.310499996
vn -0.953999996 0.0590999983 -0.293900013
vn -0.400000006 -0.306300014 -0.863799989
vn -0.157700002 -0.941200018 -0.298799992
vn -0.949100018 -0.075000003 -0.305799991
vn 0.919799984 0.0631999969 0.387100011
vn -0.0775000006 0.911499977 0.403800011
vn 0.313199997 0.237599999 0.919399977
vn 0.221200004 0.895600021 0.385899991
vn 0.925000012 0.0265999995 0.378899992
vn 0.345800012 0.278400004 0.896000028
vn 0.272700012 0.899500012 0.341199994
vn 0.893400013 -0.270399988 0.358799994
vn -0.292499989 -0.233999997 0.927200019
vn -0.947899997 -0.1039 -0.301200002
vn 0.0956000015 -0.934599996 -0.342500001
vn 0.430400014 0.834900022 0.343100011
vn 0.89200002 0.312999994 0.326200008
vn 0.416500002 0.654299974 0.631200016
vn 0.49000001 0.807500005 0.328299999
vn 0.871900022 0.344900012 0.347600013
vn -0.893700004 -0.2271 -0.386799991
vn -0.511300027 -0.717199981 -0.4736
vn 0.851100028 0.0549000017 0.522000015
vn -0.103500001 0.8398 0.532899976
vn -0.412699997 -0.779600024 -0.471100003
vn 0.840699971 0.0954999998 0.532899976
vn -0.1285 0.847899973 0.514199972
vn 0.0115 0.676800013 -0.736000001
vn -0.693700016 -0.657000005 -0.29519999
vn -0.0571000017 -0.418900013 -0.906199992
vn -0.536300004 -0.792100012 -0.291500002
vn 0.069600001 -0.395700008 -0.915700018
vn -0.656700015 -0.704699993 -0.2685
vn 0.495599985 0.790899992 0.358900011
vn 0.00999999978 0.559099972 0.828999996
vn 0.654900014 0.648000002 0.388900012
vn -0.0428999998 -0.320199996 0.94630003
vn 0.0509000011 -0.301999986 0.951900005
vn 0.622099996 -0.181600004 0.761600018
vn 0.659200013 0.0168999992 0.751699984
vn 0.734099984 0.0199999996 0.678799987
vn 0.714699984 -0.207300007 0.668099999
vn 0.63410002 0.183899999 0.750999987
vn 0.702499986 0.204699993 0.681599975
vn 0.542999983 -0.374199986 0.751699984
vn 0.608900011 -0.418599993 0.673799992
vn 0.398299992 -0.51730001 0.757499993
vn 0.455000013 -0.589699984 0.667200029
vn 0.212400004 -0.621399999 0.754100025
vn 0.240899995 -0.703499973 0.668600023
vn 0.00689999992 -0.656099975 0.754599988
vn 0.00789999962 -0.744300008 0.667699993
vn -0.222399995 -0.603900015 0.765399992
vn -0.26030001 -0.704999983 0.659600019
vn -0.421400011 -0.511900008 0.74849999
vn -0.469700009 -0.569400012 0.674600005
vn -0.541800022 -0.37529999 0.751999974
vn -0.608099997 -0.420100003 0.673500001
vn -0.623099983 -0.192200005 0.75819999
vn -0.708999991 -0.217500001 0.670799971
vn -0.640500009 0.0362000018 0.767099977
vn -0.744000018 0.0438000001 0.666700006
vn -0.560299993 0.287900001 0.776600003
vn -0.665499985 0.343600005 0.662500024
vn -0.413300008 0.493800014 0.764999986
vn -0.473500013 0.566999972 0.674000025
vn -0.226500005 0.604900002 0.763400018
vn -0.2579 0.689499974 0.676699996
vn -0.0172000006 0.644800007 0.764199972
vn -0.0197999999 0.736100018 0.676500022
vn 0.189700007 0.619799972 0.761399984
vn 0.214699998 0.702700019 0.678300023
vn 0.379900008 0.51849997 0.765999973
vn 0.436199993 0.596899986 0.673399985
vn 0.537599981 0.354900002 0.764900029
vn 0.617200017 0.408699989 0.672299981
vn 0 -0.00639999984 1
vn -0.0373000018 -0.00769999996 0.999300003
vn -0.0353999995 0.00359999994 0.99940002
vn -0.0359999985 -0.0171000008 0.999199986
vn -0.0307999998 0.0144999996 0.99940002
vn -0.0228000004 0.0228000004 0.999499977
vn -0.0120999999 0.0286999997 0.999499977
vn -0.00039999999 0.0306000002 0.999499977
vn 0.0127999997 0.0280000009 0.999499977
vn 0.0238000005 0.0221999995 0.999499977
vn 0.0307999998 0.0146000003 0.99940002
vn 0.0355999991 0.00419999985 0.999300003
vn 0.0373999998 -0.00889999978 0.999199986
vn 0.0333000012 -0.0238000005 0.999100029
vn 0.0241 -0.0355999991 0.999100029
vn 0.0131999999 -0.0419000015 0.999000013
vn 0.00100000005 -0.0439000018 0.999000013
vn -0.0108000003 -0.0421999991 0.999000013
vn -0.0218000002 -0.0366000012 0.999100029
vn -0.0308999997 -0.0271000005 0.999100029
vn -0.999499977 -0.0331000015 -0.000199999995
vn -0.961899996 0.273200005 0.00179999997
vn -0.961899996 0.273299992 0.00170000002
vn -0.999499977 -0.0331000015 -0.000199999995
vn -0.958400011 -0.2852 -0.00179999997
vn -0.958400011 -0.2852 -0.00179999997
vn -0.826799989 0.5625 0.00359999994
vn -0.826699972 0.5625 0.00359999994
vn -0.613699973 0.789499998 0.00499999989
vn -0.613699973 0.789499998 0.00510000018
vn -0.325700015 0.9454 0.00600000005
vn -0.325700015 0.9454 0.00600000005
vn -0.0107000005 0.999899983 0.00650000013
vn -0.0107000005 0.999899983 0.00630000001
vn 0.348199993 0.937399983 0.00600000005
vn 0.348199993 0.937399983 0.00609999988
vn 0.639199972 0.768999994 0.00480000023
vn 0.639199972 0.768999994 0.00499999989
vn 0.825500011 0.564400017 0.00340000005
vn 0.825500011 0.564400017 0.00359999994
vn 0.957599998 0.287900001 0.00179999997
vn 0.957599998 0.287900001 0.00179999997
vn 0.997900009 -0.0644999966 -0.00039999999
vn 0.997900009 -0.0644999966 -0.00039999999
vn 0.886200011 -0.463200003 -0.00289999996
vn 0.886200011 -0.463200003 -0.00300000003
vn 0.638100028 -0.769900024 -0.00490000006
vn 0.638100028 -0.769999981 -0.00490000006
vn 0.348399997 -0.937300026 -0.00609999988
vn 0.348399997 -0.937300026 -0.00600000005
vn 0.0266999993 -0.999599993 -0.00650000013
vn 0.0266999993 -0.999599993 -0.00639999984
vn -0.290699989 -0.956799984 -0.00620000018
vn -0.290600002 -0.956799984 -0.00609999988
vn -0.587199986 -0.809400022 -0.00520000001
vn -0.587199986 -0.809400022 -0.00510000018
vn -0.83099997 -0.556100011 -0.00350000011
vn -0.83099997 -0.556100011 -0.00350000011
vn -0.0909999982 0.961099982 0.260800004
vn 0.898999989 -0.313199997 0.306100011
vn 0.607800007 0.402399987 0.684499979
vn 0.691100001 0.201199993 0.694100022
vn 0.648800015 0.1884 0.737200022
vn 0.550800025 0.363799989 0.75120002
vn 0.429500014 0.587700009 0.685599983
vn 0.389099985 0.531499982 0.752399981
vn 0.211400002 0.691600025 0.690599978
vn 0.194299996 0.634800017 0.747799993
vn -0.0196000002 0.724699974 0.688799977
vn -0.0177999996 0.660700023 0.750400007
vn -0.253899992 0.678600013 0.689100027
vn -0.232199997 0.619799972 0.749599993
vn -0.466100007 0.558000028 0.686500013
vn -0.423500001 0.506200016 0.75120002
vn -0.655900002 0.338499993 0.674700022
vn -0.575200021 0.295700014 0.762700021
vn -0.732900023 0.0430999994 0.678900003
vn -0.656700015 0.0375999995 0.753199995
vn -0.698099971 -0.214300007 0.683099985
vn -0.638000011 -0.196600005 0.744499981
vn -0.598500013 -0.413700014 0.68599999
vn -0.55430001 -0.3838 0.738499999
vn -0.462199986 -0.560400009 0.68720001
vn -0.431100011 -0.523400009 0.735000014
vn -0.256500006 -0.694999993 0.671700001
vn -0.228 -0.618700027 0.751800001
vn 0.00779999979 -0.73299998 0.680100024
vn 0.00710000005 -0.671500027 0.740999997
vn 0.237100005 -0.692799985 0.680999994
vn 0.217399999 -0.635999978 0.740400016
vn 0.448100001 -0.580900013 0.679499984
vn 0.407900006 -0.529500008 0.743700027
vn 0.599300027 -0.412200004 0.686200023
vn 0.555700004 -0.382800013 0.737999976
vn 0.70389998 -0.204400003 0.680199981
vn 0.637199998 -0.185800001 0.747900009
vn 0.722299993 0.0195000004 0.691200018
vn 0.674499989 0.0175999999 0.738099992
vn -0.617200017 -0.417299986 0.666999996
vn -0.702400029 -0.213400006 0.678900003
vn -0.436199993 -0.605499983 0.665600002
vn -0.2148 -0.711300015 0.669200003
vn 0.0197999999 -0.744799972 0.666899979
vn 0.2579 -0.698300004 0.667699993
vn 0.473500013 -0.575600028 0.666700006
vn 0.665499985 -0.351999998 0.658100009
vn 0.744000018 -0.0522000007 0.666100025
vn 0.709100008 0.208900005 0.673399985
vn 0.608299971 0.411599994 0.67869997
vn 0.469700009 0.560699999 0.681800008
vn 0.26030001 0.696500003 0.668600023
vn -0.00789999962 0.735599995 0.677299976
vn -0.240899995 0.694800019 0.677600026
vn -0.455000013 0.581099987 0.674700022
vn -0.608900011 0.409799993 0.679099977
vn -0.714600027 0.198599994 0.670700014
vn -0.734000027 -0.0286999997 0.678499997
f 1//1 2//2 3//3
f 1//1 4//4 2//2
f 4//4 5//5 2//2
f 4//4 6//6 5//5
f 6//6 7//7 5//5
f 1//1 8//8 4//4
f 9//9 7//7 6//6
f 7//7 10//10 11//11
f 7//7 12//12 10//10
f 9//9 12//12 7//7
f 13//13 12//12 9//9
f 14//14 15//15 13//13
f 15//15 12//12 13//13
f 15//15 16//16 12//12
f 16//16 17//17 12//12
f 14//14 18//18 15//15
f 19//19 17//17 16//16
f 20//20 17//17 19//19
f 21//21 17//17 20//20
f 1//1 14//14 8//8
f 21//21 22//22 17//17
f 22//22 14//14 1//1
f 22//22 18//18 14//14
f 22//22 21//21 18//18
f 23//23 24//24 25//25
f 24//24 26//26 27//27
f 28//28 29//29 23//23
f 29//29 24//24 23//23
f 24//24 30//30 26//26
f 30//30 31//31 26//26
f 28//28 32//32 29//29
f 33//33 24//24 29//29
f 24//24 34//34 30//30
f 35//35 31//31 30//30
f 33//33 34//34 24//24
f 36//36 37//37 38//38
f 38//38 39//39 36//36
f 39//39 40//40 41//41
f 39//39 42//42 40//40
f 42//42 43//43 40//40
f 38//38 42//42 39//39
f 38//38 44//44 42//42
f 45//45 43//43 42//42
f 43//43 46//46 47//47
f 45//45 46//46 43//43
f 45//45 48//48 46//46
f 49//49 50//50 51//51
f 49//49 52//52 50//50
f 52//52 53//53 50//50
f 52//52 54//54 53//53
f 54//54 55//55 53//53
f 49//49 56//56 52//52
f 57//57 55//55 54//54
f 55//55 58//58 59//59
f 55//55 60//60 58//58
f 57//57 60//60 55//55
f 61//61 60//60 57//57
f 62//62 63//63 61//61
f 63//63 60//60 61//61
f 63//63 64//64 60//60
f 64//64 65//65 60//60
f 62//62 66//66 63//63
f 67//67 65//65 64//64
f 68//68 65//65 67//67
f 69//69 65//65 68//68
f 49//49 62//62 56//56
f 69//69 70//70 65//65
f 70//70 62//62 49//49
f 70//70 66//66 62//62
f 70//70 69//69 66//66
f 71//71 72//72 73//73
f 72//72 74//74 75//75
f 76//76 77//77 71//71
f 77//77 72//72 71//71
f 72//72 78//78 74//74
f 78//78 79//79 74//74
f 76//76 80//80 77//77
f 81//81 72//72 77//77
f 72//72 82//82 78//78
f 83//83 79//79 78//78
f 81//81 82//82 72//72
f 84//84 85//85 86//86
f 84//84 87//87 85//85
f 87//87 88//88 89//89
f 87//87 90//90 88//88
f 90//90 91//91 88//88
f 84//84 90//90 87//87
f 84//84 92//92 90//90
f 93//93 91//91 90//90
f 91//91 94//94 95//95
f 93//93 94//94 91//91
f 93//93 96//96 94//94
f 85//85 97//97 87//87
f 97//97 89//89 87//87
f 88//88 98//98 91//91
f 98//98 95//95 91//91
f 94//94 99//99 96//96
f 99//99 100//100 93//93
f 99//99 93//93 96//96
f 100//100 101//101 90//90
f 100//100 90//90 93//93
f 101//101 102//102 92//92
f 101//101 92//92 90//90
f 102//102 103//103 84//84
f 102//102 84//84 92//92
f 103//103 86//86 84//84
f 37//37 36//36 104//104
f 37//37 104//104 105//105
f 36//36 39//39 106//106
f 36//36 106//106 104//104
f 39//39 41//41 107//107
f 39//39 107//107 106//106
f 41//41 40//40 108//108
f 41//41 108//108 107//107
f 40//40 43//43 109//109
f 40//40 109//109 108//108
f 43//43 47//47 110//110
f 43//43 110//110 109//109
f 47//47 46//46 111//111
f 47//47 111//111 110//110
f 46//46 48//48 111//111
f 45//45 42//42 112//112
f 42//42 44//44 112//112
f 38//38 37//37 105//105
f 113//113 51//51 49//49
f 65//65 114//114 70//70
f 114//114 113//113 49//49
f 114//114 49//49 70//70
f 3//3 2//2 115//115
f 2//2 5//5 116//116
f 2//2 116//116 115//115
f 5//5 7//7 117//117
f 5//5 117//117 116//116
f 7//7 11//11 117//117
f 11//11 10//10 118//118
f 10//10 12//12 119//119
f 10//10 119//119 118//118
f 12//12 17//17 119//119
f 61//61 120//120 57//57
f 120//120 121//121 54//54
f 120//120 54//54 57//57
f 121//121 52//52 54//54
f 122//122 123//123 62//62
f 122//122 62//62 56//56
f 123//123 13//13 61//61
f 123//123 61//61 62//62
f 13//13 9//9 120//120
f 13//13 120//120 61//61
f 9//9 6//6 121//121
f 9//9 121//121 120//120
f 6//6 4//4 52//52
f 6//6 52//52 121//121
f 4//4 122//122 56//56
f 4//4 56//56 52//52
f 8//8 14//14 123//123
f 8//8 123//123 122//122
f 14//14 13//13 123//123
f 4//4 8//8 122//122
f 68//68 124//124 67//67
f 124//124 64//64 67//67
f 124//124 63//63 64//64
f 125//125 126//126 69//69
f 125//125 69//69 66//66
f 126//126 20//20 68//68
f 126//126 68//68 69//69
f 20//20 16//16 124//124
f 20//20 124//124 68//68
f 16//16 15//15 63//63
f 16//16 63//63 124//124
f 15//15 125//125 66//66
f 15//15 66//66 63//63
f 18//18 21//21 126//126
f 18//18 126//126 125//125
f 21//21 20//20 126//126
f 20//20 19//19 16//16
f 15//15 18//18 125//125
f 73//73 127//127 72//72
f 127//127 75//75 72//72
f 79//79 128//128 83//83
f 128//128 129//129 78//78
f 128//128 78//78 83//83
f 129//129 82//82 78//78
f 82//82 130//130 81//81
f 130//130 131//131 77//77
f 130//130 77//77 81//81
f 131//131 80//80 77//77
f 80//80 132//132 76//76
f 132//132 71//71 76//76
f 23//23 25//25 133//133
f 25//25 24//24 134//134
f 25//25 134//134 133//133
f 24//24 27//27 134//134
f 27//27 26//26 135//135
f 26//26 31//31 135//135
f 35//35 30//30 136//136
f 30//30 34//34 136//136
f 33//33 29//29 137//137
f 29//29 32//32 137//137
f 138//138 139//139 140//140
f 138//138 140//140 141//141
f 139//139 142//142 143//143
f 139//139 143//143 140//140
f 144//144 138//138 141//141
f 144//144 141//141 145//145
f 146//146 144//144 145//145
f 146//146 145//145 147//147
f 148//148 146//146 147//147
f 148//148 147//147 149//149
f 150//150 148//148 149//149
f 150//150 149//149 151//151
f 152//152 150//150 151//151
f 152//152 151//151 153//153
f 154//154 152//152 153//153
f 154//154 153//153 155//155
f 156//156 154//154 155//155
f 156//156 155//155 157//157
f 158//158 156//156 157//157
f 158//158 157//157 159//159
f 160//160 158//158 159//159
f 160//160 159//159 161//161
f 162//162 160//160 161//161
f 162//162 161//161 163//163
f 164//164 162//162 163//163
f 164//164 163//163 165//165
f 166//166 164//164 165//165
f 166//166 165//165 167//167
f 168//168 166//166 167//167
f 168//168 167//167 169//169
f 170//170 168//168 169//169
f 170//170 169//169 171//171
f 172//172 170//170 171//171
f 172//172 171//171 173//173
f 174//174 172//172 173//173
f 174//174 173//173 175//175
f 142//142 174//174 175//175
f 142//142 175//175 143//143
f 149//149 176//176 151//151
f 147//147 176//176 149//149
f 145//145 176//176 147//147
f 141//141 176//176 145//145
f 141//141 140//140 176//176
f 140//140 143//143 176//176
f 143//143 175//175 176//176
f 173//173 176//176 175//175
f 171//171 176//176 173//173
f 169//169 176//176 171//171
f 151//151 176//176 153//153
f 153//153 176//176 155//155
f 155//155 176//176 157//157
f 157//157 176//176 159//159
f 159//159 176//176 161//161
f 167//167 176//176 169//169
f 165//165 176//176 167//167
f 163//163 176//176 165//165
f 161//161 176//176 163//163
f 177//177 139//139 138//138
f 177//177 138//138 178//178
f 179//179 142//142 139//139
f 179//179 139//139 177//177
f 178//178 138//138 144//144
f 178//178 144//144 180//180
f 180//180 144//144 146//146
f 180//180 146//146 181//181
f 181//181 146//146 148//148
f 181//181 148//148 182//182
f 182//182 148//148 150//150
f 182//182 150//150 183//183
f 183//183 150//150 152//152
f 183//183 152//152 184//184
f 184//184 152//152 154//154
f 184//184 154//154 185//185
f 185//185 154//154 156//156
f 185//185 156//156 186//186
f 186//186 156//156 158//158
f 186//186 158//158 187//187
f 187//187 158//158 160//160
f 187//187 160//160 188//188
f 188//188 160//160 162//162
f 188//188 162//162 189//189
f 189//189 162//162 164//164
f 189//189 164//164 190//190
f 190//190 164//164 166//166
f 190//190 166//166 191//191
f 191//191 166//166 168//168
f 191//191 168//168 192//192
f 192//192 168//168 170//170
f 192//192 170//170 193//193
f 193//193 170//170 172//172
f 193//193 172//172 194//194
f 194//194 172//172 174//174
f 194//194 174//174 195//195
f 195//195 174//174 142//142
f 195//195 142//142 179//179
f 196//196 197//197 198//198
f 196//196 198//198 199//199
f 200//200 196//196 199//199
f 200//200 199//199 201//201
f 197//197 202//202 203//203
f 197//197 203//203 198//198
f 202//202 204//204 205//205
f 202//202 205//205 203//203
f 204//204 206//206 207//207
f 204//204 207//207 205//205
f 206//206 208//208 209//209
f 206//206 209//209 207//207
f 208//208 210//210 211//211
f 208//208 211//211 209//209
f 210//210 212//212 213//213
f 210//210 213//213 211//211
f 212//212 214//214 215//215
f 212//212 215//215 213//213
f 214//214 216//216 217//217
f 214//214 217//217 215//215
f 216//216 218//218 219//219
f 216//216 219//219 217//217
f 218//218 220//220 221//221
f 218//218 221//221 219//219
f 220//220 222//222 223//223
f 220//220 223//223 221//221
f 222//222 224//224 225//225
f 222//222 225//225 223//223
f 224//224 226//226 227//227
f 224//224 227//227 225//225
f 226//226 228//228 229//229
f 226//226 229//229 227//227
f 228//228 230//230 231//231
f 228//228 231//231 229//229
f 230//230 232//232 233//233
f 230//230 233//233 231//231
f 232//232 200//200 201//201
f 232//232 201//201 233//233
f 11//11 234//234 117//117
f 118//118 234//234 11//11
f 17//17 235//235 119//119
f 22//22 235//235 17//17
f 3//3 51//51 113//113
f 3//3 113//113 1//1
f 115//115 50//50 51//51
f 115//115 51//51 3//3
f 116//116 53//53 50//50
f 116//116 50//50 115//115
f 117//117 55//55 53//53
f 117//117 53//53 116//116
f 234//234 59//59 55//55
f 234//234 55//55 117//117
f 118//118 58//58 59//59
f 118//118 59//59 234//234
f 119//119 60//60 58//58
f 119//119 58//58 118//118
f 235//235 65//65 60//60
f 235//235 60//60 119//119
f 22//22 114//114 65//65
f 22//22 65//65 235//235
f 1//1 113//113 114//114
f 1//1 114//114 22//22
f 133//133 73//73 71//71
f 133//133 71//71 23//23
f 134//134 127//127 73//73
f 134//134 73//73 133//133
f 27//27 75//75 127//127
f 27//27 127//127 134//134
f 135//135 74//74 75//75
f 135//135 75//75 27//27
f 31//31 79//79 74//74
f 31//31 74//74 135//135
f 35//35 128//128 79//79
f 35//35 79//79 31//31
f 136//136 129//129 128//128
f 136//136 128//128 35//35
f 34//34 82//82 129//129
f 34//34 129//129 136//136
f 33//33 130//130 82//82
f 33//33 82//82 34//34
f 137//137 131//131 130//130
f 137//137 130//130 33//33
f 32//32 80//80 131//131
f 32//32 131//131 137//137
f 28//28 132//132 80//80
f 28//28 80//80 32//32
f 23//23 71//71 132//132
f 23//23 132//132 28//28
f 104//104 85//85 86//86
f 104//104 86//86 105//105
f 106//106 97//97 85//85
f 106//106 85//85 104//104
f 107//107 89//89 97//97
f 107//107 97//97 106//106
f 108//108 88//88 89//89
f 108//108 89//89 107//107
f 109//109 98//98 88//88
f 109//109 88//88 108//108
f 110//110 95//95 98//98
f 110//110 98//98 109//109
f 111//111 94//94 95//95
f 111//111 95//95 110//110
f 48//48 99//99 94//94
f 48//48 94//94 111//111
f 45//45 100//100 99//99
f 45//45 99//99 48//48
f 112//112 101//101 100//100
f 112//112 100//100 45//45
f 44//44 102//102 101//101
f 44//44 101//101 112//112
f 38//38 103//103 102//102
f 38//38 102//102 44//44
f 105//105 86//86 103//103
f 105//105 103//103 38//38
f 236//236 237//237 238//238
f 236//236 238//238 239//239
f 240//240 236//236 239//239
f 240//240 239//239 241//241
f 242//242 240//240 241//241
f 242//242 241//241 243//243
f 244//244 242//242 243//243
f 244//244 243//243 245//245
f 246//246 244//244 245//245
f 246//246 245//245 247//247
f 248//248 246//246 247//247
f 248//248 247//247 249//249
f 250//250 248//248 249//249
f 250//250 249//249 251//251
f 252//252 250//250 251//251
f 252//252 251//251 253//253
f 254//254 252//252 253//253
f 254//254 253//253 255//255
f 256//256 254//254 255//255
f 256//256 255//255 257//257
f 258//258 256//256 257//257
f 258//258 257//257 259//259
f 260//260 258//258 259//259
f 260//260 259//259 261//261
f 262//262 260//260 261//261
f 262//262 261//261 263//263
f 264//264 262//262 263//263
f 264//264 263//263 265//265
f 266//266 264//264 265//265
f 266//266 265//265 267//267
f 268//268 266//266 267//267
f 268//268 267//267 269//269
f 270//270 268//268 269//269
f 270//270 269//269 271//271
f 237//237 272//272 273//273
f 237//237 273//273 238//238
f 272//272 270//270 271//271
f 272//272 271//271 273//273
f 200//200 232//232 274//274
f 200//200 274//274 275//275
f 232//232 230//230 276//276
f 232//232 276//276 274//274
f 230//230 228//228 277//277
f 230//230 277//277 276//276
f 228//228 226//226 278//278
f 228//228 278//278 277//277
f 226//226 224//224 279//279
f 226//226 279//279 278//278
f 224//224 222//222 280//280
f 224//224 280//280 279//279
f 222//222 220//220 281//281
f 222//222 281//281 280//280
f 220//220 218//218 282//282
f 220//220 282//282 281//281
f 218//218 216//216 283//283
f 218//218 283//283 282//282
f 216//216 214//214 284//284
f 216//216 284//284 283//283
f 214//214 212//212 285//285
f 214//214 285//285 284//284
f 212//212 210//210 286//286
f 212//212 286//286 285//285
f 210//210 208//208 287//287
f 210//210 287//287 286//286
f 208//208 206//206 288//288
f 208//208 288//288 287//287
f 206//206 204//204 289//289
f 206//206 289//289 288//288
f 204//204 202//202 290//290
f 204//204 290//290 289//289
f 202//202 197//197 291//291
f 202//202 291//291 290//290
f 196//196 200//200 275//275
f 196//196 275//275 292//292
f 197//197 196//196 292//292
f 197//197 292//292 291//291
f 290//290 291//291 271//271
f 290//290 271//271 269//269
f 238//238 275//275 274//274
f 238//238 274//274 239//239
f 241//241 276//276 277//277
f 241//241 277//277 243//243
f 247//247 245//245 278//278
f 247//247 278//278 279//279
f 251//251 249//249 280//280
f 251//251 280//280 281//281
f 283//283 255//255 253//253
f 283//283 253//253 282//282
f 285//285 259//259 257//257
f 285//285 257//257 284//284
f 287//287 263//263 261//261
f 287//287 261//261 286//286
f 291//291 292//292 273//273
f 291//291 273//273 271//271
f 239//239 274//274 276//276
f 239//239 276//276 241//241
f 243//243 277//277 278//278
f 243//243 278//278 245//245
f 249//249 247//247 279//279
f 249//249 279//279 280//280
f 253//253 251//251 281//281
f 253//253 281//281 282//282
f 284//284 257//257 255//255
f 284//284 255//255 283//283
f 286//286 261//261 259//259
f 286//286 259//259 285//285
f 287//287 288//288 265//265
f 287//287 265//265 263//263
f 289//289 290//290 269//269
f 289//289 269//269 267//267
f 273//273 292//292 275//275
f 273//273 275//275 238//238
f 288//288 289//289 267//267
f 288//288 267//267 265//265
