# Generated by lxe_pbrt_scene_convert
v -3.00796509 -0.947553992 1.67214704
v -2.97747898 -0.945168972 1.67214704
v -2.9812181 -0.921562016 1.67627299
v -3.00796509 -0.927646995 1.67627299
v -3.03471088 -0.921562016 1.67627299
v -3.03845 -0.945168972 1.67214704
v -3.03909612 -0.949244976 1.64214396
v -3.00796509 -0.951680005 1.64214396
v -2.97683311 -0.949244976 1.64214396
v -3.19329 -0.812906981 1.67214704
v -3.17435789 -0.806755006 1.67627299
v -3.17683601 -0.779437006 1.67627299
v -3.20044303 -0.783176005 1.67214704
v -3.20451903 -0.783822 1.64214396
v -3.19721389 -0.814181983 1.64214396
v -3.18527889 -0.843037009 1.64214396
v -3.181602 -0.84116298 1.67214704
v -3.16030598 -0.830312014 1.67627299
v -2.8934269 -0.595043004 1.67214704
v -2.89100099 -0.591705024 1.64214396
v -2.91761804 -0.575375974 1.64214396
v -2.91949201 -0.579051971 1.67214704
v -2.93034291 -0.600349009 1.67627299
v -2.90512705 -0.611146986 1.67627299
v -2.88706589 -0.631792009 1.67627299
v -2.87016511 -0.614890993 1.67214704
v -2.8672471 -0.611972988 1.64214396
v -3.06818104 -0.938015997 1.67214704
v -3.09643698 -0.926328003 1.67214704
v -3.09830999 -0.930005014 1.64214396
v -3.06945491 -0.94194001 1.64214396
v -3.06202888 -0.919084013 1.67627299
v -3.08558607 -0.905031025 1.67627299
v -2.9477489 -0.938015997 1.67214704
v -2.9539001 -0.919085026 1.67627299
v -2.94647408 -0.94194001 1.64214396
v -2.91761899 -0.930005014 1.64214396
v -2.91949201 -0.926328003 1.67214704
v -2.93034291 -0.905031025 1.67627299
v -2.81310105 -0.752690017 1.67214704
v -2.81548595 -0.722204983 1.67214704
v -2.83909297 -0.725943983 1.67627299
v -2.8330071 -0.752690017 1.67627299
v -2.83909297 -0.779437006 1.67627299
v -2.81548595 -0.783176005 1.67214704
v -2.81140995 -0.783822 1.64214396
v -2.80897498 -0.752690971 1.64214396
v -2.81140995 -0.721558988 1.64214396
v -3.20282793 -0.752690971 1.67214704
v -3.206954 -0.752690971 1.64214396
v -3.18292093 -0.752690971 1.67627299
v -3.17683601 -0.725943983 1.67627299
v -3.20044398 -0.722204983 1.67214704
v -3.20451903 -0.721558988 1.64214396
v -3.06818104 -0.567363977 1.67214704
v -3.0694561 -0.563440025 1.64214396
v -3.09831095 -0.575375974 1.64214396
v -3.09643698 -0.579052985 1.67214704
v -3.08558607 -0.600349009 1.67627299
v -3.06202888 -0.586296022 1.67627299
v -3.03471088 -0.583818972 1.67627299
v -3.03845 -0.560211003 1.67214704
v -3.03909612 -0.556136012 1.64214396
v -3.00796509 -0.557826996 1.67214704
v -3.00796509 -0.57773298 1.67627299
v -2.9812181 -0.583818972 1.67627299
v -2.97747898 -0.560211003 1.67214704
v -2.97683311 -0.556136012 1.64214396
v -3.00796509 -0.553700984 1.64214396
v -3.16561198 -0.867227972 1.67214704
v -3.14576411 -0.890489995 1.67214704
v -3.1288631 -0.873588979 1.67627299
v -3.149508 -0.855527997 1.67627299
v -3.16895008 -0.869652987 1.64214396
v -3.14868212 -0.893408 1.64214396
v -2.850317 -0.867227972 1.67214704
v -2.83432698 -0.84116298 1.67214704
v -2.85562301 -0.830312014 1.67627299
v -2.86642098 -0.855527997 1.67627299
v -2.88706589 -0.873588979 1.67627299
v -2.87016511 -0.890489995 1.67214704
v -2.8672471 -0.893408 1.64214396
v -2.8469789 -0.869654 1.64214396
v -2.83065009 -0.843037009 1.64214396
v -2.8934269 -0.910337985 1.67214704
v -2.89100194 -0.913676023 1.64214396
v -2.905128 -0.894234002 1.67627299
v -3.19329 -0.692474008 1.67214704
v -3.19721508 -0.691200018 1.64214396
v -3.17435908 -0.698625982 1.67627299
v -3.16030598 -0.675068974 1.67627299
v -3.181602 -0.664218009 1.67214704
v -3.18527889 -0.662343979 1.64214396
v -2.82263899 -0.812906981 1.67214704
v -2.8415699 -0.806755006 1.67627299
v -2.8187151 -0.814181983 1.64214396
v -2.94774795 -0.567363977 1.67214704
v -2.94647408 -0.563440025 1.64214396
v -2.9539001 -0.586296022 1.67627299
v -3.12250209 -0.595043004 1.67214704
v -3.124928 -0.591705024 1.64214396
v -3.14868212 -0.611972988 1.64214396
v -3.14576411 -0.614890993 1.67214704
v -3.1288631 -0.631792009 1.67627299
v -3.11080194 -0.611146986 1.67627299
v -3.16561198 -0.638153017 1.67214704
v -3.149508 -0.649852991 1.67627299
v -3.16895008 -0.635728002 1.64214396
v -2.82263899 -0.692474008 1.67214704
v -2.8187139 -0.691199005 1.64214396
v -2.83065009 -0.662343979 1.64214396
v -2.83432698 -0.664218009 1.67214704
v -2.85562301 -0.675068974 1.67627299
v -2.8415699 -0.698625982 1.67627299
v -3.12250209 -0.910337985 1.67214704
v -3.11080194 -0.894234002 1.67627299
v -3.124928 -0.913676023 1.64214396
v -2.850317 -0.638153017 1.67214704
v -2.8469789 -0.635726988 1.64214396
v -2.86642098 -0.649852991 1.67627299
v -2.89019299 -0.590592027 1.56313896
v -2.89019299 -0.590592027 1.45963204
v -2.91699409 -0.574150026 1.45963204
v -2.91699409 -0.574150026 1.56313896
v -2.86627507 -0.611000001 1.56313896
v -2.86627507 -0.611000001 1.45963204
v -3.00796509 -0.953055024 1.56313896
v -2.97661805 -0.950603008 1.56313801
v -3.03931093 -0.950603008 1.56313896
v -3.03931093 -0.950603008 1.45963204
v -3.00796509 -0.953055024 1.45963204
v -2.97661805 -0.950603008 1.45963204
v -2.81740689 -0.814607024 1.56313801
v -2.81005192 -0.784036994 1.56313801
v -2.8294251 -0.84366101 1.56313801
v -2.8294251 -0.84366101 1.45963204
v -2.81740689 -0.814607024 1.45963204
v -2.81005192 -0.784036994 1.45963204
v -3.125736 -0.590592027 1.56313896
v -3.125736 -0.590592027 1.45963204
v -3.1496551 -0.611000001 1.45963204
v -3.14965391 -0.611000001 1.56313896
v -3.09893489 -0.57415098 1.56313896
v -3.09893489 -0.57415098 1.45963204
v -3.00796509 -0.552326024 1.56313896
v -3.03931093 -0.554777026 1.56313896
v -2.97661805 -0.554777026 1.56313896
v -2.97661805 -0.554777026 1.45963204
v -3.00796509 -0.552326024 1.45963204
v -3.03931093 -0.554777026 1.45963204
v -3.17006302 -0.634918988 1.56313896
v -3.17006302 -0.634918988 1.45963204
v -3.18650389 -0.661719978 1.45963204
v -3.18650389 -0.661719978 1.56313896
v -2.80760002 -0.752690971 1.56313801
v -2.80760002 -0.752690971 1.45963204
v -2.81005192 -0.721343994 1.45963204
v -2.81005192 -0.721343994 1.56313801
v -3.06988001 -0.943247974 1.56313896
v -3.09893489 -0.931230009 1.56313896
v -3.09893489 -0.931230009 1.45963204
v -3.06988001 -0.943247974 1.45963204
v -2.84586596 -0.870462 1.56313801
v -2.84586596 -0.870462 1.45963204
v -2.86627507 -0.894380987 1.56313801
v -2.86627507 -0.894380987 1.45963204
v -2.84586596 -0.634918988 1.56313896
v -2.8294251 -0.661719978 1.56313896
v -2.8294239 -0.661719978 1.45963204
v -2.84586596 -0.634918988 1.45963204
v -2.94604897 -0.943247974 1.56313801
v -2.94604897 -0.943247974 1.45963204
v -2.91699409 -0.931230009 1.45963204
v -2.91699409 -0.931230009 1.56313801
v -3.06988096 -0.562132001 1.56313896
v -3.06988096 -0.562132001 1.45963204
v -3.20832896 -0.752690971 1.56313896
v -3.20587707 -0.784036994 1.56313896
v -3.20587707 -0.721343994 1.56313896
v -3.20587707 -0.721343994 1.45963204
v -3.20832896 -0.752690971 1.45963204
v -3.20587707 -0.784036994 1.45963204
v -3.17006302 -0.870462 1.56313896
v -3.18650389 -0.84366101 1.56313896
v -3.18650389 -0.84366101 1.45963204
v -3.17006302 -0.870462 1.45963204
v -3.1496551 -0.894379973 1.45963204
v -3.14965391 -0.894379973 1.56313896
v -2.81740689 -0.690774024 1.56313896
v -2.81740594 -0.690774024 1.45963204
v -3.19852304 -0.690774977 1.56313896
v -3.19852304 -0.690774977 1.45963204
v -3.125736 -0.914789021 1.56313896
v -3.125736 -0.914789021 1.45963204
v -2.89019299 -0.914789021 1.56313801
v -2.89019299 -0.914789021 1.45963204
v -3.19852209 -0.814607024 1.56313896
v -3.19852209 -0.814607024 1.45963204
v -2.94604802 -0.562132001 1.56313896
v -2.94604802 -0.562132001 1.45963204
v -3.08216691 -0.650559008 1.67764795
v -3.05802798 -0.654434979 1.67764795
v -3.08593988 -0.674714983 1.67764795
v -3.0079639 -0.752690017 1.67764795
v -3.12802696 -0.791701019 1.67764795
v -3.11688089 -0.769940972 1.67764795
v -3.10621905 -0.802753985 1.67764795
v -3.00796509 -0.878931999 1.67764795
v -3.02521491 -0.861607015 1.67764795
v -2.99071407 -0.861607015 1.67764795
v -2.88790202 -0.791701019 1.67764795
v -2.90970898 -0.802753985 1.67764795
v -2.89904809 -0.769940972 1.67764795
v -2.93376207 -0.650559008 1.67764795
v -2.9299891 -0.674714983 1.67764795
v -2.957901 -0.654434979 1.67764795
v -3.12802696 -0.713680029 1.67764795
v -3.10621905 -0.702627003 1.67764795
v -3.11688089 -0.735440016 1.67764795
v -3.08216691 -0.85482198 1.67764795
v -3.08593988 -0.830666006 1.67764795
v -3.05802798 -0.850944996 1.67764795
v -2.93376207 -0.85482198 1.67764795
v -2.957901 -0.850944996 1.67764795
v -2.9299891 -0.830666006 1.67764795
v -2.88790202 -0.713680029 1.67764795
v -2.89904809 -0.735440016 1.67764795
v -2.90970898 -0.702627003 1.67764795
v -3.00796509 -0.626448989 1.67764795
v -2.99071407 -0.643773973 1.67764795
v -3.02521491 -0.643773973 1.67764795
v -3.11009598 -0.678488016 1.67764795
v -3.11009598 -0.826892972 1.67764795
v -2.96895409 -0.872753024 1.67764795
v -2.88172293 -0.752690017 1.67764795
v -2.96895409 -0.632628024 1.67764795
v -3.13420606 -0.752690017 1.67764795
v -3.0469749 -0.872753024 1.67764795
v -2.90583301 -0.826892972 1.67764795
v -2.90583301 -0.678487003 1.67764795
v -3.0469749 -0.632628024 1.67764795
vn 0 -0.737299979 0.675599992
vn 0.115500003 -0.728999972 0.674700022
vn 0.0161000006 -0.101599999 0.994700015
vn 0 -0.115699999 0.993300021
vn -0.0161000006 -0.101599999 0.994700015
vn -0.115500003 -0.728999972 0.674700022
vn -0.155900002 -0.984799981 0.076700002
vn 0 -0.996999979 0.076700002
vn 0.155900002 -0.984799981 0.076700002
vn -0.701200008 -0.227799997 0.675599992
vn -0.110100001 -0.0357999988 0.993300021
vn -0.101599999 -0.0161000006 0.994700015
vn -0.728999972 -0.115500003 0.674700022
vn -0.984799981 -0.155900002 0.076700002
vn -0.948199987 -0.308099985 0.076700002
vn -0.888400018 -0.452699989 0.076700002
vn -0.657599986 -0.335099995 0.674700022
vn -0.0917000026 -0.0467000008 0.994700015
vn 0.433400005 0.596499979 0.675599992
vn 0.586000025 0.806599975 0.076700002
vn 0.452699989 0.888400018 0.076700002
vn 0.335099995 0.657599986 0.674700022
vn 0.0467000008 0.0917000026 0.994700015
vn 0.0680000037 0.0935999975 0.993300021
vn 0.072800003 0.072800003 0.994700015
vn 0.521899998 0.521899998 0.674700022
vn 0.704999983 0.704999983 0.076700002
vn -0.227799997 -0.701200008 0.675599992
vn -0.335099995 -0.657599986 0.674700022
vn -0.452600002 -0.888400018 0.076700002
vn -0.308099985 -0.948199987 0.076700002
vn -0.0357000008 -0.110100001 0.993300021
vn -0.0467000008 -0.0917000026 0.994700015
vn 0.227799997 -0.701200008 0.675599992
vn 0.0357999988 -0.110100001 0.993300021
vn 0.308099985 -0.948199987 0.076700002
vn 0.452600002 -0.888400018 0.076700002
vn 0.335099995 -0.657599986 0.674700022
vn 0.0467000008 -0.0917000026 0.994700015
vn 0.737299979 0 0.675599992
vn 0.728999972 0.115500003 0.674700022
vn 0.101599999 0.0161000006 0.994700015
vn 0.115699999 0 0.993300021
vn 0.101599999 -0.0161000006 0.994700015
vn 0.728999972 -0.115500003 0.674700022
vn 0.984799981 -0.155900002 0.076700002
vn 0.996999979 0 0.076700002
vn 0.984799981 0.155900002 0.076700002
vn -0.737299979 0 0.675599992
vn -0.996999979 0 0.076700002
vn -0.115699999 0 0.993300021
vn -0.101599999 0.0161000006 0.994700015
vn -0.728999972 0.115500003 0.674700022
vn -0.984799981 0.155900002 0.076700002
vn -0.227799997 0.701200008 0.675599992
vn -0.308099985 0.948199987 0.076700002
vn -0.452699989 0.888400018 0.076700002
vn -0.335099995 0.657599986 0.674700022
vn -0.0467000008 0.0917000026 0.994700015
vn -0.0357999988 0.110100001 0.993300021
vn -0.0161000006 0.101599999 0.994700015
vn -0.115500003 0.728999972 0.674700022
vn -0.155900002 0.984799981 0.076700002
vn 0 0.737299979 0.675599992
vn 0 0.115699999 0.993300021
vn 0.0161000006 0.101599999 0.994700015
vn 0.115500003 0.728999972 0.674700022
vn 0.155900002 0.984799981 0.076700002
vn 0 0.996999979 0.076700002
vn -0.596499979 -0.433400005 0.675599992
vn -0.521899998 -0.521899998 0.674700022
vn -0.072800003 -0.072800003 0.994700015
vn -0.0935999975 -0.0680000037 0.993300021
vn -0.806599975 -0.586000025 0.076700002
vn -0.704999983 -0.704999983 0.076700002
vn 0.596499979 -0.433400005 0.675599992
vn 0.657599986 -0.335099995 0.674700022
vn 0.0917000026 -0.0467000008 0.994700015
vn 0.0935999975 -0.0680000037 0.993300021
vn 0.072800003 -0.072800003 0.994700015
vn 0.521899998 -0.521899998 0.674700022
vn 0.704999983 -0.704999983 0.076700002
vn 0.806599975 -0.586000025 0.076700002
vn 0.888400018 -0.452699989 0.076700002
vn 0.433400005 -0.596499979 0.675599992
vn 0.586000025 -0.806599975 0.076700002
vn 0.0680000037 -0.0935999975 0.993300021
vn -0.701200008 0.227799997 0.675599992
vn -0.948199987 0.308099985 0.076700002
vn -0.110100001 0.0357999988 0.993300021
vn -0.0917000026 0.0467000008 0.994700015
vn -0.657599986 0.335099995 0.674700022
vn -0.888400018 0.452699989 0.076700002
vn 0.701200008 -0.227799997 0.675499976
vn 0.110100001 -0.0357999988 0.993300021
vn 0.948199987 -0.308099985 0.076700002
vn 0.227799997 0.701200008 0.675599992
vn 0.308099985 0.948199987 0.076700002
vn 0.0357999988 0.110100001 0.993300021
vn -0.433400005 0.596499979 0.675599992
vn -0.586000025 0.806599975 0.076700002
vn -0.704999983 0.704999983 0.076700002
vn -0.521899998 0.521899998 0.674700022
vn -0.072800003 0.072800003 0.994700015
vn -0.0680000037 0.0935999975 0.993300021
vn -0.596499979 0.433400005 0.675599992
vn -0.0935999975 0.0680000037 0.993300021
vn -0.806599975 0.586000025 0.076700002
vn 0.701200008 0.227799997 0.675599992
vn 0.948199987 0.308099985 0.076700002
vn 0.888400018 0.452699989 0.076700002
vn 0.657599986 0.335099995 0.674700022
vn 0.0917000026 0.0467000008 0.994700015
vn 0.110100001 0.0357999988 0.993300021
vn -0.433400005 -0.596499979 0.675599992
vn -0.0680000037 -0.0935999975 0.993300021
vn -0.586000025 -0.806599975 0.076700002
vn 0.596499979 0.433400005 0.675599992
vn 0.806599975 0.586000025 0.076700002
vn 0.0935999975 0.0680000037 0.993300021
vn 0.587800026 0.809000015 0.00870000012
vn 0.587800026 0.809000015 0
vn 0.453999996 0.890999973 0
vn 0.453999996 0.890999973 0.00870000012
vn 0.707099974 0.707099974 0.00870000012
vn 0.707099974 0.707099974 0
vn 0 -0.999899983 0.00870000012
vn 0.156399995 -0.987600029 0.00870000012
vn -0.156399995 -0.987600029 0.00870000012
vn -0.156399995 -0.987699986 0
vn 0 -1 0
vn 0.156399995 -0.987699986 0
vn 0.950999975 -0.308999985 0.00870000012
vn 0.987600029 -0.156399995 0.00870000012
vn 0.890999973 -0.453999996 0.00870000012
vn 0.890999973 -0.453999996 0
vn 0.950999975 -0.308999985 0
vn 0.987699986 -0.156399995 0
vn -0.587800026 0.809000015 0.00870000012
vn -0.587800026 0.809000015 0
vn -0.707099974 0.707099974 0
vn -0.707099974 0.707099974 0.00870000012
vn -0.453999996 0.890999973 0.00870000012
vn -0.453999996 0.890999973 0
vn 0 0.999899983 0.00870000012
vn -0.156399995 0.987600029 0.00870000012
vn 0.156399995 0.987600029 0.00870000012
vn 0.156399995 0.987699986 0
vn 0 1 0
vn -0.156399995 0.987699986 0
vn -0.809000015 0.587800026 0.00870000012
vn -0.809000015 0.587800026 0
vn -0.890999973 0.453999996 0
vn -0.890999973 0.453999996 0.00870000012
vn 0.999899983 0 0.00870000012
vn 1 0 0
vn 0.987699986 0.156399995 0
vn 0.987600029 0.156399995 0.00870000012
vn -0.308999985 -0.950999975 0.00870000012
vn -0.453999996 -0.890999973 0.00870000012
vn -0.453999996 -0.890999973 0
vn -0.308999985 -0.950999975 0
vn 0.809000015 -0.587800026 0.00870000012
vn 0.809000015 -0.587800026 0
vn 0.707099974 -0.707099974 0.00870000012
vn 0.707099974 -0.707099974 0
vn 0.809000015 0.587800026 0.00870000012
vn 0.890999973 0.453999996 0.00870000012
vn 0.890999973 0.453999996 0
vn 0.809000015 0.587800026 0
vn 0.308999985 -0.950999975 0.00870000012
vn 0.308999985 -0.950999975 0
vn 0.453999996 -0.890999973 0
vn 0.453999996 -0.890999973 0.00870000012
vn -0.308999985 0.950999975 0.00870000012
vn -0.308999985 0.950999975 0
vn -0.999899983 0 0.00870000012
vn -0.987600029 -0.156399995 0.00870000012
vn -0.987600029 0.156399995 0.00870000012
vn -0.987699986 0.156399995 0
vn -1 0 0
vn -0.987699986 -0.156399995 0
vn -0.809000015 -0.587800026 0.00870000012
vn -0.890999973 -0.453999996 0.00870000012
vn -0.890999973 -0.453999996 0
vn -0.809000015 -0.587800026 0
vn -0.707099974 -0.707099974 0
vn -0.707099974 -0.707099974 0.00870000012
vn 0.950999975 0.308999985 0.00870000012
vn 0.950999975 0.308999985 0
vn -0.950999975 0.308999985 0.00870000012
vn -0.950999975 0.308999985 0
vn -0.587800026 -0.809000015 0.00870000012
vn -0.587800026 -0.809000015 0
vn 0.587800026 -0.809000015 0.00870000012
vn 0.587800026 -0.809000015 0
vn -0.950999975 -0.308999985 0.00870000012
vn -0.950999975 -0.308999985 0
vn 0.308999985 0.950999975 0.00870000012
vn 0.308999985 0.950999975 0
vn -0.0107000005 0.0147000002 0.999800026
vn -0.00350000011 0.00689999992 1
vn -0.00549999997 0.00549999997 1
vn 0 0 1
vn -0.0172000006 -0.0055999998 0.999800026
vn -0.00760000013 -0.00120000006 1
vn -0.00689999992 -0.00350000011 1
vn 0 -0.0181000009 0.999800026
vn -0.00120000006 -0.00760000013 1
vn 0.00120000006 -0.00760000013 1
vn 0.0172000006 -0.0055999998 0.999800026
vn 0.00689999992 -0.00350000011 1
vn 0.00760000013 -0.00120000006 1
vn 0.0107000005 0.0147000002 0.999800026
vn 0.00549999997 0.00549999997 1
vn 0.00350000011 0.00689999992 1
vn -0.0172000006 0.0055999998 0.999800026
vn -0.00689999992 0.00350000011 1
vn -0.00760000013 0.00120000006 1
vn -0.0107000005 -0.0147000002 0.999800026
vn -0.00549999997 -0.00549999997 1
vn -0.00350000011 -0.00689999992 1
vn 0.0107000005 -0.0147000002 0.999800026
vn 0.00350000011 -0.00689999992 1
vn 0.00549999997 -0.00549999997 1
vn 0.0172000006 0.0055999998 0.999800026
vn 0.00760000013 0.00120000006 1
vn 0.00689999992 0.00350000011 1
vn 0 0.0181000009 0.999800026
vn 0.00120000006 0.00760000013 1
vn -0.00120000006 0.00760000013 1
vn -0.0147000002 0.0107000005 0.999800026
vn -0.0147000002 -0.0107000005 0.999800026
vn 0.0055999998 -0.0172000006 0.999800026
vn 0.0181000009 0 0.999800026
vn 0.0055999998 0.0172000006 0.999800026
vn -0.0181000009 0 0.999800026
vn -0.0055999998 -0.0172000006 0.999800026
vn 0.0147000002 -0.0107000005 0.999800026
vn 0.0147000002 0.0107000005 0.999800026
vn -0.0055999998 0.0172000006 0.999800026
f 1//1 2//2 3//3
f 1//1 3//3 4//4
f 1//1 4//4 5//5
f 1//1 5//5 6//6
f 1//1 6//6 7//7
f 1//1 7//7 8//8
f 1//1 8//8 9//9
f 1//1 9//9 2//2
f 10//10 11//11 12//12
f 10//10 12//12 13//13
f 10//10 13//13 14//14
f 10//10 14//14 15//15
f 10//10 15//15 16//16
f 10//10 16//16 17//17
f 10//10 17//17 18//18
f 10//10 18//18 11//11
f 19//19 20//20 21//21
f 19//19 21//21 22//22
f 19//19 22//22 23//23
f 19//19 23//23 24//24
f 19//19 24//24 25//25
f 19//19 25//25 26//26
f 19//19 26//26 27//27
f 19//19 27//27 20//20
f 28//28 29//29 30//30
f 28//28 30//30 31//31
f 28//28 31//31 7//7
f 28//28 7//7 6//6
f 28//28 6//6 5//5
f 28//28 5//5 32//32
f 28//28 32//32 33//33
f 28//28 33//33 29//29
f 34//34 35//35 3//3
f 34//34 3//3 2//2
f 34//34 2//2 9//9
f 34//34 9//9 36//36
f 34//34 36//36 37//37
f 34//34 37//37 38//38
f 34//34 38//38 39//39
f 34//34 39//39 35//35
f 40//40 41//41 42//42
f 40//40 42//42 43//43
f 40//40 43//43 44//44
f 40//40 44//44 45//45
f 40//40 45//45 46//46
f 40//40 46//46 47//47
f 40//40 47//47 48//48
f 40//40 48//48 41//41
f 49//49 50//50 14//14
f 49//49 14//14 13//13
f 49//49 13//13 12//12
f 49//49 12//12 51//51
f 49//49 51//51 52//52
f 49//49 52//52 53//53
f 49//49 53//53 54//54
f 49//49 54//54 50//50
f 55//55 56//56 57//57
f 55//55 57//57 58//58
f 55//55 58//58 59//59
f 55//55 59//59 60//60
f 55//55 60//60 61//61
f 55//55 61//61 62//62
f 55//55 62//62 63//63
f 55//55 63//63 56//56
f 64//64 65//65 66//66
f 64//64 66//66 67//67
f 64//64 67//67 68//68
f 64//64 68//68 69//69
f 64//64 69//69 63//63
f 64//64 63//63 62//62
f 64//64 62//62 61//61
f 64//64 61//61 65//65
f 70//70 71//71 72//72
f 70//70 72//72 73//73
f 70//70 73//73 18//18
f 70//70 18//18 17//17
f 70//70 17//17 16//16
f 70//70 16//16 74//74
f 70//70 74//74 75//75
f 70//70 75//75 71//71
f 76//76 77//77 78//78
f 76//76 78//78 79//79
f 76//76 79//79 80//80
f 76//76 80//80 81//81
f 76//76 81//81 82//82
f 76//76 82//82 83//83
f 76//76 83//83 84//84
f 76//76 84//84 77//77
f 85//85 86//86 82//82
f 85//85 82//82 81//81
f 85//85 81//81 80//80
f 85//85 80//80 87//87
f 85//85 87//87 39//39
f 85//85 39//39 38//38
f 85//85 38//38 37//37
f 85//85 37//37 86//86
f 88//88 89//89 54//54
f 88//88 54//54 53//53
f 88//88 53//53 52//52
f 88//88 52//52 90//90
f 88//88 90//90 91//91
f 88//88 91//91 92//92
f 88//88 92//92 93//93
f 88//88 93//93 89//89
f 94//94 95//95 78//78
f 94//94 78//78 77//77
f 94//94 77//77 84//84
f 94//94 84//84 96//96
f 94//94 96//96 46//46
f 94//94 46//46 45//45
f 94//94 45//45 44//44
f 94//94 44//44 95//95
f 97//97 22//22 21//21
f 97//97 21//21 98//98
f 97//97 98//98 68//68
f 97//97 68//68 67//67
f 97//97 67//67 66//66
f 97//97 66//66 99//99
f 97//97 99//99 23//23
f 97//97 23//23 22//22
f 100//100 58//58 57//57
f 100//100 57//57 101//101
f 100//100 101//101 102//102
f 100//100 102//102 103//103
f 100//100 103//103 104//104
f 100//100 104//104 105//105
f 100//100 105//105 59//59
f 100//100 59//59 58//58
f 106//106 92//92 91//91
f 106//106 91//91 107//107
f 106//106 107//107 104//104
f 106//106 104//104 103//103
f 106//106 103//103 102//102
f 106//106 102//102 108//108
f 106//106 108//108 93//93
f 106//106 93//93 92//92
f 109//109 110//110 111//111
f 109//109 111//111 112//112
f 109//109 112//112 113//113
f 109//109 113//113 114//114
f 109//109 114//114 42//42
f 109//109 42//42 41//41
f 109//109 41//41 48//48
f 109//109 48//48 110//110
f 115//115 29//29 33//33
f 115//115 33//33 116//116
f 115//115 116//116 72//72
f 115//115 72//72 71//71
f 115//115 71//71 75//75
f 115//115 75//75 117//117
f 115//115 117//117 30//30
f 115//115 30//30 29//29
f 118//118 119//119 27//27
f 118//118 27//27 26//26
f 118//118 26//26 25//25
f 118//118 25//25 120//120
f 118//118 120//120 113//113
f 118//118 113//113 112//112
f 118//118 112//112 111//111
f 118//118 111//111 119//119
f 121//121 122//122 123//123
f 121//121 123//123 124//124
f 121//121 124//124 21//21
f 121//121 21//21 20//20
f 121//121 20//20 27//27
f 121//121 27//27 125//125
f 121//121 125//125 126//126
f 121//121 126//126 122//122
f 127//127 128//128 9//9
f 127//127 9//9 8//8
f 127//127 8//8 7//7
f 127//127 7//7 129//129
f 127//127 129//129 130//130
f 127//127 130//130 131//131
f 127//127 131//131 132//132
f 127//127 132//132 128//128
f 133//133 134//134 46//46
f 133//133 46//46 96//96
f 133//133 96//96 84//84
f 133//133 84//84 135//135
f 133//133 135//135 136//136
f 133//133 136//136 137//137
f 133//133 137//137 138//138
f 133//133 138//138 134//134
f 139//139 140//140 141//141
f 139//139 141//141 142//142
f 139//139 142//142 102//102
f 139//139 102//102 101//101
f 139//139 101//101 57//57
f 139//139 57//57 143//143
f 139//139 143//143 144//144
f 139//139 144//144 140//140
f 145//145 146//146 63//63
f 145//145 63//63 69//69
f 145//145 69//69 68//68
f 145//145 68//68 147//147
f 145//145 147//147 148//148
f 145//145 148//148 149//149
f 145//145 149//149 150//150
f 145//145 150//150 146//146
f 151//151 152//152 153//153
f 151//151 153//153 154//154
f 151//151 154//154 93//93
f 151//151 93//93 108//108
f 151//151 108//108 102//102
f 151//151 102//102 142//142
f 151//151 142//142 141//141
f 151//151 141//141 152//152
f 155//155 156//156 157//157
f 155//155 157//157 158//158
f 155//155 158//158 48//48
f 155//155 48//48 47//47
f 155//155 47//47 46//46
f 155//155 46//46 134//134
f 155//155 134//134 138//138
f 155//155 138//138 156//156
f 159//159 129//129 7//7
f 159//159 7//7 31//31
f 159//159 31//31 30//30
f 159//159 30//30 160//160
f 159//159 160//160 161//161
f 159//159 161//161 162//162
f 159//159 162//162 130//130
f 159//159 130//130 129//129
f 163//163 164//164 136//136
f 163//163 136//136 135//135
f 163//163 135//135 84//84
f 163//163 84//84 83//83
f 163//163 83//83 82//82
f 163//163 82//82 165//165
f 163//163 165//165 166//166
f 163//163 166//166 164//164
f 167//167 119//119 111//111
f 167//167 111//111 168//168
f 167//167 168//168 169//169
f 167//167 169//169 170//170
f 167//167 170//170 126//126
f 167//167 126//126 125//125
f 167//167 125//125 27//27
f 167//167 27//27 119//119
f 171//171 36//36 9//9
f 171//171 9//9 128//128
f 171//171 128//128 132//132
f 171//171 132//132 172//172
f 171//171 172//172 173//173
f 171//171 173//173 174//174
f 171//171 174//174 37//37
f 171//171 37//37 36//36
f 175//175 143//143 57//57
f 175//175 57//57 56//56
f 175//175 56//56 63//63
f 175//175 63//63 146//146
f 175//175 146//146 150//150
f 175//175 150//150 176//176
f 175//175 176//176 144//144
f 175//175 144//144 143//143
f 177//177 178//178 14//14
f 177//177 14//14 50//50
f 177//177 50//50 54//54
f 177//177 54//54 179//179
f 177//177 179//179 180//180
f 177//177 180//180 181//181
f 177//177 181//181 182//182
f 177//177 182//182 178//178
f 183//183 74//74 16//16
f 183//183 16//16 184//184
f 183//183 184//184 185//185
f 183//183 185//185 186//186
f 183//183 186//186 187//187
f 183//183 187//187 188//188
f 183//183 188//188 75//75
f 183//183 75//75 74//74
f 189//189 110//110 48//48
f 189//189 48//48 158//158
f 189//189 158//158 157//157
f 189//189 157//157 190//190
f 189//189 190//190 169//169
f 189//189 169//169 168//168
f 189//189 168//168 111//111
f 189//189 111//111 110//110
f 191//191 154//154 153//153
f 191//191 153//153 192//192
f 191//191 192//192 180//180
f 191//191 180//180 179//179
f 191//191 179//179 54//54
f 191//191 54//54 89//89
f 191//191 89//89 93//93
f 191//191 93//93 154//154
f 193//193 160//160 30//30
f 193//193 30//30 117//117
f 193//193 117//117 75//75
f 193//193 75//75 188//188
f 193//193 188//188 187//187
f 193//193 187//187 194//194
f 193//193 194//194 161//161
f 193//193 161//161 160//160
f 195//195 196//196 166//166
f 195//195 166//166 165//165
f 195//195 165//165 82//82
f 195//195 82//82 86//86
f 195//195 86//86 37//37
f 195//195 37//37 174//174
f 195//195 174//174 173//173
f 195//195 173//173 196//196
f 197//197 15//15 14//14
f 197//197 14//14 178//178
f 197//197 178//178 182//182
f 197//197 182//182 198//198
f 197//197 198//198 185//185
f 197//197 185//185 184//184
f 197//197 184//184 16//16
f 197//197 16//16 15//15
f 199//199 200//200 148//148
f 199//199 148//148 147//147
f 199//199 147//147 68//68
f 199//199 68//68 98//98
f 199//199 98//98 21//21
f 199//199 21//21 124//124
f 199//199 124//124 123//123
f 199//199 123//123 200//200
f 201//201 202//202 59//59
f 201//201 59//59 105//105
f 201//201 105//105 104//104
f 201//201 104//104 203//203
f 201//201 203//203 204//204
f 201//201 204//204 202//202
f 205//205 206//206 12//12
f 205//205 12//12 11//11
f 205//205 11//11 18//18
f 205//205 18//18 207//207
f 205//205 207//207 204//204
f 205//205 204//204 206//206
f 208//208 209//209 5//5
f 208//208 5//5 4//4
f 208//208 4//4 3//3
f 208//208 3//3 210//210
f 208//208 210//210 204//204
f 208//208 204//204 209//209
f 211//211 212//212 78//78
f 211//211 78//78 95//95
f 211//211 95//95 44//44
f 211//211 44//44 213//213
f 211//211 213//213 204//204
f 211//211 204//204 212//212
f 214//214 215//215 25//25
f 214//214 25//25 24//24
f 214//214 24//24 23//23
f 214//214 23//23 216//216
f 214//214 216//216 204//204
f 214//214 204//204 215//215
f 217//217 218//218 91//91
f 217//217 91//91 90//90
f 217//217 90//90 52//52
f 217//217 52//52 219//219
f 217//217 219//219 204//204
f 217//217 204//204 218//218
f 220//220 221//221 72//72
f 220//220 72//72 116//116
f 220//220 116//116 33//33
f 220//220 33//33 222//222
f 220//220 222//222 204//204
f 220//220 204//204 221//221
f 223//223 224//224 39//39
f 223//223 39//39 87//87
f 223//223 87//87 80//80
f 223//223 80//80 225//225
f 223//223 225//225 204//204
f 223//223 204//204 224//224
f 226//226 227//227 42//42
f 226//226 42//42 114//114
f 226//226 114//114 113//113
f 226//226 113//113 228//228
f 226//226 228//228 204//204
f 226//226 204//204 227//227
f 229//229 230//230 66//66
f 229//229 66//66 65//65
f 229//229 65//65 61//61
f 229//229 61//61 231//231
f 229//229 231//231 204//204
f 229//229 204//204 230//230
f 232//232 107//107 91//91
f 232//232 91//91 218//218
f 232//232 218//218 204//204
f 232//232 204//204 203//203
f 232//232 203//203 104//104
f 232//232 104//104 107//107
f 233//233 73//73 72//72
f 233//233 72//72 221//221
f 233//233 221//221 204//204
f 233//233 204//204 207//207
f 233//233 207//207 18//18
f 233//233 18//18 73//73
f 234//234 35//35 39//39
f 234//234 39//39 224//224
f 234//234 224//224 204//204
f 234//234 204//204 210//210
f 234//234 210//210 3//3
f 234//234 3//3 35//35
f 235//235 43//43 42//42
f 235//235 42//42 227//227
f 235//235 227//227 204//204
f 235//235 204//204 213//213
f 235//235 213//213 44//44
f 235//235 44//44 43//43
f 236//236 99//99 66//66
f 236//236 66//66 230//230
f 236//236 230//230 204//204
f 236//236 204//204 216//216
f 236//236 216//216 23//23
f 236//236 23//23 99//99
f 237//237 219//219 52//52
f 237//237 52//52 51//51
f 237//237 51//51 12//12
f 237//237 12//12 206//206
f 237//237 206//206 204//204
f 237//237 204//204 219//219
f 238//238 222//222 33//33
f 238//238 33//33 32//32
f 238//238 32//32 5//5
f 238//238 5//5 209//209
f 238//238 209//209 204//204
f 238//238 204//204 222//222
f 239//239 225//225 80//80
f 239//239 80//80 79//79
f 239//239 79//79 78//78
f 239//239 78//78 212//212
f 239//239 212//212 204//204
f 239//239 204//204 225//225
f 240//240 228//228 113//113
f 240//240 113//113 120//120
f 240//240 120//120 25//25
f 240//240 25//25 215//215
f 240//240 215//215 204//204
f 240//240 204//204 228//228
f 241//241 231//231 61//61
f 241//241 61//61 60//60
f 241//241 60//60 59//59
f 241//241 59//59 202//202
f 241//241 202//202 204//204
f 241//241 204//204 231//231
