# Generated by lxe_pbrt_scene_convert
v -4.47054482 -0.998436987 0.250494003
v -4.45507622 -0.992981017 0.443684012
v -4.45507622 -0.797131002 0.443684012
v -4.47054482 -0.802586973 0.250494003
v -4.34248781 -0.973020017 0.977029979
v -4.25139523 -0.973020017 1.16231596
v -4.25139523 -0.777170002 1.16231596
v -4.34248781 -0.777170002 0.977029979
v -4.45507622 -0.601280987 0.443684012
v -4.47054482 -0.606737971 0.250494003
v -4.47054482 -0.802586973 0.250494003
v -4.45507622 -0.797131002 0.443684012
v -4.43168592 -0.973020017 0.631600976
v -4.43168592 -0.777170002 0.631600976
v -4.43168592 -0.777170002 0.631600976
v -4.43168592 -0.581319988 0.631600976
v -4.47054482 -0.802586973 0
v -4.47054482 -0.998436987 0
v -4.47054482 -0.998436987 0.250494003
v -4.47054482 -0.606737971 0
v -4.47054482 -0.802586973 0
v -4.40241289 -0.777170002 0.806725979
v -4.40241289 -0.973020017 0.806725979
v -4.40241289 -0.581319988 0.806725979
v -4.40241289 -0.777170002 0.806725979
v -4.34248781 -0.777170002 0.977029979
v -4.40241289 -0.777170002 0.806725979
v -4.40241289 -0.973020017 0.806725979
v -4.34248781 -0.973020017 0.977029979
v -4.34248781 -0.581319988 0.977029979
v -4.40241289 -0.581319988 0.806725979
v -4.40241289 -0.777170002 0.806725979
v -4.34248781 -0.777170002 0.977029979
v -4.25139523 -0.581319988 1.16231596
v -4.34248781 -0.581319988 0.977029979
v -4.34248781 -0.777170002 0.977029979
v -4.13271713 -0.777170002 1.39681196
v -4.25139523 -0.777170002 1.16231596
v -4.25139523 -0.973020017 1.16231596
v -4.13271713 -0.973020017 1.39681196
v -4.13271713 -0.581319988 1.39681196
v -4.25139523 -0.581319988 1.16231596
v -4.25139523 -0.777170002 1.16231596
v -4.13271713 -0.777170002 1.39681196
v -3.98548698 -0.777170002 1.56401598
v -4.13271713 -0.777170002 1.39681196
v -4.13271713 -0.973020017 1.39681196
v -3.98548698 -0.973020017 1.56401598
v -3.98548698 -0.581319988 1.56401598
v -4.13271713 -0.581319988 1.39681196
v -4.13271713 -0.777170002 1.39681196
v -3.98548698 -0.777170002 1.56401598
v -4.13271713 -1.20134401 1.39681196
v -4.10848379 -1.20134401 1.38949001
v -3.96125388 -1.20134401 1.55669403
v -3.98548698 -1.20134401 1.56401598
v -4.34248781 -1.20134401 0.977029979
v -4.40241289 -1.20134401 0.806725979
v -4.37818003 -1.20134401 0.799404025
v -4.31825495 -1.20134401 0.969708025
v -4.47054482 -1.20134401 0
v -4.44631195 -1.20134401 0
v -4.44631195 -1.20134401 0.243172005
v -4.47054482 -1.20134401 0.250494003
v -4.45507622 -1.20134401 0.443684012
v -4.43084288 -1.20134401 0.436361998
v -4.40745306 -1.20134401 0.624279022
v -4.43168592 -1.20134401 0.631600976
v -4.43168592 -0.581319988 0.631600976
v -4.37818003 -0.581319988 0.799404025
v -4.40745306 -0.581319988 0.624279022
v -4.43084288 -0.601280987 0.436361998
v -4.45507622 -0.601280987 0.443684012
v -4.40241289 -1.20134401 0.806725979
v -4.37818003 -1.20134401 0.799404025
v -3.98548698 -0.777170002 1.56401598
v -3.96125388 -0.777170002 1.55669403
v -3.96125388 -0.581319988 1.55669403
v -3.98548698 -0.973020017 1.56401598
v -3.96125388 -0.973020017 1.55669403
v -3.96125388 -0.777170002 1.55669403
v -4.25139523 -1.20134401 1.16231596
v -4.22716188 -1.20134401 1.15499401
v -4.10848379 -1.20134401 1.38949001
v -4.13271713 -1.20134401 1.39681196
v -4.22716188 -1.20134401 1.15499401
v -4.25139523 -1.20134401 1.16231596
v -3.98548698 -0.581319988 1.56401598
v -3.96125388 -0.581319988 1.55669403
v -4.10848379 -0.581319988 1.38949001
v -4.10848379 -0.581319988 1.38949001
v -4.22716188 -0.581319988 1.15499401
v -4.22716188 -0.581319988 1.15499401
v -4.31825495 -0.581319988 0.969708025
v -4.31825495 -0.581319988 0.969708025
v -4.37818003 -0.581319988 0.799404025
v -4.47054482 -0.606737971 0.250494003
v -4.44631195 -0.606737971 0.243172005
v -4.44631195 -0.606737971 0
v -4.47054482 -0.606737971 0
v -4.44631195 -0.998436987 0.243172005
v -4.44631195 -0.802586973 0.243172005
v -4.43084288 -0.797131002 0.436361998
v -4.43084288 -0.992981017 0.436361998
v -4.22716188 -0.777170002 1.15499401
v -4.22716188 -0.973020017 1.15499401
v -4.31825495 -0.973020017 0.969708025
v -4.31825495 -0.777170002 0.969708025
v -4.44631195 -0.606737971 0.243172005
v -4.43084288 -0.797131002 0.436361998
v -4.40745306 -0.777170002 0.624279022
v -4.40745306 -0.973020017 0.624279022
v -4.40745306 -0.581319988 0.624279022
v -4.44631195 -0.998436987 0.243172005
v -4.44631195 -0.998436987 0
v -4.44631195 -0.802586973 0
v -4.37818003 -0.777170002 0.799404025
v -4.37818003 -0.973020017 0.799404025
v -4.37818003 -0.973020017 0.799404025
v -4.37818003 -0.777170002 0.799404025
v -4.31825495 -0.777170002 0.969708025
v -4.31825495 -0.973020017 0.969708025
v -4.37818003 -0.581319988 0.799404025
v -4.31825495 -0.581319988 0.969708025
v -4.22716188 -0.777170002 1.15499401
v -4.22716188 -0.973020017 1.15499401
v -4.22716188 -0.777170002 1.15499401
v -4.10848379 -0.777170002 1.38949001
v -4.10848379 -0.973020017 1.38949001
v -4.22716188 -0.581319988 1.15499401
v -4.10848379 -0.973020017 1.38949001
v -4.10848379 -0.777170002 1.38949001
v -3.96125388 -0.777170002 1.55669403
v -3.96125388 -0.973020017 1.55669403
v -4.10848379 -0.581319988 1.38949001
v -4.25139523 -0.973020017 1.16231596
v -4.34248781 -1.18764496 0.977029979
v -4.25139523 -1.18764496 1.16231596
v -4.34248781 -1.20134401 0.977029979
v -4.25139523 -1.20134401 1.16231596
v -4.13271713 -0.973020017 1.39681196
v -4.25139523 -1.18764496 1.16231596
v -4.13271713 -1.18764496 1.39681196
v -4.25139523 -1.20134401 1.16231596
v -4.13271713 -1.20134401 1.39681196
v -3.98548698 -0.973020017 1.56401598
v -4.13271713 -1.18764496 1.39681196
v -3.98548698 -1.18764496 1.56401598
v -4.13271713 -1.20134401 1.39681196
v -3.98548698 -1.20134401 1.56401598
v -4.45507622 -1.18884206 0.443684012
v -4.47054482 -1.18917 0.250494003
v -4.47054482 -1.20134401 0.250494003
v -4.45507622 -0.992981017 0.443684012
v -4.47054482 -0.998436987 0.250494003
v -4.43168592 -1.20134401 0.631600976
v -4.43168592 -1.18764496 0.631600976
v -4.43168592 -0.973020017 0.631600976
v -4.47054482 -1.18917 0
v -4.47054482 -0.998436987 0
v -4.40241289 -1.18764496 0.806725979
v -4.40241289 -0.973020017 0.806725979
v -4.34248781 -1.18764496 0.977029979
v -4.40241289 -1.18764496 0.806725979
v -4.40241289 -1.20134401 0.806725979
v -4.40241289 -0.973020017 0.806725979
v -3.98548698 -1.20134401 1.56401598
v -3.96125388 -1.20134401 1.55669403
v -3.96125388 -1.18764496 1.55669403
v -3.98548698 -1.18764496 1.56401598
v -3.96125388 -0.973020017 1.55669403
v -4.22716188 -1.20134401 1.15499401
v -4.31825495 -1.18764496 0.969708025
v -4.22716188 -1.18764496 1.15499401
v -4.31825495 -0.973020017 0.969708025
v -4.10848379 -1.20134401 1.38949001
v -4.22716188 -1.18764496 1.15499401
v -4.10848379 -1.18764496 1.38949001
v -4.22716188 -0.973020017 1.15499401
v -3.96125388 -1.20134401 1.55669403
v -4.10848379 -1.18764496 1.38949001
v -3.96125388 -1.18764496 1.55669403
v -4.10848379 -0.973020017 1.38949001
v -3.96125388 -0.973020017 1.55669403
v -4.43084288 -0.992981017 0.436361998
v -4.43084288 -1.18884206 0.436361998
v -4.44631195 -1.18917 0.243172005
v -4.44631195 -0.998436987 0.243172005
v -4.43084288 -1.20134401 0.436361998
v -4.44631195 -1.20134401 0.243172005
v -4.40745306 -0.973020017 0.624279022
v -4.40745306 -1.18764496 0.624279022
v -4.40745306 -1.20134401 0.624279022
v -4.44631195 -0.998436987 0
v -4.44631195 -1.18917 0
v -4.44631195 -1.20134401 0
v -4.37818003 -1.18764496 0.799404025
v -4.31825495 -0.973020017 0.969708025
v -4.31825495 -1.18764496 0.969708025
v -4.37818003 -1.18764496 0.799404025
v -4.31825495 -1.20134401 0.969708025
v -4.47054482 -0.998436987 -0.250494003
v -4.47054482 -0.802586973 -0.250494003
v -4.45507622 -0.797131002 -0.443684012
v -4.45507622 -0.992981017 -0.443684012
v -4.34248781 -0.973020017 -0.977029979
v -4.34248781 -0.777170002 -0.977029979
v -4.25139523 -0.777170002 -1.16231596
v -4.25139523 -0.973020017 -1.16231596
v -4.45507622 -0.601280987 -0.443684012
v -4.47054482 -0.802586973 -0.250494003
v -4.47054482 -0.606737971 -0.250494003
v -4.45507622 -0.797131002 -0.443684012
v -4.43168592 -0.777170002 -0.631600976
v -4.43168592 -0.973020017 -0.631600976
v -4.43168592 -0.581319988 -0.631600976
v -4.43168592 -0.777170002 -0.631600976
v -4.47054482 -0.998436987 -0.250494003
v -4.40241289 -0.777170002 -0.806725979
v -4.40241289 -0.973020017 -0.806725979
v -4.40241289 -0.581319988 -0.806725979
v -4.40241289 -0.777170002 -0.806725979
v -4.34248781 -0.777170002 -0.977029979
v -4.34248781 -0.973020017 -0.977029979
v -4.40241289 -0.973020017 -0.806725979
v -4.40241289 -0.777170002 -0.806725979
v -4.34248781 -0.581319988 -0.977029979
v -4.34248781 -0.777170002 -0.977029979
v -4.40241289 -0.777170002 -0.806725979
v -4.40241289 -0.581319988 -0.806725979
v -4.25139523 -0.581319988 -1.16231596
v -4.34248781 -0.777170002 -0.977029979
v -4.34248781 -0.581319988 -0.977029979
v -4.13271713 -0.777170002 -1.39681196
v -4.13271713 -0.973020017 -1.39681196
v -4.25139523 -0.973020017 -1.16231596
v -4.25139523 -0.777170002 -1.16231596
v -4.13271713 -0.581319988 -1.39681196
v -4.13271713 -0.777170002 -1.39681196
v -4.25139523 -0.777170002 -1.16231596
v -4.25139523 -0.581319988 -1.16231596
v -3.98548698 -0.777170002 -1.56401598
v -3.98548698 -0.973020017 -1.56401598
v -4.13271713 -0.973020017 -1.39681196
v -4.13271713 -0.777170002 -1.39681196
v -3.98548698 -0.581319988 -1.56401598
v -3.98548698 -0.777170002 -1.56401598
v -4.13271713 -0.777170002 -1.39681196
v -4.13271713 -0.581319988 -1.39681196
v -4.13271713 -1.20134401 -1.39681196
v -3.98548698 -1.20134401 -1.56401598
v -3.96125388 -1.20134401 -1.55669403
v -4.10848379 -1.20134401 -1.38949001
v -4.34248781 -1.20134401 -0.977029979
v -4.31825495 -1.20134401 -0.969708025
v -4.37818003 -1.20134401 -0.799404025
v -4.40241289 -1.20134401 -0.806725979
v -4.47054482 -1.20134401 -0.250494003
v -4.44631195 -1.20134401 -0.243172005
v -4.45507622 -1.20134401 -0.443684012
v -4.43168592 -1.20134401 -0.631600976
v -4.40745306 -1.20134401 -0.624279022
v -4.43084288 -1.20134401 -0.436361998
v -4.43168592 -0.581319988 -0.631600976
v -4.40745306 -0.581319988 -0.624279022
v -4.37818003 -0.581319988 -0.799404025
v -4.45507622 -0.601280987 -0.443684012
v -4.43084288 -0.601280987 -0.436361998
v -4.40241289 -1.20134401 -0.806725979
v -4.37818003 -1.20134401 -0.799404025
v -3.96125388 -0.581319988 -1.55669403
v -3.96125388 -0.777170002 -1.55669403
v -3.98548698 -0.777170002 -1.56401598
v -3.96125388 -0.777170002 -1.55669403
v -3.96125388 -0.973020017 -1.55669403
v -3.98548698 -0.973020017 -1.56401598
v -4.25139523 -1.20134401 -1.16231596
v -4.13271713 -1.20134401 -1.39681196
v -4.10848379 -1.20134401 -1.38949001
v -4.22716188 -1.20134401 -1.15499401
v -4.25139523 -1.20134401 -1.16231596
v -4.22716188 -1.20134401 -1.15499401
v -4.10848379 -0.581319988 -1.38949001
v -3.96125388 -0.581319988 -1.55669403
v -3.98548698 -0.581319988 -1.56401598
v -4.22716188 -0.581319988 -1.15499401
v -4.10848379 -0.581319988 -1.38949001
v -4.31825495 -0.581319988 -0.969708025
v -4.22716188 -0.581319988 -1.15499401
v -4.37818003 -0.581319988 -0.799404025
v -4.31825495 -0.581319988 -0.969708025
v -4.47054482 -0.606737971 -0.250494003
v -4.44631195 -0.606737971 -0.243172005
v -4.44631195 -0.998436987 -0.243172005
v -4.43084288 -0.992981017 -0.436361998
v -4.43084288 -0.797131002 -0.436361998
v -4.44631195 -0.802586973 -0.243172005
v -4.22716188 -0.777170002 -1.15499401
v -4.31825495 -0.777170002 -0.969708025
v -4.31825495 -0.973020017 -0.969708025
v -4.22716188 -0.973020017 -1.15499401
v -4.43084288 -0.797131002 -0.436361998
v -4.44631195 -0.606737971 -0.243172005
v -4.40745306 -0.973020017 -0.624279022
v -4.40745306 -0.777170002 -0.624279022
v -4.40745306 -0.581319988 -0.624279022
v -4.44631195 -0.998436987 -0.243172005
v -4.37818003 -0.973020017 -0.799404025
v -4.37818003 -0.777170002 -0.799404025
v -4.37818003 -0.973020017 -0.799404025
v -4.31825495 -0.973020017 -0.969708025
v -4.31825495 -0.777170002 -0.969708025
v -4.37818003 -0.777170002 -0.799404025
v -4.37818003 -0.581319988 -0.799404025
v -4.22716188 -0.777170002 -1.15499401
v -4.31825495 -0.581319988 -0.969708025
v -4.22716188 -0.973020017 -1.15499401
v -4.10848379 -0.973020017 -1.38949001
v -4.10848379 -0.777170002 -1.38949001
v -4.22716188 -0.777170002 -1.15499401
v -4.22716188 -0.581319988 -1.15499401
v -4.10848379 -0.973020017 -1.38949001
v -3.96125388 -0.973020017 -1.55669403
v -3.96125388 -0.777170002 -1.55669403
v -4.10848379 -0.777170002 -1.38949001
v -4.10848379 -0.581319988 -1.38949001
v -4.25139523 -0.973020017 -1.16231596
v -4.25139523 -1.18764496 -1.16231596
v -4.34248781 -1.18764496 -0.977029979
v -4.25139523 -1.20134401 -1.16231596
v -4.34248781 -1.20134401 -0.977029979
v -4.13271713 -0.973020017 -1.39681196
v -4.13271713 -1.18764496 -1.39681196
v -4.25139523 -1.18764496 -1.16231596
v -4.13271713 -1.20134401 -1.39681196
v -4.25139523 -1.20134401 -1.16231596
v -3.98548698 -0.973020017 -1.56401598
v -3.98548698 -1.18764496 -1.56401598
v -4.13271713 -1.18764496 -1.39681196
v -3.98548698 -1.20134401 -1.56401598
v -4.13271713 -1.20134401 -1.39681196
v -4.47054482 -1.20134401 -0.250494003
v -4.47054482 -1.18917 -0.250494003
v -4.45507622 -1.18884206 -0.443684012
v -4.47054482 -0.998436987 -0.250494003
v -4.45507622 -0.992981017 -0.443684012
v -4.43168592 -1.18764496 -0.631600976
v -4.43168592 -1.20134401 -0.631600976
v -4.43168592 -0.973020017 -0.631600976
v -4.40241289 -1.18764496 -0.806725979
v -4.40241289 -0.973020017 -0.806725979
v -4.40241289 -1.20134401 -0.806725979
v -4.40241289 -1.18764496 -0.806725979
v -4.34248781 -1.18764496 -0.977029979
v -4.40241289 -0.973020017 -0.806725979
v -3.98548698 -1.20134401 -1.56401598
v -3.98548698 -1.18764496 -1.56401598
v -3.96125388 -1.18764496 -1.55669403
v -3.96125388 -1.20134401 -1.55669403
v -3.96125388 -0.973020017 -1.55669403
v -4.22716188 -1.20134401 -1.15499401
v -4.22716188 -1.18764496 -1.15499401
v -4.31825495 -1.18764496 -0.969708025
v -4.31825495 -0.973020017 -0.969708025
v -4.10848379 -1.20134401 -1.38949001
v -4.10848379 -1.18764496 -1.38949001
v -4.22716188 -1.18764496 -1.15499401
v -4.22716188 -0.973020017 -1.15499401
v -3.96125388 -1.20134401 -1.55669403
v -3.96125388 -1.18764496 -1.55669403
v -4.10848379 -1.18764496 -1.38949001
v -3.96125388 -0.973020017 -1.55669403
v -4.10848379 -0.973020017 -1.38949001
v -4.43084288 -0.992981017 -0.436361998
v -4.44631195 -0.998436987 -0.243172005
v -4.44631195 -1.18917 -0.243172005
v -4.43084288 -1.18884206 -0.436361998
v -4.44631195 -1.20134401 -0.243172005
v -4.43084288 -1.20134401 -0.436361998
v -4.40745306 -1.18764496 -0.624279022
v -4.40745306 -0.973020017 -0.624279022
v -4.40745306 -1.20134401 -0.624279022
v -4.37818003 -1.18764496 -0.799404025
v -4.31825495 -0.973020017 -0.969708025
v -4.37818003 -1.18764496 -0.799404025
v -4.31825495 -1.18764496 -0.969708025
v -4.31825495 -1.20134401 -0.969708025
vt 1 0
vt 0 0
vt 0 0.5
vt 1 0.5
vt 1 0
vt 0 0
vt 0 0.5
vt 1 0.5
vt 1 0.5
vt 1 1
vt 0 1
vt 1 0
vt 0 0.5
vt 1 0.5
vt 0 1
vt 1 1
vt 1 0
vt 0 0
vt 0 0.5
vt 1 0.5
vt 0 0.5
vt 1 0
vt 0 0
vt 1 0.5
vt 0 0.5
vt 1 0
vt 1 0.5
vt 0 0.5
vt 0 0
vt 1 0.5
vt 1 1
vt 0 1
vt 0 0.5
vt 1 0.5
vt 1 1
vt 0 1
vt 1 0
vt 1 0.5
vt 0 0.5
vt 0 0
vt 1 0.5
vt 1 1
vt 0 1
vt 0 0.5
vt 1 0
vt 1 0.5
vt 0 0.5
vt 0 0
vt 1 0.5
vt 1 1
vt 0 1
vt 0 0.5
vt 0 0
vt 0 1
vt 1 1
vt 1 0
vt 0 0
vt 1 0
vt 1 1
vt 0 1
vt 0 0
vt 0 1
vt 1 1
vt 1 0
vt 0 0
vt 0 1
vt 1 1
vt 1 0
vt 1 0.5
vt 0 1
vt 0 0.5
vt 0 1
vt 1 1
vt 0 0
vt 0 1
vt 1 1
vt 0 1
vt 0 0.5
vt 1 0.5
vt 0 0.5
vt 0 0
vt 0 0
vt 0 1
vt 1 1
vt 1 0
vt 1 1
vt 1 0
vt 1 1
vt 0 1
vt 0 0.5
vt 0 1
vt 0 0.5
vt 0 1
vt 0 0.5
vt 0 1
vt 0 0.5
vt 1 0.5
vt 0 0.5
vt 0 1
vt 1 1
vt 0 0.5
vt 1 0.5
vt 1 0
vt 0 0
vt 1 0
vt 0 0
vt 0 0.5
vt 1 0.5
vt 1 1
vt 0 0.5
vt 1 0.5
vt 1 0
vt 1 1
vt 1 0
vt 0 0
vt 0 0.5
vt 0 0.5
vt 0 0
vt 1 0
vt 1 0.5
vt 0 0.5
vt 0 0
vt 1 1
vt 1 1
vt 0 0.5
vt 1 0
vt 1 0.5
vt 0 0.5
vt 0 0
vt 1 1
vt 1 0
vt 1 0.5
vt 0 0.5
vt 0 0
vt 1 1
vt 1 0
vt 0 0.5
vt 1 0.5
vt 0 1
vt 1 1
vt 1 0
vt 0 0.5
vt 1 0.5
vt 0 1
vt 1 1
vt 1 0
vt 0 0.5
vt 1 0.5
vt 0 1
vt 1 1
vt 0.5 0
vt 0.5 1
vt 0 1
vt 1 0
vt 1 1
vt 0 1
vt 0.5 1
vt 1 1
vt 0.5 0
vt 1 0
vt 0.5 0
vt 1 0
vt 0.5 0
vt 0.5 1
vt 0 1
vt 1 1
vt 0 0
vt 0 1
vt 0.5 1
vt 0.5 0
vt 1 1
vt 0 0
vt 0.5 1
vt 0.5 0
vt 1 1
vt 0 0
vt 0.5 1
vt 0.5 0
vt 1 1
vt 0 0
vt 0.5 1
vt 0.5 0
vt 1 1
vt 1 0
vt 1 0
vt 1 0.5
vt 0 0.5
vt 0 0
vt 1 1
vt 0 1
vt 0 0
vt 0 0.5
vt 0 1
vt 1 0
vt 1 0.5
vt 1 1
vt 1 0.5
vt 1 0
vt 1 0.5
vt 0 0.5
vt 1 1
vt 1 0
vt 1 0.5
vt 0 0.5
vt 0 0
vt 1 0
vt 1 0.5
vt 0 0.5
vt 0 0
vt 1 0.5
vt 0 1
vt 1 1
vt 1 0
vt 1 0.5
vt 0 0.5
vt 1 1
vt 0 1
vt 0 0.5
vt 1 0
vt 0 0
vt 1 0.5
vt 0 0.5
vt 1 0
vt 0 0
vt 0 0.5
vt 1 0.5
vt 1 0.5
vt 0 0.5
vt 0 1
vt 1 1
vt 1 0.5
vt 0 1
vt 1 1
vt 1 0
vt 0 0
vt 0 0.5
vt 1 0.5
vt 1 0.5
vt 0 0.5
vt 0 1
vt 1 1
vt 1 0
vt 0 0
vt 0 0.5
vt 1 0.5
vt 1 0.5
vt 0 0.5
vt 0 1
vt 1 1
vt 0 0
vt 1 0
vt 1 1
vt 0 1
vt 0 0
vt 0 1
vt 1 1
vt 1 0
vt 1 0
vt 1 1
vt 0 0
vt 1 0
vt 1 1
vt 0 1
vt 1 0.5
vt 0 0.5
vt 0 1
vt 1 1
vt 0 1
vt 0 0
vt 0 1
vt 0 0.5
vt 0 1
vt 1 1
vt 0 0
vt 0 0.5
vt 1 0.5
vt 0 0
vt 1 0
vt 1 1
vt 0 1
vt 1 0
vt 1 1
vt 0 0.5
vt 0 1
vt 1 1
vt 0 0.5
vt 0 1
vt 0 0.5
vt 0 1
vt 0 0.5
vt 0 1
vt 1 0.5
vt 0 0.5
vt 0 0.5
vt 0 0
vt 1 0
vt 1 0.5
vt 1 0
vt 1 0.5
vt 0 0.5
vt 0 0
vt 0 0.5
vt 1 1
vt 1 0
vt 1 0.5
vt 1 1
vt 1 0
vt 0 0
vt 0 0.5
vt 1 0
vt 0 0
vt 0 0.5
vt 1 0.5
vt 1 1
vt 0 0.5
vt 1 1
vt 1 0
vt 0 0
vt 0 0.5
vt 1 0.5
vt 1 1
vt 1 0
vt 0 0
vt 0 0.5
vt 1 0.5
vt 1 1
vt 1 0
vt 1 0.5
vt 0 0.5
vt 1 1
vt 0 1
vt 1 0
vt 1 0.5
vt 0 0.5
vt 1 1
vt 0 1
vt 1 0
vt 1 0.5
vt 0 0.5
vt 1 1
vt 0 1
vt 0 1
vt 0.5 1
vt 0.5 0
vt 1 1
vt 1 0
vt 0.5 1
vt 0 1
vt 1 1
vt 0.5 0
vt 1 0
vt 0 1
vt 0.5 1
vt 0.5 0
vt 1 1
vt 0 0
vt 0.5 0
vt 0.5 1
vt 0 1
vt 1 1
vt 0 0
vt 0.5 0
vt 0.5 1
vt 1 1
vt 0 0
vt 0.5 0
vt 0.5 1
vt 1 1
vt 0 0
vt 0.5 0
vt 0.5 1
vt 1 0
vt 1 1
vt 1 0
vt 0 0
vt 0 0.5
vt 1 0.5
vt 0 1
vt 1 1
vt 0 0.5
vt 0 0
vt 0 1
vt 1 0.5
vt 1 0
vt 0 0.5
vt 1 0.5
vt 1 1
vn -0.999199986 0 0.0399000011
vn -0.994799972 0 0.1017
vn -0.994799972 0 0.1017
vn -0.999199986 0 0.0399000011
vn -0.921999991 0 0.387199998
vn -0.894800007 0 0.446399987
vn -0.894800007 0 0.446399987
vn -0.921999991 0 0.387199998
vn -0.726499975 0.686600029 0.0256999992
vn -0.720300019 0.693400025 0.0177999996
vn -0.999199986 0 0.0399000011
vn -0.994799972 0 0.1017
vn -0.989499986 0 0.144199997
vn -0.989499986 0 0.144199997
vn -0.989499986 0 0.144199997
vn -0.700200021 0.710699975 0.0683000013
vn -1 0 0
vn -1 0 0
vn -0.999199986 0 0.0399000011
vn -0.707099974 0.707099974 0
vn -1 0 0
vn -0.968400002 0 0.249300003
vn -0.968400002 0 0.249300003
vn -0.702600002 0.688199997 0.180899993
vn -0.968400002 0 0.249300003
vn -0.921999991 0 0.387199998
vn -0.968400002 0 0.249300003
vn -0.968400002 0 0.249300003
vn -0.921999991 0 0.387199998
vn -0.663800001 0.694000006 0.278800011
vn -0.702600002 0.688199997 0.180899993
vn -0.968400002 0 0.249300003
vn -0.921999991 0 0.387199998
vn -0.633899987 0.705799997 0.316199988
vn -0.663800001 0.694000006 0.278800011
vn -0.921999991 0 0.387199998
vn -0.828000009 0 0.560699999
vn -0.894800007 0 0.446399987
vn -0.894800007 0 0.446399987
vn -0.828000009 0 0.560699999
vn -0.607299984 0.679700017 0.411199987
vn -0.633899987 0.705799997 0.316199988
vn -0.894800007 0 0.446399987
vn -0.828000009 0 0.560699999
vn -0.274100006 0 0.961700022
vn -0.828000009 0 0.560699999
vn -0.828000009 0 0.560699999
vn -0.274100006 0 0.961700022
vn -0.218600005 0.603299975 0.76700002
vn -0.607299984 0.679700017 0.411199987
vn -0.828000009 0 0.560699999
vn -0.274100006 0 0.961700022
vn -0.607299984 -0.679700017 0.411199987
vn 0.559899986 -0.736699998 -0.379200011
vn 0.797999978 -0.558099985 0.227500007
vn -0.218600005 -0.603299975 0.76700002
vn -0.663800001 -0.694000006 0.278800011
vn -0.702600002 -0.688199997 0.180899993
vn 0.664900005 -0.726999998 -0.171200007
vn 0.639100015 -0.720700026 -0.268400013
vn -0.707099974 -0.707099974 0
vn 0.707099974 -0.707099974 0
vn 0.697300017 -0.716199994 -0.0278999992
vn -0.715300024 -0.698199987 0.0285999998
vn -0.708299994 -0.702199996 0.0724000037
vn 0.698400021 -0.712100029 -0.0714000016
vn 0.694999993 -0.711799979 -0.101300001
vn -0.704299986 -0.702400029 0.102600001
vn -0.700200021 0.710699975 0.0683000013
vn 0.664900005 0.726999998 -0.171200007
vn 0.674199998 0.725000024 -0.141000003
vn 0.698400021 0.706200004 -0.115999997
vn -0.726499975 0.686600029 0.0256999992
vn -0.702600002 -0.688199997 0.180899993
vn 0.664900005 -0.726999998 -0.171200007
vn -0.274100006 0 0.961700022
vn 0.961700022 0 0.274100006
vn 0.797999978 0.558099985 0.227500007
vn -0.274100006 0 0.961700022
vn 0.961700022 0 0.274100006
vn 0.961700022 0 0.274100006
vn -0.633899987 -0.705799997 0.316199988
vn 0.631600022 -0.708400011 -0.314999998
vn 0.559899986 -0.736699998 -0.379200011
vn -0.607299984 -0.679700017 0.411199987
vn 0.631600022 -0.708400011 -0.314999998
vn -0.633899987 -0.705799997 0.316199988
vn -0.218600005 0.603299975 0.76700002
vn 0.797999978 0.558099985 0.227500007
vn 0.559899986 0.736699998 -0.379200011
vn 0.559899986 0.736699998 -0.379200011
vn 0.631600022 0.708400011 -0.314999998
vn 0.631600022 0.708400011 -0.314999998
vn 0.639100015 0.720700026 -0.268400013
vn 0.639100015 0.720700026 -0.268400013
vn 0.664900005 0.726999998 -0.171200007
vn -0.720300019 0.693400025 0.0177999996
vn 0.699100018 0.714100003 -0.0366000012
vn 0.707099974 0.707099974 0
vn -0.707099974 0.707099974 0
vn 0.999199986 0 -0.0399000011
vn 0.999199986 0 -0.0399000011
vn 0.994799972 0 -0.1017
vn 0.994799972 0 -0.1017
vn 0.894800007 0 -0.446399987
vn 0.894800007 0 -0.446399987
vn 0.921999991 0 -0.387199998
vn 0.921999991 0 -0.387199998
vn 0.699100018 0.714100003 -0.0366000012
vn 0.994799972 0 -0.1017
vn 0.989499986 0 -0.144199997
vn 0.989499986 0 -0.144199997
vn 0.674199998 0.725000024 -0.141000003
vn 0.999199986 0 -0.0399000011
vn 1 0 0
vn 1 0 0
vn 0.968400002 0 -0.249300003
vn 0.968400002 0 -0.249300003
vn 0.968400002 0 -0.249300003
vn 0.968400002 0 -0.249300003
vn 0.921999991 0 -0.387199998
vn 0.921999991 0 -0.387199998
vn 0.664900005 0.726999998 -0.171200007
vn 0.639100015 0.720700026 -0.268400013
vn 0.894800007 0 -0.446399987
vn 0.894800007 0 -0.446399987
vn 0.894800007 0 -0.446399987
vn 0.828000009 0 -0.560699999
vn 0.828000009 0 -0.560699999
vn 0.631600022 0.708400011 -0.314999998
vn 0.828000009 0 -0.560699999
vn 0.828000009 0 -0.560699999
vn 0.961700022 0 0.274100006
vn 0.961700022 0 0.274100006
vn 0.559899986 0.736699998 -0.379200011
vn -0.894800007 0 0.446399987
vn -0.921999991 0 0.387199998
vn -0.894800007 0 0.446399987
vn -0.663800001 -0.694000006 0.278800011
vn -0.633899987 -0.705799997 0.316199988
vn -0.828000009 0 0.560699999
vn -0.894800007 0 0.446399987
vn -0.828000009 0 0.560699999
vn -0.633899987 -0.705799997 0.316199988
vn -0.607299984 -0.679700017 0.411199987
vn -0.274100006 0 0.961700022
vn -0.828000009 0 0.560699999
vn -0.274100006 0 0.961700022
vn -0.607299984 -0.679700017 0.411199987
vn -0.218600005 -0.603299975 0.76700002
vn -0.994799972 0 0.1017
vn -0.999199986 0 0.0399000011
vn -0.715300024 -0.698199987 0.0285999998
vn -0.994799972 0 0.1017
vn -0.999199986 0 0.0399000011
vn -0.704299986 -0.702400029 0.102600001
vn -0.989499986 0 0.144199997
vn -0.989499986 0 0.144199997
vn -1 0 0
vn -1 0 0
vn -0.968400002 0 0.249300003
vn -0.968400002 0 0.249300003
vn -0.921999991 0 0.387199998
vn -0.968400002 0 0.249300003
vn -0.702600002 -0.688199997 0.180899993
vn -0.968400002 0 0.249300003
vn -0.218600005 -0.603299975 0.76700002
vn 0.797999978 -0.558099985 0.227500007
vn 0.961700022 0 0.274100006
vn -0.274100006 0 0.961700022
vn 0.961700022 0 0.274100006
vn 0.631600022 -0.708400011 -0.314999998
vn 0.921999991 0 -0.387199998
vn 0.894800007 0 -0.446399987
vn 0.921999991 0 -0.387199998
vn 0.559899986 -0.736699998 -0.379200011
vn 0.894800007 0 -0.446399987
vn 0.828000009 0 -0.560699999
vn 0.894800007 0 -0.446399987
vn 0.797999978 -0.558099985 0.227500007
vn 0.828000009 0 -0.560699999
vn 0.961700022 0 0.274100006
vn 0.828000009 0 -0.560699999
vn 0.961700022 0 0.274100006
vn 0.994799972 0 -0.1017
vn 0.994799972 0 -0.1017
vn 0.999199986 0 -0.0399000011
vn 0.999199986 0 -0.0399000011
vn 0.698400021 -0.712100029 -0.0714000016
vn 0.697300017 -0.716199994 -0.0278999992
vn 0.989499986 0 -0.144199997
vn 0.989499986 0 -0.144199997
vn 0.694999993 -0.711799979 -0.101300001
vn 1 0 0
vn 1 0 0
vn 0.707099974 -0.707099974 0
vn 0.968400002 0 -0.249300003
vn 0.921999991 0 -0.387199998
vn 0.921999991 0 -0.387199998
vn 0.968400002 0 -0.249300003
vn 0.639100015 -0.720700026 -0.268400013
vn -0.999199986 0 -0.0399000011
vn -0.999199986 0 -0.0399000011
vn -0.994799972 0 -0.1017
vn -0.994799972 0 -0.1017
vn -0.921999991 0 -0.387199998
vn -0.921999991 0 -0.387199998
vn -0.894800007 0 -0.446399987
vn -0.894800007 0 -0.446399987
vn -0.726499975 0.686600029 -0.0256999992
vn -0.999199986 0 -0.0399000011
vn -0.720300019 0.693400025 -0.0177999996
vn -0.994799972 0 -0.1017
vn -0.989499986 0 -0.144199997
vn -0.989499986 0 -0.144199997
vn -0.700200021 0.710699975 -0.0683000013
vn -0.989499986 0 -0.144199997
vn -0.999199986 0 -0.0399000011
vn -0.968400002 0 -0.249300003
vn -0.968400002 0 -0.249300003
vn -0.702600002 0.688199997 -0.180899993
vn -0.968400002 0 -0.249300003
vn -0.921999991 0 -0.387199998
vn -0.921999991 0 -0.387199998
vn -0.968400002 0 -0.249300003
vn -0.968400002 0 -0.249300003
vn -0.663800001 0.694000006 -0.278800011
vn -0.921999991 0 -0.387199998
vn -0.968400002 0 -0.249300003
vn -0.702600002 0.688199997 -0.180899993
vn -0.633899987 0.705799997 -0.316199988
vn -0.921999991 0 -0.387199998
vn -0.663800001 0.694000006 -0.278800011
vn -0.828000009 0 -0.560699999
vn -0.828000009 0 -0.560699999
vn -0.894800007 0 -0.446399987
vn -0.894800007 0 -0.446399987
vn -0.607299984 0.679700017 -0.411199987
vn -0.828000009 0 -0.560699999
vn -0.894800007 0 -0.446399987
vn -0.633899987 0.705799997 -0.316199988
vn -0.274100006 0 -0.961700022
vn -0.274100006 0 -0.961700022
vn -0.828000009 0 -0.560699999
vn -0.828000009 0 -0.560699999
vn -0.218600005 0.603299975 -0.76700002
vn -0.274100006 0 -0.961700022
vn -0.828000009 0 -0.560699999
vn -0.607299984 0.679700017 -0.411199987
vn -0.607299984 -0.679700017 -0.411199987
vn -0.218600005 -0.603299975 -0.76700002
vn 0.797999978 -0.558099985 -0.227500007
vn 0.559899986 -0.736699998 0.379200011
vn -0.663800001 -0.694000006 -0.278800011
vn 0.639100015 -0.720700026 0.268400013
vn 0.664900005 -0.726999998 0.171200007
vn -0.702600002 -0.688199997 -0.180899993
vn -0.715300024 -0.698199987 -0.0285999998
vn 0.697300017 -0.716199994 0.0278999992
vn -0.708299994 -0.702199996 -0.0724000037
vn -0.704299986 -0.702400029 -0.102600001
vn 0.694999993 -0.711799979 0.101300001
vn 0.698400021 -0.712100029 0.0714000016
vn -0.700200021 0.710699975 -0.0683000013
vn 0.674199998 0.725000024 0.141000003
vn 0.664900005 0.726999998 0.171200007
vn -0.726499975 0.686600029 -0.0256999992
vn 0.698400021 0.706200004 0.115999997
vn -0.702600002 -0.688199997 -0.180899993
vn 0.664900005 -0.726999998 0.171200007
vn 0.797999978 0.558099985 -0.227500007
vn 0.961700022 0 -0.274100006
vn -0.274100006 0 -0.961700022
vn 0.961700022 0 -0.274100006
vn 0.961700022 0 -0.274100006
vn -0.274100006 0 -0.961700022
vn -0.633899987 -0.705799997 -0.316199988
vn -0.607299984 -0.679700017 -0.411199987
vn 0.559899986 -0.736699998 0.379200011
vn 0.631600022 -0.708400011 0.314999998
vn -0.633899987 -0.705799997 -0.316199988
vn 0.631600022 -0.708400011 0.314999998
vn 0.559899986 0.736699998 0.379200011
vn 0.797999978 0.558099985 -0.227500007
vn -0.218600005 0.603299975 -0.76700002
vn 0.631600022 0.708400011 0.314999998
vn 0.559899986 0.736699998 0.379200011
vn 0.639100015 0.720700026 0.268400013
vn 0.631600022 0.708400011 0.314999998
vn 0.664900005 0.726999998 0.171200007
vn 0.639100015 0.720700026 0.268400013
vn -0.720300019 0.693400025 -0.0177999996
vn 0.699100018 0.714100003 0.0366000012
vn 0.999199986 0 0.0399000011
vn 0.994799972 0 0.1017
vn 0.994799972 0 0.1017
vn 0.999199986 0 0.0399000011
vn 0.894800007 0 0.446399987
vn 0.921999991 0 0.387199998
vn 0.921999991 0 0.387199998
vn 0.894800007 0 0.446399987
vn 0.994799972 0 0.1017
vn 0.699100018 0.714100003 0.0366000012
vn 0.989499986 0 0.144199997
vn 0.989499986 0 0.144199997
vn 0.674199998 0.725000024 0.141000003
vn 0.999199986 0 0.0399000011
vn 0.968400002 0 0.249300003
vn 0.968400002 0 0.249300003
vn 0.968400002 0 0.249300003
vn 0.921999991 0 0.387199998
vn 0.921999991 0 0.387199998
vn 0.968400002 0 0.249300003
vn 0.664900005 0.726999998 0.171200007
vn 0.894800007 0 0.446399987
vn 0.639100015 0.720700026 0.268400013
vn 0.894800007 0 0.446399987
vn 0.828000009 0 0.560699999
vn 0.828000009 0 0.560699999
vn 0.894800007 0 0.446399987
vn 0.631600022 0.708400011 0.314999998
vn 0.828000009 0 0.560699999
vn 0.961700022 0 -0.274100006
vn 0.961700022 0 -0.274100006
vn 0.828000009 0 0.560699999
vn 0.559899986 0.736699998 0.379200011
vn -0.894800007 0 -0.446399987
vn -0.894800007 0 -0.446399987
vn -0.921999991 0 -0.387199998
vn -0.633899987 -0.705799997 -0.316199988
vn -0.663800001 -0.694000006 -0.278800011
vn -0.828000009 0 -0.560699999
vn -0.828000009 0 -0.560699999
vn -0.894800007 0 -0.446399987
vn -0.607299984 -0.679700017 -0.411199987
vn -0.633899987 -0.705799997 -0.316199988
vn -0.274100006 0 -0.961700022
vn -0.274100006 0 -0.961700022
vn -0.828000009 0 -0.560699999
vn -0.218600005 -0.603299975 -0.76700002
vn -0.607299984 -0.679700017 -0.411199987
vn -0.715300024 -0.698199987 -0.0285999998
vn -0.999199986 0 -0.0399000011
vn -0.994799972 0 -0.1017
vn -0.999199986 0 -0.0399000011
vn -0.994799972 0 -0.1017
vn -0.989499986 0 -0.144199997
vn -0.704299986 -0.702400029 -0.102600001
vn -0.989499986 0 -0.144199997
vn -0.968400002 0 -0.249300003
vn -0.968400002 0 -0.249300003
vn -0.702600002 -0.688199997 -0.180899993
vn -0.968400002 0 -0.249300003
vn -0.921999991 0 -0.387199998
vn -0.968400002 0 -0.249300003
vn -0.218600005 -0.603299975 -0.76700002
vn -0.274100006 0 -0.961700022
vn 0.961700022 0 -0.274100006
vn 0.797999978 -0.558099985 -0.227500007
vn 0.961700022 0 -0.274100006
vn 0.631600022 -0.708400011 0.314999998
vn 0.894800007 0 0.446399987
vn 0.921999991 0 0.387199998
vn 0.921999991 0 0.387199998
vn 0.559899986 -0.736699998 0.379200011
vn 0.828000009 0 0.560699999
vn 0.894800007 0 0.446399987
vn 0.894800007 0 0.446399987
vn 0.797999978 -0.558099985 -0.227500007
vn 0.961700022 0 -0.274100006
vn 0.828000009 0 0.560699999
vn 0.961700022 0 -0.274100006
vn 0.828000009 0 0.560699999
vn 0.994799972 0 0.1017
vn 0.999199986 0 0.0399000011
vn 0.999199986 0 0.0399000011
vn 0.994799972 0 0.1017
vn 0.697300017 -0.716199994 0.0278999992
vn 0.698400021 -0.712100029 0.0714000016
vn 0.989499986 0 0.144199997
vn 0.989499986 0 0.144199997
vn 0.694999993 -0.711799979 0.101300001
vn 0.968400002 0 0.249300003
vn 0.921999991 0 0.387199998
vn 0.968400002 0 0.249300003
vn 0.921999991 0 0.387199998
vn 0.639100015 -0.720700026 0.268400013
f 1/1/1 2/2/2 3/3/3
f 1/1/1 3/3/3 4/4/4
f 5/5/5 6/6/6 7/7/7
f 5/5/5 7/7/7 8/8/8
f 9/9/9 10/10/10 11/11/11
f 9/9/9 11/11/11 3/3/3
f 12/12/12 2/2/2 13/13/13
f 12/12/12 13/13/13 14/14/14
f 9/9/9 3/3/3 15/15/15
f 9/9/9 15/15/15 16/16/16
f 17/17/17 18/18/18 19/19/19
f 17/17/17 19/19/19 4/4/4
f 20/20/20 21/21/21 11/11/11
f 20/20/20 11/11/11 10/10/10
f 22/22/22 14/14/14 13/13/13
f 22/22/22 13/13/13 23/23/23
f 24/24/24 16/16/16 15/15/15
f 24/24/24 15/15/15 25/25/25
f 26/26/26 27/27/27 28/28/28
f 26/26/26 28/28/28 29/29/29
f 30/30/30 31/31/31 32/32/32
f 30/30/30 32/32/32 33/33/33
f 34/34/34 35/35/35 36/36/36
f 34/34/34 36/36/36 7/7/7
f 37/37/37 38/38/38 39/39/39
f 37/37/37 39/39/39 40/40/40
f 41/41/41 42/42/42 43/43/43
f 41/41/41 43/43/43 44/44/44
f 45/45/45 46/46/46 47/47/47
f 45/45/45 47/47/47 48/48/48
f 49/49/49 50/50/50 51/51/51
f 49/49/49 51/51/51 52/52/52
f 53/53/53 54/54/54 55/55/55
f 53/53/53 55/55/55 56/56/56
f 57/57/57 58/58/58 59/59/59
f 57/57/57 59/59/59 60/60/60
f 61/61/61 62/62/62 63/63/63
f 61/61/61 63/63/63 64/64/64
f 65/65/65 66/66/66 67/67/67
f 65/65/65 67/67/67 68/68/68
f 69/69/69 31/31/31 70/70/70
f 69/69/69 70/70/70 71/71/71
f 69/69/69 71/71/71 72/72/72
f 69/69/69 72/72/72 73/73/73
f 74/74/74 68/68/68 67/67/67
f 74/74/74 67/67/67 75/75/75
f 49/49/49 76/76/76 77/77/77
f 49/49/49 77/77/77 78/78/78
f 45/45/45 79/79/79 80/80/80
f 45/45/45 80/80/80 81/81/81
f 82/82/82 83/83/83 84/84/84
f 82/82/82 84/84/84 85/85/85
f 57/57/57 60/60/60 86/86/86
f 57/57/57 86/86/86 87/87/87
f 65/65/65 64/64/64 63/63/63
f 65/65/65 63/63/63 66/66/66
f 41/41/41 88/88/88 89/89/89
f 41/41/41 89/89/89 90/90/90
f 34/34/34 50/50/50 91/91/91
f 34/34/34 91/91/91 92/92/92
f 30/30/30 42/42/42 93/93/93
f 30/30/30 93/93/93 94/94/94
f 24/24/24 35/35/35 95/95/95
f 24/24/24 95/95/95 96/96/96
f 97/97/97 98/98/98 99/99/99
f 97/97/97 99/99/99 100/100/100
f 97/97/97 73/73/73 72/72/72
f 97/97/97 72/72/72 98/98/98
f 101/101/101 102/102/102 103/103/103
f 101/101/101 103/103/103 104/104/104
f 105/105/105 106/106/106 107/107/107
f 105/105/105 107/107/107 108/108/108
f 102/102/102 109/109/109 72/72/72
f 102/102/102 72/72/72 110/110/110
f 110/110/110 111/111/111 112/112/112
f 110/110/110 112/112/112 104/104/104
f 111/111/111 110/110/110 72/72/72
f 111/111/111 72/72/72 113/113/113
f 114/114/114 115/115/115 116/116/116
f 114/114/114 116/116/116 102/102/102
f 102/102/102 116/116/116 99/99/99
f 102/102/102 99/99/99 109/109/109
f 112/112/112 111/111/111 117/117/117
f 112/112/112 117/117/117 118/118/118
f 111/111/111 113/113/113 70/70/70
f 111/111/111 70/70/70 117/117/117
f 119/119/119 120/120/120 121/121/121
f 119/119/119 121/121/121 122/122/122
f 120/120/120 123/123/123 95/95/95
f 120/120/120 95/95/95 121/121/121
f 108/108/108 124/124/124 93/93/93
f 108/108/108 93/93/93 125/125/125
f 126/126/126 127/127/127 128/128/128
f 126/126/126 128/128/128 129/129/129
f 127/127/127 130/130/130 91/91/91
f 127/127/127 91/91/91 128/128/128
f 131/131/131 132/132/132 133/133/133
f 131/131/131 133/133/133 134/134/134
f 132/132/132 135/135/135 89/89/89
f 132/132/132 89/89/89 133/133/133
f 136/136/136 29/29/29 137/137/137
f 136/136/136 137/137/137 138/138/138
f 138/138/138 137/137/137 139/139/139
f 138/138/138 139/139/139 140/140/140
f 141/141/141 6/6/6 142/142/142
f 141/141/141 142/142/142 143/143/143
f 143/143/143 142/142/142 144/144/144
f 143/143/143 144/144/144 145/145/145
f 146/146/146 40/40/40 147/147/147
f 146/146/146 147/147/147 148/148/148
f 148/148/148 147/147/147 149/149/149
f 148/148/148 149/149/149 150/150/150
f 65/65/65 151/151/151 152/152/152
f 65/65/65 152/152/152 153/153/153
f 151/151/151 154/154/154 155/155/155
f 151/151/151 155/155/155 152/152/152
f 65/65/65 156/156/156 157/157/157
f 65/65/65 157/157/157 151/151/151
f 158/158/158 154/154/154 151/151/151
f 158/158/158 151/151/151 157/157/157
f 61/61/61 153/153/153 152/152/152
f 61/61/61 152/152/152 159/159/159
f 159/159/159 152/152/152 155/155/155
f 159/159/159 155/155/155 160/160/160
f 74/74/74 161/161/161 157/157/157
f 74/74/74 157/157/157 156/156/156
f 161/161/161 162/162/162 158/158/158
f 161/161/161 158/158/158 157/157/157
f 57/57/57 163/163/163 164/164/164
f 57/57/57 164/164/164 165/165/165
f 163/163/163 5/5/5 166/166/166
f 163/163/163 166/166/166 164/164/164
f 167/167/167 168/168/168 169/169/169
f 167/167/167 169/169/169 170/170/170
f 170/170/170 169/169/169 171/171/171
f 170/170/170 171/171/171 146/146/146
f 172/172/172 60/60/60 173/173/173
f 172/172/172 173/173/173 174/174/174
f 174/174/174 173/173/173 175/175/175
f 174/174/174 175/175/175 126/126/126
f 176/176/176 83/83/83 177/177/177
f 176/176/176 177/177/177 178/178/178
f 178/178/178 177/177/177 179/179/179
f 178/178/178 179/179/179 131/131/131
f 180/180/180 54/54/54 181/181/181
f 180/180/180 181/181/181 182/182/182
f 182/182/182 181/181/181 183/183/183
f 182/182/182 183/183/183 184/184/184
f 185/185/185 186/186/186 187/187/187
f 185/185/185 187/187/187 188/188/188
f 186/186/186 189/189/189 190/190/190
f 186/186/186 190/190/190 187/187/187
f 185/185/185 191/191/191 192/192/192
f 185/185/185 192/192/192 186/186/186
f 186/186/186 192/192/192 193/193/193
f 186/186/186 193/193/193 189/189/189
f 194/194/194 188/188/188 187/187/187
f 194/194/194 187/187/187 195/195/195
f 195/195/195 187/187/187 190/190/190
f 195/195/195 190/190/190 196/196/196
f 119/119/119 197/197/197 192/192/192
f 119/119/119 192/192/192 191/191/191
f 197/197/197 59/59/59 193/193/193
f 197/197/197 193/193/193 192/192/192
f 198/198/198 199/199/199 200/200/200
f 198/198/198 200/200/200 118/118/118
f 199/199/199 201/201/201 75/75/75
f 199/199/199 75/75/75 200/200/200
f 202/202/202 203/203/203 204/204/204
f 202/202/202 204/204/204 205/205/205
f 206/206/206 207/207/207 208/208/208
f 206/206/206 208/208/208 209/209/209
f 210/210/210 204/204/204 211/211/211
f 210/210/210 211/211/211 212/212/212
f 213/213/213 214/214/214 215/215/215
f 213/213/213 215/215/215 205/205/205
f 210/210/210 216/216/216 217/217/217
f 210/210/210 217/217/217 204/204/204
f 17/17/17 203/203/203 218/218/218
f 17/17/17 218/218/218 18/18/18
f 20/20/20 212/212/212 211/211/211
f 20/20/20 211/211/211 21/21/21
f 219/219/219 220/220/220 215/215/215
f 219/219/219 215/215/215 214/214/214
f 221/221/221 222/222/222 217/217/217
f 221/221/221 217/217/217 216/216/216
f 223/223/223 224/224/224 225/225/225
f 223/223/223 225/225/225 226/226/226
f 227/227/227 228/228/228 229/229/229
f 227/227/227 229/229/229 230/230/230
f 231/231/231 208/208/208 232/232/232
f 231/231/231 232/232/232 233/233/233
f 234/234/234 235/235/235 236/236/236
f 234/234/234 236/236/236 237/237/237
f 238/238/238 239/239/239 240/240/240
f 238/238/238 240/240/240 241/241/241
f 242/242/242 243/243/243 244/244/244
f 242/242/242 244/244/244 245/245/245
f 246/246/246 247/247/247 248/248/248
f 246/246/246 248/248/248 249/249/249
f 250/250/250 251/251/251 252/252/252
f 250/250/250 252/252/252 253/253/253
f 254/254/254 255/255/255 256/256/256
f 254/254/254 256/256/256 257/257/257
f 61/61/61 258/258/258 259/259/259
f 61/61/61 259/259/259 62/62/62
f 260/260/260 261/261/261 262/262/262
f 260/260/260 262/262/262 263/263/263
f 264/264/264 265/265/265 266/266/266
f 264/264/264 266/266/266 230/230/230
f 264/264/264 267/267/267 268/268/268
f 264/264/264 268/268/268 265/265/265
f 269/269/269 270/270/270 262/262/262
f 269/269/269 262/262/262 261/261/261
f 246/246/246 271/271/271 272/272/272
f 246/246/246 272/272/272 273/273/273
f 242/242/242 274/274/274 275/275/275
f 242/242/242 275/275/275 276/276/276
f 277/277/277 278/278/278 279/279/279
f 277/277/277 279/279/279 280/280/280
f 254/254/254 281/281/281 282/282/282
f 254/254/254 282/282/282 255/255/255
f 260/260/260 263/263/263 259/259/259
f 260/260/260 259/259/259 258/258/258
f 238/238/238 283/283/283 284/284/284
f 238/238/238 284/284/284 285/285/285
f 231/231/231 286/286/286 287/287/287
f 231/231/231 287/287/287 249/249/249
f 227/227/227 288/288/288 289/289/289
f 227/227/227 289/289/289 241/241/241
f 221/221/221 290/290/290 291/291/291
f 221/221/221 291/291/291 233/233/233
f 292/292/292 100/100/100 99/99/99
f 292/292/292 99/99/99 293/293/293
f 292/292/292 293/293/293 268/268/268
f 292/292/292 268/268/268 267/267/267
f 294/294/294 295/295/295 296/296/296
f 294/294/294 296/296/296 297/297/297
f 298/298/298 299/299/299 300/300/300
f 298/298/298 300/300/300 301/301/301
f 297/297/297 302/302/302 268/268/268
f 297/297/297 268/268/268 303/303/303
f 302/302/302 295/295/295 304/304/304
f 302/302/302 304/304/304 305/305/305
f 305/305/305 306/306/306 268/268/268
f 305/305/305 268/268/268 302/302/302
f 307/307/307 297/297/297 116/116/116
f 307/307/307 116/116/116 115/115/115
f 297/297/297 303/303/303 99/99/99
f 297/297/297 99/99/99 116/116/116
f 304/304/304 308/308/308 309/309/309
f 304/304/304 309/309/309 305/305/305
f 305/305/305 309/309/309 266/266/266
f 305/305/305 266/266/266 306/306/306
f 310/310/310 311/311/311 312/312/312
f 310/310/310 312/312/312 313/313/313
f 313/313/313 312/312/312 291/291/291
f 313/313/313 291/291/291 314/314/314
f 299/299/299 315/315/315 289/289/289
f 299/299/299 289/289/289 316/316/316
f 317/317/317 318/318/318 319/319/319
f 317/317/317 319/319/319 320/320/320
f 320/320/320 319/319/319 287/287/287
f 320/320/320 287/287/287 321/321/321
f 322/322/322 323/323/323 324/324/324
f 322/322/322 324/324/324 325/325/325
f 325/325/325 324/324/324 284/284/284
f 325/325/325 284/284/284 326/326/326
f 327/327/327 328/328/328 329/329/329
f 327/327/327 329/329/329 224/224/224
f 328/328/328 330/330/330 331/331/331
f 328/328/328 331/331/331 329/329/329
f 332/332/332 333/333/333 334/334/334
f 332/332/332 334/334/334 209/209/209
f 333/333/333 335/335/335 336/336/336
f 333/333/333 336/336/336 334/334/334
f 337/337/337 338/338/338 339/339/339
f 337/337/337 339/339/339 235/235/235
f 338/338/338 340/340/340 341/341/341
f 338/338/338 341/341/341 339/339/339
f 260/260/260 342/342/342 343/343/343
f 260/260/260 343/343/343 344/344/344
f 344/344/344 343/343/343 345/345/345
f 344/344/344 345/345/345 346/346/346
f 260/260/260 344/344/344 347/347/347
f 260/260/260 347/347/347 348/348/348
f 349/349/349 347/347/347 344/344/344
f 349/349/349 344/344/344 346/346/346
f 61/61/61 159/159/159 343/343/343
f 61/61/61 343/343/343 342/342/342
f 159/159/159 160/160/160 345/345/345
f 159/159/159 345/345/345 343/343/343
f 269/269/269 348/348/348 347/347/347
f 269/269/269 347/347/347 350/350/350
f 350/350/350 347/347/347 349/349/349
f 350/350/350 349/349/349 351/351/351
f 254/254/254 352/352/352 353/353/353
f 254/254/254 353/353/353 354/354/354
f 354/354/354 353/353/353 355/355/355
f 354/354/354 355/355/355 206/206/206
f 356/356/356 357/357/357 358/358/358
f 356/356/356 358/358/358 359/359/359
f 357/357/357 337/337/337 360/360/360
f 357/357/357 360/360/360 358/358/358
f 361/361/361 362/362/362 363/363/363
f 361/361/361 363/363/363 255/255/255
f 362/362/362 317/317/317 364/364/364
f 362/362/362 364/364/364 363/363/363
f 365/365/365 366/366/366 367/367/367
f 365/365/365 367/367/367 280/280/280
f 366/366/366 322/322/322 368/368/368
f 366/366/366 368/368/368 367/367/367
f 369/369/369 370/370/370 371/371/371
f 369/369/369 371/371/371 253/253/253
f 370/370/370 372/372/372 373/373/373
f 370/370/370 373/373/373 371/371/371
f 374/374/374 375/375/375 376/376/376
f 374/374/374 376/376/376 377/377/377
f 377/377/377 376/376/376 378/378/378
f 377/377/377 378/378/378 379/379/379
f 374/374/374 377/377/377 380/380/380
f 374/374/374 380/380/380 381/381/381
f 377/377/377 379/379/379 382/382/382
f 377/377/377 382/382/382 380/380/380
f 194/194/194 195/195/195 376/376/376
f 194/194/194 376/376/376 375/375/375
f 195/195/195 196/196/196 378/378/378
f 195/195/195 378/378/378 376/376/376
f 310/310/310 381/381/381 380/380/380
f 310/310/310 380/380/380 383/383/383
f 383/383/383 380/380/380 382/382/382
f 383/383/383 382/382/382 256/256/256
f 384/384/384 308/308/308 385/385/385
f 384/384/384 385/385/385 386/386/386
f 386/386/386 385/385/385 270/270/270
f 386/386/386 270/270/270 387/387/387
