# Generated by lxe_pbrt_scene_convert
v -4.12144089 -0.190918997 1.51827896
v -4.12144089 -0.202586994 1.51943004
v -4.11443901 -0.202586994 1.53103006
v -4.11443901 -0.188656002 1.52965605
v -4.12673378 -0.193382993 1.50589204
v -4.12673378 -0.202586994 1.50679898
v -4.1312499 -0.197597995 1.48470294
v -4.1312499 -0.202586994 1.48519301
v -4.1331358 -0.200080007 1.47222304
v -4.1331358 -0.202586994 1.47246897
v -4.13376999 -0.202586994 1.45962203
v -4.1331358 -0.197669998 1.47149205
v -4.1312499 -0.192800999 1.483248
v -4.12673378 -0.184533 1.50320804
v -4.12144089 -0.179699004 1.51487601
v -4.11443901 -0.175260007 1.525594
v -4.11443901 -0.162915006 1.51899397
v -4.12144089 -0.169359997 1.50934994
v -4.12673378 -0.176376998 1.49884796
v -4.1312499 -0.188379005 1.48088396
v -4.1331358 -0.195448995 1.47030604
v -4.1331358 -0.193501994 1.46870697
v -4.1312499 -0.184504002 1.47770405
v -4.12673378 -0.169227004 1.49298096
v -4.12144089 -0.160297006 1.501912
v -4.11443901 -0.152095005 1.51011503
v -4.11443901 -0.143214002 1.49929297
v -4.12144089 -0.152859002 1.49284899
v -4.12673378 -0.16336 1.48583305
v -4.1312499 -0.181324005 1.47382903
v -4.1331358 -0.191903993 1.46676004
v -4.1331358 -0.190716997 1.46453905
v -4.1312499 -0.178960994 1.46940899
v -4.12673378 -0.159000993 1.47767603
v -4.12144089 -0.147331998 1.48250902
v -4.11443901 -0.136616006 1.48694801
v -4.11443901 -0.132551998 1.47355402
v -4.12144089 -0.143929005 1.47128999
v -4.12673378 -0.156315997 1.46882606
v -4.1312499 -0.177506 1.46461105
v -4.1331358 -0.189986005 1.46212804
v -4.1331358 -0.189739004 1.45962203
v -4.1312499 -0.177013993 1.45962203
v -4.12673378 -0.155410007 1.45962203
v -4.12144089 -0.142780006 1.45962203
v -4.11443901 -0.131180003 1.45962095
v -4.11443901 -0.132551998 1.44569099
v -4.12144089 -0.143929005 1.44795406
v -4.12673378 -0.156315997 1.45041704
v -4.1312499 -0.177506 1.45463204
v -4.1331358 -0.189986005 1.45711601
v -4.1331358 -0.190716997 1.45470405
v -4.1312499 -0.178960994 1.44983602
v -4.12673378 -0.159000993 1.44156802
v -4.12144089 -0.147331998 1.43673503
v -4.11443901 -0.136616006 1.43229496
v -4.11443901 -0.143214002 1.41995096
v -4.12144089 -0.152859002 1.42639506
v -4.12673378 -0.16336 1.43341196
v -4.1312499 -0.181324005 1.44541502
v -4.1331358 -0.191903993 1.45248401
v -4.1331358 -0.193501994 1.45053697
v -4.1312499 -0.184504002 1.44153905
v -4.12673378 -0.169228002 1.42626202
v -4.12144089 -0.160297006 1.41733205
v -4.11443901 -0.152095005 1.40912902
v -4.11443901 -0.162915006 1.40024996
v -4.12144089 -0.169359997 1.40989399
v -4.12673378 -0.176376998 1.42039597
v -4.1312499 -0.188379005 1.43835998
v -4.1331358 -0.195448995 1.44893897
v -4.1331358 -0.197669998 1.44775295
v -4.1312499 -0.192800999 1.43599606
v -4.12673378 -0.184533 1.41603601
v -4.12144089 -0.179700002 1.40436804
v -4.11443901 -0.175261006 1.39365005
v -4.11443901 -0.188656002 1.38958704
v -4.12144089 -0.190918997 1.40096402
v -4.12673378 -0.193382993 1.41335106
v -4.1312499 -0.197597995 1.43454099
v -4.1331358 -0.200080007 1.44702101
v -4.1331358 -0.202586994 1.44677401
v -4.1312499 -0.202586994 1.43404996
v -4.12673378 -0.202586994 1.41244495
v -4.12144089 -0.202586994 1.39981496
v -4.11443901 -0.202586994 1.38821495
v -4.11443901 -0.216517001 1.38958704
v -4.12144089 -0.214254007 1.40096402
v -4.12673378 -0.211789995 1.41335106
v -4.1312499 -0.207576007 1.43454099
v -4.1331358 -0.205092996 1.44702101
v -4.1331358 -0.207503006 1.44775295
v -4.1312499 -0.212373003 1.43599606
v -4.12673378 -0.220640004 1.41603601
v -4.12144089 -0.225474 1.40436804
v -4.11443901 -0.229912996 1.39365005
v -4.11443901 -0.242257997 1.40024996
v -4.12144089 -0.235813007 1.40989399
v -4.12673378 -0.228797004 1.42039597
v -4.1312499 -0.216793999 1.43835998
v -4.1331358 -0.209725007 1.44893897
v -4.1331358 -0.211671993 1.45053697
v -4.1312499 -0.220669001 1.44153905
v -4.12673378 -0.235946 1.42626202
v -4.12144089 -0.244875997 1.41733205
v -4.11443901 -0.253078997 1.40912902
v -4.11443901 -0.261958987 1.41995096
v -4.12144089 -0.252314001 1.42639506
v -4.12673378 -0.241813004 1.43341196
v -4.1312499 -0.223848999 1.44541502
v -4.1331358 -0.213268995 1.45248401
v -4.1331358 -0.214457005 1.45470405
v -4.1312499 -0.226211995 1.44983602
v -4.12673378 -0.246172994 1.44156802
v -4.12144089 -0.257840991 1.43673503
v -4.11443901 -0.268557996 1.43229496
v -4.11443901 -0.272621006 1.44569099
v -4.12144089 -0.261243999 1.44795406
v -4.12673378 -0.248857006 1.45041704
v -4.1312499 -0.227667004 1.45463204
v -4.1331358 -0.215187997 1.45711601
v -4.1331358 -0.215434998 1.45962203
v -4.1312499 -0.228158996 1.45962203
v -4.12673378 -0.249763995 1.45962203
v -4.12144089 -0.262392998 1.45962203
v -4.11443901 -0.273992985 1.45962095
v -4.11443901 -0.272621006 1.47355402
v -4.12144089 -0.261243999 1.47128999
v -4.12673378 -0.248857006 1.46882606
v -4.1312499 -0.227667004 1.46461105
v -4.1331358 -0.215187997 1.46212804
v -4.1331358 -0.214457005 1.46453905
v -4.1312499 -0.226211995 1.46940899
v -4.12673378 -0.246172994 1.47767603
v -4.12144089 -0.257840991 1.48250902
v -4.11443901 -0.268557996 1.48694801
v -4.11443901 -0.261958987 1.49929297
v -4.12144089 -0.252314001 1.49284899
v -4.12673378 -0.241813004 1.48583305
v -4.1312499 -0.223848999 1.47382903
v -4.1331358 -0.213268995 1.46676004
v -4.1331358 -0.211671993 1.46870697
v -4.1312499 -0.220669001 1.47770405
v -4.12673378 -0.235946 1.49298096
v -4.12144089 -0.244875997 1.501912
v -4.11443901 -0.253078997 1.51011503
v -4.11443901 -0.242257997 1.51899397
v -4.12144089 -0.235813007 1.50934994
v -4.12673378 -0.228797004 1.49884796
v -4.1312499 -0.216793999 1.48088396
v -4.1331358 -0.209725007 1.47030604
v -4.1331358 -0.207503006 1.47149205
v -4.1312499 -0.212373003 1.483248
v -4.12673378 -0.220640004 1.50320804
v -4.12144089 -0.225474 1.51487601
v -4.11443901 -0.229912996 1.525594
v -4.11443901 -0.216517001 1.52965605
v -4.12144089 -0.214254007 1.51827896
v -4.12673378 -0.211789995 1.50589204
v -4.1312499 -0.207576007 1.48470294
v -4.1331358 -0.205092996 1.47222304
v -4.114923 -0.202586994 1.531636
v -4.114923 -0.188538 1.53025103
v -4.114923 -0.216636002 1.53025103
v -4.114923 -0.230145007 1.52615499
v -4.114923 -0.242595002 1.51949799
v -4.114923 -0.253506988 1.51054394
v -4.114923 -0.262463003 1.49962997
v -4.114923 -0.269118011 1.48717999
v -4.114923 -0.273216009 1.47367203
v -4.114923 -0.274599999 1.45962095
v -4.114923 -0.273216009 1.44557202
v -4.114923 -0.269118011 1.43206298
v -4.114923 -0.262463003 1.41961396
v -4.114923 -0.253506988 1.40869999
v -4.114923 -0.242595002 1.39974594
v -4.114923 -0.230145007 1.39309001
v -4.114923 -0.216636002 1.38899195
v -4.114923 -0.202586994 1.38760805
v -4.114923 -0.188538 1.38899195
v -4.114923 -0.175028995 1.39309001
v -4.114923 -0.162578002 1.39974594
v -4.114923 -0.151666 1.40869999
v -4.114923 -0.14271 1.41961396
v -4.114923 -0.136054993 1.43206298
v -4.114923 -0.131956995 1.44557202
v -4.114923 -0.130574003 1.45962095
v -4.114923 -0.131956995 1.47367203
v -4.114923 -0.136054993 1.48717999
v -4.114923 -0.14271 1.49962997
v -4.114923 -0.151666 1.51054394
v -4.114923 -0.162578002 1.51949799
v -4.114923 -0.175027996 1.52615499
v -4.12144089 -0.190918997 -1.51827896
v -4.11443901 -0.188656002 -1.52965605
v -4.11443901 -0.202586994 -1.53103006
v -4.12144089 -0.202586994 -1.51943004
v -4.12673378 -0.202586994 -1.50679898
v -4.12673378 -0.193382993 -1.50589204
v -4.1312499 -0.202586994 -1.48519301
v -4.1312499 -0.197597995 -1.48470294
v -4.1331358 -0.202586994 -1.47246897
v -4.1331358 -0.200080007 -1.47222304
v -4.13376999 -0.202586994 -1.45962203
v -4.1331358 -0.197669998 -1.47149205
v -4.1312499 -0.192800999 -1.483248
v -4.12673378 -0.184533 -1.50320804
v -4.12144089 -0.179699004 -1.51487601
v -4.11443901 -0.175260007 -1.525594
v -4.12144089 -0.169359997 -1.50934994
v -4.11443901 -0.162915006 -1.51899397
v -4.12673378 -0.176376998 -1.49884796
v -4.1312499 -0.188379005 -1.48088396
v -4.1331358 -0.195448995 -1.47030604
v -4.1331358 -0.193501994 -1.46870697
v -4.1312499 -0.184504002 -1.47770405
v -4.12673378 -0.169227004 -1.49298096
v -4.12144089 -0.160297006 -1.501912
v -4.11443901 -0.152095005 -1.51011503
v -4.12144089 -0.152859002 -1.49284899
v -4.11443901 -0.143214002 -1.49929297
v -4.12673378 -0.16336 -1.48583305
v -4.1312499 -0.181324005 -1.47382903
v -4.1331358 -0.191903993 -1.46676004
v -4.1331358 -0.190716997 -1.46453905
v -4.1312499 -0.178960994 -1.46940899
v -4.12673378 -0.159000993 -1.47767603
v -4.12144089 -0.147331998 -1.48250902
v -4.11443901 -0.136616006 -1.48694801
v -4.12144089 -0.143929005 -1.47128999
v -4.11443901 -0.132551998 -1.47355402
v -4.12673378 -0.156315997 -1.46882606
v -4.1312499 -0.177506 -1.46461105
v -4.1331358 -0.189986005 -1.46212804
v -4.1331358 -0.189739004 -1.45962203
v -4.1312499 -0.177013993 -1.45962203
v -4.12673378 -0.155410007 -1.45962203
v -4.12144089 -0.142780006 -1.45962203
v -4.11443901 -0.131180003 -1.45962095
v -4.12144089 -0.143929005 -1.44795406
v -4.11443901 -0.132551998 -1.44569099
v -4.12673378 -0.156315997 -1.45041704
v -4.1312499 -0.177506 -1.45463204
v -4.1331358 -0.189986005 -1.45711601
v -4.1331358 -0.190716997 -1.45470405
v -4.1312499 -0.178960994 -1.44983602
v -4.12673378 -0.159000993 -1.44156802
v -4.12144089 -0.147331998 -1.43673503
v -4.11443901 -0.136616006 -1.43229496
v -4.12144089 -0.152859002 -1.42639506
v -4.11443901 -0.143214002 -1.41995096
v -4.12673378 -0.16336 -1.43341196
v -4.1312499 -0.181324005 -1.44541502
v -4.1331358 -0.191903993 -1.45248401
v -4.1331358 -0.193501994 -1.45053697
v -4.1312499 -0.184504002 -1.44153905
v -4.12673378 -0.169228002 -1.42626202
v -4.12144089 -0.160297006 -1.41733205
v -4.11443901 -0.152095005 -1.40912902
v -4.12144089 -0.169359997 -1.40989399
v -4.11443901 -0.162915006 -1.40024996
v -4.12673378 -0.176376998 -1.42039597
v -4.1312499 -0.188379005 -1.43835998
v -4.1331358 -0.195448995 -1.44893897
v -4.1331358 -0.197669998 -1.44775295
v -4.1312499 -0.192800999 -1.43599606
v -4.12673378 -0.184533 -1.41603601
v -4.12144089 -0.179700002 -1.40436804
v -4.11443901 -0.175261006 -1.39365005
v -4.12144089 -0.190918997 -1.40096402
v -4.11443901 -0.188656002 -1.38958704
v -4.12673378 -0.193382993 -1.41335106
v -4.1312499 -0.197597995 -1.43454099
v -4.1331358 -0.200080007 -1.44702101
v -4.1331358 -0.202586994 -1.44677401
v -4.1312499 -0.202586994 -1.43404996
v -4.12673378 -0.202586994 -1.41244495
v -4.12144089 -0.202586994 -1.39981496
v -4.11443901 -0.202586994 -1.38821495
v -4.12144089 -0.214254007 -1.40096402
v -4.11443901 -0.216517001 -1.38958704
v -4.12673378 -0.211789995 -1.41335106
v -4.1312499 -0.207576007 -1.43454099
v -4.1331358 -0.205092996 -1.44702101
v -4.1331358 -0.207503006 -1.44775295
v -4.1312499 -0.212373003 -1.43599606
v -4.12673378 -0.220640004 -1.41603601
v -4.12144089 -0.225474 -1.40436804
v -4.11443901 -0.229912996 -1.39365005
v -4.12144089 -0.235813007 -1.40989399
v -4.11443901 -0.242257997 -1.40024996
v -4.12673378 -0.228797004 -1.42039597
v -4.1312499 -0.216793999 -1.43835998
v -4.1331358 -0.209725007 -1.44893897
v -4.1331358 -0.211671993 -1.45053697
v -4.1312499 -0.220669001 -1.44153905
v -4.12673378 -0.235946 -1.42626202
v -4.12144089 -0.244875997 -1.41733205
v -4.11443901 -0.253078997 -1.40912902
v -4.12144089 -0.252314001 -1.42639506
v -4.11443901 -0.261958987 -1.41995096
v -4.12673378 -0.241813004 -1.43341196
v -4.1312499 -0.223848999 -1.44541502
v -4.1331358 -0.213268995 -1.45248401
v -4.1331358 -0.214457005 -1.45470405
v -4.1312499 -0.226211995 -1.44983602
v -4.12673378 -0.246172994 -1.44156802
v -4.12144089 -0.257840991 -1.43673503
v -4.11443901 -0.268557996 -1.43229496
v -4.12144089 -0.261243999 -1.44795406
v -4.11443901 -0.272621006 -1.44569099
v -4.12673378 -0.248857006 -1.45041704
v -4.1312499 -0.227667004 -1.45463204
v -4.1331358 -0.215187997 -1.45711601
v -4.1331358 -0.215434998 -1.45962203
v -4.1312499 -0.228158996 -1.45962203
v -4.12673378 -0.249763995 -1.45962203
v -4.12144089 -0.262392998 -1.45962203
v -4.11443901 -0.273992985 -1.45962095
v -4.12144089 -0.261243999 -1.47128999
v -4.11443901 -0.272621006 -1.47355402
v -4.12673378 -0.248857006 -1.46882606
v -4.1312499 -0.227667004 -1.46461105
v -4.1331358 -0.215187997 -1.46212804
v -4.1331358 -0.214457005 -1.46453905
v -4.1312499 -0.226211995 -1.46940899
v -4.12673378 -0.246172994 -1.47767603
v -4.12144089 -0.257840991 -1.48250902
v -4.11443901 -0.268557996 -1.48694801
v -4.12144089 -0.252314001 -1.49284899
v -4.11443901 -0.261958987 -1.49929297
v -4.12673378 -0.241813004 -1.48583305
v -4.1312499 -0.223848999 -1.47382903
v -4.1331358 -0.213268995 -1.46676004
v -4.1331358 -0.211671993 -1.46870697
v -4.1312499 -0.220669001 -1.47770405
v -4.12673378 -0.235946 -1.49298096
v -4.12144089 -0.244875997 -1.501912
v -4.11443901 -0.253078997 -1.51011503
v -4.12144089 -0.235813007 -1.50934994
v -4.11443901 -0.242257997 -1.51899397
v -4.12673378 -0.228797004 -1.49884796
v -4.1312499 -0.216793999 -1.48088396
v -4.1331358 -0.209725007 -1.47030604
v -4.1331358 -0.207503006 -1.47149205
v -4.1312499 -0.212373003 -1.483248
v -4.12673378 -0.220640004 -1.50320804
v -4.12144089 -0.225474 -1.51487601
v -4.11443901 -0.229912996 -1.525594
v -4.12144089 -0.214254007 -1.51827896
v -4.11443901 -0.216517001 -1.52965605
v -4.12673378 -0.211789995 -1.50589204
v -4.1312499 -0.207576007 -1.48470294
v -4.1331358 -0.205092996 -1.47222304
v -4.114923 -0.188538 -1.53025103
v -4.114923 -0.202586994 -1.531636
v -4.114923 -0.216636002 -1.53025103
v -4.114923 -0.230145007 -1.52615499
v -4.114923 -0.242595002 -1.51949799
v -4.114923 -0.253506988 -1.51054394
v -4.114923 -0.262463003 -1.49962997
v -4.114923 -0.269118011 -1.48717999
v -4.114923 -0.273216009 -1.47367203
v -4.114923 -0.274599999 -1.45962095
v -4.114923 -0.273216009 -1.44557202
v -4.114923 -0.269118011 -1.43206298
v -4.114923 -0.262463003 -1.41961396
v -4.114923 -0.253506988 -1.40869999
v -4.114923 -0.242595002 -1.39974594
v -4.114923 -0.230145007 -1.39309001
v -4.114923 -0.216636002 -1.38899195
v -4.114923 -0.202586994 -1.38760805
v -4.114923 -0.188538 -1.38899195
v -4.114923 -0.175028995 -1.39309001
v -4.114923 -0.162578002 -1.39974594
v -4.114923 -0.151666 -1.40869999
v -4.114923 -0.14271 -1.41961396
v -4.114923 -0.136054993 -1.43206298
v -4.114923 -0.131956995 -1.44557202
v -4.114923 -0.130574003 -1.45962095
v -4.114923 -0.131956995 -1.47367203
v -4.114923 -0.136054993 -1.48717999
v -4.114923 -0.14271 -1.49962997
v -4.114923 -0.151666 -1.51054394
v -4.114923 -0.162578002 -1.51949799
v -4.114923 -0.175027996 -1.52615499
vn -0.889699996 0.0891000032 0.447699994
vn -0.889699996 0 0.456499994
vn -0.994899988 0 -0.100699998
vn -0.994899988 -0.0197000001 -0.0988000035
vn -0.953199983 0.0590000004 0.296499997
vn -0.953199983 0 0.302300006
vn -0.984099984 0.0346000008 0.173999995
vn -0.984099984 0 0.177499995
vn -0.994899988 0.0197000001 0.0992000028
vn -0.994899988 0 0.101099998
vn -1 0 0
vn -0.994899988 0.0386999995 0.0934000015
vn -0.984099984 0.067900002 0.163900003
vn -0.953199983 0.115699999 0.279300004
vn -0.889699996 0.174700007 0.421700001
vn -0.994899988 -0.0386000015 -0.0930999964
vn -0.994899988 -0.0559 -0.0837000012
vn -0.889699996 0.253600001 0.379500002
vn -0.953199983 0.167899996 0.251399994
vn -0.984099984 0.0986000001 0.147599995
vn -0.994899988 0.0562000014 0.0839999989
vn -0.994899988 0.0714000016 0.0715000033
vn -0.984099984 0.125499994 0.125499994
vn -0.953199983 0.213799998 0.213799998
vn -0.889699996 0.32280001 0.32280001
vn -0.994899988 -0.0711999983 -0.0711999983
vn -0.994899988 -0.0838000029 -0.0559
vn -0.889699996 0.379500002 0.253600001
vn -0.953199983 0.251399994 0.167899996
vn -0.984099984 0.147599995 0.0986000001
vn -0.994899988 0.0839999989 0.0562000014
vn -0.994899988 0.0934000015 0.0386999995
vn -0.984099984 0.163900003 0.067900002
vn -0.953199983 0.279300004 0.115699999
vn -0.889699996 0.421700001 0.174700007
vn -0.994899988 -0.0930999964 -0.0384999998
vn -0.994899988 -0.0988000035 -0.0196000002
vn -0.889699996 0.447699994 0.0891000032
vn -0.953199983 0.296499997 0.0590000004
vn -0.984099984 0.173999995 0.0346000008
vn -0.994899988 0.0991000012 0.0197000001
vn -0.994899988 0.101099998 0
vn -0.984099984 0.177399993 0
vn -0.953199983 0.302300006 0
vn -0.889699996 0.456499994 0
vn -0.994899988 -0.1008 0
vn -0.994899988 -0.0988000035 0.0196000002
vn -0.889699996 0.447699994 -0.0891000032
vn -0.953199983 0.296499997 -0.0590000004
vn -0.984099984 0.173999995 -0.0346000008
vn -0.994899988 0.0991000012 -0.0197000001
vn -0.994899988 0.0934000015 -0.0386999995
vn -0.984099984 0.163900003 -0.067900002
vn -0.953199983 0.279300004 -0.115699999
vn -0.889699996 0.421700001 -0.174700007
vn -0.994899988 -0.0930000022 0.0384999998
vn -0.994899988 -0.0837000012 0.0559
vn -0.889699996 0.379500002 -0.253600001
vn -0.953199983 0.251399994 -0.167899996
vn -0.984099984 0.147499993 -0.0986000001
vn -0.994899988 0.0839999989 -0.0562000014
vn -0.994899988 0.0714000016 -0.0715000033
vn -0.984099984 0.125499994 -0.125499994
vn -0.953199983 0.213799998 -0.213799998
vn -0.889699996 0.32280001 -0.32280001
vn -0.994899988 -0.0713 0.0711999983
vn -0.994899988 -0.0560000017 0.0837000012
vn -0.889699996 0.253600001 -0.379500002
vn -0.953199983 0.167899996 -0.251399994
vn -0.984099984 0.0986000001 -0.147599995
vn -0.994899988 0.0562000014 -0.0839999989
vn -0.994899988 0.0386000015 -0.0934000015
vn -0.984099984 0.067900002 -0.163900003
vn -0.953199983 0.115699999 -0.279300004
vn -0.889699996 0.174700007 -0.421700001
vn -0.994899988 -0.0384999998 0.0930999964
vn -0.994899988 -0.0197000001 0.0988000035
vn -0.889699996 0.0891000032 -0.447699994
vn -0.953199983 0.0590000004 -0.296499997
vn -0.984099984 0.0346000008 -0.173999995
vn -0.994899988 0.0197000001 -0.0991000012
vn -0.994899988 0 -0.101099998
vn -0.984099984 0 -0.177499995
vn -0.953199983 0 -0.302300006
vn -0.889699996 0 -0.456499994
vn -0.994899988 0 0.100699998
vn -0.994899988 0.0197000001 0.0988000035
vn -0.889699996 -0.0891000032 -0.447699994
vn -0.953199983 -0.0590000004 -0.296499997
vn -0.984099984 -0.0346000008 -0.173999995
vn -0.994899988 -0.0197000001 -0.0991000012
vn -0.994899988 -0.0386000015 -0.0934000015
vn -0.984099984 -0.067900002 -0.163900003
vn -0.953199983 -0.115699999 -0.279300004
vn -0.889699996 -0.174700007 -0.421700001
vn -0.994899988 0.0384999998 0.0930999964
vn -0.994899988 0.0559 0.0837000012
vn -0.889699996 -0.253600001 -0.379500002
vn -0.953199983 -0.167899996 -0.251399994
vn -0.984099984 -0.0986000001 -0.147599995
vn -0.994899988 -0.0562000014 -0.0839999989
vn -0.994899988 -0.0715000033 -0.0715000033
vn -0.984099984 -0.125499994 -0.125499994
vn -0.953199983 -0.213799998 -0.213799998
vn -0.889699996 -0.32280001 -0.32280001
vn -0.994899988 0.0713 0.0711999983
vn -0.994899988 0.0838000029 0.0559
vn -0.889699996 -0.379500002 -0.253600001
vn -0.953199983 -0.251399994 -0.167899996
vn -0.984099984 -0.147499993 -0.0986000001
vn -0.994899988 -0.0839999989 -0.0562000014
vn -0.994899988 -0.0934000015 -0.0386999995
vn -0.984099984 -0.163900003 -0.067900002
vn -0.953199983 -0.279300004 -0.115699999
vn -0.889699996 -0.421700001 -0.174700007
vn -0.994899988 0.0930999964 0.0384999998
vn -0.994899988 0.0988000035 0.0196000002
vn -0.889699996 -0.447699994 -0.0891000032
vn -0.953199983 -0.296499997 -0.0590000004
vn -0.984099984 -0.173999995 -0.0346000008
vn -0.994899988 -0.0991000012 -0.0197000001
vn -0.994899988 -0.101099998 0
vn -0.984099984 -0.177399993 0
vn -0.953199983 -0.302300006 0
vn -0.889699996 -0.456499994 0
vn -0.994899988 0.1008 0
vn -0.994899988 0.0988000035 -0.0197000001
vn -0.889699996 -0.447699994 0.0891000032
vn -0.953199983 -0.296499997 0.0590000004
vn -0.984099984 -0.173999995 0.0346000008
vn -0.994899988 -0.0991000012 0.0197000001
vn -0.994899988 -0.0934000015 0.0386999995
vn -0.984099984 -0.163900003 0.067900002
vn -0.953199983 -0.279300004 0.115699999
vn -0.889699996 -0.421700001 0.174700007
vn -0.994899988 0.0930000022 -0.0384999998
vn -0.994899988 0.0837000012 -0.0559
vn -0.889699996 -0.379500002 0.253600001
vn -0.953199983 -0.251399994 0.167899996
vn -0.984099984 -0.147599995 0.0986000001
vn -0.994899988 -0.0839999989 0.0562000014
vn -0.994899988 -0.0714000016 0.0715000033
vn -0.984099984 -0.125499994 0.125499994
vn -0.953199983 -0.213799998 0.213799998
vn -0.889699996 -0.32280001 0.32280001
vn -0.994899988 0.0711999983 -0.0711999983
vn -0.994899988 0.0559 -0.0837000012
vn -0.889699996 -0.253600001 0.379500002
vn -0.953199983 -0.167899996 0.251399994
vn -0.984099984 -0.0986000001 0.147599995
vn -0.994899988 -0.0562000014 0.0839999989
vn -0.994899988 -0.0386999995 0.0934000015
vn -0.984099984 -0.067900002 0.163900003
vn -0.953199983 -0.115699999 0.279300004
vn -0.889699996 -0.174700007 0.421700001
vn -0.994899988 0.0386000015 -0.0930999964
vn -0.994899988 0.0197000001 -0.0987000018
vn -0.889699996 -0.0891000032 0.447699994
vn -0.953199983 -0.0590000004 0.296499997
vn -0.984099984 -0.0346000008 0.173999995
vn -0.994899988 -0.0197000001 0.0992000028
vn -0.781400025 0 -0.624000013
vn -0.781400025 -0.121799998 -0.611999989
vn -0.781400025 0.121799998 -0.611999989
vn -0.781300008 0.238900006 -0.576499999
vn -0.781400025 0.346700013 -0.51880002
vn -0.781400025 0.441100001 -0.441300005
vn -0.781300008 0.518899977 -0.346700013
vn -0.781400025 0.576499999 -0.238800004
vn -0.781400025 0.611999989 -0.121699996
vn -0.781300008 0.624100029 0
vn -0.781400025 0.612100005 0.121699996
vn -0.781300008 0.576600015 0.238800004
vn -0.781300008 0.518999994 0.346599996
vn -0.781400025 0.441300005 0.441199988
vn -0.781300008 0.346799999 0.518899977
vn -0.781400025 0.238800004 0.576600015
vn -0.781300008 0.121699996 0.612100005
vn -0.781400025 0 0.624000013
vn -0.781400025 -0.121799998 0.611999989
vn -0.781400025 -0.238800004 0.576499999
vn -0.781300008 -0.346799999 0.518899977
vn -0.781300008 -0.441399992 0.441300005
vn -0.781300008 -0.518899977 0.346700013
vn -0.781400025 -0.576499999 0.238800004
vn -0.781400025 -0.611999989 0.121699996
vn -0.781300008 -0.624100029 0
vn -0.781400025 -0.611999989 -0.121699996
vn -0.781300008 -0.576600015 -0.238800004
vn -0.781300008 -0.518999994 -0.346700013
vn -0.781400025 -0.441199988 -0.441300005
vn -0.781400025 -0.346599996 -0.51880002
vn -0.781400025 -0.238900006 -0.576499999
vn -0.889699996 0.0891000032 -0.447699994
vn -0.994899988 -0.0196000002 0.0988000035
vn -0.994899988 0 0.100699998
vn -0.889699996 0 -0.456499994
vn -0.953199983 0 -0.302300006
vn -0.953199983 0.0590000004 -0.296499997
vn -0.984099984 0 -0.177499995
vn -0.984099984 0.0346000008 -0.173999995
vn -0.994899988 0 -0.101099998
vn -0.994899988 0.0197000001 -0.0992000028
vn -1 0 0
vn -0.994899988 0.0386999995 -0.0934000015
vn -0.984099984 0.067900002 -0.163900003
vn -0.953199983 0.115699999 -0.279300004
vn -0.889699996 0.174700007 -0.421700001
vn -0.994899988 -0.0386000015 0.0930999964
vn -0.889699996 0.253600001 -0.379500002
vn -0.994899988 -0.0559 0.0837000012
vn -0.953199983 0.167899996 -0.251399994
vn -0.984099984 0.0986000001 -0.147599995
vn -0.994899988 0.0562000014 -0.0839999989
vn -0.994899988 0.0714000016 -0.0715000033
vn -0.984099984 0.125499994 -0.125499994
vn -0.953199983 0.213799998 -0.213799998
vn -0.889699996 0.32280001 -0.32280001
vn -0.994899988 -0.0710999966 0.0713
vn -0.889699996 0.379500002 -0.253600001
vn -0.994899988 -0.0838000029 0.0559
vn -0.953199983 0.251399994 -0.167899996
vn -0.984099984 0.147599995 -0.0986000001
vn -0.994899988 0.0839999989 -0.0562000014
vn -0.994899988 0.0934000015 -0.0386999995
vn -0.984099984 0.163900003 -0.067900002
vn -0.953199983 0.279300004 -0.115699999
vn -0.889699996 0.421700001 -0.174700007
vn -0.994899988 -0.0930999964 0.0384999998
vn -0.889699996 0.447699994 -0.0891000032
vn -0.994899988 -0.0988000035 0.0196000002
vn -0.953199983 0.296499997 -0.0590000004
vn -0.984099984 0.173999995 -0.0346000008
vn -0.994899988 0.0991000012 -0.0197000001
vn -0.994899988 0.101099998 0
vn -0.984099984 0.177399993 0
vn -0.953199983 0.302300006 0
vn -0.889699996 0.456499994 0
vn -0.994899988 -0.1008 0
vn -0.889699996 0.447699994 0.0891000032
vn -0.994899988 -0.0988000035 -0.0196000002
vn -0.953199983 0.296499997 0.0590000004
vn -0.984099984 0.173999995 0.0346000008
vn -0.994899988 0.0991000012 0.0197000001
vn -0.994899988 0.0934000015 0.0386999995
vn -0.984099984 0.163900003 0.067900002
vn -0.953199983 0.279300004 0.115699999
vn -0.889699996 0.421700001 0.174700007
vn -0.994899988 -0.0930999964 -0.0384999998
vn -0.889699996 0.379500002 0.253600001
vn -0.994899988 -0.0837000012 -0.0559
vn -0.953199983 0.251399994 0.167899996
vn -0.984099984 0.147499993 0.0986000001
vn -0.994899988 0.0839999989 0.0562000014
vn -0.994899988 0.0714000016 0.0715000033
vn -0.984099984 0.125499994 0.125499994
vn -0.953199983 0.213799998 0.213799998
vn -0.889699996 0.32280001 0.32280001
vn -0.994899988 -0.0713 -0.0713
vn -0.889699996 0.253600001 0.379500002
vn -0.994899988 -0.0560000017 -0.0837000012
vn -0.953199983 0.167899996 0.251399994
vn -0.984099984 0.0984999985 0.147599995
vn -0.994899988 0.0560999997 0.0839999989
vn -0.994899988 0.0386000015 0.0934000015
vn -0.984099984 0.067900002 0.163900003
vn -0.953199983 0.115699999 0.279300004
vn -0.889699996 0.174700007 0.421700001
vn -0.994899988 -0.0386000015 -0.0930999964
vn -0.889699996 0.0890000015 0.447699994
vn -0.994899988 -0.0197000001 -0.0988000035
vn -0.953199983 0.0590000004 0.296499997
vn -0.984099984 0.0346000008 0.173999995
vn -0.994899988 0.0197000001 0.0991000012
vn -0.994899988 0 0.101099998
vn -0.984099984 0 0.177499995
vn -0.953199983 0 0.302300006
vn -0.889699996 0 0.456499994
vn -0.994899988 0 -0.100699998
vn -0.889699996 -0.0891000032 0.447699994
vn -0.994899988 0.0196000002 -0.0988000035
vn -0.953199983 -0.0590000004 0.296499997
vn -0.984099984 -0.0346000008 0.173999995
vn -0.994899988 -0.0197000001 0.0991000012
vn -0.994899988 -0.0386000015 0.0934000015
vn -0.984099984 -0.067900002 0.163900003
vn -0.953199983 -0.115699999 0.279300004
vn -0.889699996 -0.174700007 0.421700001
vn -0.994899988 0.0384999998 -0.0930999964
vn -0.889699996 -0.253600001 0.379500002
vn -0.994899988 0.0560000017 -0.0837000012
vn -0.953199983 -0.167899996 0.251399994
vn -0.984099984 -0.0986000001 0.147599995
vn -0.994799972 -0.0562000014 0.0839999989
vn -0.994899988 -0.0715000033 0.0715000033
vn -0.984099984 -0.125499994 0.125499994
vn -0.953199983 -0.213799998 0.213799998
vn -0.889699996 -0.32280001 0.32280001
vn -0.994899988 0.0711999983 -0.0711999983
vn -0.889699996 -0.379500002 0.253600001
vn -0.994899988 0.0837000012 -0.0559
vn -0.953199983 -0.251399994 0.167899996
vn -0.984099984 -0.147499993 0.0986000001
vn -0.994899988 -0.0839999989 0.0562000014
vn -0.994899988 -0.0934000015 0.0386999995
vn -0.984099984 -0.163900003 0.067900002
vn -0.953199983 -0.279300004 0.115699999
vn -0.889699996 -0.421700001 0.174700007
vn -0.994899988 0.0930999964 -0.0384999998
vn -0.889699996 -0.447699994 0.0891000032
vn -0.994899988 0.0988000035 -0.0196000002
vn -0.953199983 -0.296499997 0.0590000004
vn -0.984099984 -0.173999995 0.0346000008
vn -0.994899988 -0.0991000012 0.0197000001
vn -0.994899988 -0.101099998 0
vn -0.984099984 -0.177399993 0
vn -0.953199983 -0.302300006 0
vn -0.889699996 -0.456499994 0
vn -0.994899988 0.1008 0
vn -0.889699996 -0.447699994 -0.0891000032
vn -0.994899988 0.0988000035 0.0196000002
vn -0.953199983 -0.296499997 -0.0590000004
vn -0.984099984 -0.173999995 -0.0346000008
vn -0.994899988 -0.0991000012 -0.0197000001
vn -0.994899988 -0.0934000015 -0.0386999995
vn -0.984099984 -0.163900003 -0.067900002
vn -0.953199983 -0.279300004 -0.115699999
vn -0.889699996 -0.421700001 -0.174700007
vn -0.994899988 0.0930999964 0.0384999998
vn -0.889699996 -0.379500002 -0.253600001
vn -0.994899988 0.0838000029 0.0559
vn -0.953199983 -0.251399994 -0.167899996
vn -0.984099984 -0.147599995 -0.0986000001
vn -0.994899988 -0.0839999989 -0.0562000014
vn -0.994899988 -0.0714000016 -0.0715000033
vn -0.984099984 -0.125499994 -0.125499994
vn -0.953199983 -0.213799998 -0.213799998
vn -0.889699996 -0.32280001 -0.32280001
vn -0.994899988 0.0711999983 0.0713
vn -0.889699996 -0.253600001 -0.379500002
vn -0.994899988 0.0559 0.0837000012
vn -0.953199983 -0.167899996 -0.251399994
vn -0.984099984 -0.0986000001 -0.147599995
vn -0.994899988 -0.0562000014 -0.0839999989
vn -0.994899988 -0.0386999995 -0.0934000015
vn -0.984099984 -0.067900002 -0.163900003
vn -0.953199983 -0.115699999 -0.279300004
vn -0.889699996 -0.174700007 -0.421700001
vn -0.994899988 0.0386000015 0.0930999964
vn -0.889699996 -0.0891000032 -0.447699994
vn -0.994899988 0.0197000001 0.0988000035
vn -0.953199983 -0.0590000004 -0.296499997
vn -0.984099984 -0.0346000008 -0.173999995
vn -0.994899988 -0.0197000001 -0.0992000028
vn -0.781400025 -0.121699996 0.611999989
vn -0.781400025 0 0.624000013
vn -0.781400025 0.121799998 0.611999989
vn -0.781300008 0.238999993 0.576499999
vn -0.781400025 0.346700013 0.51880002
vn -0.781400025 0.441100001 0.441300005
vn -0.781300008 0.518899977 0.346700013
vn -0.781400025 0.576600015 0.238800004
vn -0.781400025 0.611999989 0.121699996
vn -0.781300008 0.624100029 0
vn -0.781400025 0.611999989 -0.121699996
vn -0.781400025 0.576600015 -0.238800004
vn -0.781400025 0.518899977 -0.346700013
vn -0.781400025 0.441300005 -0.441300005
vn -0.781300008 0.346799999 -0.518899977
vn -0.781400025 0.238800004 -0.576499999
vn -0.781400025 0.121699996 -0.611999989
vn -0.781400025 0 -0.624000013
vn -0.781400025 -0.121799998 -0.611999989
vn -0.781300008 -0.238900006 -0.576499999
vn -0.781300008 -0.346799999 -0.518899977
vn -0.781300008 -0.441300005 -0.441300005
vn -0.781300008 -0.518899977 -0.346700013
vn -0.781400025 -0.576600015 -0.238800004
vn -0.781400025 -0.611999989 -0.121699996
vn -0.781300008 -0.624100029 0
vn -0.781400025 -0.611999989 0.121699996
vn -0.781400025 -0.576600015 0.238800004
vn -0.781300008 -0.518899977 0.346700013
vn -0.781400025 -0.441100001 0.441300005
vn -0.781400025 -0.346700013 0.51880002
vn -0.781400025 -0.238900006 0.576499999
f 1//1 2//2 3//3
f 1//1 3//3 4//4
f 2//2 1//1 5//5
f 2//2 5//5 6//6
f 6//6 5//5 7//7
f 6//6 7//7 8//8
f 8//8 7//7 9//9
f 8//8 9//9 10//10
f 10//10 9//9 11//11
f 9//9 12//12 11//11
f 7//7 13//13 12//12
f 7//7 12//12 9//9
f 5//5 14//14 13//13
f 5//5 13//13 7//7
f 1//1 15//15 14//14
f 1//1 14//14 5//5
f 15//15 1//1 4//4
f 15//15 4//4 16//16
f 16//16 17//17 18//18
f 16//16 18//18 15//15
f 15//15 18//18 19//19
f 15//15 19//19 14//14
f 14//14 19//19 20//20
f 14//14 20//20 13//13
f 13//13 20//20 21//21
f 13//13 21//21 12//12
f 12//12 21//21 11//11
f 21//21 22//22 11//11
f 20//20 23//23 22//22
f 20//20 22//22 21//21
f 19//19 24//24 23//23
f 19//19 23//23 20//20
f 18//18 25//25 24//24
f 18//18 24//24 19//19
f 17//17 26//26 25//25
f 17//17 25//25 18//18
f 26//26 27//27 28//28
f 26//26 28//28 25//25
f 25//25 28//28 29//29
f 25//25 29//29 24//24
f 24//24 29//29 30//30
f 24//24 30//30 23//23
f 23//23 30//30 31//31
f 23//23 31//31 22//22
f 22//22 31//31 11//11
f 31//31 32//32 11//11
f 30//30 33//33 32//32
f 30//30 32//32 31//31
f 29//29 34//34 33//33
f 29//29 33//33 30//30
f 28//28 35//35 34//34
f 28//28 34//34 29//29
f 27//27 36//36 35//35
f 27//27 35//35 28//28
f 36//36 37//37 38//38
f 36//36 38//38 35//35
f 35//35 38//38 39//39
f 35//35 39//39 34//34
f 34//34 39//39 40//40
f 34//34 40//40 33//33
f 33//33 40//40 41//41
f 33//33 41//41 32//32
f 32//32 41//41 11//11
f 41//41 42//42 11//11
f 40//40 43//43 42//42
f 40//40 42//42 41//41
f 39//39 44//44 43//43
f 39//39 43//43 40//40
f 38//38 45//45 44//44
f 38//38 44//44 39//39
f 37//37 46//46 45//45
f 37//37 45//45 38//38
f 46//46 47//47 48//48
f 46//46 48//48 45//45
f 45//45 48//48 49//49
f 45//45 49//49 44//44
f 44//44 49//49 50//50
f 44//44 50//50 43//43
f 43//43 50//50 51//51
f 43//43 51//51 42//42
f 42//42 51//51 11//11
f 51//51 52//52 11//11
f 50//50 53//53 52//52
f 50//50 52//52 51//51
f 49//49 54//54 53//53
f 49//49 53//53 50//50
f 48//48 55//55 54//54
f 48//48 54//54 49//49
f 47//47 56//56 55//55
f 47//47 55//55 48//48
f 56//56 57//57 58//58
f 56//56 58//58 55//55
f 55//55 58//58 59//59
f 55//55 59//59 54//54
f 54//54 59//59 60//60
f 54//54 60//60 53//53
f 53//53 60//60 61//61
f 53//53 61//61 52//52
f 52//52 61//61 11//11
f 61//61 62//62 11//11
f 60//60 63//63 62//62
f 60//60 62//62 61//61
f 59//59 64//64 63//63
f 59//59 63//63 60//60
f 58//58 65//65 64//64
f 58//58 64//64 59//59
f 57//57 66//66 65//65
f 57//57 65//65 58//58
f 66//66 67//67 68//68
f 66//66 68//68 65//65
f 65//65 68//68 69//69
f 65//65 69//69 64//64
f 64//64 69//69 70//70
f 64//64 70//70 63//63
f 63//63 70//70 71//71
f 63//63 71//71 62//62
f 62//62 71//71 11//11
f 71//71 72//72 11//11
f 70//70 73//73 72//72
f 70//70 72//72 71//71
f 69//69 74//74 73//73
f 69//69 73//73 70//70
f 68//68 75//75 74//74
f 68//68 74//74 69//69
f 67//67 76//76 75//75
f 67//67 75//75 68//68
f 76//76 77//77 78//78
f 76//76 78//78 75//75
f 75//75 78//78 79//79
f 75//75 79//79 74//74
f 74//74 79//79 80//80
f 74//74 80//80 73//73
f 73//73 80//80 81//81
f 73//73 81//81 72//72
f 72//72 81//81 11//11
f 81//81 82//82 11//11
f 80//80 83//83 82//82
f 80//80 82//82 81//81
f 79//79 84//84 83//83
f 79//79 83//83 80//80
f 78//78 85//85 84//84
f 78//78 84//84 79//79
f 77//77 86//86 85//85
f 77//77 85//85 78//78
f 86//86 87//87 88//88
f 86//86 88//88 85//85
f 85//85 88//88 89//89
f 85//85 89//89 84//84
f 84//84 89//89 90//90
f 84//84 90//90 83//83
f 83//83 90//90 91//91
f 83//83 91//91 82//82
f 82//82 91//91 11//11
f 91//91 92//92 11//11
f 90//90 93//93 92//92
f 90//90 92//92 91//91
f 89//89 94//94 93//93
f 89//89 93//93 90//90
f 88//88 95//95 94//94
f 88//88 94//94 89//89
f 87//87 96//96 95//95
f 87//87 95//95 88//88
f 96//96 97//97 98//98
f 96//96 98//98 95//95
f 95//95 98//98 99//99
f 95//95 99//99 94//94
f 94//94 99//99 100//100
f 94//94 100//100 93//93
f 93//93 100//100 101//101
f 93//93 101//101 92//92
f 92//92 101//101 11//11
f 101//101 102//102 11//11
f 100//100 103//103 102//102
f 100//100 102//102 101//101
f 99//99 104//104 103//103
f 99//99 103//103 100//100
f 98//98 105//105 104//104
f 98//98 104//104 99//99
f 97//97 106//106 105//105
f 97//97 105//105 98//98
f 106//106 107//107 108//108
f 106//106 108//108 105//105
f 105//105 108//108 109//109
f 105//105 109//109 104//104
f 104//104 109//109 110//110
f 104//104 110//110 103//103
f 103//103 110//110 111//111
f 103//103 111//111 102//102
f 102//102 111//111 11//11
f 111//111 112//112 11//11
f 110//110 113//113 112//112
f 110//110 112//112 111//111
f 109//109 114//114 113//113
f 109//109 113//113 110//110
f 108//108 115//115 114//114
f 108//108 114//114 109//109
f 107//107 116//116 115//115
f 107//107 115//115 108//108
f 116//116 117//117 118//118
f 116//116 118//118 115//115
f 115//115 118//118 119//119
f 115//115 119//119 114//114
f 114//114 119//119 120//120
f 114//114 120//120 113//113
f 113//113 120//120 121//121
f 113//113 121//121 112//112
f 112//112 121//121 11//11
f 121//121 122//122 11//11
f 120//120 123//123 122//122
f 120//120 122//122 121//121
f 119//119 124//124 123//123
f 119//119 123//123 120//120
f 118//118 125//125 124//124
f 118//118 124//124 119//119
f 117//117 126//126 125//125
f 117//117 125//125 118//118
f 126//126 127//127 128//128
f 126//126 128//128 125//125
f 125//125 128//128 129//129
f 125//125 129//129 124//124
f 124//124 129//129 130//130
f 124//124 130//130 123//123
f 123//123 130//130 131//131
f 123//123 131//131 122//122
f 122//122 131//131 11//11
f 131//131 132//132 11//11
f 130//130 133//133 132//132
f 130//130 132//132 131//131
f 129//129 134//134 133//133
f 129//129 133//133 130//130
f 128//128 135//135 134//134
f 128//128 134//134 129//129
f 127//127 136//136 135//135
f 127//127 135//135 128//128
f 136//136 137//137 138//138
f 136//136 138//138 135//135
f 135//135 138//138 139//139
f 135//135 139//139 134//134
f 134//134 139//139 140//140
f 134//134 140//140 133//133
f 133//133 140//140 141//141
f 133//133 141//141 132//132
f 132//132 141//141 11//11
f 141//141 142//142 11//11
f 140//140 143//143 142//142
f 140//140 142//142 141//141
f 139//139 144//144 143//143
f 139//139 143//143 140//140
f 138//138 145//145 144//144
f 138//138 144//144 139//139
f 137//137 146//146 145//145
f 137//137 145//145 138//138
f 146//146 147//147 148//148
f 146//146 148//148 145//145
f 145//145 148//148 149//149
f 145//145 149//149 144//144
f 144//144 149//149 150//150
f 144//144 150//150 143//143
f 143//143 150//150 151//151
f 143//143 151//151 142//142
f 142//142 151//151 11//11
f 151//151 152//152 11//11
f 150//150 153//153 152//152
f 150//150 152//152 151//151
f 149//149 154//154 153//153
f 149//149 153//153 150//150
f 148//148 155//155 154//154
f 148//148 154//154 149//149
f 147//147 156//156 155//155
f 147//147 155//155 148//148
f 156//156 157//157 158//158
f 156//156 158//158 155//155
f 155//155 158//158 159//159
f 155//155 159//159 154//154
f 154//154 159//159 160//160
f 154//154 160//160 153//153
f 153//153 160//160 161//161
f 153//153 161//161 152//152
f 152//152 161//161 11//11
f 161//161 10//10 11//11
f 160//160 8//8 10//10
f 160//160 10//10 161//161
f 159//159 6//6 8//8
f 159//159 8//8 160//160
f 158//158 2//2 6//6
f 158//158 6//6 159//159
f 157//157 3//3 2//2
f 157//157 2//2 158//158
f 3//3 162//162 163//163
f 3//3 163//163 4//4
f 157//157 164//164 162//162
f 157//157 162//162 3//3
f 156//156 165//165 164//164
f 156//156 164//164 157//157
f 147//147 166//166 165//165
f 147//147 165//165 156//156
f 146//146 167//167 166//166
f 146//146 166//166 147//147
f 137//137 168//168 167//167
f 137//137 167//167 146//146
f 136//136 169//169 168//168
f 136//136 168//168 137//137
f 127//127 170//170 169//169
f 127//127 169//169 136//136
f 126//126 171//171 170//170
f 126//126 170//170 127//127
f 117//117 172//172 171//171
f 117//117 171//171 126//126
f 116//116 173//173 172//172
f 116//116 172//172 117//117
f 107//107 174//174 173//173
f 107//107 173//173 116//116
f 106//106 175//175 174//174
f 106//106 174//174 107//107
f 97//97 176//176 175//175
f 97//97 175//175 106//106
f 96//96 177//177 176//176
f 96//96 176//176 97//97
f 87//87 178//178 177//177
f 87//87 177//177 96//96
f 86//86 179//179 178//178
f 86//86 178//178 87//87
f 77//77 180//180 179//179
f 77//77 179//179 86//86
f 76//76 181//181 180//180
f 76//76 180//180 77//77
f 67//67 182//182 181//181
f 67//67 181//181 76//76
f 66//66 183//183 182//182
f 66//66 182//182 67//67
f 183//183 66//66 57//57
f 183//183 57//57 184//184
f 56//56 185//185 184//184
f 56//56 184//184 57//57
f 47//47 186//186 185//185
f 47//47 185//185 56//56
f 46//46 187//187 186//186
f 46//46 186//186 47//47
f 37//37 188//188 187//187
f 37//37 187//187 46//46
f 36//36 189//189 188//188
f 36//36 188//188 37//37
f 27//27 190//190 189//189
f 27//27 189//189 36//36
f 26//26 191//191 190//190
f 26//26 190//190 27//27
f 17//17 192//192 191//191
f 17//17 191//191 26//26
f 16//16 193//193 192//192
f 16//16 192//192 17//17
f 4//4 163//163 193//193
f 4//4 193//193 16//16
f 194//194 195//195 196//196
f 194//194 196//196 197//197
f 197//197 198//198 199//199
f 197//197 199//199 194//194
f 198//198 200//200 201//201
f 198//198 201//201 199//199
f 200//200 202//202 203//203
f 200//200 203//203 201//201
f 202//202 204//204 203//203
f 203//203 204//204 205//205
f 201//201 203//203 205//205
f 201//201 205//205 206//206
f 199//199 201//201 206//206
f 199//199 206//206 207//207
f 194//194 199//199 207//207
f 194//194 207//207 208//208
f 208//208 209//209 195//195
f 208//208 195//195 194//194
f 209//209 208//208 210//210
f 209//209 210//210 211//211
f 208//208 207//207 212//212
f 208//208 212//212 210//210
f 207//207 206//206 213//213
f 207//207 213//213 212//212
f 206//206 205//205 214//214
f 206//206 214//214 213//213
f 205//205 204//204 214//214
f 214//214 204//204 215//215
f 213//213 214//214 215//215
f 213//213 215//215 216//216
f 212//212 213//213 216//216
f 212//212 216//216 217//217
f 210//210 212//212 217//217
f 210//210 217//217 218//218
f 211//211 210//210 218//218
f 211//211 218//218 219//219
f 219//219 218//218 220//220
f 219//219 220//220 221//221
f 218//218 217//217 222//222
f 218//218 222//222 220//220
f 217//217 216//216 223//223
f 217//217 223//223 222//222
f 216//216 215//215 224//224
f 216//216 224//224 223//223
f 215//215 204//204 224//224
f 224//224 204//204 225//225
f 223//223 224//224 225//225
f 223//223 225//225 226//226
f 222//222 223//223 226//226
f 222//222 226//226 227//227
f 220//220 222//222 227//227
f 220//220 227//227 228//228
f 221//221 220//220 228//228
f 221//221 228//228 229//229
f 229//229 228//228 230//230
f 229//229 230//230 231//231
f 228//228 227//227 232//232
f 228//228 232//232 230//230
f 227//227 226//226 233//233
f 227//227 233//233 232//232
f 226//226 225//225 234//234
f 226//226 234//234 233//233
f 225//225 204//204 234//234
f 234//234 204//204 235//235
f 233//233 234//234 235//235
f 233//233 235//235 236//236
f 232//232 233//233 236//236
f 232//232 236//236 237//237
f 230//230 232//232 237//237
f 230//230 237//237 238//238
f 231//231 230//230 238//238
f 231//231 238//238 239//239
f 239//239 238//238 240//240
f 239//239 240//240 241//241
f 238//238 237//237 242//242
f 238//238 242//242 240//240
f 237//237 236//236 243//243
f 237//237 243//243 242//242
f 236//236 235//235 244//244
f 236//236 244//244 243//243
f 235//235 204//204 244//244
f 244//244 204//204 245//245
f 243//243 244//244 245//245
f 243//243 245//245 246//246
f 242//242 243//243 246//246
f 242//242 246//246 247//247
f 240//240 242//242 247//247
f 240//240 247//247 248//248
f 241//241 240//240 248//248
f 241//241 248//248 249//249
f 249//249 248//248 250//250
f 249//249 250//250 251//251
f 248//248 247//247 252//252
f 248//248 252//252 250//250
f 247//247 246//246 253//253
f 247//247 253//253 252//252
f 246//246 245//245 254//254
f 246//246 254//254 253//253
f 245//245 204//204 254//254
f 254//254 204//204 255//255
f 253//253 254//254 255//255
f 253//253 255//255 256//256
f 252//252 253//253 256//256
f 252//252 256//256 257//257
f 250//250 252//252 257//257
f 250//250 257//257 258//258
f 251//251 250//250 258//258
f 251//251 258//258 259//259
f 259//259 258//258 260//260
f 259//259 260//260 261//261
f 258//258 257//257 262//262
f 258//258 262//262 260//260
f 257//257 256//256 263//263
f 257//257 263//263 262//262
f 256//256 255//255 264//264
f 256//256 264//264 263//263
f 255//255 204//204 264//264
f 264//264 204//204 265//265
f 263//263 264//264 265//265
f 263//263 265//265 266//266
f 262//262 263//263 266//266
f 262//262 266//266 267//267
f 260//260 262//262 267//267
f 260//260 267//267 268//268
f 261//261 260//260 268//268
f 261//261 268//268 269//269
f 269//269 268//268 270//270
f 269//269 270//270 271//271
f 268//268 267//267 272//272
f 268//268 272//272 270//270
f 267//267 266//266 273//273
f 267//267 273//273 272//272
f 266//266 265//265 274//274
f 266//266 274//274 273//273
f 265//265 204//204 274//274
f 274//274 204//204 275//275
f 273//273 274//274 275//275
f 273//273 275//275 276//276
f 272//272 273//273 276//276
f 272//272 276//276 277//277
f 270//270 272//272 277//277
f 270//270 277//277 278//278
f 271//271 270//270 278//278
f 271//271 278//278 279//279
f 279//279 278//278 280//280
f 279//279 280//280 281//281
f 278//278 277//277 282//282
f 278//278 282//282 280//280
f 277//277 276//276 283//283
f 277//277 283//283 282//282
f 276//276 275//275 284//284
f 276//276 284//284 283//283
f 275//275 204//204 284//284
f 284//284 204//204 285//285
f 283//283 284//284 285//285
f 283//283 285//285 286//286
f 282//282 283//283 286//286
f 282//282 286//286 287//287
f 280//280 282//282 287//287
f 280//280 287//287 288//288
f 281//281 280//280 288//288
f 281//281 288//288 289//289
f 289//289 288//288 290//290
f 289//289 290//290 291//291
f 288//288 287//287 292//292
f 288//288 292//292 290//290
f 287//287 286//286 293//293
f 287//287 293//293 292//292
f 286//286 285//285 294//294
f 286//286 294//294 293//293
f 285//285 204//204 294//294
f 294//294 204//204 295//295
f 293//293 294//294 295//295
f 293//293 295//295 296//296
f 292//292 293//293 296//296
f 292//292 296//296 297//297
f 290//290 292//292 297//297
f 290//290 297//297 298//298
f 291//291 290//290 298//298
f 291//291 298//298 299//299
f 299//299 298//298 300//300
f 299//299 300//300 301//301
f 298//298 297//297 302//302
f 298//298 302//302 300//300
f 297//297 296//296 303//303
f 297//297 303//303 302//302
f 296//296 295//295 304//304
f 296//296 304//304 303//303
f 295//295 204//204 304//304
f 304//304 204//204 305//305
f 303//303 304//304 305//305
f 303//303 305//305 306//306
f 302//302 303//303 306//306
f 302//302 306//306 307//307
f 300//300 302//302 307//307
f 300//300 307//307 308//308
f 301//301 300//300 308//308
f 301//301 308//308 309//309
f 309//309 308//308 310//310
f 309//309 310//310 311//311
f 308//308 307//307 312//312
f 308//308 312//312 310//310
f 307//307 306//306 313//313
f 307//307 313//313 312//312
f 306//306 305//305 314//314
f 306//306 314//314 313//313
f 305//305 204//204 314//314
f 314//314 204//204 315//315
f 313//313 314//314 315//315
f 313//313 315//315 316//316
f 312//312 313//313 316//316
f 312//312 316//316 317//317
f 310//310 312//312 317//317
f 310//310 317//317 318//318
f 311//311 310//310 318//318
f 311//311 318//318 319//319
f 319//319 318//318 320//320
f 319//319 320//320 321//321
f 318//318 317//317 322//322
f 318//318 322//322 320//320
f 317//317 316//316 323//323
f 317//317 323//323 322//322
f 316//316 315//315 324//324
f 316//316 324//324 323//323
f 315//315 204//204 324//324
f 324//324 204//204 325//325
f 323//323 324//324 325//325
f 323//323 325//325 326//326
f 322//322 323//323 326//326
f 322//322 326//326 327//327
f 320//320 322//322 327//327
f 320//320 327//327 328//328
f 321//321 320//320 328//328
f 321//321 328//328 329//329
f 329//329 328//328 330//330
f 329//329 330//330 331//331
f 328//328 327//327 332//332
f 328//328 332//332 330//330
f 327//327 326//326 333//333
f 327//327 333//333 332//332
f 326//326 325//325 334//334
f 326//326 334//334 333//333
f 325//325 204//204 334//334
f 334//334 204//204 335//335
f 333//333 334//334 335//335
f 333//333 335//335 336//336
f 332//332 333//333 336//336
f 332//332 336//336 337//337
f 330//330 332//332 337//337
f 330//330 337//337 338//338
f 331//331 330//330 338//338
f 331//331 338//338 339//339
f 339//339 338//338 340//340
f 339//339 340//340 341//341
f 338//338 337//337 342//342
f 338//338 342//342 340//340
f 337//337 336//336 343//343
f 337//337 343//343 342//342
f 336//336 335//335 344//344
f 336//336 344//344 343//343
f 335//335 204//204 344//344
f 344//344 204//204 345//345
f 343//343 344//344 345//345
f 343//343 345//345 346//346
f 342//342 343//343 346//346
f 342//342 346//346 347//347
f 340//340 342//342 347//347
f 340//340 347//347 348//348
f 341//341 340//340 348//348
f 341//341 348//348 349//349
f 349//349 348//348 350//350
f 349//349 350//350 351//351
f 348//348 347//347 352//352
f 348//348 352//352 350//350
f 347//347 346//346 353//353
f 347//347 353//353 352//352
f 346//346 345//345 354//354
f 346//346 354//354 353//353
f 345//345 204//204 354//354
f 354//354 204//204 202//202
f 353//353 354//354 202//202
f 353//353 202//202 200//200
f 352//352 353//353 200//200
f 352//352 200//200 198//198
f 350//350 352//352 198//198
f 350//350 198//198 197//197
f 351//351 350//350 197//197
f 351//351 197//197 196//196
f 196//196 195//195 355//355
f 196//196 355//355 356//356
f 351//351 196//196 356//356
f 351//351 356//356 357//357
f 349//349 351//351 357//357
f 349//349 357//357 358//358
f 341//341 349//349 358//358
f 341//341 358//358 359//359
f 339//339 341//341 359//359
f 339//339 359//359 360//360
f 331//331 339//339 360//360
f 331//331 360//360 361//361
f 329//329 331//331 361//361
f 329//329 361//361 362//362
f 321//321 329//329 362//362
f 321//321 362//362 363//363
f 319//319 321//321 363//363
f 319//319 363//363 364//364
f 311//311 319//319 364//364
f 311//311 364//364 365//365
f 309//309 311//311 365//365
f 309//309 365//365 366//366
f 301//301 309//309 366//366
f 301//301 366//366 367//367
f 299//299 301//301 367//367
f 299//299 367//367 368//368
f 291//291 299//299 368//368
f 291//291 368//368 369//369
f 289//289 291//291 369//369
f 289//289 369//369 370//370
f 281//281 289//289 370//370
f 281//281 370//370 371//371
f 279//279 281//281 371//371
f 279//279 371//371 372//372
f 271//271 279//279 372//372
f 271//271 372//372 373//373
f 269//269 271//271 373//373
f 269//269 373//373 374//374
f 261//261 269//269 374//374
f 261//261 374//374 375//375
f 259//259 261//261 375//375
f 259//259 375//375 376//376
f 376//376 377//377 251//251
f 376//376 251//251 259//259
f 249//249 251//251 377//377
f 249//249 377//377 378//378
f 241//241 249//249 378//378
f 241//241 378//378 379//379
f 239//239 241//241 379//379
f 239//239 379//379 380//380
f 231//231 239//239 380//380
f 231//231 380//380 381//381
f 229//229 231//231 381//381
f 229//229 381//381 382//382
f 221//221 229//229 382//382
f 221//221 382//382 383//383
f 219//219 221//221 383//383
f 219//219 383//383 384//384
f 211//211 219//219 384//384
f 211//211 384//384 385//385
f 209//209 211//211 385//385
f 209//209 385//385 386//386
f 195//195 209//209 386//386
f 195//195 386//386 355//355
