# Generated by lxe_pbrt_scene_convert
v 4.72025108 0.195824996 -0.565133989
v 4.72999716 0.140561 -0.533143997
v 4.72621202 0.140946001 -0.555902004
v 4.72201014 0.163513005 -0.568211973
v 4.71980381 0.140946001 -0.597446024
v 4.71578121 0.141459003 -0.617704988
v 4.71026707 0.195824996 -0.617704988
v 4.71703196 0.163065001 -0.597446024
v 4.71026707 0.195824996 -0.617704988
v 4.71432018 0.196337998 -0.597958982
v 4.71807623 0.175823003 -0.58513701
v 4.71807623 0.175823003 -0.58513701
v 4.71646595 0.195824996 -0.586161971
v 4.72201014 0.163513005 -0.568211973
v 4.71703196 0.163065001 -0.597446024
v 4.72466183 0.140432999 -0.566160023
v 4.72177076 0.140432999 -0.585649014
v 4.71703196 0.163065001 -0.597446024
v 4.70958185 0.168708995 -0.632579029
v 4.70257902 0.176045999 -0.656852007
v 4.70153522 0.183850005 -0.656852007
v 4.70677996 0.194107994 -0.632579029
v 4.70448589 0.163513005 -0.65762198
v 4.70257902 0.176045999 -0.656852007
v 4.70153522 0.183850005 -0.656852007
v 4.70016384 0.196046993 -0.655960023
v 4.70677996 0.194107994 -0.632579029
v 4.70448589 0.163513005 -0.65762198
v 4.70958185 0.168708995 -0.632579029
v 4.7127409 0.143309996 -0.632579029
v 4.70603609 0.154025003 -0.65762198
v 4.70767498 0.141525999 -0.657810986
v 4.70603609 0.154025003 -0.65762198
v 4.7127409 0.143309996 -0.632579029
v 4.69840622 0.154025003 -0.689420998
v 4.70767498 0.141525999 -0.657810986
v 4.70037317 0.141927004 -0.688072026
v 4.70037317 0.141927004 -0.688072026
v 4.69268417 0.144157007 -0.714832008
v 4.69268417 0.144157007 -0.714832008
v 4.688869 0.176045999 -0.713494003
v 4.69706488 0.163220003 -0.689916015
v 4.69497919 0.176045999 -0.68997997
v 4.69706488 0.163220003 -0.689916015
v 4.69497919 0.176045999 -0.68997997
v 4.69396496 0.180883005 -0.690146983
v 4.68794489 0.180883005 -0.714366972
v 4.68648481 0.194107994 -0.71392101
v 4.69390583 0.183850005 -0.689855993
v 4.69390583 0.183850005 -0.689855993
v 4.68648481 0.194107994 -0.71392101
v 4.69146204 0.195446 -0.693423986
v 4.69146204 0.195446 -0.693423986
v 4.70016384 0.196046993 -0.655960023
v 4.70153522 0.183850005 -0.656852007
v 4.72999716 0.140561 -0.533143997
v 4.72025108 0.195824996 -0.565133989
v 4.71480083 0.195171997 -0.563933015
v 4.72454596 0.139908001 -0.531943023
v 4.71646595 0.195824996 -0.586161971
v 4.71101618 0.195171997 -0.584960997
v 4.71480083 0.195171997 -0.563933015
v 4.71262598 0.175169006 -0.583935022
v 4.71101618 0.195171997 -0.584960997
v 4.71646595 0.195824996 -0.586161971
v 4.71807623 0.175823003 -0.58513701
v 4.70886993 0.195684999 -0.596758008
v 4.71262598 0.175169006 -0.583935022
v 4.71432018 0.196337998 -0.597958982
v 4.70481682 0.195171997 -0.616504014
v 4.70886993 0.195684999 -0.596758008
v 4.71432018 0.196337998 -0.597958982
v 4.71026707 0.195824996 -0.617704988
v 4.71033001 0.140806004 -0.616504014
v 4.70481682 0.195171997 -0.616504014
v 4.71578121 0.141459003 -0.617704988
v 4.71435404 0.140293002 -0.596244991
v 4.71033001 0.140806004 -0.616504014
v 4.71578121 0.141459003 -0.617704988
v 4.71980381 0.140946001 -0.597446024
v 4.71158218 0.162412003 -0.596244991
v 4.71435404 0.140293002 -0.596244991
v 4.71980381 0.140946001 -0.597446024
v 4.71632099 0.13978 -0.58444798
v 4.71158218 0.162412003 -0.596244991
v 4.72177076 0.140432999 -0.585649014
v 4.71921206 0.13978 -0.56495899
v 4.71632099 0.13978 -0.58444798
v 4.72177076 0.140432999 -0.585649014
v 4.72466183 0.140432999 -0.566160023
v 4.71655893 0.162860006 -0.567009985
v 4.71921206 0.13978 -0.56495899
v 4.72466183 0.140432999 -0.566160023
v 4.72076082 0.140293002 -0.554700971
v 4.71655893 0.162860006 -0.567009985
v 4.72201014 0.163513005 -0.568211973
v 4.72621202 0.140946001 -0.555902004
v 4.72454596 0.139908001 -0.531943023
v 4.72076082 0.140293002 -0.554700971
v 4.72621202 0.140946001 -0.555902004
v 4.70729113 0.142655998 -0.631377995
v 4.70222378 0.140872002 -0.656610012
v 4.70767498 0.141525999 -0.657810986
v 4.7127409 0.143309996 -0.632579029
v 4.69471407 0.195393994 -0.65475899
v 4.70133018 0.193454996 -0.631377995
v 4.70016384 0.196046993 -0.655960023
v 4.68601179 0.194793001 -0.692223012
v 4.69471407 0.195393994 -0.65475899
v 4.69146204 0.195446 -0.693423986
v 4.68103504 0.193454996 -0.712719977
v 4.68601179 0.194793001 -0.692223012
v 4.68648481 0.194107994 -0.71392101
v 4.68249512 0.180230007 -0.713165998
v 4.68103504 0.193454996 -0.712719977
v 4.68794489 0.180883005 -0.714366972
v 4.68851519 0.180230007 -0.688946009
v 4.68249512 0.180230007 -0.713165998
v 4.68794489 0.180883005 -0.714366972
v 4.69396496 0.180883005 -0.690146983
v 4.68845606 0.183197007 -0.688655019
v 4.68851519 0.180230007 -0.688946009
v 4.69396496 0.180883005 -0.690146983
v 4.69608498 0.183197007 -0.655650973
v 4.68845606 0.183197007 -0.688655019
v 4.69390583 0.183850005 -0.689855993
v 4.69712782 0.175392002 -0.655650973
v 4.69608498 0.183197007 -0.655650973
v 4.70257902 0.176045999 -0.656852007
v 4.68723392 0.143503994 -0.713630974
v 4.68341923 0.175392002 -0.712292016
v 4.69268417 0.144157007 -0.714832008
v 4.69492292 0.141274005 -0.686870992
v 4.68723392 0.143503994 -0.713630974
v 4.70222378 0.140872002 -0.656610012
v 4.69492292 0.141274005 -0.686870992
v 4.70037317 0.141927004 -0.688072026
v 4.70767498 0.141525999 -0.657810986
v 4.69903612 0.162860006 -0.656421006
v 4.6916151 0.162567005 -0.688714981
v 4.69706488 0.163220003 -0.689916015
v 4.70058489 0.153371006 -0.656421006
v 4.69903612 0.162860006 -0.656421006
v 4.70448589 0.163513005 -0.65762198
v 4.69295597 0.153371006 -0.688220024
v 4.70058489 0.153371006 -0.656421006
v 4.69840622 0.154025003 -0.689420998
v 4.6916151 0.162567005 -0.688714981
v 4.69295597 0.153371006 -0.688220024
v 4.69840622 0.154025003 -0.689420998
v 4.68952799 0.175392002 -0.688777983
v 4.69712782 0.175392002 -0.655650973
v 4.69497919 0.176045999 -0.68997997
v 4.68341923 0.175392002 -0.712292016
v 4.68952799 0.175392002 -0.688777983
v 4.69497919 0.176045999 -0.68997997
v 4.688869 0.176045999 -0.713494003
v 4.70413208 0.168055996 -0.631377995
v 4.70729113 0.142655998 -0.631377995
v 4.70958185 0.168708995 -0.632579029
v 4.70133018 0.193454996 -0.631377995
v 4.70413208 0.168055996 -0.631377995
v 4.70958185 0.168708995 -0.632579029
v 4.72076082 0.140293002 -0.554700971
v 4.72454596 0.139908001 -0.531943023
v 4.71435404 0.140293002 -0.596244991
v 4.71158218 0.162412003 -0.596244991
v 4.70481682 0.195171997 -0.616504014
v 4.71262598 0.175169006 -0.583935022
v 4.71655893 0.162860006 -0.567009985
v 4.71921206 0.13978 -0.56495899
v 4.69712782 0.175392002 -0.655650973
v 4.70413208 0.168055996 -0.631377995
v 4.70133018 0.193454996 -0.631377995
v 4.69903612 0.162860006 -0.656421006
v 4.69608498 0.183197007 -0.655650973
v 4.70413208 0.168055996 -0.631377995
v 4.69903612 0.162860006 -0.656421006
v 4.70058489 0.153371006 -0.656421006
v 4.70222378 0.140872002 -0.656610012
v 4.69295597 0.153371006 -0.688220024
v 4.69492292 0.141274005 -0.686870992
v 4.68723392 0.143503994 -0.713630974
v 4.6916151 0.162567005 -0.688714981
v 4.68952799 0.175392002 -0.688777983
v 4.68952799 0.175392002 -0.688777983
v 4.6916151 0.162567005 -0.688714981
v 4.68851519 0.180230007 -0.688946009
v 4.68845606 0.183197007 -0.688655019
v 4.68845606 0.183197007 -0.688655019
v 4.69608498 0.183197007 -0.655650973
vt 1 1
vt 1 0
vt 0 0
vt 0 1
vt 0 0
vt 1 0
vt 1 1
vt 0 1
vt 0 0
vt 1 0
vt 1 1
vt 0 0
vt 1 0
vt 0 0
vt 1 0
vt 0 0
vt 1 0
vt 1 1
vt 0 0
vt 1 0
vt 1 1
vt 0 1
vt 1 0
vt 1 1
vt 0 0
vt 1 0
vt 1 1
vt 0 0
vt 0 1
vt 1 1
vt 1 0
vt 0 0
vt 1 1
vt 1 0
vt 0 0
vt 1 1
vt 0 1
vt 1 0
vt 1 1
vt 0 1
vt 1 1
vt 1 0
vt 0 0
vt 0 0
vt 0 1
vt 0 0
vt 1 0
vt 1 1
vt 0 1
vt 0 0
vt 1 0
vt 1 1
vt 1 0
vt 1 1
vt 0 1
vt 1 1
vt 1 0
vt 0 0
vt 0 1
vt 0 1
vt 0 0
vt 1 0
vt 0 0
vt 1 0
vt 1 1
vt 0 1
vt 0 0
vt 1 0
vt 0 1
vt 0 0
vt 1 0
vt 1 1
vt 0 1
vt 0 0
vt 1 0
vt 0 1
vt 0 0
vt 1 0
vt 1 1
vt 0 1
vt 0 0
vt 1 0
vt 1 1
vt 0 0
vt 1 0
vt 0 1
vt 0 0
vt 1 0
vt 1 1
vt 0 1
vt 0 0
vt 1 0
vt 1 1
vt 0 0
vt 0 1
vt 1 1
vt 1 0
vt 0 0
vt 0 1
vt 1 1
vt 0 0
vt 1 1
vt 1 0
vt 0 1
vt 0 0
vt 1 0
vt 0 1
vt 0 0
vt 1 0
vt 0 1
vt 0 0
vt 1 0
vt 0 1
vt 0 0
vt 1 0
vt 0 1
vt 0 0
vt 1 0
vt 1 1
vt 0 1
vt 0 0
vt 1 0
vt 1 1
vt 0 0
vt 1 0
vt 1 1
vt 0 0
vt 1 0
vt 0 1
vt 0 0
vt 0 1
vt 1 0
vt 0 0
vt 1 0
vt 0 0
vt 1 0
vt 1 1
vt 0 1
vt 0 0
vt 0 1
vt 1 1
vt 0 0
vt 0 1
vt 1 1
vt 0 0
vt 1 0
vt 0 1
vt 0 0
vt 0 1
vt 1 1
vt 0 0
vt 0 1
vt 1 0
vt 0 0
vt 1 0
vt 1 1
vt 0 1
vt 0 0
vt 0 1
vt 1 0
vt 0 0
vt 1 0
vt 1 1
vt 1 1
vt 1 0
vt 1 1
vt 0 1
vt 1 1
vt 1 1
vt 1 1
vt 1 1
vt 1 0
vt 1 1
vt 0 1
vt 1 0
vt 1 1
vt 0 1
vt 1 1
vt 1 1
vt 1 0
vt 1 1
vt 0 1
vt 0 1
vt 1 0
vt 1 1
vt 0 1
vt 1 1
vt 1 1
vt 0 1
vt 1 1
vt 0 1
vn 0.610099971 0.7421 0.27759999
vn 0.716499984 -0.361699998 0.596499979
vn 0.585300028 -0.619599998 -0.522899985
vn 0.990800023 -0.0131000001 -0.134900004
vn 0.738300025 -0.510699987 0.440499991
vn 0.512799978 -0.508300006 -0.691799998
vn 0.386799991 0.622200012 -0.680599988
vn 0.990100026 -0.0237000007 -0.137999997
vn 0.386799991 0.622200012 -0.680599988
vn 0.608900011 0.751999974 0.252499998
vn 0.953700006 0.209600002 -0.215800002
vn 0.953700006 0.209600002 -0.215800002
vn 0.394800007 0.609700024 -0.687300026
vn 0.990800023 -0.0131000001 -0.134900004
vn 0.990100026 -0.0237000007 -0.137999997
vn 0.729799986 -0.483799994 0.48300001
vn 0.59740001 -0.609099984 -0.521499991
vn 0.990100026 -0.0237000007 -0.137999997
vn 0.83859998 0.108599998 0.533900023
vn 0.767700016 0.411300004 -0.491299987
vn 0.83039999 -0.196099997 -0.521399975
vn 0.64230001 0.619199991 0.451599985
vn 0.842100024 -0.176100001 -0.509800017
vn 0.767700016 0.411300004 -0.491299987
vn 0.83039999 -0.196099997 -0.521399975
vn 0.585900009 0.800999999 -0.123199999
vn 0.64230001 0.619199991 0.451599985
vn 0.842100024 -0.176100001 -0.509800017
vn 0.83859998 0.108599998 0.533900023
vn 0.755599976 -0.472900003 0.453099996
vn 0.782599986 0.402999997 -0.4745
vn 0.768599987 -0.621399999 -0.151999995
vn 0.782599986 0.402999997 -0.4745
vn 0.755599976 -0.472900003 0.453099996
vn 0.891300023 0.446999997 0.0753000006
vn 0.768599987 -0.621399999 -0.151999995
vn 0.752499998 -0.618499994 -0.226400003
vn 0.752499998 -0.618499994 -0.226400003
vn 0.478599995 -0.475600004 -0.737999976
vn 0.478599995 -0.475600004 -0.737999976
vn 0.350300014 0.649399996 -0.674899995
vn 0.986999989 -0.146699995 0.0653999969
vn 0.590699971 0.793799996 -0.144999996
vn 0.986999989 -0.146699995 0.0653999969
vn 0.590699971 0.793799996 -0.144999996
vn 0.748899996 -0.528699994 0.399500012
vn 0.486400008 -0.509899974 -0.709500015
vn 0.362800002 0.621200025 -0.694599986
vn 0.971899986 -0.2271 0.0617000014
vn 0.971899986 -0.2271 0.0617000014
vn 0.362800002 0.621200025 -0.694599986
vn 0.587700009 0.790499985 -0.172099993
vn 0.587700009 0.790499985 -0.172099993
vn 0.585900009 0.800999999 -0.123199999
vn 0.83039999 -0.196099997 -0.521399975
vn 0.716499984 -0.361699998 0.596499979
vn 0.610099971 0.7421 0.27759999
vn -0.584200025 0.630800009 0.510699987
vn -0.3662 -0.464300007 0.806400001
vn 0.394800007 0.609700024 -0.687300026
vn -0.727199972 0.503799975 -0.466199994
vn -0.584200025 0.630800009 0.510699987
vn -0.989600003 0.0474999994 0.136000007
vn -0.727199972 0.503799975 -0.466199994
vn 0.394800007 0.609700024 -0.687300026
vn 0.953700006 0.209600002 -0.215800002
vn -0.585200012 0.641700029 0.495799989
vn -0.989600003 0.0474999994 0.136000007
vn 0.608900011 0.751999974 0.252499998
vn -0.739000022 0.499500006 -0.451999992
vn -0.585200012 0.641700029 0.495799989
vn 0.608900011 0.751999974 0.252499998
vn 0.386799991 0.622200012 -0.680599988
vn -0.616999984 -0.634599984 -0.46540001
vn -0.739000022 0.499500006 -0.451999992
vn 0.512799978 -0.508300006 -0.691799998
vn -0.381099999 -0.638999999 0.668200016
vn -0.616999984 -0.634599984 -0.46540001
vn 0.512799978 -0.508300006 -0.691799998
vn 0.738300025 -0.510699987 0.440499991
vn -0.954999983 -0.220400006 0.198200002
vn -0.381099999 -0.638999999 0.668200016
vn 0.738300025 -0.510699987 0.440499991
vn -0.5898 -0.749599993 -0.300300002
vn -0.954999983 -0.220400006 0.198200002
vn 0.59740001 -0.609099984 -0.521499991
vn -0.388000011 -0.603100002 0.69690001
vn -0.5898 -0.749599993 -0.300300002
vn 0.59740001 -0.609099984 -0.521499991
vn 0.729799986 -0.483799994 0.48300001
vn -0.961499989 -0.191699997 0.196600005
vn -0.388000011 -0.603100002 0.69690001
vn 0.729799986 -0.483799994 0.48300001
vn -0.60769999 -0.737900019 -0.293500006
vn -0.961499989 -0.191699997 0.196600005
vn 0.990800023 -0.0131000001 -0.134900004
vn 0.585300028 -0.619599998 -0.522899985
vn -0.3662 -0.464300007 0.806400001
vn -0.60769999 -0.737900019 -0.293500006
vn 0.585300028 -0.619599998 -0.522899985
vn -0.368800014 -0.614099979 0.697700024
vn -0.58130002 -0.799399972 0.151600003
vn 0.768599987 -0.621399999 -0.151999995
vn 0.755599976 -0.472900003 0.453099996
vn -0.752900004 0.622500002 0.213300005
vn -0.484299988 0.489100009 0.725399971
vn 0.585900009 0.800999999 -0.123199999
vn -0.766499996 0.622600019 0.157199994
vn -0.752900004 0.622500002 0.213300005
vn 0.587700009 0.790499985 -0.172099993
vn -0.760200024 0.490399987 -0.426099986
vn -0.766499996 0.622600019 0.157199994
vn 0.362800002 0.621200025 -0.694599986
vn -0.630900025 -0.633099973 -0.448399991
vn -0.760200024 0.490399987 -0.426099986
vn 0.486400008 -0.509899974 -0.709500015
vn -0.382200003 -0.666499972 0.639999986
vn -0.630900025 -0.633099973 -0.448399991
vn 0.486400008 -0.509899974 -0.709500015
vn 0.748899996 -0.528699994 0.399500012
vn -0.747300029 -0.429399997 0.507000029
vn -0.382200003 -0.666499972 0.639999986
vn 0.748899996 -0.528699994 0.399500012
vn -0.902400017 -0.423000008 -0.0817999989
vn -0.747300029 -0.429399997 0.507000029
vn 0.971899986 -0.2271 0.0617000014
vn -0.98299998 0.166600004 -0.0763000026
vn -0.902400017 -0.423000008 -0.0817999989
vn 0.767700016 0.411300004 -0.491299987
vn -0.642400026 -0.611199975 -0.462300003
vn -0.763800025 0.503600001 -0.403699994
vn 0.478599995 -0.475600004 -0.737999976
vn -0.591199994 -0.798200011 0.115800001
vn -0.642400026 -0.611199975 -0.462300003
vn -0.58130002 -0.799399972 0.151600003
vn -0.591199994 -0.798200011 0.115800001
vn 0.752499998 -0.618499994 -0.226400003
vn 0.768599987 -0.621399999 -0.151999995
vn -0.891300023 -0.443599999 -0.0932999998
vn -0.76880002 -0.395700008 0.502300024
vn 0.986999989 -0.146699995 0.0653999969
vn -0.980199993 0.173099995 -0.0960000008
vn -0.891300023 -0.443599999 -0.0932999998
vn 0.842100024 -0.176100001 -0.509800017
vn -0.8222 0.207900003 0.529900014
vn -0.980199993 0.173099995 -0.0960000008
vn 0.891300023 0.446999997 0.0753000006
vn -0.76880002 -0.395700008 0.502300024
vn -0.8222 0.207900003 0.529900014
vn 0.891300023 0.446999997 0.0753000006
vn -0.771499991 0.6074 0.189300001
vn -0.98299998 0.166600004 -0.0763000026
vn 0.590699971 0.793799996 -0.144999996
vn -0.763800025 0.503600001 -0.403699994
vn -0.771499991 0.6074 0.189300001
vn 0.590699971 0.793799996 -0.144999996
vn 0.350300014 0.649399996 -0.674899995
vn -0.529699981 -0.0722000003 0.845099986
vn -0.368800014 -0.614099979 0.697700024
vn 0.83859998 0.108599998 0.533900023
vn -0.484299988 0.489100009 0.725399971
vn -0.529699981 -0.0722000003 0.845099986
vn 0.83859998 0.108599998 0.533900023
vn -0.60769999 -0.737900019 -0.293500006
vn -0.3662 -0.464300007 0.806400001
vn -0.381099999 -0.638999999 0.668200016
vn -0.954999983 -0.220400006 0.198200002
vn -0.739000022 0.499500006 -0.451999992
vn -0.989600003 0.0474999994 0.136000007
vn -0.961499989 -0.191699997 0.196600005
vn -0.388000011 -0.603100002 0.69690001
vn -0.98299998 0.166600004 -0.0763000026
vn -0.529699981 -0.0722000003 0.845099986
vn -0.484299988 0.489100009 0.725399971
vn -0.891300023 -0.443599999 -0.0932999998
vn -0.902400017 -0.423000008 -0.0817999989
vn -0.529699981 -0.0722000003 0.845099986
vn -0.891300023 -0.443599999 -0.0932999998
vn -0.980199993 0.173099995 -0.0960000008
vn -0.58130002 -0.799399972 0.151600003
vn -0.8222 0.207900003 0.529900014
vn -0.591199994 -0.798200011 0.115800001
vn -0.642400026 -0.611199975 -0.462300003
vn -0.76880002 -0.395700008 0.502300024
vn -0.771499991 0.6074 0.189300001
vn -0.771499991 0.6074 0.189300001
vn -0.76880002 -0.395700008 0.502300024
vn -0.382200003 -0.666499972 0.639999986
vn -0.747300029 -0.429399997 0.507000029
vn -0.747300029 -0.429399997 0.507000029
vn -0.902400017 -0.423000008 -0.0817999989
f 1/1/1 2/2/2 3/3/3
f 1/1/1 3/3/3 4/4/4
f 5/5/5 6/6/6 7/7/7
f 5/5/5 7/7/7 8/8/8
f 9/9/9 10/10/10 11/11/11
f 9/9/9 11/11/11 8/8/8
f 1/1/1 4/4/4 12/12/12
f 1/1/1 12/12/12 13/13/13
f 14/14/14 15/15/15 11/11/11
f 16/16/16 17/17/17 18/18/18
f 16/16/16 18/18/18 4/4/4
f 19/19/19 20/20/20 21/21/21
f 19/19/19 21/21/21 22/22/22
f 19/19/19 23/23/23 24/24/24
f 25/25/25 26/26/26 27/27/27
f 28/28/28 29/29/29 30/30/30
f 28/28/28 30/30/30 31/31/31
f 32/32/32 33/33/33 34/34/34
f 35/35/35 31/31/31 36/36/36
f 35/35/35 36/36/36 37/37/37
f 35/35/35 38/38/38 39/39/39
f 35/35/35 40/40/40 41/41/41
f 35/35/35 41/41/41 42/42/42
f 43/43/43 42/42/42 41/41/41
f 44/44/44 45/45/45 24/24/24
f 44/44/44 24/24/24 23/23/23
f 46/46/46 47/47/47 48/48/48
f 46/46/46 48/48/48 49/49/49
f 50/50/50 51/51/51 52/52/52
f 50/50/50 53/53/53 54/54/54
f 50/50/50 54/54/54 55/55/55
f 56/56/56 57/57/57 58/58/58
f 56/56/56 58/58/58 59/59/59
f 1/1/1 60/60/60 61/61/61
f 1/1/1 61/61/61 62/62/62
f 63/63/63 64/64/64 65/65/65
f 63/63/63 65/65/65 66/66/66
f 67/67/67 68/68/68 11/11/11
f 67/67/67 11/11/11 69/69/69
f 70/70/70 71/71/71 72/72/72
f 70/70/70 72/72/72 73/73/73
f 74/74/74 75/75/75 7/7/7
f 74/74/74 7/7/7 76/76/76
f 77/77/77 78/78/78 79/79/79
f 77/77/77 79/79/79 80/80/80
f 81/81/81 82/82/82 83/83/83
f 81/81/81 83/83/83 8/8/8
f 84/84/84 85/85/85 18/18/18
f 84/84/84 18/18/18 86/86/86
f 87/87/87 88/88/88 89/89/89
f 87/87/87 89/89/89 90/90/90
f 91/91/91 92/92/92 93/93/93
f 91/91/91 93/93/93 4/4/4
f 94/94/94 95/95/95 96/96/96
f 94/94/94 96/96/96 97/97/97
f 98/98/98 99/99/99 100/100/100
f 98/98/98 100/100/100 2/2/2
f 101/101/101 102/102/102 103/103/103
f 101/101/101 103/103/103 104/104/104
f 105/105/105 106/106/106 27/27/27
f 105/105/105 27/27/27 107/107/107
f 108/108/108 109/109/109 54/54/54
f 108/108/108 54/54/54 110/110/110
f 111/111/111 112/112/112 52/52/52
f 111/111/111 52/52/52 113/113/113
f 114/114/114 115/115/115 48/48/48
f 114/114/114 48/48/48 116/116/116
f 117/117/117 118/118/118 119/119/119
f 117/117/117 119/119/119 120/120/120
f 121/121/121 122/122/122 123/123/123
f 121/121/121 123/123/123 49/49/49
f 124/124/124 125/125/125 126/126/126
f 124/124/124 126/126/126 55/55/55
f 127/127/127 128/128/128 21/21/21
f 127/127/127 21/21/21 129/129/129
f 130/130/130 131/131/131 41/41/41
f 130/130/130 41/41/41 132/132/132
f 133/133/133 134/134/134 39/39/39
f 133/133/133 39/39/39 37/37/37
f 135/135/135 136/136/136 137/137/137
f 135/135/135 137/137/137 138/138/138
f 139/139/139 140/140/140 141/141/141
f 139/139/139 141/141/141 23/23/23
f 142/142/142 143/143/143 144/144/144
f 142/142/142 144/144/144 31/31/31
f 145/145/145 146/146/146 33/33/33
f 145/145/145 33/33/33 147/147/147
f 148/148/148 149/149/149 150/150/150
f 148/148/148 150/150/150 42/42/42
f 151/151/151 152/152/152 24/24/24
f 151/151/151 24/24/24 153/153/153
f 154/154/154 155/155/155 156/156/156
f 154/154/154 156/156/156 157/157/157
f 158/158/158 159/159/159 30/30/30
f 158/158/158 30/30/30 160/160/160
f 161/161/161 162/162/162 163/163/163
f 161/161/161 163/163/163 22/22/22
f 58/58/58 95/95/95 164/164/164
f 58/58/58 164/164/164 165/165/165
f 70/70/70 78/78/78 166/166/166
f 70/70/70 166/166/166 167/167/167
f 63/63/63 71/71/71 168/168/168
f 63/63/63 168/168/168 167/167/167
f 58/58/58 64/64/64 169/169/169
f 58/58/58 169/169/169 95/95/95
f 63/63/63 85/85/85 170/170/170
f 81/81/81 88/88/88 171/171/171
f 81/81/81 171/171/171 95/95/95
f 124/124/124 172/172/172 173/173/173
f 124/124/124 173/173/173 174/174/174
f 127/127/127 175/175/175 173/173/173
f 161/161/161 109/109/109 176/176/176
f 101/101/101 177/177/177 178/178/178
f 101/101/101 178/178/178 146/146/146
f 101/101/101 179/179/179 180/180/180
f 135/135/135 146/146/146 181/181/181
f 135/135/135 181/181/181 182/182/182
f 130/130/130 136/136/136 181/181/181
f 154/154/154 183/183/183 181/181/181
f 154/154/154 181/181/181 184/184/184
f 154/154/154 184/184/184 185/185/185
f 127/127/127 186/186/186 187/187/187
f 127/127/127 187/187/187 175/175/175
f 111/111/111 118/118/118 188/188/188
f 111/111/111 188/188/188 189/189/189
f 108/108/108 115/115/115 190/190/190
f 105/105/105 112/112/112 190/190/190
f 105/105/105 190/190/190 191/191/191
