# Generated by lxe_pbrt_scene_convert
v -0.672672987 1.17495894 0.0884409994
v -0.572543025 1.21261501 0.0809189975
v -0.549050987 1.22856402 0
v -0.674558997 1.17594504 0
v -0.813224971 1.11845601 0
v -0.785068989 1.12850702 0.082739003
v -0.672672987 1.17495894 0.0884409994
v -0.785068989 1.12850702 0.082739003
v -0.778834999 1.11346698 0.0824410021
v -0.666544974 1.159881 0.0879200026
v -0.572543025 1.21261501 0.0809189975
v -0.672672987 1.17495894 0.0884409994
v -0.666544974 1.159881 0.0879200026
v -0.566522002 1.19750404 0.0801760033
v -0.785068989 1.12850702 0.082739003
v -0.806991994 1.10341597 0
v -0.778834999 1.11346698 0.0824410021
v -0.549050987 1.22856402 0
v -0.566522002 1.19750404 0.0801760033
v -0.543030024 1.21345198 0
v -0.543030024 1.21345198 0
v -0.566522002 1.19750404 0.0801760033
v -0.668430984 1.16086698 0
v -0.778834999 1.11346698 0.0824410021
v -0.806991994 1.10341597 0
v -0.668430984 1.16086698 0
v -0.672672987 1.17495894 -0.0884409994
v -0.572543025 1.21261501 -0.0809189975
v -0.785068989 1.12850702 -0.082739003
v -0.672672987 1.17495894 -0.0884409994
v -0.666544974 1.159881 -0.0879200026
v -0.778834999 1.11346698 -0.0824410021
v -0.785068989 1.12850702 -0.082739003
v -0.572543025 1.21261501 -0.0809189975
v -0.566522002 1.19750404 -0.0801760033
v -0.666544974 1.159881 -0.0879200026
v -0.672672987 1.17495894 -0.0884409994
v -0.785068989 1.12850702 -0.082739003
v -0.778834999 1.11346698 -0.0824410021
v -0.566522002 1.19750404 -0.0801760033
v -0.566522002 1.19750404 -0.0801760033
v -0.778834999 1.11346698 -0.0824410021
vt 0.465000004 1
vt 0 1
vt 0.00039999999 0.500100017
vt 0.46540001 0.500100017
vt 1.00039995 0.500100017
vt 1 1
vt 0.46540001 0.500100017
vt 1.00039995 0.500100017
vt 1 1
vt 0.465000004 1
vt 0.465000004 1
vt 0 1
vt 0.00039999999 0.500100017
vt 0.46540001 0.500100017
vt 0.46540001 0.500100017
vt 1 1
vt 0.465000004 1
vt 0.465000004 1
vt 0.00039999999 0.500100017
vt 0.46540001 0.500100017
vt 0.465000004 1
vt 0 1
vt 0.46540001 0.500100017
vt 0.46540001 0.500100017
vt 1.00039995 0.500100017
vt 1 1
vt 0.465000004 1
vt 0 1
vt 1 1
vt 0.46540001 0.500100017
vt 0.465000004 1
vt 1 1
vt 1.00039995 0.500100017
vt 0.465000004 1
vt 0.46540001 0.500100017
vt 0.00039999999 0.500100017
vt 0 1
vt 0.46540001 0.500100017
vt 0.465000004 1
vt 0.00039999999 0.500100017
vt 0 1
vt 0.46540001 0.500100017
vn -0.246299997 0.628499985 0.737699986
vn 0.243100002 0.709900022 0.661000013
vn 0.459899992 0.887899995 0
vn -0.376599997 0.926400006 0
vn -0.954599977 0.297899991 0
vn -0.663500011 0.361499995 0.654999971
vn -0.246299997 0.628499985 0.737699986
vn -0.663500011 0.361499995 0.654999971
vn -0.202700004 -0.748099983 0.631799996
vn 0.276899993 -0.657100022 0.701099992
vn 0.243100002 0.709900022 0.661000013
vn -0.246299997 0.628499985 0.737699986
vn 0.276899993 -0.657100022 0.701099992
vn 0.684400022 -0.407499999 0.604499996
vn -0.663500011 0.361499995 0.654999971
vn -0.470299989 -0.882499993 0
vn -0.202700004 -0.748099983 0.631799996
vn 0.459899992 0.887899995 0
vn 0.684400022 -0.407499999 0.604499996
vn 0.95599997 -0.293300003 0
vn 0.95599997 -0.293300003 0
vn 0.684400022 -0.407499999 0.604499996
vn 0.376599997 -0.926400006 0
vn -0.202700004 -0.748099983 0.631799996
vn -0.470299989 -0.882499993 0
vn 0.376599997 -0.926400006 0
vn -0.246299997 0.628499985 -0.737699986
vn 0.243100002 0.709900022 -0.661000013
vn -0.663500011 0.361499995 -0.654999971
vn -0.246299997 0.628499985 -0.737699986
vn 0.276899993 -0.657100022 -0.701099992
vn -0.202700004 -0.748099983 -0.631799996
vn -0.663500011 0.361499995 -0.654999971
vn 0.243100002 0.709900022 -0.661000013
vn 0.684400022 -0.407499999 -0.604499996
vn 0.276899993 -0.657100022 -0.701099992
vn -0.246299997 0.628499985 -0.737699986
vn -0.663500011 0.361499995 -0.654999971
vn -0.202700004 -0.748099983 -0.631799996
vn 0.684400022 -0.407499999 -0.604499996
vn 0.684400022 -0.407499999 -0.604499996
vn -0.202700004 -0.748099983 -0.631799996
f 1/1/1 2/2/2 3/3/3
f 1/1/1 3/3/3 4/4/4
f 4/4/4 5/5/5 6/6/6
f 4/4/4 6/6/6 1/1/1
f 7/7/7 8/8/8 9/9/9
f 7/7/7 9/9/9 10/10/10
f 11/11/11 12/12/12 13/13/13
f 11/11/11 13/13/13 14/14/14
f 15/15/15 5/5/5 16/16/16
f 15/15/15 16/16/16 17/17/17
f 18/18/18 2/2/2 19/19/19
f 18/18/18 19/19/19 20/20/20
f 21/21/21 22/22/22 13/13/13
f 21/21/21 13/13/13 23/23/23
f 24/24/24 25/25/25 26/26/26
f 24/24/24 26/26/26 10/10/10
f 27/27/27 4/4/4 3/3/3
f 27/27/27 3/3/3 28/28/28
f 4/4/4 27/27/27 29/29/29
f 4/4/4 29/29/29 5/5/5
f 30/30/30 31/31/31 32/32/32
f 30/30/30 32/32/32 33/33/33
f 34/34/34 35/35/35 36/36/36
f 34/34/34 36/36/36 37/37/37
f 38/38/38 39/39/39 16/16/16
f 38/38/38 16/16/16 5/5/5
f 18/18/18 20/20/20 40/40/40
f 18/18/18 40/40/40 28/28/28
f 21/21/21 23/23/23 36/36/36
f 21/21/21 36/36/36 41/41/41
f 42/42/42 31/31/31 26/26/26
f 42/42/42 26/26/26 25/25/25
