# Generated by lxe_pbrt_scene_convert
v -4.569345 -0.272040009 0.988178015
v -4.58797121 -0.272040009 0.988178015
v -4.52065611 -0.273180991 1.08488405
v -4.5020299 -0.273180991 1.08488405
v -4.58797121 -0.272040009 0.988178015
v -4.569345 -0.272040009 0.988178015
v -4.57504606 -0.260805994 0.984627008
v -4.59367085 -0.260805994 0.984627008
v -4.45746422 -0.0716179982 1.159217
v -4.43883801 -0.0716179982 1.159217
v -4.41747904 -0.0716179982 1.17450702
v -4.43610382 -0.0716179982 1.17450702
v -4.4618392 -0.0716179982 1.15608501
v -4.44321299 -0.0716179982 1.15608501
v -3.98702693 -0.0716179982 1.67433906
v -3.96840191 -0.0716179982 1.67433906
v -3.87550402 -0.0716179982 1.71778905
v -3.89412904 -0.0716179982 1.71778905
v -3.89412904 -0.0716179982 1.71778905
v -3.87550402 -0.0716179982 1.71778905
v -3.85579801 -0.0716179982 1.72700596
v -3.87442303 -0.0716179982 1.72700596
v -4.32970905 -0.334585011 1.47253096
v -4.31108284 -0.334585011 1.47253096
v -4.37467098 -0.307137012 1.340487
v -4.39329576 -0.307137012 1.340487
v -4.01936102 -0.185157999 1.68137205
v -4.00073624 -0.185157999 1.68137205
v -4.12774992 -0.272395998 1.63096094
v -4.14637518 -0.272395998 1.63096094
v -4.46794605 -0.276062995 1.16514695
v -4.44932079 -0.276062995 1.16514695
v -4.5020299 -0.273180991 1.08488405
v -4.52065611 -0.273180991 1.08488405
v -4.39329576 -0.307137012 1.340487
v -4.37467098 -0.307137012 1.340487
v -4.4108119 -0.290625989 1.25224698
v -4.42943811 -0.290625989 1.25224698
v -4.42943811 -0.290625989 1.25224698
v -4.4108119 -0.290625989 1.25224698
v -4.44932079 -0.276062995 1.16514695
v -4.46794605 -0.276062995 1.16514695
v -4.14637518 -0.272395998 1.63096094
v -4.12774992 -0.272395998 1.63096094
v -4.21990395 -0.335377991 1.57098997
v -4.23853016 -0.335377991 1.57098997
v -4.23853016 -0.335377991 1.57098997
v -4.21990395 -0.335377991 1.57098997
v -4.31108284 -0.334585011 1.47253096
v -4.32970905 -0.334585011 1.47253096
v -4.14647198 -0.0716179982 1.57731295
v -4.12784719 -0.0716179982 1.57731295
v -3.96840191 -0.0716179982 1.67433906
v -3.98702693 -0.0716179982 1.67433906
v -4.2710371 -0.0716179982 1.45674706
v -4.25241184 -0.0716179982 1.45674706
v -4.12784719 -0.0716179982 1.57731295
v -4.14647198 -0.0716179982 1.57731295
v -4.3254962 -0.0716179982 1.37618995
v -4.30686998 -0.0716179982 1.37618995
v -4.25241184 -0.0716179982 1.45674706
v -4.2710371 -0.0716179982 1.45674706
v -4.37186623 -0.0716179982 1.29289401
v -4.35324001 -0.0716179982 1.29289401
v -4.30686998 -0.0716179982 1.37618995
v -4.3254962 -0.0716179982 1.37618995
v -4.40789223 -0.0716179982 1.22842395
v -4.38926697 -0.0716179982 1.22842395
v -4.35324001 -0.0716179982 1.29289401
v -4.37186623 -0.0716179982 1.29289401
v -4.38926697 -0.0716179982 1.22842395
v -4.40789223 -0.0716179982 1.22842395
v -3.87442303 -0.0716179982 1.72700596
v -3.85579801 -0.0716179982 1.72700596
v -4.00073624 -0.185157999 1.68137205
v -4.01936102 -0.185157999 1.68137205
v -4.59367085 -0.260805994 0.984627008
v -4.57504606 -0.260805994 0.984627008
v -4.53607321 -0.192899004 1.04970503
v -4.55469799 -0.192899004 1.04970503
v -4.4947629 -0.137318 1.10208404
v -4.51338816 -0.137318 1.10208404
v -4.55469799 -0.192899004 1.04970503
v -4.53607321 -0.192899004 1.04970503
v -4.44321299 -0.0716179982 1.15608501
v -4.4618392 -0.0716179982 1.15608501
v -4.51338816 -0.137318 1.10208404
v -4.4947629 -0.137318 1.10208404
v -3.82639503 -0.0716179982 1.17450702
v -3.82639503 -0.138594002 1.11212897
v -3.82639503 -0.136755005 1.18194795
v -3.82639503 -0.0716179982 1.22842395
v -3.82639503 -0.0716179982 1.22842395
v -3.82639503 -0.136755005 1.18194795
v -3.82639503 -0.137391999 1.24962401
v -3.82639503 -0.0716179982 1.29289401
v -3.82639503 -0.0716179982 1.29289401
v -3.82639503 -0.137391999 1.24962401
v -3.82639503 -0.140398994 1.33468199
v -3.82639503 -0.0716179982 1.37618995
v -3.82639503 -0.0716179982 1.37618995
v -3.82639503 -0.140398994 1.33468199
v -3.82639503 -0.144985005 1.41928303
v -3.82639503 -0.0716179982 1.45674706
v -3.82639503 -0.0716179982 1.45674706
v -3.82639503 -0.144985005 1.41928303
v -3.82639503 -0.153124005 1.54085398
v -3.82639503 -0.0716179982 1.57731295
v -3.82639503 -0.153124005 1.54085398
v -3.82639503 -0.167622998 1.63548994
v -3.82639503 -0.0716179982 1.67433906
v -3.82639503 -0.229188994 1.51340306
v -3.82639503 -0.252050996 1.59769106
v -3.82639503 -0.167622998 1.63548994
v -3.82639503 -0.144985005 1.41928303
v -3.82639503 -0.21424 1.38668299
v -3.82639503 -0.229188994 1.51340306
v -3.82639503 -0.153124005 1.54085398
v -3.82639503 -0.140398994 1.33468199
v -3.82639503 -0.205208004 1.29768896
v -3.82639503 -0.21424 1.38668299
v -3.82639503 -0.144985005 1.41928303
v -3.82639503 -0.137391999 1.24962401
v -3.82639503 -0.199505001 1.21065295
v -3.82639503 -0.205208004 1.29768896
v -3.82639503 -0.140398994 1.33468199
v -3.82639503 -0.136755005 1.18194795
v -3.82639503 -0.195491999 1.13686895
v -3.82639503 -0.199505001 1.21065295
v -3.82639503 -0.137391999 1.24962401
v -3.82639503 -0.138594002 1.11212897
v -3.82639503 -0.195346996 1.05980504
v -3.82639503 -0.195491999 1.13686895
v -3.82639503 -0.136755005 1.18194795
v -3.82639503 -0.252050996 1.59769106
v -3.82639503 -0.29163301 1.48736
v -3.82639503 -0.303140014 1.55827296
v -3.82639503 -0.21424 1.38668299
v -3.82639503 -0.266312987 1.36217701
v -3.82639503 -0.229188994 1.51340306
v -3.82639503 -0.205208004 1.29768896
v -3.82639503 -0.250598997 1.27295697
v -3.82639503 -0.266312987 1.36217701
v -3.82639503 -0.21424 1.38668299
v -3.82639503 -0.199505001 1.21065295
v -3.82639503 -0.239769995 1.18576097
v -3.82639503 -0.250598997 1.27295697
v -3.82639503 -0.205208004 1.29768896
v -3.82639503 -0.195491999 1.13686895
v -3.82639503 -0.236222997 1.10883296
v -3.82639503 -0.239769995 1.18576097
v -3.82639503 -0.199505001 1.21065295
v -3.82639503 -0.195346996 1.05980504
v -3.82639503 -0.238040999 1.021384
v -3.82639503 -0.236222997 1.10883296
v -3.82639503 -0.195491999 1.13686895
v -3.82639503 -0.185157999 1.68137205
v -3.82639503 -0.0716179982 1.72700596
v -3.82639503 -0.0716179982 1.71778905
v -3.82639503 -0.182089001 1.67334294
v -3.82639503 -0.182089001 1.67334294
v -3.82639503 -0.0716179982 1.71778905
v -3.82639503 -0.0716179982 1.67433906
v -3.82639503 -0.167622998 1.63548994
v -3.82639503 -0.272395998 1.63096094
v -3.82639503 -0.185157999 1.68137205
v -3.82639503 -0.182089001 1.67334294
v -3.82639503 -0.268835992 1.625139
v -3.82639503 -0.268835992 1.625139
v -3.82639503 -0.182089001 1.67334294
v -3.82639503 -0.167622998 1.63548994
v -3.82639503 -0.252050996 1.59769106
v -3.82639503 -0.334585011 1.47253096
v -3.82639503 -0.335377991 1.57098997
v -3.82639503 -0.329735994 1.56876397
v -3.82639503 -0.327069014 1.47512603
v -3.82639503 -0.327069014 1.47512603
v -3.82639503 -0.329735994 1.56876397
v -3.82639503 -0.29163301 1.48736
v -3.82639503 -0.335377991 1.57098997
v -3.82639503 -0.272395998 1.63096094
v -3.82639503 -0.268835992 1.625139
v -3.82639503 -0.329735994 1.56876397
v -3.82639503 -0.329735994 1.56876397
v -3.82639503 -0.268835992 1.625139
v -3.82639503 -0.303140014 1.55827296
v -3.82639503 -0.307137012 1.340487
v -3.82639503 -0.334585011 1.47253096
v -3.82639503 -0.327069014 1.47512603
v -3.82639503 -0.299993008 1.34428298
v -3.82639503 -0.299993008 1.34428298
v -3.82639503 -0.327069014 1.47512603
v -3.82639503 -0.29163301 1.48736
v -3.82639503 -0.266312987 1.36217701
v -3.82639503 -0.290625989 1.25224698
v -3.82639503 -0.307137012 1.340487
v -3.82639503 -0.299993008 1.34428298
v -3.82639503 -0.283621997 1.25587106
v -3.82639503 -0.283621997 1.25587106
v -3.82639503 -0.299993008 1.34428298
v -3.82639503 -0.266312987 1.36217701
v -3.82639503 -0.250598997 1.27295697
v -3.82639503 -0.276062995 1.16514695
v -3.82639503 -0.290625989 1.25224698
v -3.82639503 -0.283621997 1.25587106
v -3.82639503 -0.269712001 1.16875505
v -3.82639503 -0.269712001 1.16875505
v -3.82639503 -0.283621997 1.25587106
v -3.82639503 -0.250598997 1.27295697
v -3.82639503 -0.239769995 1.18576097
v -3.82639503 -0.273180991 1.08488405
v -3.82639503 -0.276062995 1.16514695
v -3.82639503 -0.269712001 1.16875505
v -3.82639503 -0.266714007 1.08907497
v -3.82639503 -0.266714007 1.08907497
v -3.82639503 -0.269712001 1.16875505
v -3.82639503 -0.239769995 1.18576097
v -3.82639503 -0.236222997 1.10883296
v -3.82639503 -0.272040009 0.988178015
v -3.82639503 -0.273180991 1.08488405
v -3.82639503 -0.266714007 1.08907497
v -3.82639503 -0.266090006 0.993988991
v -3.82639503 -0.266090006 0.993988991
v -3.82639503 -0.266714007 1.08907497
v -3.82639503 -0.236222997 1.10883296
v -3.82639503 -0.238040999 1.021384
v -3.82639503 -0.238040999 1.021384
v -3.82639503 -0.256936014 0.990875006
v -3.82639503 -0.272040009 0.988178015
v -3.82639503 -0.260805994 0.984627008
v -3.82639503 -0.195346996 1.05980504
v -3.82639503 -0.193314999 1.051422
v -3.82639503 -0.256936014 0.990875006
v -3.82639503 -0.193314999 1.051422
v -3.82639503 -0.192899004 1.04970503
v -3.82639503 -0.260805994 0.984627008
v -3.82639503 -0.137535006 1.10379195
v -3.82639503 -0.137318 1.10208404
v -3.82639503 -0.192899004 1.04970503
v -3.82639503 -0.137535006 1.10379195
v -3.82639503 -0.193314999 1.051422
v -3.82639503 -0.138594002 1.11212897
v -3.82639503 -0.137535006 1.10379195
v -3.82639503 -0.0716179982 1.159217
v -3.82639503 -0.0716179982 1.15608501
v -3.82639503 -0.137318 1.10208404
v -3.82639503 -0.0716179982 1.159217
v -3.82639503 -0.137535006 1.10379195
v -3.82639503 -0.138594002 1.11212897
v -3.82639503 -0.0716179982 1.17450702
v -4.44321299 -0.0716179982 1.15608501
v -4.43883801 -0.0716179982 1.159217
v -4.31108284 -0.334585011 1.47253096
v -3.82639503 -0.334585011 1.47253096
v -3.82639503 -0.307137012 1.340487
v -4.37467098 -0.307137012 1.340487
v -4.00073624 -0.185157999 1.68137205
v -3.82639503 -0.185157999 1.68137205
v -3.82639503 -0.272395998 1.63096094
v -4.12774992 -0.272395998 1.63096094
v -3.82639503 -0.272040009 0.988178015
v -4.569345 -0.272040009 0.988178015
v -4.5020299 -0.273180991 1.08488405
v -3.82639503 -0.273180991 1.08488405
v -4.12774992 -0.272395998 1.63096094
v -3.82639503 -0.272395998 1.63096094
v -3.82639503 -0.335377991 1.57098997
v -4.21990395 -0.335377991 1.57098997
v -4.21990395 -0.335377991 1.57098997
v -3.82639503 -0.335377991 1.57098997
v -3.82639503 -0.334585011 1.47253096
v -4.31108284 -0.334585011 1.47253096
v -4.25241184 -0.0716179982 1.45674706
v -3.82639503 -0.0716179982 1.45674706
v -4.12784719 -0.0716179982 1.57731295
v -4.38926697 -0.0716179982 1.22842395
v -3.82639503 -0.0716179982 1.22842395
v -4.35324001 -0.0716179982 1.29289401
v -4.569345 -0.272040009 0.988178015
v -3.82639503 -0.260805994 0.984627008
v -4.57504606 -0.260805994 0.984627008
v -4.53607321 -0.192899004 1.04970503
v -3.82639503 -0.192899004 1.04970503
v -3.82639503 -0.137318 1.10208404
v -4.4947629 -0.137318 1.10208404
v -4.4947629 -0.137318 1.10208404
v -3.82639503 -0.137318 1.10208404
v -3.82639503 -0.0716179982 1.15608501
v -4.44321299 -0.0716179982 1.15608501
v -4.57504606 -0.260805994 0.984627008
v -3.82639503 -0.260805994 0.984627008
v -3.82639503 -0.192899004 1.04970503
v -4.53607321 -0.192899004 1.04970503
v -4.35324001 -0.0716179982 1.29289401
v -3.82639503 -0.0716179982 1.29289401
v -4.30686998 -0.0716179982 1.37618995
v -4.30686998 -0.0716179982 1.37618995
v -3.82639503 -0.0716179982 1.37618995
v -4.25241184 -0.0716179982 1.45674706
v -4.43883801 -0.0716179982 1.159217
v -3.82639503 -0.0716179982 1.159217
v -4.41747904 -0.0716179982 1.17450702
v -3.96840191 -0.0716179982 1.67433906
v -3.87550402 -0.0716179982 1.71778905
v -3.82639503 -0.0716179982 1.72700596
v -3.85579801 -0.0716179982 1.72700596
v -4.44932079 -0.276062995 1.16514695
v -3.82639503 -0.276062995 1.16514695
v -3.82639503 -0.273180991 1.08488405
v -4.5020299 -0.273180991 1.08488405
v -4.37467098 -0.307137012 1.340487
v -3.82639503 -0.307137012 1.340487
v -3.82639503 -0.290625989 1.25224698
v -4.4108119 -0.290625989 1.25224698
v -4.4108119 -0.290625989 1.25224698
v -3.82639503 -0.290625989 1.25224698
v -3.82639503 -0.276062995 1.16514695
v -4.44932079 -0.276062995 1.16514695
v -4.12784719 -0.0716179982 1.57731295
v -3.82639503 -0.0716179982 1.57731295
v -4.38926697 -0.0716179982 1.22842395
v -4.41747904 -0.0716179982 1.17450702
v -3.82639503 -0.0716179982 1.17450702
v -3.85579801 -0.0716179982 1.72700596
v -3.82639503 -0.0716179982 1.72700596
v -3.82639503 -0.185157999 1.68137205
v -4.00073624 -0.185157999 1.68137205
v -4.569345 -0.272040009 -0.988178015
v -4.5020299 -0.273180991 -1.08488405
v -4.52065611 -0.273180991 -1.08488405
v -4.58797121 -0.272040009 -0.988178015
v -4.58797121 -0.272040009 -0.988178015
v -4.59367085 -0.260805994 -0.984627008
v -4.57504606 -0.260805994 -0.984627008
v -4.569345 -0.272040009 -0.988178015
v -4.45746422 -0.0716179982 -1.159217
v -4.43610382 -0.0716179982 -1.17450702
v -4.41747904 -0.0716179982 -1.17450702
v -4.43883801 -0.0716179982 -1.159217
v -4.4618392 -0.0716179982 -1.15608501
v -4.44321299 -0.0716179982 -1.15608501
v -3.98702693 -0.0716179982 -1.67433906
v -3.89412904 -0.0716179982 -1.71778905
v -3.87550402 -0.0716179982 -1.71778905
v -3.96840191 -0.0716179982 -1.67433906
v -3.89412904 -0.0716179982 -1.71778905
v -3.87442303 -0.0716179982 -1.72700596
v -3.85579801 -0.0716179982 -1.72700596
v -3.87550402 -0.0716179982 -1.71778905
v -4.32970905 -0.334585011 -1.47253096
v -4.39329576 -0.307137012 -1.340487
v -4.37467098 -0.307137012 -1.340487
v -4.31108284 -0.334585011 -1.47253096
v -4.01936102 -0.185157999 -1.68137205
v -4.14637518 -0.272395998 -1.63096094
v -4.12774992 -0.272395998 -1.63096094
v -4.00073624 -0.185157999 -1.68137205
v -4.46794605 -0.276062995 -1.16514695
v -4.52065611 -0.273180991 -1.08488405
v -4.5020299 -0.273180991 -1.08488405
v -4.44932079 -0.276062995 -1.16514695
v -4.39329576 -0.307137012 -1.340487
v -4.42943811 -0.290625989 -1.25224698
v -4.4108119 -0.290625989 -1.25224698
v -4.37467098 -0.307137012 -1.340487
v -4.42943811 -0.290625989 -1.25224698
v -4.46794605 -0.276062995 -1.16514695
v -4.44932079 -0.276062995 -1.16514695
v -4.4108119 -0.290625989 -1.25224698
v -4.14637518 -0.272395998 -1.63096094
v -4.23853016 -0.335377991 -1.57098997
v -4.21990395 -0.335377991 -1.57098997
v -4.12774992 -0.272395998 -1.63096094
v -4.23853016 -0.335377991 -1.57098997
v -4.32970905 -0.334585011 -1.47253096
v -4.31108284 -0.334585011 -1.47253096
v -4.21990395 -0.335377991 -1.57098997
v -4.14647198 -0.0716179982 -1.57731295
v -3.98702693 -0.0716179982 -1.67433906
v -3.96840191 -0.0716179982 -1.67433906
v -4.12784719 -0.0716179982 -1.57731295
v -4.2710371 -0.0716179982 -1.45674706
v -4.14647198 -0.0716179982 -1.57731295
v -4.12784719 -0.0716179982 -1.57731295
v -4.25241184 -0.0716179982 -1.45674706
v -4.3254962 -0.0716179982 -1.37618995
v -4.2710371 -0.0716179982 -1.45674706
v -4.25241184 -0.0716179982 -1.45674706
v -4.30686998 -0.0716179982 -1.37618995
v -4.37186623 -0.0716179982 -1.29289401
v -4.3254962 -0.0716179982 -1.37618995
v -4.30686998 -0.0716179982 -1.37618995
v -4.35324001 -0.0716179982 -1.29289401
v -4.40789223 -0.0716179982 -1.22842395
v -4.37186623 -0.0716179982 -1.29289401
v -4.35324001 -0.0716179982 -1.29289401
v -4.38926697 -0.0716179982 -1.22842395
v -4.38926697 -0.0716179982 -1.22842395
v -4.40789223 -0.0716179982 -1.22842395
v -3.87442303 -0.0716179982 -1.72700596
v -4.01936102 -0.185157999 -1.68137205
v -4.00073624 -0.185157999 -1.68137205
v -3.85579801 -0.0716179982 -1.72700596
v -4.59367085 -0.260805994 -0.984627008
v -4.55469799 -0.192899004 -1.04970503
v -4.53607321 -0.192899004 -1.04970503
v -4.57504606 -0.260805994 -0.984627008
v -4.4947629 -0.137318 -1.10208404
v -4.53607321 -0.192899004 -1.04970503
v -4.55469799 -0.192899004 -1.04970503
v -4.51338816 -0.137318 -1.10208404
v -4.44321299 -0.0716179982 -1.15608501
v -4.4947629 -0.137318 -1.10208404
v -4.51338816 -0.137318 -1.10208404
v -4.4618392 -0.0716179982 -1.15608501
v -3.82639503 -0.0716179982 -1.17450702
v -3.82639503 -0.0716179982 -1.22842395
v -3.82639503 -0.136755005 -1.18194795
v -3.82639503 -0.138594002 -1.11212897
v -3.82639503 -0.0716179982 -1.22842395
v -3.82639503 -0.0716179982 -1.29289401
v -3.82639503 -0.137391999 -1.24962401
v -3.82639503 -0.136755005 -1.18194795
v -3.82639503 -0.0716179982 -1.29289401
v -3.82639503 -0.0716179982 -1.37618995
v -3.82639503 -0.140398994 -1.33468199
v -3.82639503 -0.137391999 -1.24962401
v -3.82639503 -0.0716179982 -1.37618995
v -3.82639503 -0.0716179982 -1.45674706
v -3.82639503 -0.144985005 -1.41928303
v -3.82639503 -0.140398994 -1.33468199
v -3.82639503 -0.0716179982 -1.45674706
v -3.82639503 -0.0716179982 -1.57731295
v -3.82639503 -0.153124005 -1.54085398
v -3.82639503 -0.144985005 -1.41928303
v -3.82639503 -0.153124005 -1.54085398
v -3.82639503 -0.0716179982 -1.67433906
v -3.82639503 -0.167622998 -1.63548994
v -3.82639503 -0.167622998 -1.63548994
v -3.82639503 -0.252050996 -1.59769106
v -3.82639503 -0.229188994 -1.51340306
v -3.82639503 -0.144985005 -1.41928303
v -3.82639503 -0.153124005 -1.54085398
v -3.82639503 -0.229188994 -1.51340306
v -3.82639503 -0.21424 -1.38668299
v -3.82639503 -0.140398994 -1.33468199
v -3.82639503 -0.144985005 -1.41928303
v -3.82639503 -0.21424 -1.38668299
v -3.82639503 -0.205208004 -1.29768896
v -3.82639503 -0.137391999 -1.24962401
v -3.82639503 -0.140398994 -1.33468199
v -3.82639503 -0.205208004 -1.29768896
v -3.82639503 -0.199505001 -1.21065295
v -3.82639503 -0.136755005 -1.18194795
v -3.82639503 -0.137391999 -1.24962401
v -3.82639503 -0.199505001 -1.21065295
v -3.82639503 -0.195491999 -1.13686895
v -3.82639503 -0.138594002 -1.11212897
v -3.82639503 -0.136755005 -1.18194795
v -3.82639503 -0.195491999 -1.13686895
v -3.82639503 -0.195346996 -1.05980504
v -3.82639503 -0.252050996 -1.59769106
v -3.82639503 -0.303140014 -1.55827296
v -3.82639503 -0.29163301 -1.48736
v -3.82639503 -0.21424 -1.38668299
v -3.82639503 -0.229188994 -1.51340306
v -3.82639503 -0.266312987 -1.36217701
v -3.82639503 -0.205208004 -1.29768896
v -3.82639503 -0.21424 -1.38668299
v -3.82639503 -0.266312987 -1.36217701
v -3.82639503 -0.250598997 -1.27295697
v -3.82639503 -0.199505001 -1.21065295
v -3.82639503 -0.205208004 -1.29768896
v -3.82639503 -0.250598997 -1.27295697
v -3.82639503 -0.239769995 -1.18576097
v -3.82639503 -0.195491999 -1.13686895
v -3.82639503 -0.199505001 -1.21065295
v -3.82639503 -0.239769995 -1.18576097
v -3.82639503 -0.236222997 -1.10883296
v -3.82639503 -0.195346996 -1.05980504
v -3.82639503 -0.195491999 -1.13686895
v -3.82639503 -0.236222997 -1.10883296
v -3.82639503 -0.238040999 -1.021384
v -3.82639503 -0.185157999 -1.68137205
v -3.82639503 -0.182089001 -1.67334294
v -3.82639503 -0.0716179982 -1.71778905
v -3.82639503 -0.0716179982 -1.72700596
v -3.82639503 -0.182089001 -1.67334294
v -3.82639503 -0.167622998 -1.63548994
v -3.82639503 -0.0716179982 -1.67433906
v -3.82639503 -0.0716179982 -1.71778905
v -3.82639503 -0.272395998 -1.63096094
v -3.82639503 -0.268835992 -1.625139
v -3.82639503 -0.182089001 -1.67334294
v -3.82639503 -0.185157999 -1.68137205
v -3.82639503 -0.268835992 -1.625139
v -3.82639503 -0.252050996 -1.59769106
v -3.82639503 -0.167622998 -1.63548994
v -3.82639503 -0.182089001 -1.67334294
v -3.82639503 -0.334585011 -1.47253096
v -3.82639503 -0.327069014 -1.47512603
v -3.82639503 -0.329735994 -1.56876397
v -3.82639503 -0.335377991 -1.57098997
v -3.82639503 -0.327069014 -1.47512603
v -3.82639503 -0.29163301 -1.48736
v -3.82639503 -0.329735994 -1.56876397
v -3.82639503 -0.335377991 -1.57098997
v -3.82639503 -0.329735994 -1.56876397
v -3.82639503 -0.268835992 -1.625139
v -3.82639503 -0.272395998 -1.63096094
v -3.82639503 -0.329735994 -1.56876397
v -3.82639503 -0.303140014 -1.55827296
v -3.82639503 -0.268835992 -1.625139
v -3.82639503 -0.307137012 -1.340487
v -3.82639503 -0.299993008 -1.34428298
v -3.82639503 -0.327069014 -1.47512603
v -3.82639503 -0.334585011 -1.47253096
v -3.82639503 -0.299993008 -1.34428298
v -3.82639503 -0.266312987 -1.36217701
v -3.82639503 -0.29163301 -1.48736
v -3.82639503 -0.327069014 -1.47512603
v -3.82639503 -0.290625989 -1.25224698
v -3.82639503 -0.283621997 -1.25587106
v -3.82639503 -0.299993008 -1.34428298
v -3.82639503 -0.307137012 -1.340487
v -3.82639503 -0.283621997 -1.25587106
v -3.82639503 -0.250598997 -1.27295697
v -3.82639503 -0.266312987 -1.36217701
v -3.82639503 -0.299993008 -1.34428298
v -3.82639503 -0.276062995 -1.16514695
v -3.82639503 -0.269712001 -1.16875505
v -3.82639503 -0.283621997 -1.25587106
v -3.82639503 -0.290625989 -1.25224698
v -3.82639503 -0.269712001 -1.16875505
v -3.82639503 -0.239769995 -1.18576097
v -3.82639503 -0.250598997 -1.27295697
v -3.82639503 -0.283621997 -1.25587106
v -3.82639503 -0.273180991 -1.08488405
v -3.82639503 -0.266714007 -1.08907497
v -3.82639503 -0.269712001 -1.16875505
v -3.82639503 -0.276062995 -1.16514695
v -3.82639503 -0.266714007 -1.08907497
v -3.82639503 -0.236222997 -1.10883296
v -3.82639503 -0.239769995 -1.18576097
v -3.82639503 -0.269712001 -1.16875505
v -3.82639503 -0.272040009 -0.988178015
v -3.82639503 -0.266090006 -0.993988991
v -3.82639503 -0.266714007 -1.08907497
v -3.82639503 -0.273180991 -1.08488405
v -3.82639503 -0.266090006 -0.993988991
v -3.82639503 -0.238040999 -1.021384
v -3.82639503 -0.236222997 -1.10883296
v -3.82639503 -0.266714007 -1.08907497
v -3.82639503 -0.238040999 -1.021384
v -3.82639503 -0.272040009 -0.988178015
v -3.82639503 -0.256936014 -0.990875006
v -3.82639503 -0.260805994 -0.984627008
v -3.82639503 -0.256936014 -0.990875006
v -3.82639503 -0.193314999 -1.051422
v -3.82639503 -0.195346996 -1.05980504
v -3.82639503 -0.260805994 -0.984627008
v -3.82639503 -0.192899004 -1.04970503
v -3.82639503 -0.193314999 -1.051422
v -3.82639503 -0.192899004 -1.04970503
v -3.82639503 -0.137318 -1.10208404
v -3.82639503 -0.137535006 -1.10379195
v -3.82639503 -0.137535006 -1.10379195
v -3.82639503 -0.138594002 -1.11212897
v -3.82639503 -0.193314999 -1.051422
v -3.82639503 -0.137535006 -1.10379195
v -3.82639503 -0.137318 -1.10208404
v -3.82639503 -0.0716179982 -1.15608501
v -3.82639503 -0.0716179982 -1.159217
v -3.82639503 -0.0716179982 -1.159217
v -3.82639503 -0.0716179982 -1.17450702
v -3.82639503 -0.138594002 -1.11212897
v -3.82639503 -0.137535006 -1.10379195
v -4.44321299 -0.0716179982 -1.15608501
v -4.43883801 -0.0716179982 -1.159217
v -4.31108284 -0.334585011 -1.47253096
v -4.37467098 -0.307137012 -1.340487
v -3.82639503 -0.307137012 -1.340487
v -3.82639503 -0.334585011 -1.47253096
v -4.00073624 -0.185157999 -1.68137205
v -4.12774992 -0.272395998 -1.63096094
v -3.82639503 -0.272395998 -1.63096094
v -3.82639503 -0.185157999 -1.68137205
v -3.82639503 -0.272040009 -0.988178015
v -3.82639503 -0.273180991 -1.08488405
v -4.5020299 -0.273180991 -1.08488405
v -4.569345 -0.272040009 -0.988178015
v -4.12774992 -0.272395998 -1.63096094
v -4.21990395 -0.335377991 -1.57098997
v -3.82639503 -0.335377991 -1.57098997
v -3.82639503 -0.272395998 -1.63096094
v -4.21990395 -0.335377991 -1.57098997
v -4.31108284 -0.334585011 -1.47253096
v -3.82639503 -0.334585011 -1.47253096
v -3.82639503 -0.335377991 -1.57098997
v -4.25241184 -0.0716179982 -1.45674706
v -4.12784719 -0.0716179982 -1.57731295
v -3.82639503 -0.0716179982 -1.45674706
v -4.38926697 -0.0716179982 -1.22842395
v -4.35324001 -0.0716179982 -1.29289401
v -3.82639503 -0.0716179982 -1.22842395
v -4.569345 -0.272040009 -0.988178015
v -4.57504606 -0.260805994 -0.984627008
v -3.82639503 -0.260805994 -0.984627008
v -4.53607321 -0.192899004 -1.04970503
v -4.4947629 -0.137318 -1.10208404
v -3.82639503 -0.137318 -1.10208404
v -3.82639503 -0.192899004 -1.04970503
v -4.4947629 -0.137318 -1.10208404
v -4.44321299 -0.0716179982 -1.15608501
v -3.82639503 -0.0716179982 -1.15608501
v -3.82639503 -0.137318 -1.10208404
v -4.57504606 -0.260805994 -0.984627008
v -4.53607321 -0.192899004 -1.04970503
v -3.82639503 -0.192899004 -1.04970503
v -3.82639503 -0.260805994 -0.984627008
v -4.35324001 -0.0716179982 -1.29289401
v -4.30686998 -0.0716179982 -1.37618995
v -3.82639503 -0.0716179982 -1.29289401
v -4.30686998 -0.0716179982 -1.37618995
v -4.25241184 -0.0716179982 -1.45674706
v -3.82639503 -0.0716179982 -1.37618995
v -4.43883801 -0.0716179982 -1.159217
v -4.41747904 -0.0716179982 -1.17450702
v -3.82639503 -0.0716179982 -1.159217
v -3.96840191 -0.0716179982 -1.67433906
v -3.87550402 -0.0716179982 -1.71778905
v -3.85579801 -0.0716179982 -1.72700596
v -3.82639503 -0.0716179982 -1.72700596
v -4.44932079 -0.276062995 -1.16514695
v -4.5020299 -0.273180991 -1.08488405
v -3.82639503 -0.273180991 -1.08488405
v -3.82639503 -0.276062995 -1.16514695
v -4.37467098 -0.307137012 -1.340487
v -4.4108119 -0.290625989 -1.25224698
v -3.82639503 -0.290625989 -1.25224698
v -3.82639503 -0.307137012 -1.340487
v -4.4108119 -0.290625989 -1.25224698
v -4.44932079 -0.276062995 -1.16514695
v -3.82639503 -0.276062995 -1.16514695
v -3.82639503 -0.290625989 -1.25224698
v -4.12784719 -0.0716179982 -1.57731295
v -3.82639503 -0.0716179982 -1.57731295
v -3.82639503 -0.0716179982 -1.17450702
v -4.41747904 -0.0716179982 -1.17450702
v -4.38926697 -0.0716179982 -1.22842395
v -3.85579801 -0.0716179982 -1.72700596
v -4.00073624 -0.185157999 -1.68137205
v -3.82639503 -0.185157999 -1.68137205
v -3.82639503 -0.0716179982 -1.72700596
vt 0.5 0
vt 0.5 1
vt 0 1
vt 0 0
vt 0.5 -0
vt 0 0
vt 1 1
vt 1 0
vt 0 0.5
vt 1 0.5
vt 1 0
vt 0 0
vt 0 1
vt 1 1
vt 0.5 1
vt 0.5 0
vt 1 0
vt 1 1
vt 0 1
vt 0 0
vt 0.5 0
vt 0.5 1
vt 0 1
vt 0 0
vt 0.5 0
vt 0.5 1
vt 0 0
vt 1 0
vt 1 0.5
vt -0 0.5
vt 0 1
vt 0 0
vt 0.5 -0
vt 0.5 1
vt 0 1
vt 0 0
vt 0.5 -0
vt 0.5 1
vt 0 1
vt 0 0
vt 0.5 -0
vt 0.5 1
vt 0 0
vt 1 0
vt 1 0.5
vt 0 0.5
vt 0 1
vt 0 0
vt 0.5 -0
vt 0.5 1
vt 0 0
vt 1 0
vt 1 1
vt 0 1
vt 0 0
vt 1 0
vt 1 1
vt 0 1
vt 0 0
vt 1 0
vt 1 1
vt 0 1
vt 0 0
vt 1 0
vt 1 1
vt 0 1
vt 0 0
vt 1 0
vt 1 1
vt 0 1
vt 1 1
vt 0 1
vt 0 1
vt 0 0
vt 0.5 0
vt 0.5 1
vt 0.5 0
vt 0.5 1
vt 1 1
vt 1 0
vt 1 0
vt 1 1
vt 0.5 1
vt 0.5 0
vt 1 0.5
vt 0 0.5
vt 0 1
vt 1 1
vt 0 0
vt 0 1
vt 1 1
vt 1 0
vt 0 0
vt 0 1
vt 1 1
vt 1 0
vt 0 0
vt 0 1
vt 1 1
vt 1 0
vt 0 0
vt 0 1
vt 1 1
vt 1 0
vt 0 0
vt 0 1
vt 1 1
vt 1 0
vt 0 0
vt 0 1
vt 1 1
vt 0 1
vt 1 1
vt 1 0
vt 0 0
vt 0 1
vt 1 1
vt 1 0
vt 0 0
vt 0 1
vt 1 1
vt 1 0
vt 0 0
vt 0 1
vt 1 1
vt 1 0
vt 0 0
vt 0 1
vt 1 1
vt 1 0
vt 0 0
vt 0 1
vt 1 1
vt 1 0
vt 0 0
vt 1 1
vt 1 0
vt 0 0
vt 0 1
vt 1 0
vt 0 0
vt 0 1
vt 1 1
vt 1 0
vt 0 0
vt 0 1
vt 1 1
vt 1 0
vt 0 0
vt 0 1
vt 1 1
vt 1 0
vt 0 0
vt 0 1
vt 1 1
vt 1 0
vt 0 1
vt 0.5 1
vt 0.5 0
vt 0 0
vt 0.5 1
vt 1 1
vt 1 0
vt 0.5 0
vt 0 0
vt -0 0.5
vt 1 0.5
vt 1 0
vt -0 0.5
vt 0 1
vt 1 1
vt 1 0.5
vt 0 1
vt 0.5 1
vt 0.5 -0
vt 0 0
vt 0.5 1
vt 1 1
vt 0.5 -0
vt 0 0
vt 0 0.5
vt 1 0.5
vt 1 0
vt 0 0.5
vt 0 1
vt 1 0.5
vt 0 1
vt 0.5 1
vt 0.5 0
vt 0 0
vt 0.5 1
vt 1 1
vt 1 0
vt 0.5 0
vt 0 1
vt 0.5 1
vt 0.5 -0
vt 0 0
vt 0.5 1
vt 1 1
vt 1 0
vt 0.5 -0
vt 0 1
vt 0.5 1
vt 0.5 -0
vt 0 0
vt 0.5 1
vt 1 1
vt 1 0
vt 0.5 -0
vt 0 1
vt 0.5 1
vt 0.5 -0
vt 0 0
vt 0.5 1
vt 1 1
vt 1 0
vt 0.5 -0
vt 0 1
vt 0.5 1
vt 0.5 0
vt 0 0
vt 0.5 1
vt 1 1
vt 1 0
vt 0.5 0
vt 0 0
vt 0.5 -0
vt 1 1
vt 1 0
vt 0.5 0
vt 0.5 1
vt 0 1
vt 1 0
vt 1 1
vt 0.5 1
vt 1 1
vt 1 0
vt 0.5 0
vt 0.5 0
vt 0 0
vt 0.5 1
vt 1 0.5
vt 1 1
vt 0 1
vt 0 0.5
vt 0 0.5
vt 0 0
vt 1 0
vt 1 0.5
vt 0.5 1
vt 0.5 0.5
vt 0.5 0.5
vt 0.5 0
vt 0 0
vt 0 0.5
vt 0.5 0.5
vt 1 0.5
vt 1 0
vt 0.5 0
vt 0 0
vt 0 0.5
vt 0.5 0.5
vt 0.5 0
vt 0.5 0.5
vt 1 0.5
vt 1 0
vt 0.5 0
vt 0.5 0.5
vt 0.5 -0
vt 0 0
vt 0 0.5
vt 0.5 1
vt 1 1
vt 0.5 0
vt 0.5 1
vt 1 1
vt 0.5 0
vt 1 0.5
vt 0 0
vt 0.25 -0
vt 1 0.5
vt 1 0
vt 0.5 0
vt 0.5 0.5
vt 0.5 1
vt 0 1
vt 0 0.5
vt 0.5 0.5
vt 1 0.5
vt 1 1
vt 0.5 1
vt 0.5 0.5
vt 0.5 1
vt 1 1
vt 0.5 0
vt 0.5 1
vt 1 1
vt 0.5 0
vt 0.5 0
vt 1 0
vt 0.5 0.5
vt 1 0.5
vt 0.5 0.5
vt 0 0
vt 0 0.5
vt 0.5 0.5
vt 0.5 -0
vt 0 0
vt 0 0.5
vt 0.5 0.5
vt 0.5 -0
vt 0 0
vt 0 0.5
vt 0.5 0.5
vt 0.5 -0
vt 0 0
vt 0 0.5
vt 0.5 1
vt 1 1
vt 0.5 0
vt 0.5 1
vt 1 1
vt 0.5 0.5
vt 0.5 0
vt 0 0
vt 0 0.5
vt 0.5 0
vt 0 0
vt 0 1
vt 0.5 1
vt 0.5 -0
vt 1 0
vt 1 1
vt 0 0
vt 0 0.5
vt 0 0
vt 1 0
vt 1 0.5
vt 0 1
vt 1 1
vt 0.5 1
vt 1 1
vt 1 0
vt 0.5 0
vt 0 1
vt 0.5 1
vt 0.5 0
vt 0 0
vt 0 1
vt 0.5 1
vt 0.5 0
vt 0 0
vt 0 0
vt -0 0.5
vt 1 0.5
vt 1 0
vt 0 1
vt 0.5 1
vt 0.5 -0
vt 0 0
vt 0 1
vt 0.5 1
vt 0.5 -0
vt 0 0
vt 0 1
vt 0.5 1
vt 0.5 -0
vt 0 0
vt 0 0
vt 0 0.5
vt 1 0.5
vt 1 0
vt 0 1
vt 0.5 1
vt 0.5 -0
vt 0 0
vt 0 0
vt 0 1
vt 1 1
vt 1 0
vt 0 0
vt 0 1
vt 1 1
vt 1 0
vt 0 0
vt 0 1
vt 1 1
vt 1 0
vt 0 0
vt 0 1
vt 1 1
vt 1 0
vt 0 0
vt 0 1
vt 1 1
vt 1 0
vt 1 1
vt 0 1
vt 0 1
vt 0.5 1
vt 0.5 0
vt 0 0
vt 0.5 0
vt 1 0
vt 1 1
vt 0.5 1
vt 1 0
vt 0.5 0
vt 0.5 1
vt 1 1
vt 1 0.5
vt 1 1
vt 0 1
vt 0 0.5
vt 0 0
vt 1 0
vt 1 1
vt 0 1
vt 0 0
vt 1 0
vt 1 1
vt 0 1
vt 0 0
vt 1 0
vt 1 1
vt 0 1
vt 0 0
vt 1 0
vt 1 1
vt 0 1
vt 0 0
vt 1 0
vt 1 1
vt 0 1
vt 0 0
vt 1 1
vt 0 1
vt 1 0
vt 1 1
vt 0 1
vt 0 0
vt 1 0
vt 1 1
vt 0 1
vt 0 0
vt 1 0
vt 1 1
vt 0 1
vt 0 0
vt 1 0
vt 1 1
vt 0 1
vt 0 0
vt 1 0
vt 1 1
vt 0 1
vt 0 0
vt 1 0
vt 1 1
vt 0 1
vt 0 0
vt 1 0
vt 1 1
vt 0 0
vt 1 0
vt 0 1
vt 0 0
vt 1 0
vt 1 1
vt 0 1
vt 0 0
vt 1 0
vt 1 1
vt 0 1
vt 0 0
vt 1 0
vt 1 1
vt 0 1
vt 0 0
vt 1 0
vt 1 1
vt 0 1
vt 0 1
vt 0 0
vt 0.5 0
vt 0.5 1
vt 0.5 1
vt 0.5 0
vt 1 0
vt 1 1
vt 0 0
vt 1 0
vt 1 0.5
vt -0 0.5
vt -0 0.5
vt 1 0.5
vt 1 1
vt 0 1
vt 0 1
vt 0 0
vt 0.5 -0
vt 0.5 1
vt 0.5 1
vt 0.5 -0
vt 1 1
vt 0 0
vt 1 0
vt 1 0.5
vt 0 0.5
vt 0 0.5
vt 1 0.5
vt 0 1
vt 0 1
vt 0 0
vt 0.5 0
vt 0.5 1
vt 0.5 1
vt 0.5 0
vt 1 0
vt 1 1
vt 0 1
vt 0 0
vt 0.5 -0
vt 0.5 1
vt 0.5 1
vt 0.5 -0
vt 1 0
vt 1 1
vt 0 1
vt 0 0
vt 0.5 -0
vt 0.5 1
vt 0.5 1
vt 0.5 -0
vt 1 0
vt 1 1
vt 0 1
vt 0 0
vt 0.5 -0
vt 0.5 1
vt 0.5 1
vt 0.5 -0
vt 1 0
vt 1 1
vt 0 1
vt 0 0
vt 0.5 0
vt 0.5 1
vt 0.5 1
vt 0.5 0
vt 1 0
vt 1 1
vt 0 0
vt 1 1
vt 0.5 -0
vt 1 0
vt 0 1
vt 0.5 1
vt 0.5 0
vt 0.5 1
vt 1 1
vt 1 0
vt 0.5 0
vt 1 0
vt 1 1
vt 0.5 0
vt 0.5 1
vt 0 0
vt 1 0.5
vt 0 0.5
vt 0 1
vt 1 1
vt 0 0.5
vt 1 0.5
vt 1 0
vt 0 0
vt 0.5 1
vt 0.5 0.5
vt 0.5 0.5
vt 0 0.5
vt 0 0
vt 0.5 0
vt 0.5 0.5
vt 0.5 0
vt 1 0
vt 1 0.5
vt 0 0
vt 0.5 0
vt 0.5 0.5
vt 0 0.5
vt 0.5 0.5
vt 0.5 0
vt 1 0
vt 1 0.5
vt 0.5 0.5
vt 0 0.5
vt 0 0
vt 0.5 -0
vt 0.5 1
vt 0.5 0
vt 1 1
vt 0.5 1
vt 0.5 0
vt 1 1
vt 1 0.5
vt 0.25 -0
vt 0 0
vt 1 0.5
vt 0.5 0.5
vt 0.5 0
vt 1 0
vt 0.5 1
vt 0.5 0.5
vt 0 0.5
vt 0 1
vt 1 0.5
vt 0.5 0.5
vt 0.5 1
vt 1 1
vt 0.5 1
vt 0.5 0
vt 1 1
vt 0.5 1
vt 0.5 0
vt 1 1
vt 0.5 0
vt 0.5 0.5
vt 1 0
vt 1 0.5
vt 0.5 0.5
vt 0 0.5
vt 0 0
vt 0.5 0.5
vt 0 0.5
vt 0 0
vt 0.5 -0
vt 0.5 0.5
vt 0 0.5
vt 0 0
vt 0.5 -0
vt 0.5 0.5
vt 0 0.5
vt 0 0
vt 0.5 -0
vt 0.5 1
vt 1 1
vt 1 1
vt 0.5 1
vt 0.5 0
vt 0.5 0.5
vt 0 0.5
vt 0 0
vt 0.5 0
vn 0 0.803200006 0.595799983
vn 0 0.629800022 0.776799977
vn 0 0.999800026 0.0193000007
vn 0 0.99970001 0.0238000005
vn 0 0.629800022 0.776799977
vn 0 0.803200006 0.595799983
vn 0 -0.226999998 0.97390002
vn 0 -0.241500005 0.970399976
vn 0 -1 0
vn 0 -1 0
vn 0 -1 0
vn 0 -1 0
vn 0 -0.768700004 0.639500022
vn 0 -0.904100001 0.42719999
vn 0 -1 0
vn 0 -1 0
vn 0 -1 0
vn 0 -1 0
vn 0 -1 0
vn 0 -1 0
vn 0 -0.559899986 -0.828499973
vn 0 -0.620999992 -0.783800006
vn 0 0.989099979 0.147300005
vn 0 0.994300008 0.106299996
vn 0 0.981000006 0.193700001
vn 0 0.981599987 0.191100001
vn 0 0.47299999 -0.881099999
vn 0 0.437700003 -0.899100006
vn 0 0.599099994 -0.800599992
vn 0 0.651199996 -0.758899987
vn 0 0.996699989 0.0812000036
vn 0 0.994899988 0.100599997
vn 0 0.99970001 0.0238000005
vn 0 0.999800026 0.0193000007
vn 0 0.981599987 0.191100001
vn 0 0.981000006 0.193700001
vn 0 0.984600008 0.174400002
vn 0 0.985099971 0.172000006
vn 0 0.985099971 0.172000006
vn 0 0.984600008 0.174400002
vn 0 0.994899988 0.100599997
vn 0 0.996699989 0.0812000036
vn 0 0.651199996 -0.758899987
vn 0 0.599099994 -0.800599992
vn 0 0.920700014 -0.390199989
vn 0 0.983099997 -0.183200002
vn 0 0.983099997 -0.183200002
vn 0 0.920700014 -0.390199989
vn 0 0.994300008 0.106299996
vn 0 0.989099979 0.147300005
vn 0 -1 0
vn 0 -1 0
vn 0 -1 0
vn 0 -1 0
vn 0 -1 0
vn 0 -1 0
vn 0 -1 0
vn 0 -1 0
vn 0 -1 0
vn 0 -1 0
vn 0 -1 0
vn 0 -1 0
vn 0 -1 0
vn 0 -1 0
vn 0 -1 0
vn 0 -1 0
vn 0 -1 0
vn 0 -1 0
vn 0 -1 0
vn 0 -1 0
vn 0 -1 0
vn 0 -1 0
vn 0 -0.620999992 -0.783800006
vn 0 -0.559899986 -0.828499973
vn 0 0.437700003 -0.899100006
vn 0 0.47299999 -0.881099999
vn 0 -0.241500005 0.970399976
vn 0 -0.226999998 0.97390002
vn 0 -0.688899994 0.724799991
vn 0 -0.689700007 0.723999977
vn 0 -0.66079998 0.75059998
vn 0 -0.66930002 0.742999971
vn 0 -0.689700007 0.723999977
vn 0 -0.688899994 0.724799991
vn 0 -0.904100001 0.42719999
vn 0 -0.768700004 0.639500022
vn 0 -0.66930002 0.742999971
vn 0 -0.66079998 0.75059998
vn -0.707099974 -0.707099974 0
vn -1 0 0
vn -1 0 0
vn -0.707099974 -0.707099974 0
vn -0.707099974 -0.707099974 0
vn -1 0 0
vn -1 0 0
vn -0.707099974 -0.707099974 0
vn -0.707099974 -0.707099974 0
vn -1 0 0
vn -1 0 0
vn -0.707099974 -0.707099974 0
vn -0.707099974 -0.707099974 0
vn -1 0 0
vn -1 0 0
vn -0.707099974 -0.707099974 0
vn -0.707099974 -0.707099974 0
vn -1 0 0
vn -1 0 0
vn -0.707099974 -0.707099974 0
vn -1 0 0
vn -1 0 0
vn -0.707099974 -0.707099974 0
vn -1 0 0
vn -1 0 0
vn -1 0 0
vn -1 0 0
vn -1 0 0
vn -1 0 0
vn -1 0 0
vn -1 0 0
vn -1 0 0
vn -1 0 0
vn -1 0 0
vn -1 0 0
vn -1 0 0
vn -1 0 0
vn -1 0 0
vn -1 0 0
vn -1 0 0
vn -1 0 0
vn -1 0 0
vn -1 0 0
vn -1 0 0
vn -1 0 0
vn -1 0 0
vn -1 0 0
vn -1 0 0
vn -1 0 0
vn -1 0 0
vn -1 0 0
vn -1 0 0
vn -1 0 0
vn -1 0 0
vn -1 0 0
vn -1 0 0
vn -1 0 0
vn -1 0 0
vn -1 0 0
vn -1 0 0
vn -1 0 0
vn -1 0 0
vn -1 0 0
vn -1 0 0
vn -1 0 0
vn -1 0 0
vn -1 0 0
vn -1 0 0
vn -0.691500008 0.316199988 -0.649500012
vn -0.559899986 -0.4639 -0.686500013
vn -0.707099974 -0.707099974 0
vn -1 0 0
vn -1 0 0
vn -0.707099974 -0.707099974 0
vn -0.707099974 -0.707099974 0
vn -1 0 0
vn -0.681400001 0.438499987 -0.586000025
vn -0.691500008 0.316199988 -0.649500012
vn -1 0 0
vn -1 0 0
vn -1 0 0
vn -1 0 0
vn -1 0 0
vn -1 0 0
vn -0.685599983 0.723800004 0.0773999989
vn -0.627600014 0.716799974 -0.303799987
vn -1 0 0
vn -1 0 0
vn -1 0 0
vn -1 0 0
vn -1 0 0
vn -0.627600014 0.716799974 -0.303799987
vn -0.681400001 0.438499987 -0.586000025
vn -1 0 0
vn -1 0 0
vn -1 0 0
vn -1 0 0
vn -1 0 0
vn -0.709299982 0.691500008 0.136500001
vn -0.685599983 0.723800004 0.0773999989
vn -1 0 0
vn -1 0 0
vn -1 0 0
vn -1 0 0
vn -1 0 0
vn -1 0 0
vn -0.709299982 0.694100022 0.122900002
vn -0.709299982 0.691500008 0.136500001
vn -1 0 0
vn -1 0 0
vn -1 0 0
vn -1 0 0
vn -1 0 0
vn -1 0 0
vn -0.722000003 0.688399971 0.069600001
vn -0.709299982 0.694100022 0.122900002
vn -1 0 0
vn -1 0 0
vn -1 0 0
vn -1 0 0
vn -1 0 0
vn -1 0 0
vn -0.709800005 0.704200029 0.0167999994
vn -0.722000003 0.688399971 0.069600001
vn -1 0 0
vn -1 0 0
vn -1 0 0
vn -1 0 0
vn -1 0 0
vn -1 0 0
vn -0.595899999 0.644900024 0.478399992
vn -0.709800005 0.704200029 0.0167999994
vn -1 0 0
vn -1 0 0
vn -1 0 0
vn -1 0 0
vn -1 0 0
vn -1 0 0
vn -1 0 0
vn -1 0 0
vn -0.595899999 0.644900024 0.478399992
vn -0.608299971 -0.180199996 0.772899985
vn -1 0 0
vn -1 0 0
vn -1 0 0
vn -1 0 0
vn -0.708000004 -0.486400008 0.511900008
vn -0.608299971 -0.180199996 0.772899985
vn -1 0 0
vn -0.7148 -0.462099999 0.524900019
vn -0.708000004 -0.486400008 0.511900008
vn -1 0 0
vn -1 0 0
vn -1 0 0
vn -1 0 0
vn -0.707099974 -0.707099974 0
vn -0.622399986 -0.707700014 0.334399998
vn -0.7148 -0.462099999 0.524900019
vn -0.707099974 -0.707099974 0
vn -1 0 0
vn -1 0 0
vn -0.707099974 -0.707099974 0
vn 0 -0.904100001 0.42719999
vn 0 -1 0
vn 0 0.994300008 0.106299996
vn -0.685599983 0.723800004 0.0773999989
vn -0.709299982 0.691500008 0.136500001
vn 0 0.981000006 0.193700001
vn 0 0.437700003 -0.899100006
vn -0.691500008 0.316199988 -0.649500012
vn -0.681400001 0.438499987 -0.586000025
vn 0 0.599099994 -0.800599992
vn -0.595899999 0.644900024 0.478399992
vn 0 0.803200006 0.595799983
vn 0 0.99970001 0.0238000005
vn -0.709800005 0.704200029 0.0167999994
vn 0 0.599099994 -0.800599992
vn -0.681400001 0.438499987 -0.586000025
vn -0.627600014 0.716799974 -0.303799987
vn 0 0.920700014 -0.390199989
vn 0 0.920700014 -0.390199989
vn -0.627600014 0.716799974 -0.303799987
vn -0.685599983 0.723800004 0.0773999989
vn 0 0.994300008 0.106299996
vn 0 -1 0
vn -0.707099974 -0.707099974 0
vn 0 -1 0
vn 0 -1 0
vn -0.707099974 -0.707099974 0
vn 0 -1 0
vn 0 0.803200006 0.595799983
vn -0.608299971 -0.180199996 0.772899985
vn 0 -0.226999998 0.97390002
vn 0 -0.688899994 0.724799991
vn -0.708000004 -0.486400008 0.511900008
vn -0.7148 -0.462099999 0.524900019
vn 0 -0.66079998 0.75059998
vn 0 -0.66079998 0.75059998
vn -0.7148 -0.462099999 0.524900019
vn -0.622399986 -0.707700014 0.334399998
vn 0 -0.904100001 0.42719999
vn 0 -0.226999998 0.97390002
vn -0.608299971 -0.180199996 0.772899985
vn -0.708000004 -0.486400008 0.511900008
vn 0 -0.688899994 0.724799991
vn 0 -1 0
vn -0.707099974 -0.707099974 0
vn 0 -1 0
vn 0 -1 0
vn -0.707099974 -0.707099974 0
vn 0 -1 0
vn 0 -1 0
vn -0.707099974 -0.707099974 0
vn 0 -1 0
vn 0 -1 0
vn 0 -1 0
vn -0.559899986 -0.4639 -0.686500013
vn 0 -0.559899986 -0.828499973
vn 0 0.994899988 0.100599997
vn -0.722000003 0.688399971 0.069600001
vn -0.709800005 0.704200029 0.0167999994
vn 0 0.99970001 0.0238000005
vn 0 0.981000006 0.193700001
vn -0.709299982 0.691500008 0.136500001
vn -0.709299982 0.694100022 0.122900002
vn 0 0.984600008 0.174400002
vn 0 0.984600008 0.174400002
vn -0.709299982 0.694100022 0.122900002
vn -0.722000003 0.688399971 0.069600001
vn 0 0.994899988 0.100599997
vn 0 -1 0
vn -0.707099974 -0.707099974 0
vn 0 -1 0
vn 0 -1 0
vn -0.707099974 -0.707099974 0
vn 0 -0.559899986 -0.828499973
vn -0.559899986 -0.4639 -0.686500013
vn -0.691500008 0.316199988 -0.649500012
vn 0 0.437700003 -0.899100006
vn 0 0.803200006 -0.595799983
vn 0 0.99970001 -0.0238000005
vn 0 0.999800026 -0.0193000007
vn 0 0.629800022 -0.776799977
vn 0 0.629800022 -0.776799977
vn 0 -0.241500005 -0.970399976
vn 0 -0.226999998 -0.97390002
vn 0 0.803200006 -0.595799983
vn 0 -1 0
vn 0 -1 0
vn 0 -1 0
vn 0 -1 0
vn 0 -0.768700004 -0.639500022
vn 0 -0.904100001 -0.42719999
vn 0 -1 0
vn 0 -1 0
vn 0 -1 0
vn 0 -1 0
vn 0 -1 0
vn 0 -0.620999992 0.783800006
vn 0 -0.559899986 0.828499973
vn 0 -1 0
vn 0 0.989099979 -0.147300005
vn 0 0.981599987 -0.191100001
vn 0 0.981000006 -0.193700001
vn 0 0.994300008 -0.106299996
vn 0 0.47299999 0.881099999
vn 0 0.651199996 0.758899987
vn 0 0.599099994 0.800599992
vn 0 0.437700003 0.899100006
vn 0 0.996699989 -0.0812000036
vn 0 0.999800026 -0.0193000007
vn 0 0.99970001 -0.0238000005
vn 0 0.994899988 -0.100599997
vn 0 0.981599987 -0.191100001
vn 0 0.985099971 -0.172000006
vn 0 0.984600008 -0.174400002
vn 0 0.981000006 -0.193700001
vn 0 0.985099971 -0.172000006
vn 0 0.996699989 -0.0812000036
vn 0 0.994899988 -0.100599997
vn 0 0.984600008 -0.174400002
vn 0 0.651199996 0.758899987
vn 0 0.983099997 0.183200002
vn 0 0.920700014 0.390199989
vn 0 0.599099994 0.800599992
vn 0 0.983099997 0.183200002
vn 0 0.989099979 -0.147300005
vn 0 0.994300008 -0.106299996
vn 0 0.920700014 0.390199989
vn 0 -1 0
vn 0 -1 0
vn 0 -1 0
vn 0 -1 0
vn 0 -1 0
vn 0 -1 0
vn 0 -1 0
vn 0 -1 0
vn 0 -1 0
vn 0 -1 0
vn 0 -1 0
vn 0 -1 0
vn 0 -1 0
vn 0 -1 0
vn 0 -1 0
vn 0 -1 0
vn 0 -1 0
vn 0 -1 0
vn 0 -1 0
vn 0 -1 0
vn 0 -1 0
vn 0 -1 0
vn 0 -0.620999992 0.783800006
vn 0 0.47299999 0.881099999
vn 0 0.437700003 0.899100006
vn 0 -0.559899986 0.828499973
vn 0 -0.241500005 -0.970399976
vn 0 -0.689700007 -0.723999977
vn 0 -0.688899994 -0.724799991
vn 0 -0.226999998 -0.97390002
vn 0 -0.66079998 -0.75059998
vn 0 -0.688899994 -0.724799991
vn 0 -0.689700007 -0.723999977
vn 0 -0.66930002 -0.742999971
vn 0 -0.904100001 -0.42719999
vn 0 -0.66079998 -0.75059998
vn 0 -0.66930002 -0.742999971
vn 0 -0.768700004 -0.639500022
vn -0.707099974 -0.707099974 0
vn -0.707099974 -0.707099974 0
vn -1 0 0
vn -1 0 0
vn -0.707099974 -0.707099974 0
vn -0.707099974 -0.707099974 0
vn -1 0 0
vn -1 0 0
vn -0.707099974 -0.707099974 0
vn -0.707099974 -0.707099974 0
vn -1 0 0
vn -1 0 0
vn -0.707099974 -0.707099974 0
vn -0.707099974 -0.707099974 0
vn -1 0 0
vn -1 0 0
vn -0.707099974 -0.707099974 0
vn -0.707099974 -0.707099974 0
vn -1 0 0
vn -1 0 0
vn -1 0 0
vn -0.707099974 -0.707099974 0
vn -1 0 0
vn -1 0 0
vn -1 0 0
vn -1 0 0
vn -1 0 0
vn -1 0 0
vn -1 0 0
vn -1 0 0
vn -1 0 0
vn -1 0 0
vn -1 0 0
vn -1 0 0
vn -1 0 0
vn -1 0 0
vn -1 0 0
vn -1 0 0
vn -1 0 0
vn -1 0 0
vn -1 0 0
vn -1 0 0
vn -1 0 0
vn -1 0 0
vn -1 0 0
vn -1 0 0
vn -1 0 0
vn -1 0 0
vn -1 0 0
vn -1 0 0
vn -1 0 0
vn -1 0 0
vn -1 0 0
vn -1 0 0
vn -1 0 0
vn -1 0 0
vn -1 0 0
vn -1 0 0
vn -1 0 0
vn -1 0 0
vn -1 0 0
vn -1 0 0
vn -1 0 0
vn -1 0 0
vn -1 0 0
vn -1 0 0
vn -1 0 0
vn -1 0 0
vn -0.691500008 0.316199988 0.649500012
vn -1 0 0
vn -0.707099974 -0.707099974 0
vn -0.559899986 -0.4639 0.686500013
vn -1 0 0
vn -1 0 0
vn -0.707099974 -0.707099974 0
vn -0.707099974 -0.707099974 0
vn -0.681400001 0.438499987 0.586000025
vn -1 0 0
vn -1 0 0
vn -0.691500008 0.316199988 0.649500012
vn -1 0 0
vn -1 0 0
vn -1 0 0
vn -1 0 0
vn -0.685599983 0.723800004 -0.0773999989
vn -1 0 0
vn -1 0 0
vn -0.627600014 0.716799974 0.303799987
vn -1 0 0
vn -1 0 0
vn -1 0 0
vn -0.627600014 0.716799974 0.303799987
vn -1 0 0
vn -1 0 0
vn -0.681400001 0.438499987 0.586000025
vn -1 0 0
vn -1 0 0
vn -1 0 0
vn -0.709299982 0.691500008 -0.136500001
vn -1 0 0
vn -1 0 0
vn -0.685599983 0.723800004 -0.0773999989
vn -1 0 0
vn -1 0 0
vn -1 0 0
vn -1 0 0
vn -0.709299982 0.694100022 -0.122900002
vn -1 0 0
vn -1 0 0
vn -0.709299982 0.691500008 -0.136500001
vn -1 0 0
vn -1 0 0
vn -1 0 0
vn -1 0 0
vn -0.722000003 0.688399971 -0.069600001
vn -1 0 0
vn -1 0 0
vn -0.709299982 0.694100022 -0.122900002
vn -1 0 0
vn -1 0 0
vn -1 0 0
vn -1 0 0
vn -0.709800005 0.704200029 -0.0167999994
vn -1 0 0
vn -1 0 0
vn -0.722000003 0.688399971 -0.069600001
vn -1 0 0
vn -1 0 0
vn -1 0 0
vn -1 0 0
vn -0.595899999 0.644900024 -0.478399992
vn -1 0 0
vn -1 0 0
vn -0.709800005 0.704200029 -0.0167999994
vn -1 0 0
vn -1 0 0
vn -1 0 0
vn -1 0 0
vn -1 0 0
vn -0.595899999 0.644900024 -0.478399992
vn -1 0 0
vn -0.608299971 -0.180199996 -0.772899985
vn -1 0 0
vn -1 0 0
vn -1 0 0
vn -0.608299971 -0.180199996 -0.772899985
vn -0.708000004 -0.486400008 -0.511900008
vn -1 0 0
vn -0.708000004 -0.486400008 -0.511900008
vn -0.7148 -0.462099999 -0.524900019
vn -1 0 0
vn -1 0 0
vn -1 0 0
vn -1 0 0
vn -1 0 0
vn -0.7148 -0.462099999 -0.524900019
vn -0.622399986 -0.707700014 -0.334399998
vn -0.707099974 -0.707099974 0
vn -0.707099974 -0.707099974 0
vn -0.707099974 -0.707099974 0
vn -1 0 0
vn -1 0 0
vn 0 -0.904100001 -0.42719999
vn 0 -1 0
vn 0 0.994300008 -0.106299996
vn 0 0.981000006 -0.193700001
vn -0.709299982 0.691500008 -0.136500001
vn -0.685599983 0.723800004 -0.0773999989
vn 0 0.437700003 0.899100006
vn 0 0.599099994 0.800599992
vn -0.681400001 0.438499987 0.586000025
vn -0.691500008 0.316199988 0.649500012
vn -0.595899999 0.644900024 -0.478399992
vn -0.709800005 0.704200029 -0.0167999994
vn 0 0.99970001 -0.0238000005
vn 0 0.803200006 -0.595799983
vn 0 0.599099994 0.800599992
vn 0 0.920700014 0.390199989
vn -0.627600014 0.716799974 0.303799987
vn -0.681400001 0.438499987 0.586000025
vn 0 0.920700014 0.390199989
vn 0 0.994300008 -0.106299996
vn -0.685599983 0.723800004 -0.0773999989
vn -0.627600014 0.716799974 0.303799987
vn 0 -1 0
vn 0 -1 0
vn -0.707099974 -0.707099974 0
vn 0 -1 0
vn 0 -1 0
vn -0.707099974 -0.707099974 0
vn 0 0.803200006 -0.595799983
vn 0 -0.226999998 -0.97390002
vn -0.608299971 -0.180199996 -0.772899985
vn 0 -0.688899994 -0.724799991
vn 0 -0.66079998 -0.75059998
vn -0.7148 -0.462099999 -0.524900019
vn -0.708000004 -0.486400008 -0.511900008
vn 0 -0.66079998 -0.75059998
vn 0 -0.904100001 -0.42719999
vn -0.622399986 -0.707700014 -0.334399998
vn -0.7148 -0.462099999 -0.524900019
vn 0 -0.226999998 -0.97390002
vn 0 -0.688899994 -0.724799991
vn -0.708000004 -0.486400008 -0.511900008
vn -0.608299971 -0.180199996 -0.772899985
vn 0 -1 0
vn 0 -1 0
vn -0.707099974 -0.707099974 0
vn 0 -1 0
vn 0 -1 0
vn -0.707099974 -0.707099974 0
vn 0 -1 0
vn 0 -1 0
vn -0.707099974 -0.707099974 0
vn 0 -1 0
vn 0 -1 0
vn 0 -0.559899986 0.828499973
vn -0.559899986 -0.4639 0.686500013
vn 0 0.994899988 -0.100599997
vn 0 0.99970001 -0.0238000005
vn -0.709800005 0.704200029 -0.0167999994
vn -0.722000003 0.688399971 -0.069600001
vn 0 0.981000006 -0.193700001
vn 0 0.984600008 -0.174400002
vn -0.709299982 0.694100022 -0.122900002
vn -0.709299982 0.691500008 -0.136500001
vn 0 0.984600008 -0.174400002
vn 0 0.994899988 -0.100599997
vn -0.722000003 0.688399971 -0.069600001
vn -0.709299982 0.694100022 -0.122900002
vn 0 -1 0
vn -0.707099974 -0.707099974 0
vn -0.707099974 -0.707099974 0
vn 0 -1 0
vn 0 -1 0
vn 0 -0.559899986 0.828499973
vn 0 0.437700003 0.899100006
vn -0.691500008 0.316199988 0.649500012
vn -0.559899986 -0.4639 0.686500013
f 1/1/1 2/2/2 3/3/3
f 1/1/1 3/3/3 4/4/4
f 5/5/5 6/6/6 7/7/7
f 5/5/5 7/7/7 8/8/8
f 9/9/9 10/10/10 11/11/11
f 9/9/9 11/11/11 12/12/12
f 13/13/13 14/14/14 10/10/10
f 13/13/13 10/10/10 9/9/9
f 15/15/15 16/16/16 17/17/17
f 15/15/15 17/17/17 18/18/18
f 19/19/19 20/20/20 21/21/21
f 19/19/19 21/21/21 22/22/22
f 23/23/23 24/24/24 25/25/25
f 23/23/23 25/25/25 26/26/26
f 27/27/27 28/28/28 29/29/29
f 27/27/27 29/29/29 30/30/30
f 31/31/31 32/32/32 33/33/33
f 31/31/31 33/33/33 34/34/34
f 35/35/35 36/36/36 37/37/37
f 35/35/35 37/37/37 38/38/38
f 39/39/39 40/40/40 41/41/41
f 39/39/39 41/41/41 42/42/42
f 43/43/43 44/44/44 45/45/45
f 43/43/43 45/45/45 46/46/46
f 47/47/47 48/48/48 49/49/49
f 47/47/47 49/49/49 50/50/50
f 51/51/51 52/52/52 53/53/53
f 51/51/51 53/53/53 54/54/54
f 55/55/55 56/56/56 57/57/57
f 55/55/55 57/57/57 58/58/58
f 59/59/59 60/60/60 61/61/61
f 59/59/59 61/61/61 62/62/62
f 63/63/63 64/64/64 65/65/65
f 63/63/63 65/65/65 66/66/66
f 67/67/67 68/68/68 69/69/69
f 67/67/67 69/69/69 70/70/70
f 71/71/71 72/72/72 12/12/12
f 71/71/71 12/12/12 11/11/11
f 73/73/73 74/74/74 75/75/75
f 73/73/73 75/75/75 76/76/76
f 77/77/77 78/78/78 79/79/79
f 77/77/77 79/79/79 80/80/80
f 81/81/81 82/82/82 83/83/83
f 81/81/81 83/83/83 84/84/84
f 85/85/85 86/86/86 87/87/87
f 85/85/85 87/87/87 88/88/88
f 89/89/89 90/90/90 91/91/91
f 89/89/89 91/91/91 92/92/92
f 93/93/93 94/94/94 95/95/95
f 93/93/93 95/95/95 96/96/96
f 97/97/97 98/98/98 99/99/99
f 97/97/97 99/99/99 100/100/100
f 101/101/101 102/102/102 103/103/103
f 101/101/101 103/103/103 104/104/104
f 105/105/105 106/106/106 107/107/107
f 105/105/105 107/107/107 108/108/108
f 109/109/109 110/110/110 111/111/111
f 109/109/109 111/111/111 108/108/108
f 109/109/109 112/112/112 113/113/113
f 109/109/109 113/113/113 114/114/114
f 115/115/115 116/116/116 117/117/117
f 115/115/115 117/117/117 118/118/118
f 119/119/119 120/120/120 121/121/121
f 119/119/119 121/121/121 122/122/122
f 123/123/123 124/124/124 125/125/125
f 123/123/123 125/125/125 126/126/126
f 127/127/127 128/128/128 129/129/129
f 127/127/127 129/129/129 130/130/130
f 131/131/131 132/132/132 133/133/133
f 131/131/131 133/133/133 134/134/134
f 135/135/135 112/112/112 136/136/136
f 135/135/135 136/136/136 137/137/137
f 138/138/138 139/139/139 136/136/136
f 138/138/138 136/136/136 140/140/140
f 141/141/141 142/142/142 143/143/143
f 141/141/141 143/143/143 144/144/144
f 145/145/145 146/146/146 147/147/147
f 145/145/145 147/147/147 148/148/148
f 149/149/149 150/150/150 151/151/151
f 149/149/149 151/151/151 152/152/152
f 153/153/153 154/154/154 155/155/155
f 153/153/153 155/155/155 156/156/156
f 157/157/157 158/158/158 159/159/159
f 157/157/157 159/159/159 160/160/160
f 161/161/161 162/162/162 163/163/163
f 161/161/161 163/163/163 164/164/164
f 165/165/165 166/166/166 167/167/167
f 165/165/165 167/167/167 168/168/168
f 169/169/169 170/170/170 171/171/171
f 169/169/169 171/171/171 172/172/172
f 173/173/173 174/174/174 175/175/175
f 173/173/173 175/175/175 176/176/176
f 177/177/177 178/178/178 137/137/137
f 177/177/177 137/137/137 179/179/179
f 180/180/180 181/181/181 182/182/182
f 180/180/180 182/182/182 183/183/183
f 184/184/184 185/185/185 113/113/113
f 184/184/184 113/113/113 186/186/186
f 187/187/187 188/188/188 189/189/189
f 187/187/187 189/189/189 190/190/190
f 191/191/191 192/192/192 193/193/193
f 191/191/191 193/193/193 194/194/194
f 195/195/195 196/196/196 197/197/197
f 195/195/195 197/197/197 198/198/198
f 199/199/199 200/200/200 201/201/201
f 199/199/199 201/201/201 202/202/202
f 203/203/203 204/204/204 205/205/205
f 203/203/203 205/205/205 206/206/206
f 207/207/207 208/208/208 209/209/209
f 207/207/207 209/209/209 210/210/210
f 211/211/211 212/212/212 213/213/213
f 211/211/211 213/213/213 214/214/214
f 215/215/215 216/216/216 217/217/217
f 215/215/215 217/217/217 218/218/218
f 219/219/219 220/220/220 221/221/221
f 219/219/219 221/221/221 222/222/222
f 223/223/223 224/224/224 225/225/225
f 223/223/223 225/225/225 226/226/226
f 227/227/227 228/228/228 229/229/229
f 228/228/228 230/230/230 229/229/229
f 227/227/227 231/231/231 232/232/232
f 227/227/227 232/232/232 233/233/233
f 228/228/228 234/234/234 235/235/235
f 228/228/228 235/235/235 236/236/236
f 232/232/232 237/237/237 238/238/238
f 232/232/232 238/238/238 239/239/239
f 240/240/240 241/241/241 132/132/132
f 240/240/240 132/132/132 242/242/242
f 243/243/243 244/244/244 245/245/245
f 243/243/243 245/245/245 246/246/246
f 247/247/247 248/248/248 249/249/249
f 247/247/247 249/249/249 250/250/250
f 251/251/251 245/245/245 247/247/247
f 251/251/251 247/247/247 252/252/252
f 253/253/253 254/254/254 255/255/255
f 253/253/253 255/255/255 256/256/256
f 257/257/257 258/258/258 259/259/259
f 257/257/257 259/259/259 260/260/260
f 261/261/261 262/262/262 263/263/263
f 261/261/261 263/263/263 264/264/264
f 265/265/265 266/266/266 267/267/267
f 265/265/265 267/267/267 268/268/268
f 269/269/269 270/270/270 271/271/271
f 269/269/269 271/271/271 272/272/272
f 273/273/273 274/274/274 108/108/108
f 273/273/273 108/108/108 275/275/275
f 276/276/276 277/277/277 96/96/96
f 276/276/276 96/96/96 278/278/278
f 279/279/279 229/229/229 280/280/280
f 279/279/279 280/280/280 281/281/281
f 282/282/282 283/283/283 284/284/284
f 282/282/282 284/284/284 285/285/285
f 286/286/286 287/287/287 288/288/288
f 286/286/286 288/288/288 289/289/289
f 290/290/290 291/291/291 292/292/292
f 290/290/290 292/292/292 293/293/293
f 294/294/294 295/295/295 100/100/100
f 294/294/294 100/100/100 296/296/296
f 297/297/297 298/298/298 104/104/104
f 297/297/297 104/104/104 299/299/299
f 300/300/300 301/301/301 250/250/250
f 300/300/300 250/250/250 302/302/302
f 303/303/303 163/163/163 159/159/159
f 303/303/303 159/159/159 304/304/304
f 304/304/304 159/159/159 305/305/305
f 304/304/304 305/305/305 306/306/306
f 307/307/307 308/308/308 309/309/309
f 307/307/307 309/309/309 310/310/310
f 311/311/311 312/312/312 313/313/313
f 311/311/311 313/313/313 314/314/314
f 315/315/315 316/316/316 317/317/317
f 315/315/315 317/317/317 318/318/318
f 319/319/319 320/320/320 163/163/163
f 319/319/319 163/163/163 16/16/16
f 92/92/92 321/321/321 322/322/322
f 92/92/92 322/322/322 323/323/323
f 324/324/324 325/325/325 326/326/326
f 324/324/324 326/326/326 327/327/327
f 328/328/328 329/329/329 330/330/330
f 328/328/328 330/330/330 331/331/331
f 332/332/332 333/333/333 334/334/334
f 332/332/332 334/334/334 335/335/335
f 336/336/336 337/337/337 338/338/338
f 336/336/336 338/338/338 339/339/339
f 340/340/340 336/336/336 339/339/339
f 340/340/340 339/339/339 341/341/341
f 342/342/342 343/343/343 344/344/344
f 342/342/342 344/344/344 345/345/345
f 346/346/346 347/347/347 348/348/348
f 346/346/346 348/348/348 349/349/349
f 350/350/350 351/351/351 352/352/352
f 350/350/350 352/352/352 353/353/353
f 354/354/354 355/355/355 356/356/356
f 354/354/354 356/356/356 357/357/357
f 358/358/358 359/359/359 360/360/360
f 358/358/358 360/360/360 361/361/361
f 362/362/362 363/363/363 364/364/364
f 362/362/362 364/364/364 365/365/365
f 366/366/366 367/367/367 368/368/368
f 366/366/366 368/368/368 369/369/369
f 370/370/370 371/371/371 372/372/372
f 370/370/370 372/372/372 373/373/373
f 374/374/374 375/375/375 376/376/376
f 374/374/374 376/376/376 377/377/377
f 378/378/378 379/379/379 380/380/380
f 378/378/378 380/380/380 381/381/381
f 382/382/382 383/383/383 384/384/384
f 382/382/382 384/384/384 385/385/385
f 386/386/386 387/387/387 388/388/388
f 386/386/386 388/388/388 389/389/389
f 390/390/390 391/391/391 392/392/392
f 390/390/390 392/392/392 393/393/393
f 394/394/394 395/395/395 396/396/396
f 394/394/394 396/396/396 397/397/397
f 398/398/398 338/338/338 337/337/337
f 398/398/398 337/337/337 399/399/399
f 400/400/400 401/401/401 402/402/402
f 400/400/400 402/402/402 403/403/403
f 404/404/404 405/405/405 406/406/406
f 404/404/404 406/406/406 407/407/407
f 408/408/408 409/409/409 410/410/410
f 408/408/408 410/410/410 411/411/411
f 412/412/412 413/413/413 414/414/414
f 412/412/412 414/414/414 415/415/415
f 416/416/416 417/417/417 418/418/418
f 416/416/416 418/418/418 419/419/419
f 420/420/420 421/421/421 422/422/422
f 420/420/420 422/422/422 423/423/423
f 424/424/424 425/425/425 426/426/426
f 424/424/424 426/426/426 427/427/427
f 428/428/428 429/429/429 430/430/430
f 428/428/428 430/430/430 431/431/431
f 432/432/432 433/433/433 434/434/434
f 432/432/432 434/434/434 435/435/435
f 436/436/436 433/433/433 437/437/437
f 436/436/436 437/437/437 438/438/438
f 436/436/436 439/439/439 440/440/440
f 436/436/436 440/440/440 441/441/441
f 442/442/442 443/443/443 444/444/444
f 442/442/442 444/444/444 445/445/445
f 446/446/446 447/447/447 448/448/448
f 446/446/446 448/448/448 449/449/449
f 450/450/450 451/451/451 452/452/452
f 450/450/450 452/452/452 453/453/453
f 454/454/454 455/455/455 456/456/456
f 454/454/454 456/456/456 457/457/457
f 458/458/458 459/459/459 460/460/460
f 458/458/458 460/460/460 461/461/461
f 462/462/462 463/463/463 464/464/464
f 462/462/462 464/464/464 441/441/441
f 465/465/465 466/466/466 464/464/464
f 465/465/465 464/464/464 467/467/467
f 468/468/468 469/469/469 470/470/470
f 468/468/468 470/470/470 471/471/471
f 472/472/472 473/473/473 474/474/474
f 472/472/472 474/474/474 475/475/475
f 476/476/476 477/477/477 478/478/478
f 476/476/476 478/478/478 479/479/479
f 480/480/480 481/481/481 482/482/482
f 480/480/480 482/482/482 483/483/483
f 484/484/484 485/485/485 486/486/486
f 484/484/484 486/486/486 487/487/487
f 488/488/488 489/489/489 490/490/490
f 488/488/488 490/490/490 491/491/491
f 492/492/492 493/493/493 494/494/494
f 492/492/492 494/494/494 495/495/495
f 496/496/496 497/497/497 498/498/498
f 496/496/496 498/498/498 499/499/499
f 500/500/500 501/501/501 502/502/502
f 500/500/500 502/502/502 503/503/503
f 504/504/504 505/505/505 463/463/463
f 504/504/504 463/463/463 506/506/506
f 507/507/507 508/508/508 509/509/509
f 507/507/507 509/509/509 510/510/510
f 511/511/511 512/512/512 440/440/440
f 511/511/511 440/440/440 513/513/513
f 514/514/514 515/515/515 516/516/516
f 514/514/514 516/516/516 517/517/517
f 518/518/518 519/519/519 520/520/520
f 518/518/518 520/520/520 521/521/521
f 522/522/522 523/523/523 524/524/524
f 522/522/522 524/524/524 525/525/525
f 526/526/526 527/527/527 528/528/528
f 526/526/526 528/528/528 529/529/529
f 530/530/530 531/531/531 532/532/532
f 530/530/530 532/532/532 533/533/533
f 534/534/534 535/535/535 536/536/536
f 534/534/534 536/536/536 537/537/537
f 538/538/538 539/539/539 540/540/540
f 538/538/538 540/540/540 541/541/541
f 542/542/542 543/543/543 544/544/544
f 542/542/542 544/544/544 545/545/545
f 546/546/546 547/547/547 548/548/548
f 546/546/546 548/548/548 549/549/549
f 550/550/550 551/551/551 552/552/552
f 550/550/550 552/552/552 553/553/553
f 554/554/554 555/555/555 556/556/556
f 556/556/556 555/555/555 557/557/557
f 554/554/554 558/558/558 559/559/559
f 554/554/554 559/559/559 560/560/560
f 556/556/556 561/561/561 562/562/562
f 556/556/556 562/562/562 563/563/563
f 559/559/559 564/564/564 565/565/565
f 559/559/559 565/565/565 566/566/566
f 567/567/567 568/568/568 461/461/461
f 567/567/567 461/461/461 569/569/569
f 570/570/570 571/571/571 572/572/572
f 570/570/570 572/572/572 573/573/573
f 574/574/574 575/575/575 576/576/576
f 574/574/574 576/576/576 577/577/577
f 578/578/578 579/579/579 574/574/574
f 578/578/578 574/574/574 572/572/572
f 580/580/580 581/581/581 582/582/582
f 580/580/580 582/582/582 583/583/583
f 584/584/584 585/585/585 586/586/586
f 584/584/584 586/586/586 587/587/587
f 588/588/588 589/589/589 590/590/590
f 588/588/588 590/590/590 591/591/591
f 592/592/592 593/593/593 594/594/594
f 592/592/592 594/594/594 595/595/595
f 596/596/596 597/597/597 598/598/598
f 596/596/596 598/598/598 599/599/599
f 600/600/600 601/601/601 433/433/433
f 600/600/600 433/433/433 602/602/602
f 603/603/603 604/604/604 421/421/421
f 603/603/603 421/421/421 605/605/605
f 606/606/606 607/607/607 608/608/608
f 606/606/606 608/608/608 555/555/555
f 609/609/609 610/610/610 611/611/611
f 609/609/609 611/611/611 612/612/612
f 613/613/613 614/614/614 615/615/615
f 613/613/613 615/615/615 616/616/616
f 617/617/617 618/618/618 619/619/619
f 617/617/617 619/619/619 620/620/620
f 621/621/621 622/622/622 425/425/425
f 621/621/621 425/425/425 623/623/623
f 624/624/624 625/625/625 429/429/429
f 624/624/624 429/429/429 626/626/626
f 627/627/627 628/628/628 575/575/575
f 627/627/627 575/575/575 629/629/629
f 630/630/630 631/631/631 486/486/486
f 630/630/630 486/486/486 490/490/490
f 631/631/631 632/632/632 633/633/633
f 631/631/631 633/633/633 486/486/486
f 634/634/634 635/635/635 636/636/636
f 634/634/634 636/636/636 637/637/637
f 638/638/638 639/639/639 640/640/640
f 638/638/638 640/640/640 641/641/641
f 642/642/642 643/643/643 644/644/644
f 642/642/642 644/644/644 645/645/645
f 646/646/646 345/345/345 490/490/490
f 646/646/646 490/490/490 647/647/647
f 417/417/417 648/648/648 649/649/649
f 417/417/417 649/649/649 650/650/650
f 651/651/651 652/652/652 653/653/653
f 651/651/651 653/653/653 654/654/654
