# Generated by lxe_pbrt_scene_convert
v 4.60391903 -0.207625002 1.46606696
v 4.60279417 -0.215862006 1.46613204
v 4.59031677 -0.208359003 1.486624
v 4.5861311 -0.201562002 1.49329197
v 4.58605814 -0.190285996 1.49286497
v 4.60588694 -0.193212003 1.46595299
v 4.63655281 -0.195607007 1.41525698
v 4.63247299 -0.212479994 1.414886
v 4.63014078 -0.222121999 1.41467404
v 4.6095438 -0.166443005 1.46574199
v 4.58592319 -0.169345006 1.49207199
v 4.59287119 -0.147496 1.48493695
v 4.61404419 -0.133497 1.465482
v 4.65345716 -0.125706002 1.41679299
v 4.64413118 -0.164271995 1.41594505
v 4.68255997 -0.214919001 1.31579304
v 4.6789422 -0.225189999 1.31510794
v 4.63247299 -0.212479994 1.414886
v 4.63655281 -0.195607007 1.41525698
v 4.68889189 -0.196943998 1.31699097
v 4.74776697 -0.197680995 1.19980204
v 4.7405529 -0.215715006 1.197227
v 4.73617887 -0.225817993 1.19624698
v 4.70065117 -0.163562998 1.31921601
v 4.64413118 -0.164271995 1.41594505
v 4.65345716 -0.125706002 1.41679299
v 4.71512318 -0.122478999 1.32195497
v 4.77639818 -0.121953003 1.21292305
v 4.76066208 -0.163782999 1.20556605
v 4.79282188 -0.215645999 1.08763099
v 4.84222984 -0.215142995 0.982518017
v 4.82736588 -0.221404001 1.008515
v 4.78883505 -0.224759996 1.08690298
v 4.7405529 -0.215715006 1.197227
v 4.74776697 -0.197680995 1.19980204
v 4.79804087 -0.198276997 1.09233797
v 4.84401512 -0.198802993 0.989736021
v 4.80572224 -0.164399996 1.10500705
v 4.81463385 -0.122267999 1.12165594
v 4.83516121 -0.133371994 1.05279803
v 4.84330702 -0.165215001 1.01099396
v 4.84401512 -0.198802993 0.989736021
v 4.79804087 -0.198276997 1.09233797
v 4.76066208 -0.163782999 1.20556605
v 4.77639818 -0.121953003 1.21292305
v 4.60391903 -0.207625002 -1.46606696
v 4.5861311 -0.201562002 -1.49329197
v 4.59031677 -0.208359003 -1.486624
v 4.60279417 -0.215862006 -1.46613204
v 4.63014078 -0.222121999 -1.41467404
v 4.63247299 -0.212479994 -1.414886
v 4.63655281 -0.195607007 -1.41525698
v 4.60588694 -0.193212003 -1.46595299
v 4.58605814 -0.190285996 -1.49286497
v 4.6095438 -0.166443005 -1.46574199
v 4.58592319 -0.169345006 -1.49207199
v 4.64413118 -0.164271995 -1.41594505
v 4.65345716 -0.125706002 -1.41679299
v 4.61404419 -0.133497 -1.465482
v 4.59287119 -0.147496 -1.48493695
v 4.68255997 -0.214919001 -1.31579304
v 4.63247299 -0.212479994 -1.414886
v 4.6789422 -0.225189999 -1.31510794
v 4.73617887 -0.225817993 -1.19624698
v 4.7405529 -0.215715006 -1.19722795
v 4.74776697 -0.197680995 -1.19980204
v 4.68889189 -0.196943998 -1.31699097
v 4.63655281 -0.195607007 -1.41525698
v 4.70065117 -0.163562998 -1.31921601
v 4.64413118 -0.164271995 -1.41594505
v 4.76066208 -0.163782999 -1.20556605
v 4.77639818 -0.121953003 -1.21292305
v 4.71512318 -0.122478999 -1.32195497
v 4.65345716 -0.125706002 -1.41679299
v 4.79282188 -0.215645999 -1.08763099
v 4.78883505 -0.224759996 -1.08690298
v 4.82736588 -0.221404001 -1.008515
v 4.84222984 -0.215142995 -0.982518017
v 4.84401512 -0.198802993 -0.989736021
v 4.79804087 -0.198276997 -1.09233797
v 4.74776697 -0.197680995 -1.19980204
v 4.7405529 -0.215715006 -1.19722795
v 4.80572224 -0.164399996 -1.10500705
v 4.84330702 -0.165215001 -1.01099396
v 4.83516121 -0.133371994 -1.05279803
v 4.81463385 -0.122267999 -1.12165594
v 4.77639818 -0.121953003 -1.21292305
v 4.76066208 -0.163782999 -1.20556605
v 4.79804087 -0.198276997 -1.09233797
v 4.84401512 -0.198802993 -0.989736021
vt 0.5 0.174999997
vt 0.5 0
vt 0.875 0.0250000004
vt 1 0.100000001
vt 1 0.275000006
vt 0.5 0.387499988
vt -0 0.5
vt -0 0.25
vt 0.0936999992 0.0938000008
vt 0.5 0.675000012
vt 1 0.600000024
vt 0.875 0.899999976
vt 0.5 1
vt 0 1
vt -0 0.75
vt 0.174999997 0.5
vt 0 0.5
vt 0.25 0
vt 0.5 0
vt 0.387499988 0.5
vt 0.275000006 1
vt 0.100000001 1
vt 0 1
vt 0.675000012 0.5
vt 0.75 0
vt 1 0
vt 1 0.5
vt 1 1
vt 0.600000024 1
vt 0.5 0.5
vt 0.5 0
vt 0.125 0.125
vt 0 0.5
vt 0.5 1
vt 1 1
vt 1 0.5
vt 1 0
vt 0.5 0.5
vt 0.5 0
vt 0.125 0.125
vt 0 0.5
vt 0 1
vt 0.5 1
vt 1 0.5
vt 1 0
vt 0.5 0.174999997
vt 1 0.100000001
vt 0.875 0.0250000004
vt 0.5 0
vt 0.0936999992 0.0938000008
vt -0 0.25
vt -0 0.5
vt 0.5 0.387499988
vt 1 0.275000006
vt 0.5 0.675000012
vt 1 0.600000024
vt -0 0.75
vt 0 1
vt 0.5 1
vt 0.875 0.899999976
vt 0.174999997 0.5
vt 0.25 0
vt 0 0.5
vt 0 1
vt 0.100000001 1
vt 0.275000006 1
vt 0.387499988 0.5
vt 0.5 0
vt 0.675000012 0.5
vt 0.75 0
vt 0.600000024 1
vt 1 1
vt 1 0.5
vt 1 0
vt 0.5 0.5
vt 0 0.5
vt 0.125 0.125
vt 0.5 0
vt 1 0
vt 1 0.5
vt 1 1
vt 0.5 1
vt 0.5 0.5
vt 0 0.5
vt 0.125 0.125
vt 0.5 0
vt 1 0
vt 1 0.5
vt 0.5 1
vt 0 1
vn -0.840699971 0.1149 -0.529200017
vn -0.847899973 0.125100002 -0.515200019
vn -0.833000004 0.0713 -0.548600018
vn -0.820500016 0.0535999984 -0.569100022
vn -0.7949 0.0458999984 -0.604900002
vn -0.819000006 0.106399998 -0.563799977
vn -0.842999995 0.220200002 -0.490700006
vn -0.854900002 0.222399995 -0.468600005
vn -0.859000027 0.222399995 -0.461100012
vn -0.782899976 0.107299998 -0.612800002
vn -0.755200028 0.0496000014 -0.653599977
vn -0.724300027 0.058600001 -0.686999977
vn -0.773000002 0.122900002 -0.622399986
vn -0.813199997 0.221200004 -0.538299978
vn -0.823199987 0.216399997 -0.524800003
vn -0.846400023 0.317900002 -0.42719999
vn -0.848999977 0.317200005 -0.422699988
vn -0.854900002 0.222399995 -0.468600005
vn -0.842999995 0.220200002 -0.490700006
vn -0.84009999 0.315299988 -0.441300005
vn -0.837599993 0.363099992 -0.408100009
vn -0.834999979 0.373299986 -0.404300004
vn -0.833700001 0.377999991 -0.402399987
vn -0.829400003 0.312700003 -0.462799996
vn -0.823199987 0.216399997 -0.524800003
vn -0.813199997 0.221200004 -0.538299978
vn -0.823000014 0.315100014 -0.472600013
vn -0.83950001 0.35620001 -0.410400003
vn -0.838999987 0.35769999 -0.409999996
vn -0.842199981 0.366600007 -0.395300001
vn -0.857900023 0.328099996 -0.395300001
vn -0.837100029 0.380299985 -0.39320001
vn -0.832700014 0.388700008 -0.394300014
vn -0.834999979 0.373299986 -0.404300004
vn -0.837599993 0.363099992 -0.408100009
vn -0.85860002 0.332899988 -0.389699996
vn -0.869099975 0.305500001 -0.388999999
vn -0.872200012 0.320300013 -0.369800001
vn -0.872799993 0.328000009 -0.361299992
vn -0.897899985 0.278499991 -0.340700001
vn -0.886399984 0.280299991 -0.368400007
vn -0.869099975 0.305500001 -0.388999999
vn -0.85860002 0.332899988 -0.389699996
vn -0.838999987 0.35769999 -0.409999996
vn -0.83950001 0.35620001 -0.410400003
vn -0.840699971 0.115000002 0.529200017
vn -0.820500016 0.0535999984 0.569100022
vn -0.833000004 0.0714000016 0.548600018
vn -0.847899973 0.125200003 0.515200019
vn -0.859000027 0.222399995 0.461100012
vn -0.854900002 0.222399995 0.468600005
vn -0.842999995 0.220200002 0.490700006
vn -0.819000006 0.106399998 0.563799977
vn -0.7949 0.0458999984 0.604900002
vn -0.782899976 0.107299998 0.612800002
vn -0.755200028 0.0496000014 0.653599977
vn -0.823199987 0.216399997 0.524800003
vn -0.813199997 0.221200004 0.538299978
vn -0.773000002 0.122900002 0.622399986
vn -0.724300027 0.058600001 0.686999977
vn -0.846400023 0.317900002 0.42719999
vn -0.854900002 0.222399995 0.468600005
vn -0.848999977 0.317200005 0.422699988
vn -0.833700001 0.377999991 0.402399987
vn -0.834999979 0.373299986 0.404300004
vn -0.837599993 0.363099992 0.408100009
vn -0.84009999 0.315299988 0.441300005
vn -0.842999995 0.220200002 0.490700006
vn -0.829400003 0.312700003 0.462799996
vn -0.823199987 0.216399997 0.524800003
vn -0.838999987 0.35769999 0.409999996
vn -0.83950001 0.35620001 0.410400003
vn -0.823000014 0.315100014 0.472600013
vn -0.813199997 0.221200004 0.538299978
vn -0.842199981 0.366600007 0.395300001
vn -0.832700014 0.388700008 0.394300014
vn -0.837199986 0.380199999 0.39320001
vn -0.857900023 0.328099996 0.395300001
vn -0.869099975 0.305500001 0.388999999
vn -0.85860002 0.332899988 0.389699996
vn -0.837599993 0.363099992 0.408100009
vn -0.834999979 0.373299986 0.404300004
vn -0.872200012 0.320300013 0.369800001
vn -0.886399984 0.280299991 0.368400007
vn -0.897899985 0.278499991 0.340700001
vn -0.872799993 0.328000009 0.361299992
vn -0.83950001 0.35620001 0.410400003
vn -0.838999987 0.35769999 0.409999996
vn -0.85860002 0.332899988 0.389699996
vn -0.869099975 0.305500001 0.388999999
f 1/1/1 2/2/2 3/3/3
f 1/1/1 3/3/3 4/4/4
f 1/1/1 4/4/4 5/5/5
f 1/1/1 5/5/5 6/6/6
f 1/1/1 6/6/6 7/7/7
f 1/1/1 7/7/7 8/8/8
f 1/1/1 8/8/8 9/9/9
f 1/1/1 9/9/9 2/2/2
f 10/10/10 6/6/6 5/5/5
f 10/10/10 5/5/5 11/11/11
f 10/10/10 11/11/11 12/12/12
f 10/10/10 12/12/12 13/13/13
f 10/10/10 13/13/13 14/14/14
f 10/10/10 14/14/14 15/15/15
f 10/10/10 15/15/15 7/7/7
f 10/10/10 7/7/7 6/6/6
f 16/16/16 17/17/17 9/9/9
f 16/16/16 9/9/9 18/18/18
f 16/16/16 18/18/18 19/19/19
f 16/16/16 19/19/19 20/20/20
f 16/16/16 20/20/20 21/21/21
f 16/16/16 21/21/21 22/22/22
f 16/16/16 22/22/22 23/23/23
f 16/16/16 23/23/23 17/17/17
f 24/24/24 20/20/20 19/19/19
f 24/24/24 19/19/19 25/25/25
f 24/24/24 25/25/25 26/26/26
f 24/24/24 26/26/26 27/27/27
f 24/24/24 27/27/27 28/28/28
f 24/24/24 28/28/28 29/29/29
f 24/24/24 29/29/29 21/21/21
f 24/24/24 21/21/21 20/20/20
f 30/30/30 31/31/31 32/32/32
f 30/30/30 32/32/32 33/33/33
f 30/30/30 33/33/33 23/23/23
f 30/30/30 23/23/23 34/34/34
f 30/30/30 34/34/34 35/35/35
f 30/30/30 35/35/35 36/36/36
f 30/30/30 36/36/36 37/37/37
f 30/30/30 37/37/37 31/31/31
f 38/38/38 39/39/39 40/40/40
f 38/38/38 40/40/40 41/41/41
f 38/38/38 41/41/41 42/42/42
f 38/38/38 42/42/42 43/43/43
f 38/38/38 43/43/43 35/35/35
f 38/38/38 35/35/35 44/44/44
f 38/38/38 44/44/44 45/45/45
f 38/38/38 45/45/45 39/39/39
f 46/46/46 47/47/47 48/48/48
f 46/46/46 48/48/48 49/49/49
f 46/46/46 49/49/49 50/50/50
f 46/46/46 50/50/50 51/51/51
f 46/46/46 51/51/51 52/52/52
f 46/46/46 52/52/52 53/53/53
f 46/46/46 53/53/53 54/54/54
f 46/46/46 54/54/54 47/47/47
f 55/55/55 56/56/56 54/54/54
f 55/55/55 54/54/54 53/53/53
f 55/55/55 53/53/53 52/52/52
f 55/55/55 52/52/52 57/57/57
f 55/55/55 57/57/57 58/58/58
f 55/55/55 58/58/58 59/59/59
f 55/55/55 59/59/59 60/60/60
f 55/55/55 60/60/60 56/56/56
f 61/61/61 62/62/62 50/50/50
f 61/61/61 50/50/50 63/63/63
f 61/61/61 63/63/63 64/64/64
f 61/61/61 64/64/64 65/65/65
f 61/61/61 65/65/65 66/66/66
f 61/61/61 66/66/66 67/67/67
f 61/61/61 67/67/67 68/68/68
f 61/61/61 68/68/68 62/62/62
f 69/69/69 70/70/70 68/68/68
f 69/69/69 68/68/68 67/67/67
f 69/69/69 67/67/67 66/66/66
f 69/69/69 66/66/66 71/71/71
f 69/69/69 71/71/71 72/72/72
f 69/69/69 72/72/72 73/73/73
f 69/69/69 73/73/73 74/74/74
f 69/69/69 74/74/74 70/70/70
f 75/75/75 76/76/76 77/77/77
f 75/75/75 77/77/77 78/78/78
f 75/75/75 78/78/78 79/79/79
f 75/75/75 79/79/79 80/80/80
f 75/75/75 80/80/80 81/81/81
f 75/75/75 81/81/81 82/82/82
f 75/75/75 82/82/82 64/64/64
f 75/75/75 64/64/64 76/76/76
f 83/83/83 84/84/84 85/85/85
f 83/83/83 85/85/85 86/86/86
f 83/83/83 86/86/86 87/87/87
f 83/83/83 87/87/87 88/88/88
f 83/83/83 88/88/88 81/81/81
f 83/83/83 81/81/81 89/89/89
f 83/83/83 89/89/89 90/90/90
f 83/83/83 90/90/90 84/84/84
