# Generated by lxe_pbrt_scene_convert
v 2.23982406 1.22773898 0
v 1.922261 1.302477 0
v 1.91700602 1.29705 0.216166005
v 2.23782706 1.22551298 0.221515
v 2.22237492 1.21237504 0.504923999
v 1.904809 1.28415501 0.497305989
v 1.89286494 1.26115203 0.78471601
v 2.20534205 1.18892395 0.799471974
v 2.23782706 1.22551298 0.221515
v 1.91700602 1.29705 0.216166005
v 1.62262106 1.34829998 0
v 1.61973798 1.34507895 0.214597002
v 1.91700602 1.29705 0.216166005
v 1.922261 1.302477 0
v 1.27056396 1.386724 0
v 1.268893 1.38199794 0.214310005
v 1.61973798 1.34507895 0.214597002
v 1.62262106 1.34829998 0
v 0.604942977 1.397174 0
v 0.612653971 1.39342403 0.221552998
v 0.943243027 1.39156306 0.215662003
v 0.940250993 1.39576495 0
v 0.197101995 1.37292695 0
v 0.208067998 1.36878598 0.230087996
v 0.612653971 1.39342403 0.221552998
v 0.604942977 1.397174 0
v -0.203527004 1.309955 0.235352993
v 0.197101995 1.37292695 0
v -0.213780001 1.31292605 0
v 1.268893 1.38199794 0.214310005
v 1.26703095 1.37098598 0.494697005
v 1.61378396 1.33393705 0.494349986
v 1.61973798 1.34507895 0.214597002
v 1.26279104 1.35101795 0.780135989
v 1.60623801 1.31172597 0.778614998
v 1.89286494 1.26115203 0.78471601
v 1.904809 1.28415501 0.497305989
v 1.61378396 1.33393705 0.494349986
v 1.60623801 1.31172597 0.778614998
v 1.91700602 1.29705 0.216166005
v 1.61973798 1.34507895 0.214597002
v 0.945318997 1.38473904 0.497810006
v 0.943243027 1.39156306 0.215662003
v 0.612653971 1.39342403 0.221552998
v 0.621770024 1.38654196 0.508185983
v 0.945752025 1.36729503 0.788385987
v 0.630452991 1.36910999 0.794649005
v 0.208067998 1.36878598 0.230087996
v 0.221532002 1.36055398 0.517337024
v 0.621770024 1.38654196 0.508185983
v 0.612653971 1.39342403 0.221552998
v 0.239956006 1.34237599 0.818669975
v 0.630452991 1.36910999 0.794649005
v 0.221532002 1.36055398 0.517337024
v -0.192017004 1.30330205 0.532395005
v -0.164370999 1.28438902 0.848710001
v 0.208067998 1.36878598 0.230087996
v -0.203527004 1.309955 0.235352993
v 0.943243027 1.39156306 0.215662003
v 1.268893 1.38199794 0.214310005
v 1.27056396 1.386724 0
v 0.940250993 1.39576495 0
v 0.945318997 1.38473904 0.497810006
v 1.26703095 1.37098598 0.494697005
v 1.268893 1.38199794 0.214310005
v 0.943243027 1.39156306 0.215662003
v 0.945752025 1.36729503 0.788385987
v 1.26279104 1.35101795 0.780135989
v -0.461198986 1.26099503 0.240649998
v -0.453469008 1.26246405 0.240491003
v -0.455192 1.26438701 0
v -0.462659001 1.26288605 0
v -0.203527004 1.309955 0.235352993
v -0.213780001 1.31292605 0
v -0.403741986 1.23573506 0.872900009
v -0.396560997 1.23719501 0.872174025
v -0.434634 1.25422001 0.545535028
v -0.442137986 1.252702 0.545942008
v -0.164370999 1.28438902 0.848710001
v -0.192017004 1.30330205 0.532395005
v -0.203527004 1.309955 0.235352993
v -0.453469008 1.26246405 0.240491003
v -0.461198986 1.26099503 0.240649998
v 1.89286494 1.26115203 0.78471601
v 1.88247097 1.23137105 1.07384801
v 2.18275595 1.15572703 1.09393597
v 2.20534205 1.18892395 0.799471974
v 1.88220406 1.23060703 1.08126199
v 2.18217707 1.15487599 1.10148704
v 1.60623801 1.31172597 0.778614998
v 1.59732497 1.28225601 1.05679905
v 1.88247097 1.23137105 1.07384801
v 1.89286494 1.26115203 0.78471601
v 1.59709597 1.28149998 1.06393194
v 1.88220406 1.23060703 1.08126199
v 1.59709597 1.28149998 1.06393194
v 1.59732497 1.28225601 1.05679905
v 1.25552106 1.32075906 1.04443598
v 1.25533402 1.31998301 1.05121303
v 1.60623801 1.31172597 0.778614998
v 1.26279104 1.35101795 0.780135989
v 0.940971971 1.33660996 1.05242801
v 0.941091001 1.33737695 1.04582703
v 0.63913101 1.34247506 1.05620801
v 0.639352977 1.34179199 1.06291497
v 0.630452991 1.36910999 0.794649005
v 0.639352977 1.34179199 1.06291497
v 0.63913101 1.34247506 1.05620801
v 0.262042999 1.31512403 1.08757603
v 0.262609005 1.31442499 1.09447098
v 0.630452991 1.36910999 0.794649005
v 0.239956006 1.34237599 0.818669975
v 0.262609005 1.31442499 1.09447098
v 0.262042999 1.31512403 1.08757603
v -0.120716996 1.246804 1.14072394
v -0.119597003 1.24584103 1.148211
v 0.239956006 1.34237599 0.818669975
v -0.164370999 1.28438902 0.848710001
v 0.945752025 1.36729503 0.788385987
v 0.941091001 1.33737695 1.04582703
v 1.25552106 1.32075906 1.04443598
v 1.26279104 1.35101795 0.780135989
v 0.940971971 1.33660996 1.05242801
v 1.25533402 1.31998301 1.05121303
v -0.396560997 1.23719501 0.872174025
v -0.347000003 1.20163703 1.18507099
v -0.120716996 1.246804 1.14072394
v -0.164370999 1.28438902 0.848710001
v -0.345730007 1.20072603 1.19309402
v -0.119597003 1.24584103 1.148211
v -0.403741986 1.23573506 0.872900009
v -0.353998989 1.20024002 1.18644297
v -0.352723002 1.19932997 1.19448304
v 2.23782706 1.22551298 -0.221515
v 1.91700602 1.29705 -0.216166005
v 2.22237492 1.21237504 -0.504923999
v 2.20534205 1.18892395 -0.799471974
v 1.89286494 1.26115203 -0.78471601
v 1.904809 1.28415501 -0.497305989
v 2.23782706 1.22551298 -0.221515
v 1.91700602 1.29705 -0.216166005
v 1.91700602 1.29705 -0.216166005
v 1.61973798 1.34507895 -0.214597002
v 1.61973798 1.34507895 -0.214597002
v 1.268893 1.38199794 -0.214310005
v 0.943243027 1.39156306 -0.215662003
v 0.612653971 1.39342403 -0.221552998
v 0.612653971 1.39342403 -0.221552998
v 0.208067998 1.36878598 -0.230087996
v -0.203527004 1.309955 -0.235352993
v 1.268893 1.38199794 -0.214310005
v 1.61973798 1.34507895 -0.214597002
v 1.61378396 1.33393705 -0.494349986
v 1.26703095 1.37098598 -0.494697005
v 1.60623801 1.31172597 -0.778614998
v 1.26279104 1.35101795 -0.780135989
v 1.89286494 1.26115203 -0.78471601
v 1.60623801 1.31172597 -0.778614998
v 1.61378396 1.33393705 -0.494349986
v 1.904809 1.28415501 -0.497305989
v 1.61973798 1.34507895 -0.214597002
v 1.91700602 1.29705 -0.216166005
v 0.945318997 1.38473904 -0.497810006
v 0.621770024 1.38654196 -0.508185983
v 0.612653971 1.39342403 -0.221552998
v 0.943243027 1.39156306 -0.215662003
v 0.945752025 1.36729503 -0.788385987
v 0.630452991 1.36910999 -0.794649005
v 0.208067998 1.36878598 -0.230087996
v 0.612653971 1.39342403 -0.221552998
v 0.621770024 1.38654196 -0.508185983
v 0.221532002 1.36055398 -0.517337024
v 0.630452991 1.36910999 -0.794649005
v 0.239956006 1.34237599 -0.818669975
v -0.164370999 1.28438902 -0.848710001
v -0.192017004 1.30330205 -0.532395005
v 0.221532002 1.36055398 -0.517337024
v -0.203527004 1.309955 -0.235352993
v 0.208067998 1.36878598 -0.230087996
v 0.943243027 1.39156306 -0.215662003
v 1.268893 1.38199794 -0.214310005
v 0.945318997 1.38473904 -0.497810006
v 0.943243027 1.39156306 -0.215662003
v 1.268893 1.38199794 -0.214310005
v 1.26703095 1.37098598 -0.494697005
v 1.26279104 1.35101795 -0.780135989
v 0.945752025 1.36729503 -0.788385987
v -0.461198986 1.26099503 -0.240649998
v -0.453469008 1.26246405 -0.240491003
v -0.203527004 1.309955 -0.235352993
v -0.403741986 1.23573506 -0.872900009
v -0.442137986 1.252702 -0.545942008
v -0.434634 1.25422001 -0.545535028
v -0.396560997 1.23719501 -0.872174025
v -0.192017004 1.30330205 -0.532395005
v -0.164370999 1.28438902 -0.848710001
v -0.203527004 1.309955 -0.235352993
v -0.453469008 1.26246405 -0.240491003
v -0.461198986 1.26099503 -0.240649998
v 1.89286494 1.26115203 -0.78471601
v 2.20534205 1.18892395 -0.799471974
v 2.18275595 1.15572703 -1.09393597
v 1.88247097 1.23137105 -1.07384801
v 2.18217707 1.15487599 -1.10148704
v 1.88220406 1.23060703 -1.08126199
v 1.60623801 1.31172597 -0.778614998
v 1.89286494 1.26115203 -0.78471601
v 1.88247097 1.23137105 -1.07384801
v 1.59732497 1.28225601 -1.05679905
v 1.88220406 1.23060703 -1.08126199
v 1.59709597 1.28149998 -1.06393194
v 1.59709597 1.28149998 -1.06393194
v 1.25533402 1.31998301 -1.05121303
v 1.25552106 1.32075906 -1.04443598
v 1.59732497 1.28225601 -1.05679905
v 1.26279104 1.35101795 -0.780135989
v 1.60623801 1.31172597 -0.778614998
v 0.940971971 1.33660996 -1.05242801
v 0.639352977 1.34179199 -1.06291497
v 0.63913101 1.34247506 -1.05620801
v 0.941091001 1.33737695 -1.04582703
v 0.630452991 1.36910999 -0.794649005
v 0.639352977 1.34179199 -1.06291497
v 0.262609005 1.31442499 -1.09447098
v 0.262042999 1.31512403 -1.08757603
v 0.63913101 1.34247506 -1.05620801
v 0.239956006 1.34237599 -0.818669975
v 0.630452991 1.36910999 -0.794649005
v 0.262609005 1.31442499 -1.09447098
v -0.119597003 1.24584103 -1.148211
v -0.120716996 1.246804 -1.14072394
v 0.262042999 1.31512403 -1.08757603
v -0.164370999 1.28438902 -0.848710001
v 0.239956006 1.34237599 -0.818669975
v 0.945752025 1.36729503 -0.788385987
v 1.26279104 1.35101795 -0.780135989
v 1.25552106 1.32075906 -1.04443598
v 0.941091001 1.33737695 -1.04582703
v 1.25533402 1.31998301 -1.05121303
v 0.940971971 1.33660996 -1.05242801
v -0.396560997 1.23719501 -0.872174025
v -0.164370999 1.28438902 -0.848710001
v -0.120716996 1.246804 -1.14072394
v -0.347000003 1.20163703 -1.18507099
v -0.119597003 1.24584103 -1.148211
v -0.345730007 1.20072603 -1.19309402
v -0.403741986 1.23573506 -0.872900009
v -0.353998989 1.20024002 -1.18644297
v -0.352723002 1.19932997 -1.19448304
vt 1 0.375
vt 1 0.5
vt -0 0.5
vt -0 0.375
vt 0.5 0.375
vt 0.5 0.5
vt 0 0.5
vt -0 0.375
vt 1 0.375
vt 1 0.5
vt 0 0
vt 1 0
vt 1 1
vt 0 1
vt 0 0
vt 1 0
vt 1 1
vt 0 1
vt 0 0
vt 1 0
vt 1 1
vt 0 1
vt 0 0
vt 1 0
vt 1 1
vt 0 1
vt 0 0
vt 1 1
vt 0 1
vt 0 0
vt 0.5 0
vt 0.5 1
vt 0 1
vt 1 0
vt 1 1
vt 1 1
vt 0.5 1
vt 0.5 0
vt 1 0
vt 0 1
vt 0 0
vt 0.5 1
vt 0 1
vt 0 0
vt 0.5 -0
vt 1 1
vt 1 0
vt 0 0
vt 0.5 -0
vt 0.5 1
vt 0 1
vt 1 0
vt 1 1
vt 1 0.5
vt -0 0.5
vt 0 0
vt 1 1
vt 0 1
vt 1 0.5
vt 1 1
vt 0 1
vt 0 0.5
vt 0.5 0.5
vt 0.5 1
vt 0 1
vt -0 0.5
vt 1 0.5
vt 1 1
vt 0.375 0
vt 0.4375 -0
vt 0.4375 1
vt 0.375 1
vt 0.5 -0
vt 0.5 1
vt 0.375 -0
vt 0.4375 -0
vt 0.4375 0.5
vt 0.375 0.5
vt 0.5 0
vt 0.5 0.5
vt 0.5 1
vt 0.4375 1
vt 0.375 1
vt 0.5 0.5
vt 0.5 0.375
vt 0.625 0.375
vt 0.625 0.5
vt 0.5 0.25
vt 0.625 0.25
vt -0 0.5
vt 0 0.375
vt 1 0.375
vt 1 0.5
vt -0 0.25
vt 1 0.25
vt 1 0.25
vt 1 0.375
vt -0 0.375
vt -0 0.25
vt 1 0.5
vt 0 0.5
vt 1 0.25
vt 1 0.375
vt -0 0.375
vt -0 0.25
vt 0 0.5
vt 1 0.25
vt 1 0.375
vt 0 0.375
vt 0 0.25
vt 1 0.5
vt -0 0.5
vt 1 0.25
vt 1 0.375
vt 0 0.375
vt 0 0.25
vt 1 0.5
vt 0 0.5
vt 0.5 0.5
vt 0.5 0.375
vt 1 0.375
vt 1 0.5
vt 0.5 0.25
vt 1 0.25
vt 0.4375 0.5
vt 0.4375 0.375
vt 0.5 0.375
vt 0.5 0.5
vt 0.4375 0.25
vt 0.5 0.25
vt 0.375 0.5
vt 0.375 0.375
vt 0.375 0.25
vt -0 0.375
vt -0 0.5
vt 0.5 0.375
vt -0 0.375
vt 0 0.5
vt 0.5 0.5
vt 1 0.375
vt 1 0.5
vt 1 1
vt 1 0
vt 1 1
vt 1 0
vt 1 1
vt 1 0
vt 1 1
vt 1 0
vt 0 0
vt 0 0
vt 0 1
vt 0.5 1
vt 0.5 0
vt 1 1
vt 1 0
vt 1 1
vt 1 0
vt 0.5 0
vt 0.5 1
vt 0 0
vt 0 1
vt 0.5 1
vt 0.5 -0
vt 0 0
vt 0 1
vt 1 1
vt 1 0
vt 0 0
vt 0 1
vt 0.5 1
vt 0.5 -0
vt 1 1
vt 1 0
vt 0 0
vt -0 0.5
vt 1 0.5
vt 0 1
vt 1 1
vt 1 0.5
vt 1 1
vt 0.5 0.5
vt -0 0.5
vt 0 1
vt 0.5 1
vt 1 1
vt 1 0.5
vt 0.375 0
vt 0.4375 -0
vt 0.5 -0
vt 0.375 -0
vt 0.375 0.5
vt 0.4375 0.5
vt 0.4375 -0
vt 0.5 0.5
vt 0.5 0
vt 0.5 1
vt 0.4375 1
vt 0.375 1
vt 0.5 0.5
vt 0.625 0.5
vt 0.625 0.375
vt 0.5 0.375
vt 0.625 0.25
vt 0.5 0.25
vt -0 0.5
vt 1 0.5
vt 1 0.375
vt 0 0.375
vt 1 0.25
vt -0 0.25
vt 1 0.25
vt -0 0.25
vt -0 0.375
vt 1 0.375
vt 0 0.5
vt 1 0.5
vt 1 0.25
vt -0 0.25
vt -0 0.375
vt 1 0.375
vt 0 0.5
vt 1 0.25
vt 0 0.25
vt 0 0.375
vt 1 0.375
vt -0 0.5
vt 1 0.5
vt 1 0.25
vt 0 0.25
vt 0 0.375
vt 1 0.375
vt 0 0.5
vt 1 0.5
vt 0.5 0.5
vt 1 0.5
vt 1 0.375
vt 0.5 0.375
vt 1 0.25
vt 0.5 0.25
vt 0.4375 0.5
vt 0.5 0.5
vt 0.5 0.375
vt 0.4375 0.375
vt 0.5 0.25
vt 0.4375 0.25
vt 0.375 0.5
vt 0.375 0.375
vt 0.375 0.25
vn 0.223199993 0.974799991 0
vn 0.189700007 0.98180002 0
vn 0.190099999 0.981100023 0.0366000012
vn 0.220400006 0.974600017 0.0381000005
vn 0.2183 0.973200023 0.071800001
vn 0.192300007 0.978900015 0.0687000006
vn 0.196099997 0.975600004 0.0992000028
vn 0.222800002 0.969399989 0.102799997
vn 0.220400006 0.974600017 0.0381000005
vn 0.190099999 0.981100023 0.0366000012
vn 0.131099999 0.991400003 0
vn 0.132799998 0.99059999 0.0326000005
vn 0.190099999 0.981100023 0.0366000012
vn 0.189700007 0.98180002 0
vn 0.0676999986 0.997699976 0
vn 0.0691 0.997200012 0.0282000005
vn 0.132799998 0.99059999 0.0326000005
vn 0.131099999 0.991400003 0
vn -0.0281000007 0.999599993 0
vn -0.0275999997 0.99940002 0.0227000006
vn 0.0189999994 0.999499977 0.0236000009
vn 0.0165999997 0.999800026 0
vn -0.102600001 0.994700015 0
vn -0.1008 0.994599998 0.0253999997
vn -0.0275999997 0.99940002 0.0227000006
vn -0.0281000007 0.999599993 0
vn -0.165999994 0.985800028 0.0253999997
vn -0.102600001 0.994700015 0
vn -0.167899996 0.985800028 0
vn 0.0691 0.997200012 0.0282000005
vn 0.0749000013 0.995800018 0.0533000007
vn 0.137099996 0.988600016 0.0617999993
vn 0.132799998 0.99059999 0.0326000005
vn 0.0804999992 0.992500007 0.0918999985
vn 0.139799997 0.985599995 0.0947000012
vn 0.196099997 0.975600004 0.0992000028
vn 0.192300007 0.978900015 0.0687000006
vn 0.137099996 0.988600016 0.0617999993
vn 0.139799997 0.985599995 0.0947000012
vn 0.190099999 0.981100023 0.0366000012
vn 0.132799998 0.99059999 0.0326000005
vn 0.0243999995 0.998700023 0.0450999998
vn 0.0189999994 0.999499977 0.0236000009
vn -0.0275999997 0.99940002 0.0227000006
vn -0.0281000007 0.998600006 0.0441000015
vn 0.0307999998 0.995700002 0.0873000026
vn -0.0263 0.996100008 0.0838000029
vn -0.1008 0.994599998 0.0253999997
vn -0.100100003 0.993799984 0.0480999984
vn -0.0281000007 0.998600006 0.0441000015
vn -0.0275999997 0.99940002 0.0227000006
vn -0.101599999 0.99059999 0.0917999968
vn -0.0263 0.996100008 0.0838000029
vn -0.100100003 0.993799984 0.0480999984
vn -0.164900005 0.984899998 0.052099999
vn -0.162100002 0.98119998 0.104500003
vn -0.1008 0.994599998 0.0253999997
vn -0.165999994 0.985800028 0.0253999997
vn 0.0189999994 0.999499977 0.0236000009
vn 0.0691 0.997200012 0.0282000005
vn 0.0676999986 0.997699976 0
vn 0.0165999997 0.999800026 0
vn 0.0243999995 0.998700023 0.0450999998
vn 0.0749000013 0.995800018 0.0533000007
vn 0.0691 0.997200012 0.0282000005
vn 0.0189999994 0.999499977 0.0236000009
vn 0.0307999998 0.995700002 0.0873000026
vn 0.0804999992 0.992500007 0.0918999985
vn -0.191300005 0.98119998 0.0236000009
vn -0.191300005 0.98119998 0.0241
vn -0.191699997 0.981400013 0
vn -0.191699997 0.981400013 0
vn -0.165999994 0.985800028 0.0253999997
vn -0.167899996 0.985800028 0
vn -0.184499994 0.977100015 0.105599999
vn -0.184100002 0.976999998 0.107799999
vn -0.1919 0.979900002 0.0549999997
vn -0.191799998 0.979799986 0.0555999987
vn -0.162100002 0.98119998 0.104500003
vn -0.164900005 0.984899998 0.052099999
vn -0.165999994 0.985800028 0.0253999997
vn -0.191300005 0.98119998 0.0241
vn -0.191300005 0.98119998 0.0236000009
vn 0.196099997 0.975600004 0.0992000028
vn 0.200000003 0.97329998 0.1127
vn 0.231099993 0.965799987 0.117299996
vn 0.222800002 0.969399989 0.102799997
vn 0.202999994 0.972599983 0.112899996
vn 0.235400006 0.9648 0.117399998
vn 0.139799997 0.985599995 0.0947000012
vn 0.138899997 0.984200001 0.110100001
vn 0.200000003 0.97329998 0.1127
vn 0.196099997 0.975600004 0.0992000028
vn 0.138400003 0.984200001 0.109999999
vn 0.202999994 0.972599983 0.112899996
vn 0.138400003 0.984200001 0.109999999
vn 0.138899997 0.984200001 0.110100001
vn 0.0810000002 0.990199983 0.113799997
vn 0.0799999982 0.9903 0.113799997
vn 0.139799997 0.985599995 0.0947000012
vn 0.0804999992 0.992500007 0.0918999985
vn 0.0364000015 0.992999971 0.1118
vn 0.0351999998 0.993099988 0.111900002
vn -0.0227000006 0.994000018 0.106399998
vn -0.0220999997 0.994099975 0.106399998
vn -0.0263 0.996100008 0.0838000029
vn -0.0220999997 0.994099975 0.106399998
vn -0.0227000006 0.994000018 0.106399998
vn -0.1065 0.987299979 0.117799997
vn -0.111400001 0.986699998 0.118500002
vn -0.0263 0.996100008 0.0838000029
vn -0.101599999 0.99059999 0.0917999968
vn -0.111400001 0.986699998 0.118500002
vn -0.1065 0.987299979 0.117799997
vn -0.160500005 0.977400005 0.137500003
vn -0.161699995 0.977199972 0.137700006
vn -0.101599999 0.99059999 0.0917999968
vn -0.162100002 0.98119998 0.104500003
vn 0.0307999998 0.995700002 0.0873000026
vn 0.0351999998 0.993099988 0.111900002
vn 0.0810000002 0.990199983 0.113799997
vn 0.0804999992 0.992500007 0.0918999985
vn 0.0364000015 0.992999971 0.1118
vn 0.0799999982 0.9903 0.113799997
vn -0.184100002 0.976999998 0.107799999
vn -0.171200007 0.975099981 0.141000003
vn -0.160500005 0.977400005 0.137500003
vn -0.162100002 0.98119998 0.104500003
vn -0.167099997 0.975899994 0.140300006
vn -0.161699995 0.977199972 0.137700006
vn -0.184499994 0.977100015 0.105599999
vn -0.171599999 0.975499988 0.137799993
vn -0.167699993 0.976199985 0.1373
vn 0.220400006 0.974600017 -0.0381000005
vn 0.190099999 0.981100023 -0.0366000012
vn 0.2183 0.973200023 -0.071800001
vn 0.222800002 0.969399989 -0.102799997
vn 0.196099997 0.975600004 -0.0992000028
vn 0.192300007 0.978900015 -0.0687000006
vn 0.220400006 0.974600017 -0.0381000005
vn 0.190099999 0.981100023 -0.0366000012
vn 0.190099999 0.981100023 -0.0366000012
vn 0.132799998 0.99059999 -0.0326000005
vn 0.132799998 0.99059999 -0.0326000005
vn 0.0691 0.997200012 -0.0282000005
vn 0.0189999994 0.999499977 -0.0236000009
vn -0.0275999997 0.99940002 -0.0227000006
vn -0.0275999997 0.99940002 -0.0227000006
vn -0.1008 0.994599998 -0.0253999997
vn -0.165999994 0.985800028 -0.0253999997
vn 0.0691 0.997200012 -0.0282000005
vn 0.132799998 0.99059999 -0.0326000005
vn 0.137099996 0.988600016 -0.0617999993
vn 0.0749000013 0.995800018 -0.0533000007
vn 0.139799997 0.985599995 -0.0947000012
vn 0.0804999992 0.992500007 -0.0918999985
vn 0.196099997 0.975600004 -0.0992000028
vn 0.139799997 0.985599995 -0.0947000012
vn 0.137099996 0.988600016 -0.0617999993
vn 0.192300007 0.978900015 -0.0687000006
vn 0.132799998 0.99059999 -0.0326000005
vn 0.190099999 0.981100023 -0.0366000012
vn 0.0243999995 0.998700023 -0.0450999998
vn -0.0281000007 0.998600006 -0.0441000015
vn -0.0275999997 0.99940002 -0.0227000006
vn 0.0189999994 0.999499977 -0.0236000009
vn 0.0307999998 0.995700002 -0.0873000026
vn -0.0263 0.996100008 -0.0838000029
vn -0.1008 0.994599998 -0.0253999997
vn -0.0275999997 0.99940002 -0.0227000006
vn -0.0281000007 0.998600006 -0.0441000015
vn -0.100100003 0.993799984 -0.0480999984
vn -0.0263 0.996100008 -0.0838000029
vn -0.101599999 0.99059999 -0.0917999968
vn -0.162100002 0.98119998 -0.104500003
vn -0.164900005 0.984899998 -0.052099999
vn -0.100100003 0.993799984 -0.0480999984
vn -0.165999994 0.985800028 -0.0253999997
vn -0.1008 0.994599998 -0.0253999997
vn 0.0189999994 0.999499977 -0.0236000009
vn 0.0691 0.997200012 -0.0282000005
vn 0.0243999995 0.998700023 -0.0450999998
vn 0.0189999994 0.999499977 -0.0236000009
vn 0.0691 0.997200012 -0.0282000005
vn 0.0749000013 0.995800018 -0.0533000007
vn 0.0804999992 0.992500007 -0.0918999985
vn 0.0307999998 0.995700002 -0.0873000026
vn -0.191300005 0.98119998 -0.0236000009
vn -0.191300005 0.98119998 -0.0241
vn -0.165999994 0.985800028 -0.0253999997
vn -0.184499994 0.977100015 -0.105599999
vn -0.191799998 0.979799986 -0.0555999987
vn -0.1919 0.979900002 -0.0549999997
vn -0.184100002 0.976999998 -0.107799999
vn -0.164900005 0.984899998 -0.052099999
vn -0.162100002 0.98119998 -0.104500003
vn -0.165999994 0.985800028 -0.0253999997
vn -0.191300005 0.98119998 -0.0241
vn -0.191300005 0.98119998 -0.0236000009
vn 0.196099997 0.975600004 -0.0992000028
vn 0.222800002 0.969399989 -0.102799997
vn 0.231099993 0.965799987 -0.117299996
vn 0.200000003 0.97329998 -0.1127
vn 0.235400006 0.9648 -0.117399998
vn 0.202999994 0.972599983 -0.112899996
vn 0.139799997 0.985599995 -0.0947000012
vn 0.196099997 0.975600004 -0.0992000028
vn 0.200000003 0.97329998 -0.1127
vn 0.138899997 0.984200001 -0.110100001
vn 0.202999994 0.972599983 -0.112899996
vn 0.138400003 0.984200001 -0.109999999
vn 0.138400003 0.984200001 -0.109999999
vn 0.0799999982 0.9903 -0.113799997
vn 0.0810000002 0.990199983 -0.113799997
vn 0.138899997 0.984200001 -0.110100001
vn 0.0804999992 0.992500007 -0.0918999985
vn 0.139799997 0.985599995 -0.0947000012
vn 0.0364000015 0.992999971 -0.1118
vn -0.0220999997 0.994000018 -0.106399998
vn -0.0227000006 0.994000018 -0.106399998
vn 0.0351999998 0.993099988 -0.111900002
vn -0.0263 0.996100008 -0.0838000029
vn -0.0220999997 0.994000018 -0.106399998
vn -0.111400001 0.986699998 -0.118500002
vn -0.1065 0.987299979 -0.117799997
vn -0.0227000006 0.994000018 -0.106399998
vn -0.101599999 0.99059999 -0.0917999968
vn -0.0263 0.996100008 -0.0838000029
vn -0.111400001 0.986699998 -0.118500002
vn -0.161699995 0.977199972 -0.137700006
vn -0.160500005 0.977400005 -0.137500003
vn -0.1065 0.987299979 -0.117799997
vn -0.162100002 0.98119998 -0.104500003
vn -0.101599999 0.99059999 -0.0917999968
vn 0.0307999998 0.995700002 -0.0873000026
vn 0.0804999992 0.992500007 -0.0918999985
vn 0.0810000002 0.990199983 -0.113799997
vn 0.0351999998 0.993099988 -0.111900002
vn 0.0799999982 0.9903 -0.113799997
vn 0.0364000015 0.992999971 -0.1118
vn -0.184100002 0.976999998 -0.107799999
vn -0.162100002 0.98119998 -0.104500003
vn -0.160500005 0.977400005 -0.137500003
vn -0.171200007 0.975099981 -0.141000003
vn -0.161699995 0.977199972 -0.137700006
vn -0.167099997 0.975899994 -0.140300006
vn -0.184499994 0.977100015 -0.105599999
vn -0.171599999 0.975499988 -0.137799993
vn -0.167699993 0.976199985 -0.1373
f 1/1/1 2/2/2 3/3/3
f 1/1/1 3/3/3 4/4/4
f 5/5/5 6/6/6 7/7/7
f 5/5/5 7/7/7 8/8/8
f 9/9/9 10/10/10 6/6/6
f 9/9/9 6/6/6 5/5/5
f 11/11/11 12/12/12 13/13/13
f 11/11/11 13/13/13 14/14/14
f 15/15/15 16/16/16 17/17/17
f 15/15/15 17/17/17 18/18/18
f 19/19/19 20/20/20 21/21/21
f 19/19/19 21/21/21 22/22/22
f 23/23/23 24/24/24 25/25/25
f 23/23/23 25/25/25 26/26/26
f 27/27/27 24/24/24 28/28/28
f 27/27/27 28/28/28 29/29/29
f 30/30/30 31/31/31 32/32/32
f 30/30/30 32/32/32 33/33/33
f 31/31/31 34/34/34 35/35/35
f 31/31/31 35/35/35 32/32/32
f 36/36/36 37/37/37 38/38/38
f 36/36/36 38/38/38 39/39/39
f 37/37/37 40/40/40 41/41/41
f 37/37/37 41/41/41 38/38/38
f 42/42/42 43/43/43 44/44/44
f 42/42/42 44/44/44 45/45/45
f 46/46/46 42/42/42 45/45/45
f 46/46/46 45/45/45 47/47/47
f 48/48/48 49/49/49 50/50/50
f 48/48/48 50/50/50 51/51/51
f 49/49/49 52/52/52 53/53/53
f 49/49/49 53/53/53 50/50/50
f 52/52/52 54/54/54 55/55/55
f 52/52/52 55/55/55 56/56/56
f 54/54/54 57/57/57 58/58/58
f 54/54/54 58/58/58 55/55/55
f 59/59/59 60/60/60 61/61/61
f 59/59/59 61/61/61 62/62/62
f 63/63/63 64/64/64 65/65/65
f 63/63/63 65/65/65 66/66/66
f 64/64/64 63/63/63 67/67/67
f 64/64/64 67/67/67 68/68/68
f 69/69/69 70/70/70 71/71/71
f 69/69/69 71/71/71 72/72/72
f 70/70/70 73/73/73 74/74/74
f 70/70/70 74/74/74 71/71/71
f 75/75/75 76/76/76 77/77/77
f 75/75/75 77/77/77 78/78/78
f 76/76/76 79/79/79 80/80/80
f 76/76/76 80/80/80 77/77/77
f 81/81/81 82/82/82 77/77/77
f 81/81/81 77/77/77 80/80/80
f 82/82/82 83/83/83 78/78/78
f 82/82/82 78/78/78 77/77/77
f 84/84/84 85/85/85 86/86/86
f 84/84/84 86/86/86 87/87/87
f 85/85/85 88/88/88 89/89/89
f 85/85/85 89/89/89 86/86/86
f 90/90/90 91/91/91 92/92/92
f 90/90/90 92/92/92 93/93/93
f 91/91/91 94/94/94 95/95/95
f 91/91/91 95/95/95 92/92/92
f 96/96/96 97/97/97 98/98/98
f 96/96/96 98/98/98 99/99/99
f 97/97/97 100/100/100 101/101/101
f 97/97/97 101/101/101 98/98/98
f 102/102/102 103/103/103 104/104/104
f 102/102/102 104/104/104 105/105/105
f 103/103/103 67/67/67 106/106/106
f 103/103/103 106/106/106 104/104/104
f 107/107/107 108/108/108 109/109/109
f 107/107/107 109/109/109 110/110/110
f 108/108/108 111/111/111 112/112/112
f 108/108/108 112/112/112 109/109/109
f 113/113/113 114/114/114 115/115/115
f 113/113/113 115/115/115 116/116/116
f 114/114/114 117/117/117 118/118/118
f 114/114/114 118/118/118 115/115/115
f 119/119/119 120/120/120 121/121/121
f 119/119/119 121/121/121 122/122/122
f 120/120/120 123/123/123 124/124/124
f 120/120/120 124/124/124 121/121/121
f 125/125/125 126/126/126 127/127/127
f 125/125/125 127/127/127 128/128/128
f 126/126/126 129/129/129 130/130/130
f 126/126/126 130/130/130 127/127/127
f 131/131/131 132/132/132 126/126/126
f 131/131/131 126/126/126 125/125/125
f 132/132/132 133/133/133 129/129/129
f 132/132/132 129/129/129 126/126/126
f 1/1/1 134/134/134 135/135/135
f 1/1/1 135/135/135 2/2/2
f 136/136/136 137/137/137 138/138/138
f 136/136/136 138/138/138 139/139/139
f 140/140/140 136/136/136 139/139/139
f 140/140/140 139/139/139 141/141/141
f 11/11/11 14/14/14 142/142/142
f 11/11/11 142/142/142 143/143/143
f 15/15/15 18/18/18 144/144/144
f 15/15/15 144/144/144 145/145/145
f 19/19/19 22/22/22 146/146/146
f 19/19/19 146/146/146 147/147/147
f 23/23/23 26/26/26 148/148/148
f 23/23/23 148/148/148 149/149/149
f 150/150/150 29/29/29 28/28/28
f 150/150/150 28/28/28 149/149/149
f 151/151/151 152/152/152 153/153/153
f 151/151/151 153/153/153 154/154/154
f 154/154/154 153/153/153 155/155/155
f 154/154/154 155/155/155 156/156/156
f 157/157/157 158/158/158 159/159/159
f 157/157/157 159/159/159 160/160/160
f 160/160/160 159/159/159 161/161/161
f 160/160/160 161/161/161 162/162/162
f 163/163/163 164/164/164 165/165/165
f 163/163/163 165/165/165 166/166/166
f 167/167/167 168/168/168 164/164/164
f 167/167/167 164/164/164 163/163/163
f 169/169/169 170/170/170 171/171/171
f 169/169/169 171/171/171 172/172/172
f 172/172/172 171/171/171 173/173/173
f 172/172/172 173/173/173 174/174/174
f 174/174/174 175/175/175 176/176/176
f 174/174/174 176/176/176 177/177/177
f 177/177/177 176/176/176 178/178/178
f 177/177/177 178/178/178 179/179/179
f 180/180/180 62/62/62 61/61/61
f 180/180/180 61/61/61 181/181/181
f 182/182/182 183/183/183 184/184/184
f 182/182/182 184/184/184 185/185/185
f 185/185/185 186/186/186 187/187/187
f 185/185/185 187/187/187 182/182/182
f 188/188/188 72/72/72 71/71/71
f 188/188/188 71/71/71 189/189/189
f 189/189/189 71/71/71 74/74/74
f 189/189/189 74/74/74 190/190/190
f 191/191/191 192/192/192 193/193/193
f 191/191/191 193/193/193 194/194/194
f 194/194/194 193/193/193 195/195/195
f 194/194/194 195/195/195 196/196/196
f 197/197/197 195/195/195 193/193/193
f 197/197/197 193/193/193 198/198/198
f 198/198/198 193/193/193 192/192/192
f 198/198/198 192/192/192 199/199/199
f 200/200/200 201/201/201 202/202/202
f 200/200/200 202/202/202 203/203/203
f 203/203/203 202/202/202 204/204/204
f 203/203/203 204/204/204 205/205/205
f 206/206/206 207/207/207 208/208/208
f 206/206/206 208/208/208 209/209/209
f 209/209/209 208/208/208 210/210/210
f 209/209/209 210/210/210 211/211/211
f 212/212/212 213/213/213 214/214/214
f 212/212/212 214/214/214 215/215/215
f 215/215/215 214/214/214 216/216/216
f 215/215/215 216/216/216 217/217/217
f 218/218/218 219/219/219 220/220/220
f 218/218/218 220/220/220 221/221/221
f 221/221/221 220/220/220 222/222/222
f 221/221/221 222/222/222 187/187/187
f 223/223/223 224/224/224 225/225/225
f 223/223/223 225/225/225 226/226/226
f 226/226/226 225/225/225 227/227/227
f 226/226/226 227/227/227 228/228/228
f 229/229/229 230/230/230 231/231/231
f 229/229/229 231/231/231 232/232/232
f 232/232/232 231/231/231 233/233/233
f 232/232/232 233/233/233 234/234/234
f 235/235/235 236/236/236 237/237/237
f 235/235/235 237/237/237 238/238/238
f 238/238/238 237/237/237 239/239/239
f 238/238/238 239/239/239 240/240/240
f 241/241/241 242/242/242 243/243/243
f 241/241/241 243/243/243 244/244/244
f 244/244/244 243/243/243 245/245/245
f 244/244/244 245/245/245 246/246/246
f 247/247/247 241/241/241 244/244/244
f 247/247/247 244/244/244 248/248/248
f 248/248/248 244/244/244 246/246/246
f 248/248/248 246/246/246 249/249/249
