# Generated by lxe_pbrt_scene_convert
v 2.76229906 -0.719682992 -1.72504795
v 2.74627495 -0.706430972 -1.72552001
v 2.75109506 -0.706175983 -1.72552204
v 2.74978495 -0.710606992 -1.72549295
v 2.74437189 -0.70896697 -1.72550404
v 2.74830294 -0.710991025 -1.72510505
v 2.74424505 -0.711884022 -1.72548497
v 2.75560808 -0.717652977 -1.72506106
v 2.7478559 -0.712035 -1.72509801
v 2.73841 -0.711631 -1.72548699
v 2.74183512 -0.710869014 -1.725492
v 2.73650694 -0.713913977 -1.72547197
v 2.7474699 -0.713114977 -1.72547698
v 2.75287199 -0.720445991 -1.72543001
v 2.74361205 -0.715044022 -1.72546506
v 2.74181104 -0.715427995 -1.72507596
v 2.73599005 -0.717976987 -1.72493398
v 2.74960589 -0.722689986 -1.72502899
v 2.74091101 -0.715623021 -1.72546101
v 2.74052501 -0.717166007 -1.72545099
v 2.7466979 -0.72526902 -1.72539902
v 2.74733806 -0.731649995 -1.72497201
v 2.71737504 -0.689773023 -1.72562802
v 2.7065711 -0.701153994 -1.72555399
v 2.71100807 -0.68919301 -1.72563195
v 2.69576812 -0.68996501 -1.72562599
v 2.70174789 -0.689387023 -1.72563004
v 2.71845508 -0.709010005 -1.72511697
v 2.71293712 -0.696331978 -1.72558606
v 2.70059109 -0.696331978 -1.72558606
v 2.694031 -0.708678007 -1.72550595
v 2.71293712 -0.708099008 -1.72550905
v 2.70876694 -0.708483994 -1.72512102
v 2.70444894 -0.708099008 -1.72550905
v 2.70018411 -0.708244979 -1.72512305
v 2.66142511 -0.70709002 -1.72512996
v 2.6659441 -0.703319013 -1.725541
v 2.67782092 -0.718617022 -1.72505605
v 2.66817999 -0.715049028 -1.72546506
v 2.65458012 -0.714254975 -1.72508395
v 2.65801597 -0.710546017 -1.72549403
v 2.66162109 -0.71658802 -1.72545505
v 2.66123509 -0.723146975 -1.72541296
v 2.67365909 -0.722642004 -1.72502995
v 2.67019296 -0.726522028 -1.72500503
v 2.64871693 -0.723509014 -1.72502398
v 2.65197492 -0.718903005 -1.72544003
v 2.66690612 -0.731737018 -1.72497106
v 2.76229906 -0.719672024 -1.723261
v 2.74627495 -0.706413984 -1.72281504
v 2.75127411 -0.705766022 -1.723351
v 2.74961305 -0.710978985 -1.72317302
v 2.7439909 -0.708817005 -1.72333097
v 2.74830294 -0.710978985 -1.72317302
v 2.74424505 -0.711866975 -1.72277999
v 2.75616288 -0.71767801 -1.72274303
v 2.7478559 -0.712022007 -1.72316599
v 2.73841 -0.711614013 -1.72278202
v 2.74187112 -0.71045202 -1.72332096
v 2.73612499 -0.713755012 -1.72329903
v 2.7478559 -0.712972999 -1.72316003
v 2.75287199 -0.72042799 -1.72272503
v 2.743433 -0.715416014 -1.72314405
v 2.74181104 -0.715416014 -1.72314405
v 2.73599005 -0.71796602 -1.72327197
v 2.75017095 -0.722743988 -1.72271097
v 2.74091101 -0.715605021 -1.72275603
v 2.7409451 -0.717064977 -1.72313404
v 2.7466979 -0.725251019 -1.72269499
v 2.74739289 -0.731096983 -1.72265697
v 2.71774912 -0.689404011 -1.72345996
v 2.7065711 -0.701137006 -1.72284997
v 2.71100807 -0.689176023 -1.72292697
v 2.69576812 -0.689947009 -1.72292197
v 2.70199704 -0.688960016 -1.72346306
v 2.71845508 -0.708998978 -1.72333395
v 2.71293712 -0.696313977 -1.72288001
v 2.70059109 -0.696313977 -1.72288001
v 2.69360209 -0.709110975 -1.723333
v 2.71255112 -0.708437026 -1.72333801
v 2.70876694 -0.708472013 -1.72333801
v 2.70416903 -0.708472013 -1.72333801
v 2.70018411 -0.708234012 -1.72333896
v 2.67782092 -0.718605995 -1.72334301
v 2.66142511 -0.707078993 -1.72341704
v 2.66599298 -0.702724993 -1.72344506
v 2.66817999 -0.715031981 -1.72275996
v 2.65458012 -0.714244008 -1.72337103
v 2.6578989 -0.710058987 -1.72339797
v 2.66162109 -0.71657002 -1.72275102
v 2.66123509 -0.723128974 -1.72270799
v 2.67358208 -0.722163975 -1.72271395
v 2.67019296 -0.726511002 -1.72329199
v 2.64871693 -0.723497987 -1.72331095
v 2.65197492 -0.718886018 -1.72273505
v 2.66675806 -0.731231987 -1.72265601
v 2.66691399 -0.714052975 -1.72337198
v 2.66011 -0.722193003 -1.72331905
v 2.66690612 -0.731725991 -1.72325802
v 2.66298294 -0.717638016 -1.72334898
v 2.67365909 -0.722630978 -1.72331595
v 2.66599298 -0.702735007 -1.72515702
v 2.66691399 -0.714064002 -1.72508502
v 2.66011 -0.722203016 -1.72503197
v 2.66298294 -0.717648983 -1.72506201
v 2.74733806 -0.731639028 -1.72318399
v 2.75293899 -0.719883025 -1.72504699
v 2.74677801 -0.724731982 -1.725016
v 2.70655298 -0.700078011 -1.72339106
v 2.70084405 -0.698329985 -1.72340202
v 2.71255112 -0.698436975 -1.72340202
v 2.70655298 -0.700088978 -1.72517502
v 2.70084405 -0.698341012 -1.72518599
v 2.71255112 -0.698449016 -1.72518504
v 2.66476011 -0.74158299 -1.72484899
v 2.66360593 -0.753208995 -1.72477496
v 2.66360593 -0.753196001 -1.72281802
v 2.66476011 -0.741569996 -1.72289205
v 2.66556501 -0.764961004 -1.72469902
v 2.66556501 -0.76494801 -1.72274196
v 2.67098594 -0.728845 -1.72493196
v 2.67098594 -0.72883302 -1.72297394
v 2.68023205 -0.718722999 -1.72499704
v 2.68023205 -0.718711019 -1.72303998
v 2.69300604 -0.711896002 -1.72503996
v 2.69300604 -0.711884022 -1.72308302
v 2.70677996 -0.709493995 -1.72505605
v 2.70677996 -0.709481001 -1.72309899
v 2.72214007 -0.71183598 -1.72504103
v 2.72214007 -0.711824 -1.72308302
v 2.73362207 -0.719034016 -1.72499394
v 2.73362207 -0.719021022 -1.723037
v 2.7432251 -0.729471982 -1.72492695
v 2.7432251 -0.729458988 -1.72297001
v 2.74844408 -0.74011898 -1.724859
v 2.74844408 -0.740105987 -1.72290206
v 2.75011301 -0.75306201 -1.72477603
v 2.75011301 -0.753049016 -1.72281802
v 2.74489498 -0.772894025 -1.724648
v 2.74489498 -0.772880971 -1.72269106
v 2.73403907 -0.785628021 -1.72456598
v 2.73403907 -0.785615027 -1.72260904
v 2.72088695 -0.793142974 -1.72451794
v 2.72088695 -0.793129981 -1.722561
v 2.70669103 -0.795911014 -1.72449994
v 2.70669103 -0.79589802 -1.722543
v 2.69437408 -0.794187009 -1.72451198
v 2.69437408 -0.794174016 -1.72255397
v 2.68143106 -0.787923992 -1.72455204
v 2.68143106 -0.787912011 -1.72259402
v 2.670784 -0.776859999 -1.72462296
v 2.670784 -0.776847005 -1.72266495
v 2.70673609 -0.752690017 -1.722821
v 2.66287398 -0.753214002 -1.72474694
v 2.664047 -0.741392016 -1.72482395
v 2.66486597 -0.765165985 -1.72467005
v 2.67037892 -0.728438973 -1.72490704
v 2.67978096 -0.718145013 -1.72497296
v 2.69277096 -0.711202979 -1.72501802
v 2.70677805 -0.708760977 -1.725034
v 2.72239709 -0.711143017 -1.72501802
v 2.73407292 -0.71846199 -1.72497106
v 2.74383903 -0.729076028 -1.72490299
v 2.74914598 -0.739902973 -1.72483301
v 2.750844 -0.75306499 -1.72474802
v 2.74553704 -0.773231983 -1.72461903
v 2.73449802 -0.786181986 -1.72453594
v 2.72112393 -0.793824017 -1.72448599
v 2.70668793 -0.796639979 -1.72446799
v 2.69416189 -0.794885993 -1.72447896
v 2.68099999 -0.788516998 -1.72451997
v 2.67017293 -0.777266026 -1.72459304
v 2.63692498 -0.753421009 -1.72386599
v 2.63878989 -0.734631002 -1.72398603
v 2.63878989 -0.734622002 -1.72259796
v 2.63692498 -0.753412008 -1.72247803
v 2.64009094 -0.772417009 -1.72374296
v 2.64009094 -0.772408009 -1.72235501
v 2.64885306 -0.714043975 -1.72411895
v 2.64885306 -0.714034975 -1.72273099
v 2.6637969 -0.69768399 -1.72422504
v 2.6637969 -0.69767499 -1.72283602
v 2.684443 -0.686649024 -1.72429502
v 2.684443 -0.686640978 -1.72290695
v 2.70670605 -0.682766974 -1.72432005
v 2.70670605 -0.682757974 -1.72293198
v 2.7315321 -0.686553001 -1.72429597
v 2.7315321 -0.686544001 -1.72290802
v 2.75008988 -0.69818598 -1.72422099
v 2.75008988 -0.69817698 -1.72283304
v 2.76561093 -0.715057015 -1.72411203
v 2.76561093 -0.715049028 -1.72272396
v 2.77404594 -0.732264996 -1.724002
v 2.77404594 -0.732255995 -1.72261405
v 2.77674508 -0.753184021 -1.72386706
v 2.77674508 -0.75317502 -1.72247899
v 2.76831007 -0.785238028 -1.72366095
v 2.76831007 -0.785229027 -1.72227299
v 2.75076389 -0.805819988 -1.72352803
v 2.75076389 -0.805810988 -1.72213995
v 2.72950697 -0.817966998 -1.72344995
v 2.72950697 -0.817957997 -1.72206199
v 2.706563 -0.822441995 -1.72342098
v 2.706563 -0.822432995 -1.72203302
v 2.68665504 -0.819653988 -1.72344005
v 2.68665504 -0.819644988 -1.72205198
v 2.66573501 -0.809531987 -1.72350395
v 2.66573501 -0.809522986 -1.72211599
v 2.64852691 -0.791648984 -1.72361898
v 2.64852691 -0.791639984 -1.72223103
v 2.74187112 -0.710462987 -1.72498298
v 2.65042496 -0.790386975 -1.72362697
v 2.64226389 -0.771780014 -1.72374797
v 2.64226389 -0.771784008 -1.72430396
v 2.65042496 -0.790391028 -1.72418499
v 2.66707397 -0.807687998 -1.72351694
v 2.66707397 -0.807691991 -1.72407305
v 2.68731403 -0.817481995 -1.72345304
v 2.68731403 -0.817484975 -1.72400999
v 2.70657301 -0.820177972 -1.723436
v 2.70657301 -0.820181012 -1.72399294
v 2.72877192 -0.815849006 -1.72346401
v 2.72877192 -0.815853 -1.72402096
v 2.74933791 -0.804096997 -1.72353899
v 2.74933791 -0.80410099 -1.72409594
v 2.76631308 -0.784184992 -1.72366798
v 2.76631308 -0.784188986 -1.72422504
v 2.77447391 -0.753172994 -1.72386706
v 2.77447391 -0.753176987 -1.724424
v 2.77186298 -0.732935011 -1.723997
v 2.77186298 -0.732937992 -1.72455502
v 2.76370096 -0.716286004 -1.72410405
v 2.76370096 -0.716289997 -1.72466195
v 2.74868488 -0.699963987 -1.72420895
v 2.74868488 -0.69996798 -1.72476602
v 2.73073101 -0.688709021 -1.72428203
v 2.73073101 -0.688713014 -1.72483802
v 2.70671201 -0.685046017 -1.72430503
v 2.70671201 -0.685048997 -1.72486305
v 2.68517399 -0.688802004 -1.72428095
v 2.68517399 -0.688805997 -1.72483802
v 2.66519904 -0.699477017 -1.724213
v 2.66519904 -0.69948101 -1.724769
v 2.6507411 -0.715305984 -1.72411096
v 2.6507411 -0.715309024 -1.72466695
v 2.64100504 -0.735224009 -1.72398305
v 2.64100504 -0.735228002 -1.72453904
v 2.63920093 -0.753401995 -1.72386599
v 2.63920093 -0.753405988 -1.72442305
v 2.64852691 -0.791652977 -1.724177
v 2.64009094 -0.772419989 -1.72430003
v 2.66573501 -0.809535027 -1.72406101
v 2.68665504 -0.819657981 -1.723997
v 2.706563 -0.822444975 -1.72397804
v 2.72950697 -0.817970991 -1.72400701
v 2.75076389 -0.805823982 -1.72408497
v 2.76831007 -0.785241008 -1.72421801
v 2.77674508 -0.753188014 -1.724424
v 2.77404594 -0.732268989 -1.724558
v 2.76561093 -0.715061009 -1.72466898
v 2.75008988 -0.698189974 -1.72477806
v 2.7315321 -0.686556995 -1.72485197
v 2.70670605 -0.682770014 -1.724877
v 2.684443 -0.686653018 -1.72485197
v 2.6637969 -0.69768697 -1.72478104
v 2.64885306 -0.714047015 -1.72467601
v 2.63878989 -0.734634995 -1.72454298
v 2.63692498 -0.753425002 -1.72442305
vn 0.793600023 -0.0914999992 -0.601499975
vn -0.345499992 0.667400002 -0.659699976
vn 0.293599993 0.686699986 -0.665000021
vn -0.156800002 -0.458400011 -0.874800026
vn -0.685500026 0.224000007 -0.692700028
vn 0.284399986 -0.638599992 -0.714999974
vn -0.0746999979 0.0644999966 -0.995100021
vn -0.489800006 0.0412999988 -0.870800018
vn 0.719600022 -0.154400006 -0.676999986
vn -0.396800011 0.628300011 -0.669200003
vn 0.0447999984 0.491899997 -0.869499981
vn -0.656599998 0.242799997 -0.713999987
vn 0.466199994 0.275599986 -0.840600014
vn 0.0254999995 0.105700001 -0.994000018
vn -0.202000007 -0.481999993 -0.852599978
vn 0.294 -0.6875 -0.663999975
vn -0.748199999 -0.256700009 -0.611800015
vn -0.528100014 0.0395999998 -0.84829998
vn -0.0843999982 0.773800015 -0.627699971
vn 0.402500004 0.0132999998 -0.915300012
vn 0.0537 0.0952999964 -0.994000018
vn -0.0817999989 -0.823700011 -0.56099999
vn 0.558000028 0.545099974 -0.625699997
vn 0.0174000002 0.0193000007 -0.999599993
vn -0.421499997 0.662699997 -0.619000018
vn -0.555700004 0.536599994 -0.63499999
vn 0.382999986 0.670599997 -0.635200024
vn 0.538600028 -0.578400016 -0.612600029
vn 0.0107000005 -0.0251000002 -0.999599993
vn 0.00100000005 -0.0198999997 -0.999800026
vn -0.551100016 -0.56220001 -0.616599977
vn -0.557600021 -0.518299997 -0.648400009
vn 0.457300007 -0.671500027 -0.583000004
vn -0.433999985 -0.618200004 -0.655300021
vn 0.588999987 -0.561800003 -0.580900013
vn -0.823400021 0.0467000008 -0.565500021
vn 0.0295000002 0.383300006 -0.923200011
vn 0.814400017 -0.0711999983 -0.575800002
vn 0.0286999997 0.0318999998 -0.999100029
vn -0.802999973 0.0284000002 -0.595300019
vn -0.185200006 0.718299985 -0.670599997
vn -0.00700000022 0.0206000004 -0.999800026
vn -0.0188999996 -0.0731000006 -0.997099996
vn 0.138300002 -0.800400019 -0.583199978
vn 0.805800021 0.0366999991 -0.591000021
vn -0.803900003 -0.232299998 -0.547500014
vn -0.233799994 0.750800014 -0.617799997
vn 0.2333 -0.780499995 -0.579900026
vn 0.77609998 -0.107699998 -0.621299982
vn -0.299400002 0.656300008 -0.692499995
vn 0.232999995 0.678499997 -0.69660002
vn -0.162900001 -0.495999992 -0.852900028
vn -0.726199985 0.250800014 -0.640100002
vn 0.2852 -0.466199994 -0.837400019
vn -0.179900005 0.407499999 -0.895299971
vn -0.477400005 -0.0489999987 -0.877300024
vn 0.598800004 -0.151800007 -0.78640002
vn -0.351300001 0.653999984 -0.670000017
vn 0.102899998 0.737800002 -0.667100012
vn -0.664499998 0.3495 -0.66049999
vn 0.60680002 0.123400003 -0.7852
vn 0.0159000009 0.379599988 -0.925000012
vn -0.2051 -0.562699974 -0.800800025
vn 0.437000006 -0.686500013 -0.581200004
vn -0.707799971 -0.246900007 -0.661800027
vn -0.362800002 0.0331999995 -0.931299984
vn 0.515999973 -0.72240001 0.460200012
vn 0.674399972 0.0832000002 -0.73360002
vn 0.0829000026 0.393599987 -0.915499985
vn -0.0935000032 -0.941200018 0.324499995
vn 0.492900014 0.545300007 -0.677999973
vn -0.0167999994 0.106600001 -0.994099975
vn -0.463099986 0.647599995 -0.605000019
vn -0.56220001 0.496699989 -0.661199987
vn 0.346599996 0.652499974 -0.673799992
vn 0.507000029 -0.550800025 -0.662899971
vn 0.0151000004 -0.0912000015 -0.995700002
vn 0.0170000009 -0.00270000007 -0.999800026
vn -0.531199992 -0.504199982 -0.680899978
vn -0.573099971 -0.4815 -0.662999988
vn 0.446500003 -0.63319999 -0.632200003
vn -0.458099991 -0.580299973 -0.673399985
vn 0.585699975 -0.529100001 -0.613900006
vn 0.826099992 -0.138500005 -0.546199977
vn -0.832899988 0.0248000007 -0.552900016
vn 0.0693999976 0.814199984 -0.576300025
vn -0.0904000029 -0.0395000018 -0.995100021
vn -0.778999984 -0.00150000001 -0.626999974
vn -0.142299995 0.723500013 -0.675499976
vn 0.0465000011 -0.100900002 -0.993799984
vn -0.0102000004 0.176599994 -0.984200001
vn 0.0945999995 -0.995400012 0.0119000003
vn 0.839699984 0.0177999996 -0.542800009
vn -0.819700003 -0.161400005 -0.549600005
vn -0.171399996 0.808000028 -0.563600004
vn 0.236900002 -0.964299977 0.118000001
vn -0.448399991 0.348100007 0.823199987
vn -0.458700001 0.380899996 0.8028
vn 0.273900002 -0.9102 0.310499996
vn 0.400000006 -0.306300014 0.863799989
vn 0.157600001 -0.941200018 0.298799992
vn 0.0775000006 0.911599994 -0.403800011
vn -0.311100006 0.231600001 -0.921700001
vn -0.345400006 0.276199996 -0.896899998
vn 0.292499989 -0.233899996 -0.927200019
vn -0.0956000015 -0.934700012 0.342400014
vn 0.103500001 0.839600027 -0.533200026
vn 0.128399998 0.84799999 -0.514100015
vn -0.0107000005 0.700200021 0.71390003
vn 0.0571999997 -0.419 0.906199992
vn -0.069600001 -0.395599991 0.915700018
vn -0.00860000029 0.551800013 -0.833899975
vn 0.0428999998 -0.320199996 -0.94630003
vn -0.0509000011 -0.302100003 -0.951900005
vn -0.622099996 0.181600004 0.761600018
vn -0.659200013 -0.0168999992 0.751699984
vn -0.734099984 -0.0199999996 0.678799987
vn -0.714699984 0.207300007 0.668099999
vn -0.63410002 -0.183899999 0.750999987
vn -0.702499986 -0.204699993 0.681599975
vn -0.542999983 0.374199986 0.751699984
vn -0.608900011 0.418599993 0.673799992
vn -0.398299992 0.51730001 0.757499993
vn -0.455000013 0.589699984 0.667200029
vn -0.212400004 0.621399999 0.754100025
vn -0.240899995 0.703499973 0.668600023
vn -0.00689999992 0.656099975 0.754599988
vn -0.00789999962 0.744300008 0.667699993
vn 0.222399995 0.603900015 0.765399992
vn 0.26030001 0.704999983 0.659600019
vn 0.421400011 0.511900008 0.74849999
vn 0.469700009 0.569400012 0.674600005
vn 0.541800022 0.37529999 0.751999974
vn 0.608099997 0.420100003 0.673500001
vn 0.623099983 0.192200005 0.75819999
vn 0.708999991 0.217500001 0.670799971
vn 0.640500009 -0.0362000018 0.767099977
vn 0.744000018 -0.0438000001 0.666700006
vn 0.560299993 -0.287900001 0.776600003
vn 0.665499985 -0.343600005 0.662500024
vn 0.413300008 -0.493800014 0.764999986
vn 0.473500013 -0.566999972 0.674000025
vn 0.226500005 -0.604900002 0.763400018
vn 0.2579 -0.689499974 0.676699996
vn 0.0172000006 -0.644800007 0.764199972
vn 0.0197999999 -0.736100018 0.676500022
vn -0.189700007 -0.619799972 0.761399984
vn -0.214699998 -0.702700019 0.678300023
vn -0.379900008 -0.51849997 0.765999973
vn -0.436199993 -0.596899986 0.673399985
vn -0.537599981 -0.354900002 0.764900029
vn -0.617200017 -0.408699989 0.672299981
vn 0 0.00639999984 1
vn 0.0373000018 0.00769999996 0.999300003
vn 0.0353999995 -0.00359999994 0.99940002
vn 0.0359999985 0.0171000008 0.999199986
vn 0.0307999998 -0.0144999996 0.99940002
vn 0.0228000004 -0.0228000004 0.999499977
vn 0.0120999999 -0.0286999997 0.999499977
vn 0.00039999999 -0.0306000002 0.999499977
vn -0.0127999997 -0.0280000009 0.999499977
vn -0.0238000005 -0.0221999995 0.999499977
vn -0.0307999998 -0.0146000003 0.99940002
vn -0.0355999991 -0.00419999985 0.999300003
vn -0.0373999998 0.00889999978 0.999199986
vn -0.0333000012 0.0238000005 0.999100029
vn -0.0241 0.0355999991 0.999100029
vn -0.0131999999 0.0419000015 0.999000013
vn -0.00100000005 0.0439000018 0.999000013
vn 0.0108000003 0.0421999991 0.999000013
vn 0.0218000002 0.0366000012 0.999100029
vn 0.0308999997 0.0271000005 0.999100029
vn 0.999499977 0.0331000015 -0.000199999995
vn 0.961899996 -0.273200005 0.00179999997
vn 0.961899996 -0.273299992 0.00170000002
vn 0.999499977 0.0331000015 -0.000199999995
vn 0.958400011 0.2852 -0.00179999997
vn 0.958400011 0.2852 -0.00179999997
vn 0.826799989 -0.5625 0.00359999994
vn 0.826699972 -0.5625 0.00359999994
vn 0.613699973 -0.789499998 0.00499999989
vn 0.613699973 -0.789499998 0.00510000018
vn 0.325700015 -0.9454 0.00600000005
vn 0.325700015 -0.9454 0.00600000005
vn 0.0107000005 -0.999899983 0.00650000013
vn 0.0107000005 -0.999899983 0.00630000001
vn -0.348199993 -0.937399983 0.00600000005
vn -0.348199993 -0.937399983 0.00609999988
vn -0.639199972 -0.768999994 0.00480000023
vn -0.639199972 -0.768999994 0.00499999989
vn -0.825500011 -0.564400017 0.00340000005
vn -0.825500011 -0.564400017 0.00359999994
vn -0.957599998 -0.287900001 0.00179999997
vn -0.957599998 -0.287900001 0.00179999997
vn -0.997900009 0.0644999966 -0.00039999999
vn -0.997900009 0.0644999966 -0.00039999999
vn -0.886200011 0.463200003 -0.00289999996
vn -0.886200011 0.463200003 -0.00300000003
vn -0.638100028 0.769900024 -0.00490000006
vn -0.638100028 0.769999981 -0.00490000006
vn -0.348399997 0.937300026 -0.00609999988
vn -0.348399997 0.937300026 -0.00600000005
vn -0.0266999993 0.999599993 -0.00650000013
vn -0.0266999993 0.999599993 -0.00639999984
vn 0.290699989 0.956799984 -0.00620000018
vn 0.290600002 0.956799984 -0.00609999988
vn 0.587199986 0.809400022 -0.00520000001
vn 0.587199986 0.809400022 -0.00510000018
vn 0.83099997 0.556100011 -0.00350000011
vn 0.83099997 0.556100011 -0.00350000011
vn 0.0974999964 0.954299986 -0.282400012
vn -0.607800007 -0.402399987 0.684499979
vn -0.691100001 -0.201199993 0.694100022
vn -0.648800015 -0.1884 0.737200022
vn -0.550800025 -0.363799989 0.75120002
vn -0.429500014 -0.587700009 0.685599983
vn -0.389099985 -0.531499982 0.752399981
vn -0.211400002 -0.691600025 0.690599978
vn -0.194299996 -0.634800017 0.747799993
vn 0.0196000002 -0.724699974 0.688799977
vn 0.0177999996 -0.660700023 0.750400007
vn 0.253899992 -0.678600013 0.689100027
vn 0.232199997 -0.619799972 0.749599993
vn 0.466100007 -0.558000028 0.686500013
vn 0.423500001 -0.506200016 0.75120002
vn 0.655900002 -0.338499993 0.674700022
vn 0.575200021 -0.295700014 0.762700021
vn 0.732900023 -0.0430999994 0.678900003
vn 0.656700015 -0.0375999995 0.753199995
vn 0.698099971 0.214300007 0.683099985
vn 0.638000011 0.196600005 0.744499981
vn 0.598500013 0.413700014 0.68599999
vn 0.55430001 0.3838 0.738499999
vn 0.462199986 0.560400009 0.68720001
vn 0.431100011 0.523400009 0.735000014
vn 0.256500006 0.694999993 0.671700001
vn 0.228 0.618700027 0.751800001
vn -0.00779999979 0.73299998 0.680100024
vn -0.00710000005 0.671500027 0.740999997
vn -0.237100005 0.692799985 0.680999994
vn -0.217399999 0.635999978 0.740400016
vn -0.448100001 0.580900013 0.679499984
vn -0.407900006 0.529500008 0.743700027
vn -0.599300027 0.412200004 0.686200023
vn -0.555700004 0.382800013 0.737999976
vn -0.70389998 0.204400003 0.680199981
vn -0.637199998 0.185800001 0.747900009
vn -0.722299993 -0.0195000004 0.691200018
vn -0.674499989 -0.0175999999 0.738099992
vn 0.617200017 0.417299986 0.666999996
vn 0.702400029 0.213400006 0.678900003
vn 0.436199993 0.605499983 0.665600002
vn 0.2148 0.711300015 0.669200003
vn -0.0197999999 0.744799972 0.666899979
vn -0.2579 0.698300004 0.667699993
vn -0.473500013 0.575600028 0.666700006
vn -0.665499985 0.351999998 0.658100009
vn -0.744000018 0.0522000007 0.666100025
vn -0.709100008 -0.208900005 0.673399985
vn -0.608299971 -0.411599994 0.67869997
vn -0.469700009 -0.560699999 0.681800008
vn -0.26030001 -0.696500003 0.668600023
vn 0.00789999962 -0.735599995 0.677299976
vn 0.240899995 -0.694800019 0.677600026
vn 0.455000013 -0.581099987 0.674700022
vn 0.608900011 -0.409799993 0.679099977
vn 0.714600027 -0.198599994 0.670700014
vn 0.734000027 0.0286999997 0.678499997
f 1//1 2//2 3//3
f 1//1 4//4 2//2
f 4//4 5//5 2//2
f 4//4 6//6 5//5
f 6//6 7//7 5//5
f 1//1 8//8 4//4
f 9//9 7//7 6//6
f 7//7 10//10 11//11
f 7//7 12//12 10//10
f 9//9 12//12 7//7
f 13//13 12//12 9//9
f 14//14 15//15 13//13
f 15//15 12//12 13//13
f 15//15 16//16 12//12
f 16//16 17//17 12//12
f 14//14 18//18 15//15
f 19//19 17//17 16//16
f 20//20 17//17 19//19
f 21//21 17//17 20//20
f 1//1 14//14 8//8
f 21//21 22//22 17//17
f 22//22 14//14 1//1
f 22//22 18//18 14//14
f 22//22 21//21 18//18
f 23//23 24//24 25//25
f 24//24 26//26 27//27
f 28//28 29//29 23//23
f 29//29 24//24 23//23
f 24//24 30//30 26//26
f 30//30 31//31 26//26
f 28//28 32//32 29//29
f 33//33 24//24 29//29
f 24//24 34//34 30//30
f 35//35 31//31 30//30
f 33//33 34//34 24//24
f 36//36 37//37 38//38
f 38//38 39//39 36//36
f 39//39 40//40 41//41
f 39//39 42//42 40//40
f 42//42 43//43 40//40
f 38//38 42//42 39//39
f 38//38 44//44 42//42
f 45//45 43//43 42//42
f 43//43 46//46 47//47
f 45//45 46//46 43//43
f 45//45 48//48 46//46
f 49//49 50//50 51//51
f 49//49 52//52 50//50
f 52//52 53//53 50//50
f 52//52 54//54 53//53
f 54//54 55//55 53//53
f 49//49 56//56 52//52
f 57//57 55//55 54//54
f 55//55 58//58 59//59
f 55//55 60//60 58//58
f 57//57 60//60 55//55
f 61//61 60//60 57//57
f 62//62 63//63 61//61
f 63//63 60//60 61//61
f 63//63 64//64 60//60
f 64//64 65//65 60//60
f 62//62 66//66 63//63
f 67//67 65//65 64//64
f 68//68 65//65 67//67
f 69//69 65//65 68//68
f 49//49 62//62 56//56
f 69//69 70//70 65//65
f 70//70 62//62 49//49
f 70//70 66//66 62//62
f 70//70 69//69 66//66
f 71//71 72//72 73//73
f 72//72 74//74 75//75
f 76//76 77//77 71//71
f 77//77 72//72 71//71
f 72//72 78//78 74//74
f 78//78 79//79 74//74
f 76//76 80//80 77//77
f 81//81 72//72 77//77
f 72//72 82//82 78//78
f 83//83 79//79 78//78
f 81//81 82//82 72//72
f 84//84 85//85 86//86
f 84//84 87//87 85//85
f 87//87 88//88 89//89
f 87//87 90//90 88//88
f 90//90 91//91 88//88
f 84//84 90//90 87//87
f 84//84 92//92 90//90
f 93//93 91//91 90//90
f 91//91 94//94 95//95
f 93//93 94//94 91//91
f 93//93 96//96 94//94
f 85//85 97//97 87//87
f 97//97 89//89 87//87
f 88//88 98//98 91//91
f 98//98 95//95 91//91
f 94//94 99//99 96//96
f 99//99 93//93 96//96
f 93//93 100//100 90//90
f 100//100 101//101 92//92
f 100//100 92//92 90//90
f 101//101 84//84 92//92
f 37//37 36//36 102//102
f 36//36 39//39 103//103
f 39//39 41//41 103//103
f 40//40 43//43 104//104
f 43//43 47//47 104//104
f 45//45 42//42 105//105
f 42//42 44//44 105//105
f 38//38 37//37 102//102
f 65//65 106//106 70//70
f 106//106 49//49 70//70
f 8//8 107//107 62//62
f 8//8 62//62 56//56
f 107//107 13//13 61//61
f 107//107 61//61 62//62
f 13//13 9//9 57//57
f 13//13 57//57 61//61
f 9//9 6//6 54//54
f 9//9 54//54 57//57
f 6//6 4//4 52//52
f 6//6 52//52 54//54
f 4//4 8//8 56//56
f 4//4 56//56 52//52
f 8//8 14//14 107//107
f 14//14 13//13 107//107
f 68//68 64//64 67//67
f 18//18 108//108 69//69
f 18//18 69//69 66//66
f 108//108 20//20 68//68
f 108//108 68//68 69//69
f 20//20 16//16 64//64
f 20//20 64//64 68//68
f 16//16 15//15 63//63
f 16//16 63//63 64//64
f 15//15 18//18 66//66
f 15//15 66//66 63//63
f 18//18 21//21 108//108
f 21//21 20//20 108//108
f 20//20 19//19 16//16
f 73//73 109//109 72//72
f 109//109 75//75 72//72
f 83//83 110//110 78//78
f 110//110 82//82 78//78
f 81//81 111//111 77//77
f 111//111 80//80 77//77
f 25//25 24//24 112//112
f 24//24 27//27 112//112
f 35//35 30//30 113//113
f 30//30 34//34 113//113
f 33//33 29//29 114//114
f 29//29 32//32 114//114
f 115//115 116//116 117//117
f 115//115 117//117 118//118
f 116//116 119//119 120//120
f 116//116 120//120 117//117
f 121//121 115//115 118//118
f 121//121 118//118 122//122
f 123//123 121//121 122//122
f 123//123 122//122 124//124
f 125//125 123//123 124//124
f 125//125 124//124 126//126
f 127//127 125//125 126//126
f 127//127 126//126 128//128
f 129//129 127//127 128//128
f 129//129 128//128 130//130
f 131//131 129//129 130//130
f 131//131 130//130 132//132
f 133//133 131//131 132//132
f 133//133 132//132 134//134
f 135//135 133//133 134//134
f 135//135 134//134 136//136
f 137//137 135//135 136//136
f 137//137 136//136 138//138
f 139//139 137//137 138//138
f 139//139 138//138 140//140
f 141//141 139//139 140//140
f 141//141 140//140 142//142
f 143//143 141//141 142//142
f 143//143 142//142 144//144
f 145//145 143//143 144//144
f 145//145 144//144 146//146
f 147//147 145//145 146//146
f 147//147 146//146 148//148
f 149//149 147//147 148//148
f 149//149 148//148 150//150
f 151//151 149//149 150//150
f 151//151 150//150 152//152
f 119//119 151//151 152//152
f 119//119 152//152 120//120
f 126//126 153//153 128//128
f 124//124 153//153 126//126
f 122//122 153//153 124//124
f 118//118 153//153 122//122
f 118//118 117//117 153//153
f 117//117 120//120 153//153
f 120//120 152//152 153//153
f 150//150 153//153 152//152
f 148//148 153//153 150//150
f 146//146 153//153 148//148
f 128//128 153//153 130//130
f 130//130 153//153 132//132
f 132//132 153//153 134//134
f 134//134 153//153 136//136
f 136//136 153//153 138//138
f 144//144 153//153 146//146
f 142//142 153//153 144//144
f 140//140 153//153 142//142
f 138//138 153//153 140//140
f 154//154 116//116 115//115
f 154//154 115//115 155//155
f 156//156 119//119 116//116
f 156//156 116//116 154//154
f 155//155 115//115 121//121
f 155//155 121//121 157//157
f 157//157 121//121 123//123
f 157//157 123//123 158//158
f 158//158 123//123 125//125
f 158//158 125//125 159//159
f 159//159 125//125 127//127
f 159//159 127//127 160//160
f 160//160 127//127 129//129
f 160//160 129//129 161//161
f 161//161 129//129 131//131
f 161//161 131//131 162//162
f 162//162 131//131 133//133
f 162//162 133//133 163//163
f 163//163 133//133 135//135
f 163//163 135//135 164//164
f 164//164 135//135 137//137
f 164//164 137//137 165//165
f 165//165 137//137 139//139
f 165//165 139//139 166//166
f 166//166 139//139 141//141
f 166//166 141//141 167//167
f 167//167 141//141 143//143
f 167//167 143//143 168//168
f 168//168 143//143 145//145
f 168//168 145//145 169//169
f 169//169 145//145 147//147
f 169//169 147//147 170//170
f 170//170 147//147 149//149
f 170//170 149//149 171//171
f 171//171 149//149 151//151
f 171//171 151//151 172//172
f 172//172 151//151 119//119
f 172//172 119//119 156//156
f 173//173 174//174 175//175
f 173//173 175//175 176//176
f 177//177 173//173 176//176
f 177//177 176//176 178//178
f 174//174 179//179 180//180
f 174//174 180//180 175//175
f 179//179 181//181 182//182
f 179//179 182//182 180//180
f 181//181 183//183 184//184
f 181//181 184//184 182//182
f 183//183 185//185 186//186
f 183//183 186//186 184//184
f 185//185 187//187 188//188
f 185//185 188//188 186//186
f 187//187 189//189 190//190
f 187//187 190//190 188//188
f 189//189 191//191 192//192
f 189//189 192//192 190//190
f 191//191 193//193 194//194
f 191//191 194//194 192//192
f 193//193 195//195 196//196
f 193//193 196//196 194//194
f 195//195 197//197 198//198
f 195//195 198//198 196//196
f 197//197 199//199 200//200
f 197//197 200//200 198//198
f 199//199 201//201 202//202
f 199//199 202//202 200//200
f 201//201 203//203 204//204
f 201//201 204//204 202//202
f 203//203 205//205 206//206
f 203//203 206//206 204//204
f 205//205 207//207 208//208
f 205//205 208//208 206//206
f 207//207 209//209 210//210
f 207//207 210//210 208//208
f 209//209 177//177 178//178
f 209//209 178//178 210//210
f 11//11 211//211 7//7
f 10//10 211//211 11//11
f 3//3 51//51 49//49
f 3//3 49//49 1//1
f 2//2 50//50 51//51
f 2//2 51//51 3//3
f 5//5 53//53 50//50
f 5//5 50//50 2//2
f 7//7 55//55 53//53
f 7//7 53//53 5//5
f 211//211 59//59 55//55
f 211//211 55//55 7//7
f 10//10 58//58 59//59
f 10//10 59//59 211//211
f 12//12 60//60 58//58
f 12//12 58//58 10//10
f 17//17 65//65 60//60
f 17//17 60//60 12//12
f 22//22 106//106 65//65
f 22//22 65//65 17//17
f 1//1 49//49 106//106
f 1//1 106//106 22//22
f 25//25 73//73 71//71
f 25//25 71//71 23//23
f 112//112 109//109 73//73
f 112//112 73//73 25//25
f 27//27 75//75 109//109
f 27//27 109//109 112//112
f 26//26 74//74 75//75
f 26//26 75//75 27//27
f 31//31 79//79 74//74
f 31//31 74//74 26//26
f 35//35 83//83 79//79
f 35//35 79//79 31//31
f 113//113 110//110 83//83
f 113//113 83//83 35//35
f 34//34 82//82 110//110
f 34//34 110//110 113//113
f 33//33 81//81 82//82
f 33//33 82//82 34//34
f 114//114 111//111 81//81
f 114//114 81//81 33//33
f 32//32 80//80 111//111
f 32//32 111//111 114//114
f 28//28 76//76 80//80
f 28//28 80//80 32//32
f 23//23 71//71 76//76
f 23//23 76//76 28//28
f 36//36 85//85 86//86
f 36//36 86//86 102//102
f 103//103 97//97 85//85
f 103//103 85//85 36//36
f 41//41 89//89 97//97
f 41//41 97//97 103//103
f 40//40 88//88 89//89
f 40//40 89//89 41//41
f 104//104 98//98 88//88
f 104//104 88//88 40//40
f 47//47 95//95 98//98
f 47//47 98//98 104//104
f 46//46 94//94 95//95
f 46//46 95//95 47//47
f 48//48 99//99 94//94
f 48//48 94//94 46//46
f 45//45 93//93 99//99
f 45//45 99//99 48//48
f 105//105 100//100 93//93
f 105//105 93//93 45//45
f 44//44 101//101 100//100
f 44//44 100//100 105//105
f 38//38 84//84 101//101
f 38//38 101//101 44//44
f 102//102 86//86 84//84
f 102//102 84//84 38//38
f 212//212 213//213 214//214
f 212//212 214//214 215//215
f 216//216 212//212 215//215
f 216//216 215//215 217//217
f 218//218 216//216 217//217
f 218//218 217//217 219//219
f 220//220 218//218 219//219
f 220//220 219//219 221//221
f 222//222 220//220 221//221
f 222//222 221//221 223//223
f 224//224 222//222 223//223
f 224//224 223//223 225//225
f 226//226 224//224 225//225
f 226//226 225//225 227//227
f 228//228 226//226 227//227
f 228//228 227//227 229//229
f 230//230 228//228 229//229
f 230//230 229//229 231//231
f 232//232 230//230 231//231
f 232//232 231//231 233//233
f 234//234 232//232 233//233
f 234//234 233//233 235//235
f 236//236 234//234 235//235
f 236//236 235//235 237//237
f 238//238 236//236 237//237
f 238//238 237//237 239//239
f 240//240 238//238 239//239
f 240//240 239//239 241//241
f 242//242 240//240 241//241
f 242//242 241//241 243//243
f 244//244 242//242 243//243
f 244//244 243//243 245//245
f 246//246 244//244 245//245
f 246//246 245//245 247//247
f 213//213 248//248 249//249
f 213//213 249//249 214//214
f 248//248 246//246 247//247
f 248//248 247//247 249//249
f 177//177 209//209 250//250
f 177//177 250//250 251//251
f 209//209 207//207 252//252
f 209//209 252//252 250//250
f 207//207 205//205 253//253
f 207//207 253//253 252//252
f 205//205 203//203 254//254
f 205//205 254//254 253//253
f 203//203 201//201 255//255
f 203//203 255//255 254//254
f 201//201 199//199 256//256
f 201//201 256//256 255//255
f 199//199 197//197 257//257
f 199//199 257//257 256//256
f 197//197 195//195 258//258
f 197//197 258//258 257//257
f 195//195 193//193 259//259
f 195//195 259//259 258//258
f 193//193 191//191 260//260
f 193//193 260//260 259//259
f 191//191 189//189 261//261
f 191//191 261//261 260//260
f 189//189 187//187 262//262
f 189//189 262//262 261//261
f 187//187 185//185 263//263
f 187//187 263//263 262//262
f 185//185 183//183 264//264
f 185//185 264//264 263//263
f 183//183 181//181 265//265
f 183//183 265//265 264//264
f 181//181 179//179 266//266
f 181//181 266//266 265//265
f 179//179 174//174 267//267
f 179//179 267//267 266//266
f 173//173 177//177 251//251
f 173//173 251//251 268//268
f 174//174 173//173 268//268
f 174//174 268//268 267//267
f 266//266 267//267 247//247
f 266//266 247//247 245//245
f 214//214 251//251 250//250
f 214//214 250//250 215//215
f 217//217 252//252 253//253
f 217//217 253//253 219//219
f 223//223 221//221 254//254
f 223//223 254//254 255//255
f 227//227 225//225 256//256
f 227//227 256//256 257//257
f 259//259 231//231 229//229
f 259//259 229//229 258//258
f 261//261 235//235 233//233
f 261//261 233//233 260//260
f 263//263 239//239 237//237
f 263//263 237//237 262//262
f 267//267 268//268 249//249
f 267//267 249//249 247//247
f 215//215 250//250 252//252
f 215//215 252//252 217//217
f 219//219 253//253 254//254
f 219//219 254//254 221//221
f 225//225 223//223 255//255
f 225//225 255//255 256//256
f 229//229 227//227 257//257
f 229//229 257//257 258//258
f 260//260 233//233 231//231
f 260//260 231//231 259//259
f 262//262 237//237 235//235
f 262//262 235//235 261//261
f 263//263 264//264 241//241
f 263//263 241//241 239//239
f 265//265 266//266 245//245
f 265//265 245//245 243//243
f 249//249 268//268 251//251
f 249//249 251//251 214//214
f 264//264 265//265 243//243
f 264//264 243//243 241//241
