# Generated by lxe_pbrt_scene_convert
v -4.37689686 -0.861797988 1.04358602
v -4.4212842 -0.861797988 1.04358602
v -4.41876793 -0.844937027 1.04098701
v -4.37438202 -0.844937027 1.04098701
v -4.32999516 -0.844937027 1.04098701
v -4.33250999 -0.861797988 1.04358602
v -4.33074522 -0.874275982 1.065485
v -4.37513208 -0.874275982 1.065485
v -4.41951799 -0.874275982 1.065485
v -4.37036085 -0.82415098 1.04335797
v -4.41474819 -0.82415098 1.04335797
v -4.40921497 -0.800391972 1.05031598
v -4.36482906 -0.800391972 1.05031598
v -4.3204422 -0.800391972 1.05031598
v -4.32597399 -0.82415098 1.04335797
v -4.12635708 -0.826478004 1.52549696
v -4.08956003 -0.795920014 1.54583895
v -4.13394594 -0.795920014 1.54583895
v -4.17074299 -0.826478004 1.52549696
v -4.21521997 -0.849156976 1.49828005
v -4.17083406 -0.849156976 1.49828005
v -4.1264472 -0.849156976 1.49828005
v -4.08197021 -0.826478004 1.52549696
v -4.04517412 -0.795920014 1.54583895
v -4.07167816 -0.758746028 1.55874002
v -4.11606407 -0.758746028 1.55874002
v -4.02729082 -0.758746028 1.55874002
v -4.02872419 -0.724887013 1.55913901
v -4.07311106 -0.724887013 1.55913901
v -4.11749697 -0.724887013 1.55913901
v -4.09426117 -0.704273999 1.54197896
v -4.13864803 -0.704273999 1.54197896
v -4.11749697 -0.724887013 1.55913901
v -4.07311106 -0.724887013 1.55913901
v -4.02872419 -0.724887013 1.55913901
v -4.04987383 -0.704273999 1.54197896
v -4.0840168 -0.693937004 1.51058495
v -4.12840414 -0.693937004 1.51058495
v -4.172791 -0.693937004 1.51058495
v -4.16881323 -0.690901995 1.46828496
v -4.21320009 -0.690901995 1.46828496
v -4.172791 -0.693937004 1.51058495
v -4.12840414 -0.693937004 1.51058495
v -4.0840168 -0.693937004 1.51058495
v -4.12442589 -0.690901995 1.46828496
v -4.16972303 -0.691426992 1.41102302
v -4.21410894 -0.691426992 1.41102302
v -4.25849581 -0.691426992 1.41102302
v -4.26291323 -0.69176501 1.33474302
v -4.30730009 -0.69176501 1.33474302
v -4.25849581 -0.691426992 1.41102302
v -4.21410894 -0.691426992 1.41102302
v -4.16972303 -0.691426992 1.41102302
v -4.21852589 -0.69176501 1.33474302
v -4.25805092 -0.692502975 1.26086795
v -4.30243778 -0.692502975 1.26086795
v -4.34682417 -0.692502975 1.26086795
v -4.36631203 -0.88191402 1.12101197
v -4.35157919 -0.885405004 1.19254994
v -4.39596605 -0.885405004 1.19254994
v -4.41069889 -0.88191402 1.12101197
v -4.32192612 -0.88191402 1.12101197
v -4.30719185 -0.885405004 1.19254994
v -4.33207083 -0.885443985 1.26247895
v -4.30824184 -0.882664979 1.32638097
v -4.35262918 -0.882664979 1.32638097
v -4.37645817 -0.885443985 1.26247895
v -4.39596605 -0.885405004 1.19254994
v -4.35157919 -0.885405004 1.19254994
v -4.30719185 -0.885405004 1.19254994
v -4.28768396 -0.885443985 1.26247895
v -4.26385498 -0.882664979 1.32638097
v -4.2805438 -0.877705991 1.37983799
v -4.24853086 -0.870929003 1.42518401
v -4.29291821 -0.870929003 1.42518401
v -4.32493019 -0.877705991 1.37983799
v -4.35262918 -0.882664979 1.32638097
v -4.30824184 -0.882664979 1.32638097
v -4.26385498 -0.882664979 1.32638097
v -4.23615694 -0.877705991 1.37983799
v -4.20414495 -0.870929003 1.42518401
v -4.211761 -0.862693012 1.46475303
v -4.17083406 -0.849156976 1.49828005
v -4.21521997 -0.849156976 1.49828005
v -4.25614691 -0.862693012 1.46475303
v -4.29291821 -0.870929003 1.42518401
v -4.24853086 -0.870929003 1.42518401
v -4.20414495 -0.870929003 1.42518401
v -4.16737413 -0.862693012 1.46475303
v -4.1264472 -0.849156976 1.49828005
v -4.35777807 -0.774609029 1.06147504
v -4.36482906 -0.800391972 1.05031598
v -4.40921497 -0.800391972 1.05031598
v -4.40216398 -0.774609029 1.06147504
v -4.39495897 -0.748645008 1.07413006
v -4.35057306 -0.748645008 1.07413006
v -4.3061862 -0.748645008 1.07413006
v -4.31339216 -0.774609029 1.06147504
v -4.3204422 -0.800391972 1.05031598
v -4.34457588 -0.724341989 1.08557403
v -4.38896179 -0.724341989 1.08557403
v -4.38330984 -0.70618403 1.10323703
v -4.33892393 -0.70618403 1.10323703
v -4.29453707 -0.70618403 1.10323703
v -4.30018902 -0.724341989 1.08557403
v -4.31989813 -0.694225013 1.21081901
v -4.36428499 -0.694225013 1.21081901
v -4.34682417 -0.692502975 1.26086795
v -4.30243778 -0.692502975 1.26086795
v -4.25805092 -0.692502975 1.26086795
v -4.27551079 -0.694225013 1.21081901
v -4.28193998 -0.696439981 1.17268395
v -4.32632589 -0.696439981 1.17268395
v -4.37071323 -0.696439981 1.17268395
v -4.33275414 -0.698655009 1.13454795
v -4.377141 -0.698655009 1.13454795
v -4.28836823 -0.698655009 1.13454795
v -4.37689686 -0.861797988 -1.04358602
v -4.37438202 -0.844937027 -1.04098701
v -4.41876793 -0.844937027 -1.04098701
v -4.4212842 -0.861797988 -1.04358602
v -4.41951799 -0.874275982 -1.065485
v -4.37513208 -0.874275982 -1.065485
v -4.33074522 -0.874275982 -1.065485
v -4.33250999 -0.861797988 -1.04358602
v -4.32999516 -0.844937027 -1.04098701
v -4.37036085 -0.82415098 -1.04335797
v -4.41474819 -0.82415098 -1.04335797
v -4.32597399 -0.82415098 -1.04335797
v -4.3204422 -0.800391972 -1.05031598
v -4.36482906 -0.800391972 -1.05031598
v -4.40921497 -0.800391972 -1.05031598
v -4.12635612 -0.826478004 -1.52549696
v -4.17074299 -0.826478004 -1.52549696
v -4.13394594 -0.795920014 -1.54583895
v -4.08956003 -0.795920014 -1.54583895
v -4.04517412 -0.795920014 -1.54583895
v -4.08197021 -0.826478004 -1.52549696
v -4.1264472 -0.849156976 -1.49828005
v -4.17083406 -0.849156976 -1.49828005
v -4.21521997 -0.849156976 -1.49828005
v -4.07167816 -0.758746028 -1.55874002
v -4.11606407 -0.758746028 -1.55874002
v -4.11749697 -0.724887013 -1.55913901
v -4.07311106 -0.724887013 -1.55913901
v -4.02872419 -0.724887013 -1.55913901
v -4.02729082 -0.758746028 -1.55874002
v -4.09426117 -0.704273999 -1.54197896
v -4.07311106 -0.724887013 -1.55913901
v -4.11749697 -0.724887013 -1.55913901
v -4.13864803 -0.704273999 -1.54197896
v -4.172791 -0.693937004 -1.51058495
v -4.12840414 -0.693937004 -1.51058495
v -4.0840168 -0.693937004 -1.51058495
v -4.04987383 -0.704273999 -1.54197896
v -4.02872419 -0.724887013 -1.55913901
v -4.16881323 -0.690901995 -1.46828496
v -4.12840414 -0.693937004 -1.51058495
v -4.172791 -0.693937004 -1.51058495
v -4.21320009 -0.690901995 -1.46828496
v -4.25849581 -0.691426992 -1.41102302
v -4.21410894 -0.691426992 -1.41102302
v -4.16972303 -0.691426992 -1.41102302
v -4.12442589 -0.690901995 -1.46828496
v -4.0840168 -0.693937004 -1.51058495
v -4.26291323 -0.69176501 -1.33474302
v -4.21410894 -0.691426992 -1.41102302
v -4.25849581 -0.691426992 -1.41102302
v -4.30730009 -0.69176501 -1.33474302
v -4.34682417 -0.692502975 -1.26086795
v -4.30243778 -0.692502975 -1.26086795
v -4.25805092 -0.692502975 -1.26086795
v -4.21852589 -0.69176501 -1.33474302
v -4.16972303 -0.691426992 -1.41102302
v -4.36631298 -0.88191402 -1.12101197
v -4.41069889 -0.88191402 -1.12101197
v -4.39596605 -0.885405004 -1.19254994
v -4.35157919 -0.885405004 -1.19254994
v -4.30719185 -0.885405004 -1.19254994
v -4.32192612 -0.88191402 -1.12101197
v -4.33207083 -0.885443985 -1.26247895
v -4.37645817 -0.885443985 -1.26247895
v -4.35262918 -0.882664979 -1.32638097
v -4.30824184 -0.882664979 -1.32638097
v -4.26385498 -0.882664979 -1.32638097
v -4.28768396 -0.885443985 -1.26247895
v -4.30719185 -0.885405004 -1.19254994
v -4.35157919 -0.885405004 -1.19254994
v -4.39596605 -0.885405004 -1.19254994
v -4.2805438 -0.877705991 -1.37983799
v -4.32493019 -0.877705991 -1.37983799
v -4.29291821 -0.870929003 -1.42518401
v -4.24853086 -0.870929003 -1.42518401
v -4.20414495 -0.870929003 -1.42518401
v -4.23615694 -0.877705991 -1.37983799
v -4.26385498 -0.882664979 -1.32638097
v -4.30824184 -0.882664979 -1.32638097
v -4.35262918 -0.882664979 -1.32638097
v -4.21176004 -0.862693012 -1.46475303
v -4.25614691 -0.862693012 -1.46475303
v -4.21521997 -0.849156976 -1.49828005
v -4.17083406 -0.849156976 -1.49828005
v -4.1264472 -0.849156976 -1.49828005
v -4.16737413 -0.862693012 -1.46475303
v -4.20414495 -0.870929003 -1.42518401
v -4.24853086 -0.870929003 -1.42518401
v -4.29291821 -0.870929003 -1.42518401
v -4.35777903 -0.774609029 -1.06147504
v -4.40216398 -0.774609029 -1.06147504
v -4.40921497 -0.800391972 -1.05031598
v -4.36482906 -0.800391972 -1.05031598
v -4.3204422 -0.800391972 -1.05031598
v -4.31339216 -0.774609029 -1.06147504
v -4.3061862 -0.748645008 -1.07413006
v -4.35057306 -0.748645008 -1.07413006
v -4.39495897 -0.748645008 -1.07413006
v -4.34457493 -0.724341989 -1.08557403
v -4.33892393 -0.70618403 -1.10323703
v -4.38330984 -0.70618403 -1.10323703
v -4.38896179 -0.724341989 -1.08557403
v -4.30018902 -0.724341989 -1.08557403
v -4.29453707 -0.70618403 -1.10323703
v -4.31989813 -0.694225013 -1.21081901
v -4.30243778 -0.692502975 -1.26086795
v -4.34682417 -0.692502975 -1.26086795
v -4.36428499 -0.694225013 -1.21081901
v -4.37071323 -0.696439981 -1.17268395
v -4.32632589 -0.696439981 -1.17268395
v -4.28193998 -0.696439981 -1.17268395
v -4.27551079 -0.694225013 -1.21081901
v -4.25805092 -0.692502975 -1.26086795
v -4.33275509 -0.698655009 -1.13454795
v -4.377141 -0.698655009 -1.13454795
v -4.28836823 -0.698655009 -1.13454795
vt 0.5 0.5
vt 0.5 0
vt 0 0
vt 0 0.5
vt 0 1
vt 0.5 1
vt 1 1
vt 1 0.5
vt 1 0
vt 0.5 0.5
vt 0.5 0
vt 1 0
vt 1 0.5
vt 1 1
vt 0.5 1
vt 0.5 0.5
vt 0 0.5
vt 0 0
vt 0.5 0
vt 1 0
vt 1 0.5
vt 1 1
vt 0.5 1
vt 0 1
vt 0.5 0.5
vt 0.5 0
vt 0.5 1
vt 1 1
vt 1 0.5
vt 1 0
vt 0.5 0.5
vt 0.5 0
vt 0 0
vt 0 0.5
vt 0 1
vt 0.5 1
vt 1 1
vt 1 0.5
vt 1 0
vt 0.5 0.5
vt 0.5 0
vt 0 0
vt 0 0.5
vt 0 1
vt 0.5 1
vt 1 1
vt 1 0.5
vt 1 0
vt 0.5 0.5
vt 0.5 0
vt 0 0
vt 0 0.5
vt 0 1
vt 0.5 1
vt 1 1
vt 1 0.5
vt 1 0
vt 0.5 0.5
vt 0 0.5
vt 0 0
vt 0.5 0
vt 0.5 1
vt 0 1
vt 0.5 0.5
vt 0 0.5
vt 0 0
vt 0.5 0
vt 1 0
vt 1 0.5
vt 1 1
vt 0.5 1
vt 0 1
vt 0.5 0.5
vt 0 0.5
vt 0 0
vt 0.5 0
vt 1 0
vt 1 0.5
vt 1 1
vt 0.5 1
vt 0 1
vt 0.5 0.5
vt 0 0.5
vt 0 0
vt 0.5 0
vt 1 0
vt 1 0.5
vt 1 1
vt 0.5 1
vt 0 1
vt 0.5 0.5
vt 0 0.5
vt 0 0
vt 0.5 0
vt 1 0
vt 1 0.5
vt 1 1
vt 0.5 1
vt 0 1
vt 0.5 0.5
vt 0.5 0
vt 0 0
vt 0 0.5
vt 0 1
vt 0.5 1
vt 0.5 0.5
vt 0.5 0
vt 0 0
vt 0 0.5
vt 0 1
vt 0.5 1
vt 1 1
vt 1 0.5
vt 1 0
vt 0.5 0.5
vt 0.5 0
vt 0.5 1
vt 0.5 0.5
vt 0 0.5
vt 0 0
vt 0.5 0
vt 1 0
vt 1 0.5
vt 1 1
vt 0.5 1
vt 0 1
vt 0.5 0.5
vt 0.5 0
vt 0.5 1
vt 1 1
vt 1 0.5
vt 1 0
vt 0.5 0.5
vt 0.5 0
vt 0 0
vt 0 0.5
vt 0 1
vt 0.5 1
vt 1 1
vt 1 0.5
vt 1 0
vt 0.5 0.5
vt 0.5 0
vt 1 0
vt 1 0.5
vt 1 1
vt 0.5 1
vt 0.5 0.5
vt 0 0.5
vt 0 0
vt 0.5 0
vt 1 0
vt 1 0.5
vt 1 1
vt 0.5 1
vt 0 1
vt 0.5 0.5
vt 0 0.5
vt 0 0
vt 0.5 0
vt 1 0
vt 1 0.5
vt 1 1
vt 0.5 1
vt 0 1
vt 0.5 0.5
vt 0 0.5
vt 0 0
vt 0.5 0
vt 1 0
vt 1 0.5
vt 1 1
vt 0.5 1
vt 0 1
vt 0.5 0.5
vt 0.5 0
vt 0 0
vt 0 0.5
vt 0 1
vt 0.5 1
vt 0.5 0.5
vt 0.5 0
vt 0 0
vt 0 0.5
vt 0 1
vt 0.5 1
vt 1 1
vt 1 0.5
vt 1 0
vt 0.5 0.5
vt 0.5 0
vt 0 0
vt 0 0.5
vt 0 1
vt 0.5 1
vt 1 1
vt 1 0.5
vt 1 0
vt 0.5 0.5
vt 0.5 0
vt 0 0
vt 0 0.5
vt 0 1
vt 0.5 1
vt 1 1
vt 1 0.5
vt 1 0
vt 0.5 0.5
vt 0.5 0
vt 0 0
vt 0 0.5
vt 0 1
vt 0.5 1
vt 1 1
vt 1 0.5
vt 1 0
vt 0.5 0.5
vt 0 0.5
vt 0 0
vt 0.5 0
vt 0.5 1
vt 0 1
vt 0.5 0.5
vt 0 0.5
vt 0 0
vt 0.5 0
vt 1 0
vt 1 0.5
vt 1 1
vt 0.5 1
vt 0 1
vt 0.5 0.5
vt 0.5 0
vt 0.5 1
vn 0 -0.566999972 -0.823700011
vn 0 -0.577400029 -0.816500008
vn 0 -0.0342000015 -0.99940002
vn 0 -0.0197000001 -0.999800026
vn 0 -0.00549999997 -1
vn 0 -0.557900012 -0.829900026
vn 0 -0.951099992 -0.308699995
vn 0 -0.94690001 -0.321500003
vn 0 -0.942200005 -0.335000008
vn 0 0.197899997 -0.980199993
vn 0 0.186800003 -0.9824
vn 0 0.331 -0.943599999
vn 0 0.3398 -0.940500021
vn 0 0.34830001 -0.937399983
vn 0 0.208700001 -0.977900028
vn 0 -0.668099999 0.744000018
vn 0 -0.444499999 0.895699978
vn 0 -0.483599991 0.87529999
vn 0 -0.722100019 0.691699982
vn 0 -0.899999976 0.435799986
vn 0 -0.858099997 0.513400018
vn 0 -0.811100006 0.584800005
vn 0 -0.606000006 0.795400023
vn 0 -0.394199997 0.91900003
vn 0 -0.172000006 0.985099971
vn 0 -0.189099997 0.981999993
vn 0 -0.149000004 0.988799989
vn 0 0.235400006 0.971899986
vn 0 0.334600002 0.942300022
vn 0 0.399100006 0.916899979
vn 0 0.826799989 0.562399983
vn 0 0.891799986 0.452300012
vn 0 0.399100006 0.916899979
vn 0 0.334600002 0.942300022
vn 0 0.235400006 0.971899986
vn 0 0.740800023 0.671700001
vn 0 0.967499971 0.252799988
vn 0 0.981000006 0.193599999
vn 0 0.99119997 0.132100001
vn 0 0.999499977 0.0311999992
vn 0 0.999899983 0.0122999996
vn 0 0.99119997 0.132100001
vn 0 0.981000006 0.193599999
vn 0 0.967499971 0.252799988
vn 0 0.99879998 0.0491000004
vn 0 1 -0.00769999996
vn 0 1 -0.00680000009
vn 0 1 -0.00579999993
vn 0 1 -0.00719999988
vn 0 0.999899983 -0.00810000021
vn 0 1 -0.00579999993
vn 0 1 -0.00680000009
vn 0 1 -0.00769999996
vn 0 1 -0.00630000001
vn 0 0.999800026 -0.0190999992
vn 0 0.99970001 -0.0221999995
vn 0 0.99970001 -0.0254999995
vn 0 -0.995700002 -0.0926000029
vn 0 -0.99970001 -0.0245999992
vn 0 -0.999599993 -0.0284000002
vn 0 -0.995199978 -0.0976999998
vn 0 -0.996100008 -0.0876000002
vn 0 -0.999800026 -0.0210999995
vn 0 -0.999800026 0.0214000009
vn 0 -0.997699976 0.067900002
vn 0 -0.998099983 0.0612000003
vn 0 -0.999800026 0.0168999992
vn 0 -0.999599993 -0.0284000002
vn 0 -0.99970001 -0.0245999992
vn 0 -0.999800026 -0.0210999995
vn 0 -0.99970001 0.0256999992
vn 0 -0.997200012 0.0741999969
vn 0 -0.992699981 0.120099999
vn 0 -0.984399974 0.175799996
vn 0 -0.986500025 0.163299993
vn 0 -0.993900001 0.110100001
vn 0 -0.998099983 0.0612000003
vn 0 -0.997699976 0.067900002
vn 0 -0.997200012 0.0741999969
vn 0 -0.991599977 0.129299998
vn 0 -0.982299984 0.187399998
vn 0 -0.956900001 0.290199995
vn 0 -0.858099997 0.513400018
vn 0 -0.899999976 0.435799986
vn 0 -0.969500005 0.245199993
vn 0 -0.986500025 0.163299993
vn 0 -0.984399974 0.175799996
vn 0 -0.982299984 0.187399998
vn 0 -0.943400025 0.331699997
vn 0 -0.811100006 0.584800005
vn 0 0.417800009 -0.908500016
vn 0 0.3398 -0.940500021
vn 0 0.331 -0.943599999
vn 0 0.414600015 -0.910000026
vn 0 0.432999998 -0.90140003
vn 0 0.432099998 -0.901799977
vn 0 0.431199998 -0.902199984
vn 0 0.420899987 -0.907100022
vn 0 0.34830001 -0.937399983
vn 0 0.569400012 -0.822000027
vn 0 0.550100029 -0.835099995
vn 0 0.849900007 -0.526799977
vn 0 0.869000018 -0.494800001
vn 0 0.887199998 -0.461400002
vn 0 0.588500023 -0.808499992
vn 0 0.998899996 -0.0461999997
vn 0 0.99879998 -0.0482000001
vn 0 0.99970001 -0.0254999995
vn 0 0.99970001 -0.0221999995
vn 0 0.999800026 -0.0190999992
vn 0 0.999000013 -0.0443999991
vn 0 0.998300016 -0.0579999983
vn 0 0.998300016 -0.0579999983
vn 0 0.998300016 -0.0579999983
vn 0 0.989199996 -0.146500006
vn 0 0.987699986 -0.156399995
vn 0 0.99059999 -0.136399999
vn 0 -0.566999972 0.823700011
vn 0 -0.0197000001 0.999800026
vn 0 -0.0342000015 0.99940002
vn 0 -0.577400029 0.816500008
vn 0 -0.942200005 0.335000008
vn 0 -0.94690001 0.321500003
vn 0 -0.951099992 0.308699995
vn 0 -0.557900012 0.829900026
vn 0 -0.00549999997 1
vn 0 0.197899997 0.980199993
vn 0 0.186800003 0.9824
vn 0 0.208700001 0.977900028
vn 0 0.34830001 0.937399983
vn 0 0.3398 0.940500021
vn 0 0.331 0.943599999
vn 0 -0.668099999 -0.744000018
vn 0 -0.722100019 -0.691699982
vn 0 -0.483599991 -0.87529999
vn 0 -0.444499999 -0.895699978
vn 0 -0.394199997 -0.91900003
vn 0 -0.606000006 -0.795400023
vn 0 -0.811100006 -0.584800005
vn 0 -0.858099997 -0.513400018
vn 0 -0.899999976 -0.435799986
vn 0 -0.172000006 -0.985099971
vn 0 -0.189099997 -0.981999993
vn 0 0.399100006 -0.916899979
vn 0 0.334600002 -0.942300022
vn 0 0.235400006 -0.971899986
vn 0 -0.149000004 -0.988799989
vn 0 0.826799989 -0.562399983
vn 0 0.334600002 -0.942300022
vn 0 0.399100006 -0.916899979
vn 0 0.891799986 -0.452300012
vn 0 0.99119997 -0.132100001
vn 0 0.981000006 -0.193599999
vn 0 0.967499971 -0.252799988
vn 0 0.740800023 -0.671700001
vn 0 0.235400006 -0.971899986
vn 0 0.999499977 -0.0311999992
vn 0 0.981000006 -0.193599999
vn 0 0.99119997 -0.132100001
vn 0 0.999899983 -0.0122999996
vn 0 1 0.00579999993
vn 0 1 0.00680000009
vn 0 1 0.00769999996
vn 0 0.99879998 -0.0491000004
vn 0 0.967499971 -0.252799988
vn 0 1 0.00719999988
vn 0 1 0.00680000009
vn 0 1 0.00579999993
vn 0 0.999899983 0.00810000021
vn 0 0.99970001 0.0254999995
vn 0 0.99970001 0.0221999995
vn 0 0.999800026 0.0190999992
vn 0 1 0.00630000001
vn 0 1 0.00769999996
vn 0 -0.995700002 0.0926000029
vn 0 -0.995199978 0.0976999998
vn 0 -0.999599993 0.0284000002
vn 0 -0.99970001 0.0245999992
vn 0 -0.999800026 0.0210999995
vn 0 -0.996100008 0.0876000002
vn 0 -0.999800026 -0.0214000009
vn 0 -0.999800026 -0.0168999992
vn 0 -0.998099983 -0.0612000003
vn 0 -0.997699976 -0.067900002
vn 0 -0.997200012 -0.0741999969
vn 0 -0.99970001 -0.0256999992
vn 0 -0.999800026 0.0210999995
vn 0 -0.99970001 0.0245999992
vn 0 -0.999599993 0.0284000002
vn 0 -0.992699981 -0.120099999
vn 0 -0.993900001 -0.110100001
vn 0 -0.986500025 -0.163299993
vn 0 -0.984399974 -0.175799996
vn 0 -0.982299984 -0.187399998
vn 0 -0.991599977 -0.129299998
vn 0 -0.997200012 -0.0741999969
vn 0 -0.997699976 -0.067900002
vn 0 -0.998099983 -0.0612000003
vn 0 -0.956900001 -0.290199995
vn 0 -0.969500005 -0.245199993
vn 0 -0.899999976 -0.435799986
vn 0 -0.858099997 -0.513400018
vn 0 -0.811100006 -0.584800005
vn 0 -0.943400025 -0.331699997
vn 0 -0.982299984 -0.187399998
vn 0 -0.984399974 -0.175799996
vn 0 -0.986500025 -0.163299993
vn 0 0.417800009 0.908500016
vn 0 0.414600015 0.910000026
vn 0 0.331 0.943599999
vn 0 0.3398 0.940500021
vn 0 0.34830001 0.937399983
vn 0 0.420899987 0.907100022
vn 0 0.431199998 0.902199984
vn 0 0.432099998 0.901799977
vn 0 0.432999998 0.90140003
vn 0 0.569400012 0.822000027
vn 0 0.869000018 0.494800001
vn 0 0.850000024 0.526799977
vn 0 0.550100029 0.835099995
vn 0 0.588500023 0.808499992
vn 0 0.887199998 0.461400002
vn 0 0.998899996 0.0461999997
vn 0 0.99970001 0.0221999995
vn 0 0.99970001 0.0254999995
vn 0 0.99879998 0.0482000001
vn 0 0.998300016 0.0579999983
vn 0 0.998300016 0.0579999983
vn 0 0.998300016 0.0579999983
vn 0 0.999000013 0.0443999991
vn 0 0.999800026 0.0190999992
vn 0 0.989199996 0.146500006
vn 0 0.987699986 0.156399995
vn 0 0.99059999 0.136399999
f 1/1/1 2/2/2 3/3/3
f 1/1/1 3/3/3 4/4/4
f 1/1/1 4/4/4 5/5/5
f 1/1/1 5/5/5 6/6/6
f 1/1/1 6/6/6 7/7/7
f 1/1/1 7/7/7 8/8/8
f 1/1/1 8/8/8 9/9/9
f 1/1/1 9/9/9 2/2/2
f 10/10/10 4/4/4 3/3/3
f 10/10/10 3/3/3 11/11/11
f 10/10/10 11/11/11 12/12/12
f 10/10/10 12/12/12 13/13/13
f 10/10/10 13/13/13 14/14/14
f 10/10/10 14/14/14 15/15/15
f 10/10/10 15/15/15 5/5/5
f 10/10/10 5/5/5 4/4/4
f 16/16/16 17/17/17 18/18/18
f 16/16/16 18/18/18 19/19/19
f 16/16/16 19/19/19 20/20/20
f 16/16/16 20/20/20 21/21/21
f 16/16/16 21/21/21 22/22/22
f 16/16/16 22/22/22 23/23/23
f 16/16/16 23/23/23 24/24/24
f 16/16/16 24/24/24 17/17/17
f 25/25/25 26/26/26 18/18/18
f 25/25/25 18/18/18 17/17/17
f 25/25/25 17/17/17 24/24/24
f 25/25/25 24/24/24 27/27/27
f 25/25/25 27/27/27 28/28/28
f 25/25/25 28/28/28 29/29/29
f 25/25/25 29/29/29 30/30/30
f 25/25/25 30/30/30 26/26/26
f 31/31/31 32/32/32 33/33/33
f 31/31/31 33/33/33 34/34/34
f 31/31/31 34/34/34 35/35/35
f 31/31/31 35/35/35 36/36/36
f 31/31/31 36/36/36 37/37/37
f 31/31/31 37/37/37 38/38/38
f 31/31/31 38/38/38 39/39/39
f 31/31/31 39/39/39 32/32/32
f 40/40/40 41/41/41 42/42/42
f 40/40/40 42/42/42 43/43/43
f 40/40/40 43/43/43 44/44/44
f 40/40/40 44/44/44 45/45/45
f 40/40/40 45/45/45 46/46/46
f 40/40/40 46/46/46 47/47/47
f 40/40/40 47/47/47 48/48/48
f 40/40/40 48/48/48 41/41/41
f 49/49/49 50/50/50 51/51/51
f 49/49/49 51/51/51 52/52/52
f 49/49/49 52/52/52 53/53/53
f 49/49/49 53/53/53 54/54/54
f 49/49/49 54/54/54 55/55/55
f 49/49/49 55/55/55 56/56/56
f 49/49/49 56/56/56 57/57/57
f 49/49/49 57/57/57 50/50/50
f 58/58/58 59/59/59 60/60/60
f 58/58/58 60/60/60 61/61/61
f 58/58/58 61/61/61 9/9/9
f 58/58/58 9/9/9 8/8/8
f 58/58/58 8/8/8 7/7/7
f 58/58/58 7/7/7 62/62/62
f 58/58/58 62/62/62 63/63/63
f 58/58/58 63/63/63 59/59/59
f 64/64/64 65/65/65 66/66/66
f 64/64/64 66/66/66 67/67/67
f 64/64/64 67/67/67 68/68/68
f 64/64/64 68/68/68 69/69/69
f 64/64/64 69/69/69 70/70/70
f 64/64/64 70/70/70 71/71/71
f 64/64/64 71/71/71 72/72/72
f 64/64/64 72/72/72 65/65/65
f 73/73/73 74/74/74 75/75/75
f 73/73/73 75/75/75 76/76/76
f 73/73/73 76/76/76 77/77/77
f 73/73/73 77/77/77 78/78/78
f 73/73/73 78/78/78 79/79/79
f 73/73/73 79/79/79 80/80/80
f 73/73/73 80/80/80 81/81/81
f 73/73/73 81/81/81 74/74/74
f 82/82/82 83/83/83 84/84/84
f 82/82/82 84/84/84 85/85/85
f 82/82/82 85/85/85 86/86/86
f 82/82/82 86/86/86 87/87/87
f 82/82/82 87/87/87 88/88/88
f 82/82/82 88/88/88 89/89/89
f 82/82/82 89/89/89 90/90/90
f 82/82/82 90/90/90 83/83/83
f 91/91/91 92/92/92 93/93/93
f 91/91/91 93/93/93 94/94/94
f 91/91/91 94/94/94 95/95/95
f 91/91/91 95/95/95 96/96/96
f 91/91/91 96/96/96 97/97/97
f 91/91/91 97/97/97 98/98/98
f 91/91/91 98/98/98 99/99/99
f 91/91/91 99/99/99 92/92/92
f 100/100/100 101/101/101 102/102/102
f 100/100/100 102/102/102 103/103/103
f 100/100/100 103/103/103 104/104/104
f 100/100/100 104/104/104 105/105/105
f 100/100/100 105/105/105 97/97/97
f 100/100/100 97/97/97 96/96/96
f 100/100/100 96/96/96 95/95/95
f 100/100/100 95/95/95 101/101/101
f 106/106/106 107/107/107 108/108/108
f 106/106/106 108/108/108 109/109/109
f 106/106/106 109/109/109 110/110/110
f 106/106/106 110/110/110 111/111/111
f 106/106/106 111/111/111 112/112/112
f 106/106/106 112/112/112 113/113/113
f 106/106/106 113/113/113 114/114/114
f 106/106/106 114/114/114 107/107/107
f 115/115/115 103/103/103 102/102/102
f 115/115/115 102/102/102 116/116/116
f 115/115/115 116/116/116 114/114/114
f 115/115/115 114/114/114 113/113/113
f 115/115/115 113/113/113 112/112/112
f 115/115/115 112/112/112 117/117/117
f 115/115/115 117/117/117 104/104/104
f 115/115/115 104/104/104 103/103/103
f 118/118/118 119/119/119 120/120/120
f 118/118/118 120/120/120 121/121/121
f 118/118/118 121/121/121 122/122/122
f 118/118/118 122/122/122 123/123/123
f 118/118/118 123/123/123 124/124/124
f 118/118/118 124/124/124 125/125/125
f 118/118/118 125/125/125 126/126/126
f 118/118/118 126/126/126 119/119/119
f 127/127/127 128/128/128 120/120/120
f 127/127/127 120/120/120 119/119/119
f 127/127/127 119/119/119 126/126/126
f 127/127/127 126/126/126 129/129/129
f 127/127/127 129/129/129 130/130/130
f 127/127/127 130/130/130 131/131/131
f 127/127/127 131/131/131 132/132/132
f 127/127/127 132/132/132 128/128/128
f 133/133/133 134/134/134 135/135/135
f 133/133/133 135/135/135 136/136/136
f 133/133/133 136/136/136 137/137/137
f 133/133/133 137/137/137 138/138/138
f 133/133/133 138/138/138 139/139/139
f 133/133/133 139/139/139 140/140/140
f 133/133/133 140/140/140 141/141/141
f 133/133/133 141/141/141 134/134/134
f 142/142/142 136/136/136 135/135/135
f 142/142/142 135/135/135 143/143/143
f 142/142/142 143/143/143 144/144/144
f 142/142/142 144/144/144 145/145/145
f 142/142/142 145/145/145 146/146/146
f 142/142/142 146/146/146 147/147/147
f 142/142/142 147/147/147 137/137/137
f 142/142/142 137/137/137 136/136/136
f 148/148/148 149/149/149 150/150/150
f 148/148/148 150/150/150 151/151/151
f 148/148/148 151/151/151 152/152/152
f 148/148/148 152/152/152 153/153/153
f 148/148/148 153/153/153 154/154/154
f 148/148/148 154/154/154 155/155/155
f 148/148/148 155/155/155 156/156/156
f 148/148/148 156/156/156 149/149/149
f 157/157/157 158/158/158 159/159/159
f 157/157/157 159/159/159 160/160/160
f 157/157/157 160/160/160 161/161/161
f 157/157/157 161/161/161 162/162/162
f 157/157/157 162/162/162 163/163/163
f 157/157/157 163/163/163 164/164/164
f 157/157/157 164/164/164 165/165/165
f 157/157/157 165/165/165 158/158/158
f 166/166/166 167/167/167 168/168/168
f 166/166/166 168/168/168 169/169/169
f 166/166/166 169/169/169 170/170/170
f 166/166/166 170/170/170 171/171/171
f 166/166/166 171/171/171 172/172/172
f 166/166/166 172/172/172 173/173/173
f 166/166/166 173/173/173 174/174/174
f 166/166/166 174/174/174 167/167/167
f 175/175/175 176/176/176 177/177/177
f 175/175/175 177/177/177 178/178/178
f 175/175/175 178/178/178 179/179/179
f 175/175/175 179/179/179 180/180/180
f 175/175/175 180/180/180 124/124/124
f 175/175/175 124/124/124 123/123/123
f 175/175/175 123/123/123 122/122/122
f 175/175/175 122/122/122 176/176/176
f 181/181/181 182/182/182 183/183/183
f 181/181/181 183/183/183 184/184/184
f 181/181/181 184/184/184 185/185/185
f 181/181/181 185/185/185 186/186/186
f 181/181/181 186/186/186 187/187/187
f 181/181/181 187/187/187 188/188/188
f 181/181/181 188/188/188 189/189/189
f 181/181/181 189/189/189 182/182/182
f 190/190/190 191/191/191 192/192/192
f 190/190/190 192/192/192 193/193/193
f 190/190/190 193/193/193 194/194/194
f 190/190/190 194/194/194 195/195/195
f 190/190/190 195/195/195 196/196/196
f 190/190/190 196/196/196 197/197/197
f 190/190/190 197/197/197 198/198/198
f 190/190/190 198/198/198 191/191/191
f 199/199/199 200/200/200 201/201/201
f 199/199/199 201/201/201 202/202/202
f 199/199/199 202/202/202 203/203/203
f 199/199/199 203/203/203 204/204/204
f 199/199/199 204/204/204 205/205/205
f 199/199/199 205/205/205 206/206/206
f 199/199/199 206/206/206 207/207/207
f 199/199/199 207/207/207 200/200/200
f 208/208/208 209/209/209 210/210/210
f 208/208/208 210/210/210 211/211/211
f 208/208/208 211/211/211 212/212/212
f 208/208/208 212/212/212 213/213/213
f 208/208/208 213/213/213 214/214/214
f 208/208/208 214/214/214 215/215/215
f 208/208/208 215/215/215 216/216/216
f 208/208/208 216/216/216 209/209/209
f 217/217/217 218/218/218 219/219/219
f 217/217/217 219/219/219 220/220/220
f 217/217/217 220/220/220 216/216/216
f 217/217/217 216/216/216 215/215/215
f 217/217/217 215/215/215 214/214/214
f 217/217/217 214/214/214 221/221/221
f 217/217/217 221/221/221 222/222/222
f 217/217/217 222/222/222 218/218/218
f 223/223/223 224/224/224 225/225/225
f 223/223/223 225/225/225 226/226/226
f 223/223/223 226/226/226 227/227/227
f 223/223/223 227/227/227 228/228/228
f 223/223/223 228/228/228 229/229/229
f 223/223/223 229/229/229 230/230/230
f 223/223/223 230/230/230 231/231/231
f 223/223/223 231/231/231 224/224/224
f 232/232/232 233/233/233 219/219/219
f 232/232/232 219/219/219 218/218/218
f 232/232/232 218/218/218 222/222/222
f 232/232/232 222/222/222 234/234/234
f 232/232/232 234/234/234 229/229/229
f 232/232/232 229/229/229 228/228/228
f 232/232/232 228/228/228 227/227/227
f 232/232/232 227/227/227 233/233/233
