# Generated by lxe_pbrt_scene_convert
v -2.04065299 -0.0435280018 1.840662
v -2.02989411 -0.0432960019 1.840662
v -2.01416492 -0.0146190003 1.840662
v -2.02513194 -0.0148560004 1.840662
v -2.04065299 -0.0435280018 -1.840662
v -2.02513194 -0.0148560004 -1.840662
v -2.01416492 -0.0146190003 -1.840662
v -2.02989411 -0.0432960019 -1.840662
vt 0.333299994 1
vt 0.666700006 1
vt 0.666700006 0
vt 0.333299994 0
vt 0.333299994 1
vt 0.333299994 0
vt 0.666700006 0
vt 0.666700006 1
vn -0 0 1
vn -0 0 1
vn -0 0 1
vn -0 0 1
vn -0 0 -1
vn -0 0 -1
vn -0 0 -1
vn -0 0 -1
f 1/1/1 2/2/2 3/3/3
f 1/1/1 3/3/3 4/4/4
f 5/5/5 6/6/6 7/7/7
f 5/5/5 7/7/7 8/8/8
