# Generated by lxe_pbrt_scene_convert
v -0.916899979 0.694369018 0.0337980017
v -0.920138001 0.682011008 -0.117512003
v -1.21454 0.585802019 -0.129778996
v -1.21896303 0.601553977 0.0337980017
v -1.51400602 0.449423999 -0.131163001
v -1.50928497 0.448020011 0.0176199991
v -0.929638028 0.623247981 -0.245820999
v -1.22447395 0.534597993 -0.245214999
v -1.51271999 0.444487005 -0.251702011
v -0.916899979 0.616734028 0.408639997
v -1.21328795 0.531331003 0.407977015
v -1.22187698 0.613977015 0.525084019
v -0.916899979 0.688713014 0.525581002
v -1.50343001 0.43651101 0.44778499
v -1.50590301 0.445526004 0.576825023
v -0.916899979 0.717737973 0.870869994
v -1.21977103 0.624406993 0.865410984
v -1.21896303 0.582323015 1.04280102
v -0.916899979 0.671579003 1.05703497
v -1.51270401 0.436590999 0.860966027
v -1.503613 0.417374998 1.00646806
v -1.21896303 0.499686986 1.15430295
v -0.916899979 0.578266978 1.18280303
v -1.49957299 0.402512997 1.09554696
v -1.21480095 0.581538975 0.192488998
v -0.916899979 0.671926022 0.196871996
v -1.50470901 0.430431992 0.176771998
v -0.916899979 0.616437972 0.284471005
v -1.21896303 0.52362299 0.284471005
v -1.50219798 0.431580007 0.28194499
v -0.929638028 0.613209009 -0.561204016
v -0.949581981 0.593132019 -0.999707997
v -1.24455905 0.500316978 -0.999707997
v -1.23169994 0.520394027 -0.561204016
v -1.51485395 0.412907988 -0.999707997
v -1.52325296 0.432985991 -0.561204016
v -0.949581981 0.563015997 -1.39542603
v -1.24541903 0.470200986 -1.34561801
v -1.52193999 0.382793009 -1.29581106
v -0.968258977 0.532899976 -1.57354605
v -1.25164497 0.440084994 -1.54864299
v -1.53611195 0.352676988 -1.51128697
v -1.22089803 0.64348799 0.712143004
v -0.916899979 0.718348026 0.704271019
v -1.50906503 0.44443199 0.703576982
v -1.21896303 0.499686986 1.38104701
v -0.916899979 0.578266978 1.40246105
v -1.49957299 0.402512997 1.33646297
v -1.21896303 0.499686986 1.59361899
v -0.916899979 0.578266978 1.60794795
v -1.49957299 0.402512997 1.53486395
vn -0.296600014 0.954699993 0.0217000004
vn -0.289600015 0.931699991 -0.218999997
vn -0.341300011 0.921299994 -0.186299995
vn -0.376399994 0.925899982 0.0309999995
vn -0.395900011 0.909799993 -0.124300003
vn -0.454299986 0.890100002 0.0355999991
vn -0.284399986 0.933300018 -0.218899995
vn -0.306600004 0.938499987 -0.158800006
vn -0.321500003 0.939800024 -0.115900002
vn -0.25819999 0.915799975 -0.307599992
vn -0.323000014 0.917599976 -0.231600001
vn -0.363599986 0.884899974 -0.291000009
vn -0.231900007 0.909099996 -0.346100003
vn -0.3847 0.90140003 -0.198599994
vn -0.499599993 0.844099998 -0.194600001
vn -0.278100014 0.949899971 0.142800003
vn -0.411500007 0.901499987 0.133499995
vn -0.380400002 0.853999972 0.354900002
vn -0.278299987 0.87349999 0.399399996
vn -0.538699985 0.833599985 0.121799998
vn -0.486799985 0.826200008 0.283399999
vn -0.334300011 0.909699976 0.246099994
vn -0.266600013 0.915600002 0.300799996
vn -0.400000006 0.887300014 0.229399994
vn -0.351099998 0.898000002 0.265199989
vn -0.279199988 0.906599998 0.316300005
vn -0.428299993 0.884899974 0.182899997
vn -0.280000001 0.922100008 0.267100006
vn -0.32190001 0.930999994 0.172000006
vn -0.352899998 0.92900002 0.111199997
vn -0.293599993 0.955299973 -0.0329999998
vn -0.300700009 0.952099979 -0.0540999994
vn -0.30219999 0.951399982 -0.0590999983
vn -0.294099987 0.9551 -0.0346999988
vn -0.303799987 0.950600028 -0.0639000013
vn -0.29460001 0.954900026 -0.0366000012
vn -0.3116 0.944500029 -0.103500001
vn -0.311199993 0.944800019 -0.102300003
vn -0.311399996 0.944800019 -0.1017
vn -0.317600012 0.939599991 -0.127700001
vn -0.314999998 0.940900028 -0.1241
vn -0.312299997 0.942300022 -0.120399997
vn -0.402099997 0.915199995 -0.0263
vn -0.253300011 0.966199994 -0.0478000008
vn -0.550000012 0.835099995 -0.00549999997
vn -0.289700001 0.957099974 0
vn -0.251700014 0.967800021 0
vn -0.327199996 0.944899976 0
vn -0.28670001 0.958000004 0
vn -0.251700014 0.967800021 0
vn -0.327199996 0.944899976 0
f 1//1 2//2 3//3
f 1//1 3//3 4//4
f 4//4 3//3 5//5
f 4//4 5//5 6//6
f 2//2 7//7 8//8
f 2//2 8//8 3//3
f 3//3 8//8 9//9
f 3//3 9//9 5//5
f 10//10 11//11 12//12
f 10//10 12//12 13//13
f 11//11 14//14 15//15
f 11//11 15//15 12//12
f 16//16 17//17 18//18
f 16//16 18//18 19//19
f 17//17 20//20 21//21
f 17//17 21//21 18//18
f 19//19 18//18 22//22
f 19//19 22//22 23//23
f 18//18 21//21 24//24
f 18//18 24//24 22//22
f 1//1 4//4 25//25
f 1//1 25//25 26//26
f 4//4 6//6 27//27
f 4//4 27//27 25//25
f 28//28 26//26 25//25
f 28//28 25//25 29//29
f 29//29 25//25 27//27
f 29//29 27//27 30//30
f 31//31 32//32 33//33
f 31//31 33//33 34//34
f 34//34 33//33 35//35
f 34//34 35//35 36//36
f 32//32 37//37 38//38
f 32//32 38//38 33//33
f 33//33 38//38 39//39
f 33//33 39//39 35//35
f 37//37 40//40 41//41
f 37//37 41//41 38//38
f 38//38 41//41 42//42
f 38//38 42//42 39//39
f 12//12 43//43 44//44
f 12//12 44//44 13//13
f 43//43 17//17 16//16
f 43//43 16//16 44//44
f 15//15 45//45 43//43
f 15//15 43//43 12//12
f 45//45 20//20 17//17
f 45//45 17//17 43//43
f 28//28 29//29 11//11
f 28//28 11//11 10//10
f 30//30 14//14 11//11
f 30//30 11//11 29//29
f 7//7 31//31 34//34
f 7//7 34//34 8//8
f 9//9 8//8 34//34
f 9//9 34//34 36//36
f 23//23 22//22 46//46
f 23//23 46//46 47//47
f 22//22 24//24 48//48
f 22//22 48//48 46//46
f 47//47 46//46 49//49
f 47//47 49//49 50//50
f 46//46 48//48 51//51
f 46//46 51//51 49//49
