# Generated by lxe_pbrt_scene_convert
v -3.07549906 -0.753403008 -1.729864
v -3.051826 -0.753214002 -1.73074603
v -3.05065298 -0.741392016 -1.73082304
v -3.07369494 -0.735224009 -1.72998202
v -3.07243609 -0.771780014 -1.72974598
v -3.04983401 -0.765165985 -1.73066902
v -3.04432106 -0.728438973 -1.73090601
v -3.06395793 -0.715305984 -1.73011005
v -3.03491902 -0.718145013 -1.73097205
v -3.04950094 -0.699477017 -1.73021197
v -3.02192903 -0.711202979 -1.73101699
v -3.029526 -0.688802004 -1.73028004
v -3.00792193 -0.708760977 -1.73103297
v -3.00798798 -0.685046017 -1.730304
v -2.99230194 -0.711143017 -1.73101699
v -2.98396897 -0.688709021 -1.730281
v -2.98062611 -0.71846199 -1.73097003
v -2.9660151 -0.699963987 -1.73020804
v -2.97086096 -0.729076028 -1.730901
v -2.95099902 -0.716286004 -1.73010302
v -2.965554 -0.739902973 -1.73083198
v -2.942837 -0.732935011 -1.72999597
v -2.96385503 -0.75306499 -1.73074698
v -2.94022608 -0.753174007 -1.72986603
v -2.96916199 -0.773232996 -1.730618
v -2.94838691 -0.784184992 -1.72966599
v -2.98020196 -0.786181986 -1.73053396
v -2.96536207 -0.804096997 -1.72953796
v -2.99357605 -0.793824971 -1.73048496
v -2.98592806 -0.815849006 -1.72946298
v -3.00801206 -0.796639979 -1.73046696
v -3.00812602 -0.820177972 -1.72943497
v -3.0205369 -0.794885993 -1.73047805
v -3.02738595 -0.817481995 -1.72945201
v -3.03369999 -0.788516998 -1.73051906
v -3.04762602 -0.807687998 -1.72951603
v -3.0445261 -0.777266026 -1.73059201
v -3.06427407 -0.790386975 -1.72962606
vn -0.722299993 -0.0195000004 0.691200018
vn 0.0372000001 0.00769999996 0.999300003
vn 0.0353000015 -0.00359999994 0.99940002
vn -0.70389998 0.204300001 0.680199981
vn -0.691100001 -0.201199993 0.694100022
vn 0.0359999985 0.0171000008 0.999199986
vn 0.0307 -0.0144999996 0.99940002
vn -0.599300027 0.412200004 0.686200023
vn 0.0227000006 -0.0228000004 0.999499977
vn -0.448100001 0.58099997 0.679499984
vn 0.0120999999 -0.0285999998 0.999499977
vn -0.237100005 0.692799985 0.680999994
vn 0.00039999999 -0.0306000002 0.999499977
vn -0.00779999979 0.73299998 0.680100024
vn -0.0127999997 -0.0278999992 0.999499977
vn 0.256500006 0.694899976 0.671700001
vn -0.0238000005 -0.0221999995 0.999499977
vn 0.462099999 0.560400009 0.68720001
vn -0.0307999998 -0.0146000003 0.99940002
vn 0.598500013 0.413800001 0.68599999
vn -0.0357000008 -0.00430000015 0.999300003
vn 0.698199987 0.214300007 0.683099985
vn -0.0373999998 0.00889999978 0.999199986
vn 0.732900023 -0.0430999994 0.678900003
vn -0.0333000012 0.0238000005 0.999100029
vn 0.655900002 -0.338400006 0.674700022
vn -0.0241 0.0355999991 0.999100029
vn 0.466100007 -0.558000028 0.686500013
vn -0.0131999999 0.0419000015 0.999000013
vn 0.253899992 -0.678600013 0.689100027
vn -0.00100000005 0.0439000018 0.999000013
vn 0.0196000002 -0.724699974 0.68870002
vn 0.0109000001 0.0421999991 0.999000013
vn -0.211400002 -0.691600025 0.690599978
vn 0.0219000001 0.0366000012 0.999100029
vn -0.4296 -0.587700009 0.685599983
vn 0.0308999997 0.0271000005 0.999100029
vn -0.607900023 -0.4023 0.684499979
f 1//1 2//2 3//3
f 1//1 3//3 4//4
f 5//5 6//6 2//2
f 5//5 2//2 1//1
f 4//4 3//3 7//7
f 4//4 7//7 8//8
f 8//8 7//7 9//9
f 8//8 9//9 10//10
f 10//10 9//9 11//11
f 10//10 11//11 12//12
f 12//12 11//11 13//13
f 12//12 13//13 14//14
f 14//14 13//13 15//15
f 14//14 15//15 16//16
f 16//16 15//15 17//17
f 16//16 17//17 18//18
f 18//18 17//17 19//19
f 18//18 19//19 20//20
f 20//20 19//19 21//21
f 20//20 21//21 22//22
f 22//22 21//21 23//23
f 22//22 23//23 24//24
f 24//24 23//23 25//25
f 24//24 25//25 26//26
f 26//26 25//25 27//27
f 26//26 27//27 28//28
f 28//28 27//27 29//29
f 28//28 29//29 30//30
f 30//30 29//29 31//31
f 30//30 31//31 32//32
f 32//32 31//31 33//33
f 32//32 33//33 34//34
f 34//34 33//33 35//35
f 34//34 35//35 36//36
f 36//36 35//35 37//37
f 36//36 37//37 38//38
f 38//38 37//37 6//6
f 38//38 6//6 5//5
