# Generated by lxe_pbrt_scene_convert
v -1.01515496 0.959079027 1.00251901
v -1.07077098 0.978286982 0.648904979
v -1.26414299 0.879580975 0.691299021
v -1.20404601 0.857860029 1.04941404
v -1.26414299 0.879580975 0.691299021
v -1.07077098 0.978286982 0.648904979
v -1.09976697 0.991171002 0.300617993
v -1.30035806 0.891268015 0.325111985
v -1.11141205 0.991757989 0
v -1.31164896 0.894620001 0
v -0.63914001 1.132249 0.918493986
v -0.67522198 1.15812099 0.578245997
v -0.890057981 1.06532001 0.614692986
v -0.839547992 1.04435694 0.960781991
v -1.07077098 0.978286982 0.648904979
v -1.01515496 0.959079027 1.00251901
v -1.09976697 0.991171002 0.300617993
v -1.07077098 0.978286982 0.648904979
v -0.890057981 1.06532001 0.614692986
v -0.915171027 1.07594395 0.280553013
v -0.67522198 1.15812099 0.578245997
v -0.694296002 1.16918504 0.260493994
v -1.11141205 0.991757989 0
v -0.924858987 1.07772303 0
v -0.702396989 1.17202306 0
v -1.20404601 0.857860029 1.04941404
v -1.26414299 0.879580975 0.691299021
v -1.45389605 0.777849019 0.730543971
v -1.38993204 0.756582975 1.09705305
v -1.65074098 0.664021015 0.774106979
v -1.56888402 0.651161015 1.144122
v -1.45389605 0.777849019 0.730543971
v -1.49824798 0.787208974 0.351319999
v -1.70468402 0.673223972 0.382277012
v -1.65074098 0.664021015 0.774106979
v -1.26414299 0.879580975 0.691299021
v -1.30035806 0.891268015 0.325111985
v -1.51725304 0.79194802 0
v -1.73084104 0.677532017 0
v -1.31164896 0.894620001 0
v -1.26151896 0.874217987 0.690705001
v -1.06814694 0.972923994 0.648311019
v -1.012532 0.95371598 1.00192499
v -1.20142198 0.852496982 1.04882002
v -1.09714305 0.985808015 0.300024003
v -1.06814694 0.972923994 0.648311019
v -1.26151896 0.874217987 0.690705001
v -1.29773402 0.885905027 0.324517995
v -1.10878801 0.986395001 0
v -1.09714305 0.985808015 0.300024003
v -1.29773402 0.885905027 0.324517995
v -1.30902505 0.889257014 0
v -0.887434006 1.05995595 0.614099979
v -0.672598004 1.152758 0.577651978
v -0.636516988 1.12688601 0.917900026
v -0.836924016 1.03899395 0.960187972
v -1.06814694 0.972923994 0.648311019
v -0.887434006 1.05995595 0.614099979
v -0.836924016 1.03899395 0.960187972
v -1.012532 0.95371598 1.00192499
v -0.887434006 1.05995595 0.614099979
v -1.06814694 0.972923994 0.648311019
v -1.09714305 0.985808015 0.300024003
v -0.912546992 1.07058096 0.279958993
v -0.672598004 1.152758 0.577651978
v -0.887434006 1.05995595 0.614099979
v -0.912546992 1.07058096 0.279958993
v -0.691672981 1.16382205 0.259900004
v -0.912546992 1.07058096 0.279958993
v -1.09714305 0.985808015 0.300024003
v -1.10878801 0.986395001 0
v -0.922235012 1.07236004 0
v -0.691672981 1.16382205 0.259900004
v -0.922235012 1.07236004 0
v -0.699773014 1.16665995 0
v -1.45127201 0.772485971 0.729951024
v -1.26151896 0.874217987 0.690705001
v -1.20142198 0.852496982 1.04882002
v -1.387308 0.751219988 1.09645998
v -1.64811695 0.658658028 0.773513973
v -1.45127201 0.772485971 0.729951024
v -1.387308 0.751219988 1.09645998
v -1.56625998 0.645798028 1.14352798
v -1.70205998 0.667860985 0.381682992
v -1.49562395 0.781845987 0.350726008
v -1.45127201 0.772485971 0.729951024
v -1.64811695 0.658658028 0.773513973
v -1.26151896 0.874217987 0.690705001
v -1.45127201 0.772485971 0.729951024
v -1.49562395 0.781845987 0.350726008
v -1.29773402 0.885905027 0.324517995
v -1.72821701 0.67216903 0
v -1.51462901 0.786584973 0
v -1.49562395 0.781845987 0.350726008
v -1.70205998 0.667860985 0.381682992
v -1.29773402 0.885905027 0.324517995
v -1.51462901 0.786584973 0
v -1.30902505 0.889257014 0
v -1.86060297 0.517526984 0.818491995
v -1.86028802 0.516883016 0.818419993
v -1.76182699 0.511464 1.18413401
v -1.76214194 0.512107015 1.18420601
v -0.452838987 1.24460804 0.547378004
v -0.452524006 1.24396396 0.547307014
v -0.47192201 1.25347805 0.241650999
v -0.472236991 1.25412095 0.241722003
v -0.41505301 1.22772002 0.875059009
v -0.414737999 1.22707701 0.874988019
v -0.452524006 1.24396396 0.547307014
v -0.452838987 1.24460804 0.547378004
v -1.945418 0.535118997 0
v -1.94510305 0.534475982 0
v -1.92120695 0.528936028 0.411011994
v -1.92152202 0.529579997 0.411083996
v -1.92152202 0.529579997 0.411083996
v -1.92120695 0.528936028 0.411011994
v -1.86028802 0.516883016 0.818419993
v -1.86060297 0.517526984 0.818491995
v -0.472236991 1.25412095 0.241722003
v -0.47192201 1.25347805 0.241650999
v -0.474429011 1.25531805 0
v -0.474743009 1.25596201 0
v -1.30728805 0.718279004 1.46584904
v -1.30697298 0.717635989 1.46577704
v -1.1286 0.818925023 1.42245495
v -1.128914 0.819567978 1.42252696
v -1.46272004 0.63359499 1.49188805
v -1.46240497 0.632951021 1.49181604
v -1.30697298 0.717635989 1.46577704
v -1.30728805 0.718279004 1.46584904
v -0.940366983 0.921899974 1.36970198
v -0.940051973 0.921256006 1.36963105
v -0.764419973 1.01140797 1.32198501
v -0.764734983 1.01205206 1.32205606
v -0.582180977 1.09558499 1.27114701
v -0.582495987 1.096228 1.27121794
v -0.764734983 1.01205206 1.32205606
v -0.764419973 1.01140797 1.32198501
v -1.128914 0.819567978 1.42252696
v -1.1286 0.818925023 1.42245495
v -0.940051973 0.921256006 1.36963105
v -0.940366983 0.921899974 1.36970198
v -1.85848701 0.513202012 0.818013012
v -1.76002598 0.507781982 1.18372703
v -1.85797906 0.512163997 0.817897975
v -1.75951803 0.506744027 1.18361199
v -0.450722992 1.24028301 0.546899021
v -0.470120996 1.24979699 0.241244003
v -0.450215012 1.23924506 0.546783984
v -0.469612986 1.24875796 0.241128996
v -0.412936985 1.22339499 0.874580026
v -0.450722992 1.24028301 0.546899021
v -0.412429005 1.22235703 0.874464989
v -0.450215012 1.23924506 0.546783984
v -1.94330204 0.530794024 0
v -1.91940606 0.525255024 0.410605013
v -1.94279397 0.52975601 0
v -1.91889799 0.524215996 0.410490006
v -1.91940606 0.525255024 0.410605013
v -1.85848701 0.513202012 0.818013012
v -1.85797906 0.512163997 0.817897975
v -0.470120996 1.24979699 0.241244003
v -0.472627997 1.25163698 0
v -0.469612986 1.24875796 0.241128996
v -0.472119987 1.25059795 0
v -1.30517197 0.713954985 1.46537006
v -1.12679899 0.815244019 1.42204797
v -1.30466402 0.712916017 1.46525502
v -1.12629104 0.814204991 1.42193305
v -1.46060395 0.629270017 1.49140894
v -1.30517197 0.713954985 1.46537006
v -1.460096 0.628230989 1.49129403
v -1.30466402 0.712916017 1.46525502
v -0.938251019 0.917575002 1.369223
v -0.762619019 1.00772703 1.32157695
v -0.937743008 0.916536987 1.36910796
v -0.762111008 1.00668895 1.32146204
v -0.762619019 1.00772703 1.32157695
v -0.580380023 1.09190404 1.27073896
v -0.579872012 1.09086502 1.270625
v -1.12679899 0.815244019 1.42204797
v -0.938251019 0.917575002 1.369223
v -1.12629104 0.814204991 1.42193305
v -0.937743008 0.916536987 1.36910796
v -0.459509999 1.24201298 0.548304021
v -0.421775013 1.22485602 0.876362026
v -0.41505301 1.22772002 0.875059009
v -0.67522198 1.15812099 0.578245997
v -0.63914001 1.132249 0.918493986
v -0.67522198 1.15812099 0.578245997
v -0.459509999 1.24201298 0.548304021
v -0.478899002 1.25157297 0.242285997
v -0.694296002 1.16918504 0.260493994
v -0.481572986 1.253443 0
v -0.702396989 1.17202306 0
v -0.474743009 1.25596201 0
v -0.672598004 1.152758 0.577651978
v -0.456885993 1.23664999 0.547710001
v -0.419151992 1.21949303 0.875768006
v -0.636516988 1.12688601 0.917900026
v -0.450215012 1.23924506 0.546783984
v -0.412429005 1.22235703 0.874464989
v -0.456885993 1.23664999 0.547710001
v -0.476274997 1.24620998 0.241692007
v -0.469612986 1.24875796 0.241128996
v -0.672598004 1.152758 0.577651978
v -0.691672981 1.16382205 0.259900004
v -0.469612986 1.24875796 0.241128996
v -0.476274997 1.24620998 0.241692007
v -0.47894901 1.24808002 0
v -0.472119987 1.25059795 0
v -0.691672981 1.16382205 0.259900004
v -0.699773014 1.16665995 0
v -0.375710994 1.18595397 1.21235704
v -0.582495987 1.096228 1.27121794
v -0.582180977 1.09558499 1.27114701
v -0.375396013 1.18531001 1.212286
v -0.368999988 1.18808603 1.21046495
v -0.369314998 1.18872905 1.21053696
v -0.580380023 1.09190404 1.27073896
v -0.373594999 1.18162894 1.21187794
v -0.367199004 1.18440402 1.21005797
v -0.579872012 1.09086502 1.270625
v -0.373086989 1.18059099 1.21176302
v -0.366690993 1.18336594 1.20994306
v -1.65074098 0.664021015 0.774106979
v -1.85640502 0.520457029 0.817604005
v -1.75827706 0.514887989 1.18340397
v -1.56888402 0.651161015 1.144122
v -1.76214194 0.512107015 1.18420601
v -1.85640502 0.520457029 0.817604005
v -1.91718495 0.532451987 0.410508007
v -1.92152202 0.529579997 0.411083996
v -1.65074098 0.664021015 0.774106979
v -1.70468402 0.673223972 0.382277012
v -1.73084104 0.677532017 0
v -1.94112599 0.537967026 0
v -1.85797906 0.512163997 0.817897975
v -1.85378206 0.515093029 0.817009985
v -1.75565302 0.509525001 1.18280995
v -1.75951803 0.506744027 1.18361199
v -1.64811695 0.658658028 0.773513973
v -1.56625998 0.645798028 1.14352798
v -1.64811695 0.658658028 0.773513973
v -1.85378206 0.515093029 0.817009985
v -1.91456103 0.527089 0.409913987
v -1.70205998 0.667860985 0.381682992
v -1.85797906 0.512163997 0.817897975
v -1.91889799 0.524215996 0.410490006
v -1.94279397 0.52975601 0
v -1.93850195 0.532603979 0
v -1.91456103 0.527089 0.409913987
v -1.91889799 0.524215996 0.410490006
v -1.72821701 0.67216903 0
v -1.70205998 0.667860985 0.381682992
v -1.66340804 0.519298017 1.50045395
v -1.65938795 0.521570981 1.50028098
v -1.65970302 0.522213995 1.50035298
v -1.66372299 0.519940972 1.500525
v -1.46240497 0.632951021 1.49181604
v -1.46272004 0.63359499 1.49188805
v -1.66160703 0.515617013 1.50004601
v -1.65758705 0.517889977 1.499874
v -1.46060395 0.629270017 1.49140894
v -1.66109896 0.514577985 1.49993205
v -1.65707898 0.516851008 1.49975896
v -1.460096 0.628230989 1.49129403
v -0.941488981 0.92245698 1.36419499
v -1.130041 0.820142984 1.41692996
v -1.128914 0.819567978 1.42252696
v -1.01515496 0.959079027 1.00251901
v -0.583346009 1.09676898 1.26592696
v -0.765856981 1.01253605 1.31663704
v -0.764734983 1.01205206 1.32205606
v -0.839547992 1.04435694 0.960781991
v -1.01515496 0.959079027 1.00251901
v -0.941488981 0.92245698 1.36419499
v -1.46431196 0.633858025 1.48667097
v -1.30852699 0.71885401 1.46031702
v -1.38993204 0.756582975 1.09705305
v -1.130041 0.820142984 1.41692996
v -1.20404601 0.857860029 1.04941404
v -1.128914 0.819567978 1.42252696
v -0.938865006 0.917093992 1.36360097
v -1.12741804 0.814779997 1.41633606
v -1.20142198 0.852496982 1.04882002
v -0.937743008 0.916536987 1.36910796
v -1.12629104 0.814204991 1.42193305
v -0.636516988 1.12688601 0.917900026
v -0.580721974 1.09140599 1.26533401
v -0.763233006 1.00717294 1.31604302
v -0.836924016 1.03899395 0.960187972
v -0.579872012 1.09086502 1.270625
v -0.762111008 1.00668895 1.32146204
v -0.937743008 0.916536987 1.36910796
v -0.938865006 0.917093992 1.36360097
v -0.763233006 1.00717294 1.31604302
v -0.762111008 1.00668895 1.32146204
v -1.012532 0.95371598 1.00192499
v -0.836924016 1.03899395 0.960187972
v -1.460096 0.628230989 1.49129403
v -1.461689 0.628494978 1.48607695
v -1.30590403 0.713491023 1.459723
v -1.30466402 0.712916017 1.46525502
v -1.56625998 0.645798028 1.14352798
v -1.387308 0.751219988 1.09645998
v -1.30466402 0.712916017 1.46525502
v -1.30590403 0.713491023 1.459723
v -1.12741804 0.814779997 1.41633606
v -1.12629104 0.814204991 1.42193305
v -1.387308 0.751219988 1.09645998
v -1.20142198 0.852496982 1.04882002
v -1.76182699 0.511464 1.18413401
v -1.66488397 0.51918 1.49570894
v -1.66519904 0.519824028 1.49578094
v -1.76214194 0.512107015 1.18420601
v -1.66340804 0.519298017 1.50045395
v -1.66372299 0.519940972 1.500525
v -0.368999988 1.18808603 1.21046495
v -0.369686007 1.18867004 1.20543301
v -0.370000988 1.18931401 1.20550394
v -0.369314998 1.18872905 1.21053696
v -0.414737999 1.22707701 0.874988019
v -0.41505301 1.22772002 0.875059009
v -1.76002598 0.507781982 1.18372703
v -1.66308296 0.515498996 1.49530196
v -1.66160703 0.515617013 1.50004601
v -1.75951803 0.506744027 1.18361199
v -1.66257501 0.514460981 1.49518704
v -1.66109896 0.514577985 1.49993205
v -0.367199004 1.18440402 1.21005797
v -0.367884994 1.18498898 1.20502603
v -0.412936985 1.22339499 0.874580026
v -0.366690993 1.18336594 1.20994306
v -0.367377013 1.18395102 1.20491099
v -0.412429005 1.22235703 0.874464989
v -0.583346009 1.09676898 1.26592696
v -0.375710994 1.18595397 1.21235704
v -0.376401991 1.18653798 1.20731699
v -0.421775013 1.22485602 0.876362026
v -0.63914001 1.132249 0.918493986
v -0.369314998 1.18872905 1.21053696
v -0.370000988 1.18931401 1.20550394
v -0.41505301 1.22772002 0.875059009
v -0.373086989 1.18059099 1.21176302
v -0.373777986 1.18117499 1.20672297
v -0.367377013 1.18395102 1.20491099
v -0.366690993 1.18336594 1.20994306
v -0.419151992 1.21949303 0.875768006
v -0.579872012 1.09086502 1.270625
v -0.580721974 1.09140599 1.26533401
v -0.636516988 1.12688601 0.917900026
v -1.75827706 0.514887989 1.18340397
v -1.66118097 0.522104979 1.49559796
v -1.46431196 0.633858025 1.48667097
v -1.56888402 0.651161015 1.144122
v -1.65970302 0.522213995 1.50035298
v -1.76214194 0.512107015 1.18420601
v -1.66519904 0.519824028 1.49578094
v -1.66372299 0.519940972 1.500525
v -1.75565302 0.509525001 1.18280995
v -1.65855801 0.516740978 1.49500501
v -1.66257501 0.514460981 1.49518704
v -1.75951803 0.506744027 1.18361199
v -1.56625998 0.645798028 1.14352798
v -1.461689 0.628494978 1.48607695
v -1.01515496 0.959079027 -1.00251901
v -1.20404601 0.857860029 -1.04941404
v -1.26414299 0.879580975 -0.691299021
v -1.07077098 0.978286982 -0.648904979
v -1.26414299 0.879580975 -0.691299021
v -1.30035806 0.891268015 -0.325111985
v -1.09976697 0.991171002 -0.300617993
v -1.07077098 0.978286982 -0.648904979
v -0.63914001 1.132249 -0.918493986
v -0.839547992 1.04435694 -0.960781991
v -0.890057981 1.06532001 -0.614692986
v -0.67522198 1.15812099 -0.578245997
v -1.01515496 0.959079027 -1.00251901
v -1.07077098 0.978286982 -0.648904979
v -1.09976697 0.991171002 -0.300617993
v -0.915171027 1.07594395 -0.280553013
v -0.890057981 1.06532001 -0.614692986
v -1.07077098 0.978286982 -0.648904979
v -0.694296002 1.16918504 -0.260493994
v -0.67522198 1.15812099 -0.578245997
v -1.20404601 0.857860029 -1.04941404
v -1.38993204 0.756582975 -1.09705305
v -1.45389605 0.777849019 -0.730543971
v -1.26414299 0.879580975 -0.691299021
v -1.56888402 0.651161015 -1.144122
v -1.65074098 0.664021015 -0.774106979
v -1.45389605 0.777849019 -0.730543971
v -1.65074098 0.664021015 -0.774106979
v -1.70468402 0.673223972 -0.382277012
v -1.49824798 0.787208974 -0.351319999
v -1.30035806 0.891268015 -0.325111985
v -1.26414299 0.879580975 -0.691299021
v -1.26151896 0.874217987 -0.690705001
v -1.20142198 0.852496982 -1.04882002
v -1.012532 0.95371598 -1.00192499
v -1.06814694 0.972923994 -0.648311019
v -1.09714305 0.985808015 -0.300024003
v -1.29773402 0.885905027 -0.324517995
v -1.26151896 0.874217987 -0.690705001
v -1.06814694 0.972923994 -0.648311019
v -1.29773402 0.885905027 -0.324517995
v -1.09714305 0.985808015 -0.300024003
v -0.887434006 1.05995595 -0.614099979
v -0.836924016 1.03899395 -0.960187972
v -0.636516988 1.12688601 -0.917900026
v -0.672598004 1.152758 -0.577651978
v -1.06814694 0.972923994 -0.648311019
v -1.012532 0.95371598 -1.00192499
v -0.836924016 1.03899395 -0.960187972
v -0.887434006 1.05995595 -0.614099979
v -0.887434006 1.05995595 -0.614099979
v -0.912546992 1.07058096 -0.279958993
v -1.09714305 0.985808015 -0.300024003
v -1.06814694 0.972923994 -0.648311019
v -0.672598004 1.152758 -0.577651978
v -0.691672981 1.16382205 -0.259900004
v -0.912546992 1.07058096 -0.279958993
v -0.887434006 1.05995595 -0.614099979
v -0.912546992 1.07058096 -0.279958993
v -1.09714305 0.985808015 -0.300024003
v -0.691672981 1.16382205 -0.259900004
v -1.45127201 0.772485971 -0.729951024
v -1.387308 0.751219988 -1.09645998
v -1.20142198 0.852496982 -1.04882002
v -1.26151896 0.874217987 -0.690705001
v -1.64811695 0.658658028 -0.773513973
v -1.56625998 0.645798028 -1.14352798
v -1.387308 0.751219988 -1.09645998
v -1.45127201 0.772485971 -0.729951024
v -1.70205998 0.667860985 -0.381682992
v -1.64811695 0.658658028 -0.773513973
v -1.45127201 0.772485971 -0.729951024
v -1.49562395 0.781845987 -0.350726008
v -1.26151896 0.874217987 -0.690705001
v -1.29773402 0.885905027 -0.324517995
v -1.49562395 0.781845987 -0.350726008
v -1.45127201 0.772485971 -0.729951024
v -1.70205998 0.667860985 -0.381682992
v -1.49562395 0.781845987 -0.350726008
v -1.29773402 0.885905027 -0.324517995
v -1.86060297 0.517526984 -0.818491995
v -1.76214194 0.512107015 -1.18420601
v -1.76182699 0.511464 -1.18413401
v -1.86028802 0.516883016 -0.818419993
v -0.452838987 1.24460804 -0.547378004
v -0.472236991 1.25412095 -0.241722003
v -0.47192201 1.25347805 -0.241650999
v -0.452524006 1.24396396 -0.547307014
v -0.41505301 1.22772002 -0.875059009
v -0.452838987 1.24460804 -0.547378004
v -0.452524006 1.24396396 -0.547307014
v -0.414737999 1.22707701 -0.874988019
v -1.92152202 0.529579997 -0.411083996
v -1.92120695 0.528936028 -0.411011994
v -1.92152202 0.529579997 -0.411083996
v -1.86060297 0.517526984 -0.818491995
v -1.86028802 0.516883016 -0.818419993
v -1.92120695 0.528936028 -0.411011994
v -0.472236991 1.25412095 -0.241722003
v -0.47192201 1.25347805 -0.241650999
v -1.30728805 0.718279004 -1.46584904
v -1.128914 0.819567978 -1.42252696
v -1.1286 0.818925023 -1.42245495
v -1.30697298 0.717635989 -1.46577704
v -1.46272004 0.63359499 -1.49188805
v -1.30728805 0.718279004 -1.46584904
v -1.30697298 0.717635989 -1.46577704
v -1.46240497 0.632951021 -1.49181604
v -0.940366983 0.921899974 -1.36970198
v -0.764734983 1.01205206 -1.32205606
v -0.764419973 1.01140797 -1.32198501
v -0.940051973 0.921256006 -1.36963105
v -0.582180977 1.09558499 -1.27114701
v -0.764419973 1.01140797 -1.32198501
v -0.764734983 1.01205206 -1.32205606
v -0.582495987 1.096228 -1.27121794
v -1.128914 0.819567978 -1.42252696
v -0.940366983 0.921899974 -1.36970198
v -0.940051973 0.921256006 -1.36963105
v -1.1286 0.818925023 -1.42245495
v -1.76002598 0.507781982 -1.18372703
v -1.85848701 0.513202012 -0.818013012
v -1.75951803 0.506744027 -1.18361199
v -1.85797906 0.512163997 -0.817897975
v -0.470120996 1.24979699 -0.241244003
v -0.450722992 1.24028301 -0.546899021
v -0.469612986 1.24875796 -0.241128996
v -0.450215012 1.23924506 -0.546783984
v -0.450722992 1.24028301 -0.546899021
v -0.412936985 1.22339499 -0.874580026
v -0.450215012 1.23924506 -0.546783984
v -0.412429005 1.22235703 -0.874464989
v -1.91940606 0.525255024 -0.410605013
v -1.91889799 0.524215996 -0.410490006
v -1.85848701 0.513202012 -0.818013012
v -1.91940606 0.525255024 -0.410605013
v -1.85797906 0.512163997 -0.817897975
v -0.470120996 1.24979699 -0.241244003
v -0.469612986 1.24875796 -0.241128996
v -1.12679899 0.815244019 -1.42204797
v -1.30517197 0.713954985 -1.46537006
v -1.12629104 0.814204991 -1.42193305
v -1.30466402 0.712916017 -1.46525502
v -1.30517197 0.713954985 -1.46537006
v -1.46060395 0.629270017 -1.49140894
v -1.30466402 0.712916017 -1.46525502
v -1.460096 0.628230989 -1.49129403
v -0.762619019 1.00772703 -1.32157695
v -0.938251019 0.917575002 -1.369223
v -0.762111008 1.00668895 -1.32146204
v -0.937743008 0.916536987 -1.36910796
v -0.580380023 1.09190404 -1.27073896
v -0.762619019 1.00772703 -1.32157695
v -0.579872012 1.09086502 -1.270625
v -0.938251019 0.917575002 -1.369223
v -1.12679899 0.815244019 -1.42204797
v -0.937743008 0.916536987 -1.36910796
v -1.12629104 0.814204991 -1.42193305
v -0.41505301 1.22772002 -0.875059009
v -0.421775013 1.22485602 -0.876362026
v -0.459509999 1.24201298 -0.548304021
v -0.63914001 1.132249 -0.918493986
v -0.67522198 1.15812099 -0.578245997
v -0.67522198 1.15812099 -0.578245997
v -0.694296002 1.16918504 -0.260493994
v -0.478899002 1.25157297 -0.242285997
v -0.459509999 1.24201298 -0.548304021
v -0.672598004 1.152758 -0.577651978
v -0.636516988 1.12688601 -0.917900026
v -0.419151992 1.21949303 -0.875768006
v -0.456885993 1.23664999 -0.547710001
v -0.412429005 1.22235703 -0.874464989
v -0.450215012 1.23924506 -0.546783984
v -0.469612986 1.24875796 -0.241128996
v -0.476274997 1.24620998 -0.241692007
v -0.456885993 1.23664999 -0.547710001
v -0.691672981 1.16382205 -0.259900004
v -0.672598004 1.152758 -0.577651978
v -0.469612986 1.24875796 -0.241128996
v -0.476274997 1.24620998 -0.241692007
v -0.691672981 1.16382205 -0.259900004
v -0.375710994 1.18595397 -1.21235704
v -0.375396013 1.18531001 -1.212286
v -0.582180977 1.09558499 -1.27114701
v -0.582495987 1.096228 -1.27121794
v -0.369314998 1.18872905 -1.21053696
v -0.368999988 1.18808603 -1.21046495
v -0.580380023 1.09190404 -1.27073896
v -0.373594999 1.18162894 -1.21187794
v -0.367199004 1.18440402 -1.21005797
v -0.579872012 1.09086502 -1.270625
v -0.373086989 1.18059099 -1.21176302
v -0.366690993 1.18336594 -1.20994306
v -1.65074098 0.664021015 -0.774106979
v -1.56888402 0.651161015 -1.144122
v -1.75827706 0.514887989 -1.18340397
v -1.85640502 0.520457029 -0.817604005
v -1.76214194 0.512107015 -1.18420601
v -1.92152202 0.529579997 -0.411083996
v -1.91718495 0.532451987 -0.410508007
v -1.85640502 0.520457029 -0.817604005
v -1.70468402 0.673223972 -0.382277012
v -1.65074098 0.664021015 -0.774106979
v -1.85797906 0.512163997 -0.817897975
v -1.75951803 0.506744027 -1.18361199
v -1.75565302 0.509525001 -1.18280995
v -1.85378206 0.515093029 -0.817009985
v -1.56625998 0.645798028 -1.14352798
v -1.64811695 0.658658028 -0.773513973
v -1.64811695 0.658658028 -0.773513973
v -1.70205998 0.667860985 -0.381682992
v -1.91456103 0.527089 -0.409913987
v -1.85378206 0.515093029 -0.817009985
v -1.91889799 0.524215996 -0.410490006
v -1.85797906 0.512163997 -0.817897975
v -1.91889799 0.524215996 -0.410490006
v -1.91456103 0.527089 -0.409913987
v -1.70205998 0.667860985 -0.381682992
v -1.66340804 0.519298017 -1.50045395
v -1.66372299 0.519940972 -1.500525
v -1.65970302 0.522213995 -1.50035298
v -1.65938795 0.521570981 -1.50028098
v -1.46272004 0.63359499 -1.49188805
v -1.46240497 0.632951021 -1.49181604
v -1.66160703 0.515617013 -1.50004601
v -1.65758705 0.517889977 -1.499874
v -1.46060395 0.629270017 -1.49140894
v -1.66109896 0.514577985 -1.49993205
v -1.65707898 0.516851008 -1.49975896
v -1.460096 0.628230989 -1.49129403
v -1.128914 0.819567978 -1.42252696
v -1.130041 0.820142984 -1.41692996
v -0.941488981 0.92245698 -1.36419499
v -1.01515496 0.959079027 -1.00251901
v -0.764734983 1.01205206 -1.32205606
v -0.765856981 1.01253605 -1.31663704
v -0.583346009 1.09676898 -1.26592696
v -0.839547992 1.04435694 -0.960781991
v -1.01515496 0.959079027 -1.00251901
v -0.941488981 0.92245698 -1.36419499
v -1.38993204 0.756582975 -1.09705305
v -1.30852699 0.71885401 -1.46031702
v -1.46431196 0.633858025 -1.48667097
v -1.20404601 0.857860029 -1.04941404
v -1.130041 0.820142984 -1.41692996
v -1.128914 0.819567978 -1.42252696
v -1.20142198 0.852496982 -1.04882002
v -1.12741804 0.814779997 -1.41633606
v -0.938865006 0.917093992 -1.36360097
v -1.12629104 0.814204991 -1.42193305
v -0.937743008 0.916536987 -1.36910796
v -0.636516988 1.12688601 -0.917900026
v -0.836924016 1.03899395 -0.960187972
v -0.763233006 1.00717294 -1.31604302
v -0.580721974 1.09140599 -1.26533401
v -0.762111008 1.00668895 -1.32146204
v -0.579872012 1.09086502 -1.270625
v -0.937743008 0.916536987 -1.36910796
v -0.762111008 1.00668895 -1.32146204
v -0.763233006 1.00717294 -1.31604302
v -0.938865006 0.917093992 -1.36360097
v -0.836924016 1.03899395 -0.960187972
v -1.012532 0.95371598 -1.00192499
v -1.460096 0.628230989 -1.49129403
v -1.30466402 0.712916017 -1.46525502
v -1.30590403 0.713491023 -1.459723
v -1.461689 0.628494978 -1.48607695
v -1.387308 0.751219988 -1.09645998
v -1.56625998 0.645798028 -1.14352798
v -1.30466402 0.712916017 -1.46525502
v -1.12629104 0.814204991 -1.42193305
v -1.12741804 0.814779997 -1.41633606
v -1.30590403 0.713491023 -1.459723
v -1.20142198 0.852496982 -1.04882002
v -1.387308 0.751219988 -1.09645998
v -1.76182699 0.511464 -1.18413401
v -1.76214194 0.512107015 -1.18420601
v -1.66519904 0.519824028 -1.49578094
v -1.66488397 0.51918 -1.49570894
v -1.66372299 0.519940972 -1.500525
v -1.66340804 0.519298017 -1.50045395
v -0.368999988 1.18808603 -1.21046495
v -0.369314998 1.18872905 -1.21053696
v -0.370000988 1.18931401 -1.20550394
v -0.369686007 1.18867004 -1.20543301
v -0.41505301 1.22772002 -0.875059009
v -0.414737999 1.22707701 -0.874988019
v -1.76002598 0.507781982 -1.18372703
v -1.66308296 0.515498996 -1.49530196
v -1.66160703 0.515617013 -1.50004601
v -1.75951803 0.506744027 -1.18361199
v -1.66257501 0.514460981 -1.49518704
v -1.66109896 0.514577985 -1.49993205
v -0.367199004 1.18440402 -1.21005797
v -0.367884994 1.18498898 -1.20502603
v -0.412936985 1.22339499 -0.874580026
v -0.366690993 1.18336594 -1.20994306
v -0.367377013 1.18395102 -1.20491099
v -0.412429005 1.22235703 -0.874464989
v -0.583346009 1.09676898 -1.26592696
v -0.376401991 1.18653798 -1.20731699
v -0.375710994 1.18595397 -1.21235704
v -0.63914001 1.132249 -0.918493986
v -0.421775013 1.22485602 -0.876362026
v -0.369314998 1.18872905 -1.21053696
v -0.370000988 1.18931401 -1.20550394
v -0.41505301 1.22772002 -0.875059009
v -0.373086989 1.18059099 -1.21176302
v -0.366690993 1.18336594 -1.20994306
v -0.367377013 1.18395102 -1.20491099
v -0.373777986 1.18117499 -1.20672297
v -0.419151992 1.21949303 -0.875768006
v -0.579872012 1.09086502 -1.270625
v -0.580721974 1.09140599 -1.26533401
v -0.636516988 1.12688601 -0.917900026
v -1.75827706 0.514887989 -1.18340397
v -1.56888402 0.651161015 -1.144122
v -1.46431196 0.633858025 -1.48667097
v -1.66118097 0.522104979 -1.49559796
v -1.65970302 0.522213995 -1.50035298
v -1.76214194 0.512107015 -1.18420601
v -1.66519904 0.519824028 -1.49578094
v -1.66372299 0.519940972 -1.500525
v -1.75565302 0.509525001 -1.18280995
v -1.75951803 0.506744027 -1.18361199
v -1.66257501 0.514460981 -1.49518704
v -1.65855801 0.516740978 -1.49500501
v -1.56625998 0.645798028 -1.14352798
v -1.461689 0.628494978 -1.48607695
vt 0 0
vt 0 1
vt 1 1
vt 1 0
vt 1 0
vt 0 0
vt 0 0.5
vt 1 0.5
vt 0 1
vt 1 1
vt 0 0
vt 0 1
vt 0.5 1
vt 0.5 0
vt 1 1
vt 1 0
vt 1 0.5
vt 1 0
vt 0.5 -0
vt 0.5 0.5
vt 0 0
vt 0 0.5
vt 1 1
vt 0.5 1
vt 0 1
vt 0 0
vt 0 1
vt 0.5 1
vt 0.5 -0
vt 1 1
vt 1 0
vt 0.5 0
vt 0.5 0.5
vt 1 0.5
vt 1 0
vt 0 0
vt 0 0.5
vt 0.5 1
vt 1 1
vt 0 1
vt 0 0
vt 0 1
vt 1 1
vt 1 0
vt 1 0
vt 0 0
vt 0 0.5
vt 1 0.5
vt 1 0.5
vt 0 0.5
vt 0 1
vt 1 1
vt 0 0
vt 0 1
vt 0.5 1
vt 0.5 0
vt 0.5 0
vt 0.5 1
vt 1 1
vt 1 0
vt 1 0.5
vt 1 0
vt 0.5 -0
vt 0.5 0.5
vt 0.5 0.5
vt 0.5 -0
vt 0 0
vt 0 0.5
vt 1 1
vt 1 0.5
vt 0.5 0.5
vt 0.5 1
vt 0.5 1
vt 0 0.5
vt 0 1
vt 0 0
vt 0 1
vt 0.5 1
vt 0.5 -0
vt 0.5 -0
vt 0.5 1
vt 1 1
vt 1 0
vt 0.5 0
vt 0.5 0.5
vt 1 0.5
vt 1 0
vt 0.5 0.5
vt 0.5 0
vt 0 0
vt 0 0.5
vt 0.5 0.5
vt 0.5 1
vt 1 1
vt 1 0.5
vt 0.5 1
vt 0 0.5
vt 0 1
vt 0.25 1
vt 0.25 0.5
vt 0.125 0.5
vt 0.125 1
vt 0 0
vt -0 0.25
vt 0.125 0.25
vt 0.125 0
vt 0.125 1
vt 0.125 0.5
vt -0 0.5
vt 0 1
vt 0.25 1
vt 0.25 0.75
vt 0.125 0.75
vt 0.125 1
vt 0.125 0
vt 0.125 0.25
vt 0.25 0.25
vt 0.25 0
vt -0 0.5
vt -0 0.75
vt 0.125 0.75
vt 0.125 0.5
vt 0.75 0.5
vt 0.75 0.75
vt 1 0.75
vt 1 0.5
vt 0.75 0
vt 0.75 0.25
vt 1 0.25
vt 1 0
vt 0.25 1
vt 0.25 0.75
vt -0 0.75
vt 0 1
vt 0.25 0.25
vt 0.25 0
vt 0 0
vt -0 0.25
vt 1 1
vt 1 0.5
vt 0.75 0.5
vt 0.75 1
vt 0.25 0.25
vt 0.125 0.25
vt 0.25 0
vt 0.125 0
vt -0 0.375
vt 0.125 0.375
vt -0 0.5
vt 0.125 0.5
vt 0.125 0.25
vt -0 0.25
vt 0.125 -0
vt 0 0
vt 0.25 0.625
vt 0.125 0.625
vt 0.25 0.5
vt 0.125 0.5
vt 0.125 0.375
vt 0.25 0.375
vt 0.25 0.5
vt -0 0.875
vt 0.125 0.875
vt 0 1
vt 0.125 1
vt 0.75 0.875
vt 1 0.875
vt 0.75 1
vt 1 1
vt 0.75 0.375
vt 1 0.375
vt 0.75 0.5
vt 1 0.5
vt 0.25 0.625
vt -0 0.625
vt 0.25 0.5
vt -0 0.5
vt -0 0.375
vt 0.25 0.375
vt 0.25 0.5
vt 1 0.25
vt 0.75 0.25
vt 1 0
vt 0.75 -0
vt 0.0625 1
vt 0.0625 -0
vt 0 0
vt 0.125 1
vt 0.125 -0
vt 0.125 0
vt 0.0625 0
vt 0.0625 0.5
vt 0.125 0.5
vt 0.0625 1
vt 0.125 1
vt 0 1
vt 0.125 1
vt 0.125 0.5
vt 0 0.5
vt 0 1
vt 0.125 -0
vt 0 0
vt -0 0.25
vt 0.125 0.25
vt 0.125 0
vt -0 0.5
vt 0.125 0.5
vt -0 0.5
vt -0 0.75
vt 0.125 0.75
vt 0.125 0.5
vt 0 1
vt 0.125 1
vt 0.875 0.875
vt 0.75 0.875
vt 0.75 0.9375
vt 0.875 0.9375
vt 1 0.9375
vt 1 0.875
vt 0.75 0.968699992
vt 0.875 0.968699992
vt 1 0.968800008
vt 0.75 1
vt 0.875 1
vt 1 1
vt 0.125 1
vt 0.1875 1
vt 0.1875 0
vt 0.125 0
vt 0.25 0
vt 0.1875 0
vt 0.1875 0.5
vt 0.25 0.5
vt 0.125 0
vt 0.125 0.5
vt 0.125 1
vt 0.1875 1
vt 0.25 1
vt 0.25 0.5
vt 0.125 0.5
vt 0.125 1
vt 0.25 0
vt 0.125 0
vt 0.125 0
vt 0.125 0.25
vt 0.25 0.25
vt 0.25 0
vt 0.125 0.5
vt 0.25 0.5
vt 0.25 1
vt 0.25 0.75
vt 0.125 0.75
vt 0.125 1
vt 0.25 0.5
vt 0.125 0.5
vt 0.8125 -0
vt 0.8125 0.125
vt 0.875 0.125
vt 0.875 -0
vt 0.8125 0.25
vt 0.875 0.25
vt 0.781300008 -0
vt 0.781300008 0.125
vt 0.781300008 0.25
vt 0.75 -0
vt 0.75 0.125
vt 0.75 0.25
vt 0.875 1
vt 0.875 -0
vt 0.75 -0
vt 1 1
vt 0.125 0
vt 0.125 0.5
vt 0.25 0.5
vt -0 0.5
vt 0 1
vt 0.125 1
vt 0.875 -0
vt 0.875 0.5
vt 1 0.5
vt 0.875 1
vt 1 1
vt 0.75 1
vt 1 0.5
vt 0.75 0.5
vt 0.75 1
vt 1 0
vt 0.75 -0
vt 0 0
vt 0 0.25
vt 0.25 0.25
vt 0.25 0
vt -0 0.5
vt 0.25 0.5
vt 0.25 1
vt 0.25 0.75
vt -0 0.75
vt 0 1
vt 0.25 0.5
vt -0 0.5
vt 0.75 0
vt 0.75 0.25
vt 1 0.25
vt 1 0
vt 0.75 0.5
vt 1 0.5
vt 0.75 0.5
vt 0.75 0.75
vt 1 0.75
vt 1 0.5
vt 0.75 1
vt 1 1
vt 0.8125 -0
vt 0.8125 0.125
vt 0.875 0.125
vt 0.875 -0
vt 0.8125 0.25
vt 0.875 0.25
vt 0.75 0.9375
vt 0.875 0.9375
vt 0.875 0.875
vt 0.75 0.875
vt 1 0.9375
vt 1 0.875
vt 0.781300008 -0
vt 0.781199992 0.125
vt 0.781199992 0.25
vt 0.75 -0
vt 0.75 0.125
vt 0.75 0.25
vt 0.75 0.968800008
vt 0.875 0.968800008
vt 1 0.968699992
vt 0.75 1
vt 0.875 1
vt 1 1
vt 0.875 0.875
vt 0.75 0.9375
vt 0.875 0.9375
vt 1 0.9375
vt 1 0.875
vt 0.75 1
vt 0.875 1
vt 1 1
vt 0.875 0.875
vt 0.875 0.9375
vt 1 0.9375
vt 1 0.875
vt 0.875 1
vt 0.75 0.875
vt 0.75 0.9375
vt 0.75 1
vt 0.8125 -0
vt 0.8125 0.125
vt 0.875 0.125
vt 0.875 -0
vt 0.8125 0.25
vt 0.75 -0
vt 0.75 0.125
vt 0.75 0.25
vt 0.875 0.125
vt 0.8125 0.125
vt 0.8125 0.25
vt 0.875 0.25
vt 0.875 -0
vt 0.8125 -0
vt 0 0
vt 1 0
vt 1 1
vt 0 1
vt 1 0
vt 1 0.5
vt 0 0.5
vt 0 0
vt 0 0
vt 0.5 0
vt 0.5 1
vt 0 1
vt 1 0
vt 1 1
vt 1 0.5
vt 0.5 0.5
vt 0.5 -0
vt 1 0
vt 0 0.5
vt 0 0
vt 0 0
vt 0.5 -0
vt 0.5 1
vt 0 1
vt 1 0
vt 1 1
vt 0.5 0
vt 1 0
vt 1 0.5
vt 0.5 0.5
vt 0 0.5
vt 0 0
vt 0 0
vt 1 0
vt 1 1
vt 0 1
vt 1 0
vt 1 0.5
vt 0 0.5
vt 0 0
vt 0 1
vt 0 0.5
vt 0 0
vt 0.5 0
vt 0.5 1
vt 0 1
vt 0.5 0
vt 1 0
vt 1 1
vt 0.5 1
vt 1 0.5
vt 0.5 0.5
vt 0.5 -0
vt 1 0
vt 0.5 0.5
vt 0 0.5
vt 0 0
vt 0.5 -0
vt 1 1
vt 1 0.5
vt 0.5 1
vt 0 0
vt 0.5 -0
vt 0.5 1
vt 0 1
vt 0.5 -0
vt 1 0
vt 1 1
vt 0.5 1
vt 0.5 0
vt 1 0
vt 1 0.5
vt 0.5 0.5
vt 0.5 0.5
vt 0 0.5
vt 0 0
vt 0.5 0
vt 1 0.5
vt 1 1
vt 0.5 1
vt 0.25 1
vt 0.125 1
vt 0.125 0.5
vt 0.25 0.5
vt 0 0
vt 0.125 0
vt 0.125 0.25
vt -0 0.25
vt 0.125 1
vt 0 1
vt -0 0.5
vt 0.125 0.5
vt 0.125 1
vt 0.125 0.75
vt 0.125 0
vt 0.25 0
vt 0.25 0.25
vt 0.125 0.25
vt -0 0.5
vt -0 0.75
vt 0.75 0.5
vt 1 0.5
vt 1 0.75
vt 0.75 0.75
vt 0.75 0
vt 1 0
vt 1 0.25
vt 0.75 0.25
vt 0.25 1
vt 0 1
vt -0 0.75
vt 0.25 0.75
vt 0.25 0.25
vt -0 0.25
vt 0 0
vt 0.25 0
vt 1 1
vt 0.75 1
vt 0.75 0.5
vt 1 0.5
vt 0.125 0.25
vt 0.25 0.25
vt 0.125 0
vt 0.25 0
vt 0.125 0.375
vt -0 0.375
vt 0.125 0.5
vt -0 0.5
vt -0 0.25
vt 0.125 0.25
vt 0 0
vt 0.125 -0
vt 0.125 0.625
vt 0.125 0.5
vt 0.25 0.375
vt 0.125 0.375
vt 0.25 0.5
vt -0 0.875
vt 0 1
vt 1 0.875
vt 0.75 0.875
vt 1 1
vt 0.75 1
vt 1 0.375
vt 0.75 0.375
vt 1 0.5
vt 0.75 0.5
vt -0 0.625
vt 0.25 0.625
vt -0 0.5
vt 0.25 0.5
vt 0.25 0.375
vt -0 0.375
vt 0.25 0.5
vt 0.75 0.25
vt 1 0.25
vt 0.75 -0
vt 1 0
vt 0 0
vt 0.0625 -0
vt 0.0625 1
vt 0.125 -0
vt 0.125 1
vt 0.125 0
vt 0.125 0.5
vt 0.0625 0.5
vt 0.0625 0
vt 0.125 1
vt 0 1
vt 0 0.5
vt 0.125 0.5
vt 0 0
vt 0.125 -0
vt 0.125 0
vt 0.125 0.25
vt -0 0.25
vt 0.125 0.5
vt -0 0.5
vt -0 0.5
vt -0 0.75
vt 0 1
vt 0.875 0.875
vt 0.875 0.9375
vt 0.75 0.9375
vt 0.75 0.875
vt 1 0.875
vt 1 0.9375
vt 0.75 0.968699992
vt 0.875 0.968699992
vt 1 0.968800008
vt 0.75 1
vt 0.875 1
vt 1 1
vt 0.125 1
vt 0.125 0
vt 0.1875 0
vt 0.1875 1
vt 0.25 0
vt 0.25 0.5
vt 0.1875 0.5
vt 0.1875 0
vt 0.125 0.5
vt 0.125 0
vt 0.25 1
vt 0.125 1
vt 0.125 0.5
vt 0.25 0.5
vt 0.125 0
vt 0.25 0
vt 0.125 0
vt 0.25 0
vt 0.25 0.25
vt 0.125 0.25
vt 0.25 0.5
vt 0.125 0.5
vt 0.125 1
vt 0.125 0.75
vt 0.125 0.5
vt 0.8125 -0
vt 0.875 -0
vt 0.875 0.125
vt 0.8125 0.125
vt 0.875 0.25
vt 0.8125 0.25
vt 0.781300008 -0
vt 0.781300008 0.125
vt 0.781300008 0.25
vt 0.75 -0
vt 0.75 0.125
vt 0.75 0.25
vt 0.75 -0
vt 0.875 -0
vt 0.875 1
vt 1 1
vt 0.25 0.5
vt 0.125 0.5
vt 0.125 0
vt -0 0.5
vt 0 1
vt 0.125 1
vt 1 0.5
vt 0.875 0.5
vt 0.875 -0
vt 1 1
vt 0.875 1
vt 0.75 1
vt 0.75 1
vt 0.75 0.5
vt 1 0.5
vt 0.75 -0
vt 1 0
vt 0 0
vt 0.25 0
vt 0.25 0.25
vt 0 0.25
vt 0.25 0.5
vt -0 0.5
vt 0.25 1
vt 0 1
vt -0 0.75
vt 0.25 0.75
vt -0 0.5
vt 0.25 0.5
vt 0.75 0
vt 1 0
vt 1 0.25
vt 0.75 0.25
vt 1 0.5
vt 0.75 0.5
vt 0.75 0.5
vt 1 0.5
vt 1 0.75
vt 0.75 0.75
vt 1 1
vt 0.75 1
vt 0.8125 -0
vt 0.875 -0
vt 0.875 0.125
vt 0.8125 0.125
vt 0.875 0.25
vt 0.8125 0.25
vt 0.75 0.9375
vt 0.75 0.875
vt 0.875 0.875
vt 0.875 0.9375
vt 1 0.875
vt 1 0.9375
vt 0.781300008 -0
vt 0.781199992 0.125
vt 0.781199992 0.25
vt 0.75 -0
vt 0.75 0.125
vt 0.75 0.25
vt 0.75 0.968800008
vt 0.875 0.968800008
vt 1 0.968699992
vt 0.75 1
vt 0.875 1
vt 1 1
vt 0.875 0.875
vt 0.875 0.9375
vt 0.75 0.9375
vt 1 0.875
vt 1 0.9375
vt 0.75 1
vt 0.875 1
vt 1 1
vt 0.875 0.875
vt 1 0.875
vt 1 0.9375
vt 0.875 0.9375
vt 0.875 1
vt 0.75 0.875
vt 0.75 0.9375
vt 0.75 1
vt 0.8125 -0
vt 0.875 -0
vt 0.875 0.125
vt 0.8125 0.125
vt 0.8125 0.25
vt 0.75 -0
vt 0.75 0.125
vt 0.75 0.25
vt 0.875 0.125
vt 0.875 0.25
vt 0.8125 0.25
vt 0.8125 0.125
vt 0.875 -0
vt 0.8125 -0
vn -0.421799988 0.894900024 0.145799994
vn -0.426899999 0.899500012 0.0929000005
vn -0.446099997 0.889500022 0.0992999971
vn -0.439599991 0.884899974 0.153400004
vn -0.446099997 0.889500022 0.0992999971
vn -0.426899999 0.899500012 0.0929000005
vn -0.428499997 0.902400017 0.0439000018
vn -0.448000014 0.8926 0.0496000014
vn -0.428799987 0.903299987 0
vn -0.447400004 0.894299984 0
vn -0.368400007 0.92049998 0.130099997
vn -0.370499998 0.925400019 0.0795999989
vn -0.398999989 0.912800014 0.0864999965
vn -0.393000007 0.909200013 0.137400001
vn -0.426899999 0.899500012 0.0929000005
vn -0.421799988 0.894900024 0.145799994
vn -0.428499997 0.902400017 0.0439000018
vn -0.426899999 0.899500012 0.0929000005
vn -0.398999989 0.912800014 0.0864999965
vn -0.4023 0.914600015 0.0399999991
vn -0.370499998 0.925400019 0.0795999989
vn -0.370200008 0.928200006 0.0366000012
vn -0.428799987 0.903299987 0
vn -0.403200001 0.915099978 0
vn -0.370299995 0.928900003 0
vn -0.439599991 0.884899974 0.153400004
vn -0.446099997 0.889500022 0.0992999971
vn -0.465200007 0.879000008 0.104999997
vn -0.455300003 0.875999987 0.158999994
vn -0.513899982 0.849600017 0.1184
vn -0.499900013 0.850700021 0.162699997
vn -0.465200007 0.879000008 0.104999997
vn -0.466699988 0.882600009 0.0568999983
vn -0.514100015 0.855099976 0.0671999976
vn -0.513899982 0.849600017 0.1184
vn -0.446099997 0.889500022 0.0992999971
vn -0.448000014 0.8926 0.0496000014
vn -0.465200007 0.885200024 0
vn -0.514699996 0.857299984 0
vn -0.447400004 0.894299984 0
vn 0.446099997 -0.889500022 -0.0992999971
vn 0.426899999 -0.899500012 -0.0929000005
vn 0.421799988 -0.894900024 -0.145799994
vn 0.439599991 -0.884899974 -0.153400004
vn 0.428499997 -0.902400017 -0.0439000018
vn 0.426899999 -0.899500012 -0.0929000005
vn 0.446099997 -0.889500022 -0.0992999971
vn 0.448000014 -0.8926 -0.0496000014
vn 0.428799987 -0.903299987 0
vn 0.428499997 -0.902400017 -0.0439000018
vn 0.448000014 -0.8926 -0.0496000014
vn 0.447400004 -0.894299984 0
vn 0.398999989 -0.912800014 -0.0864999965
vn 0.370499998 -0.925400019 -0.0795999989
vn 0.368400007 -0.92049998 -0.130099997
vn 0.393000007 -0.909200013 -0.137400001
vn 0.426899999 -0.899500012 -0.0929000005
vn 0.398999989 -0.912800014 -0.0864999965
vn 0.393000007 -0.909200013 -0.137400001
vn 0.421799988 -0.894900024 -0.145799994
vn 0.398999989 -0.912800014 -0.0864999965
vn 0.426899999 -0.899500012 -0.0929000005
vn 0.428499997 -0.902400017 -0.0439000018
vn 0.4023 -0.914600015 -0.0399999991
vn 0.370499998 -0.925400019 -0.0795999989
vn 0.398999989 -0.912800014 -0.0864999965
vn 0.4023 -0.914600015 -0.0399999991
vn 0.370200008 -0.928200006 -0.0366000012
vn 0.4023 -0.914600015 -0.0399999991
vn 0.428499997 -0.902400017 -0.0439000018
vn 0.428799987 -0.903299987 0
vn 0.403200001 -0.915099978 0
vn 0.370200008 -0.928200006 -0.0366000012
vn 0.403200001 -0.915099978 0
vn 0.370299995 -0.928900003 0
vn 0.465200007 -0.879000008 -0.104999997
vn 0.446099997 -0.889500022 -0.0992999971
vn 0.439599991 -0.884899974 -0.153400004
vn 0.455300003 -0.875999987 -0.158999994
vn 0.513899982 -0.849600017 -0.1184
vn 0.465200007 -0.879000008 -0.104999997
vn 0.455300003 -0.875999987 -0.158999994
vn 0.499900013 -0.850700021 -0.162699997
vn 0.514100015 -0.855099976 -0.0671999976
vn 0.466699988 -0.882600009 -0.0568999983
vn 0.465200007 -0.879000008 -0.104999997
vn 0.513899982 -0.849600017 -0.1184
vn 0.446099997 -0.889500022 -0.0992999971
vn 0.465200007 -0.879000008 -0.104999997
vn 0.466699988 -0.882600009 -0.0568999983
vn 0.448000014 -0.8926 -0.0496000014
vn 0.514699996 -0.857299984 0
vn 0.465200007 -0.885200024 0
vn 0.466699988 -0.882600009 -0.0568999983
vn 0.514100015 -0.855099976 -0.0671999976
vn 0.448000014 -0.8926 -0.0496000014
vn 0.465200007 -0.885200024 0
vn 0.447400004 -0.894299984 0
vn -0.948599994 0.242500007 0.203400001
vn -0.876999974 -0.448300004 0.172999993
vn -0.858200014 -0.447699994 0.251100004
vn -0.931400001 0.2456 0.268700004
vn 0.351700008 0.936100006 0.00680000009
vn 0.893899977 0.444099993 -0.0615000017
vn 0.897000015 0.441399992 -0.0244999994
vn 0.356099993 0.934400022 0.00410000002
vn 0.353300005 0.934899986 0.0324999988
vn 0.892400026 0.444900006 -0.075000003
vn 0.893899977 0.444099993 -0.0615000017
vn 0.351700008 0.936100006 0.00680000009
vn -0.965200007 0.261299998 0
vn -0.897300005 -0.441500008 0
vn -0.89200002 -0.444299996 0.0828000009
vn -0.960500002 0.257099986 0.1061
vn -0.960500002 0.257099986 0.1061
vn -0.89200002 -0.444299996 0.0828000009
vn -0.876999974 -0.448300004 0.172999993
vn -0.948599994 0.242500007 0.203400001
vn 0.356099993 0.934400022 0.00410000002
vn 0.897000015 0.441399992 -0.0244999994
vn 0.898100019 0.439700007 0
vn 0.364399999 0.931200027 0
vn -0.159600005 0.581700027 0.797500014
vn 0.204999998 -0.00810000021 0.978699982
vn 0.246199995 0.0131000001 0.969099998
vn -0.131999999 0.60650003 0.784099996
vn -0.221000001 0.554899991 0.801999986
vn 0.129800007 -0.0461000018 0.990400016
vn 0.204999998 -0.00810000021 0.978699982
vn -0.159600005 0.581700027 0.797500014
vn -0.115199998 0.621800005 0.774699986
vn 0.256599993 0.0185000002 0.966300011
vn 0.256799996 0.0186000001 0.966300011
vn -0.0979000032 0.632600009 0.76819998
vn 0.262199998 0.0215000007 0.9648
vn -0.0734999999 0.64230001 0.762899995
vn -0.0979000032 0.632600009 0.76819998
vn 0.256799996 0.0186000001 0.966300011
vn -0.131999999 0.60650003 0.784099996
vn 0.246199995 0.0131000001 0.969099998
vn 0.256599993 0.0185000002 0.966300011
vn -0.115199998 0.621800005 0.774699986
vn -0.876999974 -0.448199987 0.172999993
vn -0.858200014 -0.447600007 0.251100004
vn -0.273999989 -0.961099982 0.0357000008
vn -0.249899998 -0.96509999 0.0775000006
vn 0.893899977 0.444099993 -0.0615000017
vn 0.897000015 0.441399992 -0.0244999994
vn 0.927699983 -0.360500008 -0.0971999988
vn 0.929400027 -0.366699994 -0.0403999984
vn 0.892400026 0.444900006 -0.075000003
vn 0.893899977 0.444099993 -0.0615000017
vn 0.928600013 -0.342000008 -0.143999994
vn 0.927699983 -0.360500008 -0.0971999988
vn -0.897199988 -0.441500008 0
vn -0.89200002 -0.444299996 0.0828000009
vn -0.289299995 -0.957199991 0
vn -0.280699998 -0.959699988 0.00719999988
vn -0.89200002 -0.444299996 0.0828000009
vn -0.876999974 -0.448199987 0.172999993
vn -0.273999989 -0.961099982 0.0357000008
vn 0.897000015 0.441399992 -0.0244999994
vn 0.898100019 0.439700007 0
vn 0.929400027 -0.366699994 -0.0403999984
vn 0.929799974 -0.368000001 0
vn 0.204899997 -0.00810000021 0.978699982
vn 0.246099994 0.0131999999 0.969099998
vn 0.480300009 -0.646399975 0.592800021
vn 0.505100012 -0.632600009 0.587100029
vn 0.129800007 -0.0461000018 0.990400016
vn 0.204899997 -0.00810000021 0.978699982
vn 0.428600013 -0.660399973 0.61650002
vn 0.480300009 -0.646399975 0.592800021
vn 0.256599993 0.0186000001 0.966300011
vn 0.256799996 0.0186000001 0.966300011
vn 0.499300003 -0.639400005 0.584699988
vn 0.479099989 -0.644900024 0.595399976
vn 0.256799996 0.0186000001 0.966300011
vn 0.262199998 0.0215000007 0.9648
vn 0.462599993 -0.654500008 0.59799999
vn 0.246099994 0.0131999999 0.969099998
vn 0.256599993 0.0186000001 0.966300011
vn 0.505100012 -0.632600009 0.587100029
vn 0.499300003 -0.639400005 0.584699988
vn -0.3583 0.930700004 0.0733999982
vn -0.360599995 0.924300015 0.125
vn 0.353300005 0.934899986 0.0324999988
vn -0.370499998 0.925400019 0.0795999989
vn -0.368400007 0.92049998 0.130099997
vn -0.370499998 0.925400019 0.0795999989
vn -0.3583 0.930700004 0.0733999982
vn -0.352699995 0.935100019 0.0329000019
vn -0.370200008 0.928200006 0.0366000012
vn -0.351000011 0.93629998 0
vn -0.370299995 0.928900003 0
vn 0.364399999 0.931200027 0
vn 0.370499998 -0.925400019 -0.0795999989
vn 0.3583 -0.930700004 -0.0733999982
vn 0.360599995 -0.924300015 -0.125
vn 0.368400007 -0.92049998 -0.130099997
vn 0.927699983 -0.360500008 -0.0971999988
vn 0.928600013 -0.342000008 -0.143999994
vn 0.3583 -0.930700004 -0.0733999982
vn 0.352699995 -0.935100019 -0.0329000019
vn 0.929400027 -0.366699994 -0.0403999984
vn 0.370499998 -0.925400019 -0.0795999989
vn 0.370200008 -0.928200006 -0.0366000012
vn 0.929400027 -0.366699994 -0.0403999984
vn 0.352699995 -0.935100019 -0.0329000019
vn 0.351000011 -0.93629998 0
vn 0.929799974 -0.368000001 0
vn 0.370200008 -0.928200006 -0.0366000012
vn 0.370299995 -0.928900003 0
vn -0.0623000003 0.64380002 0.762600005
vn -0.0734999999 0.64230001 0.762899995
vn 0.262199998 0.0215000007 0.9648
vn 0.264600009 0.0226000007 0.964100003
vn 0.753899992 0.30430001 0.582300007
vn 0.397100002 0.7403 0.542299986
vn 0.262199998 0.0215000007 0.9648
vn 0.264499992 0.0227000006 0.964100003
vn 0.753899992 0.304399997 0.582199991
vn 0.462599993 -0.654500008 0.59799999
vn 0.456400007 -0.66109997 0.595499992
vn 0.860199988 -0.328999996 0.389699996
vn -0.513899982 0.849600017 0.1184
vn -0.548099995 0.826200008 0.130500004
vn -0.534300029 0.830600023 0.156800002
vn -0.499900013 0.850700021 0.162699997
vn -0.931400001 0.2456 0.268700004
vn -0.548099995 0.826200008 0.130500004
vn -0.548799992 0.832700014 0.0737999976
vn -0.960500002 0.257099986 0.1061
vn -0.513899982 0.849600017 0.1184
vn -0.514100015 0.855099976 0.0671999976
vn -0.514699996 0.857299984 0
vn -0.550599992 0.834800005 0
vn -0.273999989 -0.961099982 0.0357000008
vn 0.548099995 -0.826200008 -0.130500004
vn 0.534300029 -0.830600023 -0.156800002
vn -0.249899998 -0.96509999 0.0775000006
vn 0.513899982 -0.849600017 -0.1184
vn 0.499900013 -0.850700021 -0.162699997
vn 0.513899982 -0.849600017 -0.1184
vn 0.548099995 -0.826200008 -0.130500004
vn 0.548799992 -0.832700014 -0.0737999976
vn 0.514100015 -0.855099976 -0.0671999976
vn -0.273999989 -0.961099982 0.0357000008
vn -0.280699998 -0.959699988 0.00719999988
vn -0.289299995 -0.957199991 0
vn 0.550599992 -0.834800005 0
vn 0.548799992 -0.832700014 -0.0737999976
vn -0.280699998 -0.959699988 0.00719999988
vn 0.514699996 -0.857299984 0
vn 0.514100015 -0.855099976 -0.0671999976
vn -0.489100009 -0.328700006 0.807900012
vn 0.0821999982 -0.0698999986 0.994099975
vn -0.276600003 0.548099995 0.789300025
vn -0.655900002 0.232600003 0.718100011
vn 0.129800007 -0.0461000018 0.990400016
vn -0.221000001 0.554899991 0.801999986
vn -0.489100009 -0.328700006 0.807900012
vn 0.0821999982 -0.0697999969 0.994099975
vn 0.129800007 -0.0461000018 0.990400016
vn -0.110699996 -0.806800008 0.580299973
vn 0.409099996 -0.675899982 0.612999976
vn 0.428600013 -0.660399973 0.61650002
vn -0.419999987 0.890699983 0.173500001
vn -0.438199997 0.880299985 0.181299999
vn -0.131999999 0.60650003 0.784099996
vn -0.421799988 0.894900024 0.145799994
vn -0.366400003 0.917400002 0.155000001
vn -0.39230001 0.905200005 0.163100004
vn -0.0979000032 0.632600009 0.76819998
vn -0.393000007 0.909200013 0.137400001
vn -0.421799988 0.894900024 0.145799994
vn -0.419999987 0.890699983 0.173500001
vn -0.473800004 0.862699986 0.176499993
vn -0.448300004 0.874300003 0.186000004
vn -0.455300003 0.875999987 0.158999994
vn -0.438199997 0.880299985 0.181299999
vn -0.439599991 0.884899974 0.153400004
vn -0.131999999 0.60650003 0.784099996
vn 0.419999987 -0.890699983 -0.173500001
vn 0.438199997 -0.880299985 -0.181299999
vn 0.439599991 -0.884899974 -0.153400004
vn 0.499300003 -0.639400005 0.584699988
vn 0.505100012 -0.632600009 0.587100029
vn 0.368400007 -0.92049998 -0.130099997
vn 0.366400003 -0.917400002 -0.155000001
vn 0.39230001 -0.905200005 -0.163100004
vn 0.393000007 -0.909200013 -0.137400001
vn 0.462599993 -0.654500008 0.59799999
vn 0.479099989 -0.644900024 0.595399976
vn 0.499300003 -0.639400005 0.584699988
vn 0.419999987 -0.890699983 -0.173500001
vn 0.39230001 -0.905200005 -0.163100004
vn 0.479099989 -0.644900024 0.595399976
vn 0.421799988 -0.894900024 -0.145799994
vn 0.393000007 -0.909200013 -0.137400001
vn 0.428600013 -0.660399973 0.61650002
vn 0.473800004 -0.862699986 -0.176499993
vn 0.448300004 -0.874300003 -0.186000004
vn 0.480300009 -0.646399975 0.592800021
vn 0.499900013 -0.850700021 -0.162699997
vn 0.455300003 -0.875999987 -0.158999994
vn 0.480300009 -0.646399975 0.592800021
vn 0.448300004 -0.874300003 -0.186000004
vn 0.438199997 -0.880299985 -0.181299999
vn 0.505100012 -0.632600009 0.587100029
vn 0.455300003 -0.875999987 -0.158999994
vn 0.439599991 -0.884899974 -0.153400004
vn -0.858200014 -0.447699994 0.251100004
vn -0.850899994 -0.44690001 0.27579999
vn -0.920099974 0.273999989 0.279900014
vn -0.931400001 0.2456 0.268700004
vn -0.489100009 -0.328700006 0.807900012
vn -0.655900002 0.232600003 0.718100011
vn 0.753899992 0.30430001 0.582300007
vn 0.893000007 0.444599986 -0.0700000003
vn 0.364600003 0.92930001 0.0582999997
vn 0.397100002 0.7403 0.542299986
vn 0.892400026 0.444900006 -0.075000003
vn 0.353300005 0.934899986 0.0324999988
vn -0.858200014 -0.447600007 0.251100004
vn -0.851000011 -0.44690001 0.27579999
vn -0.489100009 -0.328700006 0.807900012
vn -0.249899998 -0.96509999 0.0775000006
vn -0.255400002 -0.961300015 0.102799997
vn -0.110699996 -0.806800008 0.580299973
vn 0.753899992 0.304399997 0.582199991
vn 0.893000007 0.444599986 -0.0700000003
vn 0.892400026 0.444900006 -0.075000003
vn 0.860199988 -0.328999996 0.389699996
vn 0.921400011 -0.351000011 -0.1664
vn 0.928600013 -0.342000008 -0.143999994
vn -0.366400003 0.917400002 0.155000001
vn -0.0623000003 0.64380002 0.762600005
vn -0.3574 0.921000004 0.154599994
vn -0.360599995 0.924300015 0.125
vn -0.368400007 0.92049998 0.130099997
vn 0.397100002 0.7403 0.542299986
vn 0.364600003 0.92930001 0.0582999997
vn 0.353300005 0.934899986 0.0324999988
vn 0.456400007 -0.66109997 0.595499992
vn 0.3574 -0.921000004 -0.154599994
vn 0.921400011 -0.351000011 -0.1664
vn 0.860199988 -0.328999996 0.389699996
vn 0.360599995 -0.924300015 -0.125
vn 0.462599993 -0.654500008 0.59799999
vn 0.366400003 -0.917400002 -0.155000001
vn 0.368400007 -0.92049998 -0.130099997
vn -0.534300029 0.830600023 0.156800002
vn -0.501299977 0.851899981 0.151500002
vn -0.473800004 0.862699986 0.176499993
vn -0.499900013 0.850700021 0.162699997
vn -0.276600003 0.548099995 0.789300025
vn -0.931400001 0.2456 0.268700004
vn -0.920099974 0.273999989 0.279900014
vn -0.655900002 0.232600003 0.718100011
vn 0.534300029 -0.830600023 -0.156800002
vn 0.501299977 -0.851899981 -0.151500002
vn -0.255400002 -0.961300015 0.102799997
vn -0.249899998 -0.96509999 0.0775000006
vn 0.499900013 -0.850700021 -0.162699997
vn 0.473800004 -0.862699986 -0.176499993
vn -0.421799988 0.894900024 -0.145799994
vn -0.439599991 0.884899974 -0.153400004
vn -0.446099997 0.889500022 -0.0992999971
vn -0.426899999 0.899500012 -0.0929000005
vn -0.446099997 0.889500022 -0.0992999971
vn -0.448000014 0.8926 -0.0496000014
vn -0.428499997 0.902400017 -0.0439000018
vn -0.426899999 0.899500012 -0.0929000005
vn -0.368400007 0.92049998 -0.130099997
vn -0.393000007 0.909200013 -0.137400001
vn -0.398999989 0.912800014 -0.0864999965
vn -0.370499998 0.925400019 -0.0795999989
vn -0.421799988 0.894900024 -0.145799994
vn -0.426899999 0.899500012 -0.0929000005
vn -0.428499997 0.902400017 -0.0439000018
vn -0.4023 0.914600015 -0.0399999991
vn -0.398999989 0.912800014 -0.0864999965
vn -0.426899999 0.899500012 -0.0929000005
vn -0.370200008 0.928200006 -0.0366000012
vn -0.370499998 0.925400019 -0.0795999989
vn -0.439599991 0.884899974 -0.153400004
vn -0.455300003 0.875999987 -0.158999994
vn -0.465200007 0.879000008 -0.104999997
vn -0.446099997 0.889500022 -0.0992999971
vn -0.499900013 0.850700021 -0.162699997
vn -0.513899982 0.849600017 -0.1184
vn -0.465200007 0.879000008 -0.104999997
vn -0.513899982 0.849600017 -0.1184
vn -0.514100015 0.855099976 -0.0671999976
vn -0.466699988 0.882600009 -0.0568999983
vn -0.448000014 0.8926 -0.0496000014
vn -0.446099997 0.889500022 -0.0992999971
vn 0.446099997 -0.889500022 0.0992999971
vn 0.439599991 -0.884899974 0.153400004
vn 0.421799988 -0.894900024 0.145799994
vn 0.426899999 -0.899500012 0.0929000005
vn 0.428499997 -0.902400017 0.0439000018
vn 0.448000014 -0.8926 0.0496000014
vn 0.446099997 -0.889500022 0.0992999971
vn 0.426899999 -0.899500012 0.0929000005
vn 0.448000014 -0.8926 0.0496000014
vn 0.428499997 -0.902400017 0.0439000018
vn 0.398999989 -0.912800014 0.0864999965
vn 0.393000007 -0.909200013 0.137400001
vn 0.368400007 -0.92049998 0.130099997
vn 0.370499998 -0.925400019 0.0795999989
vn 0.426899999 -0.899500012 0.0929000005
vn 0.421799988 -0.894900024 0.145799994
vn 0.393000007 -0.909200013 0.137400001
vn 0.398999989 -0.912800014 0.0864999965
vn 0.398999989 -0.912800014 0.0864999965
vn 0.4023 -0.914600015 0.0399999991
vn 0.428499997 -0.902400017 0.0439000018
vn 0.426899999 -0.899500012 0.0929000005
vn 0.370499998 -0.925400019 0.0795999989
vn 0.370200008 -0.928200006 0.0366000012
vn 0.4023 -0.914600015 0.0399999991
vn 0.398999989 -0.912800014 0.0864999965
vn 0.4023 -0.914600015 0.0399999991
vn 0.428499997 -0.902400017 0.0439000018
vn 0.370200008 -0.928200006 0.0366000012
vn 0.465200007 -0.879000008 0.104999997
vn 0.455300003 -0.875999987 0.158999994
vn 0.439599991 -0.884899974 0.153400004
vn 0.446099997 -0.889500022 0.0992999971
vn 0.513899982 -0.849600017 0.1184
vn 0.499900013 -0.850700021 0.162699997
vn 0.455300003 -0.875999987 0.158999994
vn 0.465200007 -0.879000008 0.104999997
vn 0.514100015 -0.855099976 0.0671999976
vn 0.513899982 -0.849600017 0.1184
vn 0.465200007 -0.879000008 0.104999997
vn 0.466699988 -0.882600009 0.0568999983
vn 0.446099997 -0.889500022 0.0992999971
vn 0.448000014 -0.8926 0.0496000014
vn 0.466699988 -0.882600009 0.0568999983
vn 0.465200007 -0.879000008 0.104999997
vn 0.514100015 -0.855099976 0.0671999976
vn 0.466699988 -0.882600009 0.0568999983
vn 0.448000014 -0.8926 0.0496000014
vn -0.948599994 0.242400005 -0.203400001
vn -0.931400001 0.2456 -0.268700004
vn -0.858200014 -0.447699994 -0.251100004
vn -0.876900017 -0.448300004 -0.172999993
vn 0.351700008 0.936100006 -0.00680000009
vn 0.356099993 0.934400022 -0.00410000002
vn 0.897000015 0.441399992 0.0244999994
vn 0.893899977 0.444099993 0.0615000017
vn 0.353300005 0.934899986 -0.0324999988
vn 0.351700008 0.936100006 -0.00680000009
vn 0.893899977 0.444099993 0.0615000017
vn 0.892400026 0.444900006 0.075000003
vn -0.960500002 0.257099986 -0.1061
vn -0.89200002 -0.444299996 -0.0828000009
vn -0.960500002 0.257099986 -0.1061
vn -0.948599994 0.242400005 -0.203400001
vn -0.876900017 -0.448300004 -0.172999993
vn -0.89200002 -0.444299996 -0.0828000009
vn 0.356099993 0.934400022 -0.00410000002
vn 0.897000015 0.441399992 0.0244999994
vn -0.159600005 0.581700027 -0.797500014
vn -0.131999999 0.60650003 -0.784099996
vn 0.246199995 0.0131000001 -0.969099998
vn 0.204999998 -0.00810000021 -0.978699982
vn -0.221000001 0.554899991 -0.801999986
vn -0.159600005 0.581700027 -0.797500014
vn 0.204999998 -0.00810000021 -0.978699982
vn 0.129800007 -0.0461999997 -0.990400016
vn -0.115199998 0.621800005 -0.774699986
vn -0.0979000032 0.632600009 -0.76819998
vn 0.256799996 0.0186000001 -0.966300011
vn 0.256599993 0.0185000002 -0.966300011
vn 0.262199998 0.0215000007 -0.9648
vn 0.256799996 0.0186000001 -0.966300011
vn -0.0979000032 0.632600009 -0.76819998
vn -0.0734999999 0.64230001 -0.762899995
vn -0.131999999 0.60650003 -0.784099996
vn -0.115199998 0.621800005 -0.774699986
vn 0.256599993 0.0185000002 -0.966300011
vn 0.246199995 0.0131000001 -0.969099998
vn -0.858200014 -0.447600007 -0.251100004
vn -0.876999974 -0.448199987 -0.172999993
vn -0.249899998 -0.96509999 -0.0775000006
vn -0.273999989 -0.961099982 -0.0357000008
vn 0.897000015 0.441399992 0.0244999994
vn 0.893899977 0.444099993 0.0615000017
vn 0.929400027 -0.366699994 0.0403999984
vn 0.927699983 -0.360500008 0.0971999988
vn 0.893899977 0.444099993 0.0615000017
vn 0.892400026 0.444900006 0.075000003
vn 0.927699983 -0.360500008 0.0971999988
vn 0.928600013 -0.342000008 0.143999994
vn -0.89200002 -0.444299996 -0.0828000009
vn -0.280699998 -0.959699988 -0.00719999988
vn -0.876999974 -0.448199987 -0.172999993
vn -0.89200002 -0.444299996 -0.0828000009
vn -0.273999989 -0.961099982 -0.0357000008
vn 0.897000015 0.441399992 0.0244999994
vn 0.929400027 -0.366699994 0.0403999984
vn 0.246199995 0.0131999999 -0.969099998
vn 0.204899997 -0.00810000021 -0.978699982
vn 0.505200028 -0.632600009 -0.587100029
vn 0.480300009 -0.646399975 -0.592800021
vn 0.204899997 -0.00810000021 -0.978699982
vn 0.129800007 -0.0461000018 -0.990400016
vn 0.480300009 -0.646399975 -0.592800021
vn 0.428600013 -0.660399973 -0.61650002
vn 0.256799996 0.0186000001 -0.966300011
vn 0.256599993 0.0186000001 -0.966300011
vn 0.479099989 -0.644900024 -0.595399976
vn 0.499300003 -0.639400005 -0.584699988
vn 0.262199998 0.0215000007 -0.9648
vn 0.256799996 0.0186000001 -0.966300011
vn 0.462599993 -0.654500008 -0.59799999
vn 0.256599993 0.0186000001 -0.966300011
vn 0.246199995 0.0131999999 -0.969099998
vn 0.499300003 -0.639400005 -0.584699988
vn 0.505200028 -0.632600009 -0.587100029
vn 0.353300005 0.934899986 -0.0324999988
vn -0.360599995 0.924300015 -0.125
vn -0.3583 0.930700004 -0.0733999982
vn -0.368400007 0.92049998 -0.130099997
vn -0.370499998 0.925400019 -0.0795999989
vn -0.370499998 0.925400019 -0.0795999989
vn -0.370200008 0.928200006 -0.0366000012
vn -0.352699995 0.935100019 -0.0329000019
vn -0.3583 0.930700004 -0.0733999982
vn 0.370499998 -0.925400019 0.0795999989
vn 0.368400007 -0.92049998 0.130099997
vn 0.360599995 -0.924300015 0.125
vn 0.3583 -0.930700004 0.0733999982
vn 0.928600013 -0.342000008 0.143999994
vn 0.927699983 -0.360500008 0.0971999988
vn 0.929400027 -0.366699994 0.0403999984
vn 0.352699995 -0.935100019 0.0329000019
vn 0.3583 -0.930700004 0.0733999982
vn 0.370200008 -0.928200006 0.0366000012
vn 0.370499998 -0.925400019 0.0795999989
vn 0.929400027 -0.366699994 0.0403999984
vn 0.352699995 -0.935100019 0.0329000019
vn 0.370200008 -0.928200006 0.0366000012
vn -0.0623000003 0.64380002 -0.762600005
vn 0.264600009 0.0226000007 -0.964100003
vn 0.262199998 0.0215000007 -0.9648
vn -0.0734999999 0.64230001 -0.762899995
vn 0.397100002 0.7403 -0.542299986
vn 0.753899992 0.30430001 -0.582300007
vn 0.262199998 0.0215000007 -0.9648
vn 0.264499992 0.0227000006 -0.964100003
vn 0.753899992 0.304399997 -0.582300007
vn 0.462599993 -0.654500008 -0.59799999
vn 0.456400007 -0.66109997 -0.595499992
vn 0.860199988 -0.328999996 -0.389699996
vn -0.513899982 0.849600017 -0.1184
vn -0.499900013 0.850700021 -0.162699997
vn -0.534300029 0.830600023 -0.156800002
vn -0.548099995 0.826200008 -0.130500004
vn -0.931400001 0.2456 -0.268700004
vn -0.960500002 0.257099986 -0.1061
vn -0.548799992 0.832700014 -0.0737999976
vn -0.548099995 0.826200008 -0.130500004
vn -0.514100015 0.855099976 -0.0671999976
vn -0.513899982 0.849600017 -0.1184
vn -0.273999989 -0.961099982 -0.0357000008
vn -0.249899998 -0.96509999 -0.0775000006
vn 0.534300029 -0.830600023 0.156800002
vn 0.548099995 -0.826200008 0.130500004
vn 0.499900013 -0.850700021 0.162699997
vn 0.513899982 -0.849600017 0.1184
vn 0.513899982 -0.849600017 0.1184
vn 0.514100015 -0.855099976 0.0671999976
vn 0.548799992 -0.832700014 0.0737999976
vn 0.548099995 -0.826200008 0.130500004
vn -0.280699998 -0.959699988 -0.00719999988
vn -0.273999989 -0.961099982 -0.0357000008
vn -0.280699998 -0.959699988 -0.00719999988
vn 0.548799992 -0.832700014 0.0737999976
vn 0.514100015 -0.855099976 0.0671999976
vn -0.489100009 -0.328700006 -0.807900012
vn -0.655900002 0.232600003 -0.718100011
vn -0.276600003 0.548099995 -0.789300025
vn 0.0821999982 -0.0698999986 -0.994099975
vn -0.221000001 0.554899991 -0.801999986
vn 0.129800007 -0.0461999997 -0.990400016
vn -0.489100009 -0.328700006 -0.807900012
vn 0.0821999982 -0.0697999969 -0.994099975
vn 0.129800007 -0.0461000018 -0.990400016
vn -0.110699996 -0.806800008 -0.580200016
vn 0.409099996 -0.675899982 -0.612999976
vn 0.428600013 -0.660399973 -0.61650002
vn -0.131999999 0.60650003 -0.784099996
vn -0.438199997 0.880299985 -0.181299999
vn -0.419999987 0.890699983 -0.173500001
vn -0.421799988 0.894900024 -0.145799994
vn -0.0979000032 0.632600009 -0.76819998
vn -0.39230001 0.905200005 -0.163100004
vn -0.366400003 0.917400002 -0.155000001
vn -0.393000007 0.909200013 -0.137400001
vn -0.421799988 0.894900024 -0.145799994
vn -0.419999987 0.890699983 -0.173500001
vn -0.455300003 0.875999987 -0.158999994
vn -0.448300004 0.874300003 -0.186000004
vn -0.473800004 0.862699986 -0.176499993
vn -0.439599991 0.884899974 -0.153400004
vn -0.438199997 0.880299985 -0.181299999
vn -0.131999999 0.60650003 -0.784099996
vn 0.439599991 -0.884899974 0.153400004
vn 0.438199997 -0.880299985 0.181299999
vn 0.419999987 -0.890699983 0.173500001
vn 0.505200028 -0.632600009 -0.587100029
vn 0.499300003 -0.639400005 -0.584699988
vn 0.368400007 -0.92049998 0.130099997
vn 0.393000007 -0.909200013 0.137400001
vn 0.39230001 -0.905200005 0.163100004
vn 0.366400003 -0.917400002 0.155000001
vn 0.479099989 -0.644900024 -0.595399976
vn 0.462599993 -0.654500008 -0.59799999
vn 0.499300003 -0.639400005 -0.584699988
vn 0.479099989 -0.644900024 -0.595399976
vn 0.39230001 -0.905200005 0.163100004
vn 0.419999987 -0.890699983 0.173500001
vn 0.393000007 -0.909200013 0.137400001
vn 0.421799988 -0.894900024 0.145799994
vn 0.428600013 -0.660399973 -0.61650002
vn 0.480300009 -0.646399975 -0.592800021
vn 0.448300004 -0.874300003 0.186000004
vn 0.473800004 -0.862699986 0.176499993
vn 0.455300003 -0.875999987 0.158999994
vn 0.499900013 -0.850700021 0.162699997
vn 0.480300009 -0.646399975 -0.592800021
vn 0.505200028 -0.632600009 -0.587100029
vn 0.438199997 -0.880299985 0.181299999
vn 0.448300004 -0.874300003 0.186000004
vn 0.439599991 -0.884899974 0.153400004
vn 0.455300003 -0.875999987 0.158999994
vn -0.858200014 -0.447699994 -0.251100004
vn -0.931400001 0.2456 -0.268700004
vn -0.920000017 0.273999989 -0.279900014
vn -0.851000011 -0.44690001 -0.27579999
vn -0.655900002 0.232600003 -0.718100011
vn -0.489100009 -0.328700006 -0.807900012
vn 0.753899992 0.30430001 -0.582300007
vn 0.397100002 0.7403 -0.542299986
vn 0.364600003 0.92930001 -0.0582999997
vn 0.893000007 0.444599986 0.0700000003
vn 0.353300005 0.934899986 -0.0324999988
vn 0.892400026 0.444900006 0.075000003
vn -0.858200014 -0.447600007 -0.251100004
vn -0.851000011 -0.44690001 -0.27579999
vn -0.489100009 -0.328700006 -0.807900012
vn -0.249899998 -0.96509999 -0.0775000006
vn -0.255400002 -0.961300015 -0.102799997
vn -0.110699996 -0.806800008 -0.580200016
vn 0.753899992 0.304399997 -0.582300007
vn 0.89289999 0.444599986 0.0700000003
vn 0.892400026 0.444900006 0.075000003
vn 0.860199988 -0.328999996 -0.389699996
vn 0.921400011 -0.351000011 0.1664
vn 0.928600013 -0.342000008 0.143999994
vn -0.366400003 0.917400002 -0.155000001
vn -0.3574 0.921000004 -0.154599994
vn -0.0623000003 0.64380002 -0.762600005
vn -0.368400007 0.92049998 -0.130099997
vn -0.360599995 0.924300015 -0.125
vn 0.397100002 0.7403 -0.542299986
vn 0.364600003 0.92930001 -0.0582999997
vn 0.353300005 0.934899986 -0.0324999988
vn 0.456400007 -0.66109997 -0.595499992
vn 0.860199988 -0.328999996 -0.389699996
vn 0.921400011 -0.351000011 0.1664
vn 0.3574 -0.921000004 0.154599994
vn 0.360599995 -0.924300015 0.125
vn 0.462599993 -0.654500008 -0.59799999
vn 0.366400003 -0.917400002 0.155000001
vn 0.368400007 -0.92049998 0.130099997
vn -0.534300029 0.830600023 -0.156800002
vn -0.499900013 0.850700021 -0.162699997
vn -0.473800004 0.862699986 -0.176499993
vn -0.501299977 0.851899981 -0.151500002
vn -0.276600003 0.548099995 -0.789300025
vn -0.931400001 0.2456 -0.268700004
vn -0.920000017 0.273999989 -0.279900014
vn -0.655900002 0.232600003 -0.718100011
vn 0.534300029 -0.830600023 0.156800002
vn -0.249899998 -0.96509999 -0.0775000006
vn -0.255400002 -0.961300015 -0.102799997
vn 0.501299977 -0.851899981 0.151500002
vn 0.499900013 -0.850700021 0.162699997
vn 0.473800004 -0.862699986 0.176499993
f 1/1/1 2/2/2 3/3/3
f 1/1/1 3/3/3 4/4/4
f 5/5/5 6/6/6 7/7/7
f 5/5/5 7/7/7 8/8/8
f 8/8/8 7/7/7 9/9/9
f 8/8/8 9/9/9 10/10/10
f 11/11/11 12/12/12 13/13/13
f 11/11/11 13/13/13 14/14/14
f 14/14/14 13/13/13 15/15/15
f 14/14/14 15/15/15 16/16/16
f 17/17/17 18/18/18 19/19/19
f 17/17/17 19/19/19 20/20/20
f 20/20/20 19/19/19 21/21/21
f 20/20/20 21/21/21 22/22/22
f 23/23/23 17/17/17 20/20/20
f 23/23/23 20/20/20 24/24/24
f 24/24/24 20/20/20 22/22/22
f 24/24/24 22/22/22 25/25/25
f 26/26/26 27/27/27 28/28/28
f 26/26/26 28/28/28 29/29/29
f 29/29/29 28/28/28 30/30/30
f 29/29/29 30/30/30 31/31/31
f 32/32/32 33/33/33 34/34/34
f 32/32/32 34/34/34 35/35/35
f 33/33/33 32/32/32 36/36/36
f 33/33/33 36/36/36 37/37/37
f 33/33/33 38/38/38 39/39/39
f 33/33/33 39/39/39 34/34/34
f 38/38/38 33/33/33 37/37/37
f 38/38/38 37/37/37 40/40/40
f 41/41/41 42/42/42 43/43/43
f 41/41/41 43/43/43 44/44/44
f 45/45/45 46/46/46 47/47/47
f 45/45/45 47/47/47 48/48/48
f 49/49/49 50/50/50 51/51/51
f 49/49/49 51/51/51 52/52/52
f 53/53/53 54/54/54 55/55/55
f 53/53/53 55/55/55 56/56/56
f 57/57/57 58/58/58 59/59/59
f 57/57/57 59/59/59 60/60/60
f 61/61/61 62/62/62 63/63/63
f 61/61/61 63/63/63 64/64/64
f 65/65/65 66/66/66 67/67/67
f 65/65/65 67/67/67 68/68/68
f 69/69/69 70/70/70 71/71/71
f 69/69/69 71/71/71 72/72/72
f 73/73/73 64/64/64 74/74/74
f 73/73/73 74/74/74 75/75/75
f 76/76/76 77/77/77 78/78/78
f 76/76/76 78/78/78 79/79/79
f 80/80/80 81/81/81 82/82/82
f 80/80/80 82/82/82 83/83/83
f 84/84/84 85/85/85 86/86/86
f 84/84/84 86/86/86 87/87/87
f 88/88/88 89/89/89 90/90/90
f 88/88/88 90/90/90 91/91/91
f 92/92/92 93/93/93 94/94/94
f 92/92/92 94/94/94 95/95/95
f 96/96/96 85/85/85 97/97/97
f 96/96/96 97/97/97 98/98/98
f 99/99/99 100/100/100 101/101/101
f 99/99/99 101/101/101 102/102/102
f 103/103/103 104/104/104 105/105/105
f 103/103/103 105/105/105 106/106/106
f 107/107/107 108/108/108 109/109/109
f 107/107/107 109/109/109 110/110/110
f 111/111/111 112/112/112 113/113/113
f 111/111/111 113/113/113 114/114/114
f 115/115/115 116/116/116 117/117/117
f 115/115/115 117/117/117 118/118/118
f 119/119/119 120/120/120 121/121/121
f 119/119/119 121/121/121 122/122/122
f 123/123/123 124/124/124 125/125/125
f 123/123/123 125/125/125 126/126/126
f 127/127/127 128/128/128 129/129/129
f 127/127/127 129/129/129 130/130/130
f 131/131/131 132/132/132 133/133/133
f 131/131/131 133/133/133 134/134/134
f 135/135/135 136/136/136 137/137/137
f 135/135/135 137/137/137 138/138/138
f 139/139/139 140/140/140 141/141/141
f 139/139/139 141/141/141 142/142/142
f 100/100/100 143/143/143 144/144/144
f 100/100/100 144/144/144 101/101/101
f 143/143/143 145/145/145 146/146/146
f 143/143/143 146/146/146 144/144/144
f 104/104/104 147/147/147 148/148/148
f 104/104/104 148/148/148 105/105/105
f 147/147/147 149/149/149 150/150/150
f 147/147/147 150/150/150 148/148/148
f 108/108/108 151/151/151 152/152/152
f 108/108/108 152/152/152 109/109/109
f 151/151/151 153/153/153 154/154/154
f 151/151/151 154/154/154 152/152/152
f 112/112/112 155/155/155 156/156/156
f 112/112/112 156/156/156 113/113/113
f 155/155/155 157/157/157 158/158/158
f 155/155/155 158/158/158 156/156/156
f 116/116/116 159/159/159 160/160/160
f 116/116/116 160/160/160 117/117/117
f 159/159/159 158/158/158 161/161/161
f 159/159/159 161/161/161 160/160/160
f 120/120/120 162/162/162 163/163/163
f 120/120/120 163/163/163 121/121/121
f 162/162/162 164/164/164 165/165/165
f 162/162/162 165/165/165 163/163/163
f 124/124/124 166/166/166 167/167/167
f 124/124/124 167/167/167 125/125/125
f 166/166/166 168/168/168 169/169/169
f 166/166/166 169/169/169 167/167/167
f 128/128/128 170/170/170 171/171/171
f 128/128/128 171/171/171 129/129/129
f 170/170/170 172/172/172 173/173/173
f 170/170/170 173/173/173 171/171/171
f 132/132/132 174/174/174 175/175/175
f 132/132/132 175/175/175 133/133/133
f 174/174/174 176/176/176 177/177/177
f 174/174/174 177/177/177 175/175/175
f 138/138/138 178/178/178 179/179/179
f 138/138/138 179/179/179 135/135/135
f 178/178/178 177/177/177 180/180/180
f 178/178/178 180/180/180 179/179/179
f 140/140/140 181/181/181 182/182/182
f 140/140/140 182/182/182 141/141/141
f 181/181/181 183/183/183 184/184/184
f 181/181/181 184/184/184 182/182/182
f 110/110/110 185/185/185 186/186/186
f 110/110/110 186/186/186 187/187/187
f 185/185/185 188/188/188 189/189/189
f 185/185/185 189/189/189 186/186/186
f 190/190/190 191/191/191 192/192/192
f 190/190/190 192/192/192 193/193/193
f 191/191/191 103/103/103 119/119/119
f 191/191/191 119/119/119 192/192/192
f 193/193/193 192/192/192 194/194/194
f 193/193/193 194/194/194 195/195/195
f 192/192/192 119/119/119 196/196/196
f 192/192/192 196/196/196 194/194/194
f 197/197/197 198/198/198 199/199/199
f 197/197/197 199/199/199 200/200/200
f 198/198/198 201/201/201 202/202/202
f 198/198/198 202/202/202 199/199/199
f 154/154/154 203/203/203 204/204/204
f 154/154/154 204/204/204 205/205/205
f 203/203/203 206/206/206 207/207/207
f 203/203/203 207/207/207 204/204/204
f 208/208/208 209/209/209 210/210/210
f 208/208/208 210/210/210 211/211/211
f 209/209/209 212/212/212 213/213/213
f 209/209/209 213/213/213 210/210/210
f 214/214/214 215/215/215 216/216/216
f 214/214/214 216/216/216 217/217/217
f 217/217/217 218/218/218 219/219/219
f 217/217/217 219/219/219 214/214/214
f 220/220/220 221/221/221 217/217/217
f 220/220/220 217/217/217 216/216/216
f 221/221/221 222/222/222 218/218/218
f 221/221/221 218/218/218 217/217/217
f 223/223/223 224/224/224 221/221/221
f 223/223/223 221/221/221 220/220/220
f 224/224/224 225/225/225 222/222/222
f 224/224/224 222/222/222 221/221/221
f 226/226/226 227/227/227 228/228/228
f 226/226/226 228/228/228 229/229/229
f 227/227/227 99/99/99 230/230/230
f 227/227/227 230/230/230 228/228/228
f 118/118/118 231/231/231 232/232/232
f 118/118/118 232/232/232 233/233/233
f 231/231/231 234/234/234 235/235/235
f 231/231/231 235/235/235 232/232/232
f 236/236/236 237/237/237 232/232/232
f 236/236/236 232/232/232 235/235/235
f 237/237/237 111/111/111 233/233/233
f 237/237/237 233/233/233 232/232/232
f 238/238/238 239/239/239 240/240/240
f 238/238/238 240/240/240 241/241/241
f 239/239/239 242/242/242 243/243/243
f 239/239/239 243/243/243 240/240/240
f 244/244/244 245/245/245 246/246/246
f 244/244/244 246/246/246 247/247/247
f 245/245/245 248/248/248 249/249/249
f 245/245/245 249/249/249 246/246/246
f 250/250/250 251/251/251 252/252/252
f 250/250/250 252/252/252 253/253/253
f 251/251/251 254/254/254 255/255/255
f 251/251/251 255/255/255 252/252/252
f 256/256/256 257/257/257 258/258/258
f 256/256/256 258/258/258 259/259/259
f 257/257/257 260/260/260 261/261/261
f 257/257/257 261/261/261 258/258/258
f 262/262/262 263/263/263 257/257/257
f 262/262/262 257/257/257 256/256/256
f 263/263/263 264/264/264 260/260/260
f 263/263/263 260/260/260 257/257/257
f 265/265/265 266/266/266 263/263/263
f 265/265/265 263/263/263 262/262/262
f 266/266/266 267/267/267 264/264/264
f 266/266/266 264/264/264 263/263/263
f 142/142/142 268/268/268 269/269/269
f 142/142/142 269/269/269 270/270/270
f 268/268/268 271/271/271 4/4/4
f 268/268/268 4/4/4 269/269/269
f 136/136/136 272/272/272 273/273/273
f 136/136/136 273/273/273 274/274/274
f 272/272/272 11/11/11 275/275/275
f 272/272/272 275/275/275 273/273/273
f 276/276/276 277/277/277 273/273/273
f 276/276/276 273/273/273 275/275/275
f 277/277/277 131/131/131 274/274/274
f 277/277/277 274/274/274 273/273/273
f 31/31/31 278/278/278 279/279/279
f 31/31/31 279/279/279 280/280/280
f 278/278/278 127/127/127 123/123/123
f 278/278/278 123/123/123 279/279/279
f 280/280/280 279/279/279 281/281/281
f 280/280/280 281/281/281 282/282/282
f 279/279/279 123/123/123 283/283/283
f 279/279/279 283/283/283 281/281/281
f 43/43/43 284/284/284 285/285/285
f 43/43/43 285/285/285 286/286/286
f 284/284/284 287/287/287 288/288/288
f 284/284/284 288/288/288 285/285/285
f 289/289/289 290/290/290 291/291/291
f 289/289/289 291/291/291 292/292/292
f 290/290/290 293/293/293 294/294/294
f 290/290/290 294/294/294 291/291/291
f 295/295/295 296/296/296 297/297/297
f 295/295/295 297/297/297 298/298/298
f 296/296/296 299/299/299 300/300/300
f 296/296/296 300/300/300 297/297/297
f 301/301/301 302/302/302 303/303/303
f 301/301/301 303/303/303 304/304/304
f 302/302/302 305/305/305 306/306/306
f 302/302/302 306/306/306 303/303/303
f 307/307/307 308/308/308 309/309/309
f 307/307/307 309/309/309 310/310/310
f 308/308/308 311/311/311 312/312/312
f 308/308/308 312/312/312 309/309/309
f 313/313/313 314/314/314 315/315/315
f 313/313/313 315/315/315 316/316/316
f 314/314/314 317/317/317 318/318/318
f 314/314/314 318/318/318 315/315/315
f 319/319/319 320/320/320 321/321/321
f 319/319/319 321/321/321 322/322/322
f 320/320/320 323/323/323 324/324/324
f 320/320/320 324/324/324 321/321/321
f 325/325/325 326/326/326 314/314/314
f 325/325/325 314/314/314 313/313/313
f 326/326/326 327/327/327 317/317/317
f 326/326/326 317/317/317 314/314/314
f 328/328/328 329/329/329 326/326/326
f 328/328/328 326/326/326 325/325/325
f 329/329/329 330/330/330 327/327/327
f 329/329/329 327/327/327 326/326/326
f 331/331/331 332/332/332 320/320/320
f 331/331/331 320/320/320 319/319/319
f 332/332/332 333/333/333 323/323/323
f 332/332/332 323/323/323 320/320/320
f 334/334/334 335/335/335 332/332/332
f 334/334/334 332/332/332 331/331/331
f 335/335/335 336/336/336 333/333/333
f 335/335/335 333/333/333 332/332/332
f 337/337/337 215/215/215 338/338/338
f 337/337/337 338/338/338 339/339/339
f 339/339/339 340/340/340 341/341/341
f 339/339/339 341/341/341 337/337/337
f 342/342/342 343/343/343 339/339/339
f 342/342/342 339/339/339 338/338/338
f 343/343/343 344/344/344 340/340/340
f 343/343/343 340/340/340 339/339/339
f 345/345/345 346/346/346 347/347/347
f 345/345/345 347/347/347 348/348/348
f 346/346/346 349/349/349 336/336/336
f 346/346/346 336/336/336 347/347/347
f 350/350/350 351/351/351 346/346/346
f 350/350/350 346/346/346 345/345/345
f 351/351/351 352/352/352 349/349/349
f 351/351/351 349/349/349 346/346/346
f 353/353/353 354/354/354 355/355/355
f 353/353/353 355/355/355 356/356/356
f 354/354/354 357/357/357 261/261/261
f 354/354/354 261/261/261 355/355/355
f 358/358/358 359/359/359 354/354/354
f 358/358/358 354/354/354 353/353/353
f 359/359/359 360/360/360 357/357/357
f 359/359/359 357/357/357 354/354/354
f 361/361/361 362/362/362 363/363/363
f 361/361/361 363/363/363 364/364/364
f 362/362/362 266/266/266 330/330/330
f 362/362/362 330/330/330 363/363/363
f 365/365/365 366/366/366 362/362/362
f 365/365/365 362/362/362 361/361/361
f 366/366/366 301/301/301 266/266/266
f 366/366/366 266/266/266 362/362/362
f 367/367/367 368/368/368 369/369/369
f 367/367/367 369/369/369 370/370/370
f 371/371/371 372/372/372 373/373/373
f 371/371/371 373/373/373 374/374/374
f 372/372/372 10/10/10 9/9/9
f 372/372/372 9/9/9 373/373/373
f 375/375/375 376/376/376 377/377/377
f 375/375/375 377/377/377 378/378/378
f 376/376/376 379/379/379 380/380/380
f 376/376/376 380/380/380 377/377/377
f 381/381/381 382/382/382 383/383/383
f 381/381/381 383/383/383 384/384/384
f 382/382/382 385/385/385 386/386/386
f 382/382/382 386/386/386 383/383/383
f 23/23/23 24/24/24 382/382/382
f 23/23/23 382/382/382 381/381/381
f 24/24/24 25/25/25 385/385/385
f 24/24/24 385/385/385 382/382/382
f 387/387/387 388/388/388 389/389/389
f 387/387/387 389/389/389 390/390/390
f 388/388/388 391/391/391 392/392/392
f 388/388/388 392/392/392 389/389/389
f 393/393/393 394/394/394 395/395/395
f 393/393/393 395/395/395 396/396/396
f 396/396/396 397/397/397 398/398/398
f 396/396/396 398/398/398 393/393/393
f 396/396/396 395/395/395 39/39/39
f 396/396/396 39/39/39 38/38/38
f 38/38/38 40/40/40 397/397/397
f 38/38/38 397/397/397 396/396/396
f 399/399/399 400/400/400 401/401/401
f 399/399/399 401/401/401 402/402/402
f 403/403/403 404/404/404 405/405/405
f 403/403/403 405/405/405 406/406/406
f 49/49/49 52/52/52 407/407/407
f 49/49/49 407/407/407 408/408/408
f 409/409/409 410/410/410 411/411/411
f 409/409/409 411/411/411 412/412/412
f 413/413/413 414/414/414 415/415/415
f 413/413/413 415/415/415 416/416/416
f 417/417/417 418/418/418 419/419/419
f 417/417/417 419/419/419 420/420/420
f 421/421/421 422/422/422 423/423/423
f 421/421/421 423/423/423 424/424/424
f 425/425/425 72/72/72 71/71/71
f 425/425/425 71/71/71 426/426/426
f 427/427/427 75/75/75 74/74/74
f 427/427/427 74/74/74 418/418/418
f 428/428/428 429/429/429 430/430/430
f 428/428/428 430/430/430 431/431/431
f 432/432/432 433/433/433 434/434/434
f 432/432/432 434/434/434 435/435/435
f 436/436/436 437/437/437 438/438/438
f 436/436/436 438/438/438 439/439/439
f 440/440/440 441/441/441 442/442/442
f 440/440/440 442/442/442 443/443/443
f 92/92/92 444/444/444 445/445/445
f 92/92/92 445/445/445 93/93/93
f 446/446/446 98/98/98 97/97/97
f 446/446/446 97/97/97 439/439/439
f 447/447/447 448/448/448 449/449/449
f 447/447/447 449/449/449 450/450/450
f 451/451/451 452/452/452 453/453/453
f 451/451/451 453/453/453 454/454/454
f 455/455/455 456/456/456 457/457/457
f 455/455/455 457/457/457 458/458/458
f 111/111/111 459/459/459 460/460/460
f 111/111/111 460/460/460 112/112/112
f 461/461/461 462/462/462 463/463/463
f 461/461/461 463/463/463 464/464/464
f 465/465/465 122/122/122 121/121/121
f 465/465/465 121/121/121 466/466/466
f 467/467/467 468/468/468 469/469/469
f 467/467/467 469/469/469 470/470/470
f 471/471/471 472/472/472 473/473/473
f 471/471/471 473/473/473 474/474/474
f 475/475/475 476/476/476 477/477/477
f 475/475/475 477/477/477 478/478/478
f 479/479/479 480/480/480 481/481/481
f 479/479/479 481/481/481 482/482/482
f 483/483/483 484/484/484 485/485/485
f 483/483/483 485/485/485 486/486/486
f 450/450/450 449/449/449 487/487/487
f 450/450/450 487/487/487 488/488/488
f 488/488/488 487/487/487 489/489/489
f 488/488/488 489/489/489 490/490/490
f 454/454/454 453/453/453 491/491/491
f 454/454/454 491/491/491 492/492/492
f 492/492/492 491/491/491 493/493/493
f 492/492/492 493/493/493 494/494/494
f 458/458/458 457/457/457 495/495/495
f 458/458/458 495/495/495 496/496/496
f 496/496/496 495/495/495 497/497/497
f 496/496/496 497/497/497 498/498/498
f 112/112/112 460/460/460 499/499/499
f 112/112/112 499/499/499 155/155/155
f 155/155/155 499/499/499 500/500/500
f 155/155/155 500/500/500 157/157/157
f 464/464/464 463/463/463 501/501/501
f 464/464/464 501/501/501 502/502/502
f 502/502/502 501/501/501 503/503/503
f 502/502/502 503/503/503 500/500/500
f 466/466/466 121/121/121 163/163/163
f 466/466/466 163/163/163 504/504/504
f 504/504/504 163/163/163 165/165/165
f 504/504/504 165/165/165 505/505/505
f 470/470/470 469/469/469 506/506/506
f 470/470/470 506/506/506 507/507/507
f 507/507/507 506/506/506 508/508/508
f 507/507/507 508/508/508 509/509/509
f 474/474/474 473/473/473 510/510/510
f 474/474/474 510/510/510 511/511/511
f 511/511/511 510/510/510 512/512/512
f 511/511/511 512/512/512 513/513/513
f 478/478/478 477/477/477 514/514/514
f 478/478/478 514/514/514 515/515/515
f 515/515/515 514/514/514 516/516/516
f 515/515/515 516/516/516 517/517/517
f 480/480/480 479/479/479 518/518/518
f 480/480/480 518/518/518 519/519/519
f 519/519/519 518/518/518 520/520/520
f 519/519/519 520/520/520 516/516/516
f 486/486/486 485/485/485 521/521/521
f 486/486/486 521/521/521 522/522/522
f 522/522/522 521/521/521 523/523/523
f 522/522/522 523/523/523 524/524/524
f 456/456/456 525/525/525 526/526/526
f 456/456/456 526/526/526 527/527/527
f 527/527/527 526/526/526 528/528/528
f 527/527/527 528/528/528 529/529/529
f 530/530/530 531/531/531 532/532/532
f 530/530/530 532/532/532 533/533/533
f 533/533/533 532/532/532 465/465/465
f 533/533/533 465/465/465 451/451/451
f 531/531/531 195/195/195 194/194/194
f 531/531/531 194/194/194 532/532/532
f 532/532/532 194/194/194 196/196/196
f 532/532/532 196/196/196 465/465/465
f 534/534/534 535/535/535 536/536/536
f 534/534/534 536/536/536 537/537/537
f 537/537/537 536/536/536 538/538/538
f 537/537/537 538/538/538 539/539/539
f 497/497/497 540/540/540 541/541/541
f 497/497/497 541/541/541 542/542/542
f 542/542/542 541/541/541 543/543/543
f 542/542/542 543/543/543 544/544/544
f 545/545/545 211/211/211 210/210/210
f 545/545/545 210/210/210 546/546/546
f 546/546/546 210/210/210 213/213/213
f 546/546/546 213/213/213 547/547/547
f 548/548/548 549/549/549 550/550/550
f 548/548/548 550/550/550 551/551/551
f 549/549/549 548/548/548 552/552/552
f 549/549/549 552/552/552 553/553/553
f 554/554/554 550/550/550 549/549/549
f 554/554/554 549/549/549 555/555/555
f 555/555/555 549/549/549 553/553/553
f 555/555/555 553/553/553 556/556/556
f 557/557/557 554/554/554 555/555/555
f 557/557/557 555/555/555 558/558/558
f 558/558/558 555/555/555 556/556/556
f 558/558/558 556/556/556 559/559/559
f 560/560/560 561/561/561 562/562/562
f 560/560/560 562/562/562 563/563/563
f 563/563/563 562/562/562 564/564/564
f 563/563/563 564/564/564 447/447/447
f 462/462/462 565/565/565 566/566/566
f 462/462/462 566/566/566 567/567/567
f 567/567/567 566/566/566 568/568/568
f 567/567/567 568/568/568 569/569/569
f 236/236/236 568/568/568 566/566/566
f 236/236/236 566/566/566 237/237/237
f 237/237/237 566/566/566 565/565/565
f 237/237/237 565/565/565 111/111/111
f 570/570/570 571/571/571 572/572/572
f 570/570/570 572/572/572 573/573/573
f 573/573/573 572/572/572 574/574/574
f 573/573/573 574/574/574 575/575/575
f 576/576/576 577/577/577 578/578/578
f 576/576/576 578/578/578 579/579/579
f 579/579/579 578/578/578 580/580/580
f 579/579/579 580/580/580 581/581/581
f 250/250/250 582/582/582 583/583/583
f 250/250/250 583/583/583 251/251/251
f 251/251/251 583/583/583 584/584/584
f 251/251/251 584/584/584 254/254/254
f 585/585/585 586/586/586 587/587/587
f 585/585/585 587/587/587 588/588/588
f 588/588/588 587/587/587 589/589/589
f 588/588/588 589/589/589 590/590/590
f 591/591/591 585/585/585 588/588/588
f 591/591/591 588/588/588 592/592/592
f 592/592/592 588/588/588 590/590/590
f 592/592/592 590/590/590 593/593/593
f 594/594/594 591/591/591 592/592/592
f 594/594/594 592/592/592 595/595/595
f 595/595/595 592/592/592 593/593/593
f 595/595/595 593/593/593 596/596/596
f 484/484/484 597/597/597 598/598/598
f 484/484/484 598/598/598 599/599/599
f 599/599/599 598/598/598 368/368/368
f 599/599/599 368/368/368 600/600/600
f 482/482/482 601/601/601 602/602/602
f 482/482/482 602/602/602 603/603/603
f 603/603/603 602/602/602 604/604/604
f 603/603/603 604/604/604 375/375/375
f 605/605/605 604/604/604 602/602/602
f 605/605/605 602/602/602 606/606/606
f 606/606/606 602/602/602 601/601/601
f 606/606/606 601/601/601 475/475/475
f 391/391/391 607/607/607 608/608/608
f 391/391/391 608/608/608 609/609/609
f 609/609/609 608/608/608 467/467/467
f 609/609/609 467/467/467 471/471/471
f 607/607/607 610/610/610 611/611/611
f 607/607/607 611/611/611 608/608/608
f 608/608/608 611/611/611 612/612/612
f 608/608/608 612/612/612 467/467/467
f 401/401/401 613/613/613 614/614/614
f 401/401/401 614/614/614 615/615/615
f 615/615/615 614/614/614 616/616/616
f 615/615/615 616/616/616 617/617/617
f 618/618/618 619/619/619 620/620/620
f 618/618/618 620/620/620 621/621/621
f 621/621/621 620/620/620 622/622/622
f 621/621/621 622/622/622 623/623/623
f 624/624/624 625/625/625 626/626/626
f 624/624/624 626/626/626 627/627/627
f 627/627/627 626/626/626 628/628/628
f 627/627/627 628/628/628 629/629/629
f 630/630/630 631/631/631 632/632/632
f 630/630/630 632/632/632 633/633/633
f 633/633/633 632/632/632 634/634/634
f 633/633/633 634/634/634 635/635/635
f 636/636/636 637/637/637 638/638/638
f 636/636/636 638/638/638 639/639/639
f 639/639/639 638/638/638 640/640/640
f 639/639/639 640/640/640 641/641/641
f 642/642/642 643/643/643 644/644/644
f 642/642/642 644/644/644 645/645/645
f 645/645/645 644/644/644 646/646/646
f 645/645/645 646/646/646 647/647/647
f 648/648/648 649/649/649 650/650/650
f 648/648/648 650/650/650 651/651/651
f 651/651/651 650/650/650 652/652/652
f 651/651/651 652/652/652 653/653/653
f 654/654/654 642/642/642 645/645/645
f 654/654/654 645/645/645 655/655/655
f 655/655/655 645/645/645 647/647/647
f 655/655/655 647/647/647 656/656/656
f 657/657/657 654/654/654 655/655/655
f 657/657/657 655/655/655 658/658/658
f 658/658/658 655/655/655 656/656/656
f 658/658/658 656/656/656 659/659/659
f 660/660/660 648/648/648 651/651/651
f 660/660/660 651/651/651 661/661/661
f 661/661/661 651/651/651 653/653/653
f 661/661/661 653/653/653 662/662/662
f 663/663/663 660/660/660 661/661/661
f 663/663/663 661/661/661 664/664/664
f 664/664/664 661/661/661 662/662/662
f 664/664/664 662/662/662 665/665/665
f 666/666/666 667/667/667 668/668/668
f 666/666/666 668/668/668 551/551/551
f 667/667/667 666/666/666 669/669/669
f 667/667/667 669/669/669 670/670/670
f 671/671/671 668/668/668 667/667/667
f 671/671/671 667/667/667 672/672/672
f 672/672/672 667/667/667 670/670/670
f 672/672/672 670/670/670 673/673/673
f 674/674/674 675/675/675 676/676/676
f 674/674/674 676/676/676 677/677/677
f 677/677/677 676/676/676 665/665/665
f 677/677/677 665/665/665 678/678/678
f 679/679/679 674/674/674 677/677/677
f 679/679/679 677/677/677 680/680/680
f 680/680/680 677/677/677 678/678/678
f 680/680/680 678/678/678 681/681/681
f 682/682/682 683/683/683 684/684/684
f 682/682/682 684/684/684 685/685/685
f 685/685/685 684/684/684 589/589/589
f 685/685/685 589/589/589 686/686/686
f 687/687/687 682/682/682 685/685/685
f 687/687/687 685/685/685 688/688/688
f 688/688/688 685/685/685 686/686/686
f 688/688/688 686/686/686 689/689/689
f 690/690/690 691/691/691 692/692/692
f 690/690/690 692/692/692 693/693/693
f 693/693/693 692/692/692 659/659/659
f 693/693/693 659/659/659 595/595/595
f 694/694/694 690/690/690 693/693/693
f 694/694/694 693/693/693 695/695/695
f 695/695/695 693/693/693 595/595/595
f 695/695/695 595/595/595 630/630/630
