# Generated by lxe_pbrt_scene_convert
v -2.00067997 -0.013146 1.840662
v -2.01762509 -0.0439309999 1.840662
v -2.00510812 -0.0434500016 1.840662
v -1.99860299 -0.0308880005 1.840662
v -1.98225105 -0.0429570004 1.840662
v -1.97111106 -0.0424350016 1.840662
v -1.97175598 -0.0125230001 1.840662
v -1.98251402 -0.0307870004 1.840662
v -1.97175598 -0.0125230001 1.840662
v -1.98262596 -0.0124749998 1.840662
v -1.98943698 -0.023914 1.840662
v -1.98943698 -0.023914 1.840662
v -1.98910999 -0.0128969997 1.840662
v -1.99860299 -0.0308880005 1.840662
v -1.98251402 -0.0307870004 1.840662
v -1.99945903 -0.0436099991 1.840662
v -1.98873496 -0.0433790013 1.840662
v -1.98251402 -0.0307870004 1.840662
v -1.96325099 -0.0272649992 1.840662
v -1.949983 -0.0229410008 1.840662
v -1.95007503 -0.0186470002 1.840662
v -1.963552 -0.0132910004 1.840662
v -1.94941103 -0.0298270006 1.840662
v -1.96325099 -0.0272649992 1.840662
v -1.95007503 -0.0186470002 1.840662
v -1.95071101 -0.0119470004 1.840662
v -1.963552 -0.0132910004 1.840662
v -1.96325099 -0.0272649992 1.840662
v -1.96294904 -0.0412399992 1.840662
v -1.94929802 -0.0350469984 1.840662
v -1.94929802 -0.0350469984 1.840662
v -1.94904602 -0.0419219993 1.840662
v -1.93180299 -0.034669999 1.840662
v -1.94904602 -0.0419219993 1.840662
v -1.93240094 -0.0413420014 1.840662
v -1.93240094 -0.0413420014 1.840662
v -1.91770506 -0.039797999 1.840662
v -1.93180299 -0.034669999 1.840662
v -1.91770506 -0.039797999 1.840662
v -1.91881895 -0.0222689994 1.840662
v -1.93164003 -0.0296049993 1.840662
v -1.93164003 -0.0296049993 1.840662
v -1.91881895 -0.0222689994 1.840662
v -1.93175697 -0.0225479994 1.840662
v -1.93175697 -0.0225479994 1.840662
v -1.949983 -0.0229410008 1.840662
v -1.94941103 -0.0298270006 1.840662
v -1.93172204 -0.0198839996 1.840662
v -1.918396 -0.0195969995 1.840662
v -1.91879797 -0.0123260003 1.840662
v -1.93191695 -0.0182549991 1.840662
v -1.93191695 -0.0182549991 1.840662
v -1.91879797 -0.0123260003 1.840662
v -1.93009198 -0.011833 1.840662
v -1.93009198 -0.011833 1.840662
v -1.95071101 -0.0119470004 1.840662
v -1.95007503 -0.0186470002 1.840662
v -2.01762509 -0.0439309999 1.840662
v -2.00067997 -0.013146 1.840662
v -2.00067997 -0.013146 1.83850896
v -2.01762509 -0.0439309999 1.83850896
v -2.00067997 -0.013146 1.840662
v -1.98910999 -0.0128969997 1.840662
v -1.98910999 -0.0128969997 1.83850896
v -2.00067997 -0.013146 1.83850896
v -1.98943698 -0.023914 1.83850896
v -1.98910999 -0.0128969997 1.83850896
v -1.98910999 -0.0128969997 1.840662
v -1.98943698 -0.023914 1.840662
v -1.98262596 -0.0124749998 1.83850896
v -1.98943698 -0.023914 1.83850896
v -1.98943698 -0.023914 1.840662
v -1.98262596 -0.0124749998 1.840662
v -1.97175598 -0.0125230001 1.83850896
v -1.98262596 -0.0124749998 1.83850896
v -1.98262596 -0.0124749998 1.840662
v -1.97175598 -0.0125230001 1.840662
v -1.97111106 -0.0424350016 1.83850896
v -1.97175598 -0.0125230001 1.83850896
v -1.97175598 -0.0125230001 1.840662
v -1.97111106 -0.0424350016 1.840662
v -1.98225105 -0.0429570004 1.83850896
v -1.97111106 -0.0424350016 1.83850896
v -1.97111106 -0.0424350016 1.840662
v -1.98225105 -0.0429570004 1.840662
v -1.98251402 -0.0307870004 1.83850896
v -1.98225105 -0.0429570004 1.83850896
v -1.98225105 -0.0429570004 1.840662
v -1.98251402 -0.0307870004 1.840662
v -1.98873496 -0.0433790013 1.83850896
v -1.98251402 -0.0307870004 1.83850896
v -1.98251402 -0.0307870004 1.840662
v -1.98873496 -0.0433790013 1.840662
v -1.99945903 -0.0436099991 1.83850896
v -1.98873496 -0.0433790013 1.83850896
v -1.98873496 -0.0433790013 1.840662
v -1.99945903 -0.0436099991 1.840662
v -1.99860299 -0.0308880005 1.83850896
v -1.99945903 -0.0436099991 1.83850896
v -1.99945903 -0.0436099991 1.840662
v -1.99860299 -0.0308880005 1.840662
v -2.00510812 -0.0434500016 1.83850896
v -1.99860299 -0.0308880005 1.83850896
v -1.99860299 -0.0308880005 1.840662
v -2.00510812 -0.0434500016 1.840662
v -2.01762509 -0.0439309999 1.83850896
v -2.00510812 -0.0434500016 1.83850896
v -2.00510812 -0.0434500016 1.840662
v -2.01762509 -0.0439309999 1.840662
v -1.94904602 -0.0419219993 1.83850896
v -1.94904602 -0.0419219993 1.840662
v -1.96294904 -0.0412399992 1.840662
v -1.96294904 -0.0412399992 1.83850896
v -1.95071101 -0.0119470004 1.83850896
v -1.963552 -0.0132910004 1.83850896
v -1.963552 -0.0132910004 1.840662
v -1.95071101 -0.0119470004 1.840662
v -1.93009198 -0.011833 1.83850896
v -1.95071101 -0.0119470004 1.83850896
v -1.95071101 -0.0119470004 1.840662
v -1.93009198 -0.011833 1.840662
v -1.91879797 -0.0123260003 1.83850896
v -1.93009198 -0.011833 1.83850896
v -1.93009198 -0.011833 1.840662
v -1.91879797 -0.0123260003 1.840662
v -1.918396 -0.0195969995 1.83850896
v -1.91879797 -0.0123260003 1.83850896
v -1.91879797 -0.0123260003 1.840662
v -1.918396 -0.0195969995 1.840662
v -1.93172204 -0.0198839996 1.83850896
v -1.918396 -0.0195969995 1.83850896
v -1.918396 -0.0195969995 1.840662
v -1.93172204 -0.0198839996 1.840662
v -1.93191695 -0.0182549991 1.83850896
v -1.93172204 -0.0198839996 1.83850896
v -1.93172204 -0.0198839996 1.840662
v -1.93191695 -0.0182549991 1.840662
v -1.95007503 -0.0186470002 1.83850896
v -1.93191695 -0.0182549991 1.83850896
v -1.93191695 -0.0182549991 1.840662
v -1.95007503 -0.0186470002 1.840662
v -1.949983 -0.0229410008 1.83850896
v -1.95007503 -0.0186470002 1.83850896
v -1.95007503 -0.0186470002 1.840662
v -1.949983 -0.0229410008 1.840662
v -1.91881895 -0.0222689994 1.83850896
v -1.91881895 -0.0222689994 1.840662
v -1.91770506 -0.039797999 1.840662
v -1.91770506 -0.039797999 1.83850896
v -1.91770506 -0.039797999 1.83850896
v -1.91770506 -0.039797999 1.840662
v -1.93240094 -0.0413420014 1.840662
v -1.93240094 -0.0413420014 1.83850896
v -1.93240094 -0.0413420014 1.83850896
v -1.93240094 -0.0413420014 1.840662
v -1.94904602 -0.0419219993 1.840662
v -1.94904602 -0.0419219993 1.83850896
v -1.93164003 -0.0296049993 1.83850896
v -1.93164003 -0.0296049993 1.840662
v -1.94941103 -0.0298270006 1.840662
v -1.94941103 -0.0298270006 1.83850896
v -1.94941103 -0.0298270006 1.83850896
v -1.94941103 -0.0298270006 1.840662
v -1.94929802 -0.0350469984 1.840662
v -1.94929802 -0.0350469984 1.83850896
v -1.94929802 -0.0350469984 1.83850896
v -1.94929802 -0.0350469984 1.840662
v -1.93180299 -0.034669999 1.840662
v -1.93180299 -0.034669999 1.83850896
v -1.93180299 -0.034669999 1.83850896
v -1.93180299 -0.034669999 1.840662
v -1.93164003 -0.0296049993 1.840662
v -1.93164003 -0.0296049993 1.83850896
v -1.949983 -0.0229410008 1.83850896
v -1.949983 -0.0229410008 1.840662
v -1.93175697 -0.0225479994 1.840662
v -1.93175697 -0.0225479994 1.83850896
v -1.93175697 -0.0225479994 1.83850896
v -1.93175697 -0.0225479994 1.840662
v -1.91881895 -0.0222689994 1.840662
v -1.91881895 -0.0222689994 1.83850896
v -1.96294904 -0.0412399992 1.83850896
v -1.96294904 -0.0412399992 1.840662
v -1.96325099 -0.0272649992 1.840662
v -1.96325099 -0.0272649992 1.83850896
v -1.963552 -0.0132910004 1.83850896
v -1.96325099 -0.0272649992 1.83850896
v -1.96325099 -0.0272649992 1.840662
v -1.963552 -0.0132910004 1.840662
v -2.00067997 -0.013146 1.83850896
v -1.99860299 -0.0308880005 1.83850896
v -2.00510812 -0.0434500016 1.83850896
v -2.01762509 -0.0439309999 1.83850896
v -1.97175598 -0.0125230001 1.83850896
v -1.97111106 -0.0424350016 1.83850896
v -1.98225105 -0.0429570004 1.83850896
v -1.98251402 -0.0307870004 1.83850896
v -1.98943698 -0.023914 1.83850896
v -1.98262596 -0.0124749998 1.83850896
v -1.97175598 -0.0125230001 1.83850896
v -1.98910999 -0.0128969997 1.83850896
v -1.98943698 -0.023914 1.83850896
v -1.98251402 -0.0307870004 1.83850896
v -1.99860299 -0.0308880005 1.83850896
v -1.98251402 -0.0307870004 1.83850896
v -1.98873496 -0.0433790013 1.83850896
v -1.99945903 -0.0436099991 1.83850896
v -1.95007503 -0.0186470002 1.83850896
v -1.949983 -0.0229410008 1.83850896
v -1.96325099 -0.0272649992 1.83850896
v -1.963552 -0.0132910004 1.83850896
v -1.949983 -0.0229410008 1.83850896
v -1.94941103 -0.0298270006 1.83850896
v -1.963552 -0.0132910004 1.83850896
v -1.95071101 -0.0119470004 1.83850896
v -1.95007503 -0.0186470002 1.83850896
v -1.96294904 -0.0412399992 1.83850896
v -1.96325099 -0.0272649992 1.83850896
v -1.94941103 -0.0298270006 1.83850896
v -1.94929802 -0.0350469984 1.83850896
v -1.94929802 -0.0350469984 1.83850896
v -1.94904602 -0.0419219993 1.83850896
v -1.94904602 -0.0419219993 1.83850896
v -1.93180299 -0.034669999 1.83850896
v -1.93240094 -0.0413420014 1.83850896
v -1.91770506 -0.039797999 1.83850896
v -1.93240094 -0.0413420014 1.83850896
v -1.91881895 -0.0222689994 1.83850896
v -1.91770506 -0.039797999 1.83850896
v -1.93164003 -0.0296049993 1.83850896
v -1.93175697 -0.0225479994 1.83850896
v -1.93175697 -0.0225479994 1.83850896
v -1.93164003 -0.0296049993 1.83850896
v -1.91879797 -0.0123260003 1.83850896
v -1.918396 -0.0195969995 1.83850896
v -1.93172204 -0.0198839996 1.83850896
v -1.93191695 -0.0182549991 1.83850896
v -1.93009198 -0.011833 1.83850896
v -1.91879797 -0.0123260003 1.83850896
v -1.93191695 -0.0182549991 1.83850896
v -1.95071101 -0.0119470004 1.83850896
v -1.93009198 -0.011833 1.83850896
v -1.95007503 -0.0186470002 1.83850896
v -2.00067997 -0.013146 -1.840662
v -1.99860299 -0.0308880005 -1.840662
v -2.00510812 -0.0434500016 -1.840662
v -2.01762509 -0.0439309999 -1.840662
v -1.98225105 -0.0429570004 -1.840662
v -1.98251402 -0.0307870004 -1.840662
v -1.97175598 -0.0125230001 -1.840662
v -1.97111106 -0.0424350016 -1.840662
v -1.97175598 -0.0125230001 -1.840662
v -1.98943698 -0.023914 -1.840662
v -1.98262596 -0.0124749998 -1.840662
v -1.98910999 -0.0128969997 -1.840662
v -1.98943698 -0.023914 -1.840662
v -1.99860299 -0.0308880005 -1.840662
v -1.98251402 -0.0307870004 -1.840662
v -1.99945903 -0.0436099991 -1.840662
v -1.98251402 -0.0307870004 -1.840662
v -1.98873496 -0.0433790013 -1.840662
v -1.96325099 -0.0272649992 -1.840662
v -1.963552 -0.0132910004 -1.840662
v -1.95007503 -0.0186470002 -1.840662
v -1.949983 -0.0229410008 -1.840662
v -1.94941103 -0.0298270006 -1.840662
v -1.96325099 -0.0272649992 -1.840662
v -1.95007503 -0.0186470002 -1.840662
v -1.963552 -0.0132910004 -1.840662
v -1.95071101 -0.0119470004 -1.840662
v -1.94929802 -0.0350469984 -1.840662
v -1.96294904 -0.0412399992 -1.840662
v -1.96325099 -0.0272649992 -1.840662
v -1.94929802 -0.0350469984 -1.840662
v -1.94904602 -0.0419219993 -1.840662
v -1.93180299 -0.034669999 -1.840662
v -1.93240094 -0.0413420014 -1.840662
v -1.94904602 -0.0419219993 -1.840662
v -1.93240094 -0.0413420014 -1.840662
v -1.93180299 -0.034669999 -1.840662
v -1.91770506 -0.039797999 -1.840662
v -1.93164003 -0.0296049993 -1.840662
v -1.91881895 -0.0222689994 -1.840662
v -1.91770506 -0.039797999 -1.840662
v -1.93164003 -0.0296049993 -1.840662
v -1.93175697 -0.0225479994 -1.840662
v -1.91881895 -0.0222689994 -1.840662
v -1.94941103 -0.0298270006 -1.840662
v -1.949983 -0.0229410008 -1.840662
v -1.93175697 -0.0225479994 -1.840662
v -1.93172204 -0.0198839996 -1.840662
v -1.93191695 -0.0182549991 -1.840662
v -1.91879797 -0.0123260003 -1.840662
v -1.918396 -0.0195969995 -1.840662
v -1.93191695 -0.0182549991 -1.840662
v -1.93009198 -0.011833 -1.840662
v -1.91879797 -0.0123260003 -1.840662
v -1.95007503 -0.0186470002 -1.840662
v -1.95071101 -0.0119470004 -1.840662
v -1.93009198 -0.011833 -1.840662
v -2.01762509 -0.0439309999 -1.840662
v -2.01762509 -0.0439309999 -1.83850896
v -2.00067997 -0.013146 -1.83850896
v -2.00067997 -0.013146 -1.840662
v -2.00067997 -0.013146 -1.840662
v -2.00067997 -0.013146 -1.83850896
v -1.98910999 -0.0128969997 -1.83850896
v -1.98910999 -0.0128969997 -1.840662
v -1.98943698 -0.023914 -1.83850896
v -1.98943698 -0.023914 -1.840662
v -1.98910999 -0.0128969997 -1.840662
v -1.98910999 -0.0128969997 -1.83850896
v -1.98262596 -0.0124749998 -1.83850896
v -1.98262596 -0.0124749998 -1.840662
v -1.98943698 -0.023914 -1.840662
v -1.98943698 -0.023914 -1.83850896
v -1.97175598 -0.0125230001 -1.83850896
v -1.97175598 -0.0125230001 -1.840662
v -1.98262596 -0.0124749998 -1.840662
v -1.98262596 -0.0124749998 -1.83850896
v -1.97111106 -0.0424350016 -1.83850896
v -1.97111106 -0.0424350016 -1.840662
v -1.97175598 -0.0125230001 -1.840662
v -1.97175598 -0.0125230001 -1.83850896
v -1.98225105 -0.0429570004 -1.83850896
v -1.98225105 -0.0429570004 -1.840662
v -1.97111106 -0.0424350016 -1.840662
v -1.97111106 -0.0424350016 -1.83850896
v -1.98251402 -0.0307870004 -1.83850896
v -1.98251402 -0.0307870004 -1.840662
v -1.98225105 -0.0429570004 -1.840662
v -1.98225105 -0.0429570004 -1.83850896
v -1.98873496 -0.0433790013 -1.83850896
v -1.98873496 -0.0433790013 -1.840662
v -1.98251402 -0.0307870004 -1.840662
v -1.98251402 -0.0307870004 -1.83850896
v -1.99945903 -0.0436099991 -1.83850896
v -1.99945903 -0.0436099991 -1.840662
v -1.98873496 -0.0433790013 -1.840662
v -1.98873496 -0.0433790013 -1.83850896
v -1.99860299 -0.0308880005 -1.83850896
v -1.99860299 -0.0308880005 -1.840662
v -1.99945903 -0.0436099991 -1.840662
v -1.99945903 -0.0436099991 -1.83850896
v -2.00510812 -0.0434500016 -1.83850896
v -2.00510812 -0.0434500016 -1.840662
v -1.99860299 -0.0308880005 -1.840662
v -1.99860299 -0.0308880005 -1.83850896
v -2.01762509 -0.0439309999 -1.83850896
v -2.01762509 -0.0439309999 -1.840662
v -2.00510812 -0.0434500016 -1.840662
v -2.00510812 -0.0434500016 -1.83850896
v -1.94904602 -0.0419219993 -1.83850896
v -1.96294904 -0.0412399992 -1.83850896
v -1.96294904 -0.0412399992 -1.840662
v -1.94904602 -0.0419219993 -1.840662
v -1.95071101 -0.0119470004 -1.83850896
v -1.95071101 -0.0119470004 -1.840662
v -1.963552 -0.0132910004 -1.840662
v -1.963552 -0.0132910004 -1.83850896
v -1.93009198 -0.011833 -1.83850896
v -1.93009198 -0.011833 -1.840662
v -1.95071101 -0.0119470004 -1.840662
v -1.95071101 -0.0119470004 -1.83850896
v -1.91879797 -0.0123260003 -1.83850896
v -1.91879797 -0.0123260003 -1.840662
v -1.93009198 -0.011833 -1.840662
v -1.93009198 -0.011833 -1.83850896
v -1.918396 -0.0195969995 -1.83850896
v -1.918396 -0.0195969995 -1.840662
v -1.91879797 -0.0123260003 -1.840662
v -1.91879797 -0.0123260003 -1.83850896
v -1.93172204 -0.0198839996 -1.83850896
v -1.93172204 -0.0198839996 -1.840662
v -1.918396 -0.0195969995 -1.840662
v -1.918396 -0.0195969995 -1.83850896
v -1.93191695 -0.0182549991 -1.83850896
v -1.93191695 -0.0182549991 -1.840662
v -1.93172204 -0.0198839996 -1.840662
v -1.93172204 -0.0198839996 -1.83850896
v -1.95007503 -0.0186470002 -1.83850896
v -1.95007503 -0.0186470002 -1.840662
v -1.93191695 -0.0182549991 -1.840662
v -1.93191695 -0.0182549991 -1.83850896
v -1.949983 -0.0229410008 -1.83850896
v -1.949983 -0.0229410008 -1.840662
v -1.95007503 -0.0186470002 -1.840662
v -1.95007503 -0.0186470002 -1.83850896
v -1.91881895 -0.0222689994 -1.83850896
v -1.91770506 -0.039797999 -1.83850896
v -1.91770506 -0.039797999 -1.840662
v -1.91881895 -0.0222689994 -1.840662
v -1.91770506 -0.039797999 -1.83850896
v -1.93240094 -0.0413420014 -1.83850896
v -1.93240094 -0.0413420014 -1.840662
v -1.91770506 -0.039797999 -1.840662
v -1.93240094 -0.0413420014 -1.83850896
v -1.94904602 -0.0419219993 -1.83850896
v -1.94904602 -0.0419219993 -1.840662
v -1.93240094 -0.0413420014 -1.840662
v -1.93164003 -0.0296049993 -1.83850896
v -1.94941103 -0.0298270006 -1.83850896
v -1.94941103 -0.0298270006 -1.840662
v -1.93164003 -0.0296049993 -1.840662
v -1.94941103 -0.0298270006 -1.83850896
v -1.94929802 -0.0350469984 -1.83850896
v -1.94929802 -0.0350469984 -1.840662
v -1.94941103 -0.0298270006 -1.840662
v -1.94929802 -0.0350469984 -1.83850896
v -1.93180299 -0.034669999 -1.83850896
v -1.93180299 -0.034669999 -1.840662
v -1.94929802 -0.0350469984 -1.840662
v -1.93180299 -0.034669999 -1.83850896
v -1.93164003 -0.0296049993 -1.83850896
v -1.93164003 -0.0296049993 -1.840662
v -1.93180299 -0.034669999 -1.840662
v -1.949983 -0.0229410008 -1.83850896
v -1.93175697 -0.0225479994 -1.83850896
v -1.93175697 -0.0225479994 -1.840662
v -1.949983 -0.0229410008 -1.840662
v -1.93175697 -0.0225479994 -1.83850896
v -1.91881895 -0.0222689994 -1.83850896
v -1.91881895 -0.0222689994 -1.840662
v -1.93175697 -0.0225479994 -1.840662
v -1.96294904 -0.0412399992 -1.83850896
v -1.96325099 -0.0272649992 -1.83850896
v -1.96325099 -0.0272649992 -1.840662
v -1.96294904 -0.0412399992 -1.840662
v -1.963552 -0.0132910004 -1.83850896
v -1.963552 -0.0132910004 -1.840662
v -1.96325099 -0.0272649992 -1.840662
v -1.96325099 -0.0272649992 -1.83850896
v -2.00067997 -0.013146 -1.83850896
v -2.01762509 -0.0439309999 -1.83850896
v -2.00510812 -0.0434500016 -1.83850896
v -1.99860299 -0.0308880005 -1.83850896
v -1.97175598 -0.0125230001 -1.83850896
v -1.98251402 -0.0307870004 -1.83850896
v -1.98225105 -0.0429570004 -1.83850896
v -1.97111106 -0.0424350016 -1.83850896
v -1.98943698 -0.023914 -1.83850896
v -1.97175598 -0.0125230001 -1.83850896
v -1.98262596 -0.0124749998 -1.83850896
v -1.98943698 -0.023914 -1.83850896
v -1.98910999 -0.0128969997 -1.83850896
v -1.99860299 -0.0308880005 -1.83850896
v -1.98251402 -0.0307870004 -1.83850896
v -1.98251402 -0.0307870004 -1.83850896
v -1.99945903 -0.0436099991 -1.83850896
v -1.98873496 -0.0433790013 -1.83850896
v -1.95007503 -0.0186470002 -1.83850896
v -1.963552 -0.0132910004 -1.83850896
v -1.96325099 -0.0272649992 -1.83850896
v -1.949983 -0.0229410008 -1.83850896
v -1.949983 -0.0229410008 -1.83850896
v -1.94941103 -0.0298270006 -1.83850896
v -1.963552 -0.0132910004 -1.83850896
v -1.95007503 -0.0186470002 -1.83850896
v -1.95071101 -0.0119470004 -1.83850896
v -1.96294904 -0.0412399992 -1.83850896
v -1.94929802 -0.0350469984 -1.83850896
v -1.94941103 -0.0298270006 -1.83850896
v -1.96325099 -0.0272649992 -1.83850896
v -1.94904602 -0.0419219993 -1.83850896
v -1.94929802 -0.0350469984 -1.83850896
v -1.94904602 -0.0419219993 -1.83850896
v -1.93240094 -0.0413420014 -1.83850896
v -1.93180299 -0.034669999 -1.83850896
v -1.91770506 -0.039797999 -1.83850896
v -1.93240094 -0.0413420014 -1.83850896
v -1.91881895 -0.0222689994 -1.83850896
v -1.93164003 -0.0296049993 -1.83850896
v -1.91770506 -0.039797999 -1.83850896
v -1.93175697 -0.0225479994 -1.83850896
v -1.93164003 -0.0296049993 -1.83850896
v -1.93175697 -0.0225479994 -1.83850896
v -1.91879797 -0.0123260003 -1.83850896
v -1.93191695 -0.0182549991 -1.83850896
v -1.93172204 -0.0198839996 -1.83850896
v -1.918396 -0.0195969995 -1.83850896
v -1.93009198 -0.011833 -1.83850896
v -1.93191695 -0.0182549991 -1.83850896
v -1.91879797 -0.0123260003 -1.83850896
v -1.95071101 -0.0119470004 -1.83850896
v -1.95007503 -0.0186470002 -1.83850896
v -1.93009198 -0.011833 -1.83850896
vt 1 1
vt 1 0
vt 0 0
vt 0 1
vt 0 0
vt 1 0
vt 1 1
vt 0 1
vt 0 0
vt 1 0
vt 1 1
vt 0 0
vt 1 0
vt 0 0
vt 1 0
vt 0 0
vt 1 0
vt 1 1
vt 0 0
vt 1 0
vt 1 1
vt 0 1
vt 0 0
vt 1 1
vt 0 0
vt 1 0
vt 1 1
vt 0 1
vt 1 1
vt 1 0
vt 0 0
vt 1 0
vt 0 0
vt 1 1
vt 0 1
vt 0 0
vt 1 0
vt 1 1
vt 0 1
vt 1 1
vt 1 0
vt 0 0
vt 1 0
vt 1 1
vt 0 1
vt 1 1
vt 1 0
vt 0 0
vt 1 0
vt 1 1
vt 0 1
vt 0 0
vt 1 0
vt 1 1
vt 1 0
vt 1 1
vt 0 1
vt 1 1
vt 1 0
vt 0 0
vt 0 1
vt 1 1
vt 0 1
vt 0 0
vt 1 0
vt 0 0
vt 1 0
vt 1 1
vt 0 1
vt 0 0
vt 1 0
vt 1 1
vt 0 1
vt 0 0
vt 1 0
vt 1 1
vt 0 1
vt 0 0
vt 1 0
vt 1 1
vt 0 1
vt 0 0
vt 1 0
vt 1 1
vt 0 1
vt 0 0
vt 1 0
vt 1 1
vt 0 1
vt 0 0
vt 1 0
vt 1 1
vt 0 1
vt 0 0
vt 1 0
vt 1 1
vt 0 1
vt 0 0
vt 1 0
vt 1 1
vt 0 1
vt 0 0
vt 0 1
vt 1 1
vt 1 0
vt 0 0
vt 0 1
vt 1 1
vt 1 0
vt 0 0
vt 0 1
vt 1 1
vt 1 0
vt 0 0
vt 1 0
vt 1 1
vt 0 1
vt 0 0
vt 1 0
vt 1 1
vt 0 1
vt 0 0
vt 1 0
vt 1 1
vt 0 1
vt 0 0
vt 1 0
vt 1 1
vt 0 1
vt 0 0
vt 1 0
vt 1 1
vt 0 1
vt 0 0
vt 1 0
vt 1 1
vt 0 1
vt 0 0
vt 1 0
vt 1 1
vt 0 1
vt 0 0
vt 1 0
vt 1 1
vt 0 1
vt 0 0
vt 0 1
vt 1 1
vt 1 0
vt 0 0
vt 0 1
vt 1 0
vt 1 1
vt 0 0
vt 1 0
vt 1 1
vt 0 1
vt 0 0
vt 0 1
vt 1 1
vt 1 0
vt 0 0
vt 0 1
vt 1 1
vt 1 0
vt 0 0
vt 1 0
vt 1 1
vt 0 1
vt 0 0
vt 0 1
vt 1 1
vt 1 0
vt 0 0
vt 0 1
vt 1 1
vt 1 0
vt 0 0
vt 0 1
vt 1 0
vt 1 1
vt 0 0
vt 0 1
vt 1 1
vt 1 0
vt 0 0
vt 1 0
vt 1 1
vt 0 1
vt 0 0
vt 0 1
vt 1 1
vt 1 0
vt 0 0
vt 1 0
vt 1 1
vt 0 1
vt 0 0
vt 1 0
vt 1 1
vt 1 0
vt 1 1
vt 1 0
vt 1 1
vt 0 0
vt 1 0
vt 1 1
vt 0 0
vt 1 0
vt 1 1
vt 0 1
vt 0 0
vt 1 0
vt 0 0
vt 1 0
vt 1 1
vt 0 0
vt 0 1
vt 1 1
vt 1 0
vt 1 1
vt 1 0
vt 0 0
vt 1 1
vt 0 1
vt 0 0
vt 1 0
vt 0 0
vt 0 1
vt 1 0
vt 1 1
vt 0 1
vt 1 1
vt 0 0
vt 1 0
vt 1 1
vt 0 1
vt 0 0
vt 1 0
vt 1 1
vt 0 0
vt 1 0
vt 0 1
vt 1 1
vt 0 1
vt 0 0
vt 1 0
vt 0 0
vt 0 1
vt 1 1
vt 1 0
vt 0 0
vt 1 1
vt 1 0
vt 1 0
vt 0 0
vt 0 0
vt 1 0
vt 0 0
vt 1 1
vt 1 0
vt 0 0
vt 0 1
vt 1 1
vt 1 0
vt 0 0
vt 1 1
vt 0 0
vt 1 1
vt 1 0
vt 1 0
vt 1 1
vt 0 1
vt 0 0
vt 1 0
vt 0 0
vt 0 1
vt 1 1
vt 0 0
vt 1 1
vt 1 0
vt 1 0
vt 1 1
vt 0 1
vt 0 0
vt 1 1
vt 1 0
vt 1 0
vt 1 1
vt 0 1
vt 0 0
vt 0 1
vt 1 1
vt 1 0
vt 0 0
vt 1 1
vt 1 0
vt 0 1
vt 1 1
vt 1 0
vt 1 1
vt 0 1
vt 0 0
vt 1 0
vt 1 1
vt 1 0
vt 0 0
vt 0 1
vt 0 0
vt 0 1
vt 1 1
vt 1 0
vt 0 0
vt 0 1
vt 1 1
vt 1 0
vt 0 0
vt 0 1
vt 1 1
vt 1 0
vt 0 0
vt 0 1
vt 1 1
vt 1 0
vt 0 0
vt 0 1
vt 1 1
vt 1 0
vt 0 0
vt 0 1
vt 1 1
vt 1 0
vt 0 0
vt 0 1
vt 1 1
vt 1 0
vt 0 0
vt 0 1
vt 1 1
vt 1 0
vt 0 0
vt 0 1
vt 1 1
vt 1 0
vt 0 0
vt 1 0
vt 1 1
vt 0 1
vt 0 0
vt 1 0
vt 1 1
vt 0 1
vt 0 0
vt 1 0
vt 1 1
vt 0 1
vt 0 0
vt 0 1
vt 1 1
vt 1 0
vt 0 0
vt 0 1
vt 1 1
vt 1 0
vt 0 0
vt 0 1
vt 1 1
vt 1 0
vt 0 0
vt 0 1
vt 1 1
vt 1 0
vt 0 0
vt 0 1
vt 1 1
vt 1 0
vt 0 0
vt 0 1
vt 1 1
vt 1 0
vt 0 0
vt 0 1
vt 1 1
vt 1 0
vt 0 0
vt 0 1
vt 1 1
vt 1 0
vt 0 0
vt 1 0
vt 1 1
vt 0 1
vt 0 0
vt 1 1
vt 1 0
vt 0 1
vt 0 0
vt 0 1
vt 1 1
vt 1 0
vt 0 0
vt 1 0
vt 1 1
vt 0 1
vt 0 0
vt 1 0
vt 1 1
vt 0 1
vt 0 0
vt 0 1
vt 1 1
vt 1 0
vt 0 0
vt 1 0
vt 1 1
vt 0 1
vt 0 0
vt 1 0
vt 1 1
vt 0 1
vt 0 0
vt 1 1
vt 1 0
vt 0 1
vt 0 0
vt 1 0
vt 1 1
vt 0 1
vt 0 0
vt 0 1
vt 1 1
vt 1 0
vt 0 0
vt 1 0
vt 1 1
vt 0 1
vt 0 0
vt 0 1
vt 1 1
vt 1 0
vt 0 0
vt 1 1
vt 1 0
vt 1 1
vt 1 0
vt 1 1
vt 1 0
vt 0 0
vt 1 1
vt 1 0
vt 0 0
vt 0 1
vt 1 1
vt 1 0
vt 0 0
vt 1 0
vt 0 0
vt 1 1
vt 1 0
vt 0 0
vt 1 0
vt 1 1
vt 0 1
vt 1 0
vt 1 1
vt 0 0
vt 0 1
vt 1 1
vt 0 0
vt 1 0
vt 0 0
vt 1 0
vt 0 1
vt 1 1
vt 1 1
vt 0 1
vt 0 0
vt 0 1
vt 1 1
vt 1 0
vt 0 0
vt 1 1
vt 1 0
vt 0 0
vt 0 1
vt 1 0
vn 0 0 1
vn 0 0 1
vn 0 0 1
vn 0 0 1
vn 0 0 1
vn 0 0 1
vn 0 0 1
vn 0 0 1
vn 0 0 1
vn 0 0 1
vn 0 0 1
vn 0 0 1
vn 0 0 1
vn 0 0 1
vn 0 0 1
vn 0 0 1
vn 0 0 1
vn 0 0 1
vn 0 0 1
vn 0 0 1
vn 0 0 1
vn 0 0 1
vn 0 0 1
vn 0 0 1
vn 0 0 1
vn 0 0 1
vn 0 0 1
vn 0 0 1
vn 0 0 1
vn 0 0 1
vn 0 0 1
vn 0 0 1
vn 0 0 1
vn 0 0 1
vn 0 0 1
vn 0 0 1
vn 0 0 1
vn 0 0 1
vn 0 0 1
vn 0 0 1
vn 0 0 1
vn 0 0 1
vn 0 0 1
vn 0 0 1
vn 0 0 1
vn 0 0 1
vn 0 0 1
vn 0 0 1
vn 0 0 1
vn 0 0 1
vn 0 0 1
vn 0 0 1
vn 0 0 1
vn 0 0 1
vn 0 0 1
vn 0 0 1
vn 0 0 1
vn -0.876100004 0.482199997 0
vn -0.876100004 0.482199997 0
vn -0.876100004 0.482199997 0
vn -0.876100004 0.482199997 0
vn -0.0216000006 0.999800026 0
vn -0.0216000006 0.999800026 0
vn -0.0216000006 0.999800026 0
vn -0.0216000006 0.999800026 0
vn 0.999599993 -0.0296999998 0
vn 0.999599993 -0.0296999998 0
vn 0.999599993 -0.0296999998 0
vn 0.999599993 -0.0296999998 0
vn -0.859200001 0.511600018 0
vn -0.859200001 0.511600018 0
vn -0.859200001 0.511600018 0
vn -0.859200001 0.511600018 0
vn 0.00439999998 1 0
vn 0.00439999998 1 0
vn 0.00439999998 1 0
vn 0.00439999998 1 0
vn 0.999800026 0.0216000006 0
vn 0.999800026 0.0216000006 0
vn 0.999800026 0.0216000006 0
vn 0.999800026 0.0216000006 0
vn 0.0469000004 -0.998899996 0
vn 0.0469000004 -0.998899996 0
vn 0.0469000004 -0.998899996 0
vn 0.0469000004 -0.998899996 0
vn -0.999800026 -0.0216000006 0
vn -0.999800026 -0.0216000006 0
vn -0.999800026 -0.0216000006 0
vn -0.999800026 -0.0216000006 0
vn 0.896499991 -0.442999989 0
vn 0.896499991 -0.442999989 0
vn 0.896499991 -0.442999989 0
vn 0.896499991 -0.442999989 0
vn 0.0216000006 -0.999800026 0
vn 0.0216000006 -0.999800026 0
vn 0.0216000006 -0.999800026 0
vn 0.0216000006 -0.999800026 0
vn -0.997699976 0.0671000034 0
vn -0.997699976 0.0671000034 0
vn -0.997699976 0.0671000034 0
vn -0.997699976 0.0671000034 0
vn 0.888000011 -0.459800005 0
vn 0.888000011 -0.459800005 0
vn 0.888000011 -0.459800005 0
vn 0.888000011 -0.459800005 0
vn 0.0384000018 -0.999300003 0
vn 0.0384000018 -0.999300003 0
vn 0.0384000018 -0.999300003 0
vn 0.0384000018 -0.999300003 0
vn -0.0489999987 -0.99879998 0
vn -0.0489999987 -0.99879998 0
vn -0.0489999987 -0.99879998 0
vn -0.0489999987 -0.99879998 0
vn -0.104099996 0.994599998 0
vn -0.104099996 0.994599998 0
vn -0.104099996 0.994599998 0
vn -0.104099996 0.994599998 0
vn -0.00549999997 1 0
vn -0.00549999997 1 0
vn -0.00549999997 1 0
vn -0.00549999997 1 0
vn 0.0436000004 0.999000013 0
vn 0.0436000004 0.999000013 0
vn 0.0436000004 0.999000013 0
vn 0.0436000004 0.999000013 0
vn 0.99849999 0.0551999994 0
vn 0.99849999 0.0551999994 0
vn 0.99849999 0.0551999994 0
vn 0.99849999 0.0551999994 0
vn 0.0216000006 -0.999800026 0
vn 0.0216000006 -0.999800026 0
vn 0.0216000006 -0.999800026 0
vn 0.0216000006 -0.999800026 0
vn -0.992900014 -0.119199999 0
vn -0.992900014 -0.119199999 0
vn -0.992900014 -0.119199999 0
vn -0.992900014 -0.119199999 0
vn 0.0216000006 -0.999800026 0
vn 0.0216000006 -0.999800026 0
vn 0.0216000006 -0.999800026 0
vn 0.0216000006 -0.999800026 0
vn 0.999800026 0.0216000006 0
vn 0.999800026 0.0216000006 0
vn 0.999800026 0.0216000006 0
vn 0.999800026 0.0216000006 0
vn 0.998000026 0.063500002 0
vn 0.998000026 0.063500002 0
vn 0.998000026 0.063500002 0
vn 0.998000026 0.063500002 0
vn 0.104500003 -0.994499981 0
vn 0.104500003 -0.994499981 0
vn 0.104500003 -0.994499981 0
vn 0.104500003 -0.994499981 0
vn 0.0348000005 -0.99940002 0
vn 0.0348000005 -0.99940002 0
vn 0.0348000005 -0.99940002 0
vn 0.0348000005 -0.99940002 0
vn 0.0125000002 -0.999899983 0
vn 0.0125000002 -0.999899983 0
vn 0.0125000002 -0.999899983 0
vn 0.0125000002 -0.999899983 0
vn 0.999800026 0.0215000007 0
vn 0.999800026 0.0215000007 0
vn 0.999800026 0.0215000007 0
vn 0.999800026 0.0215000007 0
vn -0.0216000006 0.999800026 0
vn -0.0216000006 0.999800026 0
vn -0.0216000006 0.999800026 0
vn -0.0216000006 0.999800026 0
vn -0.999499977 0.0322000012 0
vn -0.999499977 0.0322000012 0
vn -0.999499977 0.0322000012 0
vn -0.999499977 0.0322000012 0
vn -0.0216000006 0.999800026 0
vn -0.0216000006 0.999800026 0
vn -0.0216000006 0.999800026 0
vn -0.0216000006 0.999800026 0
vn -0.0216000006 0.999800026 0
vn -0.0216000006 0.999800026 0
vn -0.0216000006 0.999800026 0
vn -0.0216000006 0.999800026 0
vn -0.999800026 -0.0215000007 0
vn -0.999800026 -0.0215000007 0
vn -0.999800026 -0.0215000007 0
vn -0.999800026 -0.0215000007 0
vn -0.999800026 -0.0216000006 0
vn -0.999800026 -0.0216000006 0
vn -0.999800026 -0.0216000006 0
vn -0.999800026 -0.0216000006 0
vn -0 0 -1
vn -0 0 -1
vn -0 0 -1
vn -0 0 -1
vn -0 0 -1
vn -0 0 -1
vn -0 0 -1
vn -0 0 -1
vn -0 0 -1
vn -0 0 -1
vn -0 0 -1
vn -0 0 -1
vn -0 0 -1
vn -0 0 -1
vn -0 0 -1
vn -0 0 -1
vn -0 0 -1
vn -0 0 -1
vn -0 0 -1
vn -0 0 -1
vn -0 0 -1
vn -0 0 -1
vn -0 0 -1
vn -0 0 -1
vn -0 0 -1
vn -0 0 -1
vn -0 0 -1
vn -0 0 -1
vn -0 0 -1
vn -0 0 -1
vn -0 0 -1
vn -0 0 -1
vn -0 0 -1
vn -0 0 -1
vn -0 0 -1
vn -0 0 -1
vn -0 0 -1
vn -0 0 -1
vn -0 0 -1
vn -0 0 -1
vn -0 0 -1
vn -0 0 -1
vn -0 0 -1
vn -0 0 -1
vn -0 0 -1
vn -0 0 -1
vn -0 0 -1
vn -0 0 -1
vn -0 0 -1
vn -0 0 -1
vn -0 0 -1
vn -0 0 -1
vn -0 0 -1
vn -0 0 -1
vn -0 0 -1
vn -0 0 -1
vn -0 0 -1
vn -0 0 -1
vn -0 0 -1
vn -0 0 -1
vn -0 0 -1
vn -0 0 -1
vn -0 0 -1
vn -0 0 -1
vn -0 0 -1
vn -0 0 -1
vn -0 0 -1
vn -0 0 -1
vn -0 0 -1
vn -0 0 -1
vn -0 0 -1
vn -0 0 -1
vn -0 0 -1
vn -0 0 -1
vn -0 0 -1
vn -0 0 -1
vn -0 0 -1
vn -0 0 -1
vn -0 0 -1
vn -0 0 -1
vn -0 0 -1
vn -0 0 -1
vn -0 0 -1
vn -0 0 -1
vn -0 0 -1
vn -0 0 -1
vn -0 0 -1
vn -0 0 -1
vn -0 0 -1
vn -0 0 -1
vn -0 0 -1
vn -0 0 -1
vn -0 0 -1
vn -0 0 -1
vn -0 0 -1
vn -0 0 -1
vn -0 0 -1
vn -0 0 -1
vn -0 0 -1
vn -0 0 -1
vn -0 0 -1
vn -0 0 -1
vn -0 0 -1
vn -0 0 -1
vn -0 0 -1
vn -0 0 -1
vn -0 0 -1
vn -0 0 -1
vn -0 0 -1
vn -0 0 -1
vn -0 0 -1
vn -0.876100004 0.482199997 0
vn -0.876100004 0.482199997 0
vn -0.876100004 0.482199997 0
vn -0.876100004 0.482199997 0
vn -0.0216000006 0.999800026 0
vn -0.0216000006 0.999800026 0
vn -0.0216000006 0.999800026 0
vn -0.0216000006 0.999800026 0
vn 0.999599993 -0.0296999998 0
vn 0.999599993 -0.0296999998 0
vn 0.999599993 -0.0296999998 0
vn 0.999599993 -0.0296999998 0
vn -0.859200001 0.511600018 0
vn -0.859200001 0.511600018 0
vn -0.859200001 0.511600018 0
vn -0.859200001 0.511600018 0
vn 0.00439999998 1 0
vn 0.00439999998 1 0
vn 0.00439999998 1 0
vn 0.00439999998 1 0
vn 0.999800026 0.0216000006 0
vn 0.999800026 0.0216000006 0
vn 0.999800026 0.0216000006 0
vn 0.999800026 0.0216000006 0
vn 0.0469000004 -0.998899996 0
vn 0.0469000004 -0.998899996 0
vn 0.0469000004 -0.998899996 0
vn 0.0469000004 -0.998899996 0
vn -0.999800026 -0.0216000006 0
vn -0.999800026 -0.0216000006 0
vn -0.999800026 -0.0216000006 0
vn -0.999800026 -0.0216000006 0
vn 0.896499991 -0.442999989 0
vn 0.896499991 -0.442999989 0
vn 0.896499991 -0.442999989 0
vn 0.896499991 -0.442999989 0
vn 0.0216000006 -0.999800026 0
vn 0.0216000006 -0.999800026 0
vn 0.0216000006 -0.999800026 0
vn 0.0216000006 -0.999800026 0
vn -0.997699976 0.0671000034 0
vn -0.997699976 0.0671000034 0
vn -0.997699976 0.0671000034 0
vn -0.997699976 0.0671000034 0
vn 0.888000011 -0.459800005 0
vn 0.888000011 -0.459800005 0
vn 0.888000011 -0.459800005 0
vn 0.888000011 -0.459800005 0
vn 0.0384000018 -0.999300003 0
vn 0.0384000018 -0.999300003 0
vn 0.0384000018 -0.999300003 0
vn 0.0384000018 -0.999300003 0
vn -0.0489999987 -0.99879998 0
vn -0.0489999987 -0.99879998 0
vn -0.0489999987 -0.99879998 0
vn -0.0489999987 -0.99879998 0
vn -0.104099996 0.994599998 0
vn -0.104099996 0.994599998 0
vn -0.104099996 0.994599998 0
vn -0.104099996 0.994599998 0
vn -0.00549999997 1 0
vn -0.00549999997 1 0
vn -0.00549999997 1 0
vn -0.00549999997 1 0
vn 0.0436000004 0.999000013 0
vn 0.0436000004 0.999000013 0
vn 0.0436000004 0.999000013 0
vn 0.0436000004 0.999000013 0
vn 0.99849999 0.0551999994 0
vn 0.99849999 0.0551999994 0
vn 0.99849999 0.0551999994 0
vn 0.99849999 0.0551999994 0
vn 0.0216000006 -0.999800026 0
vn 0.0216000006 -0.999800026 0
vn 0.0216000006 -0.999800026 0
vn 0.0216000006 -0.999800026 0
vn -0.992900014 -0.119199999 0
vn -0.992900014 -0.119199999 0
vn -0.992900014 -0.119199999 0
vn -0.992900014 -0.119199999 0
vn 0.0216000006 -0.999800026 0
vn 0.0216000006 -0.999800026 0
vn 0.0216000006 -0.999800026 0
vn 0.0216000006 -0.999800026 0
vn 0.999800026 0.0216000006 0
vn 0.999800026 0.0216000006 0
vn 0.999800026 0.0216000006 0
vn 0.999800026 0.0216000006 0
vn 0.998000026 0.063500002 0
vn 0.998000026 0.063500002 0
vn 0.998000026 0.063500002 0
vn 0.998000026 0.063500002 0
vn 0.104500003 -0.994499981 0
vn 0.104500003 -0.994499981 0
vn 0.104500003 -0.994499981 0
vn 0.104500003 -0.994499981 0
vn 0.0348000005 -0.99940002 0
vn 0.0348000005 -0.99940002 0
vn 0.0348000005 -0.99940002 0
vn 0.0348000005 -0.99940002 0
vn 0.0125000002 -0.999899983 0
vn 0.0125000002 -0.999899983 0
vn 0.0125000002 -0.999899983 0
vn 0.0125000002 -0.999899983 0
vn 0.999800026 0.0215000007 0
vn 0.999800026 0.0215000007 0
vn 0.999800026 0.0215000007 0
vn 0.999800026 0.0215000007 0
vn -0.0216000006 0.999800026 0
vn -0.0216000006 0.999800026 0
vn -0.0216000006 0.999800026 0
vn -0.0216000006 0.999800026 0
vn -0.999499977 0.0322000012 0
vn -0.999499977 0.0322000012 0
vn -0.999499977 0.0322000012 0
vn -0.999499977 0.0322000012 0
vn -0.0216000006 0.999800026 0
vn -0.0216000006 0.999800026 0
vn -0.0216000006 0.999800026 0
vn -0.0216000006 0.999800026 0
vn -0.0216000006 0.999800026 0
vn -0.0216000006 0.999800026 0
vn -0.0216000006 0.999800026 0
vn -0.0216000006 0.999800026 0
vn -0.999800026 -0.0215000007 0
vn -0.999800026 -0.0215000007 0
vn -0.999800026 -0.0215000007 0
vn -0.999800026 -0.0215000007 0
vn -0.999800026 -0.0216000006 0
vn -0.999800026 -0.0216000006 0
vn -0.999800026 -0.0216000006 0
vn -0.999800026 -0.0216000006 0
vn 0 0 1
vn 0 0 1
vn 0 0 1
vn 0 0 1
vn 0 0 1
vn 0 0 1
vn 0 0 1
vn 0 0 1
vn 0 0 1
vn 0 0 1
vn 0 0 1
vn 0 0 1
vn 0 0 1
vn 0 0 1
vn 0 0 1
vn 0 0 1
vn 0 0 1
vn 0 0 1
vn 0 0 1
vn 0 0 1
vn 0 0 1
vn 0 0 1
vn 0 0 1
vn 0 0 1
vn 0 0 1
vn 0 0 1
vn 0 0 1
vn 0 0 1
vn 0 0 1
vn 0 0 1
vn 0 0 1
vn 0 0 1
vn 0 0 1
vn 0 0 1
vn 0 0 1
vn 0 0 1
vn 0 0 1
vn 0 0 1
vn 0 0 1
vn 0 0 1
vn 0 0 1
vn 0 0 1
vn 0 0 1
vn 0 0 1
vn 0 0 1
vn 0 0 1
vn 0 0 1
vn 0 0 1
vn 0 0 1
vn 0 0 1
vn 0 0 1
vn 0 0 1
vn 0 0 1
vn 0 0 1
f 1/1/1 2/2/2 3/3/3
f 1/1/1 3/3/3 4/4/4
f 5/5/5 6/6/6 7/7/7
f 5/5/5 7/7/7 8/8/8
f 9/9/9 10/10/10 11/11/11
f 9/9/9 11/11/11 8/8/8
f 1/1/1 4/4/4 12/12/12
f 1/1/1 12/12/12 13/13/13
f 14/14/14 15/15/15 11/11/11
f 16/16/16 17/17/17 18/18/18
f 16/16/16 18/18/18 4/4/4
f 19/19/19 20/20/20 21/21/21
f 19/19/19 21/21/21 22/22/22
f 23/23/23 20/20/20 24/24/24
f 25/25/25 26/26/26 27/27/27
f 23/23/23 28/28/28 29/29/29
f 23/23/23 29/29/29 30/30/30
f 31/31/31 29/29/29 32/32/32
f 33/33/33 30/30/30 34/34/34
f 33/33/33 34/34/34 35/35/35
f 36/36/36 37/37/37 38/38/38
f 33/33/33 39/39/39 40/40/40
f 33/33/33 40/40/40 41/41/41
f 42/42/42 43/43/43 44/44/44
f 42/42/42 45/45/45 46/46/46
f 42/42/42 46/46/46 47/47/47
f 48/48/48 49/49/49 50/50/50
f 48/48/48 50/50/50 51/51/51
f 52/52/52 53/53/53 54/54/54
f 52/52/52 55/55/55 56/56/56
f 52/52/52 56/56/56 57/57/57
f 58/58/58 59/59/59 60/60/60
f 58/58/58 60/60/60 61/61/61
f 62/62/62 63/63/63 64/64/64
f 62/62/62 64/64/64 65/65/65
f 66/66/66 67/67/67 68/68/68
f 66/66/66 68/68/68 69/69/69
f 70/70/70 71/71/71 72/72/72
f 70/70/70 72/72/72 73/73/73
f 74/74/74 75/75/75 76/76/76
f 74/74/74 76/76/76 77/77/77
f 78/78/78 79/79/79 80/80/80
f 78/78/78 80/80/80 81/81/81
f 82/82/82 83/83/83 84/84/84
f 82/82/82 84/84/84 85/85/85
f 86/86/86 87/87/87 88/88/88
f 86/86/86 88/88/88 89/89/89
f 90/90/90 91/91/91 92/92/92
f 90/90/90 92/92/92 93/93/93
f 94/94/94 95/95/95 96/96/96
f 94/94/94 96/96/96 97/97/97
f 98/98/98 99/99/99 100/100/100
f 98/98/98 100/100/100 101/101/101
f 102/102/102 103/103/103 104/104/104
f 102/102/102 104/104/104 105/105/105
f 106/106/106 107/107/107 108/108/108
f 106/106/106 108/108/108 109/109/109
f 110/110/110 111/111/111 112/112/112
f 110/110/110 112/112/112 113/113/113
f 114/114/114 115/115/115 116/116/116
f 114/114/114 116/116/116 117/117/117
f 118/118/118 119/119/119 120/120/120
f 118/118/118 120/120/120 121/121/121
f 122/122/122 123/123/123 124/124/124
f 122/122/122 124/124/124 125/125/125
f 126/126/126 127/127/127 128/128/128
f 126/126/126 128/128/128 129/129/129
f 130/130/130 131/131/131 132/132/132
f 130/130/130 132/132/132 133/133/133
f 134/134/134 135/135/135 136/136/136
f 134/134/134 136/136/136 137/137/137
f 138/138/138 139/139/139 140/140/140
f 138/138/138 140/140/140 141/141/141
f 142/142/142 143/143/143 144/144/144
f 142/142/142 144/144/144 145/145/145
f 146/146/146 147/147/147 148/148/148
f 146/146/146 148/148/148 149/149/149
f 150/150/150 151/151/151 152/152/152
f 150/150/150 152/152/152 153/153/153
f 154/154/154 155/155/155 156/156/156
f 154/154/154 156/156/156 157/157/157
f 158/158/158 159/159/159 160/160/160
f 158/158/158 160/160/160 161/161/161
f 162/162/162 163/163/163 164/164/164
f 162/162/162 164/164/164 165/165/165
f 166/166/166 167/167/167 168/168/168
f 166/166/166 168/168/168 169/169/169
f 170/170/170 171/171/171 172/172/172
f 170/170/170 172/172/172 173/173/173
f 174/174/174 175/175/175 176/176/176
f 174/174/174 176/176/176 177/177/177
f 178/178/178 179/179/179 180/180/180
f 178/178/178 180/180/180 181/181/181
f 182/182/182 183/183/183 184/184/184
f 182/182/182 184/184/184 185/185/185
f 186/186/186 187/187/187 188/188/188
f 186/186/186 188/188/188 189/189/189
f 190/190/190 191/191/191 192/192/192
f 190/190/190 192/192/192 193/193/193
f 194/194/194 195/195/195 196/196/196
f 194/194/194 196/196/196 197/197/197
f 198/198/198 199/199/199 200/200/200
f 198/198/198 200/200/200 197/197/197
f 190/190/190 201/201/201 202/202/202
f 190/190/190 202/202/202 191/191/191
f 198/198/198 203/203/203 204/204/204
f 205/205/205 206/206/206 207/207/207
f 205/205/205 207/207/207 191/191/191
f 208/208/208 209/209/209 210/210/210
f 208/208/208 210/210/210 211/211/211
f 212/212/212 213/213/213 210/210/210
f 214/214/214 215/215/215 216/216/216
f 217/217/217 218/218/218 219/219/219
f 217/217/217 219/219/219 220/220/220
f 217/217/217 221/221/221 222/222/222
f 223/223/223 220/220/220 224/224/224
f 223/223/223 224/224/224 225/225/225
f 226/226/226 227/227/227 224/224/224
f 228/228/228 229/229/229 224/224/224
f 228/228/228 224/224/224 230/230/230
f 228/228/228 230/230/230 231/231/231
f 212/212/212 232/232/232 233/233/233
f 212/212/212 233/233/233 213/213/213
f 234/234/234 235/235/235 236/236/236
f 234/234/234 236/236/236 237/237/237
f 238/238/238 239/239/239 240/240/240
f 241/241/241 242/242/242 240/240/240
f 241/241/241 240/240/240 243/243/243
f 244/244/244 245/245/245 246/246/246
f 244/244/244 246/246/246 247/247/247
f 248/248/248 249/249/249 250/250/250
f 248/248/248 250/250/250 251/251/251
f 252/252/252 249/249/249 253/253/253
f 252/252/252 253/253/253 254/254/254
f 244/244/244 255/255/255 256/256/256
f 244/244/244 256/256/256 245/245/245
f 257/257/257 253/253/253 258/258/258
f 259/259/259 245/245/245 260/260/260
f 259/259/259 260/260/260 261/261/261
f 262/262/262 263/263/263 264/264/264
f 262/262/262 264/264/264 265/265/265
f 266/266/266 267/267/267 265/265/265
f 268/268/268 269/269/269 270/270/270
f 266/266/266 271/271/271 272/272/272
f 266/266/266 272/272/272 273/273/273
f 274/274/274 275/275/275 272/272/272
f 276/276/276 277/277/277 278/278/278
f 276/276/276 278/278/278 271/271/271
f 279/279/279 280/280/280 281/281/281
f 276/276/276 282/282/282 283/283/283
f 276/276/276 283/283/283 284/284/284
f 285/285/285 286/286/286 287/287/287
f 285/285/285 288/288/288 289/289/289
f 285/285/285 289/289/289 290/290/290
f 291/291/291 292/292/292 293/293/293
f 291/291/291 293/293/293 294/294/294
f 295/295/295 296/296/296 297/297/297
f 295/295/295 298/298/298 299/299/299
f 295/295/295 299/299/299 300/300/300
f 301/301/301 302/302/302 303/303/303
f 301/301/301 303/303/303 304/304/304
f 305/305/305 306/306/306 307/307/307
f 305/305/305 307/307/307 308/308/308
f 309/309/309 310/310/310 311/311/311
f 309/309/309 311/311/311 312/312/312
f 313/313/313 314/314/314 315/315/315
f 313/313/313 315/315/315 316/316/316
f 317/317/317 318/318/318 319/319/319
f 317/317/317 319/319/319 320/320/320
f 321/321/321 322/322/322 323/323/323
f 321/321/321 323/323/323 324/324/324
f 325/325/325 326/326/326 327/327/327
f 325/325/325 327/327/327 328/328/328
f 329/329/329 330/330/330 331/331/331
f 329/329/329 331/331/331 332/332/332
f 333/333/333 334/334/334 335/335/335
f 333/333/333 335/335/335 336/336/336
f 337/337/337 338/338/338 339/339/339
f 337/337/337 339/339/339 340/340/340
f 341/341/341 342/342/342 343/343/343
f 341/341/341 343/343/343 344/344/344
f 345/345/345 346/346/346 347/347/347
f 345/345/345 347/347/347 348/348/348
f 349/349/349 350/350/350 351/351/351
f 349/349/349 351/351/351 352/352/352
f 353/353/353 354/354/354 355/355/355
f 353/353/353 355/355/355 356/356/356
f 357/357/357 358/358/358 359/359/359
f 357/357/357 359/359/359 360/360/360
f 361/361/361 362/362/362 363/363/363
f 361/361/361 363/363/363 364/364/364
f 365/365/365 366/366/366 367/367/367
f 365/365/365 367/367/367 368/368/368
f 369/369/369 370/370/370 371/371/371
f 369/369/369 371/371/371 372/372/372
f 373/373/373 374/374/374 375/375/375
f 373/373/373 375/375/375 376/376/376
f 377/377/377 378/378/378 379/379/379
f 377/377/377 379/379/379 380/380/380
f 381/381/381 382/382/382 383/383/383
f 381/381/381 383/383/383 384/384/384
f 385/385/385 386/386/386 387/387/387
f 385/385/385 387/387/387 388/388/388
f 389/389/389 390/390/390 391/391/391
f 389/389/389 391/391/391 392/392/392
f 393/393/393 394/394/394 395/395/395
f 393/393/393 395/395/395 396/396/396
f 397/397/397 398/398/398 399/399/399
f 397/397/397 399/399/399 400/400/400
f 401/401/401 402/402/402 403/403/403
f 401/401/401 403/403/403 404/404/404
f 405/405/405 406/406/406 407/407/407
f 405/405/405 407/407/407 408/408/408
f 409/409/409 410/410/410 411/411/411
f 409/409/409 411/411/411 412/412/412
f 413/413/413 414/414/414 415/415/415
f 413/413/413 415/415/415 416/416/416
f 417/417/417 418/418/418 419/419/419
f 417/417/417 419/419/419 420/420/420
f 421/421/421 422/422/422 423/423/423
f 421/421/421 423/423/423 424/424/424
f 425/425/425 426/426/426 427/427/427
f 425/425/425 427/427/427 428/428/428
f 429/429/429 430/430/430 431/431/431
f 429/429/429 431/431/431 432/432/432
f 433/433/433 434/434/434 435/435/435
f 433/433/433 435/435/435 436/436/436
f 437/437/437 438/438/438 439/439/439
f 437/437/437 439/439/439 440/440/440
f 441/441/441 438/438/438 442/442/442
f 441/441/441 442/442/442 443/443/443
f 433/433/433 436/436/436 444/444/444
f 433/433/433 444/444/444 445/445/445
f 441/441/441 446/446/446 447/447/447
f 448/448/448 436/436/436 449/449/449
f 448/448/448 449/449/449 450/450/450
f 451/451/451 452/452/452 453/453/453
f 451/451/451 453/453/453 454/454/454
f 455/455/455 453/453/453 456/456/456
f 457/457/457 458/458/458 459/459/459
f 460/460/460 461/461/461 462/462/462
f 460/460/460 462/462/462 463/463/463
f 460/460/460 464/464/464 465/465/465
f 466/466/466 467/467/467 468/468/468
f 466/466/466 468/468/468 461/461/461
f 469/469/469 468/468/468 470/470/470
f 471/471/471 472/472/472 468/468/468
f 471/471/471 468/468/468 473/473/473
f 471/471/471 474/474/474 472/472/472
f 455/455/455 456/456/456 475/475/475
f 455/455/455 475/475/475 476/476/476
f 477/477/477 478/478/478 479/479/479
f 477/477/477 479/479/479 480/480/480
f 481/481/481 482/482/482 483/483/483
f 484/484/484 485/485/485 482/482/482
f 484/484/484 482/482/482 486/486/486
