# Generated by lxe_pbrt_scene_convert
v -0.569553971 0.995401025 0.275247991
v -0.576116025 0.969043016 0.254575014
v -0.54804498 0.962921023 0.254586011
v -0.541482985 0.989278972 0.275260001
v -0.546684027 1.10127199 0.227167994
v -0.552762985 1.07313001 0.250497997
v -0.524691999 1.06700802 0.250508994
v -0.518612981 1.09514999 0.227180004
v -0.552762985 1.07312703 0.106826998
v -0.552762985 1.07312906 0.190155998
v -0.546684027 1.10127103 0.174692005
v -0.546684027 1.10126901 0.102225997
v -0.576116025 0.967355013 0.199945003
v -0.569553971 0.995401025 0.209849998
v -0.569553971 0.995400012 0.119537003
v -0.576116025 0.965025008 0.124504
v -0.518612981 1.09514904 0.174704
v -0.518612981 1.09514701 0.102237001
v -0.54804498 0.96123302 0.199956998
v -0.54804498 0.958903015 0.124516003
v -0.524691999 1.06700695 0.190167993
v -0.524691999 1.06700504 0.106839001
v -0.541482985 0.989278972 0.209860995
v -0.541482985 0.989278018 0.119548999
v -0.552762985 1.073125 0
v -0.552762985 1.07312596 0.049141001
v -0.546684027 1.10126698 0.0470240004
v -0.546684027 1.10126603 0
v -0.576116025 0.965025008 0
v -0.576116025 0.965025008 0.0572719984
v -0.569553971 0.995400012 0.0549869984
v -0.569553971 0.995400012 0
v -0.518612981 1.09514499 0.0470299982
v -0.518612981 1.09514403 0
v -0.54804498 0.958903015 0
v -0.54804498 0.958903015 0.0572789982
v -0.524691999 1.06700397 0.0491469987
v -0.524691999 1.06700301 0
v -0.541482985 0.989278018 0
v -0.541482985 0.989278018 0.0549939983
v -0.557228982 1.05245805 0.259319991
v -0.529157996 1.04633605 0.259330988
v -0.561694026 1.03178596 0.268142015
v -0.53362298 1.02566397 0.268153012
v -0.561694026 1.03178501 0.203228995
v -0.557228982 1.05245697 0.196693003
v -0.557228982 1.05245602 0.110207997
v -0.561694026 1.03178406 0.113587998
v -0.53362298 1.02566302 0.203241006
v -0.529157996 1.04633498 0.196704
v -0.53362298 1.02566195 0.113599002
v -0.529157996 1.04633403 0.110219002
v -0.561694026 1.03178406 0.0522500016
v -0.557228982 1.05245495 0.0506960005
v -0.557228982 1.05245399 0
v -0.561694026 1.03178298 0
v -0.53362298 1.02566099 0
v -0.529157996 1.046332 0
v -0.529157996 1.04633296 0.0507019982
v -0.53362298 1.02566099 0.0522570014
v -0.565623999 1.01359296 0.271694988
v -0.537553012 1.00747097 0.271706998
v -0.565623999 1.01359296 0.206539005
v -0.565623999 1.013592 0.116563
v -0.537553012 1.00747097 0.206551
v -0.537553012 1.00747001 0.116573997
v -0.565623999 1.013592 0.0536190011
v -0.565623999 1.01359105 0
v -0.537553012 1.00746906 0
v -0.537553012 1.00747001 0.0536249988
v -0.552762985 1.07312703 0.0779839978
v -0.546684027 1.10126805 0.0746250004
v -0.576116025 0.965025008 0.090888001
v -0.569553971 0.995400012 0.0872619972
v -0.518612981 1.09514594 0.0746340007
v -0.54804498 0.958903015 0.0908970013
v -0.524691999 1.06700504 0.0779929981
v -0.541482985 0.989278018 0.0872709975
v -0.557228982 1.05245495 0.0804520026
v -0.561694026 1.03178406 0.0829190016
v -0.529157996 1.04633296 0.0804610029
v -0.53362298 1.02566195 0.0829280019
v -0.565623999 1.013592 0.0850910023
v -0.537553012 1.00747001 0.0851000026
v -0.569553971 0.995401025 -0.275247991
v -0.541482985 0.989278972 -0.275260001
v -0.54804498 0.962921023 -0.254586011
v -0.576116025 0.969043016 -0.254575014
v -0.546684027 1.10127199 -0.227167994
v -0.518612981 1.09514999 -0.227180004
v -0.524691999 1.06700802 -0.250508994
v -0.552762985 1.07313001 -0.250497997
v -0.552762985 1.07312703 -0.106826998
v -0.546684027 1.10126901 -0.102225997
v -0.546684027 1.10127103 -0.174692005
v -0.552762985 1.07312906 -0.190155998
v -0.576116025 0.967355013 -0.199945003
v -0.569553971 0.995401025 -0.209849998
v -0.576116025 0.965025008 -0.124504
v -0.569553971 0.995400012 -0.119537003
v -0.518612981 1.09514701 -0.102237001
v -0.518612981 1.09514904 -0.174704
v -0.54804498 0.96123302 -0.199956998
v -0.54804498 0.958903015 -0.124516003
v -0.524691999 1.06700695 -0.190167993
v -0.524691999 1.06700504 -0.106839001
v -0.541482985 0.989278972 -0.209860995
v -0.541482985 0.989278018 -0.119548999
v -0.546684027 1.10126698 -0.0470240004
v -0.552762985 1.07312596 -0.049141001
v -0.569553971 0.995400012 -0.0549869984
v -0.576116025 0.965025008 -0.0572719984
v -0.518612981 1.09514499 -0.0470299982
v -0.54804498 0.958903015 -0.0572789982
v -0.524691999 1.06700397 -0.0491469987
v -0.541482985 0.989278018 -0.0549939983
v -0.529157996 1.04633605 -0.259330988
v -0.557228982 1.05245805 -0.259319991
v -0.53362298 1.02566397 -0.268153012
v -0.561694026 1.03178596 -0.268142015
v -0.561694026 1.03178501 -0.203228995
v -0.561694026 1.03178406 -0.113587998
v -0.557228982 1.05245602 -0.110207997
v -0.557228982 1.05245697 -0.196693003
v -0.53362298 1.02566302 -0.203241006
v -0.529157996 1.04633498 -0.196704
v -0.53362298 1.02566195 -0.113599002
v -0.529157996 1.04633403 -0.110219002
v -0.561694026 1.03178406 -0.0522500016
v -0.557228982 1.05245495 -0.0506960005
v -0.53362298 1.02566099 -0.0522570014
v -0.529157996 1.04633296 -0.0507019982
v -0.537553012 1.00747097 -0.271706998
v -0.565623999 1.01359296 -0.271694988
v -0.565623999 1.013592 -0.116563
v -0.565623999 1.01359296 -0.206539005
v -0.537553012 1.00747097 -0.206551
v -0.537553012 1.00747001 -0.116573997
v -0.565623999 1.013592 -0.0536190011
v -0.537553012 1.00747001 -0.0536249988
v -0.546684027 1.10126805 -0.0746250004
v -0.552762985 1.07312703 -0.0779839978
v -0.569553971 0.995400012 -0.0872619972
v -0.576116025 0.965025008 -0.090888001
v -0.518612981 1.09514594 -0.0746340007
v -0.54804498 0.958903015 -0.0908970013
v -0.524691999 1.06700504 -0.0779929981
v -0.541482985 0.989278018 -0.0872709975
v -0.561694026 1.03178406 -0.0829190016
v -0.557228982 1.05245495 -0.0804520026
v -0.53362298 1.02566195 -0.0829280019
v -0.529157996 1.04633296 -0.0804610029
v -0.565623999 1.013592 -0.0850910023
v -0.537553012 1.00747001 -0.0851000026
vn -0.647199988 -0.0395000018 0.761300027
vn -0.764299989 -0.537 0.356900007
vn 0.44690001 -0.819100022 0.359499991
vn 0.574800014 -0.310299993 0.757099986
vn -0.457800001 0.822700024 0.337000012
vn -0.581200004 0.511900008 0.632600009
vn 0.741100013 0.225799993 0.632300019
vn 0.757600009 0.559000015 0.337000012
vn -0.977400005 0.211099997 0
vn -0.977400005 0.211099997 0
vn -0.541000009 0.841000021 0
vn -0.541000009 0.841000021 0
vn -0.845000029 -0.534300029 0.0192000009
vn -0.975399971 0.220400006 -0.00159999996
vn -0.976999998 0.213 -0.000699999975
vn -0.839100003 -0.543900013 0.00960000046
vn 0.841000021 0.541000009 0
vn 0.841000021 0.541000009 0
vn 0.534699976 -0.844699979 0.0233999994
vn 0.535899997 -0.844099998 0.0118000004
vn 0.977400005 -0.211099997 0
vn 0.977400005 -0.211099997 0
vn 0.975399971 -0.220400006 0.00159999996
vn 0.976999998 -0.213 0.000699999975
vn -0.977400005 0.211199999 0
vn -0.977400005 0.211199999 0
vn -0.541000009 0.841000021 0
vn -0.541000009 0.841000021 0
vn -0.841000021 -0.541000009 0
vn -0.841000021 -0.541000009 0
vn -0.977400005 0.211199999 0
vn -0.977400005 0.211199999 0
vn 0.841000021 0.541000009 0
vn 0.841000021 0.541000009 0
vn 0.541000009 -0.841000021 0
vn 0.541000009 -0.841000021 0
vn 0.977400005 -0.211199999 0
vn 0.977400005 -0.211199999 0
vn 0.977400005 -0.211099997 0
vn 0.977400005 -0.211099997 0
vn -0.63349998 0.415399998 0.652700007
vn 0.748700023 0.116700001 0.652499974
vn -0.624800026 0.349700004 0.698099971
vn 0.713500023 0.0603 0.698000014
vn -0.977400005 0.211099997 0
vn -0.977400005 0.211099997 0
vn -0.977400005 0.211099997 0
vn -0.977400005 0.211099997 0
vn 0.977400005 -0.211099997 0
vn 0.977400005 -0.211099997 0
vn 0.977400005 -0.211099997 0
vn 0.977400005 -0.211099997 0
vn -0.977400005 0.211099997 0
vn -0.977400005 0.211199999 0
vn -0.977400005 0.211199999 0
vn -0.977400005 0.211099997 0
vn 0.977400005 -0.211199999 0
vn 0.977400005 -0.211199999 0
vn 0.977400005 -0.211199999 0
vn 0.977400005 -0.211199999 0
vn -0.663200021 0.278899997 0.694500029
vn 0.719099998 -0.0197000001 0.694599986
vn -0.977400005 0.211099997 0
vn -0.977400005 0.211099997 0
vn 0.977400005 -0.211099997 0
vn 0.977400005 -0.211099997 0
vn -0.977400005 0.211199999 0
vn -0.977400005 0.211099997 0
vn 0.977400005 -0.211199999 0
vn 0.977400005 -0.211099997 0
vn -0.977400005 0.211099997 0
vn -0.541000009 0.841000021 0
vn -0.841000021 -0.541000009 0
vn -0.977400005 0.211099997 0
vn 0.841000021 0.541000009 0
vn 0.541000009 -0.841000021 0
vn 0.977400005 -0.211099997 0
vn 0.977400005 -0.211099997 0
vn -0.977400005 0.211199999 0
vn -0.977400005 0.211099997 0
vn 0.977400005 -0.211099997 0
vn 0.977400005 -0.211099997 0
vn -0.977400005 0.211099997 0
vn 0.977400005 -0.211099997 0
vn -0.647199988 -0.0395000018 -0.761300027
vn 0.574800014 -0.310299993 -0.757099986
vn 0.44690001 -0.819100022 -0.359499991
vn -0.764299989 -0.537 -0.356900007
vn -0.457800001 0.822700024 -0.337000012
vn 0.757600009 0.559000015 -0.337000012
vn 0.741100013 0.225799993 -0.632300019
vn -0.581200004 0.511900008 -0.632600009
vn -0.977400005 0.211099997 0
vn -0.541000009 0.841000021 0
vn -0.541000009 0.841000021 0
vn -0.977400005 0.211099997 0
vn -0.845000029 -0.534300029 -0.0192000009
vn -0.975399971 0.220400006 0.00159999996
vn -0.839100003 -0.543900013 -0.00960000046
vn -0.976999998 0.213 0.000699999975
vn 0.841000021 0.541000009 0
vn 0.841000021 0.541000009 0
vn 0.534699976 -0.844699979 -0.0233999994
vn 0.535899997 -0.844099998 -0.0118000004
vn 0.977400005 -0.211099997 0
vn 0.977400005 -0.211099997 0
vn 0.975399971 -0.220400006 -0.00159999996
vn 0.976999998 -0.213 -0.000699999975
vn -0.541000009 0.841000021 0
vn -0.977400005 0.211199999 0
vn -0.977400005 0.211199999 0
vn -0.841000021 -0.541000009 0
vn 0.841000021 0.541000009 0
vn 0.541000009 -0.841000021 0
vn 0.977400005 -0.211199999 0
vn 0.977400005 -0.211099997 0
vn 0.748700023 0.116700001 -0.652499974
vn -0.63349998 0.415399998 -0.652700007
vn 0.713500023 0.0603 -0.698000014
vn -0.624800026 0.349700004 -0.698099971
vn -0.977400005 0.211099997 0
vn -0.977400005 0.211099997 0
vn -0.977400005 0.211099997 0
vn -0.977400005 0.211099997 0
vn 0.977400005 -0.211099997 0
vn 0.977400005 -0.211099997 0
vn 0.977400005 -0.211099997 0
vn 0.977400005 -0.211099997 0
vn -0.977400005 0.211099997 0
vn -0.977400005 0.211199999 0
vn 0.977400005 -0.211199999 0
vn 0.977400005 -0.211199999 0
vn 0.719099998 -0.0197000001 -0.694599986
vn -0.663200021 0.278899997 -0.694500029
vn -0.977400005 0.211099997 0
vn -0.977400005 0.211099997 0
vn 0.977400005 -0.211099997 0
vn 0.977400005 -0.211099997 0
vn -0.977400005 0.211099997 0
vn 0.977400005 -0.211099997 0
vn -0.541000009 0.841000021 0
vn -0.977400005 0.211099997 0
vn -0.977400005 0.211099997 0
vn -0.841000021 -0.541000009 0
vn 0.841000021 0.541000009 0
vn 0.541000009 -0.841000021 0
vn 0.977400005 -0.211099997 0
vn 0.977400005 -0.211099997 0
vn -0.977400005 0.211099997 0
vn -0.977400005 0.211199999 0
vn 0.977400005 -0.211099997 0
vn 0.977400005 -0.211099997 0
vn -0.977400005 0.211099997 0
vn 0.977400005 -0.211099997 0
f 1//1 2//2 3//3
f 1//1 3//3 4//4
f 5//5 6//6 7//7
f 5//5 7//7 8//8
f 9//9 10//10 11//11
f 9//9 11//11 12//12
f 10//10 6//6 5//5
f 10//10 5//5 11//11
f 13//13 2//2 1//1
f 13//13 1//1 14//14
f 14//14 15//15 16//16
f 14//14 16//16 13//13
f 12//12 11//11 17//17
f 12//12 17//17 18//18
f 11//11 5//5 8//8
f 11//11 8//8 17//17
f 2//2 13//13 19//19
f 2//2 19//19 3//3
f 13//13 16//16 20//20
f 13//13 20//20 19//19
f 7//7 21//21 17//17
f 7//7 17//17 8//8
f 21//21 22//22 18//18
f 21//21 18//18 17//17
f 3//3 19//19 23//23
f 3//3 23//23 4//4
f 19//19 20//20 24//24
f 19//19 24//24 23//23
f 25//25 26//26 27//27
f 25//25 27//27 28//28
f 29//29 30//30 31//31
f 29//29 31//31 32//32
f 28//28 27//27 33//33
f 28//28 33//33 34//34
f 30//30 29//29 35//35
f 30//30 35//35 36//36
f 37//37 38//38 34//34
f 37//37 34//34 33//33
f 36//36 35//35 39//39
f 36//36 39//39 40//40
f 6//6 41//41 42//42
f 6//6 42//42 7//7
f 41//41 43//43 44//44
f 41//41 44//44 42//42
f 45//45 46//46 47//47
f 45//45 47//47 48//48
f 46//46 10//10 9//9
f 46//46 9//9 47//47
f 43//43 41//41 46//46
f 43//43 46//46 45//45
f 41//41 6//6 10//10
f 41//41 10//10 46//46
f 49//49 50//50 42//42
f 49//49 42//42 44//44
f 50//50 21//21 7//7
f 50//50 7//7 42//42
f 51//51 52//52 50//50
f 51//51 50//50 49//49
f 52//52 22//22 21//21
f 52//52 21//21 50//50
f 53//53 54//54 55//55
f 53//53 55//55 56//56
f 54//54 26//26 25//25
f 54//54 25//25 55//55
f 57//57 58//58 59//59
f 57//57 59//59 60//60
f 58//58 38//38 37//37
f 58//58 37//37 59//59
f 43//43 61//61 62//62
f 43//43 62//62 44//44
f 61//61 1//1 4//4
f 61//61 4//4 62//62
f 14//14 63//63 64//64
f 14//14 64//64 15//15
f 63//63 45//45 48//48
f 63//63 48//48 64//64
f 1//1 61//61 63//63
f 1//1 63//63 14//14
f 61//61 43//43 45//45
f 61//61 45//45 63//63
f 23//23 65//65 62//62
f 23//23 62//62 4//4
f 65//65 49//49 44//44
f 65//65 44//44 62//62
f 24//24 66//66 65//65
f 24//24 65//65 23//23
f 66//66 51//51 49//49
f 66//66 49//49 65//65
f 31//31 67//67 68//68
f 31//31 68//68 32//32
f 67//67 53//53 56//56
f 67//67 56//56 68//68
f 39//39 69//69 70//70
f 39//39 70//70 40//40
f 69//69 57//57 60//60
f 69//69 60//60 70//70
f 26//26 71//71 72//72
f 26//26 72//72 27//27
f 71//71 9//9 12//12
f 71//71 12//12 72//72
f 30//30 73//73 74//74
f 30//30 74//74 31//31
f 73//73 16//16 15//15
f 73//73 15//15 74//74
f 27//27 72//72 75//75
f 27//27 75//75 33//33
f 72//72 12//12 18//18
f 72//72 18//18 75//75
f 16//16 73//73 76//76
f 16//16 76//76 20//20
f 73//73 30//30 36//36
f 73//73 36//36 76//76
f 22//22 77//77 75//75
f 22//22 75//75 18//18
f 77//77 37//37 33//33
f 77//77 33//33 75//75
f 20//20 76//76 78//78
f 20//20 78//78 24//24
f 76//76 36//36 40//40
f 76//76 40//40 78//78
f 47//47 79//79 80//80
f 47//47 80//80 48//48
f 79//79 54//54 53//53
f 79//79 53//53 80//80
f 9//9 71//71 79//79
f 9//9 79//79 47//47
f 71//71 26//26 54//54
f 71//71 54//54 79//79
f 59//59 81//81 82//82
f 59//59 82//82 60//60
f 81//81 52//52 51//51
f 81//81 51//51 82//82
f 37//37 77//77 81//81
f 37//37 81//81 59//59
f 77//77 22//22 52//52
f 77//77 52//52 81//81
f 64//64 83//83 74//74
f 64//64 74//74 15//15
f 83//83 67//67 31//31
f 83//83 31//31 74//74
f 48//48 80//80 83//83
f 48//48 83//83 64//64
f 80//80 53//53 67//67
f 80//80 67//67 83//83
f 70//70 84//84 78//78
f 70//70 78//78 40//40
f 84//84 66//66 24//24
f 84//84 24//24 78//78
f 60//60 82//82 84//84
f 60//60 84//84 70//70
f 82//82 51//51 66//66
f 82//82 66//66 84//84
f 85//85 86//86 87//87
f 85//85 87//87 88//88
f 89//89 90//90 91//91
f 89//89 91//91 92//92
f 93//93 94//94 95//95
f 93//93 95//95 96//96
f 96//96 95//95 89//89
f 96//96 89//89 92//92
f 97//97 98//98 85//85
f 97//97 85//85 88//88
f 98//98 97//97 99//99
f 98//98 99//99 100//100
f 94//94 101//101 102//102
f 94//94 102//102 95//95
f 95//95 102//102 90//90
f 95//95 90//90 89//89
f 88//88 87//87 103//103
f 88//88 103//103 97//97
f 97//97 103//103 104//104
f 97//97 104//104 99//99
f 91//91 90//90 102//102
f 91//91 102//102 105//105
f 105//105 102//102 101//101
f 105//105 101//101 106//106
f 87//87 86//86 107//107
f 87//87 107//107 103//103
f 103//103 107//107 108//108
f 103//103 108//108 104//104
f 25//25 28//28 109//109
f 25//25 109//109 110//110
f 29//29 32//32 111//111
f 29//29 111//111 112//112
f 28//28 34//34 113//113
f 28//28 113//113 109//109
f 112//112 114//114 35//35
f 112//112 35//35 29//29
f 115//115 113//113 34//34
f 115//115 34//34 38//38
f 114//114 116//116 39//39
f 114//114 39//39 35//35
f 92//92 91//91 117//117
f 92//92 117//117 118//118
f 118//118 117//117 119//119
f 118//118 119//119 120//120
f 121//121 122//122 123//123
f 121//121 123//123 124//124
f 124//124 123//123 93//93
f 124//124 93//93 96//96
f 120//120 121//121 124//124
f 120//120 124//124 118//118
f 118//118 124//124 96//96
f 118//118 96//96 92//92
f 125//125 119//119 117//117
f 125//125 117//117 126//126
f 126//126 117//117 91//91
f 126//126 91//91 105//105
f 127//127 125//125 126//126
f 127//127 126//126 128//128
f 128//128 126//126 105//105
f 128//128 105//105 106//106
f 129//129 56//56 55//55
f 129//129 55//55 130//130
f 130//130 55//55 25//25
f 130//130 25//25 110//110
f 57//57 131//131 132//132
f 57//57 132//132 58//58
f 58//58 132//132 115//115
f 58//58 115//115 38//38
f 120//120 119//119 133//133
f 120//120 133//133 134//134
f 134//134 133//133 86//86
f 134//134 86//86 85//85
f 98//98 100//100 135//135
f 98//98 135//135 136//136
f 136//136 135//135 122//122
f 136//136 122//122 121//121
f 85//85 98//98 136//136
f 85//85 136//136 134//134
f 134//134 136//136 121//121
f 134//134 121//121 120//120
f 107//107 86//86 133//133
f 107//107 133//133 137//137
f 137//137 133//133 119//119
f 137//137 119//119 125//125
f 108//108 107//107 137//137
f 108//108 137//137 138//138
f 138//138 137//137 125//125
f 138//138 125//125 127//127
f 111//111 32//32 68//68
f 111//111 68//68 139//139
f 139//139 68//68 56//56
f 139//139 56//56 129//129
f 39//39 116//116 140//140
f 39//39 140//140 69//69
f 69//69 140//140 131//131
f 69//69 131//131 57//57
f 110//110 109//109 141//141
f 110//110 141//141 142//142
f 142//142 141//141 94//94
f 142//142 94//94 93//93
f 112//112 111//111 143//143
f 112//112 143//143 144//144
f 144//144 143//143 100//100
f 144//144 100//100 99//99
f 109//109 113//113 145//145
f 109//109 145//145 141//141
f 141//141 145//145 101//101
f 141//141 101//101 94//94
f 99//99 104//104 146//146
f 99//99 146//146 144//144
f 144//144 146//146 114//114
f 144//144 114//114 112//112
f 106//106 101//101 145//145
f 106//106 145//145 147//147
f 147//147 145//145 113//113
f 147//147 113//113 115//115
f 104//104 108//108 148//148
f 104//104 148//148 146//146
f 146//146 148//148 116//116
f 146//146 116//116 114//114
f 123//123 122//122 149//149
f 123//123 149//149 150//150
f 150//150 149//149 129//129
f 150//150 129//129 130//130
f 93//93 123//123 150//150
f 93//93 150//150 142//142
f 142//142 150//150 130//130
f 142//142 130//130 110//110
f 132//132 131//131 151//151
f 132//132 151//151 152//152
f 152//152 151//151 127//127
f 152//152 127//127 128//128
f 115//115 132//132 152//152
f 115//115 152//152 147//147
f 147//147 152//152 128//128
f 147//147 128//128 106//106
f 135//135 100//100 143//143
f 135//135 143//143 153//153
f 153//153 143//143 111//111
f 153//153 111//111 139//139
f 122//122 135//135 153//153
f 122//122 153//153 149//149
f 149//149 153//153 139//139
f 149//149 139//139 129//129
f 140//140 116//116 148//148
f 140//140 148//148 154//154
f 154//154 148//148 108//108
f 154//154 108//108 138//138
f 131//131 140//140 154//154
f 131//131 154//154 151//151
f 151//151 154//154 138//138
f 151//151 138//138 127//127
