# Generated by lxe_pbrt_scene_convert
v -3.04807901 -0.751504004 1.728338
v -3.04700494 -0.742352009 1.72839701
v -3.00924802 -0.751504004 1.728338
v -3.04121208 -0.730502009 1.72847402
v -3.03261089 -0.721085012 1.72853398
v -3.02072597 -0.714733005 1.72857499
v -3.00924802 -0.712498009 1.72858906
v -2.96752095 -0.754171014 1.72832096
v -2.96859407 -0.763321996 1.72826195
v -3.00635099 -0.754171014 1.72832096
v -2.97438693 -0.775173008 1.72818601
v -2.98298907 -0.784590006 1.72812498
v -2.99487305 -0.790941 1.72808397
v -3.00635099 -0.793175995 1.72807002
v -3.00635099 -0.793196023 1.73116696
v -3.00635099 -0.754190028 1.73141801
v -2.96752095 -0.754190028 1.73141801
v -2.99487305 -0.790961981 1.73118103
v -2.98298907 -0.784609973 1.73122203
v -2.97438693 -0.775192976 1.73128295
v -2.96859407 -0.763342023 1.731359
v -3.00924802 -0.712517023 1.731686
v -3.00924802 -0.751523972 1.73143494
v -3.04807901 -0.751523972 1.73143494
v -3.02072597 -0.714752972 1.73167205
v -3.03261089 -0.72110498 1.73162997
v -3.04121208 -0.730521023 1.73157001
v -3.04700494 -0.742371976 1.73149395
vn -0.613099992 -0.541700006 -0.574899971
vn -0.711300015 0.213200003 -0.669799984
vn 0.577300012 -0.573599994 -0.58099997
vn -0.608900011 0.418599993 -0.673799992
vn -0.455000013 0.589699984 -0.667200029
vn -0.247099996 0.699400008 -0.670599997
vn 0.523400009 0.638800025 -0.563799977
vn 0.613099992 0.549099982 -0.567900002
vn 0.711300015 -0.204600006 -0.672399998
vn -0.577300012 0.58099997 -0.573599994
vn 0.608900011 -0.40990001 -0.679099977
vn 0.455000013 -0.581099987 -0.674700022
vn 0.247099996 -0.690699995 -0.6796
vn -0.523500025 -0.631500006 -0.572000027
vn -0.523400009 -0.638800025 0.563799977
vn -0.577300012 0.573599994 0.58099997
vn 0.613099992 0.541800022 0.574899971
vn 0.247099996 -0.699400008 0.670599997
vn 0.455000013 -0.589699984 0.667200029
vn 0.608900011 -0.418599993 0.673799992
vn 0.711300015 -0.213200003 0.669799984
vn 0.523500025 0.631600022 0.57190001
vn 0.577300012 -0.58099997 0.573599994
vn -0.613099992 -0.549099982 0.567900002
vn -0.247099996 0.690699995 0.6796
vn -0.4551 0.581099987 0.674700022
vn -0.608900011 0.40990001 0.679099977
vn -0.711300015 0.204600006 0.672500014
f 1//1 2//2 3//3
f 2//2 4//4 3//3
f 4//4 5//5 3//3
f 5//5 6//6 3//3
f 6//6 7//7 3//3
f 8//8 9//9 10//10
f 9//9 11//11 10//10
f 11//11 12//12 10//10
f 12//12 13//13 10//10
f 13//13 14//14 10//10
f 10//10 14//14 15//15
f 10//10 15//15 16//16
f 8//8 10//10 16//16
f 8//8 16//16 17//17
f 14//14 13//13 18//18
f 14//14 18//18 15//15
f 13//13 12//12 19//19
f 13//13 19//19 18//18
f 12//12 11//11 20//20
f 12//12 20//20 19//19
f 11//11 9//9 21//21
f 11//11 21//21 20//20
f 9//9 8//8 17//17
f 9//9 17//17 21//21
f 3//3 7//7 22//22
f 3//3 22//22 23//23
f 1//1 3//3 23//23
f 1//1 23//23 24//24
f 7//7 6//6 25//25
f 7//7 25//25 22//22
f 6//6 5//5 26//26
f 6//6 26//26 25//25
f 5//5 4//4 27//27
f 5//5 27//27 26//26
f 4//4 2//2 28//28
f 4//4 28//28 27//27
f 2//2 1//1 24//24
f 2//2 24//24 28//28
f 23//23 28//28 24//24
f 23//23 27//27 28//28
f 23//23 26//26 27//27
f 23//23 25//25 26//26
f 23//23 22//22 25//25
f 16//16 21//21 17//17
f 16//16 20//20 21//21
f 16//16 19//19 20//20
f 16//16 18//18 19//19
f 16//16 15//15 18//18
