# Generated by lxe_pbrt_scene_convert
v -1.92017496 -0.0101469997 1.83850896
v -2.03680992 -0.012662 1.83850896
v -2.05301094 -0.044617001 1.83850896
v -1.91886103 -0.0417240001 1.83850896
v -1.92017496 -0.0101469997 -1.83850896
v -1.91886103 -0.0417240001 -1.83850896
v -2.05301094 -0.044617001 -1.83850896
v -2.03680992 -0.012662 -1.83850896
vt 0.5 0.49000001
vt 0.5 0.980000019
vt 0.25 0.980000019
vt 0.25 0.49000001
vt 0.5 0.49000001
vt 0.25 0.49000001
vt 0.25 0.980000019
vt 0.5 0.980000019
vn -0 0 1
vn -0 0 1
vn -0 0 1
vn -0 0 1
vn -0 0 -1
vn -0 0 -1
vn -0 0 -1
vn -0 0 -1
f 1/1/1 2/2/2 3/3/3
f 1/1/1 3/3/3 4/4/4
f 5/5/5 6/6/6 7/7/7
f 5/5/5 7/7/7 8/8/8
