# Generated by lxe_pbrt_scene_convert
v 3.09844303 0.859912992 1.23680401
v 3.28627205 0.790089011 1.23663402
v 3.33813691 0.845137 0.863268018
v 3.15884399 0.906705022 0.852450013
v 2.922225 0.921328008 1.22239399
v 2.97743392 0.966720998 0.843683004
v 3.20182395 0.926959991 0.545140028
v 3.01788998 0.986801982 0.536828995
v 2.97743392 0.966720998 0.843683004
v 3.15884399 0.906705022 0.852450013
v 3.38133788 0.864450991 0.55190599
v 3.22942591 0.935954988 0.233815998
v 3.04440498 0.996445 0.230461001
v 3.01788998 0.986801982 0.536828995
v 3.20182395 0.926959991 0.545140028
v 3.4153769 0.873880029 0.236490995
v 3.38133788 0.864450991 0.55190599
v 3.238199 0.938055992 0
v 3.05468512 0.998196006 0
v 3.04440498 0.996445 0.230461001
v 3.22942591 0.935954988 0.233815998
v 3.42558289 0.874382019 0
v 3.4153769 0.873880029 0.236490995
v 2.7902019 1.02610695 0.832080007
v 2.52681899 1.10188901 0.816865981
v 2.49370408 1.06248403 1.17208695
v 2.75000405 0.979718983 1.20226395
v 2.97743392 0.966720998 0.843683004
v 2.826653 1.04596198 0.526724994
v 2.55868912 1.12770796 0.516934991
v 2.7902019 1.02610695 0.832080007
v 3.01788998 0.986801982 0.536828995
v 2.97743392 0.966720998 0.843683004
v 2.85246301 1.05826104 0.227590993
v 2.5783 1.13931096 0.224052995
v 2.55868912 1.12770796 0.516934991
v 2.826653 1.04596198 0.526724994
v 3.04440498 0.996445 0.230461001
v 3.01788998 0.986801982 0.536828995
v 2.86241889 1.05989206 0
v 2.58465505 1.14103901 0
v 2.5783 1.13931096 0.224052995
v 2.85246301 1.05826104 0.227590993
v 3.05468512 0.998196006 0
v 3.04440498 0.996445 0.230461001
v 3.46089411 0.763508976 1.04589498
v 3.51468897 0.783680022 0.866843998
v 3.33813691 0.845137 0.863268018
v 3.57325602 0.796709001 0.556959987
v 3.38133788 0.864450991 0.55190599
v 3.51468897 0.783680022 0.866843998
v 3.38133788 0.864450991 0.55190599
v 3.57325602 0.796709001 0.556959987
v 3.60874104 0.800400019 0.241765007
v 3.4153769 0.873880029 0.236490995
v 3.62216711 0.800203025 0
v 3.42558289 0.874382019 0
v 3.4153769 0.873880029 0.236490995
v 3.60874104 0.800400019 0.241765007
v 3.60688591 0.794717014 0.241248995
v 3.41352201 0.868197978 0.235974997
v 3.42372799 0.868700027 0
v 3.62031198 0.79452002 0
v 3.41352201 0.868197978 0.235974997
v 3.60688591 0.794717014 0.241248995
v 3.57140088 0.791027009 0.556443989
v 3.37948298 0.858767986 0.551389992
v 3.51283503 0.777997017 0.866326988
v 3.33628201 0.839453995 0.86275202
v 3.37948298 0.858767986 0.551389992
v 3.57140088 0.791027009 0.556443989
v 3.33628201 0.839453995 0.86275202
v 3.51283503 0.777997017 0.866326988
v 3.45903897 0.757825971 1.04537797
v 3.28441691 0.78440702 1.23611796
v 3.04255009 0.990763009 0.229944006
v 2.85060811 1.05257797 0.227073997
v 2.86056399 1.05420899 0
v 3.05282998 0.992514014 0
v 2.57644606 1.13362801 0.223536998
v 2.58279991 1.13535595 0
v 3.01603508 0.98111999 0.536312997
v 2.82479811 1.04027903 0.526208997
v 2.85060811 1.05257797 0.227073997
v 3.04255009 0.990763009 0.229944006
v 2.55683398 1.12202501 0.51641798
v 2.57644606 1.13362801 0.223536998
v 2.97557998 0.961037993 0.843165994
v 2.78834701 1.02042496 0.831564009
v 2.82479811 1.04027903 0.526208997
v 3.01603508 0.98111999 0.536312997
v 2.52496505 1.09620702 0.816349983
v 2.55683398 1.12202501 0.51641798
v 2.92037106 0.915645003 1.22187805
v 2.74814892 0.974035978 1.20174801
v 2.78834701 1.02042496 0.831564009
v 2.97557998 0.961037993 0.843165994
v 2.49184895 1.05680096 1.17157102
v 2.52496505 1.09620702 0.816349983
v 3.41352201 0.868197978 0.235974997
v 3.22757101 0.930271983 0.2333
v 3.2363441 0.932372987 0
v 3.42372799 0.868700027 0
v 3.04255009 0.990763009 0.229944006
v 3.05282998 0.992514014 0
v 3.37948298 0.858767986 0.551389992
v 3.19996905 0.921276987 0.544623017
v 3.22757101 0.930271983 0.2333
v 3.41352201 0.868197978 0.235974997
v 3.01603508 0.98111999 0.536312997
v 3.04255009 0.990763009 0.229944006
v 3.33628201 0.839453995 0.86275202
v 3.1569891 0.901022971 0.851933002
v 3.19996905 0.921276987 0.544623017
v 3.37948298 0.858767986 0.551389992
v 2.97557998 0.961037993 0.843165994
v 3.01603508 0.98111999 0.536312997
v 3.1569891 0.901022971 0.851933002
v 3.0965879 0.854231 1.23628795
v 2.92037106 0.915645003 1.22187805
v 3.28441691 0.78440702 1.23611796
v 2.182621 1.15150404 1.14093006
v 2.1919539 1.14883399 1.14186502
v 2.21859002 1.18631303 0.799992979
v 2.20905805 1.18892395 0.799471974
v 2.52681899 1.10188901 0.816865981
v 2.55868912 1.12770796 0.516934991
v 2.2368989 1.20983505 0.505284011
v 2.21859002 1.18631303 0.799992979
v 2.22694707 1.21237504 0.504923999
v 2.20905805 1.18892395 0.799471974
v 2.5783 1.13931096 0.224052995
v 2.25084996 1.223786 0.221590996
v 2.2368989 1.20983505 0.505284011
v 2.55868912 1.12770796 0.516934991
v 2.24072194 1.22639799 0.221515
v 2.22694707 1.21237504 0.504923999
v 2.58465505 1.14103901 0
v 2.25353098 1.22513795 0
v 2.25084996 1.223786 0.221590996
v 2.5783 1.13931096 0.224052995
v 2.24328995 1.22773898 0
v 2.24072194 1.22639799 0.221515
v 2.57644606 1.13362801 0.223536998
v 2.24899507 1.21810305 0.221074998
v 2.25167704 1.219455 0
v 2.58279991 1.13535595 0
v 2.238868 1.220716 0.220999002
v 2.241436 1.22205603 0
v 2.55683398 1.12202501 0.51641798
v 2.235044 1.20415199 0.504768014
v 2.24899507 1.21810305 0.221074998
v 2.57644606 1.13362801 0.223536998
v 2.22509193 1.20669198 0.504408002
v 2.238868 1.220716 0.220999002
v 2.52496505 1.09620702 0.816349983
v 2.21673608 1.18062997 0.799476981
v 2.235044 1.20415199 0.504768014
v 2.55683398 1.12202501 0.51641798
v 2.20720291 1.18324101 0.798955023
v 2.22509193 1.20669198 0.504408002
v 2.20720291 1.18324101 0.798955023
v 2.21673608 1.18062997 0.799476981
v 2.190099 1.14315104 1.141348
v 2.18076611 1.14582205 1.140414
v 2.49184895 1.05680096 1.17157102
v 3.60630393 0.724032998 1.03775704
v 3.60121489 0.725413978 1.03804195
v 3.46392488 0.742609024 1.180287
v 3.47036791 0.740886986 1.17824304
v 3.46089411 0.763508976 1.04589498
v 3.28627205 0.790089011 1.23663402
v 3.6946981 0.718007982 0.85293901
v 3.51468897 0.783680022 0.866843998
v 3.701226 0.715626001 0.852434993
v 3.77694201 0.709380984 0.559325993
v 3.76981306 0.712436974 0.559243977
v 3.6946981 0.718007982 0.85293901
v 3.701226 0.715626001 0.852434993
v 3.57325602 0.796709001 0.556959987
v 3.51468897 0.783680022 0.866843998
v 3.82402205 0.707756996 0.242027
v 3.81648707 0.710999012 0.242017999
v 3.76981306 0.712436974 0.559243977
v 3.77694201 0.709380984 0.559325993
v 3.60874104 0.800400019 0.241765007
v 3.57325602 0.796709001 0.556959987
v 3.60874104 0.800400019 0.241765007
v 3.81648707 0.710999012 0.242017999
v 3.83435988 0.712333977 0
v 3.62216711 0.800203025 0
v 3.82402205 0.707756996 0.242027
v 3.84205604 0.709146976 0
v 3.62031198 0.79452002 0
v 3.83250499 0.706651986 0
v 3.81463194 0.70531702 0.241501004
v 3.60688591 0.794717014 0.241248995
v 3.8402009 0.703464985 0
v 3.82216692 0.702073991 0.241511002
v 3.77508712 0.703697979 0.558809996
v 3.76795793 0.706754982 0.558727026
v 3.81463194 0.70531702 0.241501004
v 3.82216692 0.702073991 0.241511002
v 3.57140088 0.791027009 0.556443989
v 3.60688591 0.794717014 0.241248995
v 3.69937205 0.70994401 0.851917982
v 3.69284296 0.71232599 0.852423012
v 3.76795793 0.706754982 0.558727026
v 3.77508712 0.703697979 0.558809996
v 3.51283503 0.777997017 0.866326988
v 3.57140088 0.791027009 0.556443989
v 3.51283503 0.777997017 0.866326988
v 3.69284296 0.71232599 0.852423012
v 3.59935999 0.719731987 1.03752601
v 3.45903897 0.757825971 1.04537797
v 3.69937205 0.70994401 0.851917982
v 3.60444999 0.718349993 1.03724098
v 3.46851301 0.735203981 1.17772698
v 3.46206999 0.736926019 1.17976999
v 3.59935999 0.719731987 1.03752601
v 3.60444999 0.718349993 1.03724098
v 3.28441691 0.78440702 1.23611796
v 3.45903897 0.757825971 1.04537797
v 2.24300289 1.22685802 0
v 2.24043489 1.22551799 0.221434996
v 2.24072194 1.22639799 0.221515
v 2.24043489 1.22551799 0.221434996
v 2.22665906 1.21149397 0.50484401
v 2.22694707 1.21237504 0.504923999
v 3.09844303 0.859912992 1.23680401
v 3.09815502 0.859032989 1.23672402
v 3.28598404 0.789207995 1.23655403
v 3.28627205 0.790089011 1.23663402
v 2.75000405 0.979718983 1.20226395
v 2.749717 0.978838027 1.20218396
v 2.92193794 0.920446992 1.222314
v 2.922225 0.921328008 1.22239399
v 2.49370408 1.06248403 1.17208695
v 2.49341607 1.06160295 1.17200696
v 3.47036791 0.740886986 1.17824304
v 3.47008109 0.74000603 1.17816305
v 3.60601711 0.723151982 1.03767705
v 3.701226 0.715626001 0.852434993
v 3.70093894 0.714745998 0.852355003
v 3.77665401 0.708500028 0.559246004
v 3.82373405 0.70687598 0.241946995
v 3.84176803 0.70826602 0
v 3.84205604 0.709146976 0
v 3.60601711 0.723151982 1.03767705
v 3.70093894 0.714745998 0.852355003
v 3.701226 0.715626001 0.852434993
v 3.77694201 0.709380984 0.559325993
v 3.77665401 0.708500028 0.559246004
v 2.20905805 1.18892395 0.799471974
v 2.20877004 1.188043 0.799391985
v 2.18233395 1.15062404 1.14084995
v 2.922225 0.921328008 1.22239399
v 2.92193794 0.920446992 1.222314
v 3.09815502 0.859032989 1.23672402
v 3.09844303 0.859912992 1.23680401
v 2.22665906 1.21149397 0.50484401
v 2.20877004 1.188043 0.799391985
v 2.20905805 1.18892395 0.799471974
v 2.19166589 1.14795303 1.14178503
v 2.49341607 1.06160295 1.17200696
v 2.49370408 1.06248403 1.17208695
v 2.182621 1.15150404 1.14093006
v 2.18233395 1.15062404 1.14084995
v 3.46392488 0.742609024 1.180287
v 3.46363711 0.741728008 1.18020701
v 3.47008109 0.74000603 1.17816305
v 3.47036791 0.740886986 1.17824304
v 3.28627205 0.790089011 1.23663402
v 3.28598404 0.789207995 1.23655403
v 2.24183512 1.22327995 0
v 2.23926711 1.22194004 0.221110001
v 2.238868 1.220716 0.220999002
v 2.23926711 1.22194004 0.221110001
v 2.22549105 1.20791698 0.504518986
v 2.22509193 1.20669198 0.504408002
v 3.09698701 0.855454981 1.23639905
v 3.28481603 0.785631001 1.23622894
v 3.0965879 0.854231 1.23628795
v 3.28441691 0.78440702 1.23611796
v 2.74854898 0.975260019 1.201859
v 2.92076993 0.916869998 1.22198904
v 2.74814892 0.974035978 1.20174801
v 2.92037106 0.915645003 1.22187805
v 2.49224806 1.05802596 1.171682
v 2.49184895 1.05680096 1.17157102
v 3.46891308 0.736428976 1.17783797
v 3.6048491 0.719573975 1.03735197
v 3.46851301 0.735203981 1.17772698
v 3.69977093 0.711167991 0.852029979
v 3.77548599 0.704922974 0.558920979
v 3.69937205 0.70994401 0.851917982
v 3.82256603 0.703298986 0.241622001
v 3.84060001 0.704689026 0
v 3.8402009 0.703464985 0
v 3.6048491 0.719573975 1.03735197
v 3.69977093 0.711167991 0.852029979
v 3.69937205 0.70994401 0.851917982
v 3.77548599 0.704922974 0.558920979
v 3.82256603 0.703298986 0.241622001
v 3.77508712 0.703697979 0.558809996
v 2.20760202 1.184466 0.79906702
v 2.18116593 1.14704597 1.14052498
v 2.20720291 1.18324101 0.798955023
v 2.92076993 0.916869998 1.22198904
v 3.09698701 0.855454981 1.23639905
v 2.92037106 0.915645003 1.22187805
v 3.0965879 0.854231 1.23628795
v 2.22549105 1.20791698 0.504518986
v 2.20760202 1.184466 0.79906702
v 2.19049811 1.14437497 1.14145994
v 2.49224806 1.05802596 1.171682
v 2.49184895 1.05680096 1.17157102
v 2.18116593 1.14704597 1.14052498
v 2.18076611 1.14582205 1.140414
v 3.4624691 0.738151014 1.17988205
v 3.46891308 0.736428976 1.17783797
v 3.46206999 0.736926019 1.17976999
v 3.46851301 0.735203981 1.17772698
v 3.28481603 0.785631001 1.23622894
v 3.28441691 0.78440702 1.23611796
v 3.09844303 0.859912992 -1.23680401
v 3.15884399 0.906705022 -0.852450013
v 3.33813691 0.845137 -0.863268018
v 3.28627205 0.790089011 -1.23663402
v 2.922225 0.921328008 -1.22239399
v 2.97743392 0.966720998 -0.843683004
v 3.20182395 0.926959991 -0.545140028
v 3.15884399 0.906705022 -0.852450013
v 2.97743392 0.966720998 -0.843683004
v 3.01788998 0.986801982 -0.536828995
v 3.38133788 0.864450991 -0.55190599
v 3.22942591 0.935954988 -0.233815998
v 3.20182395 0.926959991 -0.545140028
v 3.01788998 0.986801982 -0.536828995
v 3.04440498 0.996445 -0.230461001
v 3.4153769 0.873880029 -0.236490995
v 3.38133788 0.864450991 -0.55190599
v 3.22942591 0.935954988 -0.233815998
v 3.04440498 0.996445 -0.230461001
v 3.4153769 0.873880029 -0.236490995
v 2.7902019 1.02610695 -0.832080007
v 2.75000405 0.979718983 -1.20226395
v 2.49370408 1.06248403 -1.17208695
v 2.52681899 1.10188901 -0.816865981
v 2.97743392 0.966720998 -0.843683004
v 2.826653 1.04596198 -0.526724994
v 2.7902019 1.02610695 -0.832080007
v 2.55868912 1.12770796 -0.516934991
v 3.01788998 0.986801982 -0.536828995
v 2.97743392 0.966720998 -0.843683004
v 2.85246301 1.05826104 -0.227590993
v 2.826653 1.04596198 -0.526724994
v 2.55868912 1.12770796 -0.516934991
v 2.5783 1.13931096 -0.224052995
v 3.04440498 0.996445 -0.230461001
v 3.01788998 0.986801982 -0.536828995
v 2.85246301 1.05826104 -0.227590993
v 2.5783 1.13931096 -0.224052995
v 3.04440498 0.996445 -0.230461001
v 3.33813691 0.845137 -0.863268018
v 3.51468897 0.783680022 -0.866843998
v 3.46089411 0.763508976 -1.04589498
v 3.57325602 0.796709001 -0.556959987
v 3.51468897 0.783680022 -0.866843998
v 3.38133788 0.864450991 -0.55190599
v 3.38133788 0.864450991 -0.55190599
v 3.4153769 0.873880029 -0.236490995
v 3.60874104 0.800400019 -0.241765007
v 3.57325602 0.796709001 -0.556959987
v 3.60874104 0.800400019 -0.241765007
v 3.4153769 0.873880029 -0.236490995
v 3.60688591 0.794717014 -0.241248995
v 3.41352201 0.868197978 -0.235974997
v 3.41352201 0.868197978 -0.235974997
v 3.37948298 0.858767986 -0.551389992
v 3.57140088 0.791027009 -0.556443989
v 3.60688591 0.794717014 -0.241248995
v 3.51283503 0.777997017 -0.866326988
v 3.57140088 0.791027009 -0.556443989
v 3.37948298 0.858767986 -0.551389992
v 3.33628201 0.839453995 -0.86275202
v 3.33628201 0.839453995 -0.86275202
v 3.28441691 0.78440702 -1.23611796
v 3.45903897 0.757825971 -1.04537797
v 3.51283503 0.777997017 -0.866326988
v 3.04255009 0.990763009 -0.229944006
v 2.85060811 1.05257797 -0.227073997
v 2.57644606 1.13362801 -0.223536998
v 3.01603508 0.98111999 -0.536312997
v 3.04255009 0.990763009 -0.229944006
v 2.85060811 1.05257797 -0.227073997
v 2.82479811 1.04027903 -0.526208997
v 2.57644606 1.13362801 -0.223536998
v 2.55683398 1.12202501 -0.51641798
v 2.97557998 0.961037993 -0.843165994
v 3.01603508 0.98111999 -0.536312997
v 2.82479811 1.04027903 -0.526208997
v 2.78834701 1.02042496 -0.831564009
v 2.55683398 1.12202501 -0.51641798
v 2.52496505 1.09620702 -0.816349983
v 2.92037106 0.915645003 -1.22187805
v 2.97557998 0.961037993 -0.843165994
v 2.78834701 1.02042496 -0.831564009
v 2.74814892 0.974035978 -1.20174801
v 2.52496505 1.09620702 -0.816349983
v 2.49184895 1.05680096 -1.17157102
v 3.41352201 0.868197978 -0.235974997
v 3.22757101 0.930271983 -0.2333
v 3.04255009 0.990763009 -0.229944006
v 3.37948298 0.858767986 -0.551389992
v 3.41352201 0.868197978 -0.235974997
v 3.22757101 0.930271983 -0.2333
v 3.19996905 0.921276987 -0.544623017
v 3.04255009 0.990763009 -0.229944006
v 3.01603508 0.98111999 -0.536312997
v 3.33628201 0.839453995 -0.86275202
v 3.37948298 0.858767986 -0.551389992
v 3.19996905 0.921276987 -0.544623017
v 3.1569891 0.901022971 -0.851933002
v 3.01603508 0.98111999 -0.536312997
v 2.97557998 0.961037993 -0.843165994
v 2.92037106 0.915645003 -1.22187805
v 3.0965879 0.854231 -1.23628795
v 3.1569891 0.901022971 -0.851933002
v 3.28441691 0.78440702 -1.23611796
v 2.182621 1.15150404 -1.14093006
v 2.20905805 1.18892395 -0.799471974
v 2.21859002 1.18631303 -0.799992979
v 2.1919539 1.14883399 -1.14186502
v 2.52681899 1.10188901 -0.816865981
v 2.55868912 1.12770796 -0.516934991
v 2.21859002 1.18631303 -0.799992979
v 2.2368989 1.20983505 -0.505284011
v 2.20905805 1.18892395 -0.799471974
v 2.22694707 1.21237504 -0.504923999
v 2.5783 1.13931096 -0.224052995
v 2.55868912 1.12770796 -0.516934991
v 2.2368989 1.20983505 -0.505284011
v 2.25084996 1.223786 -0.221590996
v 2.22694707 1.21237504 -0.504923999
v 2.24072194 1.22639799 -0.221515
v 2.5783 1.13931096 -0.224052995
v 2.25084996 1.223786 -0.221590996
v 2.24072194 1.22639799 -0.221515
v 2.57644606 1.13362801 -0.223536998
v 2.24899507 1.21810305 -0.221074998
v 2.238868 1.220716 -0.220999002
v 2.55683398 1.12202501 -0.51641798
v 2.57644606 1.13362801 -0.223536998
v 2.24899507 1.21810305 -0.221074998
v 2.235044 1.20415199 -0.504768014
v 2.238868 1.220716 -0.220999002
v 2.22509193 1.20669198 -0.504408002
v 2.52496505 1.09620702 -0.816349983
v 2.55683398 1.12202501 -0.51641798
v 2.235044 1.20415199 -0.504768014
v 2.21673608 1.18062997 -0.799476981
v 2.22509193 1.20669198 -0.504408002
v 2.20720291 1.18324101 -0.798955023
v 2.20720291 1.18324101 -0.798955023
v 2.18076611 1.14582205 -1.140414
v 2.190099 1.14315104 -1.141348
v 2.21673608 1.18062997 -0.799476981
v 2.49184895 1.05680096 -1.17157102
v 3.60630393 0.724032998 -1.03775704
v 3.47036791 0.740886986 -1.17824304
v 3.46392488 0.742609024 -1.180287
v 3.60121489 0.725413978 -1.03804195
v 3.28627205 0.790089011 -1.23663402
v 3.46089411 0.763508976 -1.04589498
v 3.51468897 0.783680022 -0.866843998
v 3.6946981 0.718007982 -0.85293901
v 3.701226 0.715626001 -0.852434993
v 3.77694201 0.709380984 -0.559325993
v 3.701226 0.715626001 -0.852434993
v 3.6946981 0.718007982 -0.85293901
v 3.76981306 0.712436974 -0.559243977
v 3.51468897 0.783680022 -0.866843998
v 3.57325602 0.796709001 -0.556959987
v 3.82402205 0.707756996 -0.242027
v 3.77694201 0.709380984 -0.559325993
v 3.76981306 0.712436974 -0.559243977
v 3.81648707 0.710999012 -0.242017999
v 3.57325602 0.796709001 -0.556959987
v 3.60874104 0.800400019 -0.241765007
v 3.60874104 0.800400019 -0.241765007
v 3.81648707 0.710999012 -0.242017999
v 3.82402205 0.707756996 -0.242027
v 3.60688591 0.794717014 -0.241248995
v 3.81463194 0.70531702 -0.241501004
v 3.82216692 0.702073991 -0.241511002
v 3.77508712 0.703697979 -0.558809996
v 3.82216692 0.702073991 -0.241511002
v 3.81463194 0.70531702 -0.241501004
v 3.76795793 0.706754982 -0.558727026
v 3.60688591 0.794717014 -0.241248995
v 3.57140088 0.791027009 -0.556443989
v 3.69937205 0.70994401 -0.851917982
v 3.77508712 0.703697979 -0.558809996
v 3.76795793 0.706754982 -0.558727026
v 3.69284296 0.71232599 -0.852423012
v 3.57140088 0.791027009 -0.556443989
v 3.51283503 0.777997017 -0.866326988
v 3.51283503 0.777997017 -0.866326988
v 3.45903897 0.757825971 -1.04537797
v 3.59935999 0.719731987 -1.03752601
v 3.69284296 0.71232599 -0.852423012
v 3.60444999 0.718349993 -1.03724098
v 3.69937205 0.70994401 -0.851917982
v 3.46851301 0.735203981 -1.17772698
v 3.60444999 0.718349993 -1.03724098
v 3.59935999 0.719731987 -1.03752601
v 3.46206999 0.736926019 -1.17976999
v 3.45903897 0.757825971 -1.04537797
v 3.28441691 0.78440702 -1.23611796
v 2.24072194 1.22639799 -0.221515
v 2.24043489 1.22551799 -0.221434996
v 2.22694707 1.21237504 -0.504923999
v 2.22665906 1.21149397 -0.50484401
v 2.24043489 1.22551799 -0.221434996
v 3.09844303 0.859912992 -1.23680401
v 3.28627205 0.790089011 -1.23663402
v 3.28598404 0.789207995 -1.23655403
v 3.09815502 0.859032989 -1.23672402
v 2.75000405 0.979718983 -1.20226395
v 2.922225 0.921328008 -1.22239399
v 2.92193794 0.920446992 -1.222314
v 2.749717 0.978838027 -1.20218396
v 2.49370408 1.06248403 -1.17208695
v 2.49341607 1.06160295 -1.17200696
v 3.47036791 0.740886986 -1.17824304
v 3.60601711 0.723151982 -1.03767705
v 3.47008109 0.74000603 -1.17816305
v 3.701226 0.715626001 -0.852434993
v 3.77665401 0.708500028 -0.559246004
v 3.70093894 0.714745998 -0.852355003
v 3.82373405 0.70687598 -0.241946995
v 3.701226 0.715626001 -0.852434993
v 3.70093894 0.714745998 -0.852355003
v 3.60601711 0.723151982 -1.03767705
v 3.77665401 0.708500028 -0.559246004
v 3.77694201 0.709380984 -0.559325993
v 2.20905805 1.18892395 -0.799471974
v 2.18233395 1.15062404 -1.14084995
v 2.20877004 1.188043 -0.799391985
v 2.922225 0.921328008 -1.22239399
v 3.09844303 0.859912992 -1.23680401
v 3.09815502 0.859032989 -1.23672402
v 2.92193794 0.920446992 -1.222314
v 2.20905805 1.18892395 -0.799471974
v 2.20877004 1.188043 -0.799391985
v 2.22665906 1.21149397 -0.50484401
v 2.49370408 1.06248403 -1.17208695
v 2.49341607 1.06160295 -1.17200696
v 2.19166589 1.14795303 -1.14178503
v 2.182621 1.15150404 -1.14093006
v 2.18233395 1.15062404 -1.14084995
v 3.46392488 0.742609024 -1.180287
v 3.47036791 0.740886986 -1.17824304
v 3.47008109 0.74000603 -1.17816305
v 3.46363711 0.741728008 -1.18020701
v 3.28627205 0.790089011 -1.23663402
v 3.28598404 0.789207995 -1.23655403
v 2.23926711 1.22194004 -0.221110001
v 2.238868 1.220716 -0.220999002
v 2.22549105 1.20791698 -0.504518986
v 2.23926711 1.22194004 -0.221110001
v 2.22509193 1.20669198 -0.504408002
v 3.28481603 0.785631001 -1.23622894
v 3.09698701 0.855454981 -1.23639905
v 3.28441691 0.78440702 -1.23611796
v 3.0965879 0.854231 -1.23628795
v 2.92076993 0.916869998 -1.22198904
v 2.74854898 0.975260019 -1.201859
v 2.92037106 0.915645003 -1.22187805
v 2.74814892 0.974035978 -1.20174801
v 2.49224806 1.05802596 -1.171682
v 2.49184895 1.05680096 -1.17157102
v 3.6048491 0.719573975 -1.03735197
v 3.46891308 0.736428976 -1.17783797
v 3.46851301 0.735203981 -1.17772698
v 3.77548599 0.704922974 -0.558920979
v 3.69977093 0.711167991 -0.852029979
v 3.69937205 0.70994401 -0.851917982
v 3.82256603 0.703298986 -0.241622001
v 3.69977093 0.711167991 -0.852029979
v 3.6048491 0.719573975 -1.03735197
v 3.69937205 0.70994401 -0.851917982
v 3.82256603 0.703298986 -0.241622001
v 3.77548599 0.704922974 -0.558920979
v 3.77508712 0.703697979 -0.558809996
v 2.18116593 1.14704597 -1.14052498
v 2.20760202 1.184466 -0.79906702
v 2.20720291 1.18324101 -0.798955023
v 3.09698701 0.855454981 -1.23639905
v 2.92076993 0.916869998 -1.22198904
v 3.0965879 0.854231 -1.23628795
v 2.92037106 0.915645003 -1.22187805
v 2.20760202 1.184466 -0.79906702
v 2.22549105 1.20791698 -0.504518986
v 2.49224806 1.05802596 -1.171682
v 2.19049811 1.14437497 -1.14145994
v 2.49184895 1.05680096 -1.17157102
v 2.18116593 1.14704597 -1.14052498
v 2.18076611 1.14582205 -1.140414
v 3.46891308 0.736428976 -1.17783797
v 3.4624691 0.738151014 -1.17988205
v 3.46851301 0.735203981 -1.17772698
v 3.46206999 0.736926019 -1.17976999
v 3.28481603 0.785631001 -1.23622894
v 3.28441691 0.78440702 -1.23611796
vt 0.5 0.5
vt 0.5 1
vt 0 1
vt -0 0.5
vt 0.5 -0
vt 0 0
vt 0.5 -0
vt 1 0
vt 1 1
vt 0.5 1
vt 0 0
vt 0.5 0
vt 1 0
vt 1 1
vt 0.5 1
vt 0 0
vt 0 1
vt 0.5 0
vt 1 0
vt 1 1
vt 0.5 1
vt 0 0
vt 0 1
vt 1 0.5
vt 1 1
vt 0.5 1
vt 0.5 0.5
vt 1 0
vt 0.5 -0
vt 1 0
vt 0.5 1
vt 0 0
vt 0 1
vt 0.5 0
vt 1 0
vt 1 1
vt 0.5 1
vt 0 0
vt 0 1
vt 0.5 0
vt 1 0
vt 1 1
vt 0.5 1
vt 0 0
vt 0 1
vt 0.896000028 0.355300009
vt 1 0.5
vt 1 1
vt 0.5 -0
vt 1 0
vt 0.5 1
vt 1 1
vt 0.5 1
vt 0.5 0
vt 1 0
vt 0.5 0
vt 1 0
vt 1 1
vt 0.5 1
vt 0.5 0
vt 1 0
vt 1 1
vt 0.5 1
vt 1 1
vt 0.5 1
vt 0.5 0
vt 1 0
vt 0.5 -0
vt 1 0
vt 1 1
vt 0.5 1
vt 0.5 1
vt 0.896000028 0.355300009
vt 1 0.5
vt 1 1
vt 0 0
vt 0.5 0
vt 0.5 1
vt 0 1
vt 1 0
vt 1 1
vt 0 0
vt 0.5 0
vt 0.5 1
vt 0 1
vt 1 0
vt 1 1
vt 0 0
vt 0.5 -0
vt 0.5 1
vt 0 1
vt 1 0
vt 1 1
vt 1 0
vt 1 0.5
vt 0.5 0.5
vt 0.5 0
vt 1 1
vt 0.5 1
vt 0 0
vt 0.5 0
vt 0.5 1
vt 0 1
vt 1 0
vt 1 1
vt 0 0
vt 0.5 0
vt 0.5 1
vt 0 1
vt 1 0
vt 1 1
vt 0 0
vt 0.5 -0
vt 0.5 1
vt 0 1
vt 1 0
vt 1 1
vt 0.5 0.5
vt -0 0.5
vt 0 0
vt 0 1
vt 0.5 0.75
vt 0.5 0.875
vt -0 0.875
vt -0 0.75
vt 0 1
vt 0 0
vt 0.125 0
vt 0.125 1
vt 0.25 0
vt 0.25 1
vt 0 0
vt 0.125 -0
vt 0.125 1
vt 0 1
vt 0.25 0
vt 0.25 1
vt 0 0
vt 0.125 0
vt 0.125 1
vt 0 1
vt 0.25 0
vt 0.25 1
vt 0 0
vt 0.125 0
vt 0.125 1
vt 0 1
vt 0.25 0
vt 0.25 1
vt 0 0
vt 0.125 0
vt 0.125 1
vt 0 1
vt 0.25 0
vt 0.25 1
vt 0 0
vt 0.125 -0
vt 0.125 1
vt 0 1
vt 0.25 0
vt 0.25 1
vt 0.5 0.75
vt 0.5 0.875
vt -0 0.875
vt -0 0.75
vt 0 1
vt 0.698000014 0.177599996
vt 0.747500002 0.222000003
vt 0.3125 0.625
vt 0.25 0.5
vt 0.796999991 0.266499996
vt 0.375 0.75
vt 1 0.3125
vt 1 0.375
vt 1 0.25
vt 0.25 -0
vt 0.3125 -0
vt 0.3125 1
vt 0.25 1
vt 0.375 0
vt 0.375 1
vt 0.25 -0
vt 0.3125 -0
vt 0.3125 1
vt 0.25 1
vt 0.375 -0
vt 0.375 1
vt 0.375 1
vt 0.3125 1
vt 0.3125 0
vt 0.375 0
vt 0.25 1
vt 0.25 0
vt 0.375 1
vt 0.3125 1
vt 0.3125 0
vt 0.375 0
vt 0.25 1
vt 0.25 0
vt 0.25 -0
vt 0.3125 -0
vt 0.3125 1
vt 0.25 1
vt 0.375 -0
vt 0.375 1
vt 0.25 -0
vt 0.3125 0
vt 0.3125 1
vt 0.25 1
vt 0.375 0
vt 0.375 1
vt 0.796999991 0.266499996
vt 0.747500002 0.222000003
vt 1 0.3125
vt 1 0.375
vt 0.698000014 0.177599996
vt 1 0.25
vt 0.698000014 0.177599996
vt 0.747500002 0.222000003
vt 0.3125 0.625
vt 0.25 0.5
vt 0.796999991 0.266499996
vt 0.375 0.75
vt 0.25 0.5
vt 0 0.5
vt 0 0
vt 0.25 0.5
vt 0 0.5
vt 0 0
vt 0.5 1
vt 0.25 1
vt 0.25 0.5
vt 0.5 0.5
vt 1 0.5
vt 0.75 0.5
vt 0.75 0
vt 1 0
vt 1 1
vt 0.75 1
vt 0.796999991 0.266499996
vt 0.586000025 0.50819999
vt 0.474000007 0.338800013
vt 0.375 0
vt 0.375 0.5
vt 0.25 0.5
vt 0.25 0.5
vt 0.375 0.5
vt 0.375 1
vt 0.848999977 0.213799998
vt 0.898500025 0.32069999
vt 0.796999991 0.266499996
vt 0.375 -0
vt 0.375 0.5
vt 0.5 1
vt 0.25 1
vt 0.25 0.75
vt 0.5 0.5
vt 0.25 0.5
vt 0.25 -0
vt 0.5 -0
vt 0.25 0.5
vt -0 0.5
vt 0 0
vt 0.25 0.875
vt 0.25 0.75
vt 0.5 0.75
vt 0.5 1
vt 0.25 1
vt 0.747500002 0.222000003
vt 0.529999971 0.423500001
vt 0.474000007 0.338800013
vt 0.698000014 0.177599996
vt 0.796999991 0.266499996
vt 0.586000025 0.50819999
vt 0.25 0.75
vt 0 0.75
vt 0 1
vt 0.25 0.75
vt 0 0.75
vt 0 1
vt 0.125 1
vt 0.125 0.5
vt 0 1
vt -0 0.5
vt 0.625 0.5
vt 0.625 0
vt 0.5 0.5
vt 0.5 0
vt 0.625 1
vt 0.5 1
vt 0.480500013 0.629100025
vt 0.361999989 0.419400007
vt 0.375 0.75
vt 0.375 0.75
vt 0.25 0.75
vt 0.375 1
vt 0.25 0.25
vt 0.375 0.25
vt 0.375 0
vt 0.924499989 0.231900007
vt 0.949299991 0.347900003
vt 1 0.375
vt 0.375 0.75
vt 0.25 0.75
vt 0.375 1
vt 0.125 1
vt 0.125 0.75
vt 0 1
vt 0.125 0.5
vt 0.125 -0
vt -0 0.5
vt 0 0
vt 0.25 0.75
vt 0 0.75
vt 0.125 0.875
vt 0.125 0.75
vt -0 0.75
vt 0.125 1
vt 0 1
vt 0.421200007 0.524299979
vt 0.361999989 0.419400007
vt 0.3125 0.625
vt 0.25 0.5
vt 0.480500013 0.629100025
vt 0.375 0.75
vt 0.5 0.5
vt -0 0.5
vt 0 1
vt 0.5 1
vt 0.5 -0
vt 0 0
vt 0.5 -0
vt 0.5 1
vt 1 1
vt 1 0
vt 0 0
vt 0.5 0
vt 0.5 1
vt 1 1
vt 1 0
vt 0 0
vt 0 1
vt 0.5 1
vt 1 1
vt 0 1
vt 1 0.5
vt 0.5 0.5
vt 0.5 1
vt 1 1
vt 1 0
vt 0.5 -0
vt 0.5 1
vt 1 0
vt 0 0
vt 0 1
vt 0.5 0
vt 0.5 1
vt 1 1
vt 1 0
vt 0 0
vt 0 1
vt 0.5 1
vt 1 1
vt 0 1
vt 1 1
vt 1 0.5
vt 0.896000028 0.355300009
vt 0.5 -0
vt 0.5 1
vt 1 0
vt 1 1
vt 1 0
vt 0.5 0
vt 0.5 1
vt 0.5 1
vt 1 1
vt 0.5 0
vt 1 0
vt 1 1
vt 1 0
vt 0.5 0
vt 0.5 1
vt 0.5 -0
vt 0.5 1
vt 1 1
vt 1 0
vt 0.5 1
vt 1 1
vt 1 0.5
vt 0.896000028 0.355300009
vt 0 0
vt 0.5 0
vt 1 0
vt 0 0
vt 0 1
vt 0.5 1
vt 0.5 0
vt 1 1
vt 1 0
vt 0 0
vt 0 1
vt 0.5 1
vt 0.5 -0
vt 1 1
vt 1 0
vt 1 0
vt 0.5 0
vt 0.5 0.5
vt 1 0.5
vt 0.5 1
vt 1 1
vt 0 0
vt 0.5 0
vt 1 0
vt 0 0
vt 0 1
vt 0.5 1
vt 0.5 0
vt 1 1
vt 1 0
vt 0 0
vt 0 1
vt 0.5 1
vt 0.5 -0
vt 1 1
vt 1 0
vt 0 0
vt -0 0.5
vt 0.5 0.5
vt 0 1
vt 0.5 0.75
vt -0 0.75
vt -0 0.875
vt 0.5 0.875
vt 0 1
vt 0 0
vt 0.125 1
vt 0.125 0
vt 0.25 1
vt 0.25 0
vt 0 0
vt 0 1
vt 0.125 1
vt 0.125 -0
vt 0.25 1
vt 0.25 0
vt 0 1
vt 0.125 1
vt 0.25 1
vt 0 0
vt 0.125 0
vt 0.25 0
vt 0 0
vt 0 1
vt 0.125 1
vt 0.125 0
vt 0.25 1
vt 0.25 0
vt 0 0
vt 0 1
vt 0.125 1
vt 0.125 -0
vt 0.25 1
vt 0.25 0
vt 0.5 0.75
vt -0 0.75
vt -0 0.875
vt 0.5 0.875
vt 0 1
vt 0.698000014 0.177599996
vt 0.25 0.5
vt 0.3125 0.625
vt 0.747500002 0.222000003
vt 0.375 0.75
vt 0.796999991 0.266499996
vt 1 0.375
vt 1 0.3125
vt 1 0.25
vt 0.25 -0
vt 0.25 1
vt 0.3125 1
vt 0.3125 -0
vt 0.375 1
vt 0.375 0
vt 0.25 -0
vt 0.25 1
vt 0.3125 1
vt 0.3125 -0
vt 0.375 1
vt 0.375 -0
vt 0.375 1
vt 0.3125 1
vt 0.25 1
vt 0.375 0
vt 0.3125 0
vt 0.25 0
vt 0.25 -0
vt 0.25 1
vt 0.3125 1
vt 0.3125 -0
vt 0.375 1
vt 0.375 -0
vt 0.25 -0
vt 0.25 1
vt 0.3125 1
vt 0.3125 0
vt 0.375 1
vt 0.375 0
vt 0.796999991 0.266499996
vt 1 0.375
vt 1 0.3125
vt 0.747500002 0.222000003
vt 1 0.25
vt 0.698000014 0.177599996
vt 0.698000014 0.177599996
vt 0.25 0.5
vt 0.3125 0.625
vt 0.747500002 0.222000003
vt 0.375 0.75
vt 0.796999991 0.266499996
vt 0 0
vt 0 0.5
vt 0 0
vt 0 0.5
vt 0.25 0.5
vt 0.5 1
vt 0.5 0.5
vt 0.25 0.5
vt 0.25 1
vt 1 0.5
vt 1 0
vt 0.75 0
vt 0.75 0.5
vt 1 1
vt 0.75 1
vt 0.796999991 0.266499996
vt 0.474000007 0.338800013
vt 0.586000025 0.50819999
vt 0.375 0
vt 0.25 0.5
vt 0.375 0.5
vt 0.25 0.5
vt 0.796999991 0.266499996
vt 0.898500025 0.32069999
vt 0.848999977 0.213799998
vt 0.375 0.5
vt 0.375 -0
vt 0.5 1
vt 0.25 0.75
vt 0.25 1
vt 0.5 0.5
vt 0.5 -0
vt 0.25 -0
vt 0.25 0.5
vt 0 0
vt -0 0.5
vt 0.25 0.5
vt 0.5 0.75
vt 0.25 0.75
vt 0.25 0.875
vt 0.5 1
vt 0.25 1
vt 0.747500002 0.222000003
vt 0.698000014 0.177599996
vt 0.474000007 0.338800013
vt 0.529999971 0.423500001
vt 0.796999991 0.266499996
vt 0.586000025 0.50819999
vt 0 0.75
vt 0 1
vt 0 0.75
vt 0.25 0.75
vt 0 1
vt 0.125 0.5
vt 0.125 1
vt -0 0.5
vt 0 1
vt 0.625 0
vt 0.625 0.5
vt 0.5 0
vt 0.5 0.5
vt 0.625 1
vt 0.5 1
vt 0.361999989 0.419400007
vt 0.480500013 0.629100025
vt 0.375 0.75
vt 0.25 0.75
vt 0.375 0.75
vt 0.375 1
vt 0.25 0.25
vt 0.949299991 0.347900003
vt 0.924499989 0.231900007
vt 1 0.375
vt 0.25 0.75
vt 0.375 0.75
vt 0.375 1
vt 0.125 0.75
vt 0.125 1
vt 0 1
vt 0.125 -0
vt 0.125 0.5
vt 0 0
vt -0 0.5
vt 0 0.75
vt 0.25 0.75
vt 0.125 0.75
vt 0.125 0.875
vt -0 0.75
vt 0.125 1
vt 0 1
vt 0.361999989 0.419400007
vt 0.421200007 0.524299979
vt 0.25 0.5
vt 0.3125 0.625
vt 0.480500013 0.629100025
vt 0.375 0.75
vn 0.169200003 0.583299994 0.794399977
vn 0.286599994 0.504700005 0.814300001
vn 0.327100009 0.934000015 0.143199995
vn 0.315600008 0.939100027 0.135499999
vn 0.125599995 0.604799986 0.78640002
vn 0.300500005 0.944999993 0.129099995
vn 0.313899994 0.94599998 0.0808999985
vn 0.301299989 0.950200021 0.0797000006
vn 0.300500005 0.944999993 0.129099995
vn 0.315600008 0.939100027 0.135499999
vn 0.327499986 0.941299975 0.0811000019
vn 0.314799994 0.948400021 0.0384999998
vn 0.305900007 0.951200008 0.0392000005
vn 0.301299989 0.950200021 0.0797000006
vn 0.313899994 0.94599998 0.0808999985
vn 0.334199995 0.941699982 0.0381000005
vn 0.327499986 0.941299975 0.0811000019
vn 0.315100014 0.949000001 0
vn 0.308499992 0.951200008 0
vn 0.305900007 0.951200008 0.0392000005
vn 0.314799994 0.948400021 0.0384999998
vn 0.337000012 0.941500008 0
vn 0.334199995 0.941699982 0.0381000005
vn 0.285899997 0.950200021 0.123999998
vn 0.266000003 0.956700027 0.118199997
vn 0.1021 0.628899992 0.770699978
vn 0.107100002 0.618499994 0.778400004
vn 0.300500005 0.944999993 0.129099995
vn 0.288899988 0.95389998 0.0806000009
vn 0.265399992 0.960799992 0.0806000009
vn 0.285899997 0.950200021 0.123999998
vn 0.301299989 0.950200021 0.0797000006
vn 0.300500005 0.944999993 0.129099995
vn 0.293099999 0.955200016 0.0395999998
vn 0.265899986 0.96329999 0.0366999991
vn 0.265399992 0.960799992 0.0806000009
vn 0.288899988 0.95389998 0.0806000009
vn 0.305900007 0.951200008 0.0392000005
vn 0.301299989 0.950200021 0.0797000006
vn 0.294200003 0.95569998 0
vn 0.265199989 0.96420002 0
vn 0.265899986 0.96329999 0.0366999991
vn 0.293099999 0.955200016 0.0395999998
vn 0.308499992 0.951200008 0
vn 0.305900007 0.951200008 0.0392000005
vn 0.310600013 0.93599999 0.165299997
vn 0.333999991 0.932600021 0.136500001
vn 0.327100009 0.934000015 0.143199995
vn 0.358900011 0.930199981 0.0768000036
vn 0.327499986 0.941299975 0.0811000019
vn 0.333999991 0.932600021 0.136500001
vn 0.327499986 0.941299975 0.0811000019
vn 0.358900011 0.930199981 0.0768000036
vn 0.370299995 0.92809999 0.0392999984
vn 0.334199995 0.941699982 0.0381000005
vn 0.372000009 0.928200006 0
vn 0.337000012 0.941500008 0
vn 0.334199995 0.941699982 0.0381000005
vn 0.370299995 0.92809999 0.0392999984
vn -0.370299995 -0.92809999 -0.0392999984
vn -0.334199995 -0.941699982 -0.0381000005
vn -0.337000012 -0.941500008 0
vn -0.372000009 -0.928200006 0
vn -0.334199995 -0.941699982 -0.0381000005
vn -0.370299995 -0.92809999 -0.0392999984
vn -0.358900011 -0.930199981 -0.0768000036
vn -0.327499986 -0.941299975 -0.0811000019
vn -0.333999991 -0.932600021 -0.136500001
vn -0.327100009 -0.934000015 -0.143199995
vn -0.327499986 -0.941299975 -0.0811000019
vn -0.358900011 -0.930199981 -0.0768000036
vn -0.327100009 -0.934000015 -0.143199995
vn -0.333999991 -0.932600021 -0.136500001
vn -0.310600013 -0.93599999 -0.165299997
vn -0.140100002 -0.762099981 0.632099986
vn -0.305900007 -0.951200008 -0.0392000005
vn -0.293099999 -0.955200016 -0.0397000015
vn -0.294200003 -0.95569998 0
vn -0.308499992 -0.951200008 0
vn -0.265899986 -0.96329999 -0.0366999991
vn -0.265199989 -0.96420002 0
vn -0.301299989 -0.950200021 -0.0797000006
vn -0.288899988 -0.95389998 -0.0806000009
vn -0.293099999 -0.955200016 -0.0397000015
vn -0.305900007 -0.951200008 -0.0392000005
vn -0.265399992 -0.960799992 -0.0806000009
vn -0.265899986 -0.96329999 -0.0366999991
vn -0.300500005 -0.944999993 -0.129099995
vn -0.285899997 -0.950200021 -0.123999998
vn -0.288899988 -0.95389998 -0.0806000009
vn -0.301299989 -0.950200021 -0.0797000006
vn -0.266000003 -0.956700027 -0.118199997
vn -0.265399992 -0.960799992 -0.0806000009
vn -0.305799991 -0.723800004 0.618499994
vn -0.305599988 -0.7245 0.617799997
vn -0.285899997 -0.950200021 -0.123999998
vn -0.300500005 -0.944999993 -0.129099995
vn -0.284000009 -0.727999985 0.624000013
vn -0.266000003 -0.956700027 -0.118199997
vn -0.334199995 -0.941699982 -0.0381000005
vn -0.314799994 -0.948400021 -0.0384999998
vn -0.315100014 -0.949000001 0
vn -0.337000012 -0.941500008 0
vn -0.305900007 -0.951200008 -0.0392000005
vn -0.308499992 -0.951200008 0
vn -0.327499986 -0.941299975 -0.0811000019
vn -0.313899994 -0.94599998 -0.0808999985
vn -0.314799994 -0.948400021 -0.0384999998
vn -0.334199995 -0.941699982 -0.0381000005
vn -0.301299989 -0.950200021 -0.0797000006
vn -0.305900007 -0.951200008 -0.0392000005
vn -0.327100009 -0.934000015 -0.143199995
vn -0.315600008 -0.939100027 -0.135499999
vn -0.313899994 -0.94599998 -0.0808999985
vn -0.327499986 -0.941299975 -0.0811000019
vn -0.300500005 -0.944999993 -0.129099995
vn -0.301299989 -0.950200021 -0.0797000006
vn -0.315600008 -0.939100027 -0.135499999
vn -0.278600007 -0.729300022 0.624800026
vn -0.305799991 -0.723800004 0.618499994
vn -0.140100002 -0.762099981 0.632099986
vn -0.441500008 0.672599971 0.593900025
vn 0.0995000005 0.625899971 0.773500025
vn 0.254299998 0.960600019 0.111500002
vn -0.472600013 0.879800022 0.0505999997
vn 0.266000003 0.956700027 0.118199997
vn 0.265399992 0.960799992 0.0806000009
vn 0.248600006 0.965499997 0.0776000023
vn 0.254299998 0.960600019 0.111500002
vn -0.475600004 0.879100025 0.0307999998
vn -0.472600013 0.879800022 0.0505999997
vn 0.265899986 0.96329999 0.0366999991
vn 0.247500002 0.968299985 0.0344000012
vn 0.248600006 0.965499997 0.0776000023
vn 0.265399992 0.960799992 0.0806000009
vn -0.470999986 0.882000029 0.0102000004
vn -0.475600004 0.879100025 0.0307999998
vn 0.265199989 0.96420002 0
vn 0.247899994 0.968699992 0
vn 0.247500002 0.968299985 0.0344000012
vn 0.265899986 0.96329999 0.0366999991
vn -0.476300001 0.879199982 0
vn -0.470999986 0.882000029 0.0102000004
vn -0.265899986 -0.96329999 -0.0366999991
vn -0.247500002 -0.968299985 -0.0344000012
vn -0.247899994 -0.968699992 0
vn -0.265199989 -0.96420002 0
vn -0.878400028 -0.476200014 -0.0395999998
vn -0.87650001 -0.4815 0
vn -0.265399992 -0.960799992 -0.0806000009
vn -0.248600006 -0.965499997 -0.0776000023
vn -0.247500002 -0.968299985 -0.0344000012
vn -0.265899986 -0.96329999 -0.0366999991
vn -0.877600014 -0.472799987 -0.0785999969
vn -0.878400028 -0.476200014 -0.0395999998
vn -0.266000003 -0.956700027 -0.118199997
vn -0.254299998 -0.960600019 -0.111500002
vn -0.248600006 -0.965499997 -0.0776000023
vn -0.265399992 -0.960799992 -0.0806000009
vn -0.877699971 -0.467599988 -0.104900002
vn -0.877600014 -0.472799987 -0.0785999969
vn -0.877699971 -0.467599988 -0.104900002
vn -0.254299998 -0.960600019 -0.111500002
vn -0.269800007 -0.731299996 0.626399994
vn -0.76849997 -0.434100002 0.470099986
vn -0.284000009 -0.727999985 0.624000013
vn 0.760999978 0.415499985 0.498199999
vn 0.300099999 0.941699982 0.152199998
vn 0.373199999 0.53670001 0.756699979
vn 0.541899979 0.421900004 0.726800025
vn 0.310600013 0.93599999 0.165299997
vn 0.286599994 0.504700005 0.814300001
vn 0.342400014 0.933099985 0.109800003
vn 0.333999991 0.932600021 0.136500001
vn 0.862100005 0.402999997 0.307000011
vn 0.899699986 0.399100006 0.176799998
vn 0.382400006 0.921400011 0.0689999983
vn 0.342400014 0.933099985 0.109800003
vn 0.862100005 0.402999997 0.307000011
vn 0.358900011 0.930199981 0.0768000036
vn 0.333999991 0.932600021 0.136500001
vn 0.909799993 0.402399987 0.101800002
vn 0.391299993 0.91930002 0.0423000008
vn 0.382400006 0.921400011 0.0689999983
vn 0.899699986 0.399100006 0.176799998
vn 0.370299995 0.92809999 0.0392999984
vn 0.358900011 0.930199981 0.0768000036
vn 0.370299995 0.92809999 0.0392999984
vn 0.391299993 0.91930002 0.0423000008
vn 0.388900012 0.921299994 0
vn 0.372000009 0.928200006 0
vn 0.909799993 0.402399987 0.101800002
vn 0.914799988 0.403899997 0
vn -0.372000009 -0.928200006 0
vn -0.388900012 -0.921299994 0
vn -0.391299993 -0.91930002 -0.0423000008
vn -0.370299995 -0.92809999 -0.0392999984
vn 0.442799985 -0.896600008 0
vn 0.42050001 -0.906099975 0.0461000018
vn 0.417899996 -0.903299987 0.0970000029
vn -0.382400006 -0.921400011 -0.0689999983
vn -0.391299993 -0.91930002 -0.0423000008
vn 0.42050001 -0.906099975 0.0461000018
vn -0.358900011 -0.930199981 -0.0768000036
vn -0.370299995 -0.92809999 -0.0392999984
vn 0.420100003 -0.885999978 0.196099997
vn -0.342400014 -0.933099985 -0.109800003
vn -0.382400006 -0.921400011 -0.0689999983
vn 0.417899996 -0.903299987 0.0970000029
vn -0.333999991 -0.932600021 -0.136500001
vn -0.358900011 -0.930199981 -0.0768000036
vn -0.333999991 -0.932600021 -0.136500001
vn -0.342400014 -0.933099985 -0.109800003
vn -0.300099999 -0.941699982 -0.152199998
vn -0.310600013 -0.93599999 -0.165299997
vn 0.420100003 -0.885999978 0.196099997
vn 0.364499986 -0.865800023 0.342700005
vn 0.171299994 -0.819800019 0.546400011
vn -0.0201999992 -0.810699999 0.585099995
vn -0.300099999 -0.941699982 -0.152199998
vn 0.364499986 -0.865800023 0.342700005
vn -0.140100002 -0.762099981 0.632099986
vn -0.310600013 -0.93599999 -0.165299997
vn -0.950500011 0.310600013 0
vn -0.949899971 0.311699986 -0.0198999997
vn -0.470999986 0.882000029 0.0102000004
vn -0.949899971 0.311699986 -0.0198999997
vn -0.949299991 0.312700003 -0.0317000002
vn -0.475600004 0.879100025 0.0307999998
vn 0.169200003 0.583299994 0.794399977
vn -0.065200001 -0.0691 0.995500028
vn 0.1149 -0.127000004 0.985199988
vn 0.286599994 0.504700005 0.814300001
vn 0.107100002 0.618499994 0.778400004
vn -0.131699994 -0.0469000004 0.990199983
vn -0.116400003 -0.052099999 0.99180001
vn 0.125599995 0.604799986 0.78640002
vn 0.1021 0.628899992 0.770699978
vn -0.123099998 -0.0498000011 0.991100013
vn 0.541899979 0.421900004 0.726800025
vn 0.480100006 -0.233500004 0.845600009
vn 0.764100015 -0.301200002 0.570500016
vn 0.862100005 0.402999997 0.307000011
vn 0.882300019 -0.319400012 0.345699996
vn 0.927600026 -0.320300013 0.192200005
vn 0.943000019 -0.315699995 0.104800001
vn 0.949699998 -0.31310001 0
vn 0.914799988 0.403899997 0
vn 0.764100015 -0.301200002 0.570500016
vn 0.882300019 -0.319400012 0.345699996
vn 0.862100005 0.402999997 0.307000011
vn 0.899699986 0.399100006 0.176799998
vn 0.927600026 -0.320300013 0.192200005
vn -0.472600013 0.879800022 0.0505999997
vn -0.949000001 0.312999994 -0.0359000005
vn -0.732599974 0.179399997 0.656499982
vn 0.125599995 0.604799986 0.78640002
vn -0.116400003 -0.052099999 0.99180001
vn -0.065200001 -0.0691 0.995500028
vn 0.169200003 0.583299994 0.794399977
vn -0.949299991 0.312700003 -0.0317000002
vn -0.949000001 0.312999994 -0.0359000005
vn -0.472600013 0.879800022 0.0505999997
vn -0.114399999 -0.0527000017 0.991999984
vn -0.123099998 -0.0498000011 0.991100013
vn 0.1021 0.628899992 0.770699978
vn -0.441500008 0.672599971 0.593900025
vn -0.732599974 0.179399997 0.656499982
vn 0.373199999 0.53670001 0.756699979
vn 0.256300002 -0.170100003 0.951499999
vn 0.480100006 -0.233500004 0.845600009
vn 0.541899979 0.421900004 0.726800025
vn 0.286599994 0.504700005 0.814300001
vn 0.1149 -0.127000004 0.985199988
vn -0.950500011 0.310600013 0
vn -0.949999988 0.311699986 -0.0198999997
vn -0.878400028 -0.476200014 -0.0395999998
vn -0.949999988 0.311699986 -0.0198999997
vn -0.949299991 0.312700003 -0.0317000002
vn -0.877600014 -0.472799987 -0.0785999969
vn -0.065200001 -0.0691 0.995500028
vn 0.1149 -0.127000004 0.985199988
vn -0.278600007 -0.729300022 0.624800026
vn -0.140100002 -0.762099981 0.632099986
vn -0.131699994 -0.0469999984 0.990199983
vn -0.116400003 -0.052099999 0.99180001
vn -0.305599988 -0.7245 0.617799997
vn -0.305799991 -0.723800004 0.618499994
vn -0.123099998 -0.0498000011 0.991100013
vn -0.284000009 -0.727999985 0.624000013
vn 0.479999989 -0.233500004 0.845600009
vn 0.764100015 -0.301200002 0.570500016
vn 0.171299994 -0.819800019 0.546400011
vn 0.882300019 -0.319400012 0.345699996
vn 0.927600026 -0.320300013 0.192200005
vn 0.420100003 -0.885999978 0.196099997
vn 0.943000019 -0.315800011 0.104900002
vn 0.949699998 -0.313199997 0
vn 0.442799985 -0.896600008 0
vn 0.764100015 -0.301200002 0.570500016
vn 0.882300019 -0.319400012 0.345699996
vn 0.420100003 -0.885999978 0.196099997
vn 0.927600026 -0.320300013 0.192200005
vn 0.943000019 -0.315800011 0.104900002
vn 0.417899996 -0.903299987 0.0970000029
vn -0.949100018 0.312999994 -0.0359000005
vn -0.732599974 0.179399997 0.656499982
vn -0.877699971 -0.467599988 -0.104900002
vn -0.116400003 -0.052099999 0.99180001
vn -0.065200001 -0.0691 0.995500028
vn -0.305799991 -0.723800004 0.618499994
vn -0.278600007 -0.729300022 0.624800026
vn -0.949299991 0.312700003 -0.0317000002
vn -0.949100018 0.312999994 -0.0359000005
vn -0.114399999 -0.0527999997 0.991999984
vn -0.123099998 -0.0498000011 0.991100013
vn -0.284000009 -0.727999985 0.624000013
vn -0.732599974 0.179399997 0.656499982
vn -0.76849997 -0.434100002 0.470099986
vn 0.256300002 -0.170100003 0.951499999
vn 0.479999989 -0.233500004 0.845600009
vn -0.0201999992 -0.810699999 0.585099995
vn 0.171299994 -0.819800019 0.546400011
vn 0.1149 -0.127000004 0.985199988
vn -0.140100002 -0.762099981 0.632099986
vn 0.169200003 0.583299994 -0.794399977
vn 0.315600008 0.939100027 -0.135499999
vn 0.327100009 0.934000015 -0.143199995
vn 0.286599994 0.504700005 -0.814300001
vn 0.125599995 0.604799986 -0.78640002
vn 0.300500005 0.944999993 -0.129099995
vn 0.313899994 0.94599998 -0.0808999985
vn 0.315600008 0.939100027 -0.135499999
vn 0.300500005 0.944999993 -0.129099995
vn 0.301299989 0.950200021 -0.0797000006
vn 0.327499986 0.941299975 -0.0811000019
vn 0.314799994 0.948400021 -0.0384999998
vn 0.313899994 0.94599998 -0.0808999985
vn 0.301299989 0.950200021 -0.0797000006
vn 0.305900007 0.951200008 -0.0392000005
vn 0.334199995 0.941699982 -0.0381000005
vn 0.327499986 0.941299975 -0.0811000019
vn 0.314799994 0.948400021 -0.0384999998
vn 0.305900007 0.951200008 -0.0392000005
vn 0.334199995 0.941699982 -0.0381000005
vn 0.285899997 0.950200021 -0.123999998
vn 0.107100002 0.618499994 -0.778400004
vn 0.1021 0.628899992 -0.770699978
vn 0.266000003 0.956700027 -0.118199997
vn 0.300500005 0.944999993 -0.129099995
vn 0.288899988 0.95389998 -0.0806000009
vn 0.285899997 0.950200021 -0.123999998
vn 0.265399992 0.960799992 -0.0806000009
vn 0.301299989 0.950200021 -0.0797000006
vn 0.300500005 0.944999993 -0.129099995
vn 0.293099999 0.955200016 -0.0395999998
vn 0.288899988 0.95389998 -0.0806000009
vn 0.265399992 0.960799992 -0.0806000009
vn 0.265899986 0.96329999 -0.0366999991
vn 0.305900007 0.951200008 -0.0392000005
vn 0.301299989 0.950200021 -0.0797000006
vn 0.293099999 0.955200016 -0.0395999998
vn 0.265899986 0.96329999 -0.0366999991
vn 0.305900007 0.951200008 -0.0392000005
vn 0.327100009 0.934000015 -0.143199995
vn 0.333999991 0.932600021 -0.136500001
vn 0.310600013 0.93599999 -0.165299997
vn 0.358900011 0.930199981 -0.0768000036
vn 0.333999991 0.932600021 -0.136500001
vn 0.327499986 0.941299975 -0.0811000019
vn 0.327499986 0.941299975 -0.0811000019
vn 0.334199995 0.941699982 -0.0381000005
vn 0.370299995 0.92809999 -0.0392999984
vn 0.358900011 0.930199981 -0.0768000036
vn 0.370299995 0.92809999 -0.0392999984
vn 0.334199995 0.941699982 -0.0381000005
vn -0.370299995 -0.92809999 0.0392999984
vn -0.334199995 -0.941699982 0.0381000005
vn -0.334199995 -0.941699982 0.0381000005
vn -0.327499986 -0.941299975 0.0811000019
vn -0.358900011 -0.930199981 0.0768000036
vn -0.370299995 -0.92809999 0.0392999984
vn -0.333999991 -0.932600021 0.136500001
vn -0.358900011 -0.930199981 0.0768000036
vn -0.327499986 -0.941299975 0.0811000019
vn -0.327100009 -0.934000015 0.143199995
vn -0.327100009 -0.934000015 0.143199995
vn -0.140100002 -0.762099981 -0.632099986
vn -0.310600013 -0.93599999 0.165299997
vn -0.333999991 -0.932600021 0.136500001
vn -0.305900007 -0.951200008 0.0392000005
vn -0.293099999 -0.955200016 0.0397000015
vn -0.265899986 -0.96329999 0.0366999991
vn -0.301299989 -0.950200021 0.0797000006
vn -0.305900007 -0.951200008 0.0392000005
vn -0.293099999 -0.955200016 0.0397000015
vn -0.288899988 -0.95389998 0.0806000009
vn -0.265899986 -0.96329999 0.0366999991
vn -0.265399992 -0.960799992 0.0806000009
vn -0.300500005 -0.944999993 0.129099995
vn -0.301299989 -0.950200021 0.0797000006
vn -0.288899988 -0.95389998 0.0806000009
vn -0.285899997 -0.950200021 0.123999998
vn -0.265399992 -0.960799992 0.0806000009
vn -0.266000003 -0.956700027 0.118199997
vn -0.305799991 -0.723800004 -0.618499994
vn -0.300500005 -0.944999993 0.129099995
vn -0.285899997 -0.950200021 0.123999998
vn -0.305599988 -0.7245 -0.617799997
vn -0.266000003 -0.956700027 0.118199997
vn -0.284000009 -0.727999985 -0.624000013
vn -0.334199995 -0.941699982 0.0381000005
vn -0.314799994 -0.948400021 0.0384999998
vn -0.305900007 -0.951200008 0.0392000005
vn -0.327499986 -0.941299975 0.0811000019
vn -0.334199995 -0.941699982 0.0381000005
vn -0.314799994 -0.948400021 0.0384999998
vn -0.313899994 -0.94599998 0.0808999985
vn -0.305900007 -0.951200008 0.0392000005
vn -0.301299989 -0.950200021 0.0797000006
vn -0.327100009 -0.934000015 0.143199995
vn -0.327499986 -0.941299975 0.0811000019
vn -0.313899994 -0.94599998 0.0808999985
vn -0.315600008 -0.939100027 0.135499999
vn -0.301299989 -0.950200021 0.0797000006
vn -0.300500005 -0.944999993 0.129099995
vn -0.305799991 -0.723800004 -0.618499994
vn -0.278600007 -0.729300022 -0.624800026
vn -0.315600008 -0.939100027 0.135499999
vn -0.140100002 -0.762099981 -0.632099986
vn -0.441500008 0.672599971 -0.593900025
vn -0.472600013 0.879800022 -0.0505999997
vn 0.254299998 0.960600019 -0.111500002
vn 0.0995000005 0.625899971 -0.773500025
vn 0.266000003 0.956700027 -0.118199997
vn 0.265399992 0.960799992 -0.0806000009
vn 0.254299998 0.960600019 -0.111500002
vn 0.248600006 0.965499997 -0.0776000023
vn -0.472600013 0.879800022 -0.0505999997
vn -0.475600004 0.879100025 -0.0307999998
vn 0.265899986 0.96329999 -0.0366999991
vn 0.265399992 0.960799992 -0.0806000009
vn 0.248600006 0.965499997 -0.0776000023
vn 0.247500002 0.968299985 -0.0344000012
vn -0.475600004 0.879100025 -0.0307999998
vn -0.470999986 0.882000029 -0.0102000004
vn 0.265899986 0.96329999 -0.0366999991
vn 0.247500002 0.968299985 -0.0344000012
vn -0.470999986 0.882000029 -0.0102000004
vn -0.265899986 -0.96329999 0.0366999991
vn -0.247500002 -0.968299985 0.0344000012
vn -0.878400028 -0.476200014 0.0395999998
vn -0.265399992 -0.960799992 0.0806000009
vn -0.265899986 -0.96329999 0.0366999991
vn -0.247500002 -0.968299985 0.0344000012
vn -0.248600006 -0.965499997 0.0776000023
vn -0.878400028 -0.476200014 0.0395999998
vn -0.877699971 -0.472799987 0.0785999969
vn -0.266000003 -0.956700027 0.118199997
vn -0.265399992 -0.960799992 0.0806000009
vn -0.248600006 -0.965499997 0.0776000023
vn -0.254299998 -0.960600019 0.111500002
vn -0.877699971 -0.472799987 0.0785999969
vn -0.877699971 -0.467599988 0.104900002
vn -0.877699971 -0.467599988 0.104900002
vn -0.76849997 -0.434100002 -0.470099986
vn -0.269800007 -0.731299996 -0.626399994
vn -0.254299998 -0.960600019 0.111500002
vn -0.284000009 -0.727999985 -0.624000013
vn 0.760999978 0.415499985 -0.498199999
vn 0.541899979 0.421900004 -0.726800025
vn 0.373199999 0.53670001 -0.756699979
vn 0.300099999 0.941699982 -0.152199998
vn 0.286599994 0.504700005 -0.814300001
vn 0.310600013 0.93599999 -0.165299997
vn 0.333999991 0.932600021 -0.136500001
vn 0.342400014 0.933099985 -0.109800003
vn 0.862200022 0.40290001 -0.307000011
vn 0.899699986 0.399100006 -0.176799998
vn 0.862200022 0.40290001 -0.307000011
vn 0.342400014 0.933099985 -0.109800003
vn 0.382400006 0.921400011 -0.0689999983
vn 0.333999991 0.932600021 -0.136500001
vn 0.358900011 0.930199981 -0.0768000036
vn 0.909799993 0.402399987 -0.101800002
vn 0.899699986 0.399100006 -0.176799998
vn 0.382400006 0.921400011 -0.0689999983
vn 0.391299993 0.91930002 -0.0423000008
vn 0.358900011 0.930199981 -0.0768000036
vn 0.370299995 0.92809999 -0.0392999984
vn 0.370299995 0.92809999 -0.0392999984
vn 0.391299993 0.91930002 -0.0423000008
vn 0.909799993 0.402399987 -0.101800002
vn -0.370299995 -0.92809999 0.0392999984
vn -0.391299993 -0.91930002 0.0423000008
vn 0.42050001 -0.906099975 -0.0461000018
vn 0.417899996 -0.903299987 -0.0970000029
vn 0.42050001 -0.906099975 -0.0461000018
vn -0.391299993 -0.91930002 0.0423000008
vn -0.382400006 -0.921400011 0.0689999983
vn -0.370299995 -0.92809999 0.0392999984
vn -0.358900011 -0.930199981 0.0768000036
vn 0.42019999 -0.885999978 -0.196199998
vn 0.417899996 -0.903299987 -0.0970000029
vn -0.382400006 -0.921400011 0.0689999983
vn -0.342400014 -0.933099985 0.109800003
vn -0.358900011 -0.930199981 0.0768000036
vn -0.333999991 -0.932600021 0.136500001
vn -0.333999991 -0.932600021 0.136500001
vn -0.310600013 -0.93599999 0.165299997
vn -0.300099999 -0.941699982 0.1523
vn -0.342400014 -0.933099985 0.109800003
vn 0.364499986 -0.865800023 -0.342700005
vn 0.42019999 -0.885999978 -0.196199998
vn 0.171299994 -0.819800019 -0.546400011
vn 0.364499986 -0.865800023 -0.342700005
vn -0.300099999 -0.941699982 0.1523
vn -0.0201999992 -0.810699999 -0.585099995
vn -0.310600013 -0.93599999 0.165299997
vn -0.140100002 -0.762099981 -0.632099986
vn -0.470999986 0.882000029 -0.0102000004
vn -0.949999988 0.3116 0.0198999997
vn -0.475600004 0.879100025 -0.0307999998
vn -0.949299991 0.312700003 0.0317000002
vn -0.949999988 0.3116 0.0198999997
vn 0.169200003 0.583299994 -0.794399977
vn 0.286599994 0.504700005 -0.814300001
vn 0.1149 -0.127000004 -0.985199988
vn -0.065200001 -0.0691 -0.995500028
vn 0.107100002 0.618499994 -0.778400004
vn 0.125599995 0.604799986 -0.78640002
vn -0.116400003 -0.052099999 -0.99180001
vn -0.131699994 -0.0469000004 -0.990199983
vn 0.1021 0.628899992 -0.770699978
vn -0.123099998 -0.0498000011 -0.991100013
vn 0.541899979 0.421900004 -0.726800025
vn 0.764100015 -0.301200002 -0.570500016
vn 0.480100006 -0.233500004 -0.845600009
vn 0.862200022 0.40290001 -0.307000011
vn 0.927600026 -0.320300013 -0.192200005
vn 0.882300019 -0.319499999 -0.345699996
vn 0.943000019 -0.315699995 -0.104800001
vn 0.862200022 0.40290001 -0.307000011
vn 0.882300019 -0.319499999 -0.345699996
vn 0.764100015 -0.301200002 -0.570500016
vn 0.927600026 -0.320300013 -0.192200005
vn 0.899699986 0.399100006 -0.176799998
vn -0.472600013 0.879800022 -0.0505999997
vn -0.732599974 0.179399997 -0.656499982
vn -0.949000001 0.312999994 0.0359000005
vn 0.125599995 0.604799986 -0.78640002
vn 0.169200003 0.583299994 -0.794399977
vn -0.065200001 -0.0691 -0.995500028
vn -0.116400003 -0.052099999 -0.99180001
vn -0.472600013 0.879800022 -0.0505999997
vn -0.949000001 0.312999994 0.0359000005
vn -0.949299991 0.312700003 0.0317000002
vn 0.1021 0.628899992 -0.770699978
vn -0.123099998 -0.0498000011 -0.991100013
vn -0.114399999 -0.0527000017 -0.991999984
vn -0.441500008 0.672599971 -0.593900025
vn -0.732599974 0.179399997 -0.656499982
vn 0.373199999 0.53670001 -0.756699979
vn 0.541899979 0.421900004 -0.726800025
vn 0.480100006 -0.233500004 -0.845600009
vn 0.256300002 -0.170100003 -0.951499999
vn 0.286599994 0.504700005 -0.814300001
vn 0.1149 -0.127000004 -0.985199988
vn -0.949999988 0.311699986 0.0198999997
vn -0.878400028 -0.476200014 0.0395999998
vn -0.949299991 0.312700003 0.0317000002
vn -0.949999988 0.311699986 0.0198999997
vn -0.877699971 -0.472799987 0.0785999969
vn 0.1149 -0.127000004 -0.985199988
vn -0.065200001 -0.0691 -0.995500028
vn -0.140100002 -0.762099981 -0.632099986
vn -0.278600007 -0.729300022 -0.624800026
vn -0.116400003 -0.052099999 -0.99180001
vn -0.131699994 -0.0469999984 -0.990199983
vn -0.305799991 -0.723800004 -0.618499994
vn -0.305599988 -0.7245 -0.617799997
vn -0.123099998 -0.0498000011 -0.991100013
vn -0.284000009 -0.727999985 -0.624000013
vn 0.764100015 -0.301200002 -0.570500016
vn 0.479999989 -0.233500004 -0.845600009
vn 0.171299994 -0.819800019 -0.546400011
vn 0.927600026 -0.320300013 -0.192200005
vn 0.882300019 -0.319400012 -0.345699996
vn 0.42019999 -0.885999978 -0.196199998
vn 0.943000019 -0.315800011 -0.104900002
vn 0.882300019 -0.319400012 -0.345699996
vn 0.764100015 -0.301200002 -0.570500016
vn 0.42019999 -0.885999978 -0.196199998
vn 0.943000019 -0.315800011 -0.104900002
vn 0.927600026 -0.320300013 -0.192200005
vn 0.417899996 -0.903299987 -0.0970000029
vn -0.732599974 0.179399997 -0.656499982
vn -0.949100018 0.312999994 0.0359000005
vn -0.877699971 -0.467599988 0.104900002
vn -0.065200001 -0.0691 -0.995500028
vn -0.116400003 -0.052099999 -0.99180001
vn -0.278600007 -0.729300022 -0.624800026
vn -0.305799991 -0.723800004 -0.618499994
vn -0.949100018 0.312999994 0.0359000005
vn -0.949299991 0.312700003 0.0317000002
vn -0.123099998 -0.0498000011 -0.991100013
vn -0.114399999 -0.0527999997 -0.991999984
vn -0.284000009 -0.727999985 -0.624000013
vn -0.732599974 0.179399997 -0.656499982
vn -0.76849997 -0.434100002 -0.470099986
vn 0.479999989 -0.233500004 -0.845600009
vn 0.256300002 -0.170100003 -0.951499999
vn 0.171299994 -0.819800019 -0.546400011
vn -0.0201999992 -0.810699999 -0.585099995
vn 0.1149 -0.127000004 -0.985199988
vn -0.140100002 -0.762099981 -0.632099986
f 1/1/1 2/2/2 3/3/3
f 1/1/1 3/3/3 4/4/4
f 5/5/5 1/1/1 4/4/4
f 5/5/5 4/4/4 6/6/6
f 7/7/7 8/8/8 9/9/9
f 7/7/7 9/9/9 10/10/10
f 11/11/11 7/7/7 10/10/10
f 11/11/11 10/10/10 3/3/3
f 12/12/12 13/13/13 14/14/14
f 12/12/12 14/14/14 15/15/15
f 16/16/16 12/12/12 15/15/15
f 16/16/16 15/15/15 17/17/17
f 18/18/18 19/19/19 20/20/20
f 18/18/18 20/20/20 21/21/21
f 22/22/22 18/18/18 21/21/21
f 22/22/22 21/21/21 23/23/23
f 24/24/24 25/25/25 26/26/26
f 24/24/24 26/26/26 27/27/27
f 28/28/28 24/24/24 27/27/27
f 28/28/28 27/27/27 5/5/5
f 29/29/29 30/30/30 25/25/25
f 29/29/29 25/25/25 31/31/31
f 32/32/32 29/29/29 31/31/31
f 32/32/32 31/31/31 33/33/33
f 34/34/34 35/35/35 36/36/36
f 34/34/34 36/36/36 37/37/37
f 38/38/38 34/34/34 37/37/37
f 38/38/38 37/37/37 39/39/39
f 40/40/40 41/41/41 42/42/42
f 40/40/40 42/42/42 43/43/43
f 44/44/44 40/40/40 43/43/43
f 44/44/44 43/43/43 45/45/45
f 2/2/2 46/46/46 47/47/47
f 2/2/2 47/47/47 48/48/48
f 49/49/49 50/50/50 48/48/48
f 49/49/49 48/48/48 51/51/51
f 52/52/52 53/53/53 54/54/54
f 52/52/52 54/54/54 55/55/55
f 56/56/56 57/57/57 58/58/58
f 56/56/56 58/58/58 59/59/59
f 60/60/60 61/61/61 62/62/62
f 60/60/60 62/62/62 63/63/63
f 64/64/64 65/65/65 66/66/66
f 64/64/64 66/66/66 67/67/67
f 68/68/68 69/69/69 70/70/70
f 68/68/68 70/70/70 71/71/71
f 72/72/72 73/73/73 74/74/74
f 72/72/72 74/74/74 75/75/75
f 76/76/76 77/77/77 78/78/78
f 76/76/76 78/78/78 79/79/79
f 77/77/77 80/80/80 81/81/81
f 77/77/77 81/81/81 78/78/78
f 82/82/82 83/83/83 84/84/84
f 82/82/82 84/84/84 85/85/85
f 83/83/83 86/86/86 87/87/87
f 83/83/83 87/87/87 84/84/84
f 88/88/88 89/89/89 90/90/90
f 88/88/88 90/90/90 91/91/91
f 89/89/89 92/92/92 93/93/93
f 89/89/89 93/93/93 90/90/90
f 94/94/94 95/95/95 96/96/96
f 94/94/94 96/96/96 97/97/97
f 95/95/95 98/98/98 99/99/99
f 95/95/95 99/99/99 96/96/96
f 100/100/100 101/101/101 102/102/102
f 100/100/100 102/102/102 103/103/103
f 101/101/101 104/104/104 105/105/105
f 101/101/101 105/105/105 102/102/102
f 106/106/106 107/107/107 108/108/108
f 106/106/106 108/108/108 109/109/109
f 107/107/107 110/110/110 111/111/111
f 107/107/107 111/111/111 108/108/108
f 112/112/112 113/113/113 114/114/114
f 112/112/112 114/114/114 115/115/115
f 113/113/113 116/116/116 117/117/117
f 113/113/113 117/117/117 114/114/114
f 97/97/97 118/118/118 119/119/119
f 97/97/97 119/119/119 120/120/120
f 118/118/118 72/72/72 121/121/121
f 118/118/118 121/121/121 119/119/119
f 122/122/122 123/123/123 124/124/124
f 122/122/122 124/124/124 125/125/125
f 123/123/123 26/26/26 126/126/126
f 123/123/123 126/126/126 124/124/124
f 127/127/127 128/128/128 129/129/129
f 127/127/127 129/129/129 126/126/126
f 128/128/128 130/130/130 131/131/131
f 128/128/128 131/131/131 129/129/129
f 132/132/132 133/133/133 134/134/134
f 132/132/132 134/134/134 135/135/135
f 133/133/133 136/136/136 137/137/137
f 133/133/133 137/137/137 134/134/134
f 138/138/138 139/139/139 140/140/140
f 138/138/138 140/140/140 141/141/141
f 139/139/139 142/142/142 143/143/143
f 139/139/139 143/143/143 140/140/140
f 144/144/144 145/145/145 146/146/146
f 144/144/144 146/146/146 147/147/147
f 145/145/145 148/148/148 149/149/149
f 145/145/145 149/149/149 146/146/146
f 150/150/150 151/151/151 152/152/152
f 150/150/150 152/152/152 153/153/153
f 151/151/151 154/154/154 155/155/155
f 151/151/151 155/155/155 152/152/152
f 156/156/156 157/157/157 158/158/158
f 156/156/156 158/158/158 159/159/159
f 157/157/157 160/160/160 161/161/161
f 157/157/157 161/161/161 158/158/158
f 162/162/162 163/163/163 164/164/164
f 162/162/162 164/164/164 165/165/165
f 163/163/163 99/99/99 166/166/166
f 163/163/163 166/166/166 164/164/164
f 167/167/167 168/168/168 169/169/169
f 167/167/167 169/169/169 170/170/170
f 168/168/168 171/171/171 172/172/172
f 168/168/168 172/172/172 169/169/169
f 171/171/171 168/168/168 173/173/173
f 171/171/171 173/173/173 174/174/174
f 168/168/168 167/167/167 175/175/175
f 168/168/168 175/175/175 173/173/173
f 176/176/176 177/177/177 178/178/178
f 176/176/176 178/178/178 179/179/179
f 177/177/177 180/180/180 181/181/181
f 177/177/177 181/181/181 178/178/178
f 182/182/182 183/183/183 184/184/184
f 182/182/182 184/184/184 185/185/185
f 183/183/183 186/186/186 187/187/187
f 183/183/183 187/187/187 184/184/184
f 188/188/188 189/189/189 190/190/190
f 188/188/188 190/190/190 191/191/191
f 189/189/189 192/192/192 193/193/193
f 189/189/189 193/193/193 190/190/190
f 194/194/194 195/195/195 196/196/196
f 194/194/194 196/196/196 197/197/197
f 195/195/195 198/198/198 199/199/199
f 195/195/195 199/199/199 196/196/196
f 200/200/200 201/201/201 202/202/202
f 200/200/200 202/202/202 203/203/203
f 201/201/201 204/204/204 205/205/205
f 201/201/201 205/205/205 202/202/202
f 206/206/206 207/207/207 208/208/208
f 206/206/206 208/208/208 209/209/209
f 207/207/207 210/210/210 211/211/211
f 207/207/207 211/211/211 208/208/208
f 212/212/212 213/213/213 214/214/214
f 212/212/212 214/214/214 215/215/215
f 213/213/213 216/216/216 217/217/217
f 213/213/213 217/217/217 214/214/214
f 218/218/218 219/219/219 220/220/220
f 218/218/218 220/220/220 221/221/221
f 219/219/219 222/222/222 223/223/223
f 219/219/219 223/223/223 220/220/220
f 142/142/142 224/224/224 225/225/225
f 142/142/142 225/225/225 226/226/226
f 136/136/136 227/227/227 228/228/228
f 136/136/136 228/228/228 229/229/229
f 230/230/230 231/231/231 232/232/232
f 230/230/230 232/232/232 233/233/233
f 234/234/234 235/235/235 236/236/236
f 234/234/234 236/236/236 237/237/237
f 238/238/238 239/239/239 235/235/235
f 238/238/238 235/235/235 234/234/234
f 240/240/240 241/241/241 242/242/242
f 240/240/240 242/242/242 167/167/167
f 243/243/243 244/244/244 245/245/245
f 243/243/243 245/245/245 176/176/176
f 192/192/192 246/246/246 247/247/247
f 192/192/192 247/247/247 248/248/248
f 167/167/167 249/249/249 250/250/250
f 167/167/167 250/250/250 251/251/251
f 246/246/246 182/182/182 252/252/252
f 246/246/246 252/252/252 253/253/253
f 254/254/254 255/255/255 256/256/256
f 254/254/254 256/256/256 122/122/122
f 257/257/257 258/258/258 259/259/259
f 257/257/257 259/259/259 260/260/260
f 130/130/130 261/261/261 262/262/262
f 130/130/130 262/262/262 263/263/263
f 123/123/123 264/264/264 265/265/265
f 123/123/123 265/265/265 266/266/266
f 267/267/267 268/268/268 264/264/264
f 267/267/267 264/264/264 123/123/123
f 269/269/269 270/270/270 271/271/271
f 269/269/269 271/271/271 272/272/272
f 273/273/273 274/274/274 270/270/270
f 273/273/273 270/270/270 269/269/269
f 224/224/224 275/275/275 276/276/276
f 224/224/224 276/276/276 225/225/225
f 275/275/275 149/149/149 277/277/277
f 275/275/275 277/277/277 276/276/276
f 227/227/227 278/278/278 279/279/279
f 227/227/227 279/279/279 228/228/228
f 278/278/278 155/155/155 280/280/280
f 278/278/278 280/280/280 279/279/279
f 231/231/231 281/281/281 282/282/282
f 231/231/231 282/282/282 232/232/232
f 281/281/281 283/283/283 284/284/284
f 281/281/281 284/284/284 282/282/282
f 235/235/235 285/285/285 286/286/286
f 235/235/235 286/286/286 236/236/236
f 285/285/285 287/287/287 288/288/288
f 285/285/285 288/288/288 286/286/286
f 239/239/239 289/289/289 285/285/285
f 239/239/239 285/285/285 235/235/235
f 289/289/289 290/290/290 287/287/287
f 289/289/289 287/287/287 285/285/285
f 241/241/241 291/291/291 292/292/292
f 241/241/241 292/292/292 242/242/242
f 291/291/291 293/293/293 221/221/221
f 291/291/291 221/221/221 292/292/292
f 244/244/244 294/294/294 295/295/295
f 244/244/244 295/295/295 245/245/245
f 294/294/294 296/296/296 209/209/209
f 294/294/294 209/209/209 295/295/295
f 246/246/246 297/297/297 298/298/298
f 246/246/246 298/298/298 247/247/247
f 297/297/297 199/199/199 299/299/299
f 297/297/297 299/299/299 298/298/298
f 249/249/249 300/300/300 301/301/301
f 249/249/249 301/301/301 250/250/250
f 300/300/300 217/217/217 302/302/302
f 300/300/300 302/302/302 301/301/301
f 253/253/253 303/303/303 304/304/304
f 253/253/253 304/304/304 246/246/246
f 303/303/303 305/305/305 203/203/203
f 303/303/303 203/203/203 304/304/304
f 255/255/255 306/306/306 307/307/307
f 255/255/255 307/307/307 256/256/256
f 306/306/306 308/308/308 165/165/165
f 306/306/306 165/165/165 307/307/307
f 258/258/258 309/309/309 310/310/310
f 258/258/258 310/310/310 259/259/259
f 309/309/309 311/311/311 312/312/312
f 309/309/309 312/312/312 310/310/310
f 261/261/261 313/313/313 314/314/314
f 261/261/261 314/314/314 262/262/262
f 313/313/313 161/161/161 308/308/308
f 313/313/313 308/308/308 314/314/314
f 264/264/264 315/315/315 316/316/316
f 264/264/264 316/316/316 265/265/265
f 315/315/315 164/164/164 317/317/317
f 315/315/315 317/317/317 316/316/316
f 268/268/268 318/318/318 315/315/315
f 268/268/268 315/315/315 264/264/264
f 318/318/318 319/319/319 164/164/164
f 318/318/318 164/164/164 315/315/315
f 270/270/270 320/320/320 321/321/321
f 270/270/270 321/321/321 271/271/271
f 320/320/320 322/322/322 323/323/323
f 320/320/320 323/323/323 321/321/321
f 274/274/274 324/324/324 320/320/320
f 274/274/274 320/320/320 270/270/270
f 324/324/324 325/325/325 322/322/322
f 324/324/324 322/322/322 320/320/320
f 326/326/326 327/327/327 328/328/328
f 326/326/326 328/328/328 329/329/329
f 330/330/330 331/331/331 327/327/327
f 330/330/330 327/327/327 326/326/326
f 332/332/332 333/333/333 334/334/334
f 332/332/332 334/334/334 335/335/335
f 336/336/336 328/328/328 333/333/333
f 336/336/336 333/333/333 332/332/332
f 337/337/337 338/338/338 339/339/339
f 337/337/337 339/339/339 340/340/340
f 341/341/341 342/342/342 338/338/338
f 341/341/341 338/338/338 337/337/337
f 18/18/18 343/343/343 344/344/344
f 18/18/18 344/344/344 19/19/19
f 22/22/22 345/345/345 343/343/343
f 22/22/22 343/343/343 18/18/18
f 346/346/346 347/347/347 348/348/348
f 346/346/346 348/348/348 349/349/349
f 350/350/350 330/330/330 347/347/347
f 350/350/350 347/347/347 346/346/346
f 351/351/351 352/352/352 349/349/349
f 351/351/351 349/349/349 353/353/353
f 354/354/354 355/355/355 352/352/352
f 354/354/354 352/352/352 351/351/351
f 356/356/356 357/357/357 358/358/358
f 356/356/356 358/358/358 359/359/359
f 360/360/360 361/361/361 357/357/357
f 360/360/360 357/357/357 356/356/356
f 40/40/40 362/362/362 363/363/363
f 40/40/40 363/363/363 41/41/41
f 44/44/44 364/364/364 362/362/362
f 44/44/44 362/362/362 40/40/40
f 329/329/329 365/365/365 366/366/366
f 329/329/329 366/366/366 367/367/367
f 368/368/368 369/369/369 365/365/365
f 368/368/368 365/365/365 370/370/370
f 371/371/371 372/372/372 373/373/373
f 371/371/371 373/373/373 374/374/374
f 56/56/56 375/375/375 376/376/376
f 56/56/56 376/376/376 57/57/57
f 377/377/377 63/63/63 62/62/62
f 377/377/377 62/62/62 378/378/378
f 379/379/379 380/380/380 381/381/381
f 379/379/379 381/381/381 382/382/382
f 383/383/383 384/384/384 385/385/385
f 383/383/383 385/385/385 386/386/386
f 387/387/387 388/388/388 389/389/389
f 387/387/387 389/389/389 390/390/390
f 391/391/391 79/79/79 78/78/78
f 391/391/391 78/78/78 392/392/392
f 392/392/392 78/78/78 81/81/81
f 392/392/392 81/81/81 393/393/393
f 394/394/394 395/395/395 396/396/396
f 394/394/394 396/396/396 397/397/397
f 397/397/397 396/396/396 398/398/398
f 397/397/397 398/398/398 399/399/399
f 400/400/400 401/401/401 402/402/402
f 400/400/400 402/402/402 403/403/403
f 403/403/403 402/402/402 404/404/404
f 403/403/403 404/404/404 405/405/405
f 406/406/406 407/407/407 408/408/408
f 406/406/406 408/408/408 409/409/409
f 409/409/409 408/408/408 410/410/410
f 409/409/409 410/410/410 411/411/411
f 412/412/412 103/103/103 102/102/102
f 412/412/412 102/102/102 413/413/413
f 413/413/413 102/102/102 105/105/105
f 413/413/413 105/105/105 414/414/414
f 415/415/415 416/416/416 417/417/417
f 415/415/415 417/417/417 418/418/418
f 418/418/418 417/417/417 419/419/419
f 418/418/418 419/419/419 420/420/420
f 421/421/421 422/422/422 423/423/423
f 421/421/421 423/423/423 424/424/424
f 424/424/424 423/423/423 425/425/425
f 424/424/424 425/425/425 426/426/426
f 407/407/407 427/427/427 428/428/428
f 407/407/407 428/428/428 429/429/429
f 429/429/429 428/428/428 430/430/430
f 429/429/429 430/430/430 387/387/387
f 431/431/431 432/432/432 433/433/433
f 431/431/431 433/433/433 434/434/434
f 434/434/434 433/433/433 435/435/435
f 434/434/434 435/435/435 348/348/348
f 436/436/436 435/435/435 437/437/437
f 436/436/436 437/437/437 438/438/438
f 438/438/438 437/437/437 439/439/439
f 438/438/438 439/439/439 440/440/440
f 441/441/441 442/442/442 443/443/443
f 441/441/441 443/443/443 444/444/444
f 444/444/444 443/443/443 445/445/445
f 444/444/444 445/445/445 446/446/446
f 138/138/138 447/447/447 448/448/448
f 138/138/138 448/448/448 139/139/139
f 139/139/139 448/448/448 449/449/449
f 139/139/139 449/449/449 142/142/142
f 450/450/450 147/147/147 146/146/146
f 450/450/450 146/146/146 451/451/451
f 451/451/451 146/146/146 149/149/149
f 451/451/451 149/149/149 452/452/452
f 453/453/453 454/454/454 455/455/455
f 453/453/453 455/455/455 456/456/456
f 456/456/456 455/455/455 457/457/457
f 456/456/456 457/457/457 458/458/458
f 459/459/459 460/460/460 461/461/461
f 459/459/459 461/461/461 462/462/462
f 462/462/462 461/461/461 463/463/463
f 462/462/462 463/463/463 464/464/464
f 465/465/465 466/466/466 467/467/467
f 465/465/465 467/467/467 468/468/468
f 468/468/468 467/467/467 469/469/469
f 468/468/468 469/469/469 410/410/410
f 470/470/470 471/471/471 472/472/472
f 470/470/470 472/472/472 473/473/473
f 473/473/473 472/472/472 474/474/474
f 473/473/473 474/474/474 475/475/475
f 475/475/475 476/476/476 477/477/477
f 475/475/475 477/477/477 473/473/473
f 473/473/473 477/477/477 478/478/478
f 473/473/473 478/478/478 470/470/470
f 479/479/479 480/480/480 481/481/481
f 479/479/479 481/481/481 482/482/482
f 482/482/482 481/481/481 483/483/483
f 482/482/482 483/483/483 484/484/484
f 485/485/485 486/486/486 487/487/487
f 485/485/485 487/487/487 488/488/488
f 488/488/488 487/487/487 489/489/489
f 488/488/488 489/489/489 490/490/490
f 491/491/491 191/191/191 190/190/190
f 491/491/491 190/190/190 492/492/492
f 492/492/492 190/190/190 193/193/193
f 492/492/492 193/193/193 493/493/493
f 194/194/194 494/494/494 495/495/495
f 194/194/194 495/495/495 195/195/195
f 195/195/195 495/495/495 496/496/496
f 195/195/195 496/496/496 198/198/198
f 497/497/497 498/498/498 499/499/499
f 497/497/497 499/499/499 500/500/500
f 500/500/500 499/499/499 501/501/501
f 500/500/500 501/501/501 502/502/502
f 503/503/503 504/504/504 505/505/505
f 503/503/503 505/505/505 506/506/506
f 506/506/506 505/505/505 507/507/507
f 506/506/506 507/507/507 508/508/508
f 509/509/509 510/510/510 511/511/511
f 509/509/509 511/511/511 512/512/512
f 512/512/512 511/511/511 513/513/513
f 512/512/512 513/513/513 514/514/514
f 515/515/515 516/516/516 517/517/517
f 515/515/515 517/517/517 518/518/518
f 518/518/518 517/517/517 519/519/519
f 518/518/518 519/519/519 520/520/520
f 142/142/142 521/521/521 522/522/522
f 142/142/142 522/522/522 224/224/224
f 446/446/446 523/523/523 524/524/524
f 446/446/446 524/524/524 525/525/525
f 526/526/526 527/527/527 528/528/528
f 526/526/526 528/528/528 529/529/529
f 530/530/530 531/531/531 532/532/532
f 530/530/530 532/532/532 533/533/533
f 534/534/534 530/530/530 533/533/533
f 534/534/534 533/533/533 535/535/535
f 536/536/536 470/470/470 537/537/537
f 536/536/536 537/537/537 538/538/538
f 539/539/539 479/479/479 540/540/540
f 539/539/539 540/540/540 541/541/541
f 493/493/493 248/248/248 247/247/247
f 493/493/493 247/247/247 542/542/542
f 470/470/470 543/543/543 544/544/544
f 470/470/470 544/544/544 545/545/545
f 542/542/542 546/546/546 547/547/547
f 542/542/542 547/547/547 485/485/485
f 548/548/548 431/431/431 549/549/549
f 548/548/548 549/549/549 550/550/550
f 551/551/551 552/552/552 553/553/553
f 551/551/551 553/553/553 554/554/554
f 440/440/440 555/555/555 556/556/556
f 440/440/440 556/556/556 557/557/557
f 434/434/434 558/558/558 559/559/559
f 434/434/434 559/559/559 560/560/560
f 561/561/561 434/434/434 560/560/560
f 561/561/561 560/560/560 562/562/562
f 563/563/563 564/564/564 565/565/565
f 563/563/563 565/565/565 566/566/566
f 567/567/567 563/563/563 566/566/566
f 567/567/567 566/566/566 568/568/568
f 224/224/224 522/522/522 569/569/569
f 224/224/224 569/569/569 275/275/275
f 275/275/275 569/569/569 570/570/570
f 275/275/275 570/570/570 149/149/149
f 525/525/525 524/524/524 571/571/571
f 525/525/525 571/571/571 572/572/572
f 572/572/572 571/571/571 573/573/573
f 572/572/572 573/573/573 457/457/457
f 529/529/529 528/528/528 574/574/574
f 529/529/529 574/574/574 575/575/575
f 575/575/575 574/574/574 576/576/576
f 575/575/575 576/576/576 577/577/577
f 533/533/533 532/532/532 578/578/578
f 533/533/533 578/578/578 579/579/579
f 579/579/579 578/578/578 580/580/580
f 579/579/579 580/580/580 581/581/581
f 535/535/535 533/533/533 579/579/579
f 535/535/535 579/579/579 582/582/582
f 582/582/582 579/579/579 581/581/581
f 582/582/582 581/581/581 583/583/583
f 538/538/538 537/537/537 584/584/584
f 538/538/538 584/584/584 585/585/585
f 585/585/585 584/584/584 516/516/516
f 585/585/585 516/516/516 586/586/586
f 541/541/541 540/540/540 587/587/587
f 541/541/541 587/587/587 588/588/588
f 588/588/588 587/587/587 504/504/504
f 588/588/588 504/504/504 589/589/589
f 542/542/542 247/247/247 298/298/298
f 542/542/542 298/298/298 590/590/590
f 590/590/590 298/298/298 299/299/299
f 590/590/590 299/299/299 496/496/496
f 545/545/545 544/544/544 591/591/591
f 545/545/545 591/591/591 592/592/592
f 592/592/592 591/591/591 593/593/593
f 592/592/592 593/593/593 513/513/513
f 546/546/546 542/542/542 594/594/594
f 546/546/546 594/594/594 595/595/595
f 595/595/595 594/594/594 498/498/498
f 595/595/595 498/498/498 596/596/596
f 550/550/550 549/549/549 597/597/597
f 550/550/550 597/597/597 598/598/598
f 598/598/598 597/597/597 466/466/466
f 598/598/598 466/466/466 599/599/599
f 554/554/554 553/553/553 600/600/600
f 554/554/554 600/600/600 601/601/601
f 601/601/601 600/600/600 602/602/602
f 601/601/601 602/602/602 603/603/603
f 557/557/557 556/556/556 604/604/604
f 557/557/557 604/604/604 605/605/605
f 605/605/605 604/604/604 599/599/599
f 605/605/605 599/599/599 463/463/463
f 560/560/560 559/559/559 606/606/606
f 560/560/560 606/606/606 607/607/607
f 607/607/607 606/606/606 608/608/608
f 607/607/607 608/608/608 467/467/467
f 562/562/562 560/560/560 607/607/607
f 562/562/562 607/607/607 609/609/609
f 609/609/609 607/607/607 467/467/467
f 609/609/609 467/467/467 610/610/610
f 566/566/566 565/565/565 611/611/611
f 566/566/566 611/611/611 612/612/612
f 612/612/612 611/611/611 613/613/613
f 612/612/612 613/613/613 614/614/614
f 568/568/568 566/566/566 612/612/612
f 568/568/568 612/612/612 615/615/615
f 615/615/615 612/612/612 614/614/614
f 615/615/615 614/614/614 616/616/616
