# Generated by lxe_pbrt_scene_convert
v 2.54702592 0.555572987 1.60031796
v 2.52369404 0.554987013 1.601457
v 2.53626108 0.551567972 1.60350096
v 2.56136703 0.552232981 1.601964
v 2.55953312 0.553113997 1.60145199
v 2.54924798 0.555629015 1.600209
v 2.53737307 0.558447003 1.59552801
v 2.5352869 0.558395028 1.595613
v 2.513381 0.557856977 1.59650505
v 2.45814204 0.553340018 1.60465598
v 2.3580451 0.550893009 1.60943902
v 2.3607161 0.546997011 1.61384594
v 2.46572495 0.549697995 1.60782003
v 2.45183802 0.556343019 1.59901202
v 2.3422451 0.554023981 1.60411298
v 2.52875209 0.560182989 1.58478999
v 2.53076792 0.560235977 1.58469999
v 2.52729511 0.561178029 1.57430196
v 2.52481794 0.561452985 1.57090998
v 2.50402999 0.560847998 1.57206905
v 2.50757909 0.559626997 1.58573997
v 2.513381 0.557856977 1.59650505
v 2.5352869 0.558395028 1.595613
v 2.53737307 0.558447003 1.59552801
v 2.44809198 0.558064997 1.58840895
v 2.44562697 0.559147 1.57532704
v 2.35227609 0.556738973 1.57927799
v 2.35381293 0.555770993 1.59208798
v 2.3422451 0.554023981 1.60411298
v 2.45183802 0.556343019 1.59901202
v 1.61328006 0.532369971 1.63655496
v 1.77402902 0.535970986 1.63200402
v 1.77275801 0.539487004 1.62848902
v 1.611956 0.535983026 1.63321996
v 1.43469 0.531984985 1.63782501
v 1.43621004 0.528358996 1.641222
v 1.43819797 0.523554981 1.645558
v 1.61500394 0.527585983 1.64080906
v 1.77567399 0.531315029 1.63650095
v 1.93283796 0.540162027 1.627002
v 1.77402902 0.535970986 1.63200402
v 1.77567399 0.531315029 1.63650095
v 1.93430197 0.53571701 1.63203204
v 2.08757901 0.540117025 1.62687504
v 2.08631802 0.544340014 1.62147105
v 2.08242202 0.547456026 1.61741698
v 1.93170798 0.543515027 1.62309206
v 1.77275801 0.539487004 1.62848902
v 2.2310791 0.547905982 1.61532998
v 2.08631802 0.544340014 1.62147105
v 2.08757901 0.540117025 1.62687504
v 2.23219204 0.543841004 1.62050498
v 2.3607161 0.546997011 1.61384594
v 2.3580451 0.550893009 1.60943902
v 2.3422451 0.554023981 1.60411298
v 2.21851802 0.550701976 1.61185205
v 2.08242202 0.547456026 1.61741698
v 1.60812104 0.539152026 1.61521101
v 1.60493898 0.540951014 1.59927702
v 1.42858601 0.537042975 1.60363603
v 1.43129003 0.535197973 1.61967897
v 1.43334603 0.533789992 1.63185799
v 1.61054003 0.53777802 1.62730598
v 1.77115905 0.541215003 1.62258995
v 1.76821196 0.54250598 1.61068296
v 1.76433098 0.54419601 1.59499705
v 1.611431 0.537253022 1.63172305
v 1.43410695 0.533257008 1.63630497
v 1.43469 0.531984985 1.63782501
v 1.611956 0.535983026 1.63321996
v 1.77275801 0.539487004 1.62848902
v 1.77223802 0.540722013 1.62693799
v 1.92777205 0.546187997 1.605582
v 1.92442799 0.547616005 1.59029901
v 1.76433098 0.54419601 1.59499705
v 1.76821196 0.54250598 1.61068296
v 1.77115905 0.541215003 1.62258995
v 1.93031299 0.545098007 1.61718202
v 2.08138704 0.548879027 1.61170197
v 2.08254099 0.549818993 1.60050905
v 2.08020711 0.550969005 1.585899
v 1.93124497 0.544683993 1.62141895
v 1.77223802 0.540722013 1.62693799
v 1.77275801 0.539487004 1.62848902
v 1.93170798 0.543515027 1.62309206
v 2.08242202 0.547456026 1.61741698
v 2.07325292 0.548358023 1.616063
v 2.22825909 0.553017974 1.596066
v 2.22664595 0.554010987 1.58251405
v 2.08020711 0.550969005 1.585899
v 2.08254099 0.549818993 1.60050905
v 2.08138704 0.548879027 1.61170197
v 2.21776605 0.55200702 1.60676801
v 2.3422451 0.554023981 1.60411298
v 2.35381293 0.555770993 1.59208798
v 2.35227609 0.556738973 1.57927799
v 2.18306303 0.550961971 1.61176896
v 2.21776605 0.55200702 1.60676801
v 2.07325292 0.548358023 1.616063
v 2.08242202 0.547456026 1.61741698
v 2.21851802 0.550701976 1.61185205
v 2.3422451 0.554023981 1.60411298
v 1.00418103 0.516782999 1.65233099
v 1.00305903 0.516752005 1.65239096
v 1.00612199 0.513373971 1.65647197
v 1.00788701 0.512266994 1.65776801
v 1.06426299 0.513777018 1.65611601
v 1.06080401 0.518337011 1.65086102
v 1.05815995 0.521775007 1.64677501
v 1.00134695 0.520186007 1.64810801
v 1.00022197 0.520155013 1.64814198
v 1.22843206 0.522938013 1.64657497
v 1.23115897 0.518245995 1.651353
v 1.43819797 0.523554981 1.645558
v 1.43621004 0.528358996 1.641222
v 1.43469 0.531984985 1.63782501
v 1.22634995 0.526479006 1.64284599
v 0.994023979 0.52343303 1.62977803
v 0.992801011 0.523398995 1.62980402
v 0.997442007 0.521883011 1.64191699
v 0.998592019 0.521915019 1.641891
v 1.05563605 0.523515999 1.64059806
v 1.05150497 0.525021017 1.62847102
v 1.04606402 0.52700299 1.61249495
v 0.988003016 0.525434971 1.61381996
v 0.988543987 0.524908006 1.61782897
v 1.221506 0.529715002 1.62460196
v 1.22446597 0.528255999 1.63677096
v 1.43334603 0.533789992 1.63185799
v 1.43129003 0.535197973 1.61967897
v 1.42858601 0.537042975 1.60363603
v 1.21761 0.531633019 1.60857105
v 1.00025904 0.521364987 1.64631498
v 1.05714595 0.522967994 1.64502704
v 0.999131978 0.521332979 1.64634001
v 1.00022197 0.520155013 1.64814198
v 1.00134695 0.520186007 1.64810801
v 1.05815995 0.521775007 1.64677501
v 1.22555399 0.527714014 1.64121497
v 1.43410695 0.533257008 1.63630497
v 1.22634995 0.526479006 1.64284599
v 1.43469 0.531984985 1.63782501
v 2.54702592 0.555572987 -1.60031796
v 2.56136703 0.552232981 -1.601964
v 2.53626108 0.551567972 -1.60350096
v 2.52369404 0.554987013 -1.601457
v 2.513381 0.557856977 -1.59650505
v 2.5352869 0.558395028 -1.595613
v 2.53737307 0.558447003 -1.59552801
v 2.54924798 0.555629015 -1.600209
v 2.55953312 0.553113997 -1.60145199
v 2.45814204 0.553340018 -1.60465598
v 2.46572495 0.549697995 -1.60782003
v 2.3607161 0.546997011 -1.61384594
v 2.3580451 0.550893009 -1.60943902
v 2.3422451 0.554023981 -1.60411298
v 2.45183802 0.556343019 -1.59901202
v 2.5287509 0.560182989 -1.58478999
v 2.52481794 0.561452985 -1.57090998
v 2.52729511 0.561178029 -1.57430196
v 2.53076792 0.560235977 -1.58469999
v 2.53737307 0.558447003 -1.59552801
v 2.5352869 0.558395028 -1.595613
v 2.513381 0.557856977 -1.59650505
v 2.5075779 0.559626997 -1.58573997
v 2.50402999 0.560847998 -1.57206905
v 2.44809198 0.558064997 -1.58840895
v 2.44562697 0.559147 -1.57532704
v 2.45183802 0.556343019 -1.59901202
v 2.3422451 0.554023981 -1.60411298
v 2.35381293 0.555770993 -1.59208798
v 2.35227609 0.556738973 -1.57927799
v 1.61328006 0.532369971 -1.63655496
v 1.611956 0.535983026 -1.63321996
v 1.77275801 0.539487004 -1.62848902
v 1.77402902 0.535970986 -1.63200402
v 1.77567399 0.531315029 -1.63650095
v 1.61500394 0.527585983 -1.64080906
v 1.43819797 0.523554981 -1.645558
v 1.43621004 0.528358996 -1.641222
v 1.43469 0.531984985 -1.63782501
v 1.93283796 0.540162027 -1.627002
v 1.93430197 0.53571701 -1.63203204
v 1.77567399 0.531315029 -1.63650095
v 1.77402902 0.535970986 -1.63200402
v 1.77275801 0.539487004 -1.62848902
v 1.93170798 0.543515027 -1.62309206
v 2.08242202 0.547456026 -1.61741698
v 2.08631802 0.544340014 -1.62147105
v 2.08757901 0.540117025 -1.62687504
v 2.2310791 0.547905982 -1.61532998
v 2.23219204 0.543841004 -1.62050498
v 2.08757901 0.540117025 -1.62687504
v 2.08631802 0.544340014 -1.62147105
v 2.08242202 0.547456026 -1.61741698
v 2.21851802 0.550701976 -1.61185205
v 2.3422451 0.554023981 -1.60411298
v 2.3580451 0.550893009 -1.60943902
v 2.3607161 0.546997011 -1.61384594
v 1.60812104 0.539152026 -1.61521101
v 1.43129003 0.535197973 -1.61967897
v 1.42858601 0.537042975 -1.60363603
v 1.60493898 0.540951014 -1.59927702
v 1.76433098 0.54419601 -1.59499705
v 1.76821196 0.54250598 -1.61068296
v 1.77115905 0.541215003 -1.62258995
v 1.61054003 0.53777802 -1.62730598
v 1.43334603 0.533789992 -1.63185799
v 1.61143005 0.537253022 -1.63172305
v 1.43410695 0.533257008 -1.63630497
v 1.77223802 0.540722013 -1.62693799
v 1.77275801 0.539487004 -1.62848902
v 1.611956 0.535983026 -1.63321996
v 1.43469 0.531984985 -1.63782501
v 1.92777205 0.546187997 -1.605582
v 1.76821196 0.54250598 -1.61068296
v 1.76433098 0.54419601 -1.59499705
v 1.92442799 0.547616005 -1.59029901
v 2.08020711 0.550969005 -1.585899
v 2.08254099 0.549818993 -1.60050905
v 2.08138704 0.548879027 -1.61170197
v 1.93031299 0.545098007 -1.61718202
v 1.77115905 0.541215003 -1.62258995
v 1.93124497 0.544683993 -1.621418
v 1.77223802 0.540722013 -1.62693799
v 2.07325292 0.548358023 -1.616063
v 2.08242202 0.547456026 -1.61741698
v 1.93170798 0.543515027 -1.62309206
v 1.77275801 0.539487004 -1.62848902
v 2.22825909 0.553017974 -1.596066
v 2.08254099 0.549818993 -1.60050905
v 2.08020711 0.550969005 -1.585899
v 2.22664595 0.554010987 -1.58251405
v 2.35227609 0.556738973 -1.57927799
v 2.35381293 0.555770993 -1.59208798
v 2.3422451 0.554023981 -1.60411298
v 2.21776605 0.55200702 -1.60676801
v 2.08138704 0.548879027 -1.61170197
v 2.18306303 0.550961971 -1.61176896
v 2.07325292 0.548358023 -1.616063
v 2.21776605 0.55200702 -1.60676801
v 2.3422451 0.554023981 -1.60411298
v 2.21851802 0.550701976 -1.61185205
v 2.08242202 0.547456026 -1.61741698
v 1.00418103 0.516782999 -1.65233099
v 1.00788701 0.512266994 -1.65776801
v 1.00612199 0.513373971 -1.65647197
v 1.00305903 0.516752005 -1.65239096
v 1.00022197 0.520155013 -1.64814198
v 1.00134695 0.520186007 -1.64810801
v 1.05815995 0.521775007 -1.64677501
v 1.06080401 0.518337011 -1.65086102
v 1.06426299 0.513777018 -1.65611601
v 1.22843206 0.522938013 -1.64657497
v 1.23115897 0.518245995 -1.651353
v 1.22634995 0.526479006 -1.64284599
v 1.43469 0.531984985 -1.63782501
v 1.43621004 0.528358996 -1.641222
v 1.43819797 0.523554981 -1.645558
v 0.994023025 0.52343303 -1.62977803
v 0.998592019 0.521915019 -1.641891
v 0.997442007 0.521883011 -1.64191699
v 0.992801011 0.523398995 -1.62980402
v 0.988543987 0.524908006 -1.61782897
v 0.988003016 0.525434971 -1.61381996
v 1.04606402 0.52700299 -1.61249495
v 1.05150497 0.525021017 -1.62847102
v 1.05563605 0.523515999 -1.64059806
v 1.221506 0.529715002 -1.62460196
v 1.22446597 0.528255999 -1.63677096
v 1.21761 0.531633019 -1.60857105
v 1.42858601 0.537042975 -1.60363603
v 1.43129003 0.535197973 -1.61967897
v 1.43334603 0.533789992 -1.63185799
v 1.00025904 0.521364987 -1.64631498
v 1.05714595 0.522967994 -1.64502704
v 1.05815995 0.521775007 -1.64677501
v 1.00134695 0.520186007 -1.64810801
v 1.00022197 0.520155013 -1.64814198
v 0.999131978 0.521332979 -1.64634001
v 1.22555399 0.527714014 -1.64121497
v 1.43410695 0.533257008 -1.63630497
v 1.43469 0.531984985 -1.63782501
v 1.22634995 0.526479006 -1.64284599
vt 0.9375 0.416700006
vt 0.875 0.416700006
vt 0.875 0.5
vt 0.9375 0.5
vt 0.984399974 0.479200006
vt 1 0.416700006
vt 1 0.333299994
vt 0.9375 0.333299994
vt 0.875 0.333299994
vt 0.8125 0.416700006
vt 0.75 0.416700006
vt 0.75 0.5
vt 0.8125 0.5
vt 0.8125 0.333299994
vt 0.75 0.333299994
vt 0.9375 0.135399997
vt 1 0.135399997
vt 0.984399974 0.127599999
vt 0.9375 0.125
vt 0.875 0.125
vt 0.875 0.135399997
vt 0.875 0.145799994
vt 0.9375 0.145799994
vt 1 0.145799994
vt 0.8125 0.135399997
vt 0.8125 0.125
vt 0.75 0.125
vt 0.75 0.135399997
vt 0.75 0.145799994
vt 0.8125 0.145799994
vt 0.5 0.416700006
vt -0 0.416700006
vt -0 0.333299994
vt 0.5 0.333299994
vt 1 0.333299994
vt 1 0.416700006
vt 1 0.5
vt 0.5 0.5
vt -0 0.5
vt 0.5 0.416700006
vt 1 0.416700006
vt 1 0.5
vt 0.5 0.5
vt 0 0.5
vt 0 0.416700006
vt 0 0.333299994
vt 0.5 0.333299994
vt 1 0.333299994
vt 0.5 0.416700006
vt 1 0.416700006
vt 1 0.5
vt 0.5 0.5
vt 0 0.5
vt -0 0.416700006
vt -0 0.333299994
vt 0.5 0.333299994
vt 1 0.333299994
vt 0.5 0.135399997
vt 0.5 0.125
vt 1 0.125
vt 1 0.135399997
vt 1 0.145799994
vt 0.5 0.145799994
vt 0 0.145799994
vt 0 0.135399997
vt 0 0.125
vt 0.5 0.156200007
vt 1 0.156200007
vt 1 0.166700006
vt 0.5 0.166700006
vt 0 0.166700006
vt 0 0.156200007
vt 0.5 0.135399997
vt 0.5 0.125
vt 1 0.125
vt 1 0.135399997
vt 1 0.145799994
vt 0.5 0.145799994
vt 0 0.145799994
vt 0 0.135399997
vt 0 0.125
vt 0.5 0.156299993
vt 1 0.156200007
vt 1 0.166700006
vt 0.5 0.166700006
vt 0 0.166700006
vt 0 0.156299993
vt 0.5 0.135399997
vt 0.5 0.125
vt 1 0.125
vt 1 0.135399997
vt 1 0.145799994
vt 0.5 0.145799994
vt -0 0.145799994
vt -0 0.135399997
vt -0 0.125
vt 0.666700006 0.159700006
vt 0.5 0.156200007
vt 1 0.156299993
vt 1 0.166700006
vt 0.5 0.166700006
vt -0 0.166700006
vt 0.375 0.416700006
vt 0.5 0.416700006
vt 0.468800008 0.479200006
vt 0.375 0.5
vt 0.25 0.5
vt 0.25 0.416700006
vt 0.25 0.333299994
vt 0.375 0.333299994
vt 0.5 0.333299994
vt 0.125 0.416700006
vt 0.125 0.5
vt 0 0.5
vt 0 0.416700006
vt 0 0.333299994
vt 0.125 0.333299994
vt 0.375 0.135399997
vt 0.5 0.135399997
vt 0.5 0.145799994
vt 0.375 0.145799994
vt 0.25 0.145799994
vt 0.25 0.135399997
vt 0.25 0.125
vt 0.375 0.125
vt 0.468800008 0.127599999
vt 0.125 0.135399997
vt 0.125 0.145799994
vt 0 0.145799994
vt 0 0.135399997
vt 0 0.125
vt 0.125 0.125
vt 0.375 0.156200007
vt 0.25 0.156200007
vt 0.5 0.156200007
vt 0.5 0.166700006
vt 0.375 0.166700006
vt 0.25 0.166700006
vt 0.125 0.156200007
vt 0 0.156200007
vt 0.125 0.166700006
vt 0 0.166700006
vt 0.9375 0.416700006
vt 0.9375 0.5
vt 0.875 0.5
vt 0.875 0.416700006
vt 0.875 0.333299994
vt 0.9375 0.333299994
vt 1 0.333299994
vt 1 0.416700006
vt 0.984399974 0.479200006
vt 0.8125 0.416700006
vt 0.8125 0.5
vt 0.75 0.5
vt 0.75 0.416700006
vt 0.75 0.333299994
vt 0.8125 0.333299994
vt 0.9375 0.135399997
vt 0.9375 0.125
vt 0.984399974 0.127599999
vt 1 0.135399997
vt 1 0.145799994
vt 0.9375 0.145799994
vt 0.875 0.145799994
vt 0.875 0.135399997
vt 0.875 0.125
vt 0.8125 0.135399997
vt 0.8125 0.125
vt 0.8125 0.145799994
vt 0.75 0.145799994
vt 0.75 0.135399997
vt 0.75 0.125
vt 0.5 0.416700006
vt 0.5 0.333299994
vt -0 0.333299994
vt -0 0.416700006
vt -0 0.5
vt 0.5 0.5
vt 1 0.5
vt 1 0.416700006
vt 1 0.333299994
vt 0.5 0.416700006
vt 0.5 0.5
vt 1 0.5
vt 1 0.416700006
vt 1 0.333299994
vt 0.5 0.333299994
vt 0 0.333299994
vt 0 0.416700006
vt 0 0.5
vt 0.5 0.416700006
vt 0.5 0.5
vt 1 0.5
vt 1 0.416700006
vt 1 0.333299994
vt 0.5 0.333299994
vt -0 0.333299994
vt -0 0.416700006
vt 0 0.5
vt 0.5 0.135399997
vt 1 0.135399997
vt 1 0.125
vt 0.5 0.125
vt 0 0.125
vt 0 0.135399997
vt 0 0.145799994
vt 0.5 0.145799994
vt 1 0.145799994
vt 0.5 0.156200007
vt 1 0.156200007
vt 0 0.156200007
vt 0 0.166700006
vt 0.5 0.166700006
vt 1 0.166700006
vt 0.5 0.135399997
vt 1 0.135399997
vt 1 0.125
vt 0.5 0.125
vt 0 0.125
vt 0 0.135399997
vt 0 0.145799994
vt 0.5 0.145799994
vt 1 0.145799994
vt 0.5 0.156299993
vt 1 0.156200007
vt 0 0.156299993
vt 0 0.166700006
vt 0.5 0.166700006
vt 1 0.166700006
vt 0.5 0.135399997
vt 1 0.135399997
vt 1 0.125
vt 0.5 0.125
vt -0 0.125
vt -0 0.135399997
vt -0 0.145799994
vt 0.5 0.145799994
vt 1 0.145799994
vt 0.666700006 0.159700006
vt 1 0.156299993
vt 0.5 0.156200007
vt -0 0.166700006
vt 0.5 0.166700006
vt 1 0.166700006
vt 0.375 0.416700006
vt 0.375 0.5
vt 0.468800008 0.479200006
vt 0.5 0.416700006
vt 0.5 0.333299994
vt 0.375 0.333299994
vt 0.25 0.333299994
vt 0.25 0.416700006
vt 0.25 0.5
vt 0.125 0.416700006
vt 0.125 0.5
vt 0.125 0.333299994
vt 0 0.333299994
vt 0 0.416700006
vt 0 0.5
vt 0.375 0.135399997
vt 0.375 0.145799994
vt 0.5 0.145799994
vt 0.5 0.135399997
vt 0.468800008 0.127599999
vt 0.375 0.125
vt 0.25 0.125
vt 0.25 0.135399997
vt 0.25 0.145799994
vt 0.125 0.135399997
vt 0.125 0.145799994
vt 0.125 0.125
vt 0 0.125
vt 0 0.135399997
vt 0 0.145799994
vt 0.375 0.156200007
vt 0.25 0.156200007
vt 0.25 0.166700006
vt 0.375 0.166700006
vt 0.5 0.166700006
vt 0.5 0.156200007
vt 0.125 0.156200007
vt 0 0.156200007
vt 0 0.166700006
vt 0.125 0.166700006
vn 0.0164000001 0.730599999 0.682600021
vn 0.0138999997 0.761099994 0.648500025
vn 0.0300999992 0.578499973 0.815100014
vn 0.0306000002 0.558099985 0.829200029
vn 0.0306000002 0.543299973 0.838999987
vn 0.0266999993 0.597299993 0.801500022
vn -0.00389999989 0.907299995 0.420399994
vn -0.00829999987 0.938399971 0.345299989
vn -0.00889999978 0.942300022 0.334600002
vn 0.0104 0.798200011 0.602299988
vn 0.00930000003 0.816100001 0.577700019
vn 0.0162000004 0.740700006 0.671599984
vn 0.0243999995 0.656799972 0.753600001
vn -0.00760000013 0.945200026 0.326400012
vn -0.00449999981 0.943300009 0.331800014
vn -0.0200999994 0.99059999 0.134900004
vn -0.0194000006 0.989300013 0.144199997
vn -0.0222999994 0.995000005 0.0974999964
vn -0.0226000007 0.995100021 0.0962999985
vn -0.0229000002 0.995400012 0.0931999981
vn -0.0203000009 0.990999997 0.132100001
vn -0.00889999978 0.942300022 0.334600002
vn -0.00829999987 0.938399971 0.345299989
vn -0.00389999989 0.907299995 0.420399994
vn -0.0196000002 0.992399991 0.121299997
vn -0.0221999995 0.995999992 0.0861999989
vn -0.0205000006 0.996599972 0.0791999996
vn -0.0184000004 0.994000018 0.107900001
vn -0.00449999981 0.943300009 0.331800014
vn -0.00760000013 0.945200026 0.326400012
vn 0.00469999993 0.681200027 0.731999993
vn 0.00359999994 0.708400011 0.705799997
vn 0.0027999999 0.751900017 0.659200013
vn 0.00270000007 0.729399979 0.684000015
vn -0.00079999998 0.734600008 0.67839998
vn 0.00230000005 0.687099993 0.726499975
vn 0.00329999998 0.678600013 0.734499991
vn 0.0046000001 0.675400019 0.737399995
vn 0.00260000001 0.7051 0.708999991
vn 0.00179999997 0.751399994 0.659799993
vn 0.00359999994 0.708400011 0.705799997
vn 0.00260000001 0.7051 0.708999991
vn 0.000899999985 0.749199986 0.662299991
vn 0.00400000019 0.779500008 0.626399994
vn 0.00419999985 0.782999992 0.621900022
vn 0.00319999992 0.803200006 0.595600009
vn 0.00150000001 0.785300016 0.619000018
vn 0.0027999999 0.751900017 0.659200013
vn 0.00870000012 0.809000015 0.587700009
vn 0.00419999985 0.782999992 0.621900022
vn 0.00400000019 0.779500008 0.626399994
vn 0.00989999995 0.779200017 0.626699984
vn 0.0162000004 0.740700006 0.671599984
vn 0.00930000003 0.816100001 0.577700019
vn -0.00449999981 0.943300009 0.331800014
vn 0 0.899399996 0.437099993
vn 0.00319999992 0.803200006 0.595600009
vn -0.0184000004 0.993099988 0.115400001
vn -0.0184000004 0.993200004 0.1153
vn -0.0211999994 0.992600024 0.119099997
vn -0.0210999995 0.992600024 0.119199999
vn -0.0212999992 0.992399991 0.121399999
vn -0.0185000002 0.992799997 0.118199997
vn -0.0190999992 0.993499994 0.112199999
vn -0.0185000002 0.993799984 0.109399997
vn -0.0179999992 0.993799984 0.1096
vn -0.00930000003 0.917800009 0.396899998
vn -0.0127999997 0.919200003 0.3935
vn -0.00079999998 0.734600008 0.67839998
vn 0.00270000007 0.729399979 0.684000015
vn 0.0027999999 0.751900017 0.659200013
vn -0.00939999986 0.924399972 0.381300002
vn -0.0198999997 0.995000005 0.0974000022
vn -0.0192000009 0.995000005 0.0979000032
vn -0.0179999992 0.993799984 0.1096
vn -0.0185000002 0.993799984 0.109399997
vn -0.0190999992 0.993499994 0.112199999
vn -0.0208999999 0.994799972 0.0988999978
vn -0.0206000004 0.996599972 0.0800999999
vn -0.0198999997 0.996299982 0.0835999995
vn -0.0194000006 0.996200025 0.0844999999
vn -0.0109999999 0.935400009 0.353300005
vn -0.00939999986 0.924399972 0.381300002
vn 0.0027999999 0.751900017 0.659200013
vn 0.00150000001 0.785300016 0.619000018
vn 0.00319999992 0.803200006 0.595600009
vn -0.0111999996 0.941299975 0.337399989
vn -0.0182000007 0.995899975 0.0879999995
vn -0.0193000007 0.996800005 0.0776000023
vn -0.0194000006 0.996200025 0.0844999999
vn -0.0198999997 0.996299982 0.0835999995
vn -0.0206000004 0.996599972 0.0800999999
vn -0.0131000001 0.986299992 0.164299995
vn -0.00449999981 0.943300009 0.331800014
vn -0.0184000004 0.994000018 0.107900001
vn -0.0205000006 0.996599972 0.0791999996
vn -0.00879999995 0.943199992 0.331999987
vn -0.0131000001 0.986299992 0.164299995
vn -0.0111999996 0.941299975 0.337399989
vn 0.00319999992 0.803200006 0.595600009
vn 0 0.899399996 0.437099993
vn -0.00449999981 0.943300009 0.331800014
vn 0.00490000006 0.772700012 0.634800017
vn 0.0102000004 0.779500008 0.626299977
vn 0.0197999999 0.77640003 0.629899979
vn 0.000300000014 0.763499975 0.645699978
vn -0.00200000009 0.744599998 0.667500019
vn -0.00350000011 0.752900004 0.658100009
vn -0.0074 0.789499998 0.613600016
vn -0.00430000015 0.804499984 0.593900025
vn -0.00380000006 0.815500021 0.578599989
vn -0.0013 0.719699979 0.694299996
vn 0.000300000014 0.709399998 0.70480001
vn 0.00329999998 0.678600013 0.734499991
vn 0.00230000005 0.687099993 0.726499975
vn -0.00079999998 0.734600008 0.67839998
vn -0.00510000018 0.761900008 0.647599995
vn -0.0244999994 0.990800023 0.1329
vn -0.0248000007 0.990700006 0.133599997
vn -0.0249000005 0.990800023 0.133200005
vn -0.0248000007 0.990800023 0.132599995
vn -0.0248000007 0.991100013 0.1303
vn -0.0243999995 0.99119997 0.130099997
vn -0.0241 0.991100013 0.130500004
vn -0.0241 0.99089998 0.132499993
vn -0.0248000007 0.990700006 0.133599997
vn -0.0237000007 0.991900027 0.124700002
vn -0.0240000002 0.99180001 0.125799999
vn -0.0212999992 0.992399991 0.121399999
vn -0.0210999995 0.992600024 0.119199999
vn -0.0211999994 0.992600024 0.119099997
vn -0.0236000009 0.991900027 0.124899998
vn -0.0175000001 0.935500026 0.352800012
vn -0.0178999994 0.932600021 0.360399991
vn -0.0193000007 0.954900026 0.296299994
vn -0.00380000006 0.815500021 0.578599989
vn -0.00430000015 0.804499984 0.593900025
vn -0.0074 0.789499998 0.613600016
vn -0.0164999999 0.926100016 0.376700014
vn -0.0127999997 0.919200003 0.3935
vn -0.00510000018 0.761900008 0.647599995
vn -0.00079999998 0.734600008 0.67839998
vn 0.0164999999 0.730599999 -0.682600021
vn 0.0306000002 0.558099985 -0.829200029
vn 0.0300999992 0.578499973 -0.815100014
vn 0.0138999997 0.761099994 -0.648500025
vn -0.00889999978 0.942300022 -0.334600002
vn -0.00829999987 0.938399971 -0.345299989
vn -0.00389999989 0.907299995 -0.420399994
vn 0.0266999993 0.597299993 -0.801500022
vn 0.0306000002 0.543299973 -0.838999987
vn 0.0104 0.798200011 -0.602299988
vn 0.0243999995 0.656799972 -0.753600001
vn 0.0162000004 0.740700006 -0.671599984
vn 0.00930000003 0.816100001 -0.577700019
vn -0.00449999981 0.943300009 -0.331800014
vn -0.00760000013 0.945200026 -0.326400012
vn -0.0200999994 0.99059999 -0.134900004
vn -0.0226000007 0.995100021 -0.0962999985
vn -0.0222999994 0.995000005 -0.0974999964
vn -0.0194000006 0.989300013 -0.144199997
vn -0.00389999989 0.907299995 -0.420399994
vn -0.00829999987 0.938399971 -0.345299989
vn -0.00889999978 0.942300022 -0.334600002
vn -0.0203000009 0.990999997 -0.132100001
vn -0.0229000002 0.995400012 -0.0931999981
vn -0.0196000002 0.992399991 -0.121299997
vn -0.0221999995 0.995999992 -0.0861999989
vn -0.00760000013 0.945200026 -0.326400012
vn -0.00449999981 0.943300009 -0.331800014
vn -0.0184000004 0.994000018 -0.107900001
vn -0.0205000006 0.996599972 -0.0791999996
vn 0.00469999993 0.681200027 -0.731999993
vn 0.00270000007 0.729399979 -0.684000015
vn 0.0027999999 0.751900017 -0.659200013
vn 0.00359999994 0.708400011 -0.705799997
vn 0.00260000001 0.7051 -0.708999991
vn 0.0046000001 0.675400019 -0.737399995
vn 0.00329999998 0.678600013 -0.734499991
vn 0.00230000005 0.687099993 -0.726499975
vn -0.00079999998 0.734600008 -0.67839998
vn 0.00179999997 0.751399994 -0.659799993
vn 0.000899999985 0.749199986 -0.662299991
vn 0.00260000001 0.7051 -0.708999991
vn 0.00359999994 0.708400011 -0.705799997
vn 0.0027999999 0.751900017 -0.659200013
vn 0.00150000001 0.785300016 -0.619000018
vn 0.00319999992 0.803200006 -0.595600009
vn 0.00419999985 0.782999992 -0.621900022
vn 0.00400000019 0.779500008 -0.626399994
vn 0.00870000012 0.809000015 -0.587700009
vn 0.00989999995 0.779200017 -0.626699984
vn 0.00400000019 0.779500008 -0.626399994
vn 0.00419999985 0.782999992 -0.621900022
vn 0.00319999992 0.803200006 -0.595600009
vn 0 0.899399996 -0.437099993
vn -0.00449999981 0.943300009 -0.331800014
vn 0.00930000003 0.816100001 -0.577700019
vn 0.0162000004 0.740700006 -0.671599984
vn -0.0184000004 0.993099988 -0.115500003
vn -0.0210999995 0.992600024 -0.119199999
vn -0.0211999994 0.992600024 -0.119099997
vn -0.0184000004 0.993200004 -0.1153
vn -0.0179999992 0.993799984 -0.1096
vn -0.0185000002 0.993799984 -0.109399997
vn -0.0190999992 0.993499994 -0.112199999
vn -0.0185000002 0.992799997 -0.118199997
vn -0.0212999992 0.992399991 -0.121399999
vn -0.00930000003 0.917800009 -0.396899998
vn -0.0127999997 0.919200003 -0.3935
vn -0.00939999986 0.924399972 -0.381300002
vn 0.0027999999 0.751900017 -0.659200013
vn 0.00270000007 0.729399979 -0.684000015
vn -0.00079999998 0.734600008 -0.67839998
vn -0.0198999997 0.995000005 -0.0974000022
vn -0.0185000002 0.993799984 -0.109399997
vn -0.0179999992 0.993799984 -0.1096
vn -0.0192000009 0.995000005 -0.0979000032
vn -0.0194000006 0.996200025 -0.0844999999
vn -0.0198999997 0.996299982 -0.0835999995
vn -0.0206000004 0.996599972 -0.0800999999
vn -0.0208999999 0.994799972 -0.0988999978
vn -0.0190999992 0.993499994 -0.112199999
vn -0.0109999999 0.935400009 -0.353300005
vn -0.00939999986 0.924399972 -0.381300002
vn -0.0111999996 0.941299975 -0.337399989
vn 0.00319999992 0.803200006 -0.595600009
vn 0.00150000001 0.785300016 -0.619000018
vn 0.0027999999 0.751900017 -0.659200013
vn -0.0182000007 0.995899975 -0.0879999995
vn -0.0198999997 0.996299982 -0.0835999995
vn -0.0194000006 0.996200025 -0.0844999999
vn -0.0193000007 0.996800005 -0.0776000023
vn -0.0205000006 0.996599972 -0.0791999996
vn -0.0184000004 0.994000018 -0.107900001
vn -0.00449999981 0.943300009 -0.331800014
vn -0.0131000001 0.986299992 -0.164299995
vn -0.0206000004 0.996599972 -0.0800999999
vn -0.00879999995 0.943199992 -0.331999987
vn -0.0111999996 0.941299975 -0.337399989
vn -0.0131000001 0.986299992 -0.164299995
vn -0.00449999981 0.943300009 -0.331800014
vn 0 0.899399996 -0.437099993
vn 0.00319999992 0.803200006 -0.595600009
vn 0.00490000006 0.772700012 -0.634800017
vn 0.000300000014 0.763499975 -0.645699978
vn 0.0197999999 0.77640003 -0.629899979
vn 0.0102000004 0.779500008 -0.626299977
vn -0.00380000006 0.815500021 -0.578599989
vn -0.00430000015 0.804499984 -0.593900025
vn -0.0074 0.789499998 -0.613600016
vn -0.00350000011 0.752900004 -0.658100009
vn -0.00200000009 0.744599998 -0.667500019
vn -0.0013 0.719699979 -0.694299996
vn 0.000300000014 0.709399998 -0.70480001
vn -0.00510000018 0.761900008 -0.647599995
vn -0.00079999998 0.734600008 -0.67839998
vn 0.00230000005 0.687099993 -0.726499975
vn 0.00329999998 0.678600013 -0.734499991
vn -0.0244999994 0.990800023 -0.1329
vn -0.0248000007 0.990800023 -0.132599995
vn -0.0249000005 0.990800023 -0.133200005
vn -0.0248000007 0.990700006 -0.133599997
vn -0.0248000007 0.990700006 -0.133599997
vn -0.0241 0.99089998 -0.132499993
vn -0.0241 0.991100013 -0.130500004
vn -0.0243999995 0.99119997 -0.130099997
vn -0.0248000007 0.991100013 -0.1303
vn -0.0237000007 0.991900027 -0.124700002
vn -0.0240000002 0.99180001 -0.125799999
vn -0.0236000009 0.991900027 -0.124899998
vn -0.0211999994 0.992600024 -0.119099997
vn -0.0210999995 0.992600024 -0.119199999
vn -0.0212999992 0.992399991 -0.121399999
vn -0.0175999999 0.935500026 -0.352800012
vn -0.0178999994 0.932600021 -0.360399991
vn -0.0074 0.789499998 -0.613600016
vn -0.00430000015 0.804499984 -0.593900025
vn -0.00380000006 0.815500021 -0.578599989
vn -0.0193000007 0.954900026 -0.296299994
vn -0.0164999999 0.926100016 -0.376700014
vn -0.0127999997 0.919200003 -0.3935
vn -0.00079999998 0.734600008 -0.67839998
vn -0.00510000018 0.761900008 -0.647599995
f 1/1/1 2/2/2 3/3/3
f 1/1/1 3/3/3 4/4/4
f 1/1/1 4/4/4 5/5/5
f 1/1/1 5/5/5 6/6/6
f 1/1/1 6/6/6 7/7/7
f 1/1/1 7/7/7 8/8/8
f 1/1/1 8/8/8 9/9/9
f 1/1/1 9/9/9 2/2/2
f 10/10/10 11/11/11 12/12/12
f 10/10/10 12/12/12 13/13/13
f 10/10/10 13/13/13 3/3/3
f 10/10/10 3/3/3 2/2/2
f 10/10/10 2/2/2 9/9/9
f 10/10/10 9/9/9 14/14/14
f 10/10/10 14/14/14 15/15/15
f 10/10/10 15/15/15 11/11/11
f 16/16/16 17/17/17 18/18/18
f 16/16/16 18/18/18 19/19/19
f 16/16/16 19/19/19 20/20/20
f 16/16/16 20/20/20 21/21/21
f 16/16/16 21/21/21 22/22/22
f 16/16/16 22/22/22 23/23/23
f 16/16/16 23/23/23 24/24/24
f 16/16/16 24/24/24 17/17/17
f 25/25/25 21/21/21 20/20/20
f 25/25/25 20/20/20 26/26/26
f 25/25/25 26/26/26 27/27/27
f 25/25/25 27/27/27 28/28/28
f 25/25/25 28/28/28 29/29/29
f 25/25/25 29/29/29 30/30/30
f 25/25/25 30/30/30 22/22/22
f 25/25/25 22/22/22 21/21/21
f 31/31/31 32/32/32 33/33/33
f 31/31/31 33/33/33 34/34/34
f 31/31/31 34/34/34 35/35/35
f 31/31/31 35/35/35 36/36/36
f 31/31/31 36/36/36 37/37/37
f 31/31/31 37/37/37 38/38/38
f 31/31/31 38/38/38 39/39/39
f 31/31/31 39/39/39 32/32/32
f 40/40/40 41/41/41 42/42/42
f 40/40/40 42/42/42 43/43/43
f 40/40/40 43/43/43 44/44/44
f 40/40/40 44/44/44 45/45/45
f 40/40/40 45/45/45 46/46/46
f 40/40/40 46/46/46 47/47/47
f 40/40/40 47/47/47 48/48/48
f 40/40/40 48/48/48 41/41/41
f 49/49/49 50/50/50 51/51/51
f 49/49/49 51/51/51 52/52/52
f 49/49/49 52/52/52 53/53/53
f 49/49/49 53/53/53 54/54/54
f 49/49/49 54/54/54 55/55/55
f 49/49/49 55/55/55 56/56/56
f 49/49/49 56/56/56 57/57/57
f 49/49/49 57/57/57 50/50/50
f 58/58/58 59/59/59 60/60/60
f 58/58/58 60/60/60 61/61/61
f 58/58/58 61/61/61 62/62/62
f 58/58/58 62/62/62 63/63/63
f 58/58/58 63/63/63 64/64/64
f 58/58/58 64/64/64 65/65/65
f 58/58/58 65/65/65 66/66/66
f 58/58/58 66/66/66 59/59/59
f 67/67/67 63/63/63 62/62/62
f 67/67/67 62/62/62 68/68/68
f 67/67/67 68/68/68 69/69/69
f 67/67/67 69/69/69 70/70/70
f 67/67/67 70/70/70 71/71/71
f 67/67/67 71/71/71 72/72/72
f 67/67/67 72/72/72 64/64/64
f 67/67/67 64/64/64 63/63/63
f 73/73/73 74/74/74 75/75/75
f 73/73/73 75/75/75 76/76/76
f 73/73/73 76/76/76 77/77/77
f 73/73/73 77/77/77 78/78/78
f 73/73/73 78/78/78 79/79/79
f 73/73/73 79/79/79 80/80/80
f 73/73/73 80/80/80 81/81/81
f 73/73/73 81/81/81 74/74/74
f 82/82/82 78/78/78 77/77/77
f 82/82/82 77/77/77 83/83/83
f 82/82/82 83/83/83 84/84/84
f 82/82/82 84/84/84 85/85/85
f 82/82/82 85/85/85 86/86/86
f 82/82/82 86/86/86 87/87/87
f 82/82/82 87/87/87 79/79/79
f 82/82/82 79/79/79 78/78/78
f 88/88/88 89/89/89 90/90/90
f 88/88/88 90/90/90 91/91/91
f 88/88/88 91/91/91 92/92/92
f 88/88/88 92/92/92 93/93/93
f 88/88/88 93/93/93 94/94/94
f 88/88/88 94/94/94 95/95/95
f 88/88/88 95/95/95 96/96/96
f 88/88/88 96/96/96 89/89/89
f 97/97/97 98/98/98 92/92/92
f 97/97/97 92/92/92 99/99/99
f 97/97/97 99/99/99 100/100/100
f 97/97/97 100/100/100 101/101/101
f 97/97/97 101/101/101 102/102/102
f 97/97/97 102/102/102 98/98/98
f 103/103/103 104/104/104 105/105/105
f 103/103/103 105/105/105 106/106/106
f 103/103/103 106/106/106 107/107/107
f 103/103/103 107/107/107 108/108/108
f 103/103/103 108/108/108 109/109/109
f 103/103/103 109/109/109 110/110/110
f 103/103/103 110/110/110 111/111/111
f 103/103/103 111/111/111 104/104/104
f 112/112/112 108/108/108 107/107/107
f 112/112/112 107/107/107 113/113/113
f 112/112/112 113/113/113 114/114/114
f 112/112/112 114/114/114 115/115/115
f 112/112/112 115/115/115 116/116/116
f 112/112/112 116/116/116 117/117/117
f 112/112/112 117/117/117 109/109/109
f 112/112/112 109/109/109 108/108/108
f 118/118/118 119/119/119 120/120/120
f 118/118/118 120/120/120 121/121/121
f 118/118/118 121/121/121 122/122/122
f 118/118/118 122/122/122 123/123/123
f 118/118/118 123/123/123 124/124/124
f 118/118/118 124/124/124 125/125/125
f 118/118/118 125/125/125 126/126/126
f 118/118/118 126/126/126 119/119/119
f 127/127/127 123/123/123 122/122/122
f 127/127/127 122/122/122 128/128/128
f 127/127/127 128/128/128 129/129/129
f 127/127/127 129/129/129 130/130/130
f 127/127/127 130/130/130 131/131/131
f 127/127/127 131/131/131 132/132/132
f 127/127/127 132/132/132 124/124/124
f 127/127/127 124/124/124 123/123/123
f 133/133/133 134/134/134 122/122/122
f 133/133/133 122/122/122 121/121/121
f 133/133/133 121/121/121 120/120/120
f 133/133/133 120/120/120 135/135/135
f 133/133/133 135/135/135 136/136/136
f 133/133/133 136/136/136 137/137/137
f 133/133/133 137/137/137 138/138/138
f 133/133/133 138/138/138 134/134/134
f 139/139/139 140/140/140 129/129/129
f 139/139/139 129/129/129 128/128/128
f 139/139/139 128/128/128 122/122/122
f 139/139/139 122/122/122 134/134/134
f 139/139/139 134/134/134 138/138/138
f 139/139/139 138/138/138 141/141/141
f 139/139/139 141/141/141 142/142/142
f 139/139/139 142/142/142 140/140/140
f 143/143/143 144/144/144 145/145/145
f 143/143/143 145/145/145 146/146/146
f 143/143/143 146/146/146 147/147/147
f 143/143/143 147/147/147 148/148/148
f 143/143/143 148/148/148 149/149/149
f 143/143/143 149/149/149 150/150/150
f 143/143/143 150/150/150 151/151/151
f 143/143/143 151/151/151 144/144/144
f 152/152/152 153/153/153 154/154/154
f 152/152/152 154/154/154 155/155/155
f 152/152/152 155/155/155 156/156/156
f 152/152/152 156/156/156 157/157/157
f 152/152/152 157/157/157 147/147/147
f 152/152/152 147/147/147 146/146/146
f 152/152/152 146/146/146 145/145/145
f 152/152/152 145/145/145 153/153/153
f 158/158/158 159/159/159 160/160/160
f 158/158/158 160/160/160 161/161/161
f 158/158/158 161/161/161 162/162/162
f 158/158/158 162/162/162 163/163/163
f 158/158/158 163/163/163 164/164/164
f 158/158/158 164/164/164 165/165/165
f 158/158/158 165/165/165 166/166/166
f 158/158/158 166/166/166 159/159/159
f 167/167/167 168/168/168 166/166/166
f 167/167/167 166/166/166 165/165/165
f 167/167/167 165/165/165 164/164/164
f 167/167/167 164/164/164 169/169/169
f 167/167/167 169/169/169 170/170/170
f 167/167/167 170/170/170 171/171/171
f 167/167/167 171/171/171 172/172/172
f 167/167/167 172/172/172 168/168/168
f 173/173/173 174/174/174 175/175/175
f 173/173/173 175/175/175 176/176/176
f 173/173/173 176/176/176 177/177/177
f 173/173/173 177/177/177 178/178/178
f 173/173/173 178/178/178 179/179/179
f 173/173/173 179/179/179 180/180/180
f 173/173/173 180/180/180 181/181/181
f 173/173/173 181/181/181 174/174/174
f 182/182/182 183/183/183 184/184/184
f 182/182/182 184/184/184 185/185/185
f 182/182/182 185/185/185 186/186/186
f 182/182/182 186/186/186 187/187/187
f 182/182/182 187/187/187 188/188/188
f 182/182/182 188/188/188 189/189/189
f 182/182/182 189/189/189 190/190/190
f 182/182/182 190/190/190 183/183/183
f 191/191/191 192/192/192 193/193/193
f 191/191/191 193/193/193 194/194/194
f 191/191/191 194/194/194 195/195/195
f 191/191/191 195/195/195 196/196/196
f 191/191/191 196/196/196 197/197/197
f 191/191/191 197/197/197 198/198/198
f 191/191/191 198/198/198 199/199/199
f 191/191/191 199/199/199 192/192/192
f 200/200/200 201/201/201 202/202/202
f 200/200/200 202/202/202 203/203/203
f 200/200/200 203/203/203 204/204/204
f 200/200/200 204/204/204 205/205/205
f 200/200/200 205/205/205 206/206/206
f 200/200/200 206/206/206 207/207/207
f 200/200/200 207/207/207 208/208/208
f 200/200/200 208/208/208 201/201/201
f 209/209/209 210/210/210 208/208/208
f 209/209/209 208/208/208 207/207/207
f 209/209/209 207/207/207 206/206/206
f 209/209/209 206/206/206 211/211/211
f 209/209/209 211/211/211 212/212/212
f 209/209/209 212/212/212 213/213/213
f 209/209/209 213/213/213 214/214/214
f 209/209/209 214/214/214 210/210/210
f 215/215/215 216/216/216 217/217/217
f 215/215/215 217/217/217 218/218/218
f 215/215/215 218/218/218 219/219/219
f 215/215/215 219/219/219 220/220/220
f 215/215/215 220/220/220 221/221/221
f 215/215/215 221/221/221 222/222/222
f 215/215/215 222/222/222 223/223/223
f 215/215/215 223/223/223 216/216/216
f 224/224/224 225/225/225 223/223/223
f 224/224/224 223/223/223 222/222/222
f 224/224/224 222/222/222 221/221/221
f 224/224/224 221/221/221 226/226/226
f 224/224/224 226/226/226 227/227/227
f 224/224/224 227/227/227 228/228/228
f 224/224/224 228/228/228 229/229/229
f 224/224/224 229/229/229 225/225/225
f 230/230/230 231/231/231 232/232/232
f 230/230/230 232/232/232 233/233/233
f 230/230/230 233/233/233 234/234/234
f 230/230/230 234/234/234 235/235/235
f 230/230/230 235/235/235 236/236/236
f 230/230/230 236/236/236 237/237/237
f 230/230/230 237/237/237 238/238/238
f 230/230/230 238/238/238 231/231/231
f 239/239/239 240/240/240 238/238/238
f 239/239/239 238/238/238 241/241/241
f 239/239/239 241/241/241 242/242/242
f 239/239/239 242/242/242 243/243/243
f 239/239/239 243/243/243 244/244/244
f 239/239/239 244/244/244 240/240/240
f 245/245/245 246/246/246 247/247/247
f 245/245/245 247/247/247 248/248/248
f 245/245/245 248/248/248 249/249/249
f 245/245/245 249/249/249 250/250/250
f 245/245/245 250/250/250 251/251/251
f 245/245/245 251/251/251 252/252/252
f 245/245/245 252/252/252 253/253/253
f 245/245/245 253/253/253 246/246/246
f 254/254/254 255/255/255 253/253/253
f 254/254/254 253/253/253 252/252/252
f 254/254/254 252/252/252 251/251/251
f 254/254/254 251/251/251 256/256/256
f 254/254/254 256/256/256 257/257/257
f 254/254/254 257/257/257 258/258/258
f 254/254/254 258/258/258 259/259/259
f 254/254/254 259/259/259 255/255/255
f 260/260/260 261/261/261 262/262/262
f 260/260/260 262/262/262 263/263/263
f 260/260/260 263/263/263 264/264/264
f 260/260/260 264/264/264 265/265/265
f 260/260/260 265/265/265 266/266/266
f 260/260/260 266/266/266 267/267/267
f 260/260/260 267/267/267 268/268/268
f 260/260/260 268/268/268 261/261/261
f 269/269/269 270/270/270 268/268/268
f 269/269/269 268/268/268 267/267/267
f 269/269/269 267/267/267 266/266/266
f 269/269/269 266/266/266 271/271/271
f 269/269/269 271/271/271 272/272/272
f 269/269/269 272/272/272 273/273/273
f 269/269/269 273/273/273 274/274/274
f 269/269/269 274/274/274 270/270/270
f 275/275/275 261/261/261 268/268/268
f 275/275/275 268/268/268 276/276/276
f 275/275/275 276/276/276 277/277/277
f 275/275/275 277/277/277 278/278/278
f 275/275/275 278/278/278 279/279/279
f 275/275/275 279/279/279 280/280/280
f 275/275/275 280/280/280 262/262/262
f 275/275/275 262/262/262 261/261/261
f 281/281/281 270/270/270 274/274/274
f 281/281/281 274/274/274 282/282/282
f 281/281/281 282/282/282 283/283/283
f 281/281/281 283/283/283 284/284/284
f 281/281/281 284/284/284 277/277/277
f 281/281/281 277/277/277 276/276/276
f 281/281/281 276/276/276 268/268/268
f 281/281/281 268/268/268 270/270/270
