# Generated by lxe_pbrt_scene_convert
v -4.43035412 -0.00439100014 1.21748602
v -4.42437601 -0.0120050004 1.17097998
v -4.42021894 -0.0115809999 1.17342997
v -4.42634296 -0.00320099993 1.22037697
v -4.50069714 -0.0091380002 1.02107596
v -4.42010212 -0.0114519997 1.17148101
v -4.42404079 -0.0125350002 1.16937804
v -4.50521708 -0.010915 1.01955199
v -4.42437601 -0.0120050004 1.17097998
v -4.42404079 -0.0125350002 1.16937804
v -4.42010212 -0.0114519997 1.17148101
v -4.42021894 -0.0115809999 1.17342997
v -4.59022617 -0.00430600019 0.828953981
v -4.50069714 -0.0091380002 1.02107596
v -4.50521708 -0.010915 1.01955199
v -4.59583616 -0.00662299991 0.824173987
v -4.59336901 -0.00350000011 0.822879016
v -4.59022617 -0.00430600019 0.828953981
v -4.59583616 -0.00662299991 0.824173987
v -4.5986681 -0.00699099991 0.817699015
v -4.64505005 -0.00506100012 0.687039018
v -4.64005089 -0.001498 0.685761988
v -4.59336901 -0.00350000011 0.822879016
v -4.71572208 0.000338999991 0.421997994
v -4.64005089 -0.001498 0.685761988
v -4.64505005 -0.00506100012 0.687039018
v -4.72115803 -0.00315100001 0.42118299
v -4.76589394 0.000735000009 0.128248006
v -4.71572208 0.000338999991 0.421997994
v -4.72115803 -0.00315100001 0.42118299
v -4.77171993 -0.00288000004 0.125363007
v -4.78004885 -0.00290099997 0
v -4.77532816 0.000302 0
v -4.76589394 0.000735000009 0.128248006
v -4.77171993 -0.00288000004 0.125363007
v -4.42299414 -0.00630899984 1.174142
v -4.42288303 -0.00651999982 1.17411399
v -4.42276478 -0.006391 1.17216504
v -4.42287588 -0.00618000003 1.17219305
v -4.5961442 0.00177199999 0.823590994
v -4.5960331 0.00156100001 0.82356298
v -4.64271498 0.00356299989 0.686446011
v -4.64282608 0.0037740001 0.686474979
v -4.76866913 0.00600699987 0.128960997
v -4.76855803 0.0057959999 0.128931999
v -4.77799177 0.00536300009 0
v -4.77810287 0.00557400007 0
v -4.64282608 0.0037740001 0.686474979
v -4.64271498 0.00356299989 0.686446011
v -4.71838617 0.00540000014 0.422681987
v -4.7184968 0.00561100012 0.422710001
v -4.7184968 0.00561100012 0.422710001
v -4.71838617 0.00540000014 0.422681987
v -4.76855803 0.0057959999 0.128931999
v -4.76866913 0.00600699987 0.128960997
v -4.50347185 -0.0038660001 1.02178895
v -4.50336123 -0.00407700008 1.02175999
v -4.59288883 0.000754999986 0.829638004
v -4.59299994 0.000966000021 0.829666972
v -4.59299994 0.000966000021 0.829666972
v -4.59288883 0.000754999986 0.829638004
v -4.5960331 0.00156100001 0.82356298
v -4.5961442 0.00177199999 0.823590994
v -4.42287588 -0.00618000003 1.17219305
v -4.42276478 -0.006391 1.17216504
v -4.50336123 -0.00407700008 1.02175999
v -4.50347185 -0.0038660001 1.02178895
v -4.42911816 0.00207099994 1.22108996
v -4.42900705 0.00186099997 1.22106099
v -4.42288303 -0.00651999982 1.17411399
v -4.42299414 -0.00630899984 1.174142
v -4.4271512 -0.00673299981 1.17169201
v -4.42666578 -0.00765600009 1.17156804
v -4.43264198 -4.09999993e-05 1.21807301
v -4.43312788 0.000881000014 1.21819794
v -4.42681599 -0.00726300012 1.17009103
v -4.42633009 -0.00818500016 1.16996598
v -4.42666578 -0.00765600009 1.17156804
v -4.4271512 -0.00673299981 1.17169201
v -4.78282404 0.00237099989 0
v -4.78233814 0.00144899997 0
v -4.77400923 0.00146900001 0.125951007
v -4.77449512 0.00239200005 0.126075
v -4.72393179 0.00212100009 0.421896011
v -4.72344589 0.00119900005 0.42177099
v -4.64733887 -0.000711000001 0.687626004
v -4.64782476 0.000211000006 0.687750995
v -4.77449512 0.00239200005 0.126075
v -4.77400923 0.00146900001 0.125951007
v -4.72344589 0.00119900005 0.42177099
v -4.72393179 0.00212100009 0.421896011
v -4.59861088 -0.00135100004 0.824886978
v -4.59812498 -0.00227300008 0.824761987
v -4.50750589 -0.00656499993 1.02014005
v -4.50799084 -0.00564299989 1.02026403
v -4.50799084 -0.00564299989 1.02026403
v -4.50750589 -0.00656499993 1.02014005
v -4.42633009 -0.00818500016 1.16996598
v -4.42681599 -0.00726300012 1.17009103
v -4.64782476 0.000211000006 0.687750995
v -4.64733887 -0.000711000001 0.687626004
v -4.60095692 -0.00264100009 0.818287015
v -4.60144281 -0.00171900005 0.818412006
v -4.60144281 -0.00171900005 0.818412006
v -4.60095692 -0.00264100009 0.818287015
v -4.59812498 -0.00227300008 0.824761987
v -4.59861088 -0.00135100004 0.824886978
v -4.4250288 -0.0107659996 1.17114794
v -4.43100595 -0.00315100001 1.21765304
v -4.42437601 -0.0120050004 1.17097998
v -4.43035412 -0.00439100014 1.21748602
v -4.42469311 -0.0112950001 1.16954601
v -4.4250288 -0.0107659996 1.17114794
v -4.78070116 -0.00166099996 0
v -4.77237177 -0.00164100004 0.125531003
v -4.78004885 -0.00290099997 0
v -4.72180986 -0.001911 0.421350986
v -4.64570189 -0.00382099999 0.68720597
v -4.64505005 -0.00506100012 0.687039018
v -4.77237177 -0.00164100004 0.125531003
v -4.72180986 -0.001911 0.421350986
v -4.77171993 -0.00288000004 0.125363007
v -4.596488 -0.00538299978 0.824342012
v -4.50586891 -0.00967499986 1.019719
v -4.50521708 -0.010915 1.01955199
v -4.50586891 -0.00967499986 1.019719
v -4.42469311 -0.0112950001 1.16954601
v -4.64570189 -0.00382099999 0.68720597
v -4.59931993 -0.00575099979 0.817866981
v -4.59931993 -0.00575099979 0.817866981
v -4.596488 -0.00538299978 0.824342012
v -4.5986681 -0.00699099991 0.817699015
v -4.59583616 -0.00662299991 0.824173987
v -4.42060614 -0.0108470004 1.17352903
v -4.42048788 -0.0107180001 1.17157996
v -4.5937562 -0.00276600011 0.82297802
v -4.64043713 -0.000763999997 0.685860991
v -4.76628113 0.00146900001 0.128347993
v -4.77571392 0.00103499996 0
v -4.77532816 0.000302 0
v -4.64043713 -0.000763999997 0.685860991
v -4.71610785 0.00107300002 0.422096997
v -4.64005089 -0.001498 0.685761988
v -4.71572208 0.000338999991 0.421997994
v -4.71610785 0.00107300002 0.422096997
v -4.76628113 0.00146900001 0.128347993
v -4.71572208 0.000338999991 0.421997994
v -4.76589394 0.000735000009 0.128248006
v -4.5010829 -0.00840399973 1.02117598
v -4.59061193 -0.00357199996 0.829053998
v -4.50069714 -0.0091380002 1.02107596
v -4.59061193 -0.00357199996 0.829053998
v -4.5937562 -0.00276600011 0.82297802
v -4.59022617 -0.00430600019 0.828953981
v -4.59336901 -0.00350000011 0.822879016
v -4.42048788 -0.0107180001 1.17157996
v -4.5010829 -0.00840399973 1.02117598
v -4.4267292 -0.00246699993 1.22047698
v -4.42060614 -0.0108470004 1.17352903
v -4.42634296 -0.00320099993 1.22037697
v -4.42021894 -0.0115809999 1.17342997
v -4.43035412 -0.00439100014 -1.21748602
v -4.42634296 -0.00320099993 -1.22037697
v -4.42021894 -0.0115809999 -1.17342997
v -4.42437601 -0.0120050004 -1.17097998
v -4.50069714 -0.0091380002 -1.02107596
v -4.50521708 -0.010915 -1.01955199
v -4.42404079 -0.0125350002 -1.16937804
v -4.42010212 -0.0114519997 -1.17148101
v -4.42437601 -0.0120050004 -1.17097998
v -4.42021894 -0.0115809999 -1.17342997
v -4.42010212 -0.0114519997 -1.17148101
v -4.42404079 -0.0125350002 -1.16937804
v -4.59022617 -0.00430600019 -0.828953981
v -4.59583616 -0.00662299991 -0.824173987
v -4.50521708 -0.010915 -1.01955199
v -4.50069714 -0.0091380002 -1.02107596
v -4.59336901 -0.00350000011 -0.822879016
v -4.5986681 -0.00699099991 -0.817699015
v -4.59583616 -0.00662299991 -0.824173987
v -4.59022617 -0.00430600019 -0.828953981
v -4.64505005 -0.00506100012 -0.687039018
v -4.59336901 -0.00350000011 -0.822879016
v -4.64005089 -0.001498 -0.685761988
v -4.71572208 0.000338999991 -0.421997994
v -4.72115803 -0.00315100001 -0.42118299
v -4.64505005 -0.00506100012 -0.687039018
v -4.64005089 -0.001498 -0.685761988
v -4.76589394 0.000735000009 -0.128248006
v -4.77171993 -0.00288000004 -0.125363007
v -4.72115803 -0.00315100001 -0.42118299
v -4.71572208 0.000338999991 -0.421997994
v -4.77171993 -0.00288000004 -0.125363007
v -4.76589394 0.000735000009 -0.128248006
v -4.42299414 -0.00630899984 -1.174142
v -4.42287588 -0.00618000003 -1.17219305
v -4.42276478 -0.006391 -1.17216504
v -4.42288303 -0.00651999982 -1.17411399
v -4.5961442 0.00177199999 -0.823590994
v -4.64282608 0.0037740001 -0.686474979
v -4.64271498 0.00356299989 -0.686446011
v -4.5960331 0.00156100001 -0.82356298
v -4.76866913 0.00600699987 -0.128960997
v -4.76855803 0.0057959999 -0.128931999
v -4.64282608 0.0037740001 -0.686474979
v -4.7184968 0.00561100012 -0.422710001
v -4.71838617 0.00540000014 -0.422681987
v -4.64271498 0.00356299989 -0.686446011
v -4.7184968 0.00561100012 -0.422710001
v -4.76866913 0.00600699987 -0.128960997
v -4.76855803 0.0057959999 -0.128931999
v -4.71838617 0.00540000014 -0.422681987
v -4.50347185 -0.0038660001 -1.02178895
v -4.59299994 0.000966000021 -0.829666972
v -4.59288883 0.000754999986 -0.829638004
v -4.50336123 -0.00407700008 -1.02175999
v -4.59299994 0.000966000021 -0.829666972
v -4.5961442 0.00177199999 -0.823590994
v -4.5960331 0.00156100001 -0.82356298
v -4.59288883 0.000754999986 -0.829638004
v -4.42287588 -0.00618000003 -1.17219305
v -4.50347185 -0.0038660001 -1.02178895
v -4.50336123 -0.00407700008 -1.02175999
v -4.42276478 -0.006391 -1.17216504
v -4.42911816 0.00207099994 -1.22108996
v -4.42299414 -0.00630899984 -1.174142
v -4.42288303 -0.00651999982 -1.17411399
v -4.42900705 0.00186099997 -1.22106099
v -4.4271512 -0.00673299981 -1.17169201
v -4.43312788 0.000881000014 -1.21819794
v -4.43264198 -4.09999993e-05 -1.21807301
v -4.42666578 -0.00765600009 -1.17156804
v -4.42681599 -0.00726300012 -1.17009103
v -4.4271512 -0.00673299981 -1.17169201
v -4.42666578 -0.00765600009 -1.17156804
v -4.42633009 -0.00818500016 -1.16996598
v -4.77449512 0.00239200005 -0.126075
v -4.77400923 0.00146900001 -0.125951007
v -4.72393179 0.00212100009 -0.421896011
v -4.64782476 0.000211000006 -0.687750995
v -4.64733887 -0.000711000001 -0.687626004
v -4.72344589 0.00119900005 -0.42177099
v -4.77449512 0.00239200005 -0.126075
v -4.72393179 0.00212100009 -0.421896011
v -4.72344589 0.00119900005 -0.42177099
v -4.77400923 0.00146900001 -0.125951007
v -4.59861088 -0.00135100004 -0.824886978
v -4.50799084 -0.00564299989 -1.02026403
v -4.50750589 -0.00656499993 -1.02014005
v -4.59812498 -0.00227300008 -0.824761987
v -4.50799084 -0.00564299989 -1.02026403
v -4.42681599 -0.00726300012 -1.17009103
v -4.42633009 -0.00818500016 -1.16996598
v -4.50750589 -0.00656499993 -1.02014005
v -4.64782476 0.000211000006 -0.687750995
v -4.60144281 -0.00171900005 -0.818412006
v -4.60095692 -0.00264100009 -0.818287015
v -4.64733887 -0.000711000001 -0.687626004
v -4.60144281 -0.00171900005 -0.818412006
v -4.59861088 -0.00135100004 -0.824886978
v -4.59812498 -0.00227300008 -0.824761987
v -4.60095692 -0.00264100009 -0.818287015
v -4.43100595 -0.00315100001 -1.21765304
v -4.4250288 -0.0107659996 -1.17114794
v -4.43035412 -0.00439100014 -1.21748602
v -4.42437601 -0.0120050004 -1.17097998
v -4.4250288 -0.0107659996 -1.17114794
v -4.42469311 -0.0112950001 -1.16954601
v -4.77237177 -0.00164100004 -0.125531003
v -4.64570189 -0.00382099999 -0.68720597
v -4.72180986 -0.001911 -0.421350986
v -4.64505005 -0.00506100012 -0.687039018
v -4.72180986 -0.001911 -0.421350986
v -4.77237177 -0.00164100004 -0.125531003
v -4.77171993 -0.00288000004 -0.125363007
v -4.50586891 -0.00967499986 -1.019719
v -4.596488 -0.00538299978 -0.824342012
v -4.50521708 -0.010915 -1.01955199
v -4.42469311 -0.0112950001 -1.16954601
v -4.50586891 -0.00967499986 -1.019719
v -4.59931993 -0.00575099979 -0.817866981
v -4.64570189 -0.00382099999 -0.68720597
v -4.596488 -0.00538299978 -0.824342012
v -4.59931993 -0.00575099979 -0.817866981
v -4.59583616 -0.00662299991 -0.824173987
v -4.5986681 -0.00699099991 -0.817699015
v -4.42048788 -0.0107180001 -1.17157996
v -4.42060614 -0.0108470004 -1.17352903
v -4.64043713 -0.000763999997 -0.685860991
v -4.5937562 -0.00276600011 -0.82297802
v -4.76628113 0.00146900001 -0.128347993
v -4.71610785 0.00107300002 -0.422096997
v -4.64043713 -0.000763999997 -0.685860991
v -4.71572208 0.000338999991 -0.421997994
v -4.64005089 -0.001498 -0.685761988
v -4.76628113 0.00146900001 -0.128347993
v -4.71610785 0.00107300002 -0.422096997
v -4.76589394 0.000735000009 -0.128248006
v -4.71572208 0.000338999991 -0.421997994
v -4.59061193 -0.00357199996 -0.829053998
v -4.5010829 -0.00840399973 -1.02117598
v -4.50069714 -0.0091380002 -1.02107596
v -4.5937562 -0.00276600011 -0.82297802
v -4.59061193 -0.00357199996 -0.829053998
v -4.59336901 -0.00350000011 -0.822879016
v -4.59022617 -0.00430600019 -0.828953981
v -4.5010829 -0.00840399973 -1.02117598
v -4.42048788 -0.0107180001 -1.17157996
v -4.42060614 -0.0108470004 -1.17352903
v -4.4267292 -0.00246699993 -1.22047698
v -4.42021894 -0.0115809999 -1.17342997
v -4.42634296 -0.00320099993 -1.22037697
vt 0 0
vt 1 0
vt 1 1
vt 0 1
vt 0 0
vt 1 0
vt 1 1
vt 0 1
vt 0 0
vt 0 1
vt 1 1
vt 1 0
vt 0 0
vt 0 1
vt 1 1
vt 1 0
vt 0 0
vt 1 0
vt 1 1
vt 0 1
vt 0 0
vt 1 0
vt 1 1
vt 0 0
vt 0 1
vt 1 1
vt 1 0
vt 0 0
vt 0 1
vt 1 1
vt 1 0
vt 0 0
vt 1 0
vt 1 1
vt 0 1
vt 0 1
vt 0.5 1
vt 0.5 -0
vt 0 0
vt 1 0
vt 1 0.5
vt -0 0.5
vt 0 0
vt 1 0
vt 1 0.5
vt 0 0.5
vt 0 0
vt 0 1
vt 0.5 1
vt 0.5 0
vt 0 0
vt 0 1
vt 0.5 1
vt 0.5 0
vt 0 0
vt 0 1
vt 0.5 1
vt 0.5 -0
vt 0 0
vt 1 0
vt 1 0.5
vt 0 0.5
vt 0 0
vt 1 0
vt 1 0.5
vt -0 0.5
vt 0 0
vt 1 0
vt 1 0.5
vt 0 0.5
vt 0 0
vt 1 0
vt 1 0.5
vt -0 0.5
vt 0 0
vt 0 1
vt 0.5 1
vt 0.5 0
vt 0 0
vt 1 0
vt 1 0.5
vt -0 0.5
vt 0 0
vt 0 1
vt 0.5 1
vt 0.5 -0
vt 0 0
vt 0 1
vt 0.5 1
vt 0.5 0
vt 0 0
vt 0 1
vt 0.5 1
vt 0.5 -0
vt 0 0
vt 1 0
vt 1 0.5
vt 0 0.5
vt 0 0
vt 1 0
vt 1 0.5
vt -0 0.5
vt 0 0
vt 1 0
vt 1 0.5
vt 0 0.5
vt 0 0
vt 1 0.75
vt -0 0.75
vt 1 1
vt 0 1
vt 0.75 1
vt 0.75 -0
vt 1 0.75
vt -0 0.75
vt 1 1
vt 0.75 1
vt 0.75 -0
vt 1 0
vt 0.75 1
vt 0.75 -0
vt 1 1
vt 0.75 1
vt 0.75 -0
vt 1 0
vt 1 0.75
vt -0 0.75
vt 1 0.75
vt -0 0.75
vt 1 0.75
vt 0 0.75
vt 1 1
vt 0 1
vt 0.75 1
vt 0.75 -0
vt 1 0.75
vt 0 0.75
vt 1 0.75
vt 0 0.75
vt 0 1
vt 0.75 1
vt 0.75 0
vt 1 1
vt 1 0
vt 0.75 1
vt 0.75 0
vt 1 1
vt 1 0
vt 0.75 1
vt 0.75 0
vt 1 1
vt 1 0.75
vt -0 0.75
vt 1 1
vt 0 1
vt 1 0.75
vt -0 0.75
vt 1 0.75
vt 0 0.75
vt 1 1
vt 0 1
vt 0 0
vt 0 1
vt 1 1
vt 1 0
vt 0 0
vt 0 1
vt 1 1
vt 1 0
vt 0 0
vt 1 0
vt 1 1
vt 0 1
vt 0 0
vt 1 0
vt 1 1
vt 0 1
vt 0 0
vt 0 1
vt 1 1
vt 1 0
vt 0 0
vt 1 1
vt 1 0
vt 0 0
vt 1 0
vt 1 1
vt 0 1
vt 0 0
vt 1 0
vt 1 1
vt 0 1
vt 0 1
vt 1 1
vt 0 1
vt 0 0
vt 0.5 -0
vt 0.5 1
vt 1 0
vt 0 0
vt -0 0.5
vt 1 0.5
vt 1 0
vt 1 0.5
vt 0 1
vt 0 0
vt 0.5 0
vt 0.5 1
vt 0 1
vt 0 0
vt 0.5 0
vt 0.5 1
vt 0 1
vt 0 0
vt 0.5 -0
vt 0.5 1
vt 1 0
vt 0 0
vt 0 0.5
vt 1 0.5
vt 1 0
vt 0 0
vt -0 0.5
vt 1 0.5
vt 1 0
vt 0 0
vt 0 0.5
vt 1 0.5
vt 1 0
vt 0 0
vt -0 0.5
vt 1 0.5
vt 0 1
vt 0 0
vt 0.5 0
vt 0.5 1
vt 0 0
vt -0 0.5
vt 0 1
vt 0 0
vt 0.5 -0
vt 0.5 1
vt 0 1
vt 0 0
vt 0.5 0
vt 0.5 1
vt 0 1
vt 0 0
vt 0.5 -0
vt 0.5 1
vt 1 0
vt 0 0
vt 0 0.5
vt 1 0.5
vt 1 0
vt 0 0
vt -0 0.5
vt 1 0.5
vt 1 0
vt 0 0
vt 0 0.5
vt 1 0.5
vt -0 0.75
vt 1 0.75
vt 0 1
vt 1 1
vt 0.75 -0
vt 0.75 1
vt -0 0.75
vt 0.75 -0
vt 0.75 1
vt 1 0
vt 0.75 -0
vt 0.75 1
vt 1 1
vt 0.75 -0
vt 0.75 1
vt 1 0
vt -0 0.75
vt 1 0.75
vt -0 0.75
vt 1 0.75
vt 0 0.75
vt 1 0.75
vt 0 1
vt 1 1
vt 0.75 -0
vt 0.75 1
vt 0 0.75
vt 1 0.75
vt 1 0.75
vt 0.75 0
vt 0.75 1
vt 1 0
vt 1 1
vt 0.75 0
vt 0.75 1
vt 1 0
vt 1 1
vt 0.75 0
vt 0.75 1
vt 1 1
vt -0 0.75
vt 1 0.75
vt 0 1
vt 1 1
vt -0 0.75
vt 1 0.75
vt 0 0.75
vt 1 0.75
vt 0 1
vt 1 1
vn -0.458400011 -0.88410002 0.0904999971
vn -0.499799997 -0.863900006 0.0626000017
vn 0.84009999 -0.504800022 0.198300004
vn 0.986500025 -0.0851000026 0.139500007
vn 0.852299988 -0.289499998 -0.435600013
vn 0.923399985 -0.365700006 -0.1162
vn -0.200499997 -0.979099989 0.0329000019
vn -0.248999998 -0.961600006 0.115400001
vn -0.499799997 -0.863900006 0.0626000017
vn -0.200499997 -0.979099989 0.0329000019
vn 0.923399985 -0.365700006 -0.1162
vn 0.84009999 -0.504800022 0.198300004
vn 0.878499985 -0.239600003 -0.413300008
vn 0.852299988 -0.289499998 -0.435600013
vn -0.248999998 -0.961600006 0.115400001
vn -0.150299996 -0.987699986 0.0425000004
vn 0.912800014 -0.112999998 -0.392399997
vn 0.878499985 -0.239600003 -0.413300008
vn -0.150299996 -0.987699986 0.0425000004
vn -0.172600001 -0.981899977 0.0782999992
vn -0.215900004 -0.9745 0.0603
vn 0.931999981 -0.207499996 -0.296999991
vn 0.912800014 -0.112999998 -0.392399997
vn 0.945900023 -0.237599999 -0.221100003
vn 0.931999981 -0.207499996 -0.296999991
vn -0.215900004 -0.9745 0.0603
vn -0.252200007 -0.965900004 0.0582000017
vn 0.961799979 -0.245199993 -0.121799998
vn 0.945900023 -0.237599999 -0.221100003
vn -0.252200007 -0.965900004 0.0582000017
vn -0.263500005 -0.963999987 0.0357000008
vn -0.275999993 -0.961099982 0
vn 0.966499984 -0.256700009 0
vn 0.961799979 -0.245199993 -0.121799998
vn -0.263500005 -0.963999987 0.0357000008
vn 0.885599971 0.460999995 0.0551000014
vn 0.886200011 0.459600002 0.0584000014
vn 0.862299979 0.476999998 -0.169799998
vn 0.861599982 0.477299988 -0.172700003
vn 0.822700024 0.474599987 -0.312900007
vn 0.821399987 0.4745 -0.316300005
vn 0.839999974 0.477200001 -0.25819999
vn 0.839999974 0.477499992 -0.257699996
vn 0.874499977 0.4727 -0.108499996
vn 0.874800026 0.472499996 -0.106899999
vn 0.882799983 0.469700009 0
vn 0.882499993 0.470200002 0
vn 0.839999974 0.477499992 -0.257699996
vn 0.839999974 0.477200001 -0.25819999
vn 0.857299984 0.476999998 -0.193499997
vn 0.857299984 0.476799995 -0.193900004
vn 0.857299984 0.476799995 -0.193900004
vn 0.857299984 0.476999998 -0.193499997
vn 0.874800026 0.472499996 -0.106899999
vn 0.874499977 0.4727 -0.108499996
vn 0.794700027 0.468400002 -0.385899991
vn 0.793500006 0.469099998 -0.387600005
vn 0.805700004 0.471300006 -0.358900011
vn 0.806299984 0.470200002 -0.358700007
vn 0.806299984 0.470200002 -0.358700007
vn 0.805700004 0.471300006 -0.358900011
vn 0.821399987 0.4745 -0.316300005
vn 0.822700024 0.474599987 -0.312900007
vn 0.861599982 0.477299988 -0.172700003
vn 0.862299979 0.476999998 -0.169799998
vn 0.793500006 0.469099998 -0.387600005
vn 0.794700027 0.468400002 -0.385899991
vn 0.885299981 0.463800013 0.0329999998
vn 0.885699987 0.463099986 0.0331000015
vn 0.886200011 0.459600002 0.0584000014
vn 0.885599971 0.460999995 0.0551000014
vn -0.886399984 -0.461499989 -0.0364000015
vn -0.886300027 -0.461600006 -0.0357000008
vn -0.886399984 -0.461199999 -0.0384000018
vn -0.886399984 -0.461199999 -0.0384000018
vn -0.861400008 -0.476900011 0.174899995
vn -0.85619998 -0.477299988 0.197500005
vn -0.886300027 -0.461600006 -0.0357000008
vn -0.886399984 -0.461499989 -0.0364000015
vn -0.883300006 -0.468699992 0
vn -0.883300006 -0.468699992 0
vn -0.87529999 -0.47240001 0.103200004
vn -0.875100017 -0.47240001 0.104999997
vn -0.857200027 -0.477100015 0.193700001
vn -0.857200027 -0.477200001 0.193399996
vn -0.838500023 -0.476900011 0.263300002
vn -0.838699996 -0.476900011 0.262800008
vn -0.875100017 -0.47240001 0.104999997
vn -0.87529999 -0.47240001 0.103200004
vn -0.857200027 -0.477200001 0.193399996
vn -0.857200027 -0.477100015 0.193700001
vn -0.800700009 -0.471500009 0.369399995
vn -0.800899982 -0.471399993 0.369100004
vn -0.792100012 -0.469500005 0.390100002
vn -0.792999983 -0.469599992 0.388099998
vn -0.792999983 -0.469599992 0.388099998
vn -0.792100012 -0.469500005 0.390100002
vn -0.85619998 -0.477299988 0.197500005
vn -0.861400008 -0.476900011 0.174899995
vn -0.838699996 -0.476900011 0.262800008
vn -0.838500023 -0.476900011 0.263300002
vn -0.815400004 -0.474099994 0.332199991
vn -0.815800011 -0.474099994 0.331
vn -0.815800011 -0.474099994 0.331
vn -0.815400004 -0.474099994 0.332199991
vn -0.800899982 -0.471399993 0.369100004
vn -0.800700009 -0.471500009 0.369399995
vn -0.886300027 -0.461699992 -0.0357000008
vn -0.886399984 -0.461299986 -0.0384000018
vn -0.499799997 -0.863900006 0.0626000017
vn -0.458400011 -0.88410002 0.0904999971
vn -0.85619998 -0.477400005 0.197500005
vn -0.886300027 -0.461699992 -0.0357000008
vn -0.88319999 -0.468899995 0
vn -0.875199974 -0.472600013 0.103200004
vn -0.275999993 -0.961099982 0
vn -0.857200027 -0.477299988 0.193399996
vn -0.838500023 -0.476999998 0.263300002
vn -0.215900004 -0.9745 0.0603
vn -0.875199974 -0.472600013 0.103200004
vn -0.857200027 -0.477299988 0.193399996
vn -0.263500005 -0.963999987 0.0357000008
vn -0.800899982 -0.471399993 0.369100004
vn -0.791999996 -0.469599992 0.390100002
vn -0.248999998 -0.961600006 0.115400001
vn -0.791999996 -0.469599992 0.390100002
vn -0.85619998 -0.477400005 0.197500005
vn -0.838500023 -0.476999998 0.263300002
vn -0.815400004 -0.474099994 0.332199991
vn -0.815400004 -0.474099994 0.332199991
vn -0.800899982 -0.471399993 0.369100004
vn -0.172600001 -0.981899977 0.0782999992
vn -0.150299996 -0.987699986 0.0425000004
vn 0.886600018 0.458799988 0.0584000014
vn 0.862399995 0.476900011 -0.169699997
vn 0.82130003 0.474900007 -0.316199988
vn 0.84009999 0.476999998 -0.25819999
vn 0.874800026 0.472600013 -0.106899999
vn 0.883099973 0.469199985 0
vn 0.966499984 -0.256700009 0
vn 0.84009999 0.476999998 -0.25819999
vn 0.85710001 0.477299988 -0.193499997
vn 0.931999981 -0.207499996 -0.296999991
vn 0.945900023 -0.237599999 -0.221100003
vn 0.85710001 0.477299988 -0.193499997
vn 0.874800026 0.472600013 -0.106899999
vn 0.945900023 -0.237599999 -0.221100003
vn 0.961799979 -0.245199993 -0.121799998
vn 0.793200016 0.469799995 -0.387400001
vn 0.805199981 0.472200006 -0.358700007
vn 0.852299988 -0.289499998 -0.435600013
vn 0.805199981 0.472200006 -0.358700007
vn 0.82130003 0.474900007 -0.316199988
vn 0.878499985 -0.239600003 -0.413300008
vn 0.912800014 -0.112999998 -0.392399997
vn 0.862399995 0.476900011 -0.169699997
vn 0.793200016 0.469799995 -0.387400001
vn 0.886300027 0.461899996 0.0331000015
vn 0.886600018 0.458799988 0.0584000014
vn 0.986500025 -0.0851000026 0.139500007
vn 0.84009999 -0.504800022 0.198300004
vn -0.458400011 -0.88410002 -0.0904999971
vn 0.986500025 -0.0851999968 -0.139500007
vn 0.84009999 -0.504800022 -0.198300004
vn -0.499799997 -0.863900006 -0.0626000017
vn 0.852299988 -0.289600015 0.435600013
vn -0.248999998 -0.961600006 -0.115400001
vn -0.200399995 -0.979099989 -0.0329000019
vn 0.923399985 -0.365700006 0.1162
vn -0.499799997 -0.863900006 -0.0626000017
vn 0.84009999 -0.504800022 -0.198300004
vn 0.923399985 -0.365700006 0.1162
vn -0.200399995 -0.979099989 -0.0329000019
vn 0.878499985 -0.239600003 0.413300008
vn -0.150299996 -0.987699986 -0.0425000004
vn -0.248999998 -0.961600006 -0.115400001
vn 0.852299988 -0.289600015 0.435600013
vn 0.912800014 -0.112999998 0.392399997
vn -0.172600001 -0.981899977 -0.0782999992
vn -0.150299996 -0.987699986 -0.0425000004
vn 0.878499985 -0.239600003 0.413300008
vn -0.215900004 -0.9745 -0.0603
vn 0.912800014 -0.112999998 0.392399997
vn 0.931999981 -0.207599998 0.296900004
vn 0.945800006 -0.237599999 0.221100003
vn -0.252200007 -0.965900004 -0.0582000017
vn -0.215900004 -0.9745 -0.0603
vn 0.931999981 -0.207599998 0.296900004
vn 0.961799979 -0.245199993 0.121799998
vn -0.263500005 -0.963999987 -0.0357000008
vn -0.252200007 -0.965900004 -0.0582000017
vn 0.945800006 -0.237599999 0.221100003
vn -0.263500005 -0.963999987 -0.0357000008
vn 0.961799979 -0.245199993 0.121799998
vn 0.885500014 0.461299986 -0.0551000014
vn 0.861400008 0.477600008 0.172700003
vn 0.862200022 0.477200001 0.169699997
vn 0.886099994 0.459699988 -0.0582999997
vn 0.822700024 0.4745 0.312900007
vn 0.839999974 0.477499992 0.257699996
vn 0.839999974 0.477200001 0.25819999
vn 0.821399987 0.4745 0.316300005
vn 0.87440002 0.472900003 0.108499996
vn 0.87470001 0.472600013 0.106799997
vn 0.839999974 0.477499992 0.257699996
vn 0.85710001 0.477200001 0.193800002
vn 0.857200027 0.477200001 0.193499997
vn 0.839999974 0.477200001 0.25819999
vn 0.85710001 0.477200001 0.193800002
vn 0.87440002 0.472900003 0.108499996
vn 0.87470001 0.472600013 0.106799997
vn 0.857200027 0.477200001 0.193499997
vn 0.794700027 0.468400002 0.385899991
vn 0.806400001 0.470200002 0.358700007
vn 0.805700004 0.471199989 0.358900011
vn 0.793500006 0.469099998 0.387600005
vn 0.806400001 0.470200002 0.358700007
vn 0.822700024 0.4745 0.312900007
vn 0.821399987 0.4745 0.316300005
vn 0.805700004 0.471199989 0.358900011
vn 0.861400008 0.477600008 0.172700003
vn 0.794700027 0.468400002 0.385899991
vn 0.793500006 0.469099998 0.387600005
vn 0.862200022 0.477200001 0.169699997
vn 0.885100007 0.46419999 -0.0329999998
vn 0.885500014 0.461299986 -0.0551000014
vn 0.886099994 0.459699988 -0.0582999997
vn 0.885599971 0.46329999 -0.0331000015
vn -0.886399984 -0.461499989 0.0364000015
vn -0.886399984 -0.461199999 0.0384000018
vn -0.886399984 -0.461199999 0.0384000018
vn -0.886300027 -0.461600006 0.0357000008
vn -0.861400008 -0.476900011 -0.174899995
vn -0.886399984 -0.461499989 0.0364000015
vn -0.886300027 -0.461600006 0.0357000008
vn -0.85619998 -0.477299988 -0.197500005
vn -0.875100017 -0.47240001 -0.104999997
vn -0.87529999 -0.47240001 -0.103200004
vn -0.857200027 -0.477100015 -0.193700001
vn -0.838699996 -0.476900011 -0.262800008
vn -0.838500023 -0.476999998 -0.263300002
vn -0.857200027 -0.477200001 -0.193399996
vn -0.875100017 -0.47240001 -0.104999997
vn -0.857200027 -0.477100015 -0.193700001
vn -0.857200027 -0.477200001 -0.193399996
vn -0.87529999 -0.47240001 -0.103200004
vn -0.800700009 -0.471500009 -0.369399995
vn -0.792900026 -0.469700009 -0.388000011
vn -0.791999996 -0.469500005 -0.390100002
vn -0.800899982 -0.471500009 -0.369100004
vn -0.792900026 -0.469700009 -0.388000011
vn -0.861400008 -0.476900011 -0.174899995
vn -0.85619998 -0.477299988 -0.197500005
vn -0.791999996 -0.469500005 -0.390100002
vn -0.838699996 -0.476900011 -0.262800008
vn -0.815800011 -0.47420001 -0.331
vn -0.815400004 -0.474099994 -0.332199991
vn -0.838500023 -0.476999998 -0.263300002
vn -0.815800011 -0.47420001 -0.331
vn -0.800700009 -0.471500009 -0.369399995
vn -0.800899982 -0.471500009 -0.369100004
vn -0.815400004 -0.474099994 -0.332199991
vn -0.886399984 -0.461299986 0.0384000018
vn -0.886300027 -0.461699992 0.0357000008
vn -0.458400011 -0.88410002 -0.0904999971
vn -0.499799997 -0.863900006 -0.0626000017
vn -0.886300027 -0.461699992 0.0357000008
vn -0.85619998 -0.477400005 -0.197500005
vn -0.875199974 -0.472600013 -0.103200004
vn -0.838500023 -0.476999998 -0.263300002
vn -0.857200027 -0.477299988 -0.193399996
vn -0.215900004 -0.9745 -0.0603
vn -0.857200027 -0.477299988 -0.193399996
vn -0.875199974 -0.472600013 -0.103200004
vn -0.263500005 -0.963999987 -0.0357000008
vn -0.791999996 -0.469599992 -0.390100002
vn -0.800899982 -0.471399993 -0.369100004
vn -0.248999998 -0.961600006 -0.115400001
vn -0.85619998 -0.477400005 -0.197500005
vn -0.791999996 -0.469599992 -0.390100002
vn -0.815299988 -0.474099994 -0.332199991
vn -0.838500023 -0.476999998 -0.263300002
vn -0.800899982 -0.471399993 -0.369100004
vn -0.815299988 -0.474099994 -0.332199991
vn -0.150299996 -0.987699986 -0.0425000004
vn -0.172600001 -0.981899977 -0.0782999992
vn 0.862399995 0.476900011 0.169699997
vn 0.886600018 0.458799988 -0.0584000014
vn 0.84009999 0.476900011 0.25819999
vn 0.82130003 0.474799991 0.316199988
vn 0.874800026 0.472600013 0.106899999
vn 0.857200027 0.477200001 0.193499997
vn 0.84009999 0.476900011 0.25819999
vn 0.945800006 -0.237599999 0.221100003
vn 0.931999981 -0.207599998 0.296900004
vn 0.874800026 0.472600013 0.106899999
vn 0.857200027 0.477200001 0.193499997
vn 0.961799979 -0.245199993 0.121799998
vn 0.945800006 -0.237599999 0.221100003
vn 0.805199981 0.472200006 0.358700007
vn 0.793200016 0.469799995 0.387400001
vn 0.852299988 -0.289600015 0.435600013
vn 0.82130003 0.474799991 0.316199988
vn 0.805199981 0.472200006 0.358700007
vn 0.912800014 -0.112999998 0.392399997
vn 0.878499985 -0.239600003 0.413300008
vn 0.793200016 0.469799995 0.387400001
vn 0.862399995 0.476900011 0.169699997
vn 0.886600018 0.458799988 -0.0584000014
vn 0.886300027 0.461800009 -0.0331000015
vn 0.84009999 -0.504800022 -0.198300004
vn 0.986500025 -0.0851999968 -0.139500007
f 1/1/1 2/2/2 3/3/3
f 1/1/1 3/3/3 4/4/4
f 5/5/5 6/6/6 7/7/7
f 5/5/5 7/7/7 8/8/8
f 9/9/9 10/10/10 11/11/11
f 9/9/9 11/11/11 12/12/12
f 13/13/13 14/14/14 15/15/15
f 13/13/13 15/15/15 16/16/16
f 17/17/17 18/18/18 19/19/19
f 17/17/17 19/19/19 20/20/20
f 21/21/21 22/22/22 23/23/23
f 21/21/21 23/23/23 20/20/20
f 24/24/24 25/25/25 26/26/26
f 24/24/24 26/26/26 27/27/27
f 28/28/28 29/29/29 30/30/30
f 28/28/28 30/30/30 31/31/31
f 32/32/32 33/33/33 34/34/34
f 32/32/32 34/34/34 35/35/35
f 36/36/36 37/37/37 38/38/38
f 36/36/36 38/38/38 39/39/39
f 40/40/40 41/41/41 42/42/42
f 40/40/40 42/42/42 43/43/43
f 44/44/44 45/45/45 46/46/46
f 44/44/44 46/46/46 47/47/47
f 48/48/48 49/49/49 50/50/50
f 48/48/48 50/50/50 51/51/51
f 52/52/52 53/53/53 54/54/54
f 52/52/52 54/54/54 55/55/55
f 56/56/56 57/57/57 58/58/58
f 56/56/56 58/58/58 59/59/59
f 60/60/60 61/61/61 62/62/62
f 60/60/60 62/62/62 63/63/63
f 64/64/64 65/65/65 66/66/66
f 64/64/64 66/66/66 67/67/67
f 68/68/68 69/69/69 70/70/70
f 68/68/68 70/70/70 71/71/71
f 72/72/72 73/73/73 74/74/74
f 72/72/72 74/74/74 75/75/75
f 76/76/76 77/77/77 78/78/78
f 76/76/76 78/78/78 79/79/79
f 80/80/80 81/81/81 82/82/82
f 80/80/80 82/82/82 83/83/83
f 84/84/84 85/85/85 86/86/86
f 84/84/84 86/86/86 87/87/87
f 88/88/88 89/89/89 90/90/90
f 88/88/88 90/90/90 91/91/91
f 92/92/92 93/93/93 94/94/94
f 92/92/92 94/94/94 95/95/95
f 96/96/96 97/97/97 98/98/98
f 96/96/96 98/98/98 99/99/99
f 100/100/100 101/101/101 102/102/102
f 100/100/100 102/102/102 103/103/103
f 104/104/104 105/105/105 106/106/106
f 104/104/104 106/106/106 107/107/107
f 73/73/73 108/108/108 109/109/109
f 73/73/73 109/109/109 74/74/74
f 108/108/108 110/110/110 111/111/111
f 108/108/108 111/111/111 109/109/109
f 77/77/77 112/112/112 113/113/113
f 77/77/77 113/113/113 78/78/78
f 112/112/112 7/7/7 2/2/2
f 112/112/112 2/2/2 113/113/113
f 81/81/81 114/114/114 115/115/115
f 81/81/81 115/115/115 82/82/82
f 114/114/114 116/116/116 35/35/35
f 114/114/114 35/35/35 115/115/115
f 85/85/85 117/117/117 118/118/118
f 85/85/85 118/118/118 86/86/86
f 117/117/117 30/30/30 119/119/119
f 117/117/117 119/119/119 118/118/118
f 89/89/89 120/120/120 121/121/121
f 89/89/89 121/121/121 90/90/90
f 120/120/120 122/122/122 27/27/27
f 120/120/120 27/27/27 121/121/121
f 93/93/93 123/123/123 124/124/124
f 93/93/93 124/124/124 94/94/94
f 123/123/123 19/19/19 125/125/125
f 123/123/123 125/125/125 124/124/124
f 97/97/97 126/126/126 127/127/127
f 97/97/97 127/127/127 98/98/98
f 126/126/126 15/15/15 10/10/10
f 126/126/126 10/10/10 127/127/127
f 101/101/101 128/128/128 129/129/129
f 101/101/101 129/129/129 102/102/102
f 128/128/128 26/26/26 20/20/20
f 128/128/128 20/20/20 129/129/129
f 105/105/105 130/130/130 131/131/131
f 105/105/105 131/131/131 106/106/106
f 130/130/130 132/132/132 133/133/133
f 130/130/130 133/133/133 131/131/131
f 37/37/37 134/134/134 135/135/135
f 37/37/37 135/135/135 38/38/38
f 134/134/134 3/3/3 6/6/6
f 134/134/134 6/6/6 135/135/135
f 41/41/41 136/136/136 137/137/137
f 41/41/41 137/137/137 42/42/42
f 136/136/136 23/23/23 25/25/25
f 136/136/136 25/25/25 137/137/137
f 45/45/45 138/138/138 139/139/139
f 45/45/45 139/139/139 46/46/46
f 138/138/138 34/34/34 140/140/140
f 138/138/138 140/140/140 139/139/139
f 49/49/49 141/141/141 142/142/142
f 49/49/49 142/142/142 50/50/50
f 141/141/141 143/143/143 144/144/144
f 141/141/141 144/144/144 142/142/142
f 53/53/53 145/145/145 146/146/146
f 53/53/53 146/146/146 54/54/54
f 145/145/145 147/147/147 148/148/148
f 145/145/145 148/148/148 146/146/146
f 57/57/57 149/149/149 150/150/150
f 57/57/57 150/150/150 58/58/58
f 149/149/149 151/151/151 18/18/18
f 149/149/149 18/18/18 150/150/150
f 61/61/61 152/152/152 153/153/153
f 61/61/61 153/153/153 62/62/62
f 152/152/152 154/154/154 155/155/155
f 152/152/152 155/155/155 153/153/153
f 65/65/65 156/156/156 157/157/157
f 65/65/65 157/157/157 66/66/66
f 156/156/156 11/11/11 14/14/14
f 156/156/156 14/14/14 157/157/157
f 69/69/69 158/158/158 159/159/159
f 69/69/69 159/159/159 70/70/70
f 158/158/158 160/160/160 161/161/161
f 158/158/158 161/161/161 159/159/159
f 162/162/162 163/163/163 164/164/164
f 162/162/162 164/164/164 165/165/165
f 166/166/166 167/167/167 168/168/168
f 166/166/166 168/168/168 169/169/169
f 170/170/170 171/171/171 172/172/172
f 170/170/170 172/172/172 173/173/173
f 174/174/174 175/175/175 176/176/176
f 174/174/174 176/176/176 177/177/177
f 178/178/178 179/179/179 180/180/180
f 178/178/178 180/180/180 181/181/181
f 182/182/182 179/179/179 183/183/183
f 182/182/182 183/183/183 184/184/184
f 185/185/185 186/186/186 187/187/187
f 185/185/185 187/187/187 188/188/188
f 189/189/189 190/190/190 191/191/191
f 189/189/189 191/191/191 192/192/192
f 32/32/32 193/193/193 194/194/194
f 32/32/32 194/194/194 33/33/33
f 195/195/195 196/196/196 197/197/197
f 195/195/195 197/197/197 198/198/198
f 199/199/199 200/200/200 201/201/201
f 199/199/199 201/201/201 202/202/202
f 203/203/203 47/47/47 46/46/46
f 203/203/203 46/46/46 204/204/204
f 205/205/205 206/206/206 207/207/207
f 205/205/205 207/207/207 208/208/208
f 209/209/209 210/210/210 211/211/211
f 209/209/209 211/211/211 212/212/212
f 213/213/213 214/214/214 215/215/215
f 213/213/213 215/215/215 216/216/216
f 217/217/217 218/218/218 219/219/219
f 217/217/217 219/219/219 220/220/220
f 221/221/221 222/222/222 223/223/223
f 221/221/221 223/223/223 224/224/224
f 225/225/225 226/226/226 227/227/227
f 225/225/225 227/227/227 228/228/228
f 229/229/229 230/230/230 231/231/231
f 229/229/229 231/231/231 232/232/232
f 233/233/233 234/234/234 235/235/235
f 233/233/233 235/235/235 236/236/236
f 80/80/80 237/237/237 238/238/238
f 80/80/80 238/238/238 81/81/81
f 239/239/239 240/240/240 241/241/241
f 239/239/239 241/241/241 242/242/242
f 243/243/243 244/244/244 245/245/245
f 243/243/243 245/245/245 246/246/246
f 247/247/247 248/248/248 249/249/249
f 247/247/247 249/249/249 250/250/250
f 251/251/251 252/252/252 253/253/253
f 251/251/251 253/253/253 254/254/254
f 255/255/255 256/256/256 257/257/257
f 255/255/255 257/257/257 258/258/258
f 259/259/259 260/260/260 261/261/261
f 259/259/259 261/261/261 262/262/262
f 232/232/232 231/231/231 263/263/263
f 232/232/232 263/263/263 264/264/264
f 264/264/264 263/263/263 265/265/265
f 264/264/264 265/265/265 266/266/266
f 236/236/236 235/235/235 267/267/267
f 236/236/236 267/267/267 268/268/268
f 268/268/268 267/267/267 165/165/165
f 268/268/268 165/165/165 168/168/168
f 81/81/81 238/238/238 269/269/269
f 81/81/81 269/269/269 114/114/114
f 114/114/114 269/269/269 193/193/193
f 114/114/114 193/193/193 116/116/116
f 242/242/242 241/241/241 270/270/270
f 242/242/242 270/270/270 271/271/271
f 271/271/271 270/270/270 272/272/272
f 271/271/271 272/272/272 191/191/191
f 246/246/246 245/245/245 273/273/273
f 246/246/246 273/273/273 274/274/274
f 274/274/274 273/273/273 186/186/186
f 274/274/274 186/186/186 275/275/275
f 250/250/250 249/249/249 276/276/276
f 250/250/250 276/276/276 277/277/277
f 277/277/277 276/276/276 278/278/278
f 277/277/277 278/278/278 180/180/180
f 254/254/254 253/253/253 279/279/279
f 254/254/254 279/279/279 280/280/280
f 280/280/280 279/279/279 173/173/173
f 280/280/280 173/173/173 176/176/176
f 258/258/258 257/257/257 281/281/281
f 258/258/258 281/281/281 282/282/282
f 282/282/282 281/281/281 179/179/179
f 282/282/282 179/179/179 187/187/187
f 262/262/262 261/261/261 283/283/283
f 262/262/262 283/283/283 284/284/284
f 284/284/284 283/283/283 285/285/285
f 284/284/284 285/285/285 286/286/286
f 198/198/198 197/197/197 287/287/287
f 198/198/198 287/287/287 288/288/288
f 288/288/288 287/287/287 169/169/169
f 288/288/288 169/169/169 164/164/164
f 202/202/202 201/201/201 289/289/289
f 202/202/202 289/289/289 290/290/290
f 290/290/290 289/289/289 188/188/188
f 290/290/290 188/188/188 183/183/183
f 204/204/204 46/46/46 139/139/139
f 204/204/204 139/139/139 291/291/291
f 291/291/291 139/139/139 140/140/140
f 291/291/291 140/140/140 194/194/194
f 208/208/208 207/207/207 292/292/292
f 208/208/208 292/292/292 293/293/293
f 293/293/293 292/292/292 294/294/294
f 293/293/293 294/294/294 295/295/295
f 212/212/212 211/211/211 296/296/296
f 212/212/212 296/296/296 297/297/297
f 297/297/297 296/296/296 298/298/298
f 297/297/297 298/298/298 299/299/299
f 216/216/216 215/215/215 300/300/300
f 216/216/216 300/300/300 301/301/301
f 301/301/301 300/300/300 181/181/181
f 301/301/301 181/181/181 302/302/302
f 220/220/220 219/219/219 303/303/303
f 220/220/220 303/303/303 304/304/304
f 304/304/304 303/303/303 305/305/305
f 304/304/304 305/305/305 306/306/306
f 224/224/224 223/223/223 307/307/307
f 224/224/224 307/307/307 308/308/308
f 308/308/308 307/307/307 177/177/177
f 308/308/308 177/177/177 172/172/172
f 228/228/228 227/227/227 309/309/309
f 228/228/228 309/309/309 310/310/310
f 310/310/310 309/309/309 311/311/311
f 310/310/310 311/311/311 312/312/312
