# Generated by lxe_pbrt_scene_convert
v -4.6562748 0.0646639988 -0.0544140004
v -4.64544582 0.0697989985 -0.0530089997
v -4.6562748 0.0646639988 -0.0035639999
v -4.63142395 0.0764470026 -0.0454230011
v -4.62028122 0.0817309991 -0.034159001
v -4.61276484 0.0852949992 -0.0185959991
v -4.61011982 0.086548999 -0.0035639999
v -4.65943098 0.0631669983 0.0510790013
v -4.67025995 0.0580330007 0.0496729985
v -4.65943098 0.0631669983 0.000228999997
v -4.68428278 0.0513829999 0.0420869999
v -4.69542599 0.0461000018 0.0308229998
v -4.70294094 0.0425360017 0.0152599998
v -4.70558596 0.0412819982 0.000228999997
v -4.70732403 0.0449469984 0.000228999997
v -4.66116905 0.0668319985 0.000228999997
v -4.66116905 0.0668319985 0.0510790013
v -4.70467901 0.0462010019 0.0152599998
v -4.69716406 0.0497649983 0.0308229998
v -4.68602085 0.0550480001 0.0420869999
v -4.67199802 0.0616969988 0.0496729985
v -4.61185789 0.0902130008 -0.0035639999
v -4.65801287 0.0683280006 -0.0035639999
v -4.65801287 0.0683280006 -0.0544140004
v -4.61450291 0.088959001 -0.0185959991
v -4.62201881 0.0853950009 -0.034159001
v -4.63316202 0.0801120028 -0.0454230011
v -4.6471839 0.0734630004 -0.0530089997
vn -0.247899994 -0.75 -0.613099992
vn 0.476300001 -0.516900003 -0.711300015
vn -0.274300009 -0.768999994 0.577300012
vn 0.664099991 -0.433699995 -0.608900011
vn 0.816399992 -0.355399996 -0.455000013
vn 0.917299986 -0.31220001 -0.247099996
vn 0.817300022 -0.240999997 0.523400009
vn 0.737699986 -0.282700002 0.613099992
vn 0.0988000035 -0.695900023 0.711300015
vn 0.768999994 -0.274300009 -0.577300012
vn -0.0844999999 -0.788699985 0.608900011
vn -0.241500005 -0.85710001 0.455000013
vn -0.338800013 -0.907800019 0.247099996
vn -0.330500007 -0.785300016 -0.523400009
vn -0.817300022 0.240899995 -0.523500025
vn 0.274300009 0.768999994 -0.577300012
vn 0.247999996 0.75 0.613099992
vn -0.917299986 0.312099993 0.247099996
vn -0.816399992 0.355399996 0.455000013
vn -0.664099991 0.433699995 0.608900011
vn -0.476300001 0.516900003 0.711300015
vn 0.33070001 0.785300016 0.523400009
vn -0.768999994 0.274300009 0.577300012
vn -0.737699986 0.282599986 -0.613099992
vn 0.338800013 0.907800019 -0.247099996
vn 0.241500005 0.85710001 -0.455000013
vn 0.0844999999 0.788699985 -0.608900011
vn -0.0988000035 0.695900023 -0.711300015
f 1//1 2//2 3//3
f 2//2 4//4 3//3
f 4//4 5//5 3//3
f 5//5 6//6 3//3
f 6//6 7//7 3//3
f 8//8 9//9 10//10
f 9//9 11//11 10//10
f 11//11 12//12 10//10
f 12//12 13//13 10//10
f 13//13 14//14 10//10
f 10//10 14//14 15//15
f 10//10 15//15 16//16
f 8//8 10//10 16//16
f 8//8 16//16 17//17
f 14//14 13//13 18//18
f 14//14 18//18 15//15
f 13//13 12//12 19//19
f 13//13 19//19 18//18
f 12//12 11//11 20//20
f 12//12 20//20 19//19
f 11//11 9//9 21//21
f 11//11 21//21 20//20
f 9//9 8//8 17//17
f 9//9 17//17 21//21
f 3//3 7//7 22//22
f 3//3 22//22 23//23
f 1//1 3//3 23//23
f 1//1 23//23 24//24
f 7//7 6//6 25//25
f 7//7 25//25 22//22
f 6//6 5//5 26//26
f 6//6 26//26 25//25
f 5//5 4//4 27//27
f 5//5 27//27 26//26
f 4//4 2//2 28//28
f 4//4 28//28 27//27
f 2//2 1//1 24//24
f 2//2 24//24 28//28
f 23//23 28//28 24//24
f 23//23 27//27 28//28
f 23//23 26//26 27//27
f 23//23 25//25 26//26
f 23//23 22//22 25//25
f 16//16 21//21 17//17
f 16//16 20//20 21//21
f 16//16 19//19 20//20
f 16//16 18//18 19//19
f 16//16 15//15 18//18
