# Generated by lxe_pbrt_scene_convert
v -3.27851892 -1.12134397 1.74017596
v -3.27840304 -1.12083995 1.74006605
v -3.28066492 -1.12075496 1.74008501
v -3.28057909 -1.12126696 1.74019504
v -3.28048396 -1.12183297 1.74019504
v -3.27864695 -1.12190199 1.74017596
v -3.2769649 -1.12264204 1.74017406
v -3.27663207 -1.12217498 1.74017406
v -3.27633095 -1.12175095 1.74006402
v -3.278723 -1.12223005 1.74017596
v -3.28042793 -1.12216604 1.74019504
v -3.28040099 -1.12232697 1.74113405
v -3.278759 -1.12238896 1.74111605
v -3.27725601 -1.12305105 1.74111402
v -3.27716088 -1.12291706 1.74017406
v -3.28250003 -1.12201405 1.74023998
v -3.28277493 -1.121575 1.74012995
v -3.28443503 -1.12311494 1.74019396
v -3.28401208 -1.12341595 1.74030399
v -3.28354406 -1.12374902 1.74030399
v -3.282197 -1.12249899 1.74023998
v -3.28201795 -1.12278402 1.74023998
v -3.28326893 -1.123945 1.74030399
v -3.28313589 -1.12404001 1.74124396
v -3.28193092 -1.12292302 1.74117994
v -3.28484201 -1.12530303 1.740381
v -3.28534698 -1.12518704 1.74027097
v -3.2854321 -1.12744904 1.74034297
v -3.28491998 -1.12736297 1.740453
v -3.28435302 -1.12726796 1.740453
v -3.28428411 -1.12543094 1.740381
v -3.283957 -1.12550604 1.740381
v -3.2840209 -1.12721205 1.740453
v -3.28385901 -1.12718403 1.74139297
v -3.28379703 -1.125543 1.74132097
v -3.28417206 -1.12928402 1.74050295
v -3.28461099 -1.12955904 1.74039304
v -3.28307199 -1.13121903 1.74041295
v -3.28276992 -1.130795 1.74052298
v -3.28243709 -1.13032806 1.74052298
v -3.28368711 -1.12898004 1.74050295
v -3.28340197 -1.12880194 1.74050295
v -3.28224206 -1.13005304 1.74052298
v -3.28214693 -1.12992001 1.74146295
v -3.28326392 -1.12871504 1.74144304
v -3.28088403 -1.13162601 1.74050105
v -3.2809999 -1.13213098 1.74039102
v -3.27873707 -1.13221502 1.74034095
v -3.2788229 -1.13170302 1.74045098
v -3.27891898 -1.13113701 1.74045098
v -3.28075504 -1.13106799 1.74050105
v -3.28067994 -1.13074005 1.74050105
v -3.27897501 -1.13080502 1.74045098
v -3.27900195 -1.13064301 1.74139094
v -3.28064299 -1.13058102 1.74144101
v -3.27690196 -1.13095605 1.74038601
v -3.27662706 -1.13139498 1.74027598
v -3.27496791 -1.12985599 1.740206
v -3.2753911 -1.12955403 1.74031603
v -3.27585793 -1.12922096 1.74031603
v -3.27720594 -1.13047099 1.74038601
v -3.27738404 -1.13018596 1.74038601
v -3.27613306 -1.12902606 1.74031603
v -3.27626705 -1.12892997 1.741256
v -3.27747107 -1.13004696 1.74132597
v -3.27455997 -1.12766695 1.74024999
v -3.27405596 -1.12778294 1.74013996
v -3.27397108 -1.12552094 1.74009001
v -3.27448297 -1.12560701 1.740201
v -3.27504897 -1.12570298 1.740201
v -3.27511811 -1.12753904 1.74024999
v -3.27544594 -1.12746406 1.74024999
v -3.27538204 -1.12575901 1.740201
v -3.27554393 -1.12578595 1.74114001
v -3.27560496 -1.12742698 1.74118996
v -3.27522993 -1.12368596 1.74017894
v -3.274791 -1.12341106 1.74006903
v -3.27571511 -1.12399006 1.74017894
v -3.27600002 -1.12416804 1.74017894
v -3.27613902 -1.12425494 1.74111795
v -3.27836394 -1.12067103 1.73173296
v -3.27836394 -1.12067103 1.72416997
v -3.28069401 -1.12058401 1.72418797
v -3.28069401 -1.12058401 1.73175097
v -3.28069401 -1.12058401 1.73753405
v -3.27836394 -1.12067103 1.73751497
v -3.2762301 -1.12161005 1.73751295
v -3.2762301 -1.12161005 1.73173106
v -3.2762301 -1.12161005 1.72416794
v -3.27836394 -1.12067103 1.73973596
v -3.28069401 -1.12058401 1.73975396
v -3.2762301 -1.12161005 1.73973405
v -3.28286695 -1.12142897 1.73179698
v -3.28286695 -1.12142897 1.72423398
v -3.28457594 -1.12301397 1.724298
v -3.28457594 -1.12301397 1.731861
v -3.28457594 -1.12301397 1.737643
v -3.28286695 -1.12142897 1.73757899
v -3.28286695 -1.12142897 1.73979998
v -3.28457594 -1.12301397 1.73986399
v -3.28551507 -1.12514806 1.731938
v -3.28551507 -1.12514806 1.72437501
v -3.28560305 -1.127478 1.72444701
v -3.28560305 -1.127478 1.73201001
v -3.28560305 -1.127478 1.73779202
v -3.28551507 -1.12514806 1.73772001
v -3.28551507 -1.12514806 1.739941
v -3.28560305 -1.127478 1.740013
v -3.28475809 -1.12965095 1.73205996
v -3.28475809 -1.12965095 1.72449696
v -3.28317189 -1.13136005 1.72451699
v -3.28317189 -1.13136005 1.73207998
v -3.28317189 -1.13136005 1.73786199
v -3.28475809 -1.12965095 1.73784196
v -3.28475809 -1.12965095 1.74006295
v -3.28317189 -1.13136005 1.74008298
v -3.28103805 -1.13229895 1.73205698
v -3.28103805 -1.13229895 1.72449398
v -3.27870893 -1.13238597 1.72444499
v -3.27870893 -1.13238597 1.73200798
v -3.27870798 -1.13238597 1.73778999
v -3.28103805 -1.13229895 1.73784006
v -3.28103805 -1.13229895 1.74006104
v -3.27870893 -1.13238597 1.74001098
v -3.27653599 -1.13154101 1.73194301
v -3.27653599 -1.13154101 1.72438002
v -3.274827 -1.12995601 1.72431004
v -3.274827 -1.12995601 1.73187304
v -3.274827 -1.12995601 1.73765504
v -3.27653599 -1.13154101 1.73772502
v -3.27653599 -1.13154101 1.73994601
v -3.274827 -1.12995601 1.73987603
v -3.27388811 -1.12782204 1.73180699
v -3.27388811 -1.12782204 1.724244
v -3.2737999 -1.12549198 1.72419405
v -3.2737999 -1.12549198 1.73175704
v -3.2737999 -1.12549198 1.73754001
v -3.27388811 -1.12782204 1.737589
v -3.27388811 -1.12782204 1.73980999
v -3.2737999 -1.12549198 1.73976004
v -3.27464509 -1.12331998 1.73173499
v -3.27464509 -1.12331998 1.724172
v -3.27464509 -1.12331998 1.73751795
v -3.27464509 -1.12331998 1.73973799
v -3.27877092 -1.12244201 1.74393499
v -3.28039098 -1.12238097 1.74395394
v -3.28039098 -1.12238097 1.74688303
v -3.27877092 -1.12244201 1.74686503
v -3.27728796 -1.12309504 1.74686301
v -3.27728796 -1.12309504 1.74393296
v -3.27877092 -1.12244201 1.74813497
v -3.28039098 -1.12238097 1.74815404
v -3.28034091 -1.12268496 1.74841106
v -3.27911592 -1.12278497 1.74848497
v -3.27758908 -1.12351894 1.74848497
v -3.27728796 -1.12309504 1.74813294
v -3.28190303 -1.12296903 1.743999
v -3.28309107 -1.124071 1.74406397
v -3.28309107 -1.124071 1.74699295
v -3.28190303 -1.12296903 1.74692905
v -3.28190303 -1.12296903 1.74819899
v -3.28309107 -1.124071 1.74826396
v -3.28266692 -1.12437296 1.74860096
v -3.28146505 -1.12318003 1.74853301
v -3.2837441 -1.12555504 1.74414003
v -3.28380489 -1.12717497 1.74421203
v -3.28380489 -1.12717497 1.74714196
v -3.2837441 -1.12555504 1.74706995
v -3.2837441 -1.12555504 1.74834001
v -3.28380489 -1.12717497 1.74841201
v -3.2835021 -1.12712395 1.74864805
v -3.28340101 -1.12590003 1.74868
v -3.28321695 -1.12868595 1.74426305
v -3.28211498 -1.12987494 1.74428201
v -3.28211498 -1.12987494 1.74721205
v -3.28321695 -1.12868595 1.74719203
v -3.28321695 -1.12868595 1.74846303
v -3.28211498 -1.12987494 1.74848199
v -3.28181291 -1.12945104 1.74879098
v -3.28300595 -1.12824798 1.74877203
v -3.28063107 -1.13052797 1.74425995
v -3.27901101 -1.13058901 1.74421
v -3.27901101 -1.13058901 1.74714005
v -3.28063107 -1.13052797 1.74719
v -3.28063107 -1.13052797 1.74846005
v -3.27901101 -1.13058901 1.74840999
v -3.27906203 -1.13028598 1.74864805
v -3.28028607 -1.13018501 1.74877
v -3.27749991 -1.13000095 1.74414599
v -3.27631092 -1.12889898 1.74407601
v -3.27631092 -1.12889898 1.74700499
v -3.27749991 -1.13000095 1.74707496
v -3.27749991 -1.13000095 1.74834597
v -3.27631092 -1.12889898 1.748276
v -3.27673507 -1.12859702 1.74861205
v -3.27793789 -1.12978995 1.74868405
v -3.27565789 -1.12741494 1.74400997
v -3.27559805 -1.12579501 1.74396002
v -3.27559805 -1.12579501 1.746889
v -3.27565789 -1.12741494 1.74693894
v -3.27565789 -1.12741494 1.74820995
v -3.27559805 -1.12579501 1.74816
v -3.27590108 -1.12584603 1.74841702
v -3.27600098 -1.12706995 1.74854195
v -3.27618504 -1.12428403 1.74393797
v -3.27618504 -1.12428403 1.74686694
v -3.27618504 -1.12428403 1.74813795
v -3.27639604 -1.124722 1.74848795
v -3.28015089 -1.12381303 1.74865198
v -3.27849388 -1.12478995 1.74865901
v -3.28139591 -1.125278 1.74873102
v -3.27970099 -1.12648499 1.74874604
v -3.28237391 -1.12693501 1.74881601
v -3.28090811 -1.12818003 1.74883401
v -3.27925205 -1.12915802 1.74881899
v -3.27800608 -1.12769198 1.74873698
v -3.27702904 -1.12603605 1.74865699
vn 0.0311999992 0.113499999 0.992999971
vn 0.145799994 0.618900001 0.771799982
vn -0.0957999974 0.630599976 0.770099998
vn -0.00490000006 0.119599998 0.992799997
vn 0.0163000003 0.00419999985 0.999800026
vn 0.00540000014 -0.00039999999 1
vn -0.000300000014 0.000699999975 1
vn 0.067900002 0.0962999985 0.992999971
vn 0.369199991 0.519200027 0.770799994
vn 0.137899995 0.577000022 0.805000007
vn -0.0819000006 0.582599998 0.808600008
vn -0.163200006 0.981700003 0.0973000005
vn 0.223700002 0.969799995 0.0967999995
vn 0.577199996 0.810800016 0.0970000029
vn 0.340999991 0.479900002 0.808300018
vn -0.0406000018 0.113499999 0.992699981
vn -0.32249999 0.548099995 0.771700025
vn -0.506099999 0.387800008 0.770399988
vn -0.0768999979 0.0954999998 0.992399991
vn 0.0209999997 0.0305000003 0.999300003
vn 0.0239000004 0.0161000006 0.999599993
vn -0.291799992 0.51700002 0.804700017
vn -0.459100008 0.369800001 0.807699978
vn -0.808399975 0.580600023 0.0970999971
vn -0.525399983 0.845300019 0.0967999995
vn -0.105899997 0.0601999983 0.992500007
vn -0.613300025 0.1655 0.772300005
vn -0.630100012 -0.0863000005 0.771700025
vn -0.1197 0.00910000037 0.992699981
vn -0.00419999985 0.0318999998 0.999499977
vn 0.00889999978 0.0379000008 0.999199986
vn -0.570599973 0.168599993 0.80369997
vn -0.586499989 -0.067900002 0.807099998
vn -0.98210001 -0.161599994 0.0966000035
vn -0.969099998 0.227200001 0.0965000018
vn -0.106399998 -0.0472000018 0.993200004
vn -0.542800009 -0.326700002 0.773699999
vn -0.367700011 -0.517199993 0.772800028
vn -0.0665000007 -0.0944999978 0.993300021
vn 0.00170000002 0.0013 1
vn -0.0083999997 0.0164000001 0.999800026
vn -0.513400018 -0.301099986 0.803600013
vn -0.342000008 -0.481299996 0.806999981
vn -0.577199996 -0.810800016 0.0962999985
vn -0.844699979 -0.526499987 0.0961000025
vn -0.00939999986 -0.116300002 0.993200004
vn -0.130799994 -0.620100021 0.773500025
vn 0.123400003 -0.624000013 0.771600008
vn 0.0460000001 -0.110699996 0.992799997
vn 0.0295000002 0.0057000001 0.999499977
vn 0.0186999999 -0.0027999999 0.999800026
vn -0.1162 -0.583599985 0.80369997
vn 0.125699997 -0.576600015 0.807299972
vn 0.168400005 -0.981000006 0.0966999978
vn -0.221000001 -0.970499992 0.0961999968
vn 0.0886999965 -0.0820000023 0.992699981
vn 0.354999989 -0.52640003 0.772599995
vn 0.531099975 -0.351700008 0.770799994
vn 0.114399999 -0.0421999991 0.992500007
vn 0.0208000001 0.0288999993 0.99940002
vn 0.0297999997 0.0189999994 0.99940002
vn 0.343100011 -0.485900015 0.803799987
vn 0.499199986 -0.314099997 0.807500005
vn 0.813000023 -0.574100018 0.0969000012
vn 0.531400025 -0.841499984 0.0964000002
vn 0.120700002 0.000199999995 0.992699981
vn 0.623600006 -0.124399997 0.771799982
vn 0.627099991 0.1171 0.769999981
vn 0.114399999 0.0364000015 0.992799997
vn -0.00170000002 0.0187999997 0.999800026
vn 0.00749999983 0.0294000003 0.999499977
vn 0.584500015 -0.1052 0.804499984
vn 0.576900005 0.115099996 0.808600008
vn 0.981100023 0.167099997 0.0973000005
vn 0.970700026 -0.219799995 0.0966999978
vn 0.0962999985 0.0678000003 0.992999971
vn 0.536599994 0.340900004 0.771799982
vn -0.00289999996 0.00639999984 1
vn 0.49939999 0.320300013 0.805000007
vn 0.843200028 0.528699994 0.0967999995
vn 0.224099994 0.9745 0
vn 0.224600002 0.974399984 0
vn -0.164100006 0.986400008 0
vn -0.165900007 0.986100018 0
vn -0.165900007 0.986100018 0
vn 0.224099994 0.9745 0
vn 0.579999983 0.814599991 0
vn 0.579999983 0.814599991 0
vn 0.579900026 0.814700007 0
vn 0.218899995 0.947799981 0.2315
vn -0.158500001 0.959800005 0.2315
vn 0.564100027 0.792400002 0.231900007
vn -0.530600011 0.847599983 0
vn -0.528199971 0.849099994 0
vn -0.812300026 0.583199978 0
vn -0.814599991 0.579999983 0
vn -0.814599991 0.579999983 0
vn -0.530600011 0.847599983 0
vn -0.511900008 0.827199996 0.231700003
vn -0.788699985 0.569400012 0.231800005
vn -0.9745 0.224099994 0
vn -0.973699987 0.227899998 0
vn -0.986699998 -0.162499994 0
vn -0.986100018 -0.165800005 0
vn -0.986100018 -0.165800005 0
vn -0.9745 0.224199995 0
vn -0.94630003 0.224800006 0.232199997
vn -0.959900022 -0.155699998 0.232899994
vn -0.847599983 -0.530600011 0
vn -0.848500013 -0.529100001 0
vn -0.579900026 -0.814599991 0
vn -0.579999983 -0.814599991 0
vn -0.579999983 -0.814599991 0
vn -0.847599983 -0.530700028 0
vn -0.825900018 -0.513300002 0.2333
vn -0.56370002 -0.792200029 0.233700007
vn -0.224099994 -0.9745 0
vn -0.222299993 -0.975000024 0
vn 0.169 -0.985599995 0
vn 0.165800005 -0.986100018 0
vn 0.165900007 -0.986100018 0
vn -0.224099994 -0.9745 0
vn -0.214599997 -0.948499978 0.233099997
vn 0.166600004 -0.958100021 0.232800007
vn 0.530600011 -0.847599983 0
vn 0.533599973 -0.845700026 0
vn 0.816799998 -0.576900005 0
vn 0.814599991 -0.579999983 0
vn 0.814599991 -0.579999983 0
vn 0.530600011 -0.847599983 0
vn 0.521499991 -0.820900023 0.232500002
vn 0.795899987 -0.559000015 0.232199997
vn 0.9745 -0.224099994 0
vn 0.975199997 -0.221200004 0
vn 0.985800028 0.167899996 0
vn 0.986100018 0.165800005 0
vn 0.986100018 0.165800005 0
vn 0.9745 -0.224099994 0
vn 0.949199975 -0.212899998 0.231800005
vn 0.958800018 0.1646 0.231399998
vn 0.847599983 0.530600011 0
vn 0.847199976 0.531199992 0
vn 0.847599983 0.530600011 0
vn 0.823899984 0.517199993 0.231600001
vn 0.224199995 0.9745 0.00970000029
vn -0.165700004 0.986100018 0.00970000029
vn -0.165900007 0.986100018 0
vn 0.224099994 0.9745 0
vn 0.579999983 0.814599991 0
vn 0.579999983 0.814499974 0.00970000029
vn 0.221300006 0.880200028 0.419800013
vn -0.146500006 0.911300004 0.3847
vn -0.0650999993 0.488099992 0.870400012
vn 0.0775000006 0.4208 0.903800011
vn 0.221000001 0.312099993 0.924000025
vn 0.522099972 0.733799994 0.434599996
vn -0.530300021 0.8477 0.00970000029
vn -0.814300001 0.580299973 0.00970000029
vn -0.814499974 0.5801 0
vn -0.530600011 0.847599983 0
vn -0.483399987 0.76639998 0.422899991
vn -0.720799983 0.533999979 0.441900015
vn -0.270799994 0.241600007 0.931800008
vn -0.174999997 0.382800013 0.907100022
vn -0.974399984 0.224600002 0.00960000046
vn -0.986100018 -0.1655 0.00960000046
vn -0.986100018 -0.165800005 0
vn -0.9745 0.224199995 0
vn -0.869599998 0.235100001 0.434100002
vn -0.904500008 -0.138300002 0.403299987
vn -0.448100001 -0.0416000001 0.893000007
vn -0.379799992 0.103 0.91930002
vn -0.8477 -0.530399978 0.00960000046
vn -0.579999983 -0.814599991 0.00960000046
vn -0.579999983 -0.814599991 0
vn -0.847599983 -0.530600011 0
vn -0.754400015 -0.482600003 0.444900006
vn -0.514400005 -0.722800016 0.461400002
vn -0.183699995 -0.258399993 0.948400021
vn -0.337500006 -0.156000003 0.928300023
vn -0.223900005 -0.9745 0.00960000046
vn 0.166199997 -0.986000001 0.00970000029
vn 0.165900007 -0.986100018 0
vn -0.224099994 -0.9745 0
vn -0.209099993 -0.871200025 0.444000006
vn 0.164299995 -0.90079999 0.401899993
vn 0.105300002 -0.439700007 0.891900003
vn -0.0379000008 -0.371699989 0.927600026
vn 0.530900002 -0.84740001 0.00960000046
vn 0.814800024 -0.579699993 0.00970000029
vn 0.814599991 -0.579999983 0
vn 0.530600011 -0.847599983 0
vn 0.505400002 -0.745800018 0.433999985
vn 0.739600003 -0.506500006 0.443100005
vn 0.314700007 -0.176599994 0.932600021
vn 0.218999997 -0.327300012 0.919200003
vn 0.974600017 -0.223700002 0.00970000029
vn 0.986100018 0.166099995 0.00970000029
vn 0.986100018 0.165900007 0
vn 0.974600017 -0.224000007 0
vn 0.882200003 -0.205300003 0.423700005
vn 0.908999979 0.160600007 0.384600013
vn 0.481900007 0.100299999 0.870400012
vn 0.417800009 -0.0381000005 0.907700002
vn 0.847500026 0.530700028 0.00970000029
vn 0.847599983 0.530700028 0
vn 0.75910002 0.497700006 0.41960001
vn 0.371300012 0.212599993 0.903800011
vn 0.00310000009 0.114399999 0.993399978
vn 0.0454999991 0.0659999996 0.996800005
vn -0.0148 0.0631000027 0.997900009
vn 0.0233999994 0.0350000001 0.999100029
vn -0.056400001 0.0276999995 0.998000026
vn 0.00170000002 0.00340000005 1
vn 0.0425999984 -0.0452000014 0.998000026
vn 0.0621000007 0.0074 0.998000026
vn 0.1052 0.0421999991 0.993499994
f 1//1 2//2 3//3
f 1//1 3//3 4//4
f 1//1 4//4 5//5
f 1//1 5//5 6//6
f 1//1 6//6 7//7
f 1//1 7//7 8//8
f 1//1 8//8 9//9
f 1//1 9//9 2//2
f 10//10 6//6 5//5
f 10//10 5//5 11//11
f 10//10 11//11 12//12
f 10//10 12//12 13//13
f 10//10 13//13 14//14
f 10//10 14//14 15//15
f 10//10 15//15 7//7
f 10//10 7//7 6//6
f 16//16 4//4 3//3
f 16//16 3//3 17//17
f 16//16 17//17 18//18
f 16//16 18//18 19//19
f 16//16 19//19 20//20
f 16//16 20//20 21//21
f 16//16 21//21 5//5
f 16//16 5//5 4//4
f 22//22 11//11 5//5
f 22//22 5//5 21//21
f 22//22 21//21 20//20
f 22//22 20//20 23//23
f 22//22 23//23 24//24
f 22//22 24//24 25//25
f 22//22 25//25 12//12
f 22//22 12//12 11//11
f 26//26 19//19 18//18
f 26//26 18//18 27//27
f 26//26 27//27 28//28
f 26//26 28//28 29//29
f 26//26 29//29 30//30
f 26//26 30//30 31//31
f 26//26 31//31 20//20
f 26//26 20//20 19//19
f 32//32 23//23 20//20
f 32//32 20//20 31//31
f 32//32 31//31 30//30
f 32//32 30//30 33//33
f 32//32 33//33 34//34
f 32//32 34//34 35//35
f 32//32 35//35 24//24
f 32//32 24//24 23//23
f 36//36 29//29 28//28
f 36//36 28//28 37//37
f 36//36 37//37 38//38
f 36//36 38//38 39//39
f 36//36 39//39 40//40
f 36//36 40//40 41//41
f 36//36 41//41 30//30
f 36//36 30//30 29//29
f 42//42 33//33 30//30
f 42//42 30//30 41//41
f 42//42 41//41 40//40
f 42//42 40//40 43//43
f 42//42 43//43 44//44
f 42//42 44//44 45//45
f 42//42 45//45 34//34
f 42//42 34//34 33//33
f 46//46 39//39 38//38
f 46//46 38//38 47//47
f 46//46 47//47 48//48
f 46//46 48//48 49//49
f 46//46 49//49 50//50
f 46//46 50//50 51//51
f 46//46 51//51 40//40
f 46//46 40//40 39//39
f 52//52 43//43 40//40
f 52//52 40//40 51//51
f 52//52 51//51 50//50
f 52//52 50//50 53//53
f 52//52 53//53 54//54
f 52//52 54//54 55//55
f 52//52 55//55 44//44
f 52//52 44//44 43//43
f 56//56 49//49 48//48
f 56//56 48//48 57//57
f 56//56 57//57 58//58
f 56//56 58//58 59//59
f 56//56 59//59 60//60
f 56//56 60//60 61//61
f 56//56 61//61 50//50
f 56//56 50//50 49//49
f 62//62 53//53 50//50
f 62//62 50//50 61//61
f 62//62 61//61 60//60
f 62//62 60//60 63//63
f 62//62 63//63 64//64
f 62//62 64//64 65//65
f 62//62 65//65 54//54
f 62//62 54//54 53//53
f 66//66 59//59 58//58
f 66//66 58//58 67//67
f 66//66 67//67 68//68
f 66//66 68//68 69//69
f 66//66 69//69 70//70
f 66//66 70//70 71//71
f 66//66 71//71 60//60
f 66//66 60//60 59//59
f 72//72 63//63 60//60
f 72//72 60//60 71//71
f 72//72 71//71 70//70
f 72//72 70//70 73//73
f 72//72 73//73 74//74
f 72//72 74//74 75//75
f 72//72 75//75 64//64
f 72//72 64//64 63//63
f 76//76 77//77 9//9
f 76//76 9//9 8//8
f 76//76 8//8 7//7
f 76//76 7//7 78//78
f 76//76 78//78 70//70
f 76//76 70//70 69//69
f 76//76 69//69 68//68
f 76//76 68//68 77//77
f 79//79 78//78 7//7
f 79//79 7//7 15//15
f 79//79 15//15 14//14
f 79//79 14//14 80//80
f 79//79 80//80 74//74
f 79//79 74//74 73//73
f 79//79 73//73 70//70
f 79//79 70//70 78//78
f 81//81 82//82 83//83
f 81//81 83//83 84//84
f 81//81 84//84 85//85
f 81//81 85//85 86//86
f 81//81 86//86 87//87
f 81//81 87//87 88//88
f 81//81 88//88 89//89
f 81//81 89//89 82//82
f 90//90 86//86 85//85
f 90//90 85//85 91//91
f 90//90 91//91 3//3
f 90//90 3//3 2//2
f 90//90 2//2 9//9
f 90//90 9//9 92//92
f 90//90 92//92 87//87
f 90//90 87//87 86//86
f 93//93 84//84 83//83
f 93//93 83//83 94//94
f 93//93 94//94 95//95
f 93//93 95//95 96//96
f 93//93 96//96 97//97
f 93//93 97//97 98//98
f 93//93 98//98 85//85
f 93//93 85//85 84//84
f 99//99 91//91 85//85
f 99//99 85//85 98//98
f 99//99 98//98 97//97
f 99//99 97//97 100//100
f 99//99 100//100 18//18
f 99//99 18//18 17//17
f 99//99 17//17 3//3
f 99//99 3//3 91//91
f 101//101 96//96 95//95
f 101//101 95//95 102//102
f 101//101 102//102 103//103
f 101//101 103//103 104//104
f 101//101 104//104 105//105
f 101//101 105//105 106//106
f 101//101 106//106 97//97
f 101//101 97//97 96//96
f 107//107 100//100 97//97
f 107//107 97//97 106//106
f 107//107 106//106 105//105
f 107//107 105//105 108//108
f 107//107 108//108 28//28
f 107//107 28//28 27//27
f 107//107 27//27 18//18
f 107//107 18//18 100//100
f 109//109 104//104 103//103
f 109//109 103//103 110//110
f 109//109 110//110 111//111
f 109//109 111//111 112//112
f 109//109 112//112 113//113
f 109//109 113//113 114//114
f 109//109 114//114 105//105
f 109//109 105//105 104//104
f 115//115 108//108 105//105
f 115//115 105//105 114//114
f 115//115 114//114 113//113
f 115//115 113//113 116//116
f 115//115 116//116 38//38
f 115//115 38//38 37//37
f 115//115 37//37 28//28
f 115//115 28//28 108//108
f 117//117 112//112 111//111
f 117//117 111//111 118//118
f 117//117 118//118 119//119
f 117//117 119//119 120//120
f 117//117 120//120 121//121
f 117//117 121//121 122//122
f 117//117 122//122 113//113
f 117//117 113//113 112//112
f 123//123 116//116 113//113
f 123//123 113//113 122//122
f 123//123 122//122 121//121
f 123//123 121//121 124//124
f 123//123 124//124 48//48
f 123//123 48//48 47//47
f 123//123 47//47 38//38
f 123//123 38//38 116//116
f 125//125 120//120 119//119
f 125//125 119//119 126//126
f 125//125 126//126 127//127
f 125//125 127//127 128//128
f 125//125 128//128 129//129
f 125//125 129//129 130//130
f 125//125 130//130 121//121
f 125//125 121//121 120//120
f 131//131 124//124 121//121
f 131//131 121//121 130//130
f 131//131 130//130 129//129
f 131//131 129//129 132//132
f 131//131 132//132 58//58
f 131//131 58//58 57//57
f 131//131 57//57 48//48
f 131//131 48//48 124//124
f 133//133 128//128 127//127
f 133//133 127//127 134//134
f 133//133 134//134 135//135
f 133//133 135//135 136//136
f 133//133 136//136 137//137
f 133//133 137//137 138//138
f 133//133 138//138 129//129
f 133//133 129//129 128//128
f 139//139 132//132 129//129
f 139//139 129//129 138//138
f 139//139 138//138 137//137
f 139//139 137//137 140//140
f 139//139 140//140 68//68
f 139//139 68//68 67//67
f 139//139 67//67 58//58
f 139//139 58//58 132//132
f 141//141 142//142 89//89
f 141//141 89//89 88//88
f 141//141 88//88 87//87
f 141//141 87//87 143//143
f 141//141 143//143 137//137
f 141//141 137//137 136//136
f 141//141 136//136 135//135
f 141//141 135//135 142//142
f 144//144 143//143 87//87
f 144//144 87//87 92//92
f 144//144 92//92 9//9
f 144//144 9//9 77//77
f 144//144 77//77 68//68
f 144//144 68//68 140//140
f 144//144 140//140 137//137
f 144//144 137//137 143//143
f 145//145 13//13 12//12
f 145//145 12//12 146//146
f 145//145 146//146 147//147
f 145//145 147//147 148//148
f 145//145 148//148 149//149
f 145//145 149//149 150//150
f 145//145 150//150 14//14
f 145//145 14//14 13//13
f 151//151 148//148 147//147
f 151//151 147//147 152//152
f 151//151 152//152 153//153
f 151//151 153//153 154//154
f 151//151 154//154 155//155
f 151//151 155//155 156//156
f 151//151 156//156 149//149
f 151//151 149//149 148//148
f 157//157 146//146 12//12
f 157//157 12//12 25//25
f 157//157 25//25 24//24
f 157//157 24//24 158//158
f 157//157 158//158 159//159
f 157//157 159//159 160//160
f 157//157 160//160 147//147
f 157//157 147//147 146//146
f 161//161 152//152 147//147
f 161//161 147//147 160//160
f 161//161 160//160 159//159
f 161//161 159//159 162//162
f 161//161 162//162 163//163
f 161//161 163//163 164//164
f 161//161 164//164 153//153
f 161//161 153//153 152//152
f 165//165 158//158 24//24
f 165//165 24//24 35//35
f 165//165 35//35 34//34
f 165//165 34//34 166//166
f 165//165 166//166 167//167
f 165//165 167//167 168//168
f 165//165 168//168 159//159
f 165//165 159//159 158//158
f 169//169 162//162 159//159
f 169//169 159//159 168//168
f 169//169 168//168 167//167
f 169//169 167//167 170//170
f 169//169 170//170 171//171
f 169//169 171//171 172//172
f 169//169 172//172 163//163
f 169//169 163//163 162//162
f 173//173 166//166 34//34
f 173//173 34//34 45//45
f 173//173 45//45 44//44
f 173//173 44//44 174//174
f 173//173 174//174 175//175
f 173//173 175//175 176//176
f 173//173 176//176 167//167
f 173//173 167//167 166//166
f 177//177 170//170 167//167
f 177//177 167//167 176//176
f 177//177 176//176 175//175
f 177//177 175//175 178//178
f 177//177 178//178 179//179
f 177//177 179//179 180//180
f 177//177 180//180 171//171
f 177//177 171//171 170//170
f 181//181 174//174 44//44
f 181//181 44//44 55//55
f 181//181 55//55 54//54
f 181//181 54//54 182//182
f 181//181 182//182 183//183
f 181//181 183//183 184//184
f 181//181 184//184 175//175
f 181//181 175//175 174//174
f 185//185 178//178 175//175
f 185//185 175//175 184//184
f 185//185 184//184 183//183
f 185//185 183//183 186//186
f 185//185 186//186 187//187
f 185//185 187//187 188//188
f 185//185 188//188 179//179
f 185//185 179//179 178//178
f 189//189 182//182 54//54
f 189//189 54//54 65//65
f 189//189 65//65 64//64
f 189//189 64//64 190//190
f 189//189 190//190 191//191
f 189//189 191//191 192//192
f 189//189 192//192 183//183
f 189//189 183//183 182//182
f 193//193 186//186 183//183
f 193//193 183//183 192//192
f 193//193 192//192 191//191
f 193//193 191//191 194//194
f 193//193 194//194 195//195
f 193//193 195//195 196//196
f 193//193 196//196 187//187
f 193//193 187//187 186//186
f 197//197 190//190 64//64
f 197//197 64//64 75//75
f 197//197 75//75 74//74
f 197//197 74//74 198//198
f 197//197 198//198 199//199
f 197//197 199//199 200//200
f 197//197 200//200 191//191
f 197//197 191//191 190//190
f 201//201 194//194 191//191
f 201//201 191//191 200//200
f 201//201 200//200 199//199
f 201//201 199//199 202//202
f 201//201 202//202 203//203
f 201//201 203//203 204//204
f 201//201 204//204 195//195
f 201//201 195//195 194//194
f 205//205 80//80 14//14
f 205//205 14//14 150//150
f 205//205 150//150 149//149
f 205//205 149//149 206//206
f 205//205 206//206 199//199
f 205//205 199//199 198//198
f 205//205 198//198 74//74
f 205//205 74//74 80//80
f 207//207 206//206 149//149
f 207//207 149//149 156//156
f 207//207 156//156 155//155
f 207//207 155//155 208//208
f 207//207 208//208 203//203
f 207//207 203//203 202//202
f 207//207 202//202 199//199
f 207//207 199//199 206//206
f 209//209 210//210 155//155
f 209//209 155//155 154//154
f 209//209 154//154 153//153
f 209//209 153//153 164//164
f 209//209 164//164 163//163
f 209//209 163//163 211//211
f 209//209 211//211 212//212
f 209//209 212//212 210//210
f 213//213 211//211 163//163
f 213//213 163//163 172//172
f 213//213 172//172 171//171
f 213//213 171//171 180//180
f 213//213 180//180 179//179
f 213//213 179//179 214//214
f 213//213 214//214 212//212
f 213//213 212//212 211//211
f 215//215 214//214 179//179
f 215//215 179//179 188//188
f 215//215 188//188 187//187
f 215//215 187//187 196//196
f 215//215 196//196 195//195
f 215//215 195//195 216//216
f 215//215 216//216 212//212
f 215//215 212//212 214//214
f 217//217 216//216 195//195
f 217//217 195//195 204//204
f 217//217 204//204 203//203
f 217//217 203//203 208//208
f 217//217 208//208 155//155
f 217//217 155//155 210//210
f 217//217 210//210 212//212
f 217//217 212//212 216//216
