# Generated by lxe_pbrt_scene_convert
v 4.72475481 0.139908001 -0.530158997
v 4.73256302 0.139908001 -0.467767
v 4.7241888 0.194658995 -0.498546004
v 4.71509886 0.194658995 -0.562148988
v 4.7241888 0.194658995 -0.498546004
v 4.73256302 0.139908001 -0.467767
v 4.73801279 0.140561 -0.468968987
v 4.72963905 0.195311993 -0.499747008
v 4.72475481 0.139908001 -0.530158997
v 4.71509886 0.194658995 -0.562148988
v 4.72054911 0.195311993 -0.563350022
v 4.73020506 0.140561 -0.531359971
v 4.71509886 0.194658995 -0.562148988
v 4.7241888 0.194658995 -0.498546004
v 4.72963905 0.195311993 -0.499747008
v 4.72054911 0.195311993 -0.563350022
v 4.73256302 0.139908001 -0.467767
v 4.72475481 0.139908001 -0.530158997
v 4.73020506 0.140561 -0.531359971
v 4.73801279 0.140561 -0.468968987
v 4.72963905 0.195311993 -0.499747008
v 4.73801279 0.140561 -0.468968987
v 4.73020506 0.140561 -0.531359971
v 4.72054911 0.195311993 -0.563350022
vt 0 0
vt 0 1
vt 1 1
vt 1 0
vt 0 0
vt 0 1
vt 1 1
vt 1 0
vt 0 0
vt 0 1
vt 1 1
vt 1 0
vt 0 0
vt 0 1
vt 1 1
vt 1 0
vt 0 0
vt 0 1
vt 1 1
vt 1 0
vt 0 0
vt 0 1
vt 1 1
vt 1 0
vn -0.987399995 -0.0866999999 0.132400006
vn -0.987399995 -0.0866999999 0.132400006
vn -0.987399995 -0.0866999999 0.132400006
vn -0.987399995 -0.0866999999 0.132400006
vn 0.128600001 0.500800014 0.85589999
vn 0.128600001 0.500800014 0.85589999
vn 0.128600001 0.500800014 0.85589999
vn 0.128600001 0.500800014 0.85589999
vn -0.124700002 -0.516900003 -0.846899986
vn -0.124700002 -0.516900003 -0.846899986
vn -0.124700002 -0.516900003 -0.846899986
vn -0.124700002 -0.516900003 -0.846899986
vn -0.115400001 0.993200004 0.0164999999
vn -0.115400001 0.993200004 0.0164999999
vn -0.115400001 0.993200004 0.0164999999
vn -0.115400001 0.993200004 0.0164999999
vn 0.115800001 -0.993200004 -0.0144999996
vn 0.115800001 -0.993200004 -0.0144999996
vn 0.115800001 -0.993200004 -0.0144999996
vn 0.115800001 -0.993200004 -0.0144999996
vn 0.987399995 0.0866999999 -0.132400006
vn 0.987399995 0.0866999999 -0.132400006
vn 0.987399995 0.0866999999 -0.132400006
vn 0.987399995 0.0866999999 -0.132400006
f 1/1/1 2/2/2 3/3/3
f 1/1/1 3/3/3 4/4/4
f 5/5/5 6/6/6 7/7/7
f 5/5/5 7/7/7 8/8/8
f 9/9/9 10/10/10 11/11/11
f 9/9/9 11/11/11 12/12/12
f 13/13/13 14/14/14 15/15/15
f 13/13/13 15/15/15 16/16/16
f 17/17/17 18/18/18 19/19/19
f 17/17/17 19/19/19 20/20/20
f 21/21/21 22/22/22 23/23/23
f 21/21/21 23/23/23 24/24/24
