# Generated by lxe_pbrt_scene_convert
v -0.379595995 1.21291494 1.04576802
v -0.378785998 1.21325898 1.04356897
v -0.391636997 1.222458 0.960672021
v -0.392746001 1.22235894 0.96082598
v -0.40395999 1.23082697 0.875967026
v -0.405014008 1.23072302 0.876101017
v -0.378167003 1.21361303 1.04071701
v -0.390590012 1.22248304 0.960536003
v -0.402960986 1.23085594 0.875847995
v -0.393976986 1.22211003 0.961014986
v -0.380787998 1.21258998 1.04665804
v -0.395390987 1.22163701 0.961255014
v -0.38230899 1.21212602 1.04693305
v -0.406177998 1.23046899 0.876264989
v -0.407507002 1.22998798 0.876474977
v -0.366939992 1.20229495 1.13289595
v -0.366019994 1.20286298 1.12995398
v -0.352762997 1.19161296 1.219432
v -0.352232009 1.19250703 1.21376395
v -0.368582994 1.201841 1.13320994
v -0.354535013 1.19116998 1.21978605
v -0.366234988 1.20395303 1.12166703
v -0.367018014 1.20530295 1.11070597
v -0.353836 1.194592 1.19736397
v -0.358465999 1.19861102 1.16481698
v -0.425606996 1.24303997 0.710251987
v -0.426699013 1.24277997 0.710380971
v -0.417062014 1.23727906 0.792707026
v -0.415942997 1.23753798 0.792562008
v -0.406177998 1.23046899 0.876264989
v -0.405014008 1.23072302 0.876101017
v -0.427937001 1.242293 0.710545003
v -0.418332994 1.23679304 0.792891026
v -0.407507002 1.22998798 0.876474977
v -0.414925009 1.23764503 0.792443991
v -0.424611002 1.24314904 0.710147023
v -0.413958013 1.23767698 0.792339981
v -0.42366299 1.24318099 0.71005398
v -0.40395999 1.23082697 0.875967026
v -0.402960986 1.23085594 0.875847995
v -0.433097988 1.247576 0.629118979
v -0.434083015 1.24746895 0.629213989
v -0.440465987 1.25116503 0.549403012
v -0.441448003 1.25106502 0.549489975
v -0.43215999 1.24760699 0.629034996
v -0.439532012 1.25119102 0.549327016
v -0.435162991 1.24721205 0.629329979
v -0.436383009 1.24672794 0.629477978
v -0.442521989 1.25081396 0.549594998
v -0.443737 1.25033998 0.549730003
v -0.453054011 1.25651598 0.39478001
v -0.452069998 1.25659299 0.394708008
v -0.456276 1.25852799 0.321069986
v -0.457266003 1.25846398 0.321135014
v -0.459399015 1.26001096 0.250799
v -0.460397005 1.25995803 0.250854999
v -0.451133013 1.25659704 0.394643992
v -0.455332994 1.25852203 0.321013004
v -0.458449006 1.25999498 0.250750005
v -0.458350986 1.25825906 0.32121399
v -0.454131991 1.25629401 0.394869
v -0.459578991 1.25784099 0.321314991
v -0.455350995 1.25585604 0.394980997
v -0.461492985 1.25976503 0.250923008
v -0.462734997 1.25936401 0.251010001
v -0.448850989 1.25382698 0.471219003
v -0.44777599 1.25406504 0.471121997
v -0.442521989 1.25081396 0.549594998
v -0.441448003 1.25106502 0.549489975
v -0.450064987 1.25336897 0.471341997
v -0.443737 1.25033998 0.549730003
v -0.446794987 1.25415504 0.471042991
v -0.445859998 1.25417101 0.470973015
v -0.440465987 1.25116503 0.549403012
v -0.439532012 1.25119102 0.549327016
v -0.46360001 1.26176095 0.121391997
v -0.464722991 1.26157999 0.121428996
v -0.463544011 1.26085699 0.184663996
v -0.462433994 1.261042 0.184609994
v -0.461492985 1.25976503 0.250923008
v -0.460397005 1.25995803 0.250854999
v -0.465999991 1.26119304 0.121477
v -0.46480301 1.26046598 0.184733003
v -0.462734997 1.25936401 0.251010001
v -0.461423993 1.26108897 0.184566006
v -0.462577999 1.26180601 0.121362001
v -0.460464001 1.26106799 0.184526995
v -0.461607993 1.26178098 0.121335
v -0.459399015 1.26001096 0.250799
v -0.458449006 1.25999498 0.250750005
v -0.463088989 1.26220202 0.060176
v -0.464118987 1.26215804 0.0601920001
v -0.463183999 1.26232004 0
v -0.464217991 1.26227605 0
v -0.462110996 1.26217699 0.0601620004
v -0.462202013 1.26229501 0
v -0.465254009 1.26197696 0.0602109991
v -0.466544986 1.26159203 0.0602350011
v -0.465357006 1.26209497 0
v -0.466652989 1.26170897 -0
v -0.385984987 1.21041298 1.04768205
v -0.384104997 1.21136498 1.04728794
v -0.39704901 1.22086501 0.961565018
v -0.398775995 1.21990001 0.961907983
v -0.409054011 1.22920704 0.876743972
v -0.410658985 1.22823095 0.877043009
v -0.400395989 1.21884799 0.962248027
v -0.38775599 1.20937395 1.04807198
v -0.401733011 1.21781397 0.962549984
v -0.389227986 1.20835197 1.048419
v -0.412158012 1.22716904 0.877339005
v -0.413387001 1.22612596 0.877602994
v -0.374532014 1.19913101 1.13450694
v -0.372588992 1.20015597 1.13406205
v -0.361016005 1.18850505 1.22124696
v -0.358889997 1.18951404 1.22074604
v -0.376156986 1.19812202 1.134902
v -0.362801999 1.18750894 1.22169197
v -0.370536 1.20109403 1.13361394
v -0.356653005 1.19043696 1.22024095
v -0.390920013 1.20673001 1.04819703
v -0.390208989 1.20745099 1.04867995
v -0.402612001 1.216905 0.962777972
v -0.403147995 1.21608901 0.962949991
v -0.414184988 1.225209 0.877801001
v -0.414660007 1.224388 0.877951026
v -0.403454989 1.21533501 0.963084996
v -0.391584009 1.20624495 1.04631102
v -0.403647006 1.21461201 0.963202
v -0.392223001 1.20588005 1.04372394
v -0.414918005 1.22362995 0.878068984
v -0.415069014 1.22290301 0.878170013
v -0.379967988 1.19709694 1.124717
v -0.378347009 1.19678104 1.13270295
v -0.368479013 1.18791902 1.20071197
v -0.365601987 1.18653905 1.21683896
v -0.381850988 1.19779503 1.11398602
v -0.373584986 1.19144595 1.16823304
v -0.377252996 1.19723105 1.13519895
v -0.36401999 1.18662798 1.22202694
v -0.434450001 1.23664498 0.711701989
v -0.434657007 1.235883 0.711794019
v -0.425312012 1.23039603 0.794294
v -0.425085008 1.23115695 0.79418999
v -0.414918005 1.22362995 0.878068984
v -0.414660007 1.224388 0.877951026
v -0.434763998 1.23515296 0.711874008
v -0.425435007 1.22966695 0.794382989
v -0.415069014 1.22290301 0.878170013
v -0.42465201 1.23198199 0.794058025
v -0.43404001 1.23747098 0.711584985
v -0.423907995 1.232903 0.793883979
v -0.433328003 1.23839402 0.711429
v -0.414184988 1.225209 0.877801001
v -0.413387001 1.22612596 0.877602994
v -0.442378998 1.24192595 0.630414009
v -0.442775995 1.24110198 0.630519986
v -0.449696988 1.24559605 0.550581992
v -0.450089991 1.24477899 0.550679028
v -0.441682994 1.24284601 0.630273998
v -0.449005991 1.24650705 0.550454974
v -0.442974001 1.24034202 0.630603015
v -0.443073004 1.23961401 0.630675018
v -0.450284988 1.24402404 0.550754011
v -0.450381011 1.24329996 0.550819993
v -0.430842996 1.24051797 0.710990012
v -0.432213008 1.23944497 0.711223006
v -0.422749013 1.233953 0.793651998
v -0.421330988 1.23502302 0.793390989
v -0.412158012 1.22716904 0.877339005
v -0.410658985 1.22823095 0.877043009
v -0.419808 1.23600495 0.793128014
v -0.429367989 1.241503 0.710756004
v -0.409054011 1.22920704 0.876743972
v -0.437792003 1.245942 0.629667997
v -0.439242989 1.24496102 0.629878998
v -0.445138991 1.24956501 0.549902976
v -0.44658199 1.24859798 0.550095022
v -0.440589011 1.24389303 0.630087972
v -0.447919011 1.24754298 0.550285995
v -0.458207011 1.25421405 0.395287007
v -0.456757993 1.25512898 0.395125985
v -0.460997999 1.25714004 0.321444988
v -0.462460011 1.25625396 0.321588993
v -0.464172006 1.25868499 0.251121014
v -0.465653002 1.25782299 0.251244992
v -0.463817 1.25528002 0.321732014
v -0.459549993 1.25321102 0.395446002
v -0.464920998 1.25431597 0.321857989
v -0.460642993 1.25222099 0.395588011
v -0.467029005 1.25687301 0.251367986
v -0.46814999 1.25592899 0.251477003
v -0.454245001 1.25064099 0.471850991
v -0.452908009 1.25167203 0.471677005
v -0.447919011 1.24754298 0.550285995
v -0.44658199 1.24859798 0.550095022
v -0.455332011 1.24962497 0.472005993
v -0.449005991 1.24650705 0.550454974
v -0.451465994 1.25261605 0.471500993
v -0.445138991 1.24956501 0.549902976
v -0.461733013 1.25055397 0.39577499
v -0.461337 1.25134504 0.395695001
v -0.465624005 1.25345898 0.321954012
v -0.466026992 1.25268197 0.322026014
v -0.468865991 1.25508797 0.251558989
v -0.469278991 1.25432396 0.251621008
v -0.466228992 1.25196004 0.322082996
v -0.461930007 1.24981999 0.395839006
v -0.466331989 1.25126302 0.322131991
v -0.462027997 1.24911404 0.395893008
v -0.469489008 1.25361001 0.251670003
v -0.469597012 1.25292206 0.251711994
v -0.456609011 1.24717903 0.472281009
v -0.456414998 1.24792397 0.472211987
v -0.450284988 1.24402404 0.550754011
v -0.450089991 1.24477899 0.550679028
v -0.456705004 1.24646294 0.472341001
v -0.456021994 1.24872994 0.472122997
v -0.449696988 1.24559605 0.550581992
v -0.472792 1.25625098 0.121811002
v -0.473022014 1.25554502 0.121836998
v -0.471689999 1.25478494 0.185253993
v -0.471469998 1.25549304 0.185215995
v -0.469489008 1.25361001 0.251670003
v -0.469278991 1.25432396 0.251621008
v -0.473147988 1.25486398 0.121859998
v -0.471807986 1.25410199 0.185287997
v -0.469597012 1.25292206 0.251711994
v -0.471044987 1.25625098 0.185167
v -0.472353995 1.25700498 0.121776998
v -0.470313013 1.25708306 0.185102001
v -0.471605003 1.257833 0.121731997
v -0.468865991 1.25508797 0.251558989
v -0.46814999 1.25592899 0.251477003
v -0.472986013 1.257411 0.0603879988
v -0.473432988 1.256657 0.060405001
v -0.473132014 1.25752604 0
v -0.473583996 1.25677204 0
v -0.472223014 1.25823796 0.0603649989
v -0.472364008 1.25835299 -0
v -0.473670989 1.255952 0.0604190007
v -0.473803014 1.25527096 0.0604309998
v -0.473825008 1.25606704 0
v -0.473960012 1.25538599 0
v -0.469013989 1.25968897 0.121605001
v -0.47044 1.25875902 0.121671997
v -0.469168991 1.25801396 0.185016006
v -0.467768997 1.25895095 0.184919
v -0.467029005 1.25687301 0.251367986
v -0.465653002 1.25782299 0.251244992
v -0.466262013 1.259799 0.184820995
v -0.467482001 1.26053202 0.121537998
v -0.464172006 1.25868499 0.251121014
v -0.468044013 1.26093197 0.0602659993
v -0.469594985 1.26009095 0.0603
v -0.468160987 1.26104903 0
v -0.469720006 1.26020801 0
v -0.471040994 1.25916195 0.0603349991
v -0.471174002 1.25927806 0
v -0.379595995 1.21291494 -1.04576802
v -0.392746001 1.22235894 -0.96082598
v -0.391636997 1.222458 -0.960672021
v -0.378785998 1.21325898 -1.04356897
v -0.390590012 1.22248304 -0.960536003
v -0.378167003 1.21361303 -1.04071701
v -0.405014008 1.23072302 -0.876101017
v -0.40395999 1.23082697 -0.875967026
v -0.402960986 1.23085594 -0.875847995
v -0.366234988 1.20395303 -1.12166703
v -0.366019994 1.20286298 -1.12995398
v -0.353836 1.194592 -1.19736397
v -0.352232009 1.19250703 -1.21376395
v -0.367018014 1.20530295 -1.11070597
v -0.358465999 1.19861102 -1.16481698
v -0.366939992 1.20229495 -1.13289595
v -0.380787998 1.21258998 -1.04665804
v -0.368582994 1.201841 -1.13320994
v -0.38230899 1.21212602 -1.04693305
v -0.352762997 1.19161296 -1.219432
v -0.354535013 1.19116998 -1.21978605
v -0.393976986 1.22211003 -0.961014986
v -0.406177998 1.23046899 -0.876264989
v -0.395390987 1.22163701 -0.961255014
v -0.407507002 1.22998798 -0.876474977
v -0.425606996 1.24303997 -0.710251987
v -0.415942997 1.23753798 -0.792562008
v -0.417062014 1.23727906 -0.792707026
v -0.426699996 1.24277997 -0.710380971
v -0.418332994 1.23679304 -0.792891026
v -0.427937001 1.242293 -0.710545003
v -0.405014008 1.23072302 -0.876101017
v -0.406177998 1.23046899 -0.876264989
v -0.407507002 1.22998798 -0.876474977
v -0.435162991 1.24721205 -0.629329979
v -0.434083015 1.24746895 -0.629213989
v -0.442521989 1.25081396 -0.549594998
v -0.441448003 1.25106502 -0.549489975
v -0.436383009 1.24672794 -0.629477978
v -0.443737 1.25033998 -0.549730003
v -0.433097988 1.247576 -0.629118979
v -0.424611002 1.24314904 -0.710147023
v -0.43215999 1.24760699 -0.629034996
v -0.42366299 1.24318099 -0.71005398
v -0.440465987 1.25116503 -0.549403012
v -0.439532012 1.25119102 -0.549327016
v -0.414925009 1.23764503 -0.792443991
v -0.40395999 1.23082697 -0.875967026
v -0.413958013 1.23767698 -0.792339981
v -0.402960986 1.23085594 -0.875847995
v -0.453054011 1.25651598 -0.39478001
v -0.457266003 1.25846398 -0.321135014
v -0.456276 1.25852799 -0.321069986
v -0.452069998 1.25659299 -0.394708008
v -0.455332994 1.25852203 -0.321013004
v -0.451133013 1.25659704 -0.394643992
v -0.460397005 1.25995803 -0.250854999
v -0.459399015 1.26001096 -0.250799
v -0.458449006 1.25999498 -0.250750005
v -0.446794987 1.25415504 -0.471042991
v -0.44777599 1.25406504 -0.471121997
v -0.440465987 1.25116503 -0.549403012
v -0.441448003 1.25106502 -0.549489975
v -0.445859998 1.25417101 -0.470973015
v -0.439532012 1.25119102 -0.549327016
v -0.448850989 1.25382698 -0.471219003
v -0.454131991 1.25629401 -0.394869
v -0.450064987 1.25336897 -0.471341997
v -0.455350995 1.25585604 -0.394980997
v -0.442521989 1.25081396 -0.549594998
v -0.443737 1.25033998 -0.549730003
v -0.458350986 1.25825906 -0.32121399
v -0.461492985 1.25976503 -0.250923008
v -0.459578991 1.25784099 -0.321314991
v -0.462734997 1.25936401 -0.251010001
v -0.46360001 1.26176095 -0.121391997
v -0.462433994 1.261042 -0.184609994
v -0.463544011 1.26085699 -0.184663996
v -0.464722991 1.26157999 -0.121428996
v -0.46480301 1.26046598 -0.184733003
v -0.465999991 1.26119304 -0.121477
v -0.460397005 1.25995803 -0.250854999
v -0.461492985 1.25976503 -0.250923008
v -0.462734997 1.25936401 -0.251010001
v -0.465254009 1.26197803 -0.0602109991
v -0.464118987 1.26215804 -0.0601920001
v -0.466544986 1.26159203 -0.0602350011
v -0.463088989 1.26220202 -0.060176
v -0.462577999 1.26180601 -0.121362001
v -0.462110996 1.26217699 -0.0601620004
v -0.461607993 1.26178098 -0.121335
v -0.461423993 1.26108897 -0.184566006
v -0.459399015 1.26001096 -0.250799
v -0.460464001 1.26106799 -0.184526995
v -0.458449006 1.25999498 -0.250750005
v -0.385984987 1.21041298 -1.04768205
v -0.398775995 1.21990001 -0.961907983
v -0.39704901 1.22086501 -0.961565018
v -0.384104997 1.21136498 -1.04728794
v -0.410658985 1.22823095 -0.877043009
v -0.409054011 1.22920704 -0.876743972
v -0.370536 1.20109403 -1.13361394
v -0.372588992 1.20015597 -1.13406205
v -0.356653005 1.19043696 -1.22024095
v -0.358889997 1.18951404 -1.22074604
v -0.374532014 1.19913101 -1.13450694
v -0.38775599 1.20937395 -1.04807198
v -0.376156986 1.19812202 -1.134902
v -0.389227986 1.20835197 -1.048419
v -0.361016005 1.18850505 -1.22124696
v -0.362801999 1.18750894 -1.22169197
v -0.400395989 1.21884799 -0.962248027
v -0.412158012 1.22716904 -0.877339005
v -0.401733011 1.21781397 -0.962549984
v -0.413387001 1.22612596 -0.877602994
v -0.390920013 1.20673001 -1.04819703
v -0.403147995 1.21608901 -0.962949991
v -0.402612001 1.216905 -0.962777972
v -0.390208989 1.20745099 -1.04867995
v -0.414660007 1.224388 -0.877951026
v -0.414184988 1.225209 -0.877801001
v -0.377252996 1.19723105 -1.13519895
v -0.378347009 1.19678104 -1.13270295
v -0.36401999 1.18662798 -1.22202694
v -0.365601987 1.18653905 -1.21683896
v -0.379967988 1.19709694 -1.124717
v -0.391584009 1.20624495 -1.04631102
v -0.381850988 1.19779503 -1.11398602
v -0.392223001 1.20588005 -1.04372394
v -0.368479013 1.18791902 -1.20071197
v -0.373584986 1.19144595 -1.16823304
v -0.403454989 1.21533501 -0.963084996
v -0.414918005 1.22362995 -0.878068984
v -0.403647006 1.21461201 -0.963202
v -0.415069014 1.22290301 -0.878170013
v -0.434450001 1.23664498 -0.711701989
v -0.425085008 1.23115695 -0.79418999
v -0.425312012 1.23039603 -0.794294
v -0.434657007 1.235883 -0.711794019
v -0.425435007 1.22966695 -0.794382989
v -0.434763998 1.23515296 -0.711874008
v -0.414660007 1.224388 -0.877951026
v -0.414918005 1.22362995 -0.878068984
v -0.415069014 1.22290301 -0.878170013
v -0.442974001 1.24034202 -0.630603015
v -0.442775995 1.24110198 -0.630519986
v -0.450284988 1.24402404 -0.550754011
v -0.450089991 1.24477899 -0.550679028
v -0.443073004 1.23961401 -0.630675018
v -0.450381011 1.24329996 -0.550819993
v -0.442378998 1.24192595 -0.630414009
v -0.43404001 1.23747098 -0.711584985
v -0.441682994 1.24284601 -0.630273998
v -0.433328003 1.23839402 -0.711429
v -0.449696988 1.24559605 -0.550581992
v -0.449005991 1.24650705 -0.550454974
v -0.42465201 1.23198199 -0.794058025
v -0.414184988 1.225209 -0.877801001
v -0.423907995 1.232903 -0.793883979
v -0.413387001 1.22612596 -0.877602994
v -0.430842996 1.24051797 -0.710991025
v -0.421330988 1.23502302 -0.793390989
v -0.422749013 1.233953 -0.793651998
v -0.432213008 1.23944497 -0.711223006
v -0.410658985 1.22823095 -0.877043009
v -0.412158012 1.22716904 -0.877339005
v -0.440589011 1.24389303 -0.630087972
v -0.439242989 1.24496102 -0.629878998
v -0.447919011 1.24754298 -0.550285995
v -0.44658199 1.24859798 -0.550095022
v -0.437792003 1.245942 -0.629667997
v -0.429367989 1.241503 -0.710756004
v -0.445138991 1.24956501 -0.549902976
v -0.419808 1.23600495 -0.793128014
v -0.409054011 1.22920704 -0.876743972
v -0.458207011 1.25421405 -0.395287007
v -0.462460011 1.25625396 -0.321588993
v -0.460997999 1.25714004 -0.321444988
v -0.456757993 1.25512898 -0.395125985
v -0.465653002 1.25782299 -0.251244992
v -0.464172006 1.25868499 -0.251121014
v -0.451465994 1.25261605 -0.471500993
v -0.452908009 1.25167203 -0.471677005
v -0.445138991 1.24956501 -0.549902976
v -0.44658199 1.24859798 -0.550095022
v -0.454245001 1.25064099 -0.471850991
v -0.459549993 1.25321102 -0.395446002
v -0.455332011 1.24962497 -0.472005993
v -0.460642993 1.25222099 -0.395588011
v -0.447919011 1.24754298 -0.550285995
v -0.449005991 1.24650705 -0.550454974
v -0.463817 1.25528002 -0.321732014
v -0.467029005 1.25687301 -0.251367986
v -0.464920998 1.25431597 -0.321857989
v -0.46814999 1.25592899 -0.251477003
v -0.461733013 1.25055397 -0.39577499
v -0.466026992 1.25268197 -0.322026014
v -0.465624005 1.25345898 -0.321954012
v -0.461337 1.25134504 -0.395695001
v -0.469278991 1.25432396 -0.251621008
v -0.468865991 1.25508797 -0.251558989
v -0.456021994 1.24872994 -0.472122997
v -0.456414998 1.24792397 -0.472211987
v -0.449696988 1.24559605 -0.550581992
v -0.450089991 1.24477899 -0.550679028
v -0.456609011 1.24717903 -0.472281009
v -0.461930007 1.24981999 -0.395839006
v -0.456705004 1.24646294 -0.472341001
v -0.462027997 1.24911404 -0.395893008
v -0.450284988 1.24402404 -0.550754011
v -0.466228992 1.25196004 -0.322082996
v -0.469489008 1.25361001 -0.251670003
v -0.466331989 1.25126302 -0.322131991
v -0.469597012 1.25292206 -0.251711994
v -0.472792 1.25625098 -0.121811002
v -0.471469998 1.25549304 -0.185215995
v -0.471689999 1.25478494 -0.185253993
v -0.473022014 1.25554502 -0.121836998
v -0.471807986 1.25410199 -0.185287997
v -0.473147988 1.25486398 -0.121859998
v -0.469278991 1.25432396 -0.251621008
v -0.469489008 1.25361001 -0.251670003
v -0.469597012 1.25292206 -0.251711994
v -0.473670989 1.255952 -0.0604190007
v -0.473432988 1.256657 -0.060405001
v -0.473803014 1.25527096 -0.0604309998
v -0.472986013 1.257411 -0.0603879988
v -0.472353995 1.25700498 -0.121776998
v -0.472223014 1.25823796 -0.0603649989
v -0.471605003 1.257833 -0.121731997
v -0.471044987 1.25625098 -0.185167
v -0.468865991 1.25508797 -0.251558989
v -0.470313013 1.25708306 -0.185102001
v -0.46814999 1.25592899 -0.251477003
v -0.469013989 1.25968897 -0.121605001
v -0.467768997 1.25895095 -0.184919
v -0.469168991 1.25801396 -0.185016006
v -0.47044 1.25875902 -0.121671997
v -0.465653002 1.25782299 -0.251244992
v -0.467029005 1.25687301 -0.251367986
v -0.471040994 1.25916195 -0.0603349991
v -0.469594985 1.26009095 -0.0603
v -0.468044013 1.26093197 -0.0602659993
v -0.467482001 1.26053202 -0.121537998
v -0.466262013 1.259799 -0.184820995
v -0.464172006 1.25868499 -0.251121014
vt 0.749000013 0.250999987
vt 0.746100008 0.290399998
vt 0.625 0.291700006
vt 0.625 0.251300007
vt 0.5 0.291700006
vt 0.5 0.251300007
vt 0.742200017 0.33070001
vt 0.625 0.333299994
vt 0.5 0.333299994
vt 0.625 0.213499993
vt 0.75 0.213499993
vt 0.625 0.179700002
vt 0.75 0.179700002
vt 0.5 0.213499993
vt 0.5 0.179700002
vt 0.875 0.213499993
vt 0.871100008 0.25
vt 1 0.213499993
vt 0.992200017 0.248699993
vt 0.875 0.179700002
vt 1 0.179700002
vt 0.859399974 0.286500007
vt 0.843800008 0.322899997
vt 0.968800008 0.281199992
vt 0.921899974 0.307300001
vt 0.5 0.251300007
vt 0.5 0.213499993
vt 0.75 0.213499993
vt 0.75 0.251300007
vt 1 0.213499993
vt 1 0.251300007
vt 0.5 0.179700002
vt 0.75 0.179700002
vt 1 0.179700002
vt 0.75 0.291700006
vt 0.5 0.291700006
vt 0.75 0.333299994
vt 0.5 0.333299994
vt 1 0.291700006
vt 1 0.333299994
vt 0.25 0.291700006
vt 0.25 0.251300007
vt -0 0.291700006
vt -0 0.251300007
vt 0.25 0.333299994
vt -0 0.333299994
vt 0.25 0.213499993
vt 0.25 0.179700002
vt -0 0.213499993
vt -0 0.179700002
vt 0.251300007 0.5
vt 0.291700006 0.5
vt 0.291700006 0.75
vt 0.251300007 0.75
vt 0.291700006 1
vt 0.251300007 1
vt 0.333299994 0.5
vt 0.333299994 0.75
vt 0.333299994 1
vt 0.213499993 0.75
vt 0.213499993 0.5
vt 0.179700002 0.75
vt 0.179700002 0.5
vt 0.213499993 1
vt 0.179700002 1
vt 0.213499993 0.25
vt 0.251300007 0.25
vt 0.213499993 0
vt 0.251300007 0
vt 0.179700002 0.25
vt 0.179700002 0
vt 0.291700006 0.25
vt 0.333299994 0.25
vt 0.291700006 0
vt 0.333299994 0
vt 0.251300007 0.5
vt 0.213499993 0.5
vt 0.213499993 0.25
vt 0.251300007 0.25
vt 0.213499993 0
vt 0.251300007 0
vt 0.179700002 0.5
vt 0.179700002 0.25
vt 0.179700002 0
vt 0.291700006 0.25
vt 0.291700006 0.5
vt 0.333299994 0.25
vt 0.333299994 0.5
vt 0.291700006 0
vt 0.333299994 0
vt 0.291700006 0.75
vt 0.251300007 0.75
vt 0.291700006 1
vt 0.251300007 1
vt 0.333299994 0.75
vt 0.333299994 1
vt 0.213499993 0.75
vt 0.179700002 0.75
vt 0.213499993 1
vt 0.179700002 1
vt 0.75 0.126300007
vt 0.75 0.150999993
vt 0.625 0.150999993
vt 0.625 0.126300007
vt 0.5 0.150999993
vt 0.5 0.126300007
vt 0.625 0.104199998
vt 0.75 0.104199998
vt 0.625 0.0833000019
vt 0.75 0.0833000019
vt 0.5 0.104199998
vt 0.5 0.0833000019
vt 0.875 0.104199998
vt 0.875 0.126300007
vt 1 0.104199998
vt 1 0.126300007
vt 0.875 0.0833000019
vt 1 0.0833000019
vt 0.875 0.150999993
vt 1 0.150999993
vt 0.749000013 0.0417999998
vt 0.75 0.0625
vt 0.625 0.0625
vt 0.625 0.0417000018
vt 0.5 0.0625
vt 0.5 0.0417000018
vt 0.625 0.0208000001
vt 0.746100008 0.0215000007
vt 0.625 0
vt 0.742200017 0.0013
vt 0.5 0.0208000001
vt 0.5 0
vt 0.859399974 0.0233999994
vt 0.871100008 0.0423000008
vt 0.968800008 0.0260000005
vt 0.992200017 0.0430000015
vt 0.843800008 0.00520000001
vt 0.921899974 0.0130000003
vt 0.875 0.0625
vt 1 0.0625
vt 0.501100004 0.0427000001
vt 0.504199982 0.0251000002
vt 0.75 0.0208000001
vt 0.75 0.0417000018
vt 1 0.0208000001
vt 1 0.0417000018
vt 0.50849998 0.00850000046
vt 0.75 0
vt 1 0
vt 0.75 0.0625
vt 0.5 0.0625
vt 0.75 0.0833000019
vt 0.5 0.0833000019
vt 1 0.0625
vt 1 0.0833000019
vt 0.25 0.0625
vt 0.254200011 0.0458999984
vt -0 0.0625
vt 0.00850000046 0.0500999987
vt 0.25 0.0833000019
vt -0 0.0833000019
vt 0.266900003 0.0377999991
vt 0.283899993 0.0339000002
vt 0.0339000002 0.0546999983
vt 0.0846000016 0.0846000016
vt 0.5 0.126300007
vt 0.5 0.104199998
vt 0.75 0.104199998
vt 0.75 0.126300007
vt 1 0.104199998
vt 1 0.126300007
vt 0.75 0.150999993
vt 0.5 0.150999993
vt 1 0.150999993
vt 0.25 0.150999993
vt 0.25 0.126300007
vt -0 0.150999993
vt -0 0.126300007
vt 0.25 0.104199998
vt -0 0.104199998
vt 0.126300007 0.5
vt 0.150999993 0.5
vt 0.150999993 0.75
vt 0.126300007 0.75
vt 0.150999993 1
vt 0.126300007 1
vt 0.104199998 0.75
vt 0.104199998 0.5
vt 0.0833000019 0.75
vt 0.0833000019 0.5
vt 0.104199998 1
vt 0.0833000019 1
vt 0.104199998 0.25
vt 0.126300007 0.25
vt 0.104199998 0
vt 0.126300007 0
vt 0.0833000019 0.25
vt 0.0833000019 0
vt 0.150999993 0.25
vt 0.150999993 0
vt 0.0427000001 0.501100004
vt 0.0625 0.5
vt 0.0625 0.75
vt 0.0417000018 0.75
vt 0.0625 1
vt 0.0417000018 1
vt 0.0208000001 0.75
vt 0.0251000002 0.504199982
vt 0 0.75
vt 0.00850000046 0.50849998
vt 0.0208000001 1
vt 0 1
vt 0.0377999991 0.266900003
vt 0.0458999984 0.254200011
vt 0.0546999983 0.0339000002
vt 0.0500999987 0.00850000046
vt 0.0339000002 0.283899993
vt 0.0625 0.25
vt 0.0625 0
vt 0.0417000018 0.5
vt 0.0208000001 0.5
vt 0.0208000001 0.25
vt 0.0417000018 0.25
vt 0.0208000001 0
vt 0.0417000018 0
vt 0 0.5
vt 0 0.25
vt 0 0
vt 0.0625 0.25
vt 0.0625 0.5
vt 0.0833000019 0.25
vt 0.0833000019 0.5
vt 0.0625 0
vt 0.0833000019 0
vt 0.0625 0.75
vt 0.0417000018 0.75
vt 0.0625 1
vt 0.0417000018 1
vt 0.0833000019 0.75
vt 0.0833000019 1
vt 0.0208000001 0.75
vt 0 0.75
vt 0.0208000001 1
vt 0 1
vt 0.126300007 0.5
vt 0.104199998 0.5
vt 0.104199998 0.25
vt 0.126300007 0.25
vt 0.104199998 0
vt 0.126300007 0
vt 0.150999993 0.25
vt 0.150999993 0.5
vt 0.150999993 0
vt 0.150999993 0.75
vt 0.126300007 0.75
vt 0.150999993 1
vt 0.126300007 1
vt 0.104199998 0.75
vt 0.104199998 1
vt 0.749000013 0.250999987
vt 0.625 0.251300007
vt 0.625 0.291700006
vt 0.746100008 0.290399998
vt 0.625 0.333299994
vt 0.742200017 0.33070001
vt 0.5 0.251300007
vt 0.5 0.291700006
vt 0.5 0.333299994
vt 0.859399974 0.286500007
vt 0.871100008 0.25
vt 0.968800008 0.281199992
vt 0.992200017 0.248699993
vt 0.843800008 0.322899997
vt 0.921899974 0.307300001
vt 0.875 0.213499993
vt 0.75 0.213499993
vt 0.875 0.179700002
vt 0.75 0.179700002
vt 1 0.213499993
vt 1 0.179700002
vt 0.625 0.213499993
vt 0.5 0.213499993
vt 0.625 0.179700002
vt 0.5 0.179700002
vt 0.5 0.251300007
vt 0.75 0.251300007
vt 0.75 0.213499993
vt 0.5 0.213499993
vt 0.75 0.179700002
vt 0.5 0.179700002
vt 1 0.251300007
vt 1 0.213499993
vt 1 0.179700002
vt 0.25 0.213499993
vt 0.25 0.251300007
vt -0 0.213499993
vt -0 0.251300007
vt 0.25 0.179700002
vt -0 0.179700002
vt 0.25 0.291700006
vt 0.5 0.291700006
vt 0.25 0.333299994
vt 0.5 0.333299994
vt -0 0.291700006
vt -0 0.333299994
vt 0.75 0.291700006
vt 1 0.291700006
vt 0.75 0.333299994
vt 1 0.333299994
vt 0.251300007 0.5
vt 0.251300007 0.75
vt 0.291700006 0.75
vt 0.291700006 0.5
vt 0.333299994 0.75
vt 0.333299994 0.5
vt 0.251300007 1
vt 0.291700006 1
vt 0.333299994 1
vt 0.291700006 0.25
vt 0.251300007 0.25
vt 0.291700006 0
vt 0.251300007 0
vt 0.333299994 0.25
vt 0.333299994 0
vt 0.213499993 0.25
vt 0.213499993 0.5
vt 0.179700002 0.25
vt 0.179700002 0.5
vt 0.213499993 0
vt 0.179700002 0
vt 0.213499993 0.75
vt 0.213499993 1
vt 0.179700002 0.75
vt 0.179700002 1
vt 0.251300007 0.5
vt 0.251300007 0.25
vt 0.213499993 0.25
vt 0.213499993 0.5
vt 0.179700002 0.25
vt 0.179700002 0.5
vt 0.251300007 0
vt 0.213499993 0
vt 0.179700002 0
vt 0.213499993 0.75
vt 0.251300007 0.75
vt 0.179700002 0.75
vt 0.291700006 0.75
vt 0.291700006 0.5
vt 0.333299994 0.75
vt 0.333299994 0.5
vt 0.291700006 0.25
vt 0.291700006 0
vt 0.333299994 0.25
vt 0.333299994 0
vt 0.75 0.126300007
vt 0.625 0.126300007
vt 0.625 0.150999993
vt 0.75 0.150999993
vt 0.5 0.126300007
vt 0.5 0.150999993
vt 0.875 0.150999993
vt 0.875 0.126300007
vt 1 0.150999993
vt 1 0.126300007
vt 0.875 0.104199998
vt 0.75 0.104199998
vt 0.875 0.0833000019
vt 0.75 0.0833000019
vt 1 0.104199998
vt 1 0.0833000019
vt 0.625 0.104199998
vt 0.5 0.104199998
vt 0.625 0.0833000019
vt 0.5 0.0833000019
vt 0.749000013 0.0417999998
vt 0.625 0.0417000018
vt 0.625 0.0625
vt 0.75 0.0625
vt 0.5 0.0417000018
vt 0.5 0.0625
vt 0.875 0.0625
vt 0.871100008 0.0423000008
vt 1 0.0625
vt 0.992200017 0.0430000015
vt 0.859399974 0.0233999994
vt 0.746100008 0.0215000007
vt 0.843800008 0.00520000001
vt 0.742200017 0.0013
vt 0.968800008 0.0260000005
vt 0.921899974 0.0130000003
vt 0.625 0.0208000001
vt 0.5 0.0208000001
vt 0.625 0
vt 0.5 0
vt 0.501100004 0.0427000001
vt 0.75 0.0417000018
vt 0.75 0.0208000001
vt 0.504199982 0.0251000002
vt 0.75 0
vt 0.50849998 0.00850000046
vt 1 0.0417000018
vt 1 0.0208000001
vt 1 0
vt 0.266900003 0.0377999991
vt 0.254200011 0.0458999984
vt 0.0339000002 0.0546999983
vt 0.00850000046 0.0500999987
vt 0.283899993 0.0339000002
vt 0.0846000016 0.0846000016
vt 0.25 0.0625
vt 0.5 0.0625
vt 0.25 0.0833000019
vt 0.5 0.0833000019
vt -0 0.0625
vt -0 0.0833000019
vt 0.75 0.0625
vt 1 0.0625
vt 0.75 0.0833000019
vt 1 0.0833000019
vt 0.5 0.126300007
vt 0.75 0.126300007
vt 0.75 0.104199998
vt 0.5 0.104199998
vt 1 0.126300007
vt 1 0.104199998
vt 0.25 0.104199998
vt 0.25 0.126300007
vt -0 0.104199998
vt -0 0.126300007
vt 0.25 0.150999993
vt 0.5 0.150999993
vt -0 0.150999993
vt 0.75 0.150999993
vt 1 0.150999993
vt 0.126300007 0.5
vt 0.126300007 0.75
vt 0.150999993 0.75
vt 0.150999993 0.5
vt 0.126300007 1
vt 0.150999993 1
vt 0.150999993 0.25
vt 0.126300007 0.25
vt 0.150999993 0
vt 0.126300007 0
vt 0.104199998 0.25
vt 0.104199998 0.5
vt 0.0833000019 0.25
vt 0.0833000019 0.5
vt 0.104199998 0
vt 0.0833000019 0
vt 0.104199998 0.75
vt 0.104199998 1
vt 0.0833000019 0.75
vt 0.0833000019 1
vt 0.0427000001 0.501100004
vt 0.0417000018 0.75
vt 0.0625 0.75
vt 0.0625 0.5
vt 0.0417000018 1
vt 0.0625 1
vt 0.0625 0.25
vt 0.0458999984 0.254200011
vt 0.0625 0
vt 0.0500999987 0.00850000046
vt 0.0377999991 0.266900003
vt 0.0251000002 0.504199982
vt 0.0339000002 0.283899993
vt 0.00850000046 0.50849998
vt 0.0546999983 0.0339000002
vt 0.0208000001 0.75
vt 0.0208000001 1
vt 0 0.75
vt 0 1
vt 0.0417000018 0.5
vt 0.0417000018 0.25
vt 0.0208000001 0.25
vt 0.0208000001 0.5
vt 0 0.25
vt 0 0.5
vt 0.0417000018 0
vt 0.0208000001 0
vt 0 0
vt 0.0208000001 0.75
vt 0.0417000018 0.75
vt 0 0.75
vt 0.0625 0.75
vt 0.0625 0.5
vt 0.0833000019 0.75
vt 0.0833000019 0.5
vt 0.0625 0.25
vt 0.0625 0
vt 0.0833000019 0.25
vt 0.0833000019 0
vt 0.126300007 0.5
vt 0.126300007 0.25
vt 0.104199998 0.25
vt 0.104199998 0.5
vt 0.126300007 0
vt 0.104199998 0
vt 0.104199998 0.75
vt 0.126300007 0.75
vt 0.150999993 0.75
vt 0.150999993 0.5
vt 0.150999993 0.25
vt 0.150999993 0
vn -0.1228 0.983399987 0.133399993
vn -0.0540000014 0.990999997 0.122599997
vn -0.0483999997 0.992600024 0.111299999
vn -0.129199997 0.984000027 0.122500002
vn -0.050999999 0.994000018 0.0966000035
vn -0.140400007 0.984200001 0.107900001
vn -0.0229000002 0.993099988 0.114600003
vn -0.0177999996 0.994099975 0.106899999
vn -0.0173000004 0.995599985 0.0922999978
vn -0.235799998 0.962199986 0.135900006
vn -0.212699994 0.966199994 0.145300001
vn -0.342500001 0.9278 0.147599995
vn -0.310600013 0.937600017 0.156200007
vn -0.257400006 0.958599985 0.121399999
vn -0.372099996 0.918600023 0.133100003
vn -0.187900007 0.970799983 0.149000004
vn -0.104699999 0.985000014 0.136800006
vn -0.210899994 0.965399981 0.153500006
vn -0.134599999 0.980499983 0.143199995
vn -0.279700011 0.946699977 0.159600005
vn -0.266499996 0.950399995 0.160300002
vn -0.0362999998 0.991299987 0.126300007
vn -0.0286999997 0.991999984 0.122699998
vn -0.0544999987 0.989799976 0.131300002
vn 0.00689999992 0.992600024 0.121600002
vn -0.1602 0.984000027 0.0775000006
vn -0.28670001 0.953800023 0.0895999968
vn -0.2755 0.955600023 0.104800001
vn -0.152700007 0.984000027 0.0918999985
vn -0.257400006 0.958599985 0.121399999
vn -0.140400007 0.984200001 0.107900001
vn -0.4102 0.906499982 0.100299999
vn -0.395399988 0.91109997 0.115999997
vn -0.372099996 0.918600023 0.133100003
vn -0.0590000004 0.994899988 0.0811000019
vn -0.0636000037 0.995700002 0.0675000027
vn -0.0238000005 0.996699989 0.0769999996
vn -0.0273000002 0.997600019 0.063699998
vn -0.050999999 0.994000018 0.0966000035
vn -0.0173000004 0.995599985 0.0922999978
vn -0.064000003 0.996399999 0.0559
vn -0.162100002 0.984600008 0.0649999976
vn -0.059700001 0.997099996 0.0465999991
vn -0.158299997 0.985899985 0.0548
vn -0.0272000004 0.998199999 0.0524000004
vn -0.0228000004 0.99879998 0.0434999987
vn -0.290800005 0.953700006 0.0762000009
vn -0.416500002 0.904999971 0.0860999972
vn -0.287999988 0.95539999 0.0649000034
vn -0.414900005 0.906799972 0.0738999993
vn -0.136999995 0.989799976 0.0377000012
vn -0.0394000001 0.998700023 0.0315999985
vn -0.0277999993 0.999300003 0.0251000002
vn -0.1241 0.99180001 0.0299999993
vn -0.0183000006 0.999599993 0.0194000006
vn -0.113300003 0.993300021 0.0229000002
vn -0.00310000009 0.999499977 0.0292000007
vn 0.00800000038 0.99970001 0.0231999997
vn 0.0168999992 0.99970001 0.0179999992
vn -0.252499998 0.966899991 0.0362000018
vn -0.266400009 0.962800026 0.0452999994
vn -0.380199999 0.923900008 0.0419000015
vn -0.394400001 0.917400002 0.0522999987
vn -0.240099996 0.970300019 0.0274999999
vn -0.367000014 0.929700017 0.0318000019
vn -0.279100001 0.958700001 0.0548
vn -0.149200007 0.987699986 0.0460000001
vn -0.287999988 0.95539999 0.0649000034
vn -0.158299997 0.985899985 0.0548
vn -0.406800002 0.911300004 0.0628999993
vn -0.414900005 0.906799972 0.0738999993
vn -0.0509000011 0.997900009 0.0388000011
vn -0.0142000001 0.999199986 0.0359999985
vn -0.059700001 0.997099996 0.0465999991
vn -0.0228000004 0.99879998 0.0434999987
vn -0.101999998 0.994700015 0.0103000002
vn -0.225700006 0.974099994 0.0118000004
vn -0.231099993 0.9727 0.0193000007
vn -0.105899997 0.994199991 0.0164000001
vn -0.240099996 0.970300019 0.0274999999
vn -0.113300003 0.993300021 0.0229000002
vn -0.349799991 0.936699986 0.0132999998
vn -0.356700003 0.933899999 0.0220999997
vn -0.367000014 0.929700017 0.0318000019
vn -0.0124000004 0.999800026 0.0141000003
vn -0.00960000046 0.999899983 0.00899999961
vn 0.0222999994 0.999599993 0.0131999999
vn 0.0247000009 0.999599993 0.00850000046
vn -0.0183000006 0.999599993 0.0194000006
vn 0.0168999992 0.99970001 0.0179999992
vn -0.00860000029 0.999899983 0.00419999985
vn -0.100299999 0.994899988 0.00469999993
vn -0.00850000046 0.999899983 0
vn -0.0998999998 0.995000005 0
vn 0.0252999999 0.99970001 0.00410000002
vn 0.0252999999 0.99970001 0
vn -0.222800002 0.974799991 0.00529999984
vn -0.345899999 0.938199997 0.00579999993
vn -0.222000003 0.975000024 0
vn -0.344599992 0.93870002 0
vn -0.443899989 0.880100012 0.168400005
vn -0.387499988 0.907199979 0.163800001
vn -0.424699992 0.891900003 0.155200005
vn -0.484499991 0.860000014 0.159700006
vn -0.458900005 0.877300024 0.140599996
vn -0.521499991 0.840799987 0.145099998
vn -0.54549998 0.82190001 0.163499996
vn -0.502099991 0.847500026 0.172299996
vn -0.633300006 0.755400002 0.168099999
vn -0.587300003 0.789699972 0.177300006
vn -0.584500015 0.797599971 0.148800001
vn -0.673500001 0.723100007 0.153099999
vn -0.458499998 0.871100008 0.175799996
vn -0.403699994 0.898599982 0.171700001
vn -0.439300001 0.880800009 0.176300004
vn -0.385699987 0.906400025 0.172199994
vn -0.540199995 0.821799994 0.181199998
vn -0.521099985 0.833800018 0.182099998
vn -0.351000011 0.921299994 0.167099997
vn -0.334800005 0.927200019 0.167600006
vn -0.805199981 0.564100027 0.182699993
vn -0.695200026 0.695200026 0.182500005
vn -0.747699976 0.64139998 0.171599999
vn -0.855000019 0.489899993 0.170100003
vn -0.78640002 0.597599983 0.156100005
vn -0.887499988 0.434100002 0.154200003
vn -0.922800004 0.348399997 0.164299995
vn -0.886600018 0.42719999 0.177300006
vn -0.941799998 0.29460001 0.161699995
vn -0.926800013 0.335399985 0.169
vn -0.946799994 0.285600007 0.148200005
vn -0.962700009 0.227899998 0.145799994
vn -0.864000022 0.468100011 0.185000002
vn -0.769400001 0.610199988 0.188800007
vn -0.808099985 0.557500005 0.189899996
vn -0.688300014 0.699999988 0.189899996
vn -0.894900024 0.408399999 0.179800004
vn -0.889699996 0.417600006 0.184699997
vn -0.641200006 0.744199991 0.187299997
vn -0.58099997 0.792400002 0.185699999
vn -0.921199977 0.369399995 0.122000001
vn -0.968599975 0.218799993 0.117799997
vn -0.960500002 0.2447 0.132100001
vn -0.908500016 0.394699991 0.1373
vn -0.946799994 0.285600007 0.148200005
vn -0.887499988 0.434100002 0.154200003
vn -0.980300009 0.159799993 0.115999997
vn -0.97390002 0.186100006 0.129899994
vn -0.962700009 0.227899998 0.145799994
vn -0.81400001 0.56400001 0.138799995
vn -0.831099987 0.542299986 0.122900002
vn -0.703700006 0.697399974 0.135800004
vn -0.7227 0.680599988 0.119800001
vn -0.78640002 0.597599983 0.156100005
vn -0.673500001 0.723100007 0.153099999
vn -0.84009999 0.531400025 0.108400002
vn -0.92809999 0.356299996 0.108099997
vn -0.843100011 0.529200017 0.0952999964
vn -0.931100011 0.352200001 0.0952999964
vn -0.7324 0.672699988 0.105099998
vn -0.734499991 0.672299981 0.0920000002
vn -0.973100007 0.204999998 0.104800001
vn -0.983900011 0.145600006 0.103299998
vn -0.975499988 0.199699998 0.0926000029
vn -0.985899985 0.139799997 0.0913000032
vn -0.568300009 0.815199971 0.111699998
vn -0.633400023 0.765200019 0.115500003
vn -0.614400029 0.777899981 0.131500006
vn -0.550100029 0.825299978 0.127800003
vn -0.584500015 0.797599971 0.148800001
vn -0.521499991 0.840799987 0.145099998
vn -0.485599995 0.865400016 0.123400003
vn -0.502699971 0.857800007 0.107299998
vn -0.458900005 0.877300024 0.140599996
vn -0.510500014 0.854900002 0.0927999988
vn -0.577000022 0.81099999 0.0970000029
vn -0.50999999 0.856400013 0.0800999999
vn -0.577300012 0.81220001 0.0842000023
vn -0.642700016 0.759500027 0.1008
vn -0.64380002 0.760100007 0.0878999978
vn -0.560299993 0.826099992 0.060800001
vn -0.4912 0.869199991 0.0573000014
vn -0.477400005 0.877399981 0.0461000018
vn -0.547200024 0.835500002 0.0491000004
vn -0.464100003 0.885100007 0.0350000001
vn -0.534200013 0.844500005 0.0372000001
vn -0.616900027 0.785300016 0.0518000014
vn -0.629000008 0.774800003 0.0639000013
vn -0.713500023 0.698499978 0.0549000017
vn -0.723500013 0.686999977 0.0675000027
vn -0.604499996 0.795599997 0.0394000001
vn -0.702600002 0.710300028 0.0417999998
vn -0.638599992 0.765799999 0.0759000033
vn -0.57099998 0.817700028 0.0724999979
vn -0.64380002 0.760100007 0.0878999978
vn -0.577300012 0.81220001 0.0842000023
vn -0.731000006 0.677600026 0.0798000023
vn -0.734499991 0.672299981 0.0920000002
vn -0.502799988 0.861599982 0.068599999
vn -0.50999999 0.856400013 0.0800999999
vn -0.929899991 0.361000001 0.0707999989
vn -0.837300003 0.542100012 0.0703999996
vn -0.83069998 0.55369997 0.057599999
vn -0.926800013 0.370999992 0.0579999983
vn -0.822799981 0.566500008 0.0439000018
vn -0.922599971 0.383300006 0.0443000011
vn -0.975600004 0.212200001 0.0566000007
vn -0.976400018 0.204400003 0.0688999966
vn -0.987200022 0.149299994 0.0559
vn -0.987399995 0.1426 0.0680999979
vn -0.97390002 0.2227 0.0432000011
vn -0.986400008 0.158899993 0.0428000018
vn -0.976400018 0.200000003 0.0807999969
vn -0.931400001 0.354299992 0.0830999985
vn -0.975499988 0.199699998 0.0926000029
vn -0.931100011 0.352200001 0.0952999964
vn -0.986999989 0.139300004 0.0797000006
vn -0.841799974 0.533399999 0.0829000026
vn -0.843100011 0.529200017 0.0952999964
vn -0.912899971 0.407700002 0.0179999992
vn -0.969099998 0.246099994 0.0175000001
vn -0.971599996 0.234599993 0.0297999997
vn -0.917699993 0.396100014 0.0305000003
vn -0.97390002 0.2227 0.0432000011
vn -0.922599971 0.383300006 0.0443000011
vn -0.983200014 0.181400001 0.0174000002
vn -0.985000014 0.170200005 0.0295000002
vn -0.986400008 0.158899993 0.0428000018
vn -0.814800024 0.57889998 0.0303000007
vn -0.807699978 0.589299977 0.0178999994
vn -0.692499995 0.720799983 0.0287999995
vn -0.684199989 0.729099989 0.0171000008
vn -0.822799981 0.566500008 0.0439000018
vn -0.702600002 0.710300028 0.0417999998
vn -0.802600026 0.596499979 0.00760000013
vn -0.909300029 0.416099995 0.00760000013
vn -0.800700009 0.598999977 0
vn -0.907899976 0.419200003 0
vn -0.678499997 0.734499991 0.00730000017
vn -0.676500022 0.736400008 0
vn -0.967000008 0.254599988 0.0074
vn -0.98180002 0.189899996 0.00730000017
vn -0.966199994 0.257800013 0
vn -0.98119998 0.193100005 0
vn -0.514900029 0.85710001 0.0153000001
vn -0.585200012 0.810699999 0.0161000006
vn -0.593599975 0.80430001 0.0272000004
vn -0.523100019 0.851899981 0.0256999992
vn -0.604499996 0.795599997 0.0394000001
vn -0.534200013 0.844500005 0.0372000001
vn -0.453200012 0.890999973 0.0241999999
vn -0.4454 0.895200014 0.0143999998
vn -0.464100003 0.885100007 0.0350000001
vn -0.440699995 0.897599995 0.00630000001
vn -0.509800017 0.860300004 0.00659999996
vn -0.439200014 0.898400009 0
vn -0.508000016 0.861400008 0
vn -0.579699993 0.814800024 0.00689999992
vn -0.577799976 0.816200018 0
vn -0.1228 0.983399987 -0.133399993
vn -0.129199997 0.984000027 -0.122500002
vn -0.0483999997 0.992600024 -0.111299999
vn -0.0540000014 0.990999997 -0.122599997
vn -0.0177999996 0.994099975 -0.107000001
vn -0.0229000002 0.993099988 -0.114600003
vn -0.140400007 0.984200001 -0.107900001
vn -0.050999999 0.994000018 -0.0966000035
vn -0.0173000004 0.995599985 -0.0922999978
vn -0.0362999998 0.991299987 -0.126300007
vn -0.104699999 0.985000014 -0.136800006
vn -0.0544999987 0.989799976 -0.131300002
vn -0.134599999 0.980499983 -0.143199995
vn -0.0286999997 0.991999984 -0.122699998
vn 0.00689999992 0.992500007 -0.121600002
vn -0.187900007 0.970799983 -0.149000004
vn -0.212699994 0.966199994 -0.145300001
vn -0.279700011 0.946699977 -0.159600005
vn -0.310600013 0.937600017 -0.156200007
vn -0.210899994 0.965399981 -0.153500006
vn -0.266499996 0.950399995 -0.160300002
vn -0.235799998 0.962199986 -0.135900006
vn -0.257400006 0.958599985 -0.121399999
vn -0.342500001 0.9278 -0.147599995
vn -0.372099996 0.918600023 -0.133100003
vn -0.1602 0.984000027 -0.0775000006
vn -0.152799994 0.984000027 -0.0918999985
vn -0.2755 0.955600023 -0.104800001
vn -0.28670001 0.953800023 -0.0895999968
vn -0.395399988 0.91109997 -0.115999997
vn -0.4102 0.906499982 -0.100299999
vn -0.140400007 0.984200001 -0.107900001
vn -0.257400006 0.958599985 -0.121399999
vn -0.372099996 0.918600023 -0.133100003
vn -0.290800005 0.953700006 -0.0762000009
vn -0.162200004 0.984600008 -0.0649999976
vn -0.287999988 0.95539999 -0.0649000034
vn -0.158299997 0.985800028 -0.0548
vn -0.416500002 0.904999971 -0.0860999972
vn -0.414900005 0.906799972 -0.0738999993
vn -0.064000003 0.996399999 -0.0559
vn -0.0636000037 0.995700002 -0.0675000027
vn -0.0272000004 0.998199999 -0.0524000004
vn -0.0273000002 0.997600019 -0.063699998
vn -0.059700001 0.997099996 -0.0465999991
vn -0.0228000004 0.99879998 -0.0434999987
vn -0.0590000004 0.994899988 -0.0811000019
vn -0.050999999 0.994000018 -0.0966000035
vn -0.0238000005 0.996699989 -0.0769999996
vn -0.0173000004 0.995599985 -0.0922999978
vn -0.136999995 0.989799976 -0.0377000012
vn -0.1241 0.99180001 -0.0299999993
vn -0.0277999993 0.999300003 -0.0251000002
vn -0.0395000018 0.998700023 -0.0315999985
vn 0.00800000038 0.99970001 -0.0231999997
vn -0.00310000009 0.999499977 -0.0292000007
vn -0.113300003 0.993300021 -0.0229000002
vn -0.0183000006 0.999599993 -0.0194000006
vn 0.0168999992 0.99970001 -0.0179999992
vn -0.0509000011 0.997900009 -0.0388000011
vn -0.149200007 0.987699986 -0.0460000001
vn -0.059700001 0.997099996 -0.0465999991
vn -0.158299997 0.985800028 -0.0548
vn -0.0142000001 0.999199986 -0.0359999985
vn -0.0228000004 0.99879998 -0.0434999987
vn -0.279100001 0.958700001 -0.0548
vn -0.266400009 0.962800026 -0.0452999994
vn -0.406800002 0.911300004 -0.0628999993
vn -0.394400001 0.917400002 -0.0522999987
vn -0.287999988 0.95539999 -0.0649000034
vn -0.414900005 0.906799972 -0.0738999993
vn -0.252499998 0.966899991 -0.0362000018
vn -0.240099996 0.970300019 -0.0274999999
vn -0.380199999 0.923900008 -0.0419000015
vn -0.367000014 0.929700017 -0.0318000019
vn -0.101999998 0.994700015 -0.0103000002
vn -0.105899997 0.994199991 -0.0164000001
vn -0.231099993 0.9727 -0.0193000007
vn -0.225600004 0.974099994 -0.0118000004
vn -0.356700003 0.933899999 -0.0220999997
vn -0.349799991 0.936699986 -0.0132999998
vn -0.113300003 0.993300021 -0.0229000002
vn -0.240099996 0.970300019 -0.0274999999
vn -0.367000014 0.929700017 -0.0318000019
vn -0.222800002 0.974799991 -0.00529999984
vn -0.100299999 0.994899988 -0.00469999993
vn -0.345899999 0.938199997 -0.00579999993
vn -0.00860000029 0.999899983 -0.00419999985
vn -0.00960000046 0.999899983 -0.00899999961
vn 0.0252999999 0.99970001 -0.00410000002
vn 0.0247000009 0.999599993 -0.00850000046
vn -0.0124000004 0.999800026 -0.0141000003
vn -0.0183000006 0.999599993 -0.0194000006
vn 0.0222999994 0.999599993 -0.0131999999
vn 0.0168999992 0.99970001 -0.0179999992
vn -0.443899989 0.880100012 -0.168400005
vn -0.484499991 0.860000014 -0.159700006
vn -0.424699992 0.891900003 -0.155200005
vn -0.387499988 0.907199979 -0.163800001
vn -0.521499991 0.840799987 -0.145099998
vn -0.458900005 0.877300024 -0.140599996
vn -0.351000011 0.921299994 -0.167099997
vn -0.403699994 0.898599982 -0.171700001
vn -0.334800005 0.927200019 -0.167600006
vn -0.385699987 0.906400025 -0.172199994
vn -0.458600014 0.871100008 -0.175799996
vn -0.502099991 0.847500026 -0.172299996
vn -0.540199995 0.821799994 -0.181199998
vn -0.587300003 0.789699972 -0.177300006
vn -0.439300001 0.880800009 -0.176300004
vn -0.521099985 0.833800018 -0.182099998
vn -0.54549998 0.82190001 -0.163499996
vn -0.584599972 0.797599971 -0.148800001
vn -0.633300006 0.755400002 -0.168099999
vn -0.673500001 0.723100007 -0.153099999
vn -0.805199981 0.564100027 -0.182799995
vn -0.855000019 0.489899993 -0.170100003
vn -0.747699976 0.64139998 -0.171599999
vn -0.695200026 0.695200026 -0.182500005
vn -0.887499988 0.434100002 -0.154200003
vn -0.78640002 0.597599983 -0.156100005
vn -0.641200006 0.744199991 -0.187299997
vn -0.769400001 0.610199988 -0.188800007
vn -0.58099997 0.792400002 -0.185699999
vn -0.688300014 0.700100005 -0.189899996
vn -0.864000022 0.468100011 -0.185000002
vn -0.886600018 0.42719999 -0.177300006
vn -0.894900024 0.408499986 -0.179800004
vn -0.926699996 0.335500002 -0.169
vn -0.808099985 0.557500005 -0.189899996
vn -0.889699996 0.417600006 -0.184699997
vn -0.922800004 0.348399997 -0.164299995
vn -0.946799994 0.285600007 -0.148200005
vn -0.941799998 0.294699997 -0.161699995
vn -0.962700009 0.228 -0.145799994
vn -0.921199977 0.369399995 -0.122000001
vn -0.908500016 0.394699991 -0.1373
vn -0.960500002 0.2447 -0.132100001
vn -0.968599975 0.218799993 -0.117799997
vn -0.97390002 0.186100006 -0.129899994
vn -0.980300009 0.159799993 -0.115999997
vn -0.887499988 0.434100002 -0.154200003
vn -0.946799994 0.285600007 -0.148200005
vn -0.962700009 0.228 -0.145799994
vn -0.973100007 0.204999998 -0.104800001
vn -0.92809999 0.356299996 -0.108099997
vn -0.975499988 0.199699998 -0.0926000029
vn -0.931100011 0.352200001 -0.0952999964
vn -0.983900011 0.145600006 -0.103299998
vn -0.985899985 0.139799997 -0.0913000032
vn -0.84009999 0.531400025 -0.108400002
vn -0.831099987 0.542299986 -0.122900002
vn -0.7324 0.672699988 -0.105099998
vn -0.7227 0.680599988 -0.119800001
vn -0.843100011 0.529200017 -0.0952999964
vn -0.734499991 0.672299981 -0.0920000002
vn -0.81400001 0.56400001 -0.138799995
vn -0.78640002 0.597599983 -0.156100005
vn -0.703700006 0.697399974 -0.135800004
vn -0.673500001 0.723100007 -0.153099999
vn -0.568300009 0.815199971 -0.111699998
vn -0.550100029 0.825299978 -0.127800003
vn -0.614400029 0.777899981 -0.131500006
vn -0.633400023 0.765200019 -0.115500003
vn -0.521499991 0.840799987 -0.145099998
vn -0.584599972 0.797599971 -0.148800001
vn -0.642700016 0.759500027 -0.1008
vn -0.577000022 0.81099999 -0.0970000029
vn -0.64380002 0.760100007 -0.0878999978
vn -0.577300012 0.81220001 -0.0842000023
vn -0.510500014 0.854900002 -0.0927999988
vn -0.502699971 0.857800007 -0.107299998
vn -0.50999999 0.856400013 -0.0800999999
vn -0.485599995 0.865400016 -0.123400003
vn -0.458900005 0.877300024 -0.140599996
vn -0.560299993 0.826099992 -0.060800001
vn -0.547200024 0.835600019 -0.0491000004
vn -0.477400005 0.877399981 -0.0461000018
vn -0.4912 0.869199991 -0.0573000014
vn -0.534200013 0.844500005 -0.0372000001
vn -0.464100003 0.885100007 -0.0350000001
vn -0.502799988 0.861599982 -0.068599999
vn -0.57099998 0.817700028 -0.0724999979
vn -0.50999999 0.856400013 -0.0800999999
vn -0.577300012 0.81220001 -0.0842000023
vn -0.638599992 0.765799999 -0.0759000033
vn -0.629000008 0.774800003 -0.0639000013
vn -0.731000006 0.677600026 -0.0798000023
vn -0.723500013 0.686999977 -0.0675000027
vn -0.64380002 0.760100007 -0.0878999978
vn -0.734499991 0.672299981 -0.0920000002
vn -0.616900027 0.785300016 -0.0518000014
vn -0.604499996 0.795599997 -0.0394000001
vn -0.713500023 0.698499978 -0.0549000017
vn -0.702600002 0.710300028 -0.0417999998
vn -0.929799974 0.361000001 -0.0707999989
vn -0.926800013 0.370999992 -0.0579999983
vn -0.83069998 0.55369997 -0.057599999
vn -0.837300003 0.542100012 -0.0703999996
vn -0.922599971 0.38319999 -0.0443000011
vn -0.822799981 0.566500008 -0.0439000018
vn -0.841799974 0.533399999 -0.0829000026
vn -0.931400001 0.354299992 -0.0830999985
vn -0.843100011 0.529200017 -0.0952999964
vn -0.931100011 0.352200001 -0.0952999964
vn -0.976400018 0.200000003 -0.0807999969
vn -0.976400018 0.204400003 -0.0688999966
vn -0.986999989 0.139200002 -0.0797000006
vn -0.987399995 0.1426 -0.0680999979
vn -0.975499988 0.199699998 -0.0926000029
vn -0.975600004 0.212200001 -0.0566000007
vn -0.97390002 0.2227 -0.0432000011
vn -0.987200022 0.149299994 -0.0559
vn -0.986400008 0.158800006 -0.0428000018
vn -0.912899971 0.407799989 -0.0179999992
vn -0.917699993 0.396100014 -0.0305000003
vn -0.971599996 0.234599993 -0.0297999997
vn -0.969099998 0.246099994 -0.0175000001
vn -0.985000014 0.170200005 -0.0295000002
vn -0.983200014 0.181299999 -0.0174000002
vn -0.922599971 0.38319999 -0.0443000011
vn -0.97390002 0.2227 -0.0432000011
vn -0.986400008 0.158800006 -0.0428000018
vn -0.967000008 0.254599988 -0.0074
vn -0.909300029 0.416099995 -0.00760000013
vn -0.98180002 0.189799994 -0.00730000017
vn -0.802600026 0.596499979 -0.00760000013
vn -0.807699978 0.589299977 -0.0178999994
vn -0.678499997 0.734499991 -0.00730000017
vn -0.684199989 0.729099989 -0.0171000008
vn -0.814800024 0.57889998 -0.0303000007
vn -0.822799981 0.566500008 -0.0439000018
vn -0.692499995 0.720799983 -0.0287999995
vn -0.702600002 0.710300028 -0.0417999998
vn -0.514900029 0.85710001 -0.0153000001
vn -0.523100019 0.851899981 -0.0256999992
vn -0.593599975 0.80430001 -0.0272000004
vn -0.585099995 0.810800016 -0.0161000006
vn -0.534200013 0.844500005 -0.0372000001
vn -0.604499996 0.795599997 -0.0394000001
vn -0.579699993 0.814800024 -0.00689999992
vn -0.509800017 0.860300004 -0.00659999996
vn -0.440699995 0.897599995 -0.00630000001
vn -0.4454 0.895200014 -0.0143999998
vn -0.453200012 0.890999973 -0.0241999999
vn -0.464100003 0.885100007 -0.0350000001
f 1/1/1 2/2/2 3/3/3
f 1/1/1 3/3/3 4/4/4
f 4/4/4 3/3/3 5/5/5
f 4/4/4 5/5/5 6/6/6
f 2/2/2 7/7/7 8/8/8
f 2/2/2 8/8/8 3/3/3
f 3/3/3 8/8/8 9/9/9
f 3/3/3 9/9/9 5/5/5
f 1/1/1 4/4/4 10/10/10
f 1/1/1 10/10/10 11/11/11
f 11/11/11 10/10/10 12/12/12
f 11/11/11 12/12/12 13/13/13
f 4/4/4 6/6/6 14/14/14
f 4/4/4 14/14/14 10/10/10
f 10/10/10 14/14/14 15/15/15
f 10/10/10 15/15/15 12/12/12
f 1/1/1 11/11/11 16/16/16
f 1/1/1 16/16/16 17/17/17
f 17/17/17 16/16/16 18/18/18
f 17/17/17 18/18/18 19/19/19
f 11/11/11 13/13/13 20/20/20
f 11/11/11 20/20/20 16/16/16
f 16/16/16 20/20/20 21/21/21
f 16/16/16 21/21/21 18/18/18
f 1/1/1 17/17/17 22/22/22
f 1/1/1 22/22/22 2/2/2
f 2/2/2 22/22/22 23/23/23
f 2/2/2 23/23/23 7/7/7
f 17/17/17 19/19/19 24/24/24
f 17/17/17 24/24/24 22/22/22
f 22/22/22 24/24/24 25/25/25
f 22/22/22 25/25/25 23/23/23
f 26/26/26 27/27/27 28/28/28
f 26/26/26 28/28/28 29/29/29
f 29/29/29 28/28/28 30/30/30
f 29/29/29 30/30/30 31/31/31
f 27/27/27 32/32/32 33/33/33
f 27/27/27 33/33/33 28/28/28
f 28/28/28 33/33/33 34/34/34
f 28/28/28 34/34/34 30/30/30
f 26/26/26 29/29/29 35/35/35
f 26/26/26 35/35/35 36/36/36
f 36/36/36 35/35/35 37/37/37
f 36/36/36 37/37/37 38/38/38
f 29/29/29 31/31/31 39/39/39
f 29/29/29 39/39/39 35/35/35
f 35/35/35 39/39/39 40/40/40
f 35/35/35 40/40/40 37/37/37
f 26/26/26 36/36/36 41/41/41
f 26/26/26 41/41/41 42/42/42
f 42/42/42 41/41/41 43/43/43
f 42/42/42 43/43/43 44/44/44
f 36/36/36 38/38/38 45/45/45
f 36/36/36 45/45/45 41/41/41
f 41/41/41 45/45/45 46/46/46
f 41/41/41 46/46/46 43/43/43
f 26/26/26 42/42/42 47/47/47
f 26/26/26 47/47/47 27/27/27
f 27/27/27 47/47/47 48/48/48
f 27/27/27 48/48/48 32/32/32
f 42/42/42 44/44/44 49/49/49
f 42/42/42 49/49/49 47/47/47
f 47/47/47 49/49/49 50/50/50
f 47/47/47 50/50/50 48/48/48
f 51/51/51 52/52/52 53/53/53
f 51/51/51 53/53/53 54/54/54
f 54/54/54 53/53/53 55/55/55
f 54/54/54 55/55/55 56/56/56
f 52/52/52 57/57/57 58/58/58
f 52/52/52 58/58/58 53/53/53
f 53/53/53 58/58/58 59/59/59
f 53/53/53 59/59/59 55/55/55
f 51/51/51 54/54/54 60/60/60
f 51/51/51 60/60/60 61/61/61
f 61/61/61 60/60/60 62/62/62
f 61/61/61 62/62/62 63/63/63
f 54/54/54 56/56/56 64/64/64
f 54/54/54 64/64/64 60/60/60
f 60/60/60 64/64/64 65/65/65
f 60/60/60 65/65/65 62/62/62
f 51/51/51 61/61/61 66/66/66
f 51/51/51 66/66/66 67/67/67
f 67/67/67 66/66/66 68/68/68
f 67/67/67 68/68/68 69/69/69
f 61/61/61 63/63/63 70/70/70
f 61/61/61 70/70/70 66/66/66
f 66/66/66 70/70/70 71/71/71
f 66/66/66 71/71/71 68/68/68
f 51/51/51 67/67/67 72/72/72
f 51/51/51 72/72/72 52/52/52
f 52/52/52 72/72/72 73/73/73
f 52/52/52 73/73/73 57/57/57
f 67/67/67 69/69/69 74/74/74
f 67/67/67 74/74/74 72/72/72
f 72/72/72 74/74/74 75/75/75
f 72/72/72 75/75/75 73/73/73
f 76/76/76 77/77/77 78/78/78
f 76/76/76 78/78/78 79/79/79
f 79/79/79 78/78/78 80/80/80
f 79/79/79 80/80/80 81/81/81
f 77/77/77 82/82/82 83/83/83
f 77/77/77 83/83/83 78/78/78
f 78/78/78 83/83/83 84/84/84
f 78/78/78 84/84/84 80/80/80
f 76/76/76 79/79/79 85/85/85
f 76/76/76 85/85/85 86/86/86
f 86/86/86 85/85/85 87/87/87
f 86/86/86 87/87/87 88/88/88
f 79/79/79 81/81/81 89/89/89
f 79/79/79 89/89/89 85/85/85
f 85/85/85 89/89/89 90/90/90
f 85/85/85 90/90/90 87/87/87
f 76/76/76 86/86/86 91/91/91
f 76/76/76 91/91/91 92/92/92
f 92/92/92 91/91/91 93/93/93
f 92/92/92 93/93/93 94/94/94
f 86/86/86 88/88/88 95/95/95
f 86/86/86 95/95/95 91/91/91
f 91/91/91 95/95/95 96/96/96
f 91/91/91 96/96/96 93/93/93
f 76/76/76 92/92/92 97/97/97
f 76/76/76 97/97/97 77/77/77
f 77/77/77 97/97/97 98/98/98
f 77/77/77 98/98/98 82/82/82
f 92/92/92 94/94/94 99/99/99
f 92/92/92 99/99/99 97/97/97
f 97/97/97 99/99/99 100/100/100
f 97/97/97 100/100/100 98/98/98
f 101/101/101 102/102/102 103/103/103
f 101/101/101 103/103/103 104/104/104
f 104/104/104 103/103/103 105/105/105
f 104/104/104 105/105/105 106/106/106
f 102/102/102 13/13/13 12/12/12
f 102/102/102 12/12/12 103/103/103
f 103/103/103 12/12/12 15/15/15
f 103/103/103 15/15/15 105/105/105
f 101/101/101 104/104/104 107/107/107
f 101/101/101 107/107/107 108/108/108
f 108/108/108 107/107/107 109/109/109
f 108/108/108 109/109/109 110/110/110
f 104/104/104 106/106/106 111/111/111
f 104/104/104 111/111/111 107/107/107
f 107/107/107 111/111/111 112/112/112
f 107/107/107 112/112/112 109/109/109
f 101/101/101 108/108/108 113/113/113
f 101/101/101 113/113/113 114/114/114
f 114/114/114 113/113/113 115/115/115
f 114/114/114 115/115/115 116/116/116
f 108/108/108 110/110/110 117/117/117
f 108/108/108 117/117/117 113/113/113
f 113/113/113 117/117/117 118/118/118
f 113/113/113 118/118/118 115/115/115
f 101/101/101 114/114/114 119/119/119
f 101/101/101 119/119/119 102/102/102
f 102/102/102 119/119/119 20/20/20
f 102/102/102 20/20/20 13/13/13
f 114/114/114 116/116/116 120/120/120
f 114/114/114 120/120/120 119/119/119
f 119/119/119 120/120/120 21/21/21
f 119/119/119 21/21/21 20/20/20
f 121/121/121 122/122/122 123/123/123
f 121/121/121 123/123/123 124/124/124
f 124/124/124 123/123/123 125/125/125
f 124/124/124 125/125/125 126/126/126
f 122/122/122 110/110/110 109/109/109
f 122/122/122 109/109/109 123/123/123
f 123/123/123 109/109/109 112/112/112
f 123/123/123 112/112/112 125/125/125
f 121/121/121 124/124/124 127/127/127
f 121/121/121 127/127/127 128/128/128
f 128/128/128 127/127/127 129/129/129
f 128/128/128 129/129/129 130/130/130
f 124/124/124 126/126/126 131/131/131
f 124/124/124 131/131/131 127/127/127
f 127/127/127 131/131/131 132/132/132
f 127/127/127 132/132/132 129/129/129
f 121/121/121 128/128/128 133/133/133
f 121/121/121 133/133/133 134/134/134
f 134/134/134 133/133/133 135/135/135
f 134/134/134 135/135/135 136/136/136
f 128/128/128 130/130/130 137/137/137
f 128/128/128 137/137/137 133/133/133
f 133/133/133 137/137/137 138/138/138
f 133/133/133 138/138/138 135/135/135
f 121/121/121 134/134/134 139/139/139
f 121/121/121 139/139/139 122/122/122
f 122/122/122 139/139/139 117/117/117
f 122/122/122 117/117/117 110/110/110
f 134/134/134 136/136/136 140/140/140
f 134/134/134 140/140/140 139/139/139
f 139/139/139 140/140/140 118/118/118
f 139/139/139 118/118/118 117/117/117
f 141/141/141 142/142/142 143/143/143
f 141/141/141 143/143/143 144/144/144
f 144/144/144 143/143/143 145/145/145
f 144/144/144 145/145/145 146/146/146
f 142/142/142 147/147/147 148/148/148
f 142/142/142 148/148/148 143/143/143
f 143/143/143 148/148/148 149/149/149
f 143/143/143 149/149/149 145/145/145
f 141/141/141 144/144/144 150/150/150
f 141/141/141 150/150/150 151/151/151
f 151/151/151 150/150/150 152/152/152
f 151/151/151 152/152/152 153/153/153
f 144/144/144 146/146/146 154/154/154
f 144/144/144 154/154/154 150/150/150
f 150/150/150 154/154/154 155/155/155
f 150/150/150 155/155/155 152/152/152
f 141/141/141 151/151/151 156/156/156
f 141/141/141 156/156/156 157/157/157
f 157/157/157 156/156/156 158/158/158
f 157/157/157 158/158/158 159/159/159
f 151/151/151 153/153/153 160/160/160
f 151/151/151 160/160/160 156/156/156
f 156/156/156 160/160/160 161/161/161
f 156/156/156 161/161/161 158/158/158
f 141/141/141 157/157/157 162/162/162
f 141/141/141 162/162/162 142/142/142
f 142/142/142 162/162/162 163/163/163
f 142/142/142 163/163/163 147/147/147
f 157/157/157 159/159/159 164/164/164
f 157/157/157 164/164/164 162/162/162
f 162/162/162 164/164/164 165/165/165
f 162/162/162 165/165/165 163/163/163
f 166/166/166 167/167/167 168/168/168
f 166/166/166 168/168/168 169/169/169
f 169/169/169 168/168/168 170/170/170
f 169/169/169 170/170/170 171/171/171
f 167/167/167 153/153/153 152/152/152
f 167/167/167 152/152/152 168/168/168
f 168/168/168 152/152/152 155/155/155
f 168/168/168 155/155/155 170/170/170
f 166/166/166 169/169/169 172/172/172
f 166/166/166 172/172/172 173/173/173
f 173/173/173 172/172/172 33/33/33
f 173/173/173 33/33/33 32/32/32
f 169/169/169 171/171/171 174/174/174
f 169/169/169 174/174/174 172/172/172
f 172/172/172 174/174/174 34/34/34
f 172/172/172 34/34/34 33/33/33
f 166/166/166 173/173/173 175/175/175
f 166/166/166 175/175/175 176/176/176
f 176/176/176 175/175/175 177/177/177
f 176/176/176 177/177/177 178/178/178
f 173/173/173 32/32/32 48/48/48
f 173/173/173 48/48/48 175/175/175
f 175/175/175 48/48/48 50/50/50
f 175/175/175 50/50/50 177/177/177
f 166/166/166 176/176/176 179/179/179
f 166/166/166 179/179/179 167/167/167
f 167/167/167 179/179/179 160/160/160
f 167/167/167 160/160/160 153/153/153
f 176/176/176 178/178/178 180/180/180
f 176/176/176 180/180/180 179/179/179
f 179/179/179 180/180/180 161/161/161
f 179/179/179 161/161/161 160/160/160
f 181/181/181 182/182/182 183/183/183
f 181/181/181 183/183/183 184/184/184
f 184/184/184 183/183/183 185/185/185
f 184/184/184 185/185/185 186/186/186
f 182/182/182 63/63/63 62/62/62
f 182/182/182 62/62/62 183/183/183
f 183/183/183 62/62/62 65/65/65
f 183/183/183 65/65/65 185/185/185
f 181/181/181 184/184/184 187/187/187
f 181/181/181 187/187/187 188/188/188
f 188/188/188 187/187/187 189/189/189
f 188/188/188 189/189/189 190/190/190
f 184/184/184 186/186/186 191/191/191
f 184/184/184 191/191/191 187/187/187
f 187/187/187 191/191/191 192/192/192
f 187/187/187 192/192/192 189/189/189
f 181/181/181 188/188/188 193/193/193
f 181/181/181 193/193/193 194/194/194
f 194/194/194 193/193/193 195/195/195
f 194/194/194 195/195/195 196/196/196
f 188/188/188 190/190/190 197/197/197
f 188/188/188 197/197/197 193/193/193
f 193/193/193 197/197/197 198/198/198
f 193/193/193 198/198/198 195/195/195
f 181/181/181 194/194/194 199/199/199
f 181/181/181 199/199/199 182/182/182
f 182/182/182 199/199/199 70/70/70
f 182/182/182 70/70/70 63/63/63
f 194/194/194 196/196/196 200/200/200
f 194/194/194 200/200/200 199/199/199
f 199/199/199 200/200/200 71/71/71
f 199/199/199 71/71/71 70/70/70
f 201/201/201 202/202/202 203/203/203
f 201/201/201 203/203/203 204/204/204
f 204/204/204 203/203/203 205/205/205
f 204/204/204 205/205/205 206/206/206
f 202/202/202 190/190/190 189/189/189
f 202/202/202 189/189/189 203/203/203
f 203/203/203 189/189/189 192/192/192
f 203/203/203 192/192/192 205/205/205
f 201/201/201 204/204/204 207/207/207
f 201/201/201 207/207/207 208/208/208
f 208/208/208 207/207/207 209/209/209
f 208/208/208 209/209/209 210/210/210
f 204/204/204 206/206/206 211/211/211
f 204/204/204 211/211/211 207/207/207
f 207/207/207 211/211/211 212/212/212
f 207/207/207 212/212/212 209/209/209
f 201/201/201 208/208/208 213/213/213
f 201/201/201 213/213/213 214/214/214
f 214/214/214 213/213/213 215/215/215
f 214/214/214 215/215/215 216/216/216
f 208/208/208 210/210/210 217/217/217
f 208/208/208 217/217/217 213/213/213
f 213/213/213 217/217/217 165/165/165
f 213/213/213 165/165/165 215/215/215
f 201/201/201 214/214/214 218/218/218
f 201/201/201 218/218/218 202/202/202
f 202/202/202 218/218/218 197/197/197
f 202/202/202 197/197/197 190/190/190
f 214/214/214 216/216/216 219/219/219
f 214/214/214 219/219/219 218/218/218
f 218/218/218 219/219/219 198/198/198
f 218/218/218 198/198/198 197/197/197
f 220/220/220 221/221/221 222/222/222
f 220/220/220 222/222/222 223/223/223
f 223/223/223 222/222/222 224/224/224
f 223/223/223 224/224/224 225/225/225
f 221/221/221 226/226/226 227/227/227
f 221/221/221 227/227/227 222/222/222
f 222/222/222 227/227/227 228/228/228
f 222/222/222 228/228/228 224/224/224
f 220/220/220 223/223/223 229/229/229
f 220/220/220 229/229/229 230/230/230
f 230/230/230 229/229/229 231/231/231
f 230/230/230 231/231/231 232/232/232
f 223/223/223 225/225/225 233/233/233
f 223/223/223 233/233/233 229/229/229
f 229/229/229 233/233/233 234/234/234
f 229/229/229 234/234/234 231/231/231
f 220/220/220 230/230/230 235/235/235
f 220/220/220 235/235/235 236/236/236
f 236/236/236 235/235/235 237/237/237
f 236/236/236 237/237/237 238/238/238
f 230/230/230 232/232/232 239/239/239
f 230/230/230 239/239/239 235/235/235
f 235/235/235 239/239/239 240/240/240
f 235/235/235 240/240/240 237/237/237
f 220/220/220 236/236/236 241/241/241
f 220/220/220 241/241/241 221/221/221
f 221/221/221 241/241/241 242/242/242
f 221/221/221 242/242/242 226/226/226
f 236/236/236 238/238/238 243/243/243
f 236/236/236 243/243/243 241/241/241
f 241/241/241 243/243/243 244/244/244
f 241/241/241 244/244/244 242/242/242
f 245/245/245 246/246/246 247/247/247
f 245/245/245 247/247/247 248/248/248
f 248/248/248 247/247/247 249/249/249
f 248/248/248 249/249/249 250/250/250
f 246/246/246 232/232/232 231/231/231
f 246/246/246 231/231/231 247/247/247
f 247/247/247 231/231/231 234/234/234
f 247/247/247 234/234/234 249/249/249
f 245/245/245 248/248/248 251/251/251
f 245/245/245 251/251/251 252/252/252
f 252/252/252 251/251/251 83/83/83
f 252/252/252 83/83/83 82/82/82
f 248/248/248 250/250/250 253/253/253
f 248/248/248 253/253/253 251/251/251
f 251/251/251 253/253/253 84/84/84
f 251/251/251 84/84/84 83/83/83
f 245/245/245 252/252/252 254/254/254
f 245/245/245 254/254/254 255/255/255
f 255/255/255 254/254/254 256/256/256
f 255/255/255 256/256/256 257/257/257
f 252/252/252 82/82/82 98/98/98
f 252/252/252 98/98/98 254/254/254
f 254/254/254 98/98/98 100/100/100
f 254/254/254 100/100/100 256/256/256
f 245/245/245 255/255/255 258/258/258
f 245/245/245 258/258/258 246/246/246
f 246/246/246 258/258/258 239/239/239
f 246/246/246 239/239/239 232/232/232
f 255/255/255 257/257/257 259/259/259
f 255/255/255 259/259/259 258/258/258
f 258/258/258 259/259/259 240/240/240
f 258/258/258 240/240/240 239/239/239
f 260/260/260 261/261/261 262/262/262
f 260/260/260 262/262/262 263/263/263
f 263/263/263 262/262/262 264/264/264
f 263/263/263 264/264/264 265/265/265
f 261/261/261 266/266/266 267/267/267
f 261/261/261 267/267/267 262/262/262
f 262/262/262 267/267/267 268/268/268
f 262/262/262 268/268/268 264/264/264
f 260/260/260 263/263/263 269/269/269
f 260/260/260 269/269/269 270/270/270
f 270/270/270 269/269/269 271/271/271
f 270/270/270 271/271/271 272/272/272
f 263/263/263 265/265/265 273/273/273
f 263/263/263 273/273/273 269/269/269
f 269/269/269 273/273/273 274/274/274
f 269/269/269 274/274/274 271/271/271
f 260/260/260 270/270/270 275/275/275
f 260/260/260 275/275/275 276/276/276
f 276/276/276 275/275/275 277/277/277
f 276/276/276 277/277/277 278/278/278
f 270/270/270 272/272/272 279/279/279
f 270/270/270 279/279/279 275/275/275
f 275/275/275 279/279/279 280/280/280
f 275/275/275 280/280/280 277/277/277
f 260/260/260 276/276/276 281/281/281
f 260/260/260 281/281/281 261/261/261
f 261/261/261 281/281/281 282/282/282
f 261/261/261 282/282/282 266/266/266
f 276/276/276 278/278/278 283/283/283
f 276/276/276 283/283/283 281/281/281
f 281/281/281 283/283/283 284/284/284
f 281/281/281 284/284/284 282/282/282
f 285/285/285 286/286/286 287/287/287
f 285/285/285 287/287/287 288/288/288
f 288/288/288 287/287/287 289/289/289
f 288/288/288 289/289/289 290/290/290
f 286/286/286 291/291/291 292/292/292
f 286/286/286 292/292/292 287/287/287
f 287/287/287 292/292/292 293/293/293
f 287/287/287 293/293/293 289/289/289
f 285/285/285 288/288/288 294/294/294
f 285/285/285 294/294/294 295/295/295
f 295/295/295 294/294/294 296/296/296
f 295/295/295 296/296/296 297/297/297
f 288/288/288 290/290/290 298/298/298
f 288/288/288 298/298/298 294/294/294
f 294/294/294 298/298/298 299/299/299
f 294/294/294 299/299/299 296/296/296
f 285/285/285 295/295/295 300/300/300
f 285/285/285 300/300/300 301/301/301
f 301/301/301 300/300/300 302/302/302
f 301/301/301 302/302/302 303/303/303
f 295/295/295 297/297/297 304/304/304
f 295/295/295 304/304/304 300/300/300
f 300/300/300 304/304/304 305/305/305
f 300/300/300 305/305/305 302/302/302
f 285/285/285 301/301/301 306/306/306
f 285/285/285 306/306/306 286/286/286
f 286/286/286 306/306/306 307/307/307
f 286/286/286 307/307/307 291/291/291
f 301/301/301 303/303/303 308/308/308
f 301/301/301 308/308/308 306/306/306
f 306/306/306 308/308/308 309/309/309
f 306/306/306 309/309/309 307/307/307
f 310/310/310 311/311/311 312/312/312
f 310/310/310 312/312/312 313/313/313
f 313/313/313 312/312/312 314/314/314
f 313/313/313 314/314/314 315/315/315
f 311/311/311 316/316/316 317/317/317
f 311/311/311 317/317/317 312/312/312
f 312/312/312 317/317/317 318/318/318
f 312/312/312 318/318/318 314/314/314
f 310/310/310 313/313/313 319/319/319
f 310/310/310 319/319/319 320/320/320
f 320/320/320 319/319/319 321/321/321
f 320/320/320 321/321/321 322/322/322
f 313/313/313 315/315/315 323/323/323
f 313/313/313 323/323/323 319/319/319
f 319/319/319 323/323/323 324/324/324
f 319/319/319 324/324/324 321/321/321
f 310/310/310 320/320/320 325/325/325
f 310/310/310 325/325/325 326/326/326
f 326/326/326 325/325/325 327/327/327
f 326/326/326 327/327/327 328/328/328
f 320/320/320 322/322/322 329/329/329
f 320/320/320 329/329/329 325/325/325
f 325/325/325 329/329/329 330/330/330
f 325/325/325 330/330/330 327/327/327
f 310/310/310 326/326/326 331/331/331
f 310/310/310 331/331/331 311/311/311
f 311/311/311 331/331/331 332/332/332
f 311/311/311 332/332/332 316/316/316
f 326/326/326 328/328/328 333/333/333
f 326/326/326 333/333/333 331/331/331
f 331/331/331 333/333/333 334/334/334
f 331/331/331 334/334/334 332/332/332
f 335/335/335 336/336/336 337/337/337
f 335/335/335 337/337/337 338/338/338
f 338/338/338 337/337/337 339/339/339
f 338/338/338 339/339/339 340/340/340
f 336/336/336 341/341/341 342/342/342
f 336/336/336 342/342/342 337/337/337
f 337/337/337 342/342/342 343/343/343
f 337/337/337 343/343/343 339/339/339
f 335/335/335 338/338/338 344/344/344
f 335/335/335 344/344/344 345/345/345
f 345/345/345 344/344/344 99/99/99
f 345/345/345 99/99/99 94/94/94
f 338/338/338 340/340/340 346/346/346
f 338/338/338 346/346/346 344/344/344
f 344/344/344 346/346/346 100/100/100
f 344/344/344 100/100/100 99/99/99
f 335/335/335 345/345/345 347/347/347
f 335/335/335 347/347/347 348/348/348
f 348/348/348 347/347/347 349/349/349
f 348/348/348 349/349/349 350/350/350
f 345/345/345 94/94/94 93/93/93
f 345/345/345 93/93/93 347/347/347
f 347/347/347 93/93/93 96/96/96
f 347/347/347 96/96/96 349/349/349
f 335/335/335 348/348/348 351/351/351
f 335/335/335 351/351/351 336/336/336
f 336/336/336 351/351/351 352/352/352
f 336/336/336 352/352/352 341/341/341
f 348/348/348 350/350/350 353/353/353
f 348/348/348 353/353/353 351/351/351
f 351/351/351 353/353/353 354/354/354
f 351/351/351 354/354/354 352/352/352
f 355/355/355 356/356/356 357/357/357
f 355/355/355 357/357/357 358/358/358
f 358/358/358 357/357/357 283/283/283
f 358/358/358 283/283/283 278/278/278
f 356/356/356 359/359/359 360/360/360
f 356/356/356 360/360/360 357/357/357
f 357/357/357 360/360/360 284/284/284
f 357/357/357 284/284/284 283/283/283
f 355/355/355 358/358/358 361/361/361
f 355/355/355 361/361/361 362/362/362
f 362/362/362 361/361/361 363/363/363
f 362/362/362 363/363/363 364/364/364
f 358/358/358 278/278/278 277/277/277
f 358/358/358 277/277/277 361/361/361
f 361/361/361 277/277/277 280/280/280
f 361/361/361 280/280/280 363/363/363
f 355/355/355 362/362/362 365/365/365
f 355/355/355 365/365/365 366/366/366
f 366/366/366 365/365/365 367/367/367
f 366/366/366 367/367/367 368/368/368
f 362/362/362 364/364/364 369/369/369
f 362/362/362 369/369/369 365/365/365
f 365/365/365 369/369/369 370/370/370
f 365/365/365 370/370/370 367/367/367
f 355/355/355 366/366/366 371/371/371
f 355/355/355 371/371/371 356/356/356
f 356/356/356 371/371/371 372/372/372
f 356/356/356 372/372/372 359/359/359
f 366/366/366 368/368/368 373/373/373
f 366/366/366 373/373/373 371/371/371
f 371/371/371 373/373/373 374/374/374
f 371/371/371 374/374/374 372/372/372
f 375/375/375 376/376/376 377/377/377
f 375/375/375 377/377/377 378/378/378
f 378/378/378 377/377/377 373/373/373
f 378/378/378 373/373/373 368/368/368
f 376/376/376 379/379/379 380/380/380
f 376/376/376 380/380/380 377/377/377
f 377/377/377 380/380/380 374/374/374
f 377/377/377 374/374/374 373/373/373
f 375/375/375 378/378/378 381/381/381
f 375/375/375 381/381/381 382/382/382
f 382/382/382 381/381/381 383/383/383
f 382/382/382 383/383/383 384/384/384
f 378/378/378 368/368/368 367/367/367
f 378/378/378 367/367/367 381/381/381
f 381/381/381 367/367/367 370/370/370
f 381/381/381 370/370/370 383/383/383
f 375/375/375 382/382/382 385/385/385
f 375/375/375 385/385/385 386/386/386
f 386/386/386 385/385/385 387/387/387
f 386/386/386 387/387/387 388/388/388
f 382/382/382 384/384/384 389/389/389
f 382/382/382 389/389/389 385/385/385
f 385/385/385 389/389/389 390/390/390
f 385/385/385 390/390/390 387/387/387
f 375/375/375 386/386/386 391/391/391
f 375/375/375 391/391/391 376/376/376
f 376/376/376 391/391/391 392/392/392
f 376/376/376 392/392/392 379/379/379
f 386/386/386 388/388/388 393/393/393
f 386/386/386 393/393/393 391/391/391
f 391/391/391 393/393/393 394/394/394
f 391/391/391 394/394/394 392/392/392
f 395/395/395 396/396/396 397/397/397
f 395/395/395 397/397/397 398/398/398
f 398/398/398 397/397/397 399/399/399
f 398/398/398 399/399/399 400/400/400
f 396/396/396 401/401/401 402/402/402
f 396/396/396 402/402/402 397/397/397
f 397/397/397 402/402/402 403/403/403
f 397/397/397 403/403/403 399/399/399
f 395/395/395 398/398/398 404/404/404
f 395/395/395 404/404/404 405/405/405
f 405/405/405 404/404/404 406/406/406
f 405/405/405 406/406/406 407/407/407
f 398/398/398 400/400/400 408/408/408
f 398/398/398 408/408/408 404/404/404
f 404/404/404 408/408/408 409/409/409
f 404/404/404 409/409/409 406/406/406
f 395/395/395 405/405/405 410/410/410
f 395/395/395 410/410/410 411/411/411
f 411/411/411 410/410/410 412/412/412
f 411/411/411 412/412/412 413/413/413
f 405/405/405 407/407/407 414/414/414
f 405/405/405 414/414/414 410/410/410
f 410/410/410 414/414/414 415/415/415
f 410/410/410 415/415/415 412/412/412
f 395/395/395 411/411/411 416/416/416
f 395/395/395 416/416/416 396/396/396
f 396/396/396 416/416/416 417/417/417
f 396/396/396 417/417/417 401/401/401
f 411/411/411 413/413/413 418/418/418
f 411/411/411 418/418/418 416/416/416
f 416/416/416 418/418/418 419/419/419
f 416/416/416 419/419/419 417/417/417
f 420/420/420 421/421/421 422/422/422
f 420/420/420 422/422/422 423/423/423
f 423/423/423 422/422/422 418/418/418
f 423/423/423 418/418/418 413/413/413
f 421/421/421 424/424/424 425/425/425
f 421/421/421 425/425/425 422/422/422
f 422/422/422 425/425/425 419/419/419
f 422/422/422 419/419/419 418/418/418
f 420/420/420 423/423/423 426/426/426
f 420/420/420 426/426/426 427/427/427
f 427/427/427 426/426/426 428/428/428
f 427/427/427 428/428/428 429/429/429
f 423/423/423 413/413/413 412/412/412
f 423/423/423 412/412/412 426/426/426
f 426/426/426 412/412/412 415/415/415
f 426/426/426 415/415/415 428/428/428
f 420/420/420 427/427/427 430/430/430
f 420/420/420 430/430/430 431/431/431
f 431/431/431 430/430/430 298/298/298
f 431/431/431 298/298/298 290/290/290
f 427/427/427 429/429/429 432/432/432
f 427/427/427 432/432/432 430/430/430
f 430/430/430 432/432/432 299/299/299
f 430/430/430 299/299/299 298/298/298
f 420/420/420 431/431/431 433/433/433
f 420/420/420 433/433/433 421/421/421
f 421/421/421 433/433/433 434/434/434
f 421/421/421 434/434/434 424/424/424
f 431/431/431 290/290/290 289/289/289
f 431/431/431 289/289/289 433/433/433
f 433/433/433 289/289/289 293/293/293
f 433/433/433 293/293/293 434/434/434
f 435/435/435 436/436/436 437/437/437
f 435/435/435 437/437/437 438/438/438
f 438/438/438 437/437/437 333/333/333
f 438/438/438 333/333/333 328/328/328
f 436/436/436 439/439/439 440/440/440
f 436/436/436 440/440/440 437/437/437
f 437/437/437 440/440/440 334/334/334
f 437/437/437 334/334/334 333/333/333
f 435/435/435 438/438/438 441/441/441
f 435/435/435 441/441/441 442/442/442
f 442/442/442 441/441/441 443/443/443
f 442/442/442 443/443/443 444/444/444
f 438/438/438 328/328/328 327/327/327
f 438/438/438 327/327/327 441/441/441
f 441/441/441 327/327/327 330/330/330
f 441/441/441 330/330/330 443/443/443
f 435/435/435 442/442/442 445/445/445
f 435/435/435 445/445/445 446/446/446
f 446/446/446 445/445/445 447/447/447
f 446/446/446 447/447/447 448/448/448
f 442/442/442 444/444/444 449/449/449
f 442/442/442 449/449/449 445/445/445
f 445/445/445 449/449/449 450/450/450
f 445/445/445 450/450/450 447/447/447
f 435/435/435 446/446/446 451/451/451
f 435/435/435 451/451/451 436/436/436
f 436/436/436 451/451/451 452/452/452
f 436/436/436 452/452/452 439/439/439
f 446/446/446 448/448/448 453/453/453
f 446/446/446 453/453/453 451/451/451
f 451/451/451 453/453/453 454/454/454
f 451/451/451 454/454/454 452/452/452
f 455/455/455 456/456/456 457/457/457
f 455/455/455 457/457/457 458/458/458
f 458/458/458 457/457/457 453/453/453
f 458/458/458 453/453/453 448/448/448
f 456/456/456 459/459/459 460/460/460
f 456/456/456 460/460/460 457/457/457
f 457/457/457 460/460/460 454/454/454
f 457/457/457 454/454/454 453/453/453
f 455/455/455 458/458/458 461/461/461
f 455/455/455 461/461/461 462/462/462
f 462/462/462 461/461/461 463/463/463
f 462/462/462 463/463/463 464/464/464
f 458/458/458 448/448/448 447/447/447
f 458/458/458 447/447/447 461/461/461
f 461/461/461 447/447/447 450/450/450
f 461/461/461 450/450/450 463/463/463
f 455/455/455 462/462/462 465/465/465
f 455/455/455 465/465/465 466/466/466
f 466/466/466 465/465/465 467/467/467
f 466/466/466 467/467/467 468/468/468
f 462/462/462 464/464/464 469/469/469
f 462/462/462 469/469/469 465/465/465
f 465/465/465 469/469/469 409/409/409
f 465/465/465 409/409/409 467/467/467
f 455/455/455 466/466/466 470/470/470
f 455/455/455 470/470/470 456/456/456
f 456/456/456 470/470/470 471/471/471
f 456/456/456 471/471/471 459/459/459
f 466/466/466 468/468/468 472/472/472
f 466/466/466 472/472/472 470/470/470
f 470/470/470 472/472/472 473/473/473
f 470/470/470 473/473/473 471/471/471
f 474/474/474 475/475/475 476/476/476
f 474/474/474 476/476/476 477/477/477
f 477/477/477 476/476/476 478/478/478
f 477/477/477 478/478/478 479/479/479
f 475/475/475 480/480/480 481/481/481
f 475/475/475 481/481/481 476/476/476
f 476/476/476 481/481/481 482/482/482
f 476/476/476 482/482/482 478/478/478
f 474/474/474 477/477/477 483/483/483
f 474/474/474 483/483/483 484/484/484
f 484/484/484 483/483/483 243/243/243
f 484/484/484 243/243/243 238/238/238
f 477/477/477 479/479/479 485/485/485
f 477/477/477 485/485/485 483/483/483
f 483/483/483 485/485/485 244/244/244
f 483/483/483 244/244/244 243/243/243
f 474/474/474 484/484/484 486/486/486
f 474/474/474 486/486/486 487/487/487
f 487/487/487 486/486/486 488/488/488
f 487/487/487 488/488/488 489/489/489
f 484/484/484 238/238/238 237/237/237
f 484/484/484 237/237/237 486/486/486
f 486/486/486 237/237/237 240/240/240
f 486/486/486 240/240/240 488/488/488
f 474/474/474 487/487/487 490/490/490
f 474/474/474 490/490/490 475/475/475
f 475/475/475 490/490/490 491/491/491
f 475/475/475 491/491/491 480/480/480
f 487/487/487 489/489/489 492/492/492
f 487/487/487 492/492/492 490/490/490
f 490/490/490 492/492/492 493/493/493
f 490/490/490 493/493/493 491/491/491
f 494/494/494 495/495/495 496/496/496
f 494/494/494 496/496/496 497/497/497
f 497/497/497 496/496/496 492/492/492
f 497/497/497 492/492/492 489/489/489
f 495/495/495 498/498/498 499/499/499
f 495/495/495 499/499/499 496/496/496
f 496/496/496 499/499/499 493/493/493
f 496/496/496 493/493/493 492/492/492
f 494/494/494 497/497/497 500/500/500
f 494/494/494 500/500/500 501/501/501
f 501/501/501 500/500/500 259/259/259
f 501/501/501 259/259/259 257/257/257
f 497/497/497 489/489/489 488/488/488
f 497/497/497 488/488/488 500/500/500
f 500/500/500 488/488/488 240/240/240
f 500/500/500 240/240/240 259/259/259
f 494/494/494 501/501/501 502/502/502
f 494/494/494 502/502/502 503/503/503
f 503/503/503 502/502/502 346/346/346
f 503/503/503 346/346/346 340/340/340
f 501/501/501 257/257/257 256/256/256
f 501/501/501 256/256/256 502/502/502
f 502/502/502 256/256/256 100/100/100
f 502/502/502 100/100/100 346/346/346
f 494/494/494 503/503/503 504/504/504
f 494/494/494 504/504/504 495/495/495
f 495/495/495 504/504/504 505/505/505
f 495/495/495 505/505/505 498/498/498
f 503/503/503 340/340/340 339/339/339
f 503/503/503 339/339/339 504/504/504
f 504/504/504 339/339/339 343/343/343
f 504/504/504 343/343/343 505/505/505
