# Generated by lxe_pbrt_scene_convert
v -2.08495498 0.462027997 1.56623995
v -2.08434796 0.465032995 1.56409895
v -2.33916998 0.446197003 1.54176795
v -2.33861995 0.443208009 1.54422605
v -3.29733992 0.31141299 1.45534897
v -3.281142 0.273496002 1.51084995
v -2.91501307 0.313529998 1.55792797
v -2.923702 0.353381008 1.513134
v -2.923702 0.353381008 1.513134
v -2.91501307 0.313529998 1.55792797
v -2.56388688 0.344309002 1.59070504
v -2.57241297 0.38497901 1.55235696
v -3.91739011 0.160595 1.37780595
v -3.95840311 0.185564995 1.28520894
v -4.19011307 0.124714002 1.19725299
v -4.11293221 0.109546997 1.31620204
v -3.281142 0.273496002 1.51084995
v -3.29733992 0.31141299 1.45534897
v -3.66166401 0.247868001 1.37320101
v -3.6377399 0.217167005 1.44665098
v -3.95840311 0.185564995 1.28520894
v -3.91739011 0.160595 1.37780595
v -3.6377399 0.217167005 1.44665098
v -3.66166401 0.247868001 1.37320101
v -4.11293221 0.109546997 1.31620204
v -4.19011307 0.124714002 1.19725299
v -4.35319519 0.0665299967 1.11410201
v -4.27876902 0.0526360013 1.24692595
v -2.32705808 0.361990005 1.60852802
v -2.33317208 0.40634501 1.57622695
v -2.57241297 0.38497901 1.55235696
v -2.56388688 0.344309002 1.59070504
v -2.09860706 0.374449998 1.62219405
v -2.09109092 0.423281997 1.59681702
v -3.30956101 0.341886997 1.40227103
v -3.29733992 0.31141299 1.45534897
v -2.923702 0.353381008 1.513134
v -2.93065906 0.388556987 1.46974099
v -3.31055188 0.344357014 1.39796805
v -2.9322629 0.39140901 1.46589601
v -2.93065906 0.388556987 1.46974099
v -2.923702 0.353381008 1.513134
v -2.57241297 0.38497901 1.55235696
v -2.57867599 0.421131015 1.51909196
v -2.9322629 0.39140901 1.46589601
v -2.58017802 0.424062014 1.51503801
v -3.988801 0.210426003 1.20007002
v -3.99115705 0.212027997 1.19527102
v -4.24652386 0.139093995 1.07729995
v -4.24352789 0.138016 1.084162
v -3.95840311 0.185564995 1.28520894
v -4.19011307 0.124714002 1.19725299
v -3.30956101 0.341886997 1.40227103
v -3.31055188 0.344357014 1.39796805
v -3.68194389 0.279651999 1.30111301
v -3.68175793 0.277267992 1.30518401
v -3.29733992 0.31141299 1.45534897
v -3.66166401 0.247868001 1.37320101
v -3.988801 0.210426003 1.20007002
v -3.95840311 0.185564995 1.28520894
v -3.66166401 0.247868001 1.37320101
v -3.68175793 0.277267992 1.30518401
v -3.99115705 0.212027997 1.19527102
v -3.68194389 0.279651999 1.30111301
v -4.24352789 0.138016 1.084162
v -4.24652386 0.139093995 1.07729995
v -4.41745377 0.0808300003 0.975308001
v -4.41637087 0.0797569975 0.980579972
v -4.19011307 0.124714002 1.19725299
v -4.35319519 0.0665299967 1.11410201
v -2.58017802 0.424062014 1.51503801
v -2.57867599 0.421131015 1.51909196
v -2.33317208 0.40634501 1.57622695
v -2.57241297 0.38497901 1.55235696
v -2.09109092 0.423281997 1.59681702
v -3.31055188 0.344357014 1.39796805
v -2.9322629 0.39140901 1.46589601
v -2.97358894 0.393620014 1.19306695
v -3.34973502 0.345678002 1.12335801
v -3.0140779 0.416711986 0.800903022
v -3.3821969 0.36759901 0.761385977
v -3.34973502 0.345678002 1.12335801
v -2.97358894 0.393620014 1.19306695
v -2.66918397 0.451878995 0.833880007
v -3.0140779 0.416711986 0.800903022
v -2.62680411 0.433503985 1.24401796
v -2.9322629 0.39140901 1.46589601
v -2.58017802 0.424062014 1.51503801
v -2.62680411 0.433503985 1.24401796
v -4.07536793 0.234733 0.640968978
v -4.36513901 0.158629999 0.56999898
v -4.31404877 0.149085999 0.849933982
v -4.03823805 0.216201007 0.943212986
v -4.24652386 0.139093995 1.07729995
v -3.99115705 0.212027997 1.19527102
v -4.03823805 0.216201007 0.943212986
v -4.31404877 0.149085999 0.849933982
v -3.3821969 0.36759901 0.761385977
v -3.77960896 0.303346992 0.699962974
v -3.73077989 0.285329014 1.03450203
v -4.07536793 0.234733 0.640968978
v -3.99115705 0.212027997 1.19527102
v -3.68194389 0.279651999 1.30111301
v -3.73077989 0.285329014 1.03450203
v -3.31055188 0.344357014 1.39796805
v -4.49271107 0.0840979964 0.78162998
v -4.36513901 0.158629999 0.56999898
v -4.55478716 0.0881789997 0.503786027
v -4.41745377 0.0808300003 0.975308001
v -4.24652386 0.139093995 1.07729995
v -4.49271107 0.0840979964 0.78162998
v -3.43025494 0.386597008 0
v -3.41474795 0.380831003 0.382658988
v -3.04014611 0.430070996 0.407126009
v -3.05583 0.437222004 0
v -3.3821969 0.36759901 0.761385977
v -3.0140779 0.416711986 0.800903022
v -3.05583 0.437222004 0
v -3.04014611 0.430070996 0.407126009
v -2.71064806 0.467703998 0.421696991
v -2.72778106 0.474546999 0
v -3.0140779 0.416711986 0.800903022
v -2.66918397 0.451878995 0.833880007
v -4.40594721 0.166382 0
v -4.39594603 0.164381996 0.259292006
v -4.10506201 0.244441003 0.31110701
v -4.12520981 0.248565003 0
v -4.36513901 0.158629999 0.56999898
v -4.07536793 0.234733 0.640968978
v -3.82883692 0.316201001 0
v -3.812361 0.311147004 0.347564012
v -3.41474795 0.380831003 0.382658988
v -3.43025494 0.386597008 0
v -3.77960896 0.303346992 0.699962974
v -3.3821969 0.36759901 0.761385977
v -4.12520981 0.248565003 0
v -4.10506201 0.244441003 0.31110701
v -4.07536793 0.234733 0.640968978
v -4.39594603 0.164381996 0.259292006
v -4.59336519 0.0901240036 0.203920007
v -4.55478716 0.0881789997 0.503786027
v -4.40594721 0.166382 0
v -4.61120987 0.086563997 0
v -2.58017802 0.424062014 1.51503801
v -2.33916998 0.446197003 1.54176795
v -2.38665199 0.452950001 1.26608896
v -2.08434796 0.465032995 1.56409895
v -2.17985201 0.481086999 1.27251995
v -2.25708103 0.503682971 0.859884977
v -2.43799496 0.478289008 0.853291988
v -2.17985201 0.481086999 1.27251995
v -2.66918397 0.451878995 0.833880007
v -2.71064806 0.467703998 0.421696991
v -2.48020101 0.495718002 0.428764999
v -2.49628997 0.502654016 0
v -2.72778106 0.474546999 0
v -2.310395 0.518576026 0.434199989
v -2.32805991 0.52738899 0
v -2.66918397 0.451878995 0.833880007
v -2.43799496 0.478289008 0.853291988
v -2.25708103 0.503682971 0.859884977
v -2.11777091 0.559285998 0.863519013
v -2.11916399 0.558730006 0.863481998
v -2.02450705 0.54182303 1.24432802
v -2.02293801 0.542410016 1.244017
v -2.25708103 0.503682971 0.859884977
v -2.17985201 0.481086999 1.27251995
v -2.08434796 0.465032995 1.56409895
v -1.88974297 0.533374012 1.41811705
v -2.02450705 0.54182303 1.24432802
v -2.17985201 0.481086999 1.27251995
v -1.88777697 0.534065008 1.41664195
v -2.02293801 0.542410016 1.244017
v -2.310395 0.518576026 0.434199989
v -2.17095208 0.567173004 0.438371986
v -2.196666 0.569819987 0
v -2.32805991 0.52738899 0
v -2.16954398 0.567664027 0.438414007
v -2.19528198 0.570248008 0
v -2.25708103 0.503682971 0.859884977
v -2.11916399 0.558730006 0.863481998
v -2.11777091 0.559285998 0.863519013
v -1.78596103 0.438962996 1.61761498
v -1.78748703 0.43888399 1.61751199
v -1.81735301 0.389449 1.63740695
v -1.81593895 0.389524013 1.637483
v -2.09109092 0.423281997 1.59681702
v -2.09860706 0.374449998 1.62219405
v -2.08495498 0.462027997 1.56623995
v -1.75588298 0.477696002 1.59075403
v -1.75374997 0.480841994 1.58879495
v -2.08434796 0.465032995 1.56409895
v -1.75422895 0.477773994 1.59087706
v -1.75208795 0.480921 1.58891904
v -1.78748703 0.43888399 1.61751199
v -1.78596103 0.438962996 1.61761498
v -2.09109092 0.423281997 1.59681702
v -1.88974297 0.533374012 1.41811705
v -1.72145104 0.539790988 1.492872
v -1.72112405 0.540386975 1.49190295
v -1.88777697 0.534065008 1.41664195
v -1.72060502 0.539824009 1.49324799
v -1.72028697 0.540418983 1.49228203
v -2.08434796 0.465032995 1.56409895
v -1.75374997 0.480841994 1.58879495
v -1.75208795 0.480921 1.58891904
v -4.35319519 0.0665299967 1.11410201
v -4.50121784 -0.00280999998 1.02317297
v -4.42071486 -0.00529799983 1.17331398
v -4.27876902 0.0526360013 1.24692595
v -4.50347185 -0.0038660001 1.02178895
v -4.42287588 -0.00618000003 1.17219305
v -4.41745377 0.0808300003 0.975308001
v -4.5934639 0.00295799994 0.825866997
v -4.5903511 0.00214800006 0.831929982
v -4.41637087 0.0797569975 0.980579972
v -4.5961442 0.00177199999 0.823590994
v -4.59299994 0.000966000021 0.829666972
v -4.50121784 -0.00280999998 1.02317297
v -4.35319519 0.0665299967 1.11410201
v -4.50347185 -0.0038660001 1.02178895
v -4.64282608 0.0037740001 0.686474979
v -4.64057398 0.00497899996 0.687862992
v -4.71604109 0.00685600005 0.423925996
v -4.7184968 0.00561100012 0.422710001
v -4.49271107 0.0840979964 0.78162998
v -4.55478716 0.0881789997 0.503786027
v -4.5961442 0.00177199999 0.823590994
v -4.5934639 0.00295799994 0.825866997
v -4.64057398 0.00497899996 0.687862992
v -4.64282608 0.0037740001 0.686474979
v -4.41745377 0.0808300003 0.975308001
v -4.49271107 0.0840979964 0.78162998
v -4.59336519 0.0901240036 0.203920007
v -4.76603889 0.00726900017 0.130085006
v -4.71604109 0.00685600005 0.423925996
v -4.55478716 0.0881789997 0.503786027
v -4.76866913 0.00600699987 0.128960997
v -4.7184968 0.00561100012 0.422710001
v -4.61120987 0.086563997 0
v -4.775599 0.006788 0
v -4.77810287 0.00557400007 0
v -2.08495498 0.462027997 -1.56623995
v -2.33861995 0.443208009 -1.54422605
v -2.33916998 0.446197003 -1.54176795
v -2.08434796 0.465032995 -1.56409895
v -3.29733992 0.31141299 -1.45534897
v -2.923702 0.353381008 -1.513134
v -2.91501307 0.313529998 -1.55792797
v -3.281142 0.273496002 -1.51084995
v -2.923702 0.353381008 -1.513134
v -2.57241297 0.38497901 -1.55235696
v -2.56388688 0.344309002 -1.59070504
v -2.91501307 0.313529998 -1.55792797
v -3.91739011 0.160595 -1.37780595
v -4.11293221 0.109546997 -1.31620204
v -4.19011307 0.124714002 -1.19725299
v -3.95840311 0.185564995 -1.28520894
v -3.281142 0.273496002 -1.51084995
v -3.6377399 0.217167005 -1.44665098
v -3.66166401 0.247868001 -1.37320101
v -3.29733992 0.31141299 -1.45534897
v -3.95840311 0.185564995 -1.28520894
v -3.66166401 0.247868001 -1.37320101
v -3.6377399 0.217167005 -1.44665098
v -3.91739011 0.160595 -1.37780595
v -4.11293221 0.109546997 -1.31620204
v -4.27876902 0.0526360013 -1.24692595
v -4.35319519 0.0665299967 -1.11410201
v -4.19011307 0.124714002 -1.19725299
v -2.32705808 0.361990005 -1.60852802
v -2.56388688 0.344309002 -1.59070504
v -2.57241297 0.38497901 -1.55235696
v -2.33317208 0.40634501 -1.57622695
v -2.09860706 0.374449998 -1.62219405
v -2.09109092 0.423281997 -1.59681702
v -3.30956101 0.341886997 -1.40227103
v -2.93065906 0.388556987 -1.46974099
v -2.923702 0.353381008 -1.513134
v -3.29733992 0.31141299 -1.45534897
v -3.31055188 0.344357014 -1.39796805
v -2.9322629 0.39140901 -1.46589601
v -2.93065906 0.388556987 -1.46974099
v -2.57867599 0.421131015 -1.51909196
v -2.57241297 0.38497901 -1.55235696
v -2.923702 0.353381008 -1.513134
v -2.9322629 0.39140901 -1.46589601
v -2.58017802 0.424062014 -1.51503801
v -3.988801 0.210426003 -1.20007002
v -4.24352789 0.138016 -1.084162
v -4.24652386 0.139093995 -1.07729995
v -3.99115705 0.212027997 -1.19527102
v -3.95840311 0.185564995 -1.28520894
v -4.19011307 0.124714002 -1.19725299
v -3.30956101 0.341886997 -1.40227103
v -3.68175793 0.277267992 -1.30518401
v -3.68194389 0.279651999 -1.30111301
v -3.31055188 0.344357014 -1.39796805
v -3.29733992 0.31141299 -1.45534897
v -3.66166401 0.247868001 -1.37320101
v -3.988801 0.210426003 -1.20007002
v -3.68175793 0.277267992 -1.30518401
v -3.66166401 0.247868001 -1.37320101
v -3.95840311 0.185564995 -1.28520894
v -3.99115705 0.212027997 -1.19527102
v -3.68194389 0.279651999 -1.30111301
v -4.24352789 0.138016 -1.084162
v -4.41637087 0.0797569975 -0.980579972
v -4.41745377 0.0808300003 -0.975308001
v -4.24652386 0.139093995 -1.07729995
v -4.19011307 0.124714002 -1.19725299
v -4.35319519 0.0665299967 -1.11410201
v -2.57867599 0.421131015 -1.51909196
v -2.58017802 0.424062014 -1.51503801
v -2.33317208 0.40634501 -1.57622695
v -2.57241297 0.38497901 -1.55235696
v -2.09109092 0.423281997 -1.59681702
v -3.31055188 0.344357014 -1.39796805
v -3.34973502 0.345678002 -1.12335801
v -2.97358894 0.393620014 -1.19306695
v -2.9322629 0.39140901 -1.46589601
v -3.0140779 0.416711986 -0.800903022
v -2.97358894 0.393620014 -1.19306695
v -3.34973502 0.345678002 -1.12335801
v -3.3821969 0.36759901 -0.761385977
v -2.66918397 0.451878995 -0.833880007
v -2.62680411 0.433503985 -1.24401796
v -3.0140779 0.416711986 -0.800903022
v -2.9322629 0.39140901 -1.46589601
v -2.62680411 0.433503985 -1.24401796
v -2.58017802 0.424062014 -1.51503801
v -4.07536793 0.234733 -0.640968978
v -4.03823805 0.216201007 -0.943212986
v -4.31404877 0.149085999 -0.849933982
v -4.36513901 0.158629999 -0.56999898
v -4.24652386 0.139093995 -1.07729995
v -4.31404877 0.149085999 -0.849933982
v -4.03823805 0.216201007 -0.943212986
v -3.99115705 0.212027997 -1.19527102
v -3.3821969 0.36759901 -0.761385977
v -3.73077989 0.285329014 -1.03450203
v -3.77960896 0.303346992 -0.699962974
v -4.07536793 0.234733 -0.640968978
v -3.99115705 0.212027997 -1.19527102
v -3.73077989 0.285329014 -1.03450203
v -3.68194389 0.279651999 -1.30111301
v -3.31055188 0.344357014 -1.39796805
v -4.49271107 0.0840979964 -0.78162998
v -4.55478716 0.0881789997 -0.503786027
v -4.36513901 0.158629999 -0.56999898
v -4.41745377 0.0808300003 -0.975308001
v -4.49271107 0.0840979964 -0.78162998
v -4.24652386 0.139093995 -1.07729995
v -3.04014611 0.430070996 -0.407126009
v -3.41474795 0.380831003 -0.382658988
v -3.0140779 0.416711986 -0.800903022
v -3.3821969 0.36759901 -0.761385977
v -2.71064806 0.467703998 -0.421696991
v -3.04014611 0.430070996 -0.407126009
v -2.66918397 0.451878995 -0.833880007
v -3.0140779 0.416711986 -0.800903022
v -4.10506201 0.244441003 -0.31110701
v -4.39594603 0.164381996 -0.259292006
v -4.07536793 0.234733 -0.640968978
v -4.36513901 0.158629999 -0.56999898
v -3.41474795 0.380831003 -0.382658988
v -3.812361 0.311147004 -0.347564012
v -3.3821969 0.36759901 -0.761385977
v -3.77960896 0.303346992 -0.699962974
v -4.10506201 0.244441003 -0.31110701
v -4.07536793 0.234733 -0.640968978
v -4.55478716 0.0881789997 -0.503786027
v -4.59336519 0.0901240036 -0.203920007
v -4.39594603 0.164381996 -0.259292006
v -2.58017802 0.424062014 -1.51503801
v -2.38665199 0.452950001 -1.26608896
v -2.33916998 0.446197003 -1.54176795
v -2.17985201 0.481086999 -1.27251995
v -2.08434796 0.465032995 -1.56409895
v -2.25708103 0.503682971 -0.859884977
v -2.17985201 0.481086999 -1.27251995
v -2.43799496 0.478289008 -0.853291988
v -2.66918397 0.451878995 -0.833880007
v -2.71064806 0.467703998 -0.421696991
v -2.48020101 0.495718002 -0.428764999
v -2.310395 0.518576026 -0.434199989
v -2.43799496 0.478289008 -0.853291988
v -2.66918397 0.451878995 -0.833880007
v -2.25708103 0.503682971 -0.859884977
v -2.11777091 0.559285998 -0.863519013
v -2.02293801 0.542410016 -1.244017
v -2.02450705 0.54182303 -1.24432802
v -2.11916399 0.558730006 -0.863481998
v -2.17985201 0.481086999 -1.27251995
v -2.25708103 0.503682971 -0.859884977
v -2.08434796 0.465032995 -1.56409895
v -2.17985201 0.481086999 -1.27251995
v -2.02450705 0.54182303 -1.24432802
v -1.88974297 0.533374012 -1.41811705
v -2.02293801 0.542410016 -1.244017
v -1.88777697 0.534065008 -1.41664195
v -2.310395 0.518576026 -0.434199989
v -2.17095208 0.567173004 -0.438371986
v -2.16954398 0.567664027 -0.438414007
v -2.25708103 0.503682971 -0.859884977
v -2.11916399 0.558730006 -0.863481998
v -2.11777091 0.559285998 -0.863519013
v -1.78596103 0.438962996 -1.61761498
v -1.81593895 0.389524013 -1.637483
v -1.81735301 0.389449 -1.63740695
v -1.78748703 0.43888399 -1.61751199
v -2.09860706 0.374449998 -1.62219405
v -2.09109092 0.423281997 -1.59681702
v -2.08495498 0.462027997 -1.56623995
v -2.08434796 0.465032995 -1.56409895
v -1.75374997 0.480841994 -1.58879495
v -1.75588298 0.477696002 -1.59075403
v -1.75208795 0.480921 -1.58891904
v -1.75422895 0.477773994 -1.59087706
v -1.78596103 0.438962996 -1.61761498
v -1.78748703 0.43888399 -1.61751199
v -2.09109092 0.423281997 -1.59681702
v -1.88974297 0.533374012 -1.41811705
v -1.88777697 0.534065008 -1.41664195
v -1.72112405 0.540386975 -1.49190295
v -1.72145104 0.539790988 -1.492872
v -1.72028697 0.540418983 -1.49228203
v -1.72060502 0.539824009 -1.49324799
v -2.08434796 0.465032995 -1.56409895
v -1.75374997 0.480841994 -1.58879495
v -1.75208795 0.480921 -1.58891904
v -4.35319519 0.0665299967 -1.11410201
v -4.27876902 0.0526360013 -1.24692595
v -4.42071486 -0.00529799983 -1.17331398
v -4.50121784 -0.00280999998 -1.02317297
v -4.42287588 -0.00618000003 -1.17219305
v -4.50347185 -0.0038660001 -1.02178895
v -4.41745377 0.0808300003 -0.975308001
v -4.41637087 0.0797569975 -0.980579972
v -4.5903511 0.00214800006 -0.831929982
v -4.5934639 0.00295799994 -0.825866997
v -4.59299994 0.000966000021 -0.829666972
v -4.5961442 0.00177199999 -0.823590994
v -4.35319519 0.0665299967 -1.11410201
v -4.50121784 -0.00280999998 -1.02317297
v -4.50347185 -0.0038660001 -1.02178895
v -4.64282608 0.0037740001 -0.686474979
v -4.7184968 0.00561100012 -0.422710001
v -4.71604109 0.00685600005 -0.423925996
v -4.64057398 0.00497899996 -0.687862992
v -4.55478716 0.0881789997 -0.503786027
v -4.49271107 0.0840979964 -0.78162998
v -4.5961442 0.00177199999 -0.823590994
v -4.64282608 0.0037740001 -0.686474979
v -4.64057398 0.00497899996 -0.687862992
v -4.5934639 0.00295799994 -0.825866997
v -4.49271107 0.0840979964 -0.78162998
v -4.41745377 0.0808300003 -0.975308001
v -4.59336519 0.0901240036 -0.203920007
v -4.55478716 0.0881789997 -0.503786027
v -4.71604109 0.00685600005 -0.423925996
v -4.76603889 0.00726900017 -0.130085006
v -4.7184968 0.00561100012 -0.422710001
v -4.76866913 0.00600699987 -0.128960997
vt 0.552600026 0.997500002
vt 0.551500022 0.997600019
vt 0.550899982 0.497900009
vt 0.551900029 0.497900009
vt 0.552299976 -0.00170000002
vt 0.55339998 -0.00170000002
vt 0.554199994 0.998000026
vt 0.553200006 0.998099983
vt 0.55309999 -0.00170000002
vt 0.554099977 -0.00170000002
vt 0.555499971 0.998399973
vt 0.554400027 0.998399973
vt 0.4472 0.00380000006
vt 0.448199987 0.0037
vt 0.448700011 1.00279999
vt 0.447699994 1.00279999
vt 0.44659999 0.00079999998
vt 0.447600007 0.00079999998
vt 0.4023 0.506399989
vt 0.401300013 0.506500006
vt 0.448399991 1.00129998
vt 0.447400004 1.00129998
vt 0.4014 0.506699979
vt 0.402399987 0.506699979
vt 0.55250001 0.998700023
vt 0.551500022 0.99879998
vt 0.551800013 0.745599985
vt 0.5528 0.745599985
vt 0.556200027 0.497700006
vt 0.555100024 0.497799993
vt 0.554400027 -0.00190000003
vt 0.555400014 -0.00190000003
vt 0.556900024 0.997300029
vt 0.555800021 0.997399986
vt 0.549300015 -0.00159999996
vt 0.550300002 -0.00159999996
vt 0.551100016 0.998199999
vt 0.550100029 0.998199999
vt 0.548300028 -0.00159999996
vt 0.549099982 0.998199999
vt 0.550000012 -0.00159999996
vt 0.550999999 -0.00159999996
vt 0.552299976 0.99849999
vt 0.551299989 0.99849999
vt 0.549000025 -0.00150000001
vt 0.550199986 0.99849999
vt 0.451200008 0.00350000011
vt 0.452199996 0.00350000011
vt 0.452600002 1.00259995
vt 0.451599985 1.00259995
vt 0.450199991 0.00359999994
vt 0.450599998 1.00269997
vt 0.450599998 0.00079999998
vt 0.451599985 0.00079999998
vt 0.406500012 0.506399989
vt 0.405400008 0.506399989
vt 0.449600011 0.00079999998
vt 0.404399991 0.506399989
vt 0.451400012 1.00119996
vt 0.450399995 1.00119996
vt 0.404500008 0.506600022
vt 0.405499995 0.506600022
vt 0.452300012 1.00119996
vt 0.406500012 0.506600022
vt 0.548500001 0.99879998
vt 0.547500014 0.99879998
vt 0.547900021 0.745599985
vt 0.548900008 0.745599985
vt 0.549499989 0.99879998
vt 0.549899995 0.745599985
vt 0.550199986 -0.00170000002
vt 0.551199973 -0.00179999997
vt 0.552999973 0.497799993
vt 0.552299976 -0.00179999997
vt 0.55369997 0.997500002
vt 0 0
vt 1 0
vt 1 1
vt 0 1
vt 0 0
vt 1 0
vt 1 1
vt 0 1
vt 0 0
vt 1 0
vt 0 1
vt 0 0
vt 1 0
vt 1 1
vt 0 0
vt 1 0
vt 1 1
vt 0 1
vt 0 0
vt 1 0
vt 1 1
vt 0 1
vt 0 0
vt 0.502699971 0.0013
vt 0.503000021 1.00349998
vt 1 0
vt 0 0
vt 0.495799989 -0.00680000009
vt 0.496899992 0.996800005
vt 1 0
vt 1.00310004 0.747399986
vt 0 1
vt 0.00139999995 0.747699976
vt 0.746800005 -0.0132999998
vt 1 0
vt 0.747399986 0.997399986
vt 1 0
vt 1.00059998 0.500199974
vt 0.00039999999 0.500100017
vt 0 0
vt 1 1
vt 0 1
vt 1 0
vt 1.00039995 0.500100017
vt 0.00039999999 0.500100017
vt 0 0
vt 1 1
vt 0 1
vt 1 0
vt 1.00170004 0.50029999
vt 0.000899999985 0.500100017
vt 0 0
vt 1 1
vt 0 1
vt 0.502499998 0.000500000024
vt 0.502900004 0.500999987
vt 0.000300000014 0.500100017
vt 0 0
vt 0.502699971 1.00129998
vt 0 1
vt 1 0
vt 1.00039995 0.500100017
vt 1 1
vt 0.999199986 0.499799997
vt 0.746599972 0.498800009
vt 0.747799993 -0.00100000005
vt 1 1
vt 0.747900009 0.99970001
vt 0 0
vt 0.5 0
vt 0.5 1
vt 1 0
vt 1 1
vt 0 0
vt 0.5 0
vt 0 1
vt 1 0
vt 1.00039995 0.500100017
vt 0.50059998 0.500100017
vt 0.5 0
vt 1 0
vt 0.00079999998 0.500100017
vt 0 0
vt 1 1
vt 0.5 1
vt 0 1
vt 1 0.5625
vt 1 0.593800008
vt -0 0.593699992
vt -0 0.5625
vt 1 0.625
vt 0 0.625
vt 1 0.375
vt 1 0.406199992
vt 0 0.406300008
vt -0 0.375
vt 1 0.4375
vt 0 0.4375
vt 0.499799997 0.625699997
vt 0.499799997 0.594500005
vt 1 0.593800008
vt 1 0.625
vt 0.499799997 0.563199997
vt 1 0.5625
vt 0 0.625
vt -0 0.593800008
vt -0 0.5625
vt 0.543900013 0.125100002
vt 0.54339999 0.0627999976
vt 0.54430002 0.0627999976
vt 0.544700027 0.125100002
vt 0.542999983 0.000600000028
vt 0.543799996 0.000600000028
vt 0.540499985 0.000500000024
vt 0.540899992 0.0627999976
vt 0.540099978 0.0627999976
vt 0.539699972 0.000500000024
vt 0.541299999 0.125100002
vt 0.540499985 0.125100002
vt 0.541800022 0.0627999976
vt 0.542200029 0.125100002
vt 0.541299999 0.000500000024
vt 0 0.406300008
vt 0.0625 0.406300008
vt 0.0625 0.4375
vt -0 0.4375
vt 0.125 0.406300008
vt 0.125 0.4375
vt -0 0.375
vt 0.0625 0.375
vt 0.125 0.375
vt 0.551699996 0.622099996
vt 0.551599979 0.560299993
vt 0.552600026 0.560299993
vt 0.552699983 0.621999979
vt 0.551500022 0.49849999
vt 0.55250001 0.49849999
vt 0.547699988 0.622099996
vt 0.547599971 0.560400009
vt 0.548600018 0.560299993
vt 0.548699975 0.622099996
vt 0.547599971 0.498600006
vt 0.548600018 0.498600006
vt 0.549600005 0.560299993
vt 0.549700022 0.622099996
vt 0.549499989 0.49849999
vt 1 0.5
vt 1.00080001 0.561800003
vt 0.000300000014 0.56190002
vt 0 0.5
vt 1.00150001 0.623700023
vt 0.000699999975 0.623899996
vt 0.5 0
vt 0.561699986 -0.00329999998
vt 0.561800003 0.99940002
vt 0.5 1
vt 0.623399973 -0.00659999996
vt 0.623700023 0.998700023
vt 0.622699976 0.499199986
vt 0.560699999 0.49939999
vt 0.56190002 -0.000199999995
vt 0.623899996 -0.000500000024
vt 0.498800009 0.499500006
vt 0.5 -0
vt 0.623899996 0.999800026
vt 0.561999977 0.999899983
vt 0.5 1
vt 0.552600026 0.997500002
vt 0.551900029 0.497900009
vt 0.550899982 0.497900009
vt 0.551500022 0.997600019
vt 0.552299976 -0.00170000002
vt 0.553200006 0.998099983
vt 0.554199994 0.998000026
vt 0.55339998 -0.00170000002
vt 0.55309999 -0.00170000002
vt 0.554400027 0.998399973
vt 0.555499971 0.998399973
vt 0.554099977 -0.00170000002
vt 0.4472 0.00380000006
vt 0.447699994 1.00279999
vt 0.448700011 1.00279999
vt 0.448199987 0.0037
vt 0.44659999 0.00079999998
vt 0.401300013 0.506500006
vt 0.4023 0.506399989
vt 0.447600007 0.00079999998
vt 0.448399991 1.00129998
vt 0.402399987 0.506699979
vt 0.4014 0.506699979
vt 0.447400004 1.00129998
vt 0.55250001 0.998700023
vt 0.5528 0.745599985
vt 0.551800013 0.745599985
vt 0.551500022 0.99879998
vt 0.556200027 0.497700006
vt 0.555400014 -0.00190000003
vt 0.554400027 -0.00190000003
vt 0.555100024 0.497799993
vt 0.556900024 0.997300029
vt 0.555800021 0.997399986
vt 0.549300015 -0.00159999996
vt 0.550100029 0.998199999
vt 0.551100016 0.998199999
vt 0.550300002 -0.00159999996
vt 0.548300028 -0.00159999996
vt 0.549099982 0.998199999
vt 0.550000012 -0.00159999996
vt 0.551299989 0.99849999
vt 0.552299976 0.99849999
vt 0.550999999 -0.00159999996
vt 0.549000025 -0.00150000001
vt 0.550199986 0.99849999
vt 0.451200008 0.00350000011
vt 0.451599985 1.00259995
vt 0.452600002 1.00259995
vt 0.452199996 0.00350000011
vt 0.450199991 0.00359999994
vt 0.450599998 1.00269997
vt 0.450599998 0.00079999998
vt 0.405400008 0.506399989
vt 0.406500012 0.506399989
vt 0.451599985 0.00079999998
vt 0.449600011 0.00079999998
vt 0.404399991 0.506399989
vt 0.451400012 1.00119996
vt 0.405499995 0.506600022
vt 0.404500008 0.506600022
vt 0.450399995 1.00119996
vt 0.452300012 1.00119996
vt 0.406500012 0.506600022
vt 0.548500001 0.99879998
vt 0.548900008 0.745599985
vt 0.547900021 0.745599985
vt 0.547500014 0.99879998
vt 0.549499989 0.99879998
vt 0.549899995 0.745599985
vt 0.551199973 -0.00179999997
vt 0.550199986 -0.00170000002
vt 0.552999973 0.497799993
vt 0.552299976 -0.00179999997
vt 0.55369997 0.997500002
vt 0 0
vt 0 1
vt 1 1
vt 1 0
vt 0 0
vt 0 1
vt 1 1
vt 1 0
vt 0 0
vt 0 1
vt 1 0
vt 0 0
vt 1 1
vt 1 0
vt 0 0
vt 0 1
vt 1 1
vt 1 0
vt 0 0
vt 0 1
vt 1 1
vt 1 0
vt 0 0
vt 0.503000021 1.00349998
vt 0.502699971 0.0013
vt 1 0
vt 0 0
vt 0.496899992 0.996800005
vt 0.495799989 -0.00680000009
vt 1 0
vt 1.00310004 0.747399986
vt 0.00139999995 0.747699976
vt 0 1
vt 0.746800005 -0.0132999998
vt 0.747399986 0.997399986
vt 1 0
vt 0.00039999999 0.500100017
vt 1.00059998 0.500199974
vt 0 1
vt 1 1
vt 0.00039999999 0.500100017
vt 1.00039995 0.500100017
vt 0 1
vt 1 1
vt 0.000899999985 0.500100017
vt 1.00170004 0.50029999
vt 0 1
vt 1 1
vt 0.000300000014 0.500100017
vt 0.502900004 0.500999987
vt 0 1
vt 0.502699971 1.00129998
vt 1.00039995 0.500100017
vt 1 1
vt 0.747799993 -0.00100000005
vt 0.746599972 0.498800009
vt 0.999199986 0.499799997
vt 0 0
vt 0.5 1
vt 0.5 0
vt 1 1
vt 1 0
vt 0 0
vt 0 1
vt 0.5 0
vt 1 0
vt 1.00039995 0.500100017
vt 0.50059998 0.500100017
vt 0.00079999998 0.500100017
vt 0.5 1
vt 1 1
vt 0 1
vt 1 0.5625
vt -0 0.5625
vt -0 0.593699992
vt 1 0.593800008
vt 0 0.625
vt 1 0.625
vt 1 0.375
vt -0 0.375
vt 0 0.406300008
vt 1 0.406199992
vt 0 0.4375
vt 1 0.4375
vt 0.499799997 0.625699997
vt 0.499799997 0.594500005
vt 0.499799997 0.563199997
vt 0 0.625
vt -0 0.593800008
vt -0 0.5625
vt 0.543900013 0.125100002
vt 0.544700027 0.125100002
vt 0.54430002 0.0627999976
vt 0.54339999 0.0627999976
vt 0.543799996 0.000600000028
vt 0.542999983 0.000600000028
vt 0.540499985 0.000500000024
vt 0.539699972 0.000500000024
vt 0.540099978 0.0627999976
vt 0.540899992 0.0627999976
vt 0.540499985 0.125100002
vt 0.541299999 0.125100002
vt 0.542200029 0.125100002
vt 0.541800022 0.0627999976
vt 0.541299999 0.000500000024
vt 0 0.406300008
vt -0 0.4375
vt 0.0625 0.4375
vt 0.0625 0.406300008
vt 0.125 0.4375
vt 0.125 0.406300008
vt -0 0.375
vt 0.0625 0.375
vt 0.125 0.375
vt 0.551699996 0.622099996
vt 0.552699983 0.621999979
vt 0.552600026 0.560299993
vt 0.551599979 0.560299993
vt 0.55250001 0.49849999
vt 0.551500022 0.49849999
vt 0.547699988 0.622099996
vt 0.548699975 0.622099996
vt 0.548600018 0.560299993
vt 0.547599971 0.560400009
vt 0.548600018 0.498600006
vt 0.547599971 0.498600006
vt 0.549700022 0.622099996
vt 0.549600005 0.560299993
vt 0.549499989 0.49849999
vt 1 0.5
vt 0 0.5
vt 0.000300000014 0.56190002
vt 1.00080001 0.561800003
vt 0.000699999975 0.623899996
vt 1.00150001 0.623700023
vt 0.5 0
vt 0.5 1
vt 0.561800003 0.99940002
vt 0.561699986 -0.00329999998
vt 0.623700023 0.998700023
vt 0.623399973 -0.00659999996
vt 0.622699976 0.499199986
vt 0.623899996 -0.000500000024
vt 0.56190002 -0.000199999995
vt 0.560699999 0.49939999
vt 0.5 -0
vt 0.498800009 0.499500006
vn -0.100100003 0.610099971 0.786000013
vn -0.144899994 0.836199999 0.528900027
vn -0.122699998 0.894699991 0.429500014
vn -0.125 0.648400009 0.750899971
vn -0.217199996 0.805599988 0.551100016
vn -0.2016 0.786499977 0.583800018
vn -0.151800007 0.725300014 0.671400011
vn -0.162499994 0.740700006 0.651799977
vn -0.162499994 0.740700006 0.651799977
vn -0.151800007 0.725300014 0.671400011
vn -0.1259 0.657400012 0.742900014
vn -0.135100007 0.67110002 0.728900015
vn -0.308899999 0.8671 0.390700012
vn -0.333499998 0.863799989 0.377700001
vn -0.414499998 0.842400014 0.344199985
vn -0.376599997 0.852400005 0.362699986
vn -0.2016 0.786499977 0.583800018
vn -0.217199996 0.805599988 0.551100016
vn -0.27700001 0.848999977 0.449999988
vn -0.259299994 0.841600001 0.473800004
vn -0.333499998 0.863799989 0.377700001
vn -0.308899999 0.8671 0.390700012
vn -0.259299994 0.841600001 0.473800004
vn -0.27700001 0.848999977 0.449999988
vn -0.376599997 0.852400005 0.362699986
vn -0.414499998 0.842400014 0.344199985
vn -0.501800001 0.800999999 0.326400012
vn -0.472600013 0.80430001 0.360199988
vn -0.105999999 0.571699977 0.813499987
vn -0.115199998 0.609899998 0.783999979
vn -0.135100007 0.67110002 0.728900015
vn -0.1259 0.657400012 0.742900014
vn -0.0870999992 0.488000005 0.868499994
vn -0.0930999964 0.555899978 0.825999975
vn -0.232500002 0.810500026 0.537500024
vn -0.217199996 0.805599988 0.551100016
vn -0.162499994 0.740700006 0.651799977
vn -0.173899993 0.767099977 0.617600024
vn -0.204699993 0.931200027 0.301400006
vn -0.158700004 0.9296 0.332700014
vn -0.173899993 0.767099977 0.617600024
vn -0.162499994 0.740700006 0.651799977
vn -0.135100007 0.67110002 0.728900015
vn -0.145699993 0.708100021 0.690900028
vn -0.158700004 0.9296 0.332700014
vn -0.131999999 0.9199 0.369100004
vn -0.357499987 0.845799983 0.395999998
vn -0.328900009 0.911499977 0.247099996
vn -0.389800012 0.893299997 0.223700002
vn -0.431699991 0.837199986 0.335700005
vn -0.333499998 0.863799989 0.377700001
vn -0.414499998 0.842400014 0.344199985
vn -0.232500002 0.810500026 0.537500024
vn -0.204699993 0.931200027 0.301400006
vn -0.261299998 0.924099982 0.278699994
vn -0.299299985 0.834299982 0.462900013
vn -0.217199996 0.805599988 0.551100016
vn -0.27700001 0.848999977 0.449999988
vn -0.357499987 0.845799983 0.395999998
vn -0.333499998 0.863799989 0.377700001
vn -0.27700001 0.848999977 0.449999988
vn -0.299299985 0.834299982 0.462900013
vn -0.328900009 0.911499977 0.247099996
vn -0.261299998 0.924099982 0.278699994
vn -0.431699991 0.837199986 0.335700005
vn -0.389800012 0.893299997 0.223700002
vn -0.506200016 0.82249999 0.25909999
vn -0.530499995 0.787299991 0.31400001
vn -0.414499998 0.842400014 0.344199985
vn -0.501800001 0.800999999 0.326400012
vn -0.131999999 0.9199 0.369100004
vn -0.145699993 0.708100021 0.690900028
vn -0.115199998 0.609899998 0.783999979
vn -0.135100007 0.67110002 0.728900015
vn -0.0930999964 0.555899978 0.825999975
vn -0.204699993 0.931200027 0.301400006
vn -0.158700004 0.9296 0.332700014
vn -0.123199999 0.99119997 0.0487000011
vn -0.154599994 0.986500025 0.0542000011
vn -0.125100002 0.990499973 0.0566000007
vn -0.154300004 0.986199975 0.0595000014
vn -0.154599994 0.986500025 0.0542000011
vn -0.123199999 0.99119997 0.0487000011
vn -0.112599999 0.991999984 0.0562000014
vn -0.125100002 0.990499973 0.0566000007
vn -0.104500003 0.993099988 0.0524000004
vn -0.158700004 0.9296 0.332700014
vn -0.131999999 0.9199 0.369100004
vn -0.104500003 0.993099988 0.0524000004
vn -0.252299994 0.965300024 0.0675000027
vn -0.32159999 0.944000006 0.0729999989
vn -0.335399985 0.934700012 0.117200002
vn -0.261500001 0.961300015 0.0863000005
vn -0.389800012 0.893299997 0.223700002
vn -0.328900009 0.911499977 0.247099996
vn -0.261500001 0.961300015 0.0863000005
vn -0.335399985 0.934700012 0.117200002
vn -0.154300004 0.986199975 0.0595000014
vn -0.205300003 0.976599991 0.0643000007
vn -0.205699995 0.976300001 0.0672999993
vn -0.252299994 0.965300024 0.0675000027
vn -0.328900009 0.911499977 0.247099996
vn -0.261299998 0.924099982 0.278699994
vn -0.205699995 0.976300001 0.0672999993
vn -0.204699993 0.931200027 0.301400006
vn -0.468600005 0.868799984 0.159600005
vn -0.32159999 0.944000006 0.0729999989
vn -0.437700003 0.89410001 0.0947000012
vn -0.506200016 0.82249999 0.25909999
vn -0.389800012 0.893299997 0.223700002
vn -0.468600005 0.868799984 0.159600005
vn -0.154100001 0.987999976 0
vn -0.153400004 0.987600029 0.0329000019
vn -0.123099998 0.99180001 0.0331000015
vn -0.123499997 0.992299974 0
vn -0.154300004 0.986199975 0.0595000014
vn -0.125100002 0.990499973 0.0566000007
vn -0.123499997 0.992299974 0
vn -0.123099998 0.99180001 0.0331000015
vn -0.116099998 0.992600024 0.0346000008
vn -0.117200002 0.993099988 0
vn -0.125100002 0.990499973 0.0566000007
vn -0.112599999 0.991999984 0.0562000014
vn -0.318599999 0.947899997 0
vn -0.318599999 0.947099984 0.0370999984
vn -0.249500006 0.967700005 0.0366999991
vn -0.25060001 0.968100011 0
vn -0.32159999 0.944000006 0.0729999989
vn -0.252299994 0.965300024 0.0675000027
vn -0.1998 0.979799986 0
vn -0.200800002 0.978999972 0.0346000008
vn -0.153400004 0.987600029 0.0329000019
vn -0.154100001 0.987999976 0
vn -0.205300003 0.976599991 0.0643000007
vn -0.154300004 0.986199975 0.0595000014
vn -0.25060001 0.968100011 0
vn -0.249500006 0.967700005 0.0366999991
vn -0.252299994 0.965300024 0.0675000027
vn -0.318599999 0.947099984 0.0370999984
vn -0.410299987 0.910899997 0.0441999994
vn -0.437700003 0.89410001 0.0947000012
vn -0.318599999 0.947899997 0
vn -0.401800007 0.915700018 0
vn -0.131999999 0.9199 0.369100004
vn -0.122699998 0.894699991 0.429500014
vn -0.109499998 0.991999984 0.0631999969
vn -0.144899994 0.836199999 0.528900027
vn -0.211999997 0.971000016 0.109999999
vn -0.245499998 0.966000021 0.0807999969
vn -0.1241 0.9903 0.0617000014
vn -0.211999997 0.971000016 0.109999999
vn -0.112599999 0.991999984 0.0562000014
vn -0.116099998 0.992600024 0.0346000008
vn -0.1294 0.99089998 0.0372000001
vn -0.130099997 0.99150002 0
vn -0.117200002 0.993099988 0
vn -0.235100001 0.971000016 0.0434999987
vn -0.228300005 0.97359997 0
vn -0.112599999 0.991999984 0.0562000014
vn -0.1241 0.9903 0.0617000014
vn -0.245499998 0.966000021 0.0807999969
vn -0.348800004 0.931999981 0.0980999991
vn -0.351500005 0.931400001 0.0948999971
vn -0.300500005 0.940100014 0.160999998
vn -0.281100005 0.942099988 0.182699993
vn -0.245499998 0.966000021 0.0807999969
vn -0.211999997 0.971000016 0.109999999
vn -0.144899994 0.836199999 0.528900027
vn -0.192100003 0.940299988 0.280699998
vn -0.300500005 0.940100014 0.160999998
vn -0.211999997 0.971000016 0.109999999
vn -0.200900003 0.93870002 0.279900014
vn -0.281100005 0.942099988 0.182699993
vn -0.235100001 0.971000016 0.0434999987
vn -0.333400011 0.941600025 0.0456999987
vn -0.316100001 0.948700011 0
vn -0.228300005 0.97359997 0
vn -0.333299994 0.941799998 0.0439000018
vn -0.312999994 0.949699998 0
vn -0.245499998 0.966000021 0.0807999969
vn -0.351500005 0.931400001 0.0948999971
vn -0.348800004 0.931999981 0.0980999991
vn -0.0839999989 0.550599992 0.830500007
vn -0.0825000033 0.522800028 0.848399997
vn -0.0777999982 0.431800008 0.898599982
vn -0.0772999972 0.411900014 0.907899976
vn -0.0930999964 0.555899978 0.825999975
vn -0.0870999992 0.488000005 0.868499994
vn -0.100100003 0.610099971 0.786000013
vn -0.0873000026 0.595200002 0.798799992
vn -0.109899998 0.75999999 0.640600026
vn -0.144899994 0.836199999 0.528900027
vn -0.0876000002 0.582799971 0.807799995
vn -0.120899998 0.773199975 0.622399986
vn -0.0825000033 0.522800028 0.848399997
vn -0.0839999989 0.550599992 0.830500007
vn -0.0930999964 0.555899978 0.825999975
vn -0.192100003 0.940299988 0.280699998
vn -0.167199999 0.896499991 0.410100013
vn -0.206400007 0.899699986 0.384600013
vn -0.200900003 0.93870002 0.279900014
vn -0.183200002 0.863399982 0.469999999
vn -0.234799996 0.860899985 0.451200008
vn -0.144899994 0.836199999 0.528900027
vn -0.109899998 0.75999999 0.640600026
vn -0.120899998 0.773199975 0.622399986
vn -0.501800001 0.800999999 0.326400012
vn -0.547999978 0.779600024 0.303299993
vn -0.528999984 0.783399999 0.326200008
vn -0.472600013 0.80430001 0.360199988
vn -0.554799974 0.781799972 0.284500003
vn -0.518000007 0.804499984 0.290499985
vn -0.506200016 0.82249999 0.25909999
vn -0.598200023 0.738799989 0.310499996
vn -0.592499971 0.737699986 0.323599994
vn -0.530499995 0.787299991 0.31400001
vn -0.564599991 0.789699972 0.239899993
vn -0.629400015 0.669799984 0.393900007
vn -0.547999978 0.779600024 0.303299993
vn -0.501800001 0.800999999 0.326400012
vn -0.554799974 0.781799972 0.284500003
vn -0.527499974 0.833100021 0.166199997
vn -0.532000005 0.82889998 0.173199996
vn -0.495099992 0.861400008 0.113600001
vn -0.486600012 0.867399991 0.103699997
vn -0.468600005 0.868799984 0.159600005
vn -0.437700003 0.89410001 0.0947000012
vn -0.564599991 0.789699972 0.239899993
vn -0.598200023 0.738799989 0.310499996
vn -0.532000005 0.82889998 0.173199996
vn -0.527499974 0.833100021 0.166199997
vn -0.506200016 0.82249999 0.25909999
vn -0.468600005 0.868799984 0.159600005
vn -0.410299987 0.910899997 0.0441999994
vn -0.45449999 0.889199972 0.0526000001
vn -0.495099992 0.861400008 0.113600001
vn -0.437700003 0.89410001 0.0947000012
vn -0.450500011 0.891499996 0.0471000001
vn -0.486600012 0.867399991 0.103699997
vn -0.401800007 0.915700018 0
vn -0.439399987 0.898299992 0
vn -0.439799994 0.898100019 0
vn -0.100100003 0.610099971 -0.786000013
vn -0.125 0.648400009 -0.750899971
vn -0.122699998 0.894699991 -0.429500014
vn -0.144899994 0.836199999 -0.528900027
vn -0.217199996 0.805599988 -0.551100016
vn -0.162499994 0.740700006 -0.651799977
vn -0.151800007 0.725300014 -0.671400011
vn -0.2016 0.786499977 -0.583800018
vn -0.162499994 0.740700006 -0.651799977
vn -0.135100007 0.67110002 -0.728900015
vn -0.1259 0.657400012 -0.742900014
vn -0.151800007 0.725300014 -0.671400011
vn -0.308899999 0.8671 -0.390700012
vn -0.376599997 0.852400005 -0.362699986
vn -0.414499998 0.842400014 -0.344199985
vn -0.333499998 0.863799989 -0.377700001
vn -0.2016 0.786499977 -0.583800018
vn -0.259299994 0.841600001 -0.473800004
vn -0.27700001 0.848999977 -0.449999988
vn -0.217199996 0.805599988 -0.551100016
vn -0.333499998 0.863799989 -0.377700001
vn -0.27700001 0.848999977 -0.449999988
vn -0.259299994 0.841600001 -0.473800004
vn -0.308899999 0.8671 -0.390700012
vn -0.376599997 0.852400005 -0.362699986
vn -0.472600013 0.80430001 -0.360199988
vn -0.501800001 0.800999999 -0.326400012
vn -0.414499998 0.842400014 -0.344199985
vn -0.105999999 0.571699977 -0.813499987
vn -0.1259 0.657400012 -0.742900014
vn -0.135100007 0.67110002 -0.728900015
vn -0.115199998 0.609899998 -0.783999979
vn -0.0870999992 0.488000005 -0.868499994
vn -0.0930999964 0.555899978 -0.825999975
vn -0.232500002 0.810500026 -0.537500024
vn -0.173899993 0.767099977 -0.617600024
vn -0.162499994 0.740700006 -0.651799977
vn -0.217199996 0.805599988 -0.551100016
vn -0.204699993 0.931200027 -0.301400006
vn -0.158700004 0.9296 -0.332700014
vn -0.173899993 0.767099977 -0.617600024
vn -0.145699993 0.708100021 -0.690900028
vn -0.135100007 0.67110002 -0.728900015
vn -0.162499994 0.740700006 -0.651799977
vn -0.158700004 0.9296 -0.332700014
vn -0.131999999 0.9199 -0.369100004
vn -0.357499987 0.845799983 -0.395999998
vn -0.431699991 0.837199986 -0.335700005
vn -0.389800012 0.893299997 -0.223700002
vn -0.328900009 0.911499977 -0.247099996
vn -0.333499998 0.863799989 -0.377700001
vn -0.414499998 0.842400014 -0.344199985
vn -0.232500002 0.810500026 -0.537500024
vn -0.299299985 0.834299982 -0.462900013
vn -0.261299998 0.924099982 -0.278699994
vn -0.204699993 0.931200027 -0.301400006
vn -0.217199996 0.805599988 -0.551100016
vn -0.27700001 0.848999977 -0.449999988
vn -0.357499987 0.845799983 -0.395999998
vn -0.299299985 0.834299982 -0.462900013
vn -0.27700001 0.848999977 -0.449999988
vn -0.333499998 0.863799989 -0.377700001
vn -0.328900009 0.911499977 -0.247099996
vn -0.261299998 0.924099982 -0.278699994
vn -0.431699991 0.837199986 -0.335700005
vn -0.530499995 0.787299991 -0.31400001
vn -0.506200016 0.82249999 -0.25909999
vn -0.389800012 0.893299997 -0.223700002
vn -0.414499998 0.842400014 -0.344199985
vn -0.501800001 0.800999999 -0.326400012
vn -0.145699993 0.708100021 -0.690900028
vn -0.131999999 0.9199 -0.369100004
vn -0.115199998 0.609899998 -0.783999979
vn -0.135100007 0.67110002 -0.728900015
vn -0.0930999964 0.555899978 -0.825999975
vn -0.204699993 0.931200027 -0.301400006
vn -0.154599994 0.986500025 -0.0542000011
vn -0.123199999 0.99119997 -0.0487000011
vn -0.158700004 0.9296 -0.332700014
vn -0.125100002 0.990499973 -0.0566000007
vn -0.123199999 0.99119997 -0.0487000011
vn -0.154599994 0.986500025 -0.0542000011
vn -0.154300004 0.986199975 -0.0595000014
vn -0.112599999 0.991999984 -0.0562000014
vn -0.104500003 0.993099988 -0.0524000004
vn -0.125100002 0.990499973 -0.0566000007
vn -0.158700004 0.9296 -0.332700014
vn -0.104500003 0.993099988 -0.0524000004
vn -0.131999999 0.9199 -0.369100004
vn -0.252299994 0.965300024 -0.0675000027
vn -0.261500001 0.961300015 -0.0863000005
vn -0.335399985 0.934700012 -0.117200002
vn -0.32159999 0.944000006 -0.0729999989
vn -0.389800012 0.893299997 -0.223700002
vn -0.335399985 0.934700012 -0.117200002
vn -0.261500001 0.961300015 -0.0863000005
vn -0.328900009 0.911499977 -0.247099996
vn -0.154300004 0.986199975 -0.0595000014
vn -0.205699995 0.976300001 -0.0672999993
vn -0.205300003 0.976599991 -0.0643000007
vn -0.252299994 0.965300024 -0.0675000027
vn -0.328900009 0.911499977 -0.247099996
vn -0.205699995 0.976300001 -0.0672999993
vn -0.261299998 0.924099982 -0.278699994
vn -0.204699993 0.931200027 -0.301400006
vn -0.468600005 0.868799984 -0.159600005
vn -0.437700003 0.89410001 -0.0947000012
vn -0.32159999 0.944000006 -0.0729999989
vn -0.506200016 0.82249999 -0.25909999
vn -0.468600005 0.868799984 -0.159600005
vn -0.389800012 0.893299997 -0.223700002
vn -0.123099998 0.99180001 -0.0331000015
vn -0.153400004 0.987600029 -0.0329000019
vn -0.125100002 0.990499973 -0.0566000007
vn -0.154300004 0.986199975 -0.0595000014
vn -0.116099998 0.992600024 -0.0346000008
vn -0.123099998 0.99180001 -0.0331000015
vn -0.112599999 0.991999984 -0.0562000014
vn -0.125100002 0.990499973 -0.0566000007
vn -0.249500006 0.967700005 -0.0366999991
vn -0.318599999 0.947099984 -0.0370999984
vn -0.252299994 0.965300024 -0.0675000027
vn -0.32159999 0.944000006 -0.0729999989
vn -0.153400004 0.987600029 -0.0329000019
vn -0.200800002 0.978999972 -0.0346000008
vn -0.154300004 0.986199975 -0.0595000014
vn -0.205300003 0.976599991 -0.0643000007
vn -0.249500006 0.967700005 -0.0366999991
vn -0.252299994 0.965300024 -0.0675000027
vn -0.437700003 0.89410001 -0.0947000012
vn -0.410299987 0.910899997 -0.0441999994
vn -0.318599999 0.947099984 -0.0370999984
vn -0.131999999 0.9199 -0.369100004
vn -0.109499998 0.991999984 -0.0631999969
vn -0.122699998 0.894699991 -0.429500014
vn -0.211999997 0.971000016 -0.109999999
vn -0.144899994 0.836199999 -0.528900027
vn -0.245499998 0.966000021 -0.0807999969
vn -0.211999997 0.971000016 -0.109999999
vn -0.1241 0.9903 -0.0617000014
vn -0.112599999 0.991999984 -0.0562000014
vn -0.116099998 0.992600024 -0.0346000008
vn -0.1294 0.99089998 -0.0372000001
vn -0.235100001 0.971000016 -0.0434999987
vn -0.1241 0.9903 -0.0617000014
vn -0.112599999 0.991999984 -0.0562000014
vn -0.245499998 0.966000021 -0.0807999969
vn -0.348800004 0.931999981 -0.0980999991
vn -0.281100005 0.942099988 -0.182699993
vn -0.300500005 0.940100014 -0.160999998
vn -0.351500005 0.931400001 -0.0948999971
vn -0.211999997 0.971000016 -0.109999999
vn -0.245499998 0.966000021 -0.0807999969
vn -0.144899994 0.836199999 -0.528900027
vn -0.211999997 0.971000016 -0.109999999
vn -0.300500005 0.940100014 -0.160999998
vn -0.192100003 0.940299988 -0.280699998
vn -0.281100005 0.942099988 -0.182699993
vn -0.200900003 0.93870002 -0.279900014
vn -0.235100001 0.971000016 -0.0434999987
vn -0.333400011 0.941600025 -0.0456999987
vn -0.333299994 0.941799998 -0.0439000018
vn -0.245499998 0.966000021 -0.0807999969
vn -0.351500005 0.931400001 -0.0948999971
vn -0.348800004 0.931999981 -0.0980999991
vn -0.0839999989 0.550599992 -0.830500007
vn -0.0772999972 0.411900014 -0.907899976
vn -0.0777999982 0.431800008 -0.898599982
vn -0.0825000033 0.522800028 -0.848399997
vn -0.0870999992 0.488000005 -0.868499994
vn -0.0930999964 0.555899978 -0.825999975
vn -0.100100003 0.610099971 -0.786000013
vn -0.144899994 0.836199999 -0.528900027
vn -0.109899998 0.75999999 -0.640600026
vn -0.0873000026 0.595200002 -0.798799992
vn -0.120899998 0.773199975 -0.622500002
vn -0.0876000002 0.582799971 -0.807799995
vn -0.0839999989 0.550599992 -0.830500007
vn -0.0825000033 0.522800028 -0.848399997
vn -0.0930999964 0.555899978 -0.825999975
vn -0.192100003 0.940299988 -0.280699998
vn -0.200900003 0.93870002 -0.279900014
vn -0.206400007 0.899699986 -0.384600013
vn -0.167199999 0.896499991 -0.410100013
vn -0.234799996 0.860899985 -0.451200008
vn -0.183200002 0.863399982 -0.469999999
vn -0.144899994 0.836199999 -0.528900027
vn -0.109899998 0.75999999 -0.640600026
vn -0.120899998 0.773199975 -0.622500002
vn -0.501800001 0.800999999 -0.326400012
vn -0.472600013 0.80430001 -0.360199988
vn -0.528999984 0.783399999 -0.326200008
vn -0.547999978 0.779500008 -0.303299993
vn -0.518000007 0.804499984 -0.290499985
vn -0.554899991 0.781700015 -0.284500003
vn -0.506200016 0.82249999 -0.25909999
vn -0.530499995 0.787299991 -0.31400001
vn -0.592499971 0.737699986 -0.323599994
vn -0.598200023 0.738799989 -0.310499996
vn -0.629400015 0.669799984 -0.393900007
vn -0.564700007 0.789699972 -0.239899993
vn -0.501800001 0.800999999 -0.326400012
vn -0.547999978 0.779500008 -0.303299993
vn -0.554899991 0.781700015 -0.284500003
vn -0.527499974 0.833100021 -0.166199997
vn -0.486699998 0.867399991 -0.103699997
vn -0.495099992 0.861400008 -0.113600001
vn -0.532000005 0.82889998 -0.173199996
vn -0.437700003 0.89410001 -0.0947000012
vn -0.468600005 0.868799984 -0.159600005
vn -0.564700007 0.789699972 -0.239899993
vn -0.527499974 0.833100021 -0.166199997
vn -0.532000005 0.82889998 -0.173199996
vn -0.598200023 0.738799989 -0.310499996
vn -0.468600005 0.868799984 -0.159600005
vn -0.506200016 0.82249999 -0.25909999
vn -0.410299987 0.910899997 -0.0441999994
vn -0.437700003 0.89410001 -0.0947000012
vn -0.495099992 0.861400008 -0.113600001
vn -0.45449999 0.889199972 -0.0526000001
vn -0.486699998 0.867399991 -0.103699997
vn -0.450500011 0.891499996 -0.0471000001
f 1/1/1 2/2/2 3/3/3
f 1/1/1 3/3/3 4/4/4
f 5/5/5 6/6/6 7/7/7
f 5/5/5 7/7/7 8/8/8
f 9/9/9 10/10/10 11/11/11
f 9/9/9 11/11/11 12/12/12
f 13/13/13 14/14/14 15/15/15
f 13/13/13 15/15/15 16/16/16
f 17/17/17 18/18/18 19/19/19
f 17/17/17 19/19/19 20/20/20
f 21/21/21 22/22/22 23/23/23
f 21/21/21 23/23/23 24/24/24
f 25/25/25 26/26/26 27/27/27
f 25/25/25 27/27/27 28/28/28
f 29/29/29 30/30/30 31/31/31
f 29/29/29 31/31/31 32/32/32
f 33/33/33 34/34/34 30/30/30
f 33/33/33 30/30/30 29/29/29
f 35/35/35 36/36/36 37/37/37
f 35/35/35 37/37/37 38/38/38
f 39/39/39 35/35/35 38/38/38
f 39/39/39 38/38/38 40/40/40
f 41/41/41 42/42/42 43/43/43
f 41/41/41 43/43/43 44/44/44
f 45/45/45 41/41/41 44/44/44
f 45/45/45 44/44/44 46/46/46
f 47/47/47 48/48/48 49/49/49
f 47/47/47 49/49/49 50/50/50
f 51/51/51 47/47/47 50/50/50
f 51/51/51 50/50/50 52/52/52
f 53/53/53 54/54/54 55/55/55
f 53/53/53 55/55/55 56/56/56
f 57/57/57 53/53/53 56/56/56
f 57/57/57 56/56/56 58/58/58
f 59/59/59 60/60/60 61/61/61
f 59/59/59 61/61/61 62/62/62
f 63/63/63 59/59/59 62/62/62
f 63/63/63 62/62/62 64/64/64
f 65/65/65 66/66/66 67/67/67
f 65/65/65 67/67/67 68/68/68
f 69/69/69 65/65/65 68/68/68
f 69/69/69 68/68/68 70/70/70
f 4/4/4 3/3/3 71/71/71
f 4/4/4 71/71/71 72/72/72
f 73/73/73 4/4/4 72/72/72
f 73/73/73 72/72/72 74/74/74
f 75/75/75 1/1/1 4/4/4
f 75/75/75 4/4/4 73/73/73
f 76/76/76 77/77/77 78/78/78
f 76/76/76 78/78/78 79/79/79
f 80/80/80 81/81/81 82/82/82
f 80/80/80 82/82/82 83/83/83
f 84/84/84 85/85/85 78/78/78
f 84/84/84 78/78/78 86/86/86
f 87/87/87 88/88/88 89/89/89
f 87/87/87 89/89/89 83/83/83
f 90/90/90 91/91/91 92/92/92
f 90/90/90 92/92/92 93/93/93
f 94/94/94 95/95/95 96/96/96
f 94/94/94 96/96/96 97/97/97
f 98/98/98 99/99/99 100/100/100
f 98/98/98 100/100/100 79/79/79
f 99/99/99 101/101/101 96/96/96
f 99/99/99 96/96/96 100/100/100
f 102/102/102 103/103/103 104/104/104
f 102/102/102 104/104/104 93/93/93
f 103/103/103 105/105/105 82/82/82
f 103/103/103 82/82/82 104/104/104
f 106/106/106 92/92/92 107/107/107
f 106/106/106 107/107/107 108/108/108
f 109/109/109 110/110/110 92/92/92
f 109/109/109 92/92/92 111/111/111
f 112/112/112 113/113/113 114/114/114
f 112/112/112 114/114/114 115/115/115
f 113/113/113 116/116/116 117/117/117
f 113/113/113 117/117/117 114/114/114
f 118/118/118 119/119/119 120/120/120
f 118/118/118 120/120/120 121/121/121
f 119/119/119 122/122/122 123/123/123
f 119/119/119 123/123/123 120/120/120
f 124/124/124 125/125/125 126/126/126
f 124/124/124 126/126/126 127/127/127
f 125/125/125 128/128/128 129/129/129
f 125/125/125 129/129/129 126/126/126
f 130/130/130 131/131/131 132/132/132
f 130/130/130 132/132/132 133/133/133
f 131/131/131 134/134/134 135/135/135
f 131/131/131 135/135/135 132/132/132
f 136/136/136 137/137/137 131/131/131
f 136/136/136 131/131/131 130/130/130
f 137/137/137 138/138/138 134/134/134
f 137/137/137 134/134/134 131/131/131
f 91/91/91 139/139/139 140/140/140
f 91/91/91 140/140/140 141/141/141
f 139/139/139 142/142/142 143/143/143
f 139/139/139 143/143/143 140/140/140
f 144/144/144 145/145/145 146/146/146
f 144/144/144 146/146/146 86/86/86
f 145/145/145 147/147/147 148/148/148
f 145/145/145 148/148/148 146/146/146
f 149/149/149 150/150/150 146/146/146
f 149/149/149 146/146/146 151/151/151
f 150/150/150 152/152/152 89/89/89
f 150/150/150 89/89/89 146/146/146
f 153/153/153 154/154/154 155/155/155
f 153/153/153 155/155/155 156/156/156
f 154/154/154 157/157/157 158/158/158
f 154/154/154 158/158/158 155/155/155
f 154/154/154 153/153/153 159/159/159
f 154/154/154 159/159/159 160/160/160
f 160/160/160 161/161/161 157/157/157
f 160/160/160 157/157/157 154/154/154
f 162/162/162 163/163/163 164/164/164
f 162/162/162 164/164/164 165/165/165
f 163/163/163 166/166/166 167/167/167
f 163/163/163 167/167/167 164/164/164
f 168/168/168 169/169/169 170/170/170
f 168/168/168 170/170/170 171/171/171
f 169/169/169 172/172/172 173/173/173
f 169/169/169 173/173/173 170/170/170
f 174/174/174 175/175/175 176/176/176
f 174/174/174 176/176/176 177/177/177
f 175/175/175 178/178/178 179/179/179
f 175/175/175 179/179/179 176/176/176
f 180/180/180 181/181/181 175/175/175
f 180/180/180 175/175/175 174/174/174
f 181/181/181 182/182/182 178/178/178
f 181/181/181 178/178/178 175/175/175
f 183/183/183 184/184/184 185/185/185
f 183/183/183 185/185/185 186/186/186
f 184/184/184 187/187/187 188/188/188
f 184/184/184 188/188/188 185/185/185
f 189/189/189 190/190/190 191/191/191
f 189/189/189 191/191/191 192/192/192
f 190/190/190 193/193/193 194/194/194
f 190/190/190 194/194/194 191/191/191
f 193/193/193 190/190/190 195/195/195
f 193/193/193 195/195/195 196/196/196
f 190/190/190 189/189/189 197/197/197
f 190/190/190 197/197/197 195/195/195
f 198/198/198 199/199/199 200/200/200
f 198/198/198 200/200/200 201/201/201
f 199/199/199 202/202/202 203/203/203
f 199/199/199 203/203/203 200/200/200
f 204/204/204 205/205/205 199/199/199
f 204/204/204 199/199/199 198/198/198
f 205/205/205 206/206/206 202/202/202
f 205/205/205 202/202/202 199/199/199
f 207/207/207 208/208/208 209/209/209
f 207/207/207 209/209/209 210/210/210
f 208/208/208 211/211/211 212/212/212
f 208/208/208 212/212/212 209/209/209
f 213/213/213 214/214/214 215/215/215
f 213/213/213 215/215/215 216/216/216
f 214/214/214 217/217/217 218/218/218
f 214/214/214 218/218/218 215/215/215
f 216/216/216 215/215/215 219/219/219
f 216/216/216 219/219/219 220/220/220
f 215/215/215 218/218/218 221/221/221
f 215/215/215 221/221/221 219/219/219
f 222/222/222 223/223/223 224/224/224
f 222/222/222 224/224/224 225/225/225
f 223/223/223 226/226/226 227/227/227
f 223/223/223 227/227/227 224/224/224
f 228/228/228 229/229/229 230/230/230
f 228/228/228 230/230/230 231/231/231
f 229/229/229 232/232/232 233/233/233
f 229/229/229 233/233/233 230/230/230
f 234/234/234 235/235/235 236/236/236
f 234/234/234 236/236/236 237/237/237
f 235/235/235 238/238/238 239/239/239
f 235/235/235 239/239/239 236/236/236
f 240/240/240 241/241/241 235/235/235
f 240/240/240 235/235/235 234/234/234
f 241/241/241 242/242/242 238/238/238
f 241/241/241 238/238/238 235/235/235
f 243/243/243 244/244/244 245/245/245
f 243/243/243 245/245/245 246/246/246
f 247/247/247 248/248/248 249/249/249
f 247/247/247 249/249/249 250/250/250
f 251/251/251 252/252/252 253/253/253
f 251/251/251 253/253/253 254/254/254
f 255/255/255 256/256/256 257/257/257
f 255/255/255 257/257/257 258/258/258
f 259/259/259 260/260/260 261/261/261
f 259/259/259 261/261/261 262/262/262
f 263/263/263 264/264/264 265/265/265
f 263/263/263 265/265/265 266/266/266
f 267/267/267 268/268/268 269/269/269
f 267/267/267 269/269/269 270/270/270
f 271/271/271 272/272/272 273/273/273
f 271/271/271 273/273/273 274/274/274
f 275/275/275 271/271/271 274/274/274
f 275/275/275 274/274/274 276/276/276
f 277/277/277 278/278/278 279/279/279
f 277/277/277 279/279/279 280/280/280
f 281/281/281 282/282/282 278/278/278
f 281/281/281 278/278/278 277/277/277
f 283/283/283 284/284/284 285/285/285
f 283/283/283 285/285/285 286/286/286
f 287/287/287 288/288/288 284/284/284
f 287/287/287 284/284/284 283/283/283
f 289/289/289 290/290/290 291/291/291
f 289/289/289 291/291/291 292/292/292
f 293/293/293 294/294/294 290/290/290
f 293/293/293 290/290/290 289/289/289
f 295/295/295 296/296/296 297/297/297
f 295/295/295 297/297/297 298/298/298
f 299/299/299 300/300/300 296/296/296
f 299/299/299 296/296/296 295/295/295
f 301/301/301 302/302/302 303/303/303
f 301/301/301 303/303/303 304/304/304
f 305/305/305 306/306/306 302/302/302
f 305/305/305 302/302/302 301/301/301
f 307/307/307 308/308/308 309/309/309
f 307/307/307 309/309/309 310/310/310
f 311/311/311 312/312/312 308/308/308
f 311/311/311 308/308/308 307/307/307
f 244/244/244 313/313/313 314/314/314
f 244/244/244 314/314/314 245/245/245
f 315/315/315 316/316/316 313/313/313
f 315/315/315 313/313/313 244/244/244
f 317/317/317 315/315/315 244/244/244
f 317/317/317 244/244/244 243/243/243
f 318/318/318 319/319/319 320/320/320
f 318/318/318 320/320/320 321/321/321
f 322/322/322 323/323/323 324/324/324
f 322/322/322 324/324/324 325/325/325
f 326/326/326 327/327/327 320/320/320
f 326/326/326 320/320/320 328/328/328
f 329/329/329 323/323/323 330/330/330
f 329/329/329 330/330/330 331/331/331
f 332/332/332 333/333/333 334/334/334
f 332/332/332 334/334/334 335/335/335
f 336/336/336 337/337/337 338/338/338
f 336/336/336 338/338/338 339/339/339
f 340/340/340 319/319/319 341/341/341
f 340/340/340 341/341/341 342/342/342
f 342/342/342 341/341/341 338/338/338
f 342/342/342 338/338/338 343/343/343
f 344/344/344 333/333/333 345/345/345
f 344/344/344 345/345/345 346/346/346
f 346/346/346 345/345/345 324/324/324
f 346/346/346 324/324/324 347/347/347
f 348/348/348 349/349/349 350/350/350
f 348/348/348 350/350/350 334/334/334
f 351/351/351 352/352/352 334/334/334
f 351/351/351 334/334/334 353/353/353
f 112/112/112 115/115/115 354/354/354
f 112/112/112 354/354/354 355/355/355
f 355/355/355 354/354/354 356/356/356
f 355/355/355 356/356/356 357/357/357
f 118/118/118 121/121/121 358/358/358
f 118/118/118 358/358/358 359/359/359
f 359/359/359 358/358/358 360/360/360
f 359/359/359 360/360/360 361/361/361
f 124/124/124 127/127/127 362/362/362
f 124/124/124 362/362/362 363/363/363
f 363/363/363 362/362/362 364/364/364
f 363/363/363 364/364/364 365/365/365
f 130/130/130 133/133/133 366/366/366
f 130/130/130 366/366/366 367/367/367
f 367/367/367 366/366/366 368/368/368
f 367/367/367 368/368/368 369/369/369
f 136/136/136 130/130/130 367/367/367
f 136/136/136 367/367/367 370/370/370
f 370/370/370 367/367/367 369/369/369
f 370/370/370 369/369/369 371/371/371
f 335/335/335 372/372/372 373/373/373
f 335/335/335 373/373/373 374/374/374
f 374/374/374 373/373/373 143/143/143
f 374/374/374 143/143/143 142/142/142
f 375/375/375 327/327/327 376/376/376
f 375/375/375 376/376/376 377/377/377
f 377/377/377 376/376/376 378/378/378
f 377/377/377 378/378/378 379/379/379
f 380/380/380 381/381/381 376/376/376
f 380/380/380 376/376/376 382/382/382
f 382/382/382 376/376/376 330/330/330
f 382/382/382 330/330/330 383/383/383
f 384/384/384 156/156/156 155/155/155
f 384/384/384 155/155/155 385/385/385
f 385/385/385 155/155/155 158/158/158
f 385/385/385 158/158/158 386/386/386
f 385/385/385 387/387/387 388/388/388
f 385/385/385 388/388/388 384/384/384
f 387/387/387 385/385/385 386/386/386
f 387/387/387 386/386/386 389/389/389
f 390/390/390 391/391/391 392/392/392
f 390/390/390 392/392/392 393/393/393
f 393/393/393 392/392/392 394/394/394
f 393/393/393 394/394/394 395/395/395
f 396/396/396 397/397/397 398/398/398
f 396/396/396 398/398/398 399/399/399
f 399/399/399 398/398/398 400/400/400
f 399/399/399 400/400/400 401/401/401
f 402/402/402 177/177/177 176/176/176
f 402/402/402 176/176/176 403/403/403
f 403/403/403 176/176/176 179/179/179
f 403/403/403 179/179/179 404/404/404
f 405/405/405 402/402/402 403/403/403
f 405/405/405 403/403/403 406/406/406
f 406/406/406 403/403/403 404/404/404
f 406/406/406 404/404/404 407/407/407
f 408/408/408 409/409/409 410/410/410
f 408/408/408 410/410/410 411/411/411
f 411/411/411 410/410/410 412/412/412
f 411/411/411 412/412/412 413/413/413
f 414/414/414 415/415/415 416/416/416
f 414/414/414 416/416/416 417/417/417
f 417/417/417 416/416/416 418/418/418
f 417/417/417 418/418/418 419/419/419
f 419/419/419 420/420/420 421/421/421
f 419/419/419 421/421/421 417/417/417
f 417/417/417 421/421/421 422/422/422
f 417/417/417 422/422/422 414/414/414
f 423/423/423 424/424/424 425/425/425
f 423/423/423 425/425/425 426/426/426
f 426/426/426 425/425/425 427/427/427
f 426/426/426 427/427/427 428/428/428
f 429/429/429 423/423/423 426/426/426
f 429/429/429 426/426/426 430/430/430
f 430/430/430 426/426/426 428/428/428
f 430/430/430 428/428/428 431/431/431
f 432/432/432 433/433/433 434/434/434
f 432/432/432 434/434/434 435/435/435
f 435/435/435 434/434/434 436/436/436
f 435/435/435 436/436/436 437/437/437
f 438/438/438 439/439/439 440/440/440
f 438/438/438 440/440/440 441/441/441
f 441/441/441 440/440/440 442/442/442
f 441/441/441 442/442/442 443/443/443
f 439/439/439 444/444/444 445/445/445
f 439/439/439 445/445/445 440/440/440
f 440/440/440 445/445/445 446/446/446
f 440/440/440 446/446/446 442/442/442
f 447/447/447 448/448/448 449/449/449
f 447/447/447 449/449/449 450/450/450
f 450/450/450 449/449/449 451/451/451
f 450/450/450 451/451/451 452/452/452
f 453/453/453 454/454/454 455/455/455
f 453/453/453 455/455/455 456/456/456
f 456/456/456 455/455/455 457/457/457
f 456/456/456 457/457/457 458/458/458
f 459/459/459 460/460/460 461/461/461
f 459/459/459 461/461/461 462/462/462
f 462/462/462 461/461/461 463/463/463
f 462/462/462 463/463/463 464/464/464
f 240/240/240 459/459/459 462/462/462
f 240/240/240 462/462/462 241/241/241
f 241/241/241 462/462/462 464/464/464
f 241/241/241 464/464/464 242/242/242
