# Generated by lxe_pbrt_scene_convert
v 4.74804115 0.31883201 -0.00035300001
v 4.74794388 0.303801 0.0478020012
v 4.74804115 0.31883201 0.0507280007
v 4.74784422 0.288239002 0.0394840017
v 4.74804115 0.31883201 -0.00035300001
v 4.74777079 0.276975006 0.027152
v 4.74784422 0.288239002 0.0394840017
v 4.7477231 0.269389004 0.0116320001
v 4.74777079 0.276975006 0.027152
v 4.74771309 0.267984003 -0.00035300001
v 4.7477231 0.269389004 0.0116320001
v 4.74806499 0.322625011 -0.00384499994
v 4.74839211 0.373474985 -0.00384499994
v 4.748384 0.372069001 -0.0158300009
v 4.74806499 0.322625011 -0.00384499994
v 4.748384 0.372069001 -0.0158300009
v 4.74833393 0.364482999 -0.0313489996
v 4.74833393 0.364482999 -0.0313489996
v 4.74826097 0.353219002 -0.0436809994
v 4.74816084 0.337657005 -0.051998999
v 4.74806499 0.322625011 -0.0549260005
v 4.74771309 0.267984003 -0.00035300001
v 4.75176907 0.267957002 -0.00035300001
v 4.75177908 0.269362986 0.0116320001
v 4.7477231 0.269389004 0.0116320001
v 4.7477231 0.269389004 0.0116320001
v 4.75177908 0.269362986 0.0116320001
v 4.75182676 0.276948988 0.027152
v 4.74777079 0.276975006 0.027152
v 4.74777079 0.276975006 0.027152
v 4.75182676 0.276948988 0.027152
v 4.7519002 0.288212001 0.0394840017
v 4.74784422 0.288239002 0.0394840017
v 4.74784422 0.288239002 0.0394840017
v 4.7519002 0.288212001 0.0394840017
v 4.75199986 0.303775012 0.0478020012
v 4.74794388 0.303801 0.0478020012
v 4.74794388 0.303801 0.0478020012
v 4.75199986 0.303775012 0.0478020012
v 4.75209618 0.318805993 0.0507280007
v 4.74804115 0.31883201 0.0507280007
v 4.74804115 0.31883201 -0.00035300001
v 4.75209618 0.318805993 -0.00035300001
v 4.75176907 0.267957002 -0.00035300001
v 4.74771309 0.267984003 -0.00035300001
v 4.74804115 0.31883201 0.0507280007
v 4.75209618 0.318805993 0.0507280007
v 4.75209618 0.318805993 -0.00035300001
v 4.74804115 0.31883201 -0.00035300001
v 4.74839211 0.373474985 -0.00384499994
v 4.75244808 0.373448014 -0.00384499994
v 4.75243902 0.372042 -0.0158300009
v 4.748384 0.372069001 -0.0158300009
v 4.748384 0.372069001 -0.0158300009
v 4.75243902 0.372042 -0.0158300009
v 4.75238991 0.364457011 -0.0313489996
v 4.74833393 0.364482999 -0.0313489996
v 4.74833393 0.364482999 -0.0313489996
v 4.75238991 0.364457011 -0.0313489996
v 4.75231695 0.353193015 -0.0436809994
v 4.74826097 0.353219002 -0.0436809994
v 4.74826097 0.353219002 -0.0436809994
v 4.75231695 0.353193015 -0.0436809994
v 4.75221682 0.337630004 -0.051998999
v 4.74816084 0.337657005 -0.051998999
v 4.74816084 0.337657005 -0.051998999
v 4.75221682 0.337630004 -0.051998999
v 4.75212097 0.322600007 -0.0549260005
v 4.74806499 0.322625011 -0.0549260005
v 4.74806499 0.322625011 -0.00384499994
v 4.75212097 0.322600007 -0.00384499994
v 4.75244808 0.373448014 -0.00384499994
v 4.74839211 0.373474985 -0.00384499994
v 4.74806499 0.322625011 -0.0549260005
v 4.75212097 0.322600007 -0.0549260005
v 4.75212097 0.322600007 -0.00384499994
v 4.74806499 0.322625011 -0.00384499994
v 4.75199986 0.303775012 0.0478020012
v 4.75209618 0.318805993 -0.00035300001
v 4.75209618 0.318805993 0.0507280007
v 4.7519002 0.288212001 0.0394840017
v 4.75182676 0.276948988 0.027152
v 4.75177908 0.269362986 0.0116320001
v 4.75176907 0.267957002 -0.00035300001
v 4.75244808 0.373448014 -0.00384499994
v 4.75212097 0.322600007 -0.00384499994
v 4.75243902 0.372042 -0.0158300009
v 4.75238991 0.364457011 -0.0313489996
v 4.75231695 0.353193015 -0.0436809994
v 4.75221682 0.337630004 -0.051998999
v 4.75212097 0.322600007 -0.0549260005
vn -1 0.00639999984 0
vn -1 0.00639999984 0
vn -1 0.00639999984 0
vn -1 0.00639999984 0
vn -1 0.00650000013 0
vn -1 0.00650000013 0
vn -1 0.00650000013 0
vn -1 0.00639999984 0
vn -1 0.00639999984 0
vn -1 0.00650000013 0
vn -1 0.00650000013 0
vn -1 0.00639999984 0
vn -1 0.00639999984 0
vn -1 0.00639999984 0
vn -1 0.00650000013 0
vn -1 0.00650000013 0
vn -1 0.00650000013 0
vn -1 0.00639999984 0
vn -1 0.00639999984 0
vn -1 0.00639999984 0
vn -1 0.00639999984 0
vn -0.00639999984 -0.993200004 0.116499998
vn -0.00639999984 -0.993200004 0.116499998
vn -0.00639999984 -0.993200004 0.116499998
vn -0.00639999984 -0.993200004 0.116499998
vn -0.00579999993 -0.898400009 0.439200014
vn -0.00579999993 -0.898400009 0.439200014
vn -0.00579999993 -0.898400009 0.439200014
vn -0.00579999993 -0.898400009 0.439200014
vn -0.00480000023 -0.738399982 0.674399972
vn -0.00480000023 -0.738399982 0.674399972
vn -0.00480000023 -0.738399982 0.674399972
vn -0.00480000023 -0.738399982 0.674399972
vn -0.00300000003 -0.471300006 0.881900012
vn -0.00300000003 -0.471300006 0.881900012
vn -0.00300000003 -0.471300006 0.881900012
vn -0.00300000003 -0.471300006 0.881900012
vn -0.00120000006 -0.191100001 0.981599987
vn -0.00120000006 -0.191100001 0.981599987
vn -0.00120000006 -0.191100001 0.981599987
vn -0.00120000006 -0.191100001 0.981599987
vn 0 -0 -1
vn 0 -0 -1
vn 0 -0 -1
vn 0 -0 -1
vn 0.00630000001 1 0
vn 0.00630000001 1 0
vn 0.00630000001 1 0
vn 0.00630000001 1 0
vn 0.00650000013 0.993200004 -0.116499998
vn 0.00650000013 0.993200004 -0.116499998
vn 0.00650000013 0.993200004 -0.116499998
vn 0.00650000013 0.993200004 -0.116499998
vn 0.00590000022 0.898400009 -0.439200014
vn 0.00590000022 0.898400009 -0.439200014
vn 0.00590000022 0.898400009 -0.439200014
vn 0.00590000022 0.898400009 -0.439200014
vn 0.00480000023 0.738300025 -0.674399972
vn 0.00480000023 0.738300025 -0.674399972
vn 0.00480000023 0.738300025 -0.674399972
vn 0.00480000023 0.738300025 -0.674399972
vn 0.00300000003 0.471300006 -0.881900012
vn 0.00300000003 0.471300006 -0.881900012
vn 0.00300000003 0.471300006 -0.881900012
vn 0.00300000003 0.471300006 -0.881900012
vn 0.00120000006 0.191100001 -0.981599987
vn 0.00120000006 0.191100001 -0.981599987
vn 0.00120000006 0.191100001 -0.981599987
vn 0.00120000006 0.191100001 -0.981599987
vn 0 0 1
vn 0 0 1
vn 0 0 1
vn 0 0 1
vn -0.00630000001 -1 0
vn -0.00630000001 -1 0
vn -0.00630000001 -1 0
vn -0.00630000001 -1 0
vn 1 -0.00639999984 -0
vn 1 -0.00639999984 -0
vn 1 -0.00639999984 -0
vn 1 -0.00639999984 -0
vn 1 -0.00639999984 -0
vn 1 -0.00639999984 -0
vn 1 -0.00639999984 -0
vn 1 -0.00639999984 -0
vn 1 -0.00639999984 -0
vn 1 -0.00639999984 -0
vn 1 -0.00639999984 -0
vn 1 -0.00639999984 -0
vn 1 -0.00639999984 -0
vn 1 -0.00639999984 -0
f 1//1 2//2 3//3
f 1//1 4//4 2//2
f 5//5 6//6 7//7
f 1//1 8//8 9//9
f 5//5 10//10 11//11
f 12//12 13//13 14//14
f 15//15 16//16 17//17
f 12//12 18//18 19//19
f 12//12 19//19 20//20
f 12//12 20//20 21//21
f 22//22 23//23 24//24
f 22//22 24//24 25//25
f 26//26 27//27 28//28
f 26//26 28//28 29//29
f 30//30 31//31 32//32
f 30//30 32//32 33//33
f 34//34 35//35 36//36
f 34//34 36//36 37//37
f 38//38 39//39 40//40
f 38//38 40//40 41//41
f 42//42 43//43 44//44
f 42//42 44//44 45//45
f 46//46 47//47 48//48
f 46//46 48//48 49//49
f 50//50 51//51 52//52
f 50//50 52//52 53//53
f 54//54 55//55 56//56
f 54//54 56//56 57//57
f 58//58 59//59 60//60
f 58//58 60//60 61//61
f 62//62 63//63 64//64
f 62//62 64//64 65//65
f 66//66 67//67 68//68
f 66//66 68//68 69//69
f 70//70 71//71 72//72
f 70//70 72//72 73//73
f 74//74 75//75 76//76
f 74//74 76//76 77//77
f 78//78 79//79 80//80
f 81//81 79//79 78//78
f 82//82 79//79 81//81
f 83//83 79//79 82//82
f 84//84 79//79 83//83
f 85//85 86//86 87//87
f 87//87 86//86 88//88
f 88//88 86//86 89//89
f 89//89 86//86 90//90
f 90//90 86//86 91//91
