# Generated by lxe_pbrt_scene_convert
v 2.1577251 0.366981 -1.79292905
v 2.09668112 0.365453988 -1.79226995
v 2.094033 0.394032001 -1.77810299
v 2.15816903 0.395098001 -1.77908301
v 2.25155711 0.396726996 -1.77864695
v 2.2468009 0.369172007 -1.79234302
v 2.24280691 0.344857991 -1.80298996
v 2.15868998 0.342449993 -1.80341899
v 2.1015811 0.340736985 -1.80279303
v 2.15974307 0.323109001 -1.81052697
v 2.16056705 0.310550004 -1.81373096
v 2.12129807 0.312974006 -1.811378
v 2.10586691 0.321741998 -1.80922699
v 2.23981595 0.325188994 -1.81084096
v 2.23794889 0.312177986 -1.81482005
v 2.4878149 0.374558002 -1.78901601
v 2.44145393 0.373723 -1.78983104
v 2.45476294 0.400485992 -1.77534997
v 2.50294209 0.401136994 -1.774773
v 2.52186799 0.401225001 -1.77389002
v 2.50614405 0.374729991 -1.78772497
v 2.49141788 0.351386994 -1.79857504
v 2.47405505 0.350921988 -1.80034196
v 2.42968297 0.349761009 -1.80144298
v 2.4619329 0.331815004 -1.80885994
v 2.42015004 0.330213994 -1.80991602
v 2.47751999 0.332704008 -1.80707097
v 2.46655297 0.323262006 -1.81065595
v 2.45345497 0.319184005 -1.81333601
v 2.41383791 0.317211002 -1.81423295
v 2.33636498 0.327780992 -1.810606
v 2.34287 0.347517014 -1.80232799
v 2.42968297 0.349761009 -1.80144298
v 2.42015004 0.330213994 -1.80991602
v 2.41383791 0.317211002 -1.81423295
v 2.33218789 0.314637005 -1.81485796
v 2.23981595 0.325188994 -1.81084096
v 2.24280691 0.344857991 -1.80298996
v 2.17101002 0.473044008 -1.73080003
v 2.26680112 0.473639011 -1.72939801
v 2.26209092 0.453155994 -1.74425995
v 2.16602492 0.452704996 -1.74470901
v 2.10197997 0.452356994 -1.74374199
v 2.10834789 0.47242099 -1.73069799
v 2.12794399 0.481732994 -1.72337306
v 2.17486095 0.485608995 -1.72074103
v 2.27012801 0.486543 -1.71833897
v 2.16134 0.425197989 -1.76190698
v 2.09650397 0.424612999 -1.76073599
v 2.25683188 0.426120013 -1.76164806
v 2.25155711 0.396726996 -1.77864695
v 2.15816903 0.395098001 -1.77908301
v 2.094033 0.394032001 -1.77810299
v 2.54204512 0.470243007 -1.72570503
v 2.53327203 0.453667015 -1.74015903
v 2.48198891 0.45380801 -1.74090099
v 2.49207711 0.472829998 -1.72555101
v 2.498523 0.484717011 -1.71393502
v 2.5466249 0.479667008 -1.71508801
v 2.5568831 0.474377006 -1.71797597
v 2.55888295 0.467682987 -1.72564304
v 2.55253291 0.45342499 -1.73911095
v 2.51916599 0.429069012 -1.75750101
v 2.46891308 0.428436995 -1.75827098
v 2.53876305 0.429363996 -1.75644004
v 2.52186799 0.401225001 -1.77389002
v 2.50294209 0.401136994 -1.774773
v 2.45476294 0.400485992 -1.77534997
v 2.38707709 0.473764986 -1.72721505
v 2.39218593 0.486627012 -1.71554399
v 2.498523 0.484717011 -1.71393502
v 2.49207711 0.472829998 -1.72555101
v 2.48198891 0.45380801 -1.74090099
v 2.37950397 0.453579992 -1.74263
v 2.26209092 0.453155994 -1.74425995
v 2.26680112 0.473639011 -1.72939801
v 2.27012801 0.486543 -1.71833897
v 2.35124707 0.371672988 -1.79112506
v 2.2468009 0.369172007 -1.79234302
v 2.36069489 0.398768991 -1.777022
v 2.44145393 0.373723 -1.78983104
v 2.37041211 0.427327007 -1.76004505
v 2.25683188 0.426120013 -1.76164806
v 2.46891308 0.428436995 -1.75827098
v 2.45476294 0.400485992 -1.77534997
v 2.36069489 0.398768991 -1.777022
v 2.3938899 0.490915 -1.70936
v 2.5006721 0.488678992 -1.70776904
v 2.39218593 0.486627012 -1.71554399
v 2.27012801 0.486543 -1.71833897
v 2.2712369 0.490844995 -1.712358
v 2.27012801 0.486543 -1.71317804
v 2.39218593 0.486627012 -1.71038306
v 2.498523 0.484717011 -1.70877397
v 2.545295 0.429462999 -1.753793
v 2.52817607 0.401255012 -1.77130306
v 2.52186799 0.401225001 -1.77389002
v 2.53876305 0.429363996 -1.75644004
v 2.558954 0.453343987 -1.73646903
v 2.55253291 0.45342499 -1.73395097
v 2.53876305 0.429363996 -1.751279
v 2.52186799 0.401225001 -1.76873004
v 2.54815102 0.482807994 -1.70925605
v 2.56115198 0.474969 -1.71428704
v 2.5568831 0.474377006 -1.71797597
v 2.5466249 0.479667008 -1.71508801
v 2.5006721 0.488678992 -1.70776904
v 2.498523 0.484717011 -1.70877397
v 2.5466249 0.479667008 -1.70992804
v 2.5568831 0.474377006 -1.71415305
v 2.56449604 0.466829985 -1.72332895
v 2.558954 0.453343987 -1.73646903
v 2.55253291 0.45342499 -1.73911095
v 2.55888295 0.467682987 -1.72564304
v 2.5568831 0.474377006 -1.71797597
v 2.56115198 0.474969 -1.71428704
v 2.5568831 0.474377006 -1.71415305
v 2.55888295 0.467682987 -1.72048295
v 2.55253291 0.45342499 -1.73395097
v 2.074893 0.424418002 -1.75805199
v 2.08063197 0.452241004 -1.74112701
v 2.09650397 0.424612999 -1.76073599
v 2.094033 0.394032001 -1.77810299
v 2.07265496 0.393676013 -1.77548301
v 2.094033 0.394032001 -1.77294302
v 2.09650397 0.424612999 -1.75557494
v 2.10197997 0.452356994 -1.73858202
v 2.08746099 0.472214013 -1.72837102
v 2.11331797 0.484632999 -1.71971703
v 2.12794399 0.481732994 -1.72337306
v 2.10834789 0.47242099 -1.73069799
v 2.08063197 0.452241004 -1.74112701
v 2.10197997 0.452356994 -1.73858202
v 2.10834789 0.47242099 -1.72553802
v 2.12794399 0.481732994 -1.71955097
v 2.17614508 0.489796996 -1.71509504
v 2.2712369 0.490844995 -1.712358
v 2.27012801 0.486543 -1.71833897
v 2.17486095 0.485608995 -1.72074103
v 2.12794399 0.481732994 -1.72337306
v 2.11331797 0.484632999 -1.71971703
v 2.12794399 0.481732994 -1.71955097
v 2.17486095 0.485608995 -1.71558106
v 2.27012801 0.486543 -1.71317804
v 2.330796 0.310254991 -1.81398106
v 2.2373271 0.307841003 -1.81385303
v 2.23794889 0.312177986 -1.81482005
v 2.33218789 0.314637005 -1.81485796
v 2.4117341 0.312875986 -1.81337798
v 2.41383791 0.317211002 -1.80907202
v 2.33218789 0.314637005 -1.80969703
v 2.23794889 0.312177986 -1.80965996
v 2.48271608 0.333000004 -1.80418098
v 2.46758795 0.320398003 -1.80996299
v 2.46655297 0.323262006 -1.81065595
v 2.47751999 0.332704008 -1.80707097
v 2.49720597 0.351541996 -1.79569197
v 2.49141788 0.351386994 -1.793414
v 2.47751999 0.332704008 -1.801911
v 2.46655297 0.323262006 -1.80683398
v 2.450629 0.314972997 -1.81253397
v 2.4117341 0.312875986 -1.81337798
v 2.41383791 0.317211002 -1.81423295
v 2.45345497 0.319184005 -1.81333601
v 2.46655297 0.323262006 -1.81065595
v 2.46758795 0.320398003 -1.80996299
v 2.46655297 0.323262006 -1.80683398
v 2.45345497 0.319184005 -1.80817497
v 2.41383791 0.317211002 -1.80907202
v 2.51225305 0.374787986 -1.78500104
v 2.49720597 0.351541996 -1.79569197
v 2.49141788 0.351386994 -1.79857504
v 2.50614405 0.374729991 -1.78772497
v 2.52817607 0.401255012 -1.77130306
v 2.52186799 0.401225001 -1.76873004
v 2.50614405 0.374729991 -1.782565
v 2.49141788 0.351386994 -1.793414
v 2.16084099 0.306362987 -1.81250501
v 2.10860991 0.309588999 -1.81002498
v 2.16056705 0.310550004 -1.81373096
v 2.23794889 0.312177986 -1.81482005
v 2.2373271 0.307841003 -1.81385303
v 2.23794889 0.312177986 -1.80965996
v 2.16056705 0.310550004 -1.80857003
v 2.12129807 0.312974006 -1.80755496
v 2.08790803 0.321285993 -1.80649996
v 2.08254504 0.340166986 -1.80029094
v 2.1015811 0.340736985 -1.80279303
v 2.12129807 0.312974006 -1.811378
v 2.10860991 0.309588999 -1.81002498
v 2.12129807 0.312974006 -1.80755496
v 2.10586691 0.321741998 -1.80406594
v 2.1015811 0.340736985 -1.79763198
v 2.07633305 0.364944994 -1.78975701
v 2.07265496 0.393676013 -1.77548301
v 2.09668112 0.365453988 -1.79226995
v 2.1015811 0.340736985 -1.80279303
v 2.08254504 0.340166986 -1.80029094
v 2.1015811 0.340736985 -1.79763198
v 2.09668112 0.365453988 -1.78710997
v 2.094033 0.394032001 -1.77294302
v 2.37041211 0.427327007 -1.75316405
v 2.25683188 0.426120013 -1.75476694
v 2.25155711 0.396726996 -1.77176702
v 2.36069489 0.398768991 -1.77014101
v 2.45476294 0.400485992 -1.76846898
v 2.46891308 0.428436995 -1.75138998
v 2.48198891 0.45380801 -1.73402095
v 2.37950397 0.453579992 -1.73574901
v 2.26209092 0.453155994 -1.73738003
v 2.35124707 0.371672988 -1.78424501
v 2.2468009 0.369172007 -1.78546202
v 2.24280691 0.344857991 -1.79610896
v 2.34286904 0.347517014 -1.79544795
v 2.42968297 0.349761009 -1.79456198
v 2.44145393 0.373723 -1.78295004
v 2.45476294 0.400485992 -1.76846898
v 2.36069489 0.398768991 -1.77014101
v 2.25155711 0.396726996 -1.77176702
v 2.38707709 0.473764986 -1.72033405
v 2.39218593 0.486627012 -1.71038306
v 2.27012801 0.486543 -1.71317804
v 2.26680112 0.473639011 -1.72251701
v 2.26209092 0.453155994 -1.73738003
v 2.37950397 0.453579992 -1.73574901
v 2.48198891 0.45380801 -1.73402095
v 2.49207711 0.472829998 -1.71867001
v 2.51916599 0.429069012 -1.75062001
v 2.46891308 0.428436995 -1.75138998
v 2.45476294 0.400485992 -1.76846898
v 2.50294209 0.401136994 -1.767892
v 2.52186799 0.401225001 -1.76873004
v 2.53876305 0.429363996 -1.751279
v 2.53327203 0.453667015 -1.73327804
v 2.48198891 0.45380801 -1.73402095
v 2.54204512 0.470243007 -1.71882498
v 2.53327203 0.453667015 -1.73327804
v 2.55253291 0.45342499 -1.73395097
v 2.55888295 0.467682987 -1.72048295
v 2.5568831 0.474377006 -1.71415305
v 2.5466249 0.479667008 -1.70992804
v 2.49207711 0.472829998 -1.71867001
v 2.48198891 0.45380801 -1.73402095
v 2.16134 0.425197989 -1.75502598
v 2.09650397 0.424612999 -1.75557494
v 2.094033 0.394032001 -1.77294302
v 2.15816903 0.395098001 -1.77220201
v 2.25155711 0.396726996 -1.77176702
v 2.25683188 0.426120013 -1.75476694
v 2.16602492 0.452704996 -1.73782802
v 2.17101002 0.473044008 -1.72391903
v 2.26680112 0.473639011 -1.72251701
v 2.27012801 0.486543 -1.71317804
v 2.17486095 0.485608995 -1.71558106
v 2.12794399 0.481732994 -1.71955097
v 2.10834789 0.47242099 -1.72553802
v 2.16602492 0.452704996 -1.73782802
v 2.26209092 0.453155994 -1.73738003
v 2.33636403 0.327780992 -1.80372596
v 2.34286904 0.347517014 -1.79544795
v 2.24280691 0.344857991 -1.79610896
v 2.23981595 0.325188994 -1.80395997
v 2.23794889 0.312177986 -1.80965996
v 2.33218789 0.314637005 -1.80969703
v 2.42015004 0.330213994 -1.80303502
v 2.42968297 0.349761009 -1.79456198
v 2.4619329 0.331815004 -1.80197895
v 2.42015004 0.330213994 -1.80303502
v 2.41383791 0.317211002 -1.80907202
v 2.45345497 0.319184005 -1.80817497
v 2.46655297 0.323262006 -1.80683398
v 2.47751999 0.332704008 -1.801911
v 2.47405505 0.350921988 -1.79346097
v 2.42968297 0.349761009 -1.79456198
v 2.4878149 0.374558002 -1.78213596
v 2.44145393 0.373723 -1.78295004
v 2.42968297 0.349761009 -1.79456198
v 2.47405505 0.350921988 -1.79346097
v 2.49141788 0.351386994 -1.793414
v 2.50614405 0.374729991 -1.782565
v 2.50294209 0.401136994 -1.767892
v 2.45476294 0.400485992 -1.76846898
v 2.15974307 0.323109001 -1.80364704
v 2.16056705 0.310550004 -1.80857003
v 2.23794889 0.312177986 -1.80965996
v 2.23981595 0.325188994 -1.80395997
v 2.24280691 0.344857991 -1.79610896
v 2.15868998 0.342449993 -1.796538
v 2.1577251 0.366981 -1.78604805
v 2.09668112 0.365453988 -1.78710997
v 2.1015811 0.340736985 -1.79763198
v 2.15868998 0.342449993 -1.796538
v 2.2468009 0.369172007 -1.78546202
v 2.25155711 0.396726996 -1.77176702
v 2.15816903 0.395098001 -1.77220201
vt 0.437400013 0.245499998
vt 0.374900013 0.245399997
vt 0.375099987 0.000600000028
vt 0.437599987 0.000699999975
vt 0.500100017 0.000699999975
vt 0.499900013 0.2456
vt 0.499799997 0.460999995
vt 0.441100001 0.452899992
vt 0.382499993 0.444700003
vt 0.452499986 0.585300028
vt 0.467700005 0.680199981
vt 0.435600013 0.615499973
vt 0.405200005 0.5528
vt 0.499799997 0.617699981
vt 0.499799997 0.745000005
vt 0.124700002 0.245100006
vt -0.000199999995 0.246000007
vt 0 0
vt 0.124899998 -0.00109999999
vt 0.249799997 -0.00209999993
vt 0.249699995 0.244200006
vt 0.218400002 0.475699991
vt 0.116800003 0.453500003
vt -0.00039999999 0.462199986
vt 0.0934000015 0.586700022
vt -0.000300000014 0.619000018
vt 0.187099993 0.55430001
vt 0.124700002 0.618200004
vt 0.0621999986 0.682099998
vt -0.000199999995 0.745999992
vt 0.74970001 0.618300021
vt 0.74970001 0.461600006
vt 0.99970001 0.462300003
vt 0.999800026 0.619000018
vt 0.999800026 0.745999992
vt 0.749800026 0.745500028
vt 0.49970001 0.617600024
vt 0.49970001 0.460900009
vt 0.375200003 0.452600002
vt 0.345899999 0.49939999
vt 0.500100017 0.499300003
vt 0.507700026 0.440899998
vt 0.497599989 0.390300006
vt 0.404500008 0.405900002
vt 0.346199989 0.437099993
vt 0.287900001 0.468300015
vt 0.229699999 0.499599993
vt 0.730599999 0.43720001
vt 0.730799973 0.374799997
vt 0.730300009 0.499500006
vt 0.99849999 0.499799997
vt 0.998700023 0.437400013
vt 0.998899996 0.374900013
vt 0.378300011 0.0926999971
vt 0.509500027 0.115599997
vt 0.502699971 -0.00179999997
vt 0.3486 -0.00170000002
vt 0.2324 -0.00109999999
vt 0.292600006 0.0623999983
vt 0.352800012 0.126000002
vt 0.407999992 0.187000006
vt 0.523199975 0.224999994
vt 0.73150003 0.123899996
vt 0.7324 -0.00109999999
vt 0.730499983 0.248999998
vt 0.997799993 0.249899998
vt 0.998899996 0.125
vt 1 0
vt 0.347299993 0.748899996
vt 0.231099993 0.749199986
vt 0.232500002 0.999199986
vt 0.348800004 0.99879998
vt 0.502900004 0.998700023
vt 0.50150001 0.74879998
vt 0.5 0.498899996
vt 0.345800012 0.499000013
vt 0.229599997 0.499300003
vt 0.749800026 0.245800003
vt 0.499799997 0.245499998
vt 0.75 0.00039999999
vt 0.999800026 0.246000007
vt 0.731400013 0.749199986
vt 0.730300009 0.499300003
vt 0.732500017 0.999199986
vt 1 1
vt 0.999300003 0.749899983
vt 0.347299993 0.748899996
vt 0.231099993 0.749199986
vt 0.348800004 0.99879998
vt 0.46509999 0.998399973
vt 0.463499993 0.74849999
vt 0.462000012 0.498699993
vt 0.345800012 0.499000013
vt 0.229599997 0.499300003
vt 0.73150003 0.123899996
vt 0.7324 -0.00109999999
vt 0.464899987 -0.00219999999
vt 0.463999987 0.122900002
vt 0.730499983 0.248999998
vt 0.997799993 0.249899998
vt 0.998899996 0.125
vt 1 0
vt 0.378300011 0.0926999971
vt 0.463999987 0.122900002
vt 0.464899987 -0.00219999999
vt 0.3486 -0.00170000002
vt 0.292600006 0.0623999983
vt 0.352800012 0.126000002
vt 0.407999992 0.187000006
vt 0.463200003 0.247999996
vt 0.378300011 0.0926999971
vt 0.463999987 0.122900002
vt 0.464899987 -0.00219999999
vt 0.3486 -0.00170000002
vt 0.2324 -0.00109999999
vt 0.292600006 0.0623999983
vt 0.352800012 0.126000002
vt 0.407999992 0.187000006
vt 0.463200003 0.247999996
vt 0.730599999 0.43720001
vt 0.730799973 0.374799997
vt 0.462399989 0.43689999
vt 0.462099999 0.499199986
vt 0.730300009 0.499500006
vt 0.99849999 0.499799997
vt 0.998700023 0.437400013
vt 0.998899996 0.374900013
vt 0.375200003 0.452600002
vt 0.345899999 0.49939999
vt 0.462099999 0.499199986
vt 0.462399989 0.43689999
vt 0.404500008 0.405900002
vt 0.346199989 0.437099993
vt 0.287900001 0.468300015
vt 0.229699999 0.499599993
vt 0.375200003 0.452600002
vt 0.345899999 0.49939999
vt 0.462099999 0.499199986
vt 0.462399989 0.43689999
vt 0.462700009 0.37470001
vt 0.404500008 0.405900002
vt 0.346199989 0.437099993
vt 0.287900001 0.468300015
vt 0.229699999 0.499599993
vt 0.74970001 0.618300021
vt 0.749599993 0.491100013
vt 0.99970001 0.492000014
vt 0.999800026 0.619000018
vt 0.749800026 0.745500028
vt 0.499799997 0.744899988
vt 0.49970001 0.617600024
vt 0.499599993 0.4903
vt 0.0934000015 0.586700022
vt -0.000300000014 0.619000018
vt -0.00039999999 0.492000014
vt 0.124600001 0.4912
vt 0.187099993 0.55430001
vt 0.124700002 0.618200004
vt 0.0621999986 0.682099998
vt -0.000199999995 0.745999992
vt 0.0934000015 0.586700022
vt -0.000300000014 0.619000018
vt -0.00039999999 0.492000014
vt 0.124600001 0.4912
vt 0.249599993 0.490399987
vt 0.187099993 0.55430001
vt 0.124700002 0.618200004
vt 0.0621999986 0.682099998
vt -0.000199999995 0.745999992
vt 0.124700002 0.245100006
vt -0.000199999995 0.246000007
vt 0 0
vt 0.124899998 -0.00109999999
vt 0.249699995 0.244200006
vt 0.249599993 0.490399987
vt 0.124600001 0.4912
vt -0.00039999999 0.492000014
vt 0.452499986 0.585300028
vt 0.467700005 0.680199981
vt 0.405200005 0.5528
vt 0.374799997 0.490200013
vt 0.437299997 0.4903
vt 0.49970001 0.490399987
vt 0.499799997 0.617699981
vt 0.499799997 0.745000005
vt 0.452499986 0.585300028
vt 0.467700005 0.680199981
vt 0.435600013 0.615499973
vt 0.374799997 0.490200013
vt 0.437299997 0.4903
vt 0.49970001 0.490399987
vt 0.499799997 0.617699981
vt 0.499799997 0.745000005
vt 0.437400013 0.245499998
vt 0.374900013 0.245399997
vt 0.437599987 0.000699999975
vt 0.500100017 0.000699999975
vt 0.499900013 0.2456
vt 0.49970001 0.490399987
vt 0.437299997 0.4903
vt 0.374799997 0.490200013
vt 0.731400013 0.749199986
vt 0.730300009 0.499300003
vt 0.462000012 0.498699993
vt 0.463499993 0.74849999
vt 0.46509999 0.998399973
vt 0.732500017 0.999199986
vt 1 1
vt 0.999300003 0.749899983
vt 0.99849999 0.499799997
vt 0.749800026 0.245800003
vt 0.499799997 0.245499998
vt 0.500100017 0.000699999975
vt 0.75 0.00039999999
vt 1 0
vt 0.999800026 0.246000007
vt 0.99970001 0.492000014
vt 0.749599993 0.491100013
vt 0.499599993 0.4903
vt 0.347299993 0.748899996
vt 0.231099993 0.749199986
vt 0.232500002 0.999199986
vt 0.348800004 0.99879998
vt 0.46509999 0.998399973
vt 0.463499993 0.74849999
vt 0.462000012 0.498699993
vt 0.345800012 0.499000013
vt 0.73150003 0.123899996
vt 0.7324 -0.00109999999
vt 0.464899987 -0.00219999999
vt 0.463999987 0.122900002
vt 0.463200003 0.247999996
vt 0.730499983 0.248999998
vt 0.998899996 0.125
vt 1 0
vt 0.378300011 0.0926999971
vt 0.463999987 0.122900002
vt 0.464899987 -0.00219999999
vt 0.3486 -0.00170000002
vt 0.2324 -0.00109999999
vt 0.292600006 0.0623999983
vt 0.407999992 0.187000006
vt 0.463200003 0.247999996
vt 0.730599999 0.43720001
vt 0.730799973 0.374799997
vt 0.462700009 0.37470001
vt 0.462399989 0.43689999
vt 0.462099999 0.499199986
vt 0.730300009 0.499500006
vt 0.998700023 0.437400013
vt 0.375200003 0.452600002
vt 0.345899999 0.49939999
vt 0.462099999 0.499199986
vt 0.462399989 0.43689999
vt 0.462700009 0.37470001
vt 0.404500008 0.405900002
vt 0.287900001 0.468300015
vt 0.229699999 0.499599993
vt 0.74970001 0.618300021
vt 0.749599993 0.491100013
vt 0.99970001 0.492000014
vt 0.999800026 0.619000018
vt 0.999800026 0.745999992
vt 0.749800026 0.745500028
vt 0.49970001 0.617600024
vt 0.499599993 0.4903
vt 0.0934000015 0.586700022
vt -0.000300000014 0.619000018
vt -0.00039999999 0.492000014
vt 0.124600001 0.4912
vt 0.249599993 0.490399987
vt 0.187099993 0.55430001
vt 0.0621999986 0.682099998
vt -0.000199999995 0.745999992
vt 0.124700002 0.245100006
vt -0.000199999995 0.246000007
vt 0 0
vt 0.124899998 -0.00109999999
vt 0.249799997 -0.00209999993
vt 0.249699995 0.244200006
vt 0.124600001 0.4912
vt -0.00039999999 0.492000014
vt 0.452499986 0.585300028
vt 0.467700005 0.680199981
vt 0.435600013 0.615499973
vt 0.405200005 0.5528
vt 0.374799997 0.490200013
vt 0.437299997 0.4903
vt 0.437400013 0.245499998
vt 0.374900013 0.245399997
vt 0.375099987 0.000600000028
vt 0.437599987 0.000699999975
vt 0.499900013 0.2456
vt 0.49970001 0.490399987
vt 0.437299997 0.4903
vn -0.0129000004 0.418500006 -0.908100009
vn -0.0738999993 0.406500012 -0.910600007
vn -0.0706999972 0.466699988 -0.881600022
vn -0.0126 0.470200002 -0.882399976
vn -0.000199999995 0.475199997 -0.879800022
vn -0.00240000011 0.426600009 -0.904399991
vn -0.0055999998 0.387100011 -0.921999991
vn -0.0152000003 0.368999988 -0.92930001
vn -0.0798999965 0.340700001 -0.936699986
vn -0.0215000007 0.294400007 -0.95539999
vn -0.0329999998 -0.00109999999 -0.999499977
vn -0.0627000034 -0.00340000005 -0.998000026
vn -0.0983999968 0.1884 -0.977100015
vn -0.00910000037 0.328299999 -0.944500029
vn -0.00700000022 0.0297999997 -0.999499977
vn 0.0357000008 0.433299989 -0.9005
vn 0.0057000001 0.449200004 -0.893400013
vn 0.00600000005 0.493600011 -0.869599998
vn 0.0252999999 0.486099988 -0.87349999
vn 0.211600006 0.384200007 -0.898599982
vn 0.239399999 0.306400001 -0.921299994
vn 0.275700003 0.232899994 -0.932600021
vn 0.0458999984 0.394400001 -0.917800009
vn 0.00480000023 0.412400007 -0.911000013
vn 0.0551000014 0.33160001 -0.941799998
vn 0.00350000011 0.356000006 -0.934400022
vn 0.293199986 0.108999997 -0.949800014
vn 0.252799988 -0.000699999975 -0.967499971
vn 0.119199999 0.00970000029 -0.992799997
vn 0.0143999998 0.0551000014 -0.998399973
vn -0.00419999985 0.346799999 -0.937900007
vn -0.00230000005 0.402999997 -0.915199995
vn 0.00480000023 0.412400007 -0.911000013
vn 0.00350000011 0.356000006 -0.934400022
vn 0.0143999998 0.0551000014 -0.998399973
vn 0.00270000007 0.0526000001 -0.998600006
vn -0.00910000037 0.328299999 -0.944500029
vn -0.0055999998 0.387100011 -0.921999991
vn -0.00120000006 0.599699974 -0.800199986
vn 0.0104 0.61680001 -0.787
vn 0.00590000022 0.562600017 -0.826699972
vn -0.00639999984 0.548799992 -0.835900009
vn -0.0606000014 0.545799971 -0.835699975
vn -0.0544999987 0.6171 -0.785000026
vn -0.0229000002 0.704599977 -0.709200025
vn -0.00359999994 0.718500018 -0.695500016
vn 0.0115 0.735400021 -0.67750001
vn -0.0109000001 0.514599979 -0.8574
vn -0.0661000013 0.514199972 -0.855099976
vn 0.00219999999 0.521000028 -0.853500009
vn -0.000199999995 0.475199997 -0.879800022
vn -0.0126 0.470200002 -0.882399976
vn -0.0706999972 0.466699988 -0.881600022
vn 0.0703999996 0.684000015 -0.726100028
vn 0.0364000015 0.602999985 -0.796899974
vn 0.0137 0.592499971 -0.805400014
vn 0.0248000007 0.660300016 -0.750500023
vn 0.0428000018 0.773599982 -0.632200003
vn 0.149399996 0.791199982 -0.592999995
vn 0.260500014 0.771700025 -0.580200016
vn 0.252299994 0.674600005 -0.693700016
vn 0.211999997 0.545700014 -0.810699999
vn 0.0241999999 0.539799988 -0.841400027
vn 0.00810000021 0.539399981 -0.841899991
vn 0.201000005 0.456699997 -0.866599977
vn 0.211600006 0.384200007 -0.898599982
vn 0.0252999999 0.486099988 -0.87349999
vn 0.00600000005 0.493600011 -0.869599998
vn 0.0153999999 0.637199998 -0.770500004
vn 0.0182000007 0.751299977 -0.659699976
vn 0.0428000018 0.773599982 -0.632200003
vn 0.0248000007 0.660300016 -0.750500023
vn 0.0137 0.592499971 -0.805400014
vn 0.0113000004 0.577099979 -0.816600025
vn 0.00590000022 0.562600017 -0.826699972
vn 0.0104 0.61680001 -0.787
vn 0.0115 0.735400021 -0.67750001
vn 0.00139999995 0.440200001 -0.897899985
vn -0.00240000011 0.426600009 -0.904399991
vn 0.00490000006 0.485100001 -0.87440002
vn 0.0057000001 0.449200004 -0.893400013
vn 0.00789999962 0.529900014 -0.84799999
vn 0.00219999999 0.521000028 -0.853500009
vn 0.00810000021 0.539399981 -0.841899991
vn 0.00600000005 0.493600011 -0.869599998
vn 0.00490000006 0.485100001 -0.87440002
vn -0.00120000006 0.82950002 0.558499992
vn 0.0688000023 0.816799998 0.572799981
vn 0.0182000007 0.751299977 -0.659699976
vn 0.0115 0.735400021 -0.67750001
vn -0.0176999997 0.846099973 0.532800019
vn -0.0197999999 -0.385800004 0.922299981
vn -0.0206000004 -0.420599997 0.907000005
vn -0.0226000007 -0.439500004 0.897899985
vn 0.905700028 -0.360199988 -0.2236
vn 0.89200002 -0.398900002 -0.212599993
vn 0.211600006 0.384200007 -0.898599982
vn 0.201000005 0.456699997 -0.866599977
vn 0.948099971 -0.249500006 -0.1972
vn 0.1382 -0.672599971 0.726999998
vn 0.161500007 -0.613799989 0.772700012
vn 0.172199994 -0.566100001 0.806100011
vn 0.360100001 0.723699987 0.588699996
vn 0.845000029 0.307900012 0.437099993
vn 0.260500014 0.771700025 -0.580200016
vn 0.149399996 0.791199982 -0.592999995
vn 0.0688000023 0.816799998 0.572799981
vn -0.0226000007 -0.439500004 0.897899985
vn 0.0250000004 -0.466500014 0.884199977
vn 0.0931999981 -0.569700003 0.816500008
vn 0.999000013 -0.0292000007 0.0333999991
vn 0.948099971 -0.249500006 -0.1972
vn 0.211999997 0.545700014 -0.810699999
vn 0.252299994 0.674600005 -0.693700016
vn 0.260500014 0.771700025 -0.580200016
vn 0.845000029 0.307900012 0.437099993
vn 0.0931999981 -0.569700003 0.816500008
vn 0.116099998 -0.690100014 0.714299977
vn 0.1382 -0.672599971 0.726999998
vn -0.992699981 0.104699999 0.0588999987
vn -0.976199985 0.185900003 0.111199997
vn -0.0661000013 0.514199972 -0.855099976
vn -0.0706999972 0.466699988 -0.881600022
vn -0.999899983 -0.00319999992 -0.0103000002
vn -0.0529000014 -0.469500005 0.881299973
vn -0.0511999987 -0.502799988 0.862800002
vn -0.0559 -0.523899972 0.849900007
vn -0.854099989 0.441199988 0.275200009
vn -0.391200006 0.775200009 0.495900005
vn -0.0229000002 0.704599977 -0.709200025
vn -0.0544999987 0.6171 -0.785000026
vn -0.976199985 0.185900003 0.111199997
vn -0.0559 -0.523899972 0.849900007
vn -0.071800001 -0.476500005 0.87620002
vn -0.0507000014 -0.355699986 0.933200002
vn -0.0603 0.85769999 0.510500014
vn -0.0176999997 0.846099973 0.532800019
vn 0.0115 0.735400021 -0.67750001
vn -0.00359999994 0.718500018 -0.695500016
vn -0.0229000002 0.704599977 -0.709200025
vn -0.391200006 0.775200009 0.495900005
vn -0.0507000014 -0.355699986 0.933200002
vn -0.0333000012 -0.35800001 0.933099985
vn -0.0197999999 -0.385800004 0.922299981
vn 0.0277999993 -0.958500028 -0.283800006
vn 0.0194000006 -0.963100016 -0.26820001
vn -0.00700000022 0.0297999997 -0.999499977
vn 0.00270000007 0.0526000001 -0.998600006
vn 0.0410000011 -0.95599997 -0.290399998
vn 0.0115 -0.578299999 0.815699995
vn 0.0131999999 -0.567300022 0.823400021
vn 0.0182000007 -0.555000007 0.83160001
vn 0.777499974 -0.603999972 -0.174999997
vn 0.498100013 -0.834900022 -0.233999997
vn 0.252799988 -0.000699999975 -0.967499971
vn 0.293199986 0.108999997 -0.949800014
vn 0.84920001 -0.504599988 -0.155399993
vn 0.177000001 -0.514100015 0.83920002
vn 0.177900001 -0.559800029 0.809300005
vn 0.153899997 -0.618399978 0.770600021
vn 0.143800005 -0.943799973 -0.297399998
vn 0.0410000011 -0.95599997 -0.290399998
vn 0.0143999998 0.0551000014 -0.998399973
vn 0.119199999 0.00970000029 -0.992799997
vn 0.252799988 -0.000699999975 -0.967499971
vn 0.498100013 -0.834900022 -0.233999997
vn 0.153899997 -0.618399978 0.770600021
vn 0.0621000007 -0.608699977 0.790899992
vn 0.0115 -0.578299999 0.815699995
vn 0.878899992 -0.442400008 -0.178299993
vn 0.84920001 -0.504599988 -0.155399993
vn 0.275700003 0.232899994 -0.932600021
vn 0.239399999 0.306400001 -0.921299994
vn 0.89200002 -0.398900002 -0.212599993
vn 0.172199994 -0.566100001 0.806100011
vn 0.1743 -0.523400009 0.834100008
vn 0.177000001 -0.514100015 0.83920002
vn -0.0297999997 -0.969099998 -0.244499996
vn -0.378800005 -0.898500025 -0.221699998
vn -0.0329999998 -0.00109999999 -0.999499977
vn -0.00700000022 0.0297999997 -0.999499977
vn 0.0194000006 -0.963100016 -0.26820001
vn 0.0182000007 -0.555000007 0.83160001
vn 0.00850000046 -0.530099988 0.847899973
vn -0.0153999999 -0.502399981 0.864499986
vn -0.859399974 -0.489399999 -0.148000002
vn -0.977999985 -0.1884 -0.0892999992
vn -0.0798999965 0.340700001 -0.936699986
vn -0.0627000034 -0.00340000005 -0.998000026
vn -0.378800005 -0.898500025 -0.221699998
vn -0.0153999999 -0.502399981 0.864499986
vn -0.0621000007 -0.387699991 0.919700027
vn -0.0606999993 -0.370599985 0.926800013
vn -0.990199983 -0.122599997 -0.0669
vn -0.999899983 -0.00319999992 -0.0103000002
vn -0.0738999993 0.406500012 -0.910600007
vn -0.0798999965 0.340700001 -0.936699986
vn -0.977999985 -0.1884 -0.0892999992
vn -0.0606999993 -0.370599985 0.926800013
vn -0.0571000017 -0.425700009 0.902999997
vn -0.0529000014 -0.469500005 0.881299973
vn -0.00789999962 -0.529900014 0.84799999
vn -0.00219999999 -0.521000028 0.853500009
vn 0.000199999995 -0.475199997 0.879800022
vn -0.00490000006 -0.485100001 0.87440002
vn -0.00600000005 -0.493600011 0.869599998
vn -0.00810000021 -0.539399981 0.841899991
vn -0.0137 -0.592499971 0.805400014
vn -0.0113000004 -0.577099979 0.816600025
vn -0.00590000022 -0.562600017 0.826699972
vn -0.00139999995 -0.440200001 0.897899985
vn 0.00240000011 -0.426600009 0.904399991
vn 0.0055999998 -0.387100011 0.921999991
vn 0.00230000005 -0.402999997 0.915199995
vn -0.00480000023 -0.412400007 0.911000013
vn -0.0057000001 -0.449200004 0.893400013
vn -0.00600000005 -0.493600011 0.869599998
vn -0.00490000006 -0.485100001 0.87440002
vn 0.000199999995 -0.475199997 0.879800022
vn -0.0156999994 -0.605599999 0.795599997
vn -0.0206000004 -0.420599997 0.907000005
vn -0.0197999999 -0.385800004 0.922299981
vn -0.0110999998 -0.583199978 0.81220001
vn -0.00590000022 -0.562600017 0.826699972
vn -0.0113000004 -0.577099979 0.816600025
vn -0.0137 -0.592499971 0.805400014
vn -0.0237000007 -0.628899992 0.777100027
vn 0.0135000004 -0.555800021 0.831200004
vn -0.00810000021 -0.539399981 0.841899991
vn -0.00600000005 -0.493600011 0.869599998
vn 0.0148999998 -0.504499972 0.863300025
vn 0.172199994 -0.566100001 0.806100011
vn 0.161500007 -0.613799989 0.772700012
vn -0.000300000014 -0.61650002 0.787299991
vn -0.0137 -0.592499971 0.805400014
vn -0.0262000002 -0.660099983 0.750699997
vn -0.000300000014 -0.61650002 0.787299991
vn 0.1382 -0.672599971 0.726999998
vn 0.116099998 -0.690100014 0.714299977
vn 0.0931999981 -0.569700003 0.816500008
vn 0.0250000004 -0.466500014 0.884199977
vn -0.0237000007 -0.628899992 0.777100027
vn -0.0137 -0.592499971 0.805400014
vn -0.000699999975 -0.513499975 0.858099997
vn -0.0511999987 -0.502799988 0.862800002
vn -0.0529000014 -0.469500005 0.881299973
vn 0.00039999999 -0.470099986 0.882600009
vn 0.000199999995 -0.475199997 0.879800022
vn -0.00219999999 -0.521000028 0.853500009
vn -0.00510000018 -0.546999991 0.837100029
vn -0.0125000002 -0.556200027 0.830900013
vn -0.0110999998 -0.583199978 0.81220001
vn -0.0197999999 -0.385800004 0.922299981
vn -0.0333000012 -0.35800001 0.933099985
vn -0.0507000014 -0.355699986 0.933200002
vn -0.071800001 -0.476500005 0.87620002
vn -0.00510000018 -0.546999991 0.837100029
vn -0.00590000022 -0.562600017 0.826699972
vn 0.00590000022 -0.400299996 0.916299999
vn 0.00230000005 -0.402999997 0.915199995
vn 0.0055999998 -0.387100011 0.921999991
vn 0.0104999999 -0.38319999 0.923600018
vn 0.0182000007 -0.555000007 0.83160001
vn 0.0131999999 -0.567300022 0.823400021
vn -0.00100000005 -0.410299987 0.911899984
vn -0.00480000023 -0.412400007 0.911000013
vn 0.0119000003 -0.433600008 0.901000023
vn -0.00100000005 -0.410299987 0.911899984
vn 0.0115 -0.578299999 0.815699995
vn 0.0621000007 -0.608699977 0.790899992
vn 0.153899997 -0.618399978 0.770600021
vn 0.177900001 -0.559800029 0.809300005
vn 0.0027999999 -0.421900004 0.906599998
vn -0.00480000023 -0.412400007 0.911000013
vn 0.00810000021 -0.454899997 0.890500009
vn -0.0057000001 -0.449200004 0.893400013
vn -0.00480000023 -0.412400007 0.911000013
vn 0.0027999999 -0.421900004 0.906599998
vn 0.177000001 -0.514100015 0.83920002
vn 0.1743 -0.523400009 0.834100008
vn 0.0148999998 -0.504499972 0.863300025
vn -0.00600000005 -0.493600011 0.869599998
vn 0.00609999988 -0.360500008 0.932699978
vn 0.00850000046 -0.530099988 0.847899973
vn 0.0182000007 -0.555000007 0.83160001
vn 0.0104999999 -0.38319999 0.923600018
vn 0.0055999998 -0.387100011 0.921999991
vn 0.00109999999 -0.370700002 0.92869997
vn -9.99999975e-05 -0.419499993 0.907700002
vn -0.0571000017 -0.425700009 0.902999997
vn -0.0606999993 -0.370599985 0.926800013
vn 0.00109999999 -0.370700002 0.92869997
vn 0.00240000011 -0.426600009 0.904399991
vn 0.000199999995 -0.475199997 0.879800022
vn 0.00039999999 -0.470099986 0.882600009
f 1/1/1 2/2/2 3/3/3
f 1/1/1 3/3/3 4/4/4
f 1/1/1 4/4/4 5/5/5
f 1/1/1 5/5/5 6/6/6
f 1/1/1 6/6/6 7/7/7
f 1/1/1 7/7/7 8/8/8
f 1/1/1 8/8/8 9/9/9
f 1/1/1 9/9/9 2/2/2
f 10/10/10 11/11/11 12/12/12
f 10/10/10 12/12/12 13/13/13
f 10/10/10 13/13/13 9/9/9
f 10/10/10 9/9/9 8/8/8
f 10/10/10 8/8/8 7/7/7
f 10/10/10 7/7/7 14/14/14
f 10/10/10 14/14/14 15/15/15
f 10/10/10 15/15/15 11/11/11
f 16/16/16 17/17/17 18/18/18
f 16/16/16 18/18/18 19/19/19
f 16/16/16 19/19/19 20/20/20
f 16/16/16 20/20/20 21/21/21
f 16/16/16 21/21/21 22/22/22
f 16/16/16 22/22/22 23/23/23
f 16/16/16 23/23/23 24/24/24
f 16/16/16 24/24/24 17/17/17
f 25/25/25 26/26/26 24/24/24
f 25/25/25 24/24/24 23/23/23
f 25/25/25 23/23/23 22/22/22
f 25/25/25 22/22/22 27/27/27
f 25/25/25 27/27/27 28/28/28
f 25/25/25 28/28/28 29/29/29
f 25/25/25 29/29/29 30/30/30
f 25/25/25 30/30/30 26/26/26
f 31/31/31 32/32/32 33/33/33
f 31/31/31 33/33/33 34/34/34
f 31/31/31 34/34/34 35/35/35
f 31/31/31 35/35/35 36/36/36
f 31/31/31 36/36/36 15/15/15
f 31/31/31 15/15/15 37/37/37
f 31/31/31 37/37/37 38/38/38
f 31/31/31 38/38/38 32/32/32
f 39/39/39 40/40/40 41/41/41
f 39/39/39 41/41/41 42/42/42
f 39/39/39 42/42/42 43/43/43
f 39/39/39 43/43/43 44/44/44
f 39/39/39 44/44/44 45/45/45
f 39/39/39 45/45/45 46/46/46
f 39/39/39 46/46/46 47/47/47
f 39/39/39 47/47/47 40/40/40
f 48/48/48 49/49/49 43/43/43
f 48/48/48 43/43/43 42/42/42
f 48/48/48 42/42/42 41/41/41
f 48/48/48 41/41/41 50/50/50
f 48/48/48 50/50/50 51/51/51
f 48/48/48 51/51/51 52/52/52
f 48/48/48 52/52/52 53/53/53
f 48/48/48 53/53/53 49/49/49
f 54/54/54 55/55/55 56/56/56
f 54/54/54 56/56/56 57/57/57
f 54/54/54 57/57/57 58/58/58
f 54/54/54 58/58/58 59/59/59
f 54/54/54 59/59/59 60/60/60
f 54/54/54 60/60/60 61/61/61
f 54/54/54 61/61/61 62/62/62
f 54/54/54 62/62/62 55/55/55
f 63/63/63 64/64/64 56/56/56
f 63/63/63 56/56/56 55/55/55
f 63/63/63 55/55/55 62/62/62
f 63/63/63 62/62/62 65/65/65
f 63/63/63 65/65/65 66/66/66
f 63/63/63 66/66/66 67/67/67
f 63/63/63 67/67/67 68/68/68
f 63/63/63 68/68/68 64/64/64
f 69/69/69 70/70/70 71/71/71
f 69/69/69 71/71/71 72/72/72
f 69/69/69 72/72/72 73/73/73
f 69/69/69 73/73/73 74/74/74
f 69/69/69 74/74/74 75/75/75
f 69/69/69 75/75/75 76/76/76
f 69/69/69 76/76/76 77/77/77
f 69/69/69 77/77/77 70/70/70
f 78/78/78 79/79/79 5/5/5
f 78/78/78 5/5/5 80/80/80
f 78/78/78 80/80/80 68/68/68
f 78/78/78 68/68/68 81/81/81
f 78/78/78 81/81/81 33/33/33
f 78/78/78 33/33/33 32/32/32
f 78/78/78 32/32/32 38/38/38
f 78/78/78 38/38/38 79/79/79
f 82/82/82 83/83/83 75/75/75
f 82/82/82 75/75/75 74/74/74
f 82/82/82 74/74/74 73/73/73
f 82/82/82 73/73/73 84/84/84
f 82/82/82 84/84/84 85/85/85
f 82/82/82 85/85/85 86/86/86
f 82/82/82 86/86/86 51/51/51
f 82/82/82 51/51/51 83/83/83
f 87/87/87 88/88/88 71/71/71
f 87/87/87 71/71/71 89/89/89
f 87/87/87 89/89/89 90/90/90
f 87/87/87 90/90/90 91/91/91
f 87/87/87 91/91/91 92/92/92
f 87/87/87 92/92/92 93/93/93
f 87/87/87 93/93/93 94/94/94
f 87/87/87 94/94/94 88/88/88
f 95/95/95 96/96/96 97/97/97
f 95/95/95 97/97/97 98/98/98
f 95/95/95 98/98/98 62/62/62
f 95/95/95 62/62/62 99/99/99
f 95/95/95 99/99/99 100/100/100
f 95/95/95 100/100/100 101/101/101
f 95/95/95 101/101/101 102/102/102
f 95/95/95 102/102/102 96/96/96
f 103/103/103 104/104/104 105/105/105
f 103/103/103 105/105/105 106/106/106
f 103/103/103 106/106/106 58/58/58
f 103/103/103 58/58/58 107/107/107
f 103/103/103 107/107/107 108/108/108
f 103/103/103 108/108/108 109/109/109
f 103/103/103 109/109/109 110/110/110
f 103/103/103 110/110/110 104/104/104
f 111/111/111 112/112/112 113/113/113
f 111/111/111 113/113/113 114/114/114
f 111/111/111 114/114/114 115/115/115
f 111/111/111 115/115/115 116/116/116
f 111/111/111 116/116/116 117/117/117
f 111/111/111 117/117/117 118/118/118
f 111/111/111 118/118/118 119/119/119
f 111/111/111 119/119/119 112/112/112
f 120/120/120 121/121/121 43/43/43
f 120/120/120 43/43/43 122/122/122
f 120/120/120 122/122/122 123/123/123
f 120/120/120 123/123/123 124/124/124
f 120/120/120 124/124/124 125/125/125
f 120/120/120 125/125/125 126/126/126
f 120/120/120 126/126/126 127/127/127
f 120/120/120 127/127/127 121/121/121
f 128/128/128 129/129/129 130/130/130
f 128/128/128 130/130/130 131/131/131
f 128/128/128 131/131/131 43/43/43
f 128/128/128 43/43/43 132/132/132
f 128/128/128 132/132/132 133/133/133
f 128/128/128 133/133/133 134/134/134
f 128/128/128 134/134/134 135/135/135
f 128/128/128 135/135/135 129/129/129
f 136/136/136 137/137/137 138/138/138
f 136/136/136 138/138/138 139/139/139
f 136/136/136 139/139/139 140/140/140
f 136/136/136 140/140/140 141/141/141
f 136/136/136 141/141/141 142/142/142
f 136/136/136 142/142/142 143/143/143
f 136/136/136 143/143/143 144/144/144
f 136/136/136 144/144/144 137/137/137
f 145/145/145 146/146/146 147/147/147
f 145/145/145 147/147/147 148/148/148
f 145/145/145 148/148/148 35/35/35
f 145/145/145 35/35/35 149/149/149
f 145/145/145 149/149/149 150/150/150
f 145/145/145 150/150/150 151/151/151
f 145/145/145 151/151/151 152/152/152
f 145/145/145 152/152/152 146/146/146
f 153/153/153 154/154/154 155/155/155
f 153/153/153 155/155/155 156/156/156
f 153/153/153 156/156/156 22/22/22
f 153/153/153 22/22/22 157/157/157
f 153/153/153 157/157/157 158/158/158
f 153/153/153 158/158/158 159/159/159
f 153/153/153 159/159/159 160/160/160
f 153/153/153 160/160/160 154/154/154
f 161/161/161 162/162/162 163/163/163
f 161/161/161 163/163/163 164/164/164
f 161/161/161 164/164/164 165/165/165
f 161/161/161 165/165/165 166/166/166
f 161/161/161 166/166/166 167/167/167
f 161/161/161 167/167/167 168/168/168
f 161/161/161 168/168/168 169/169/169
f 161/161/161 169/169/169 162/162/162
f 170/170/170 171/171/171 172/172/172
f 170/170/170 172/172/172 173/173/173
f 170/170/170 173/173/173 20/20/20
f 170/170/170 20/20/20 174/174/174
f 170/170/170 174/174/174 175/175/175
f 170/170/170 175/175/175 176/176/176
f 170/170/170 176/176/176 177/177/177
f 170/170/170 177/177/177 171/171/171
f 178/178/178 179/179/179 12/12/12
f 178/178/178 12/12/12 180/180/180
f 178/178/178 180/180/180 181/181/181
f 178/178/178 181/181/181 182/182/182
f 178/178/178 182/182/182 183/183/183
f 178/178/178 183/183/183 184/184/184
f 178/178/178 184/184/184 185/185/185
f 178/178/178 185/185/185 179/179/179
f 186/186/186 187/187/187 188/188/188
f 186/186/186 188/188/188 13/13/13
f 186/186/186 13/13/13 189/189/189
f 186/186/186 189/189/189 190/190/190
f 186/186/186 190/190/190 191/191/191
f 186/186/186 191/191/191 192/192/192
f 186/186/186 192/192/192 193/193/193
f 186/186/186 193/193/193 187/187/187
f 194/194/194 195/195/195 3/3/3
f 194/194/194 3/3/3 196/196/196
f 194/194/194 196/196/196 197/197/197
f 194/194/194 197/197/197 198/198/198
f 194/194/194 198/198/198 199/199/199
f 194/194/194 199/199/199 200/200/200
f 194/194/194 200/200/200 201/201/201
f 194/194/194 201/201/201 195/195/195
f 202/202/202 203/203/203 204/204/204
f 202/202/202 204/204/204 205/205/205
f 202/202/202 205/205/205 206/206/206
f 202/202/202 206/206/206 207/207/207
f 202/202/202 207/207/207 208/208/208
f 202/202/202 208/208/208 209/209/209
f 202/202/202 209/209/209 210/210/210
f 202/202/202 210/210/210 203/203/203
f 211/211/211 212/212/212 213/213/213
f 211/211/211 213/213/213 214/214/214
f 211/211/211 214/214/214 215/215/215
f 211/211/211 215/215/215 216/216/216
f 211/211/211 216/216/216 217/217/217
f 211/211/211 217/217/217 218/218/218
f 211/211/211 218/218/218 219/219/219
f 211/211/211 219/219/219 212/212/212
f 220/220/220 221/221/221 222/222/222
f 220/220/220 222/222/222 223/223/223
f 220/220/220 223/223/223 224/224/224
f 220/220/220 224/224/224 225/225/225
f 220/220/220 225/225/225 226/226/226
f 220/220/220 226/226/226 227/227/227
f 220/220/220 227/227/227 94/94/94
f 220/220/220 94/94/94 221/221/221
f 228/228/228 229/229/229 230/230/230
f 228/228/228 230/230/230 231/231/231
f 228/228/228 231/231/231 232/232/232
f 228/228/228 232/232/232 233/233/233
f 228/228/228 233/233/233 100/100/100
f 228/228/228 100/100/100 234/234/234
f 228/228/228 234/234/234 235/235/235
f 228/228/228 235/235/235 229/229/229
f 236/236/236 237/237/237 238/238/238
f 236/236/236 238/238/238 239/239/239
f 236/236/236 239/239/239 240/240/240
f 236/236/236 240/240/240 241/241/241
f 236/236/236 241/241/241 108/108/108
f 236/236/236 108/108/108 242/242/242
f 236/236/236 242/242/242 243/243/243
f 236/236/236 243/243/243 237/237/237
f 244/244/244 245/245/245 246/246/246
f 244/244/244 246/246/246 247/247/247
f 244/244/244 247/247/247 248/248/248
f 244/244/244 248/248/248 249/249/249
f 244/244/244 249/249/249 210/210/210
f 244/244/244 210/210/210 250/250/250
f 244/244/244 250/250/250 127/127/127
f 244/244/244 127/127/127 245/245/245
f 251/251/251 252/252/252 253/253/253
f 251/251/251 253/253/253 254/254/254
f 251/251/251 254/254/254 255/255/255
f 251/251/251 255/255/255 256/256/256
f 251/251/251 256/256/256 133/133/133
f 251/251/251 133/133/133 257/257/257
f 251/251/251 257/257/257 258/258/258
f 251/251/251 258/258/258 252/252/252
f 259/259/259 260/260/260 261/261/261
f 259/259/259 261/261/261 262/262/262
f 259/259/259 262/262/262 263/263/263
f 259/259/259 263/263/263 264/264/264
f 259/259/259 264/264/264 150/150/150
f 259/259/259 150/150/150 265/265/265
f 259/259/259 265/265/265 266/266/266
f 259/259/259 266/266/266 260/260/260
f 267/267/267 268/268/268 269/269/269
f 267/267/267 269/269/269 270/270/270
f 267/267/267 270/270/270 271/271/271
f 267/267/267 271/271/271 272/272/272
f 267/267/267 272/272/272 158/158/158
f 267/267/267 158/158/158 273/273/273
f 267/267/267 273/273/273 274/274/274
f 267/267/267 274/274/274 268/268/268
f 275/275/275 276/276/276 277/277/277
f 275/275/275 277/277/277 278/278/278
f 275/275/275 278/278/278 279/279/279
f 275/275/275 279/279/279 280/280/280
f 275/275/275 280/280/280 175/175/175
f 275/275/275 175/175/175 281/281/281
f 275/275/275 281/281/281 282/282/282
f 275/275/275 282/282/282 276/276/276
f 283/283/283 284/284/284 285/285/285
f 283/283/283 285/285/285 286/286/286
f 283/283/283 286/286/286 287/287/287
f 283/283/283 287/287/287 288/288/288
f 283/283/283 288/288/288 199/199/199
f 283/283/283 199/199/199 192/192/192
f 283/283/283 192/192/192 185/185/185
f 283/283/283 185/185/185 284/284/284
f 289/289/289 290/290/290 291/291/291
f 289/289/289 291/291/291 292/292/292
f 289/289/289 292/292/292 213/213/213
f 289/289/289 213/213/213 293/293/293
f 289/289/289 293/293/293 294/294/294
f 289/289/289 294/294/294 295/295/295
f 289/289/289 295/295/295 201/201/201
f 289/289/289 201/201/201 290/290/290
