# Generated by lxe_pbrt_scene_convert
v 0.98703301 0.525052011 1.61384594
v 0.985642016 0.528576016 1.619295
v 1.01642203 0.618641019 1.59214997
v 1.01809001 0.615450978 1.58652902
v 0.980104029 0.530007005 1.619295
v 1.009781 0.618740976 1.59283304
v 0.978848994 0.527166009 1.61384594
v 1.00827599 0.615598977 1.58753896
v 1.06362796 0.756799996 1.53866804
v 1.065503 0.753389001 1.53312302
v 1.05616295 0.757781029 1.53904903
v 1.05447102 0.75483799 1.53368604
v 1.10964894 0.896236002 1.45817101
v 1.11152101 0.89310497 1.45279706
v 1.10219502 0.896099985 1.45787299
v 1.10050595 0.892904997 1.45235705
v 1.11152101 0.89310497 1.45279706
v 1.10964894 0.896236002 1.45817101
v 1.15988803 1.04115498 1.36079502
v 1.16150403 1.03776097 1.35523498
v 1.10219502 0.896099985 1.45787299
v 1.15345502 1.04206598 1.36123896
v 1.10050595 0.892904997 1.45235705
v 1.15199697 1.03910804 1.35589099
v 1.21084499 1.18767905 1.23415005
v 1.21348095 1.18425405 1.22878504
v 1.16150403 1.03776097 1.35523498
v 1.15988803 1.04115498 1.36079502
v 1.15345502 1.04206598 1.36123896
v 1.20035398 1.18871605 1.23381698
v 1.19797599 1.18578696 1.22829294
v 0.98703301 0.525052011 -1.61384594
v 1.01809001 0.615450978 -1.58652902
v 1.01642203 0.618641019 -1.59214997
v 0.985642016 0.528576016 -1.619295
v 1.009781 0.618740976 -1.59283304
v 0.980104029 0.530007005 -1.619295
v 1.00827599 0.615598977 -1.58753896
v 0.978848994 0.527166009 -1.61384594
v 1.065503 0.753389001 -1.53312302
v 1.06362796 0.756799996 -1.53866804
v 1.05616295 0.757781029 -1.53904903
v 1.05447102 0.75483799 -1.53368604
v 1.11152101 0.89310497 -1.45279706
v 1.10964894 0.896236002 -1.45817101
v 1.10219502 0.896099985 -1.45787299
v 1.10050595 0.892904997 -1.45235705
v 1.11152101 0.89310497 -1.45279706
v 1.16150403 1.03776097 -1.35523498
v 1.15988803 1.04115498 -1.36079502
v 1.10964894 0.896236002 -1.45817101
v 1.15345502 1.04206598 -1.36123896
v 1.10219502 0.896099985 -1.45787299
v 1.15199697 1.03910804 -1.35589099
v 1.10050595 0.892904997 -1.45235705
v 1.21084499 1.18767905 -1.23415005
v 1.15988803 1.04115498 -1.36079502
v 1.16150403 1.03776097 -1.35523498
v 1.21348095 1.18425405 -1.22878504
v 1.20035398 1.18871605 -1.23381698
v 1.15345502 1.04206598 -1.36123896
v 1.19797599 1.18578696 -1.22829294
vt 0 0
vt 0.333299994 -0
vt 0.333299994 1
vt 0 1
vt 0.666700006 0
vt 0.666700006 1
vt 1 0
vt 1 1
vt 0.333299994 0
vt 0 0
vt 0.666700006 -0
vt 1 0
vt 0.333299994 1
vt 0 1
vt 0.666700006 1
vt 1 1
vt 0 0
vt 0 0.333299994
vt 1 0.333299994
vt 1 0
vt -0 0.666700006
vt 1 0.666700006
vt 0 1
vt 1 1
vt 0.333299994 0
vt 0 0
vt 0 1
vt 0.333299994 1
vt 0.666700006 1
vt 0.666700006 0
vt 1 0
vt 0 0
vt 0 1
vt 0.333299994 1
vt 0.333299994 -0
vt 0.666700006 1
vt 0.666700006 0
vt 1 1
vt 1 0
vt 0 0
vt 0.333299994 0
vt 0.666700006 -0
vt 1 0
vt 0 1
vt 0.333299994 1
vt 0.666700006 1
vt 1 1
vt 0 0
vt 1 0
vt 1 0.333299994
vt 0 0.333299994
vt 1 0.666700006
vt -0 0.666700006
vt 1 1
vt 0 1
vt 0.333299994 0
vt 0.333299994 1
vt 0 1
vt 0 0
vt 0.666700006 0
vt 0.666700006 1
vt 1 0
vn -0.907000005 0.198699996 -0.371199995
vn -0.614400029 -0.0265999995 -0.788500011
vn -0.595200002 -0.0768999979 -0.799899995
vn -0.907999992 0.181700006 -0.377499998
vn 0.6505 -0.408600003 -0.640100002
vn 0.567600012 -0.425300002 -0.704900026
vn 0.941799998 -0.33129999 -0.0573999994
vn 0.939100027 -0.336499989 -0.068599999
vn -0.587400019 -0.187900007 -0.787100017
vn -0.916899979 0.127000004 -0.378300011
vn 0.551699996 -0.49849999 -0.66869998
vn 0.932399988 -0.351200014 -0.0848999992
vn -0.593999982 -0.274199992 -0.756200016
vn -0.92869997 0.0888999999 -0.359899998
vn 0.568099976 -0.564100027 -0.59920001
vn 0.92869997 -0.363299996 -0.0737000033
vn -0.92869997 0.0888999999 -0.359899998
vn -0.593999982 -0.274199992 -0.756200016
vn -0.604700029 -0.343499988 -0.718599975
vn -0.931900024 0.0443000011 -0.359899998
vn 0.568099976 -0.564100027 -0.59920001
vn 0.533999979 -0.615800023 -0.579400003
vn 0.92869997 -0.363299996 -0.0737000033
vn 0.921599984 -0.377900004 -0.0881000012
vn -0.674600005 -0.333700001 -0.658500016
vn -0.929899991 0.00910000037 -0.367599994
vn -0.931900024 0.0443000011 -0.359899998
vn -0.604700029 -0.343499988 -0.718599975
vn 0.533999979 -0.615800023 -0.579400003
vn 0.522899985 -0.646399975 -0.555599988
vn 0.914900005 -0.387699991 -0.1127
vn -0.907000005 0.198699996 0.371199995
vn -0.907999992 0.181700006 0.377499998
vn -0.595200002 -0.0768999979 0.799899995
vn -0.614400029 -0.0265999995 0.788500011
vn 0.567700028 -0.425300002 0.704900026
vn 0.6505 -0.408600003 0.640100002
vn 0.939100027 -0.336499989 0.068599999
vn 0.941799998 -0.33129999 0.0573999994
vn -0.916899979 0.127000004 0.378300011
vn -0.587400019 -0.187900007 0.787100017
vn 0.551699996 -0.49849999 0.66869998
vn 0.932399988 -0.351200014 0.0848999992
vn -0.92869997 0.0888999999 0.359899998
vn -0.593999982 -0.274199992 0.756200016
vn 0.568099976 -0.564100027 0.59920001
vn 0.92869997 -0.363299996 0.0737000033
vn -0.92869997 0.0888999999 0.359899998
vn -0.931900024 0.0443000011 0.359899998
vn -0.604700029 -0.343499988 0.718599975
vn -0.593999982 -0.274199992 0.756200016
vn 0.533999979 -0.615800023 0.579400003
vn 0.568099976 -0.564100027 0.59920001
vn 0.921599984 -0.377900004 0.0881000012
vn 0.92869997 -0.363299996 0.0737000033
vn -0.674600005 -0.333700001 0.658500016
vn -0.604700029 -0.343499988 0.718599975
vn -0.931900024 0.0443000011 0.359899998
vn -0.929899991 0.00910000037 0.367599994
vn 0.522899985 -0.646399975 0.555599988
vn 0.533999979 -0.615800023 0.579400003
vn 0.914900005 -0.387699991 0.1127
f 1/1/1 2/2/2 3/3/3
f 1/1/1 3/3/3 4/4/4
f 2/2/2 5/5/5 6/6/6
f 2/2/2 6/6/6 3/3/3
f 5/5/5 7/7/7 8/8/8
f 5/5/5 8/8/8 6/6/6
f 4/4/4 3/3/3 9/9/9
f 4/4/4 9/9/9 10/10/10
f 3/3/3 6/6/6 11/11/11
f 3/3/3 11/11/11 9/9/9
f 6/6/6 8/8/8 12/12/12
f 6/6/6 12/12/12 11/11/11
f 10/10/10 9/9/9 13/13/13
f 10/10/10 13/13/13 14/14/14
f 9/9/9 11/11/11 15/15/15
f 9/9/9 15/15/15 13/13/13
f 11/11/11 12/12/12 16/16/16
f 11/11/11 16/16/16 15/15/15
f 17/17/17 18/18/18 19/19/19
f 17/17/17 19/19/19 20/20/20
f 18/18/18 21/21/21 22/22/22
f 18/18/18 22/22/22 19/19/19
f 21/21/21 23/23/23 24/24/24
f 21/21/21 24/24/24 22/22/22
f 25/25/25 26/26/26 27/27/27
f 25/25/25 27/27/27 28/28/28
f 28/28/28 29/29/29 30/30/30
f 28/28/28 30/30/30 25/25/25
f 29/29/29 24/24/24 31/31/31
f 29/29/29 31/31/31 30/30/30
f 32/32/32 33/33/33 34/34/34
f 32/32/32 34/34/34 35/35/35
f 35/35/35 34/34/34 36/36/36
f 35/35/35 36/36/36 37/37/37
f 37/37/37 36/36/36 38/38/38
f 37/37/37 38/38/38 39/39/39
f 33/33/33 40/40/40 41/41/41
f 33/33/33 41/41/41 34/34/34
f 34/34/34 41/41/41 42/42/42
f 34/34/34 42/42/42 36/36/36
f 36/36/36 42/42/42 43/43/43
f 36/36/36 43/43/43 38/38/38
f 40/40/40 44/44/44 45/45/45
f 40/40/40 45/45/45 41/41/41
f 41/41/41 45/45/45 46/46/46
f 41/41/41 46/46/46 42/42/42
f 42/42/42 46/46/46 47/47/47
f 42/42/42 47/47/47 43/43/43
f 48/48/48 49/49/49 50/50/50
f 48/48/48 50/50/50 51/51/51
f 51/51/51 50/50/50 52/52/52
f 51/51/51 52/52/52 53/53/53
f 53/53/53 52/52/52 54/54/54
f 53/53/53 54/54/54 55/55/55
f 56/56/56 57/57/57 58/58/58
f 56/56/56 58/58/58 59/59/59
f 57/57/57 56/56/56 60/60/60
f 57/57/57 60/60/60 61/61/61
f 61/61/61 60/60/60 62/62/62
f 61/61/61 62/62/62 54/54/54
