# Generated by lxe_pbrt_scene_convert
v 3.96543694 0.0197080001 1.689906
v 3.76916289 0.0162630007 1.73586905
v 3.76805997 0.0155779999 1.73165202
v 3.96433401 0.0190229993 1.68568897
v 3.76674104 0.0255910009 1.73586905
v 3.96012092 0.0294930004 1.689906
v 3.95901799 0.0288079996 1.68568897
v 3.76563692 0.0249060001 1.73165202
v 3.96012092 0.0294930004 1.689906
v 3.96543694 0.0197080001 1.689906
v 3.96433401 0.0190229993 1.68568897
v 3.95901799 0.0288079996 1.68568897
v 3.36805797 0.00673299981 1.83547997
v 3.20004702 -0.0225680005 1.89906299
v 3.1989429 -0.0232519992 1.89484596
v 3.36695409 0.00604799995 1.83126402
v 3.19140005 -0.0133570004 1.89906299
v 3.36058593 0.0143750003 1.83547997
v 3.359483 0.0136900004 1.83126402
v 3.19029593 -0.0140420003 1.89484596
v 3.18575907 -0.0180929992 1.89882803
v 3.18465495 -0.018778 1.894611
v 3.11840892 -0.0601209998 1.89296401
v 3.11951208 -0.0594360009 1.89718103
v 3.13078094 -0.0666270033 1.89718103
v 3.12967801 -0.0673120022 1.89296401
v 3.19279194 -0.0268179998 1.89463902
v 3.1938951 -0.0261330009 1.89885604
v 3.20004702 -0.0225680005 1.89906299
v 3.1938951 -0.0261330009 1.89885604
v 3.1989429 -0.0232519992 1.89484596
v 3.19140005 -0.0133570004 1.89906299
v 3.19029593 -0.0140420003 1.89484596
v 3.18465495 -0.018778 1.894611
v 3.57495308 0.0236070007 1.77900803
v 3.57384992 0.0229219999 1.774791
v 3.36058593 0.0143750003 1.83547997
v 3.76563692 0.0249060001 1.73165202
v 3.57384992 0.0229219999 1.774791
v 3.57495308 0.0236070007 1.77900803
v 3.57833409 0.0152949998 1.77900803
v 3.57722998 0.01461 1.774791
v 3.76916289 0.0162630007 1.73586905
v 3.36695409 0.00604799995 1.83126402
v 3.57722998 0.01461 1.774791
v 3.57833409 0.0152949998 1.77900803
v 3.19029593 -0.0140420003 1.89484596
v 3.1989429 -0.0232519992 1.89484596
v 3.57384992 0.0229219999 1.774791
v 3.57722998 0.01461 1.774791
v 3.359483 0.0136900004 1.83126402
v 3.18465495 -0.018778 1.894611
v 3.19279194 -0.0268179998 1.89463902
v 3.12967801 -0.0673120022 1.89296401
v 3.11840892 -0.0601209998 1.89296401
v 3.36695409 0.00604799995 1.83126402
v 3.359483 0.0136900004 1.83126402
v 3.96433401 0.0190229993 1.68568897
v 3.76805997 0.0155779999 1.73165202
v 3.76563692 0.0249060001 1.73165202
v 3.96543694 0.0197080001 -1.689906
v 3.96433401 0.0190229993 -1.68568897
v 3.76805997 0.0155779999 -1.73165202
v 3.76916289 0.0162630007 -1.73586905
v 3.76674104 0.0255910009 -1.73586905
v 3.76563692 0.0249060001 -1.73165202
v 3.95901799 0.0288079996 -1.68568897
v 3.96012092 0.0294930004 -1.689906
v 3.96012092 0.0294930004 -1.689906
v 3.95901799 0.0288079996 -1.68568897
v 3.96433401 0.0190229993 -1.68568897
v 3.96543694 0.0197080001 -1.689906
v 3.36805797 0.00673299981 -1.83547997
v 3.36695409 0.00604799995 -1.83126402
v 3.1989429 -0.0232519992 -1.89484596
v 3.20004702 -0.0225680005 -1.89906299
v 3.19140005 -0.0133570004 -1.89906299
v 3.19029593 -0.0140420003 -1.89484596
v 3.359483 0.0136900004 -1.83126402
v 3.36058593 0.0143750003 -1.83547997
v 3.18575907 -0.0180929992 -1.89882803
v 3.11951208 -0.0594360009 -1.89718103
v 3.11840892 -0.0601209998 -1.89296401
v 3.18465495 -0.018778 -1.894611
v 3.13078094 -0.0666270033 -1.89718103
v 3.1938951 -0.0261330009 -1.89885604
v 3.19279194 -0.0268179998 -1.89463902
v 3.12967801 -0.0673120022 -1.89296401
v 3.20004702 -0.0225680005 -1.89906299
v 3.1989429 -0.0232519992 -1.89484596
v 3.1938951 -0.0261330009 -1.89885604
v 3.18465495 -0.018778 -1.894611
v 3.19029593 -0.0140420003 -1.89484596
v 3.19140005 -0.0133570004 -1.89906299
v 3.57495308 0.0236070007 -1.77900803
v 3.36058593 0.0143750003 -1.83547997
v 3.57384992 0.0229219999 -1.774791
v 3.57495308 0.0236070007 -1.77900803
v 3.57384992 0.0229219999 -1.774791
v 3.76563692 0.0249060001 -1.73165202
v 3.57833409 0.0152949998 -1.77900803
v 3.76916289 0.0162630007 -1.73586905
v 3.57722998 0.01461 -1.774791
v 3.57833409 0.0152949998 -1.77900803
v 3.57722998 0.01461 -1.774791
v 3.36695409 0.00604799995 -1.83126402
v 3.19029593 -0.0140420003 -1.89484596
v 3.1989429 -0.0232519992 -1.89484596
v 3.57384992 0.0229219999 -1.774791
v 3.57722998 0.01461 -1.774791
v 3.359483 0.0136900004 -1.83126402
v 3.18465495 -0.018778 -1.894611
v 3.11840892 -0.0601209998 -1.89296401
v 3.12967801 -0.0673120022 -1.89296401
v 3.19279194 -0.0268179998 -1.89463902
v 3.36695409 0.00604799995 -1.83126402
v 3.359483 0.0136900004 -1.83126402
v 3.96433401 0.0190229993 -1.68568897
v 3.76563692 0.0249060001 -1.73165202
v 3.76805997 0.0155779999 -1.73165202
vt 0 0
vt 1 0
vt 1 1
vt 0 1
vt 0 0
vt 1 0
vt 1 1
vt 0 1
vt 0 0
vt 1 0
vt 1 1
vt 0 1
vt 0 0
vt 0 1
vt 1 1
vt 1 0
vt 0 0
vt 0 1
vt 1 1
vt 1 0
vt 0 0
vt 0 1
vt 1 1
vt 1 0
vt 0 0
vt 0 1
vt 1 1
vt 1 0
vt 0 0
vt 0 1
vt 1 0
vt 0 1
vt 1 1
vt 1 0
vt 0 0
vt 0 1
vt 1 0
vt 1 0
vt 1 1
vt 0 1
vt 0 0
vt 1 0
vt 0 1
vt 0 1
vt 1 1
vt 1 0
vt 0 0
vt 0 1
vt 0 0
vt 0 1
vt 0 0
vt 0 0
vt 0 1
vt 1 1
vt 1 0
vt 0 0
vt 1 0
vt 0 0
vt 1 0
vt 1 1
vt 0 0
vt 0 1
vt 1 1
vt 1 0
vt 0 0
vt 0 1
vt 1 1
vt 1 0
vt 0 0
vt 0 1
vt 1 1
vt 1 0
vt 0 0
vt 1 0
vt 1 1
vt 0 1
vt 0 0
vt 1 0
vt 1 1
vt 0 1
vt 0 0
vt 1 0
vt 1 1
vt 0 1
vt 0 0
vt 1 0
vt 1 1
vt 0 1
vt 0 0
vt 1 0
vt 0 1
vt 1 0
vt 1 1
vt 0 1
vt 0 0
vt 1 0
vt 0 1
vt 0 1
vt 1 1
vt 1 0
vt 0 0
vt 0 1
vt 1 0
vt 1 0
vt 1 1
vt 0 1
vt 0 0
vt 0 1
vt 0 0
vt 0 1
vt 0 0
vt 0 0
vt 1 0
vt 1 1
vt 0 1
vt 0 0
vt 1 0
vt 0 0
vt 1 1
vt 1 0
vn 0.861100018 -0.486900002 -0.146200001
vn 0.0454999991 -0.987900019 0.148499995
vn -0.1303 -0.788299978 -0.601300001
vn 0.575200021 -0.491699994 -0.653800011
vn -0.0493000001 0.987800002 -0.147499993
vn 0.462900013 0.847800016 -0.2588
vn 0.224299997 0.604600012 -0.764199972
vn -0.185100004 0.618900001 -0.763300002
vn 0.462900013 0.847800016 -0.2588
vn 0.861100018 -0.486900002 -0.146200001
vn 0.575200021 -0.491699994 -0.653800011
vn 0.224299997 0.604600012 -0.764199972
vn 0.145099998 -0.981899977 0.1215
vn 0.346199989 -0.936100006 0.0614
vn 0.141599998 -0.770399988 -0.621599972
vn -0.0930999964 -0.800000012 -0.592599988
vn -0.414999992 0.908999979 -0.0390000008
vn -0.141000003 0.9824 -0.122599997
vn -0.311300009 0.551299989 -0.773999989
vn -0.426099986 0.657500029 -0.621399999
vn -0.599699974 0.799700022 0.0271000005
vn -0.386599988 0.58099997 -0.716199994
vn -0.382499993 0.640100002 -0.666299999
vn -0.529399991 0.84829998 0.00079999998
vn 0.540099978 -0.841600001 -0.0046000001
vn 0.298700005 -0.431300014 -0.851300001
vn 0.383300006 -0.585200012 -0.714600027
vn 0.516799986 -0.856100023 0.00380000006
vn 0.346199989 -0.936100006 0.0614
vn 0.516799986 -0.856100023 0.00380000006
vn 0.141599998 -0.770399988 -0.621599972
vn -0.414999992 0.908999979 -0.0390000008
vn -0.426099986 0.657500029 -0.621399999
vn -0.386599988 0.58099997 -0.716199994
vn -0.0612999983 0.987600029 -0.144299999
vn -0.208100006 0.5995 -0.772800028
vn -0.141000003 0.9824 -0.122599997
vn -0.185100004 0.618900001 -0.763300002
vn -0.208100006 0.5995 -0.772800028
vn -0.0612999983 0.987600029 -0.144299999
vn 0.0582000017 -0.987699986 0.145099998
vn -0.126300007 -0.787100017 -0.603699982
vn 0.0454999991 -0.987900019 0.148499995
vn -0.0930999964 -0.800000012 -0.592599988
vn -0.126300007 -0.787100017 -0.603699982
vn 0.0582000017 -0.987699986 0.145099998
vn -0.426099986 0.657500029 -0.621399999
vn 0.141599998 -0.770399988 -0.621599972
vn -0.208100006 0.5995 -0.772800028
vn -0.126300007 -0.787100017 -0.603699982
vn -0.311300009 0.551299989 -0.773999989
vn -0.386599988 0.58099997 -0.716199994
vn 0.383300006 -0.585200012 -0.714600027
vn 0.298700005 -0.431300014 -0.851300001
vn -0.382499993 0.640100002 -0.666299999
vn -0.0930999964 -0.800000012 -0.592599988
vn -0.311300009 0.551299989 -0.773999989
vn 0.575200021 -0.491699994 -0.653800011
vn -0.1303 -0.788299978 -0.601300001
vn -0.185100004 0.618900001 -0.763300002
vn 0.861100018 -0.486900002 0.146200001
vn 0.575200021 -0.491699994 0.653800011
vn -0.1303 -0.788299978 0.601300001
vn 0.0454999991 -0.987900019 -0.148499995
vn -0.0493000001 0.987800002 0.147499993
vn -0.185100004 0.618900001 0.763300002
vn 0.224299997 0.604600012 0.764199972
vn 0.462900013 0.847800016 0.2588
vn 0.462900013 0.847800016 0.2588
vn 0.224299997 0.604600012 0.764199972
vn 0.575200021 -0.491699994 0.653800011
vn 0.861100018 -0.486900002 0.146200001
vn 0.145099998 -0.981899977 -0.1215
vn -0.0930999964 -0.800000012 0.592599988
vn 0.141599998 -0.770399988 0.621599972
vn 0.346199989 -0.936100006 -0.0614
vn -0.414999992 0.908999979 0.0390000008
vn -0.426099986 0.657500029 0.621399999
vn -0.311300009 0.551299989 0.773999989
vn -0.141000003 0.9824 0.122599997
vn -0.599699974 0.799700022 -0.0271000005
vn -0.529399991 0.84829998 -0.00079999998
vn -0.382499993 0.640100002 0.666299999
vn -0.386599988 0.58099997 0.716199994
vn 0.540099978 -0.841600001 0.0046000001
vn 0.516799986 -0.856100023 -0.00380000006
vn 0.38319999 -0.585200012 0.714600027
vn 0.298700005 -0.431300014 0.851300001
vn 0.346199989 -0.936100006 -0.0614
vn 0.141599998 -0.770399988 0.621599972
vn 0.516799986 -0.856100023 -0.00380000006
vn -0.386599988 0.58099997 0.716199994
vn -0.426099986 0.657500029 0.621399999
vn -0.414999992 0.908999979 0.0390000008
vn -0.0612999983 0.987600029 0.144299999
vn -0.141000003 0.9824 0.122599997
vn -0.208100006 0.5995 0.772800028
vn -0.0612999983 0.987600029 0.144299999
vn -0.208100006 0.5995 0.772800028
vn -0.185100004 0.618900001 0.763300002
vn 0.0582000017 -0.987699986 -0.145099998
vn 0.0454999991 -0.987900019 -0.148499995
vn -0.126300007 -0.787100017 0.603699982
vn 0.0582000017 -0.987699986 -0.145099998
vn -0.126300007 -0.787100017 0.603699982
vn -0.0930999964 -0.800000012 0.592599988
vn -0.426099986 0.657500029 0.621399999
vn 0.141599998 -0.770399988 0.621599972
vn -0.208100006 0.5995 0.772800028
vn -0.126300007 -0.787100017 0.603699982
vn -0.311300009 0.551299989 0.773999989
vn -0.386599988 0.58099997 0.716199994
vn -0.382499993 0.640100002 0.666299999
vn 0.298700005 -0.431300014 0.851300001
vn 0.38319999 -0.585200012 0.714600027
vn -0.0930999964 -0.800000012 0.592599988
vn -0.311300009 0.551299989 0.773999989
vn 0.575200021 -0.491699994 0.653800011
vn -0.185100004 0.618900001 0.763300002
vn -0.1303 -0.788299978 0.601300001
f 1/1/1 2/2/2 3/3/3
f 1/1/1 3/3/3 4/4/4
f 5/5/5 6/6/6 7/7/7
f 5/5/5 7/7/7 8/8/8
f 9/9/9 10/10/10 11/11/11
f 9/9/9 11/11/11 12/12/12
f 13/13/13 14/14/14 15/15/15
f 13/13/13 15/15/15 16/16/16
f 17/17/17 18/18/18 19/19/19
f 17/17/17 19/19/19 20/20/20
f 21/21/21 22/22/22 23/23/23
f 21/21/21 23/23/23 24/24/24
f 25/25/25 26/26/26 27/27/27
f 25/25/25 27/27/27 28/28/28
f 29/29/29 30/30/30 27/27/27
f 29/29/29 27/27/27 31/31/31
f 21/21/21 32/32/32 33/33/33
f 21/21/21 33/33/33 34/34/34
f 35/35/35 36/36/36 19/19/19
f 35/35/35 19/19/19 37/37/37
f 5/5/5 38/38/38 39/39/39
f 5/5/5 39/39/39 40/40/40
f 41/41/41 42/42/42 3/3/3
f 41/41/41 3/3/3 43/43/43
f 13/13/13 44/44/44 45/45/45
f 13/13/13 45/45/45 46/46/46
f 47/47/47 48/48/48 27/27/27
f 47/47/47 27/27/27 34/34/34
f 49/49/49 38/38/38 3/3/3
f 49/49/49 3/3/3 50/50/50
f 51/51/51 36/36/36 45/45/45
f 51/51/51 45/45/45 16/16/16
f 52/52/52 53/53/53 54/54/54
f 52/52/52 54/54/54 55/55/55
f 56/56/56 48/48/48 33/33/33
f 56/56/56 33/33/33 57/57/57
f 58/58/58 59/59/59 60/60/60
f 58/58/58 60/60/60 12/12/12
f 61/61/61 62/62/62 63/63/63
f 61/61/61 63/63/63 64/64/64
f 65/65/65 66/66/66 67/67/67
f 65/65/65 67/67/67 68/68/68
f 69/69/69 70/70/70 71/71/71
f 69/69/69 71/71/71 72/72/72
f 73/73/73 74/74/74 75/75/75
f 73/73/73 75/75/75 76/76/76
f 77/77/77 78/78/78 79/79/79
f 77/77/77 79/79/79 80/80/80
f 81/81/81 82/82/82 83/83/83
f 81/81/81 83/83/83 84/84/84
f 85/85/85 86/86/86 87/87/87
f 85/85/85 87/87/87 88/88/88
f 89/89/89 90/90/90 87/87/87
f 89/89/89 87/87/87 91/91/91
f 81/81/81 92/92/92 93/93/93
f 81/81/81 93/93/93 94/94/94
f 95/95/95 96/96/96 79/79/79
f 95/95/95 79/79/79 97/97/97
f 65/65/65 98/98/98 99/99/99
f 65/65/65 99/99/99 100/100/100
f 101/101/101 102/102/102 63/63/63
f 101/101/101 63/63/63 103/103/103
f 73/73/73 104/104/104 105/105/105
f 73/73/73 105/105/105 106/106/106
f 107/107/107 92/92/92 87/87/87
f 107/107/107 87/87/87 108/108/108
f 109/109/109 110/110/110 63/63/63
f 109/109/109 63/63/63 100/100/100
f 111/111/111 74/74/74 105/105/105
f 111/111/111 105/105/105 97/97/97
f 112/112/112 113/113/113 114/114/114
f 112/112/112 114/114/114 115/115/115
f 116/116/116 117/117/117 93/93/93
f 116/116/116 93/93/93 108/108/108
f 118/118/118 70/70/70 119/119/119
f 118/118/118 119/119/119 120/120/120
