# Generated by lxe_pbrt_scene_convert
v -3.58730102 -0.0860019997 1.85254204
v -3.5933969 -0.0832820013 1.852525
v -3.59000802 -0.0779640004 1.852525
v -3.58224607 -0.0811280012 1.852525
v -3.5933969 -0.0832820013 1.852525
v -3.72790504 -0.0746489987 1.79421198
v -3.72473907 -0.0689639971 1.79273701
v -3.59000802 -0.0779640004 1.852525
v -3.72790504 -0.0746489987 1.79421198
v -3.82564998 -0.0734319985 1.748294
v -3.82252002 -0.0685169995 1.74785697
v -3.72473907 -0.0689639971 1.79273701
v -3.82564998 -0.0734319985 1.748294
v -3.87631297 -0.0730199963 1.71396196
v -3.87395406 -0.0673329979 1.71352506
v -3.82252002 -0.0685169995 1.74785697
v -3.51954508 -0.123645999 1.85271096
v -3.58730102 -0.0860019997 1.85254204
v -3.58224607 -0.0811280012 1.852525
v -3.51477098 -0.117181003 1.852525
v -3.7294879 -0.0733169988 1.79984403
v -3.72939301 -0.0733970031 1.79950595
v -3.59488511 -0.0820299983 1.85781896
v -3.59498 -0.0819500014 1.85815704
v -3.87789702 -0.0716879964 1.719594
v -3.8778019 -0.0717680007 1.71925604
v -3.82713795 -0.0721800029 1.75358796
v -3.82723403 -0.0720999986 1.75392604
v -3.82723403 -0.0720999986 1.75392604
v -3.82713795 -0.0721800029 1.75358796
v -3.72939301 -0.0733970031 1.79950595
v -3.7294879 -0.0733169988 1.79984403
v -3.58888412 -0.0846709982 1.85817397
v -3.58878899 -0.0847510025 1.85783601
v -3.521034 -0.122394003 1.85800505
v -3.52112889 -0.122313999 1.85834301
v -3.59498 -0.0819500014 1.85815704
v -3.59488511 -0.0820299983 1.85781896
v -3.58878899 -0.0847510025 1.85783601
v -3.58888412 -0.0846709982 1.85817397
v -3.72632194 -0.0676319972 1.79836905
v -3.72622705 -0.0677120015 1.79803097
v -3.82400799 -0.0672649965 1.75315106
v -3.82410312 -0.0671849996 1.75348902
v -3.59159207 -0.0766320005 1.85815704
v -3.59149694 -0.0767119974 1.85781896
v -3.72622705 -0.0677120015 1.79803097
v -3.72632194 -0.0676319972 1.79836905
v -3.58383012 -0.0797969997 1.85815704
v -3.58373499 -0.0798769966 1.85781896
v -3.59149694 -0.0767119974 1.85781896
v -3.59159207 -0.0766320005 1.85815704
v -3.51635408 -0.115849003 1.85815704
v -3.51625896 -0.115929 1.85781896
v -3.58373499 -0.0798769966 1.85781896
v -3.58383012 -0.0797969997 1.85815704
v -3.82410312 -0.0671849996 1.75348902
v -3.82400799 -0.0672649965 1.75315106
v -3.87544298 -0.0660810024 1.71881902
v -3.87553811 -0.066000998 1.71915698
v -3.72804594 -0.074529998 1.79471505
v -3.59353805 -0.0831630006 1.85302806
v -3.72790504 -0.0746489987 1.79421198
v -3.5933969 -0.0832820013 1.852525
v -3.87645507 -0.0729010031 1.71446502
v -3.82579088 -0.0733129978 1.74879706
v -3.87631297 -0.0730199963 1.71396196
v -3.82579088 -0.0733129978 1.74879706
v -3.72804594 -0.074529998 1.79471505
v -3.82564998 -0.0734319985 1.748294
v -3.58744192 -0.085882999 1.85304499
v -3.51968694 -0.123526998 1.85321403
v -3.58730102 -0.0860019997 1.85254204
v -3.51954508 -0.123645999 1.85271096
v -3.59353805 -0.0831630006 1.85302806
v -3.58744192 -0.085882999 1.85304499
v -3.5933969 -0.0832820013 1.852525
v -3.58730102 -0.0860019997 1.85254204
v -3.72487998 -0.0688449964 1.79323995
v -3.82266092 -0.0683979988 1.74836004
v -3.82252002 -0.0685169995 1.74785697
v -3.59015012 -0.0778449997 1.85302806
v -3.72487998 -0.0688449964 1.79323995
v -3.72473907 -0.0689639971 1.79273701
v -3.58238792 -0.0810090005 1.85302806
v -3.59015012 -0.0778449997 1.85302806
v -3.51491189 -0.117062002 1.85302806
v -3.58238792 -0.0810090005 1.85302806
v -3.51477098 -0.117181003 1.852525
v -3.82266092 -0.0683979988 1.74836004
v -3.87409496 -0.0672139972 1.714028
v -3.87395406 -0.0673329979 1.71352506
v -3.58730102 -0.0860019997 -1.85254204
v -3.58224607 -0.0811280012 -1.852525
v -3.59000802 -0.0779640004 -1.852525
v -3.5933969 -0.0832820013 -1.852525
v -3.5933969 -0.0832820013 -1.852525
v -3.59000802 -0.0779640004 -1.852525
v -3.72473907 -0.0689639971 -1.79273701
v -3.72790504 -0.0746489987 -1.79421198
v -3.72790504 -0.0746489987 -1.79421198
v -3.72473907 -0.0689639971 -1.79273701
v -3.82252002 -0.0685169995 -1.74785697
v -3.82564998 -0.0734319985 -1.748294
v -3.82564998 -0.0734319985 -1.748294
v -3.82252002 -0.0685169995 -1.74785697
v -3.87395406 -0.0673329979 -1.71352506
v -3.87631297 -0.0730199963 -1.71396196
v -3.51954508 -0.123645999 -1.85271096
v -3.51477098 -0.117181003 -1.852525
v -3.58224607 -0.0811280012 -1.852525
v -3.58730102 -0.0860019997 -1.85254204
v -3.7294879 -0.0733169988 -1.79984403
v -3.59498 -0.0819500014 -1.85815704
v -3.59488511 -0.0820299983 -1.85781896
v -3.72939301 -0.0733970031 -1.79950595
v -3.87789702 -0.0716879964 -1.719594
v -3.82723403 -0.0720999986 -1.75392604
v -3.82713795 -0.0721800029 -1.75358796
v -3.8778019 -0.0717680007 -1.71925604
v -3.82723403 -0.0720999986 -1.75392604
v -3.7294879 -0.0733169988 -1.79984403
v -3.72939301 -0.0733970031 -1.79950595
v -3.82713795 -0.0721800029 -1.75358796
v -3.58888412 -0.0846709982 -1.85817397
v -3.52112889 -0.122313999 -1.85834301
v -3.521034 -0.122394003 -1.85800505
v -3.58878899 -0.0847510025 -1.85783601
v -3.59498 -0.0819500014 -1.85815704
v -3.58888412 -0.0846709982 -1.85817397
v -3.58878899 -0.0847510025 -1.85783601
v -3.59488511 -0.0820299983 -1.85781896
v -3.72632194 -0.0676319972 -1.79836905
v -3.82410312 -0.0671849996 -1.75348902
v -3.82400799 -0.0672649965 -1.75315106
v -3.72622705 -0.0677120015 -1.79803097
v -3.59159207 -0.0766320005 -1.85815704
v -3.72632194 -0.0676319972 -1.79836905
v -3.72622705 -0.0677120015 -1.79803097
v -3.59149694 -0.0767119974 -1.85781896
v -3.58383012 -0.0797969997 -1.85815704
v -3.59159207 -0.0766320005 -1.85815704
v -3.59149694 -0.0767119974 -1.85781896
v -3.58373499 -0.0798769966 -1.85781896
v -3.51635408 -0.115849003 -1.85815704
v -3.58383012 -0.0797969997 -1.85815704
v -3.58373499 -0.0798769966 -1.85781896
v -3.51625896 -0.115929 -1.85781896
v -3.82410312 -0.0671849996 -1.75348902
v -3.87553811 -0.066000998 -1.71915698
v -3.87544298 -0.0660810024 -1.71881902
v -3.82400799 -0.0672649965 -1.75315106
v -3.59353805 -0.0831630006 -1.85302806
v -3.72804594 -0.074529998 -1.79471505
v -3.5933969 -0.0832820013 -1.852525
v -3.72790504 -0.0746489987 -1.79421198
v -3.82579088 -0.0733129978 -1.74879706
v -3.87645507 -0.0729010031 -1.71446502
v -3.87631297 -0.0730199963 -1.71396196
v -3.72804594 -0.074529998 -1.79471505
v -3.82579088 -0.0733129978 -1.74879706
v -3.82564998 -0.0734319985 -1.748294
v -3.51968694 -0.123526998 -1.85321403
v -3.58744192 -0.085882999 -1.85304499
v -3.51954508 -0.123645999 -1.85271096
v -3.58730102 -0.0860019997 -1.85254204
v -3.58744192 -0.085882999 -1.85304499
v -3.59353805 -0.0831630006 -1.85302806
v -3.58730102 -0.0860019997 -1.85254204
v -3.5933969 -0.0832820013 -1.852525
v -3.82266092 -0.0683979988 -1.74836004
v -3.72487998 -0.0688449964 -1.79323995
v -3.82252002 -0.0685169995 -1.74785697
v -3.72487998 -0.0688449964 -1.79323995
v -3.59015012 -0.0778449997 -1.85302806
v -3.72473907 -0.0689639971 -1.79273701
v -3.59015012 -0.0778449997 -1.85302806
v -3.58238792 -0.0810090005 -1.85302806
v -3.58238792 -0.0810090005 -1.85302806
v -3.51491189 -0.117062002 -1.85302806
v -3.51477098 -0.117181003 -1.852525
v -3.87409496 -0.0672139972 -1.714028
v -3.82266092 -0.0683979988 -1.74836004
v -3.87395406 -0.0673329979 -1.71352506
vt 0 0
vt 1 0
vt 1 1
vt 0 1
vt 0 0
vt 1 0
vt 1 1
vt 0 1
vt 0 0
vt 0 1
vt 1 1
vt 1 0
vt 0 0
vt 1 0
vt 1 1
vt 0 1
vt 0 0
vt 1 0
vt 1 1
vt 0 1
vt 1 0
vt 1 0.5
vt 0 0.5
vt 0 0
vt 1 0
vt 1 0.5
vt 0 0.5
vt 0 0
vt 0 1
vt 0.5 1
vt 0.5 0
vt 0 0
vt 1 0
vt 1 0.5
vt 0 0.5
vt 0 0
vt 1 0
vt 1 0.5
vt 0 0.5
vt 0 0
vt 0 1
vt 0.5 1
vt 0.5 0
vt 0 0
vt 1 0
vt 1 0.5
vt 0 0.5
vt 0 0
vt 1 0
vt 1 0.5
vt 0 0.5
vt 0 0
vt 1 0
vt 1 0.5
vt 0 0.5
vt 0 0
vt 1 0
vt 1 0.5
vt 0 0.5
vt 0 0
vt 1 0.75
vt -0 0.75
vt 1 1
vt 0 1
vt 1 0.75
vt -0 0.75
vt 1 1
vt 0.75 1
vt 0.75 -0
vt 1 1
vt 1 0.75
vt -0 0.75
vt 1 1
vt 0 1
vt 1 0.75
vt -0 0.75
vt 1 1
vt 0 1
vt 0.75 1
vt 0.75 -0
vt 1 0
vt 1 0.75
vt -0 0.75
vt 0 1
vt 1 0.75
vt 0 0.75
vt 1 0.75
vt -0 0.75
vt 1 1
vt 1 0.75
vt 0 0.75
vt 0 1
vt 0 0
vt 0 1
vt 1 1
vt 1 0
vt 0 0
vt 0 1
vt 1 1
vt 1 0
vt 0 0
vt 1 0
vt 1 1
vt 0 1
vt 0 0
vt 0 1
vt 1 1
vt 1 0
vt 0 0
vt 0 1
vt 1 1
vt 1 0
vt 1 0
vt 0 0
vt 0 0.5
vt 1 0.5
vt 1 0
vt 0 0
vt 0 0.5
vt 1 0.5
vt 0 1
vt 0 0
vt 0.5 0
vt 0.5 1
vt 1 0
vt 0 0
vt 0 0.5
vt 1 0.5
vt 1 0
vt 0 0
vt 0 0.5
vt 1 0.5
vt 0 1
vt 0 0
vt 0.5 0
vt 0.5 1
vt 1 0
vt 0 0
vt 0 0.5
vt 1 0.5
vt 1 0
vt 0 0
vt 0 0.5
vt 1 0.5
vt 1 0
vt 0 0
vt 0 0.5
vt 1 0.5
vt 1 0
vt 0 0
vt 0 0.5
vt 1 0.5
vt -0 0.75
vt 1 0.75
vt 0 1
vt 1 1
vt -0 0.75
vt 1 0.75
vt 1 1
vt 0.75 -0
vt 0.75 1
vt 1 1
vt -0 0.75
vt 1 0.75
vt 0 1
vt 1 1
vt -0 0.75
vt 1 0.75
vt 0 1
vt 1 1
vt 0.75 -0
vt 0.75 1
vt 1 0
vt -0 0.75
vt 1 0.75
vt 0 1
vt 0 0.75
vt 1 0.75
vt -0 0.75
vt 1 0.75
vt 1 1
vt 0 0.75
vt 1 0.75
vt 0 1
vn -0.331099987 -0.648599982 -0.685299993
vn -0.0584000014 -0.832300007 -0.551199973
vn 0.294400007 0.650600016 -0.699999988
vn 0.297600001 0.614700019 -0.730499983
vn -0.0584000014 -0.832300007 -0.551199973
vn 0.166999996 -0.884899974 -0.434700012
vn 0.370400012 0.4824 -0.793799996
vn 0.294400007 0.650600016 -0.699999988
vn 0.166999996 -0.884899974 -0.434700012
vn 0.220100001 -0.896399975 -0.384600013
vn 0.426600009 0.476900011 -0.76849997
vn 0.370400012 0.4824 -0.793799996
vn 0.220100001 -0.896399975 -0.384600013
vn 0.265500009 -0.873099983 -0.408800006
vn 0.539600015 0.290699989 -0.790099978
vn 0.426600009 0.476900011 -0.76849997
vn -0.296499997 -0.535399973 -0.790899992
vn -0.331099987 -0.648599982 -0.685299993
vn 0.297600001 0.614700019 -0.730499983
vn 0.293300003 0.547399998 -0.783699989
vn -0.127000004 -0.9727 0.194199994
vn -0.125300005 -0.972800016 0.194700003
vn -0.277799994 -0.949400008 0.146300003
vn -0.267100006 -0.951900005 0.149800003
vn -0.137400001 -0.971899986 0.191
vn -0.137400001 -0.971899986 0.191100001
vn -0.121799998 -0.973100007 0.195700005
vn -0.119400002 -0.973200023 0.196400002
vn -0.119400002 -0.973200023 0.196400002
vn -0.121799998 -0.973100007 0.195700005
vn -0.125300005 -0.972800016 0.194700003
vn -0.127000004 -0.9727 0.194199994
vn -0.437099993 -0.894999981 0.0886000022
vn -0.445600003 -0.891099989 0.0852999985
vn -0.484600008 -0.871900022 0.0697999969
vn -0.484600008 -0.871900022 0.0697000027
vn -0.267100006 -0.951900005 0.149800003
vn -0.277799994 -0.949400008 0.146300003
vn -0.445600003 -0.891099989 0.0852999985
vn -0.437099993 -0.894999981 0.0886000022
vn 0.125200003 0.972800016 -0.194800004
vn 0.122900002 0.97299999 -0.1954
vn 0.122699998 0.97299999 -0.195500001
vn 0.119000003 0.973200023 -0.196600005
vn 0.254700005 0.954599977 -0.153999999
vn 0.263599992 0.952700019 -0.150999993
vn 0.122900002 0.97299999 -0.1954
vn 0.125200003 0.972800016 -0.194800004
vn 0.412800014 0.905499995 -0.0978000015
vn 0.423099995 0.901199996 -0.0939999968
vn 0.263599992 0.952700019 -0.150999993
vn 0.254700005 0.954599977 -0.153999999
vn 0.469799995 0.879499972 -0.0756999999
vn 0.469799995 0.879499972 -0.0756999999
vn 0.423099995 0.901199996 -0.0939999968
vn 0.412800014 0.905499995 -0.0978000015
vn 0.119000003 0.973200023 -0.196600005
vn 0.122699998 0.97299999 -0.195500001
vn 0.147799999 0.971000016 -0.187999994
vn 0.1479 0.970899999 -0.187999994
vn -0.125300005 -0.972800016 0.194700003
vn -0.277700007 -0.949400008 0.146300003
vn 0.166999996 -0.884899974 -0.434700012
vn -0.0584000014 -0.832300007 -0.551199973
vn -0.137400001 -0.971899986 0.191200003
vn -0.1219 -0.97299999 0.195800006
vn 0.265500009 -0.873099983 -0.408800006
vn -0.1219 -0.97299999 0.195800006
vn -0.125300005 -0.972800016 0.194700003
vn 0.220100001 -0.896399975 -0.384600013
vn -0.445600003 -0.891099989 0.0854000002
vn -0.484600008 -0.871900022 0.0698999986
vn -0.331099987 -0.648599982 -0.685299993
vn -0.296499997 -0.535399973 -0.790899992
vn -0.277700007 -0.949400008 0.146300003
vn -0.445600003 -0.891099989 0.0854000002
vn -0.0584000014 -0.832300007 -0.551199973
vn -0.331099987 -0.648599982 -0.685299993
vn 0.122900002 0.97299999 -0.1954
vn 0.122699998 0.97299999 -0.195500001
vn 0.426600009 0.476900011 -0.76849997
vn 0.263599992 0.952700019 -0.151099995
vn 0.122900002 0.97299999 -0.1954
vn 0.370400012 0.4824 -0.793799996
vn 0.423099995 0.901199996 -0.0940999985
vn 0.263599992 0.952700019 -0.151099995
vn 0.469900012 0.879499972 -0.0758000016
vn 0.423099995 0.901199996 -0.0940999985
vn 0.293300003 0.547399998 -0.783699989
vn 0.122699998 0.97299999 -0.195500001
vn 0.1479 0.970899999 -0.187999994
vn 0.539600015 0.290699989 -0.790099978
vn -0.331099987 -0.648599982 0.685299993
vn 0.297600001 0.614700019 0.730499983
vn 0.294400007 0.650600016 0.699999988
vn -0.0584999993 -0.832300007 0.551199973
vn -0.0584999993 -0.832300007 0.551199973
vn 0.294400007 0.650600016 0.699999988
vn 0.370400012 0.4824 0.793799996
vn 0.166999996 -0.884899974 0.434700012
vn 0.166999996 -0.884899974 0.434700012
vn 0.370400012 0.4824 0.793799996
vn 0.426600009 0.476900011 0.76849997
vn 0.220100001 -0.896399975 0.384600013
vn 0.220100001 -0.896399975 0.384600013
vn 0.426600009 0.476900011 0.76849997
vn 0.539600015 0.290699989 0.790099978
vn 0.265500009 -0.873199999 0.408800006
vn -0.296400011 -0.535399973 0.790899992
vn 0.293300003 0.547399998 0.783699989
vn 0.297600001 0.614700019 0.730499983
vn -0.331099987 -0.648599982 0.685299993
vn -0.127000004 -0.9727 -0.194199994
vn -0.267100006 -0.951900005 -0.149800003
vn -0.277799994 -0.949400008 -0.146300003
vn -0.125300005 -0.972800016 -0.194700003
vn -0.137400001 -0.971899986 -0.191100001
vn -0.119400002 -0.973200023 -0.196400002
vn -0.121799998 -0.973100007 -0.195700005
vn -0.137400001 -0.971899986 -0.191100001
vn -0.119400002 -0.973200023 -0.196400002
vn -0.127000004 -0.9727 -0.194199994
vn -0.125300005 -0.972800016 -0.194700003
vn -0.121799998 -0.973100007 -0.195700005
vn -0.437099993 -0.894999981 -0.0886000022
vn -0.484499991 -0.871999979 -0.0697000027
vn -0.484499991 -0.871900022 -0.0697999969
vn -0.445600003 -0.891099989 -0.0852999985
vn -0.267100006 -0.951900005 -0.149800003
vn -0.437099993 -0.894999981 -0.0886000022
vn -0.445600003 -0.891099989 -0.0852999985
vn -0.277799994 -0.949400008 -0.146300003
vn 0.125200003 0.972800016 0.194700003
vn 0.118900001 0.973200023 0.196600005
vn 0.122699998 0.97299999 0.195500001
vn 0.122900002 0.97299999 0.1954
vn 0.254799992 0.954599977 0.153999999
vn 0.125200003 0.972800016 0.194700003
vn 0.122900002 0.97299999 0.1954
vn 0.263700008 0.952700019 0.150999993
vn 0.412800014 0.905499995 0.0978000015
vn 0.254799992 0.954599977 0.153999999
vn 0.263700008 0.952700019 0.150999993
vn 0.423099995 0.901199996 0.0939999968
vn 0.469799995 0.879499972 0.0756999999
vn 0.412800014 0.905499995 0.0978000015
vn 0.423099995 0.901199996 0.0939999968
vn 0.469900012 0.879499972 0.0756999999
vn 0.118900001 0.973200023 0.196600005
vn 0.1479 0.970899999 0.187999994
vn 0.147799999 0.970899999 0.187999994
vn 0.122699998 0.97299999 0.195500001
vn -0.277700007 -0.949400008 -0.146300003
vn -0.125300005 -0.972800016 -0.194700003
vn -0.0584999993 -0.832300007 0.551199973
vn 0.166999996 -0.884899974 0.434700012
vn -0.1219 -0.97299999 -0.195800006
vn -0.137500003 -0.971899986 -0.191200003
vn 0.265500009 -0.873199999 0.408800006
vn -0.125300005 -0.972800016 -0.194700003
vn -0.1219 -0.97299999 -0.195800006
vn 0.220100001 -0.896399975 0.384600013
vn -0.484600008 -0.871900022 -0.0698999986
vn -0.445600003 -0.891099989 -0.0854000002
vn -0.296400011 -0.535399973 0.790899992
vn -0.331099987 -0.648599982 0.685299993
vn -0.445600003 -0.891099989 -0.0854000002
vn -0.277700007 -0.949400008 -0.146300003
vn -0.331099987 -0.648599982 0.685299993
vn -0.0584999993 -0.832300007 0.551199973
vn 0.122699998 0.97299999 0.195500001
vn 0.122900002 0.97299999 0.1954
vn 0.426600009 0.476900011 0.76849997
vn 0.122900002 0.97299999 0.1954
vn 0.263599992 0.952700019 0.151099995
vn 0.370400012 0.4824 0.793799996
vn 0.263599992 0.952700019 0.151099995
vn 0.423099995 0.901199996 0.0940999985
vn 0.423099995 0.901199996 0.0940999985
vn 0.469900012 0.879400015 0.0758000016
vn 0.293300003 0.547399998 0.783699989
vn 0.1479 0.970899999 0.187999994
vn 0.122699998 0.97299999 0.195500001
vn 0.539600015 0.290699989 0.790099978
f 1/1/1 2/2/2 3/3/3
f 1/1/1 3/3/3 4/4/4
f 5/5/5 6/6/6 7/7/7
f 5/5/5 7/7/7 8/8/8
f 9/9/9 10/10/10 11/11/11
f 9/9/9 11/11/11 12/12/12
f 13/13/13 14/14/14 15/15/15
f 13/13/13 15/15/15 16/16/16
f 17/17/17 18/18/18 19/19/19
f 17/17/17 19/19/19 20/20/20
f 21/21/21 22/22/22 23/23/23
f 21/21/21 23/23/23 24/24/24
f 25/25/25 26/26/26 27/27/27
f 25/25/25 27/27/27 28/28/28
f 29/29/29 30/30/30 31/31/31
f 29/29/29 31/31/31 32/32/32
f 33/33/33 34/34/34 35/35/35
f 33/33/33 35/35/35 36/36/36
f 37/37/37 38/38/38 39/39/39
f 37/37/37 39/39/39 40/40/40
f 41/41/41 42/42/42 43/43/43
f 41/41/41 43/43/43 44/44/44
f 45/45/45 46/46/46 47/47/47
f 45/45/45 47/47/47 48/48/48
f 49/49/49 50/50/50 51/51/51
f 49/49/49 51/51/51 52/52/52
f 53/53/53 54/54/54 55/55/55
f 53/53/53 55/55/55 56/56/56
f 57/57/57 58/58/58 59/59/59
f 57/57/57 59/59/59 60/60/60
f 22/22/22 61/61/61 62/62/62
f 22/22/22 62/62/62 23/23/23
f 61/61/61 63/63/63 64/64/64
f 61/61/61 64/64/64 62/62/62
f 26/26/26 65/65/65 66/66/66
f 26/26/26 66/66/66 27/27/27
f 65/65/65 67/67/67 10/10/10
f 65/65/65 10/10/10 66/66/66
f 30/30/30 68/68/68 69/69/69
f 30/30/30 69/69/69 31/31/31
f 68/68/68 70/70/70 6/6/6
f 68/68/68 6/6/6 69/69/69
f 34/34/34 71/71/71 72/72/72
f 34/34/34 72/72/72 35/35/35
f 71/71/71 73/73/73 74/74/74
f 71/71/71 74/74/74 72/72/72
f 38/38/38 75/75/75 76/76/76
f 38/38/38 76/76/76 39/39/39
f 75/75/75 77/77/77 78/78/78
f 75/75/75 78/78/78 76/76/76
f 42/42/42 79/79/79 80/80/80
f 42/42/42 80/80/80 43/43/43
f 79/79/79 7/7/7 81/81/81
f 79/79/79 81/81/81 80/80/80
f 46/46/46 82/82/82 83/83/83
f 46/46/46 83/83/83 47/47/47
f 82/82/82 3/3/3 84/84/84
f 82/82/82 84/84/84 83/83/83
f 50/50/50 85/85/85 86/86/86
f 50/50/50 86/86/86 51/51/51
f 85/85/85 19/19/19 8/8/8
f 85/85/85 8/8/8 86/86/86
f 54/54/54 87/87/87 88/88/88
f 54/54/54 88/88/88 55/55/55
f 87/87/87 89/89/89 4/4/4
f 87/87/87 4/4/4 88/88/88
f 58/58/58 90/90/90 91/91/91
f 58/58/58 91/91/91 59/59/59
f 90/90/90 11/11/11 92/92/92
f 90/90/90 92/92/92 91/91/91
f 93/93/93 94/94/94 95/95/95
f 93/93/93 95/95/95 96/96/96
f 97/97/97 98/98/98 99/99/99
f 97/97/97 99/99/99 100/100/100
f 101/101/101 102/102/102 103/103/103
f 101/101/101 103/103/103 104/104/104
f 105/105/105 106/106/106 107/107/107
f 105/105/105 107/107/107 108/108/108
f 109/109/109 110/110/110 111/111/111
f 109/109/109 111/111/111 112/112/112
f 113/113/113 114/114/114 115/115/115
f 113/113/113 115/115/115 116/116/116
f 117/117/117 118/118/118 119/119/119
f 117/117/117 119/119/119 120/120/120
f 121/121/121 122/122/122 123/123/123
f 121/121/121 123/123/123 124/124/124
f 125/125/125 126/126/126 127/127/127
f 125/125/125 127/127/127 128/128/128
f 129/129/129 130/130/130 131/131/131
f 129/129/129 131/131/131 132/132/132
f 133/133/133 134/134/134 135/135/135
f 133/133/133 135/135/135 136/136/136
f 137/137/137 138/138/138 139/139/139
f 137/137/137 139/139/139 140/140/140
f 141/141/141 142/142/142 143/143/143
f 141/141/141 143/143/143 144/144/144
f 145/145/145 146/146/146 147/147/147
f 145/145/145 147/147/147 148/148/148
f 149/149/149 150/150/150 151/151/151
f 149/149/149 151/151/151 152/152/152
f 116/116/116 115/115/115 153/153/153
f 116/116/116 153/153/153 154/154/154
f 154/154/154 153/153/153 155/155/155
f 154/154/154 155/155/155 156/156/156
f 120/120/120 119/119/119 157/157/157
f 120/120/120 157/157/157 158/158/158
f 158/158/158 157/157/157 104/104/104
f 158/158/158 104/104/104 159/159/159
f 124/124/124 123/123/123 160/160/160
f 124/124/124 160/160/160 161/161/161
f 161/161/161 160/160/160 100/100/100
f 161/161/161 100/100/100 162/162/162
f 128/128/128 127/127/127 163/163/163
f 128/128/128 163/163/163 164/164/164
f 164/164/164 163/163/163 165/165/165
f 164/164/164 165/165/165 166/166/166
f 132/132/132 131/131/131 167/167/167
f 132/132/132 167/167/167 168/168/168
f 168/168/168 167/167/167 169/169/169
f 168/168/168 169/169/169 170/170/170
f 136/136/136 135/135/135 171/171/171
f 136/136/136 171/171/171 172/172/172
f 172/172/172 171/171/171 173/173/173
f 172/172/172 173/173/173 99/99/99
f 140/140/140 139/139/139 174/174/174
f 140/140/140 174/174/174 175/175/175
f 175/175/175 174/174/174 176/176/176
f 175/175/175 176/176/176 95/95/95
f 144/144/144 143/143/143 177/177/177
f 144/144/144 177/177/177 178/178/178
f 178/178/178 177/177/177 98/98/98
f 178/178/178 98/98/98 111/111/111
f 148/148/148 147/147/147 179/179/179
f 148/148/148 179/179/179 180/180/180
f 180/180/180 179/179/179 94/94/94
f 180/180/180 94/94/94 181/181/181
f 152/152/152 151/151/151 182/182/182
f 152/152/152 182/182/182 183/183/183
f 183/183/183 182/182/182 184/184/184
f 183/183/183 184/184/184 103/103/103
