# Generated by lxe_pbrt_scene_convert
v 2.66662097 -0.751504004 1.72233903
v 2.66769505 -0.742352009 1.72239804
v 2.70545197 -0.751504004 1.72233903
v 2.6734879 -0.730502009 1.72247505
v 2.68208909 -0.721083999 1.72253501
v 2.69397306 -0.714733005 1.72257602
v 2.70545197 -0.712498009 1.72258997
v 2.74717903 -0.754170001 1.72232199
v 2.74610591 -0.763321996 1.72226298
v 2.70834804 -0.754170001 1.72232199
v 2.74031305 -0.775173008 1.72218704
v 2.73171091 -0.784590006 1.72212601
v 2.71982694 -0.790941 1.722085
v 2.70834804 -0.793175995 1.72207105
v 2.70834804 -0.793196023 1.72516799
v 2.70834804 -0.754190028 1.72541904
v 2.74717903 -0.754190028 1.72541904
v 2.71982694 -0.790961027 1.72518206
v 2.73171091 -0.784609973 1.72522295
v 2.74031305 -0.775192976 1.72528398
v 2.74610591 -0.763342023 1.72536004
v 2.70545197 -0.712517023 1.72568703
v 2.70545197 -0.751523972 1.72543597
v 2.66662097 -0.751523972 1.72543597
v 2.69397306 -0.714752972 1.72567296
v 2.68208909 -0.72110498 1.72563195
v 2.6734879 -0.730521023 1.72557104
v 2.66769505 -0.742371976 1.72549498
vn -0.613099992 -0.541700006 -0.574899971
vn -0.711300015 0.213300005 -0.669799984
vn 0.577300012 -0.573599994 -0.58099997
vn -0.608900011 0.418599993 -0.673799992
vn -0.455000013 0.589699984 -0.667200029
vn -0.247099996 0.699400008 -0.670599997
vn 0.523500025 0.638800025 -0.563799977
vn 0.613099992 0.549099982 -0.567900002
vn 0.711300015 -0.204600006 -0.672399998
vn -0.577300012 0.58099997 -0.573599994
vn 0.608900011 -0.40990001 -0.679099977
vn 0.455000013 -0.581099987 -0.674700022
vn 0.247099996 -0.690699995 -0.6796
vn -0.523500025 -0.631500006 -0.572000027
vn -0.523400009 -0.638800025 0.563799977
vn -0.577300012 0.573599994 0.58099997
vn 0.613099992 0.541800022 0.574899971
vn 0.247099996 -0.699400008 0.670599997
vn 0.455000013 -0.5898 0.667200029
vn 0.608900011 -0.418599993 0.673799992
vn 0.711300015 -0.213200003 0.669799984
vn 0.523400009 0.631600022 0.57190001
vn 0.577300012 -0.58099997 0.573599994
vn -0.613099992 -0.549099982 0.567900002
vn -0.247099996 0.690699995 0.6796
vn -0.4551 0.581099987 0.674700022
vn -0.608900011 0.409999996 0.679099977
vn -0.711300015 0.204600006 0.672500014
f 1//1 2//2 3//3
f 2//2 4//4 3//3
f 4//4 5//5 3//3
f 5//5 6//6 3//3
f 6//6 7//7 3//3
f 8//8 9//9 10//10
f 9//9 11//11 10//10
f 11//11 12//12 10//10
f 12//12 13//13 10//10
f 13//13 14//14 10//10
f 10//10 14//14 15//15
f 10//10 15//15 16//16
f 8//8 10//10 16//16
f 8//8 16//16 17//17
f 14//14 13//13 18//18
f 14//14 18//18 15//15
f 13//13 12//12 19//19
f 13//13 19//19 18//18
f 12//12 11//11 20//20
f 12//12 20//20 19//19
f 11//11 9//9 21//21
f 11//11 21//21 20//20
f 9//9 8//8 17//17
f 9//9 17//17 21//21
f 3//3 7//7 22//22
f 3//3 22//22 23//23
f 1//1 3//3 23//23
f 1//1 23//23 24//24
f 7//7 6//6 25//25
f 7//7 25//25 22//22
f 6//6 5//5 26//26
f 6//6 26//26 25//25
f 5//5 4//4 27//27
f 5//5 27//27 26//26
f 4//4 2//2 28//28
f 4//4 28//28 27//27
f 2//2 1//1 24//24
f 2//2 24//24 28//28
f 23//23 28//28 24//24
f 23//23 27//27 28//28
f 23//23 26//26 27//27
f 23//23 25//25 26//26
f 23//23 22//22 25//25
f 16//16 21//21 17//17
f 16//16 20//20 21//21
f 16//16 19//19 20//20
f 16//16 18//18 19//19
f 16//16 15//15 18//18
