# Generated by lxe_pbrt_scene_convert
v -2.46280098 -0.0389650017 1.86750603
v -2.46434689 -0.0389989987 1.866943
v -2.46735191 -0.0357719995 1.86678505
v -2.46738601 -0.0346210003 1.86737597
v -2.41396809 -0.0334950015 1.86338305
v -2.41023493 -0.0377920009 1.86357605
v -2.40650201 -0.0420899987 1.86231101
v -2.458215 -0.0433089994 1.86624706
v -2.46054006 -0.0422089994 1.86595201
v -2.25665998 -0.0343669988 1.85213697
v -2.25790501 -0.0302050002 1.85174406
v -2.10183597 -0.0269159991 1.84010506
v -2.10308003 -0.0309420004 1.840698
v -2.10432506 -0.0349679999 1.83942199
v -2.25541592 -0.0385290012 1.85086703
v -2.2583189 -0.0288180001 1.84976101
v -2.10142112 -0.0255740006 1.83805501
v -2.25790501 -0.0302050002 1.85174406
v -2.41396809 -0.0334950015 1.86338305
v -2.41521311 -0.0320620015 1.861467
v -2.41396809 -0.0334950015 1.85914803
v -2.25790501 -0.0302050002 1.84730303
v -2.10183597 -0.0269159991 1.83545697
v -2.46891403 -0.0331729986 1.86548102
v -2.46738601 -0.0346210003 1.86737597
v -2.46735191 -0.0357719995 1.86678505
v -2.46895409 -0.0346539989 1.86541998
v -2.46735191 -0.0357719995 1.86369896
v -2.46738601 -0.0346210003 1.86320901
v -2.45668697 -0.0447570011 1.863976
v -2.40525699 -0.0435229987 1.85985506
v -2.40650201 -0.0420899987 1.85780096
v -2.458215 -0.0433089994 1.86207998
v -2.46054006 -0.0422089994 1.86286604
v -2.45973897 -0.0433450006 1.86429906
v -2.46054006 -0.0422089994 1.86595201
v -2.458215 -0.0433089994 1.86624706
v -2.40650201 -0.0420899987 1.86231101
v -2.25500107 -0.0399160013 1.84785795
v -2.10473895 -0.0363099985 1.83586097
v -2.10432506 -0.0349679999 1.83284998
v -2.25541496 -0.0385290012 1.84532595
v -2.25541592 -0.0385290012 1.85086703
v -2.10432506 -0.0349679999 1.83942199
v -2.46280098 -0.0389650017 1.86195099
v -2.41023493 -0.0377920009 1.85774601
v -2.41396809 -0.0334950015 1.85914803
v -2.46738601 -0.0346210003 1.86320901
v -2.46735191 -0.0357719995 1.86369896
v -2.46434689 -0.0389989987 1.86277604
v -2.46054006 -0.0422089994 1.86286604
v -2.458215 -0.0433089994 1.86207998
v -2.40650201 -0.0420899987 1.85780096
v -2.25665998 -0.0343669988 1.84548199
v -2.10308003 -0.0309420004 1.83321798
v -2.25790501 -0.0302050002 1.84730303
v -2.25541496 -0.0385290012 1.84532595
v -2.10432506 -0.0349679999 1.83284998
v -2.05049896 -0.0297689997 1.83676696
v -2.04893708 -0.0297340006 1.83566499
v -2.05090499 -0.0326899998 1.83454895
v -2.0525949 -0.0337480009 1.83548498
v -2.04840207 -0.0257900003 1.83611095
v -2.04777908 -0.0267960001 1.83534205
v -2.04770398 -0.0244629998 1.83404005
v -2.04840207 -0.0257900003 1.83139396
v -2.04777908 -0.0267960001 1.83152199
v -2.04681802 -0.0257559996 1.83362401
v -2.04777908 -0.0267960001 1.83534205
v -2.04840207 -0.0257900003 1.83611095
v -2.05329394 -0.0350750014 1.83174002
v -2.05105591 -0.0337119997 1.83189094
v -2.05090499 -0.0326899998 1.82975197
v -2.0525949 -0.0337480009 1.82856905
v -2.0525949 -0.0337480009 1.83548498
v -2.05090499 -0.0326899998 1.83454895
v -2.05049896 -0.0297689997 1.82901204
v -2.04893708 -0.0297340006 1.829849
v -2.04777908 -0.0267960001 1.83152199
v -2.04840207 -0.0257900003 1.83139396
v -2.0525949 -0.0337480009 1.82856905
v -2.05090499 -0.0326899998 1.82975197
v -2.46486211 -0.0390110016 1.86490297
v -2.45973897 -0.0433450006 1.86429906
v -2.46054006 -0.0422089994 1.86286604
v -2.46434689 -0.0389989987 1.86277604
v -2.46895409 -0.0346539989 1.86541998
v -2.46434689 -0.0389989987 1.866943
v -2.46054006 -0.0422089994 1.86595201
v -2.04841709 -0.0297219995 1.83271301
v -2.04681802 -0.0257559996 1.83362401
v -2.04893708 -0.0297340006 1.829849
v -2.05090499 -0.0326899998 1.82975197
v -2.05105591 -0.0337119997 1.83189094
v -2.05090499 -0.0326899998 1.83454895
v -2.04893708 -0.0297340006 1.83566499
v -2.46280098 -0.0389650017 -1.86750603
v -2.46738601 -0.0346210003 -1.86737597
v -2.46735191 -0.0357719995 -1.86678505
v -2.46434689 -0.0389989987 -1.866943
v -2.46054006 -0.0422089994 -1.86595201
v -2.458215 -0.0433089994 -1.86624706
v -2.40650201 -0.0420899987 -1.86231101
v -2.41023493 -0.0377920009 -1.86357605
v -2.41396809 -0.0334950015 -1.86338305
v -2.25665998 -0.0343669988 -1.85213697
v -2.25790501 -0.0302050002 -1.85174406
v -2.25541592 -0.0385290012 -1.85086703
v -2.10432506 -0.0349679999 -1.83942199
v -2.10308003 -0.0309420004 -1.840698
v -2.10183597 -0.0269159991 -1.84010506
v -2.2583189 -0.0288180001 -1.84976101
v -2.25790501 -0.0302050002 -1.85174406
v -2.10142112 -0.0255740006 -1.83805501
v -2.10183597 -0.0269159991 -1.83545697
v -2.25790501 -0.0302050002 -1.84730303
v -2.41396809 -0.0334950015 -1.85914803
v -2.41521311 -0.0320620015 -1.861467
v -2.41396809 -0.0334950015 -1.86338305
v -2.46891403 -0.0331729986 -1.86548102
v -2.46738601 -0.0346210003 -1.86737597
v -2.46738601 -0.0346210003 -1.86320901
v -2.46735191 -0.0357719995 -1.86369896
v -2.46895409 -0.0346539989 -1.86541998
v -2.46735191 -0.0357719995 -1.86678505
v -2.45668697 -0.0447570011 -1.863976
v -2.458215 -0.0433089994 -1.86207998
v -2.40650201 -0.0420899987 -1.85780096
v -2.40525699 -0.0435229987 -1.85985506
v -2.40650201 -0.0420899987 -1.86231101
v -2.458215 -0.0433089994 -1.86624706
v -2.46054006 -0.0422089994 -1.86595201
v -2.45973897 -0.0433450006 -1.86429906
v -2.46054006 -0.0422089994 -1.86286604
v -2.25500107 -0.0399160013 -1.84785795
v -2.25541592 -0.0385290012 -1.84532595
v -2.10432506 -0.0349679999 -1.83284998
v -2.10473895 -0.0363099985 -1.83586097
v -2.10432506 -0.0349679999 -1.83942199
v -2.25541592 -0.0385290012 -1.85086703
v -2.46280098 -0.0389650017 -1.86195099
v -2.46738601 -0.0346210003 -1.86320901
v -2.41396809 -0.0334950015 -1.85914803
v -2.41023493 -0.0377920009 -1.85774601
v -2.40650201 -0.0420899987 -1.85780096
v -2.458215 -0.0433089994 -1.86207998
v -2.46054006 -0.0422089994 -1.86286604
v -2.46434689 -0.0389989987 -1.86277604
v -2.46735191 -0.0357719995 -1.86369896
v -2.25665998 -0.0343669988 -1.84548199
v -2.25790501 -0.0302050002 -1.84730303
v -2.10308003 -0.0309420004 -1.83321798
v -2.10432506 -0.0349679999 -1.83284998
v -2.25541592 -0.0385290012 -1.84532595
v -2.05049896 -0.0297689997 -1.83676696
v -2.0525949 -0.0337480009 -1.83548498
v -2.05090499 -0.0326899998 -1.83454895
v -2.04893708 -0.0297340006 -1.83566499
v -2.04777908 -0.0267960001 -1.83534205
v -2.04840207 -0.0257900003 -1.83611095
v -2.04770398 -0.0244629998 -1.83404005
v -2.04840207 -0.0257900003 -1.83139396
v -2.04840207 -0.0257900003 -1.83611095
v -2.04777908 -0.0267960001 -1.83534205
v -2.04681802 -0.0257559996 -1.83362401
v -2.04777908 -0.0267960001 -1.83152294
v -2.05329394 -0.0350750014 -1.83174002
v -2.0525949 -0.0337480009 -1.82856905
v -2.05090499 -0.0326899998 -1.82975197
v -2.05105591 -0.0337119997 -1.83189094
v -2.05090499 -0.0326899998 -1.83454895
v -2.0525949 -0.0337480009 -1.83548498
v -2.05049896 -0.0297689997 -1.82901204
v -2.04840207 -0.0257900003 -1.83139396
v -2.04777908 -0.0267960001 -1.83152294
v -2.04893708 -0.0297340006 -1.829849
v -2.05090499 -0.0326899998 -1.82975197
v -2.0525949 -0.0337480009 -1.82856905
v -2.46486211 -0.0390110016 -1.86490297
v -2.46434689 -0.0389989987 -1.86277604
v -2.46054006 -0.0422089994 -1.86286604
v -2.45973897 -0.0433450006 -1.86429906
v -2.46054006 -0.0422089994 -1.86595201
v -2.46434689 -0.0389989987 -1.866943
v -2.46895409 -0.0346539989 -1.86541998
v -2.04841709 -0.0297219995 -1.83271301
v -2.04893708 -0.0297340006 -1.829849
v -2.04681802 -0.0257559996 -1.83362401
v -2.04893708 -0.0297340006 -1.83566499
v -2.05090499 -0.0326899998 -1.83454895
v -2.05105591 -0.0337119997 -1.83189094
v -2.05090499 -0.0326899998 -1.82975197
vt 0.875 0.5
vt 1 0.5
vt 1 1
vt 0.875 1
vt 0.75 1
vt 0.75 0.5
vt 0.75 -0
vt 0.875 -0
vt 1 0
vt 0.625 0.5
vt 0.625 1
vt 0.5 1
vt 0.468800008 0.5
vt 0.468800008 0
vt 0.625 0
vt 0.375 0.5
vt 0.531199992 0.5
vt 0.375 1
vt 0.25 1
vt 0.25 0.5
vt 0.25 0
vt 0.375 0
vt 0.5 0
vt 0.125 0.5
vt 0.125 1
vt 0 1
vt 0 0.5
vt 0 0
vt 0.125 0
vt 0.875 0.5
vt 0.75 0.5
vt 0.75 0
vt 0.875 0
vt 1 0
vt 1 0.5
vt 1 1
vt 0.875 1
vt 0.75 1
vt 0.625 0.5
vt 0.468800008 0.5
vt 0.468800008 0
vt 0.625 0
vt 0.625 1
vt 0.468800008 1
vt 0.875 0.5
vt 0.75 0.5
vt 0.75 0
vt 0.875 -0
vt 1 0
vt 1 0.5
vt 1 1
vt 0.875 1
vt 0.75 1
vt 0.625 0.5
vt 0.468800008 0.5
vt 0.625 0
vt 0.625 1
vt 0.468800008 1
vt 0.25 0.5
vt 0 0.5
vt 0 0
vt 0.25 0
vt 0.25 1
vt 0 1
vt 0.75 0.5
vt 0.75 0
vt 1 0
vt 1 0.5
vt 1 1
vt 0.75 1
vt 0.25 0.5
vt 0 0.5
vt 0 0
vt 0.25 0
vt 0.25 1
vt 0 1
vt 0.25 0.5
vt 0 0.5
vt 0 0
vt 0.25 0
vt 0.25 1
vt 0 1
vt 0.5 0.5
vt 0 0.5
vt 0 0
vt 0.5 0
vt 1 0.5
vt 0.5 1
vt 0 1
vt 0.5 0.5
vt 0 0.5
vt 0.5 0
vt 1 0
vt 1 0.5
vt 1 1
vt 0.5 1
vt 0.875 0.5
vt 0.875 1
vt 1 1
vt 1 0.5
vt 1 0
vt 0.875 -0
vt 0.75 -0
vt 0.75 0.5
vt 0.75 1
vt 0.625 0.5
vt 0.625 1
vt 0.625 0
vt 0.468800008 0
vt 0.468800008 0.5
vt 0.5 1
vt 0.375 0.5
vt 0.375 1
vt 0.531199992 0.5
vt 0.5 0
vt 0.375 0
vt 0.25 0
vt 0.25 0.5
vt 0.25 1
vt 0.125 0.5
vt 0.125 1
vt 0.125 0
vt 0 0
vt 0 0.5
vt 0 1
vt 0.875 0.5
vt 0.875 0
vt 0.75 0
vt 0.75 0.5
vt 0.75 1
vt 0.875 1
vt 1 1
vt 1 0.5
vt 1 0
vt 0.625 0.5
vt 0.625 0
vt 0.468800008 0
vt 0.468800008 0.5
vt 0.468800008 1
vt 0.625 1
vt 0.875 0.5
vt 0.875 -0
vt 0.75 0
vt 0.75 0.5
vt 0.75 1
vt 0.875 1
vt 1 1
vt 1 0.5
vt 1 0
vt 0.625 0.5
vt 0.625 0
vt 0.468800008 0.5
vt 0.468800008 1
vt 0.625 1
vt 0.25 0.5
vt 0.25 0
vt 0 0
vt 0 0.5
vt 0 1
vt 0.25 1
vt 0.75 0.5
vt 0.75 0
vt 0.75 1
vt 1 1
vt 1 0.5
vt 1 0
vt 0.25 0.5
vt 0.25 0
vt 0 0
vt 0 0.5
vt 0 1
vt 0.25 1
vt 0.25 0.5
vt 0.25 0
vt 0 0
vt 0 0.5
vt 0 1
vt 0.25 1
vt 0.5 0.5
vt 0.5 0
vt 0 0
vt 0 0.5
vt 0 1
vt 0.5 1
vt 1 0.5
vt 0.5 0.5
vt 0.5 0
vt 0 0.5
vt 0.5 1
vt 1 1
vt 1 0.5
vt 1 0
vn 0.140499994 0.260500014 -0.955200016
vn 0.548500001 0.610899985 -0.570900023
vn 0.652899981 0.473699987 -0.591000021
vn 0.362699986 -0.272399992 -0.891200006
vn -0.0538000017 -0.503600001 -0.862200022
vn -0.0759999976 0.0555000007 -0.995500028
vn -0.0751999989 0.587499976 -0.805700004
vn 0.144600004 0.656400025 -0.740400016
vn 0.473500013 0.738200009 -0.480399996
vn -0.0762000009 0.0760999992 -0.994199991
vn -0.0529999994 -0.513999999 -0.85619998
vn -0.0524000004 -0.524699986 -0.849699974
vn -0.076700002 0.100699998 -0.991900027
vn -0.0710999966 0.687600017 -0.722500026
vn -0.0729999989 0.643100023 -0.762300014
vn 0.0179999992 -0.999000013 -0.0408000015
vn 0.0168999992 -0.998300016 -0.0549999997
vn -0.0529999994 -0.513999999 -0.85619998
vn -0.0538000017 -0.503600001 -0.862200022
vn 0.0192000009 -0.999499977 -0.0252
vn 0.0744000003 -0.586799979 0.806299984
vn 0.0716999993 -0.654100001 0.753000021
vn 0.0684999973 -0.717700005 0.693000019
vn 0.768000007 -0.637799978 -0.0582999997
vn 0.362699986 -0.272399992 -0.891200006
vn 0.652899981 0.473699987 -0.591000021
vn 0.947899997 0.317699999 -0.0212999992
vn 0.721599996 0.414999992 0.554099977
vn 0.457800001 -0.335599989 0.823300004
vn 0.128999993 0.991599977 0.0105999997
vn -0.0208000001 0.999499977 0.0249000005
vn 0.058699999 0.494599998 0.8671
vn 0.261500001 0.590200007 0.763700008
vn 0.54460001 0.692499995 0.473100007
vn 0.508300006 0.861199975 -0.00410000002
vn 0.473500013 0.738200009 -0.480399996
vn 0.144600004 0.656400025 -0.740400016
vn -0.0751999989 0.587499976 -0.805700004
vn -0.0204000007 0.999300003 0.0315000005
vn -0.0203000009 0.999199986 0.0337999985
vn 0.0582000017 0.50059998 0.863699973
vn 0.0582999997 0.499199986 0.864499986
vn -0.0729999989 0.643100023 -0.762300014
vn -0.0710999966 0.687600017 -0.722500026
vn 0.289999992 0.162100002 0.943099976
vn 0.0811000019 -0.105800003 0.991100013
vn 0.0744000003 -0.586799979 0.806299984
vn 0.457800001 -0.335599989 0.823300004
vn 0.721599996 0.414999992 0.554099977
vn 0.625500023 0.553499997 0.549799979
vn 0.54460001 0.692499995 0.473100007
vn 0.261500001 0.590200007 0.763700008
vn 0.058699999 0.494599998 0.8671
vn 0.0820999965 -0.201900005 0.976000011
vn 0.0822999999 -0.297300011 0.951200008
vn 0.0716999993 -0.654100001 0.753000021
vn 0.0582999997 0.499199986 0.864499986
vn 0.0582000017 0.50059998 0.863699973
vn -0.342400014 0.229499996 -0.91109997
vn -0.757399976 0.418199986 -0.501399994
vn -0.667699993 0.653599977 -0.356299996
vn -0.2949 0.717299998 -0.631200016
vn -0.422100008 -0.406699985 -0.810199976
vn -0.83920002 0.126900002 -0.528699994
vn -0.514699996 -0.854200006 -0.0741000026
vn -0.305200011 -0.650300026 0.69569999
vn -0.82160002 -0.104999997 0.560299993
vn -0.986100018 -0.163699999 0.0269000009
vn -0.83920002 0.126900002 -0.528699994
vn -0.422100008 -0.406699985 -0.810199976
vn -0.262199998 0.964100003 0.0417000018
vn -0.686699986 0.726700008 0.0167999994
vn -0.701399982 0.537899971 0.467700005
vn -0.239399999 0.524399996 0.817099988
vn -0.2949 0.717299998 -0.631200016
vn -0.667699993 0.653599977 -0.356299996
vn -0.258899987 -0.158700004 0.952799976
vn -0.778699994 0.181099996 0.600600004
vn -0.82160002 -0.104999997 0.560299993
vn -0.305200011 -0.650300026 0.69569999
vn -0.239399999 0.524399996 0.817099988
vn -0.701399982 0.537899971 0.467700005
vn 0.695100009 0.718900025 -0.00079999998
vn 0.508300006 0.861199975 -0.00410000002
vn 0.54460001 0.692499995 0.473100007
vn 0.625500023 0.553499997 0.549799979
vn 0.947899997 0.317699999 -0.0212999992
vn 0.548500001 0.610899985 -0.570900023
vn 0.473500013 0.738200009 -0.480399996
vn -0.893999994 0.44780001 0.0120999999
vn -0.986100018 -0.163699999 0.0269000009
vn -0.778699994 0.181099996 0.600600004
vn -0.701399982 0.537899971 0.467700005
vn -0.686699986 0.726700008 0.0167999994
vn -0.667699993 0.653599977 -0.356299996
vn -0.757399976 0.418199986 -0.501399994
vn 0.140499994 0.260500014 0.955200016
vn 0.362699986 -0.272399992 0.891200006
vn 0.652899981 0.473699987 0.591000021
vn 0.548399985 0.610899985 0.570900023
vn 0.473500013 0.738200009 0.480399996
vn 0.144600004 0.656400025 0.740400016
vn -0.0751999989 0.587499976 0.805700004
vn -0.0759999976 0.0555000007 0.995500028
vn -0.0538000017 -0.503600001 0.862200022
vn -0.0762000009 0.0760999992 0.994199991
vn -0.0529999994 -0.513999999 0.856100023
vn -0.0729999989 0.643100023 0.762300014
vn -0.0710999966 0.687600017 0.722500026
vn -0.076700002 0.100699998 0.991900027
vn -0.0524000004 -0.524699986 0.849699974
vn 0.0179999992 -0.999000013 0.0406999998
vn -0.0529999994 -0.513999999 0.856100023
vn 0.0168999992 -0.998300016 0.0549999997
vn 0.0684999973 -0.717700005 -0.693000019
vn 0.0716999993 -0.654100001 -0.753000021
vn 0.0744000003 -0.586799979 -0.806299984
vn 0.0192000009 -0.999499977 0.0251000002
vn -0.0538000017 -0.503600001 0.862200022
vn 0.768000007 -0.637700021 0.0582999997
vn 0.362699986 -0.272399992 0.891200006
vn 0.457800001 -0.335500002 -0.823300004
vn 0.721499979 0.414999992 -0.554099977
vn 0.947899997 0.317799985 0.0212999992
vn 0.652899981 0.473699987 0.591000021
vn 0.128999993 0.991599977 -0.0105999997
vn 0.261400014 0.590200007 -0.763800025
vn 0.058699999 0.494599998 -0.8671
vn -0.0208000001 0.999499977 -0.0249000005
vn -0.0751999989 0.587499976 0.805700004
vn 0.144600004 0.656400025 0.740400016
vn 0.473500013 0.738200009 0.480399996
vn 0.508300006 0.861199975 0.00410000002
vn 0.544499993 0.692499995 -0.473100007
vn -0.0204000007 0.999300003 -0.0315000005
vn 0.0582999997 0.499199986 -0.864499986
vn 0.0582000017 0.50059998 -0.863699973
vn -0.0203000009 0.999199986 -0.0337999985
vn -0.0710999966 0.687600017 0.722500026
vn -0.0729999989 0.643100023 0.762300014
vn 0.289999992 0.162100002 -0.943199992
vn 0.457800001 -0.335500002 -0.823300004
vn 0.0744000003 -0.586799979 -0.806299984
vn 0.0811000019 -0.105800003 -0.991100013
vn 0.058699999 0.494599998 -0.8671
vn 0.261400014 0.590200007 -0.763800025
vn 0.544499993 0.692499995 -0.473100007
vn 0.625500023 0.553499997 -0.549799979
vn 0.721499979 0.414999992 -0.554099977
vn 0.0820999965 -0.201900005 -0.976000011
vn 0.0716999993 -0.654100001 -0.753000021
vn 0.0822999999 -0.297300011 -0.951200008
vn 0.0582000017 0.50059998 -0.863699973
vn 0.0582999997 0.499199986 -0.864499986
vn -0.342400014 0.229499996 0.91109997
vn -0.2949 0.717299998 0.631200016
vn -0.667699993 0.653599977 0.356299996
vn -0.757399976 0.418199986 0.501399994
vn -0.83920002 0.126900002 0.528699994
vn -0.422100008 -0.406599998 0.810199976
vn -0.514599979 -0.854200006 0.0741000026
vn -0.305099994 -0.650300026 -0.695599973
vn -0.422100008 -0.406599998 0.810199976
vn -0.83920002 0.126900002 0.528699994
vn -0.986100018 -0.163699999 -0.0269000009
vn -0.82160002 -0.105099998 -0.560299993
vn -0.262199998 0.964100003 -0.0417000018
vn -0.239399999 0.524399996 -0.817099988
vn -0.701399982 0.537899971 -0.467700005
vn -0.686699986 0.726700008 -0.0167999994
vn -0.667699993 0.653599977 0.356299996
vn -0.2949 0.717299998 0.631200016
vn -0.259000003 -0.158700004 -0.952799976
vn -0.305099994 -0.650300026 -0.695599973
vn -0.82160002 -0.105099998 -0.560299993
vn -0.778800011 0.181099996 -0.600600004
vn -0.701399982 0.537899971 -0.467700005
vn -0.239399999 0.524399996 -0.817099988
vn 0.695100009 0.718900025 0.00079999998
vn 0.625500023 0.553499997 -0.549799979
vn 0.544499993 0.692499995 -0.473100007
vn 0.508300006 0.861199975 0.00410000002
vn 0.473500013 0.738200009 0.480399996
vn 0.548399985 0.610899985 0.570900023
vn 0.947899997 0.317799985 0.0212999992
vn -0.893999994 0.44780001 -0.0120999999
vn -0.778800011 0.181099996 -0.600600004
vn -0.986100018 -0.163699999 -0.0269000009
vn -0.757399976 0.418199986 0.501399994
vn -0.667699993 0.653599977 0.356299996
vn -0.686699986 0.726700008 -0.0167999994
vn -0.701399982 0.537899971 -0.467700005
f 1/1/1 2/2/2 3/3/3
f 1/1/1 3/3/3 4/4/4
f 1/1/1 4/4/4 5/5/5
f 1/1/1 5/5/5 6/6/6
f 1/1/1 6/6/6 7/7/7
f 1/1/1 7/7/7 8/8/8
f 1/1/1 8/8/8 9/9/9
f 1/1/1 9/9/9 2/2/2
f 10/10/10 6/6/6 5/5/5
f 10/10/10 5/5/5 11/11/11
f 10/10/10 11/11/11 12/12/12
f 10/10/10 12/12/12 13/13/13
f 10/10/10 13/13/13 14/14/14
f 10/10/10 14/14/14 15/15/15
f 10/10/10 15/15/15 7/7/7
f 10/10/10 7/7/7 6/6/6
f 16/16/16 17/17/17 12/12/12
f 16/16/16 12/12/12 18/18/18
f 16/16/16 18/18/18 19/19/19
f 16/16/16 19/19/19 20/20/20
f 16/16/16 20/20/20 21/21/21
f 16/16/16 21/21/21 22/22/22
f 16/16/16 22/22/22 23/23/23
f 16/16/16 23/23/23 17/17/17
f 24/24/24 20/20/20 19/19/19
f 24/24/24 19/19/19 25/25/25
f 24/24/24 25/25/25 26/26/26
f 24/24/24 26/26/26 27/27/27
f 24/24/24 27/27/27 28/28/28
f 24/24/24 28/28/28 29/29/29
f 24/24/24 29/29/29 21/21/21
f 24/24/24 21/21/21 20/20/20
f 30/30/30 31/31/31 32/32/32
f 30/30/30 32/32/32 33/33/33
f 30/30/30 33/33/33 34/34/34
f 30/30/30 34/34/34 35/35/35
f 30/30/30 35/35/35 36/36/36
f 30/30/30 36/36/36 37/37/37
f 30/30/30 37/37/37 38/38/38
f 30/30/30 38/38/38 31/31/31
f 39/39/39 40/40/40 41/41/41
f 39/39/39 41/41/41 42/42/42
f 39/39/39 42/42/42 32/32/32
f 39/39/39 32/32/32 31/31/31
f 39/39/39 31/31/31 38/38/38
f 39/39/39 38/38/38 43/43/43
f 39/39/39 43/43/43 44/44/44
f 39/39/39 44/44/44 40/40/40
f 45/45/45 46/46/46 47/47/47
f 45/45/45 47/47/47 48/48/48
f 45/45/45 48/48/48 49/49/49
f 45/45/45 49/49/49 50/50/50
f 45/45/45 50/50/50 51/51/51
f 45/45/45 51/51/51 52/52/52
f 45/45/45 52/52/52 53/53/53
f 45/45/45 53/53/53 46/46/46
f 54/54/54 55/55/55 23/23/23
f 54/54/54 23/23/23 56/56/56
f 54/54/54 56/56/56 47/47/47
f 54/54/54 47/47/47 46/46/46
f 54/54/54 46/46/46 53/53/53
f 54/54/54 53/53/53 57/57/57
f 54/54/54 57/57/57 58/58/58
f 54/54/54 58/58/58 55/55/55
f 59/59/59 60/60/60 61/61/61
f 59/59/59 61/61/61 62/62/62
f 59/59/59 62/62/62 14/14/14
f 59/59/59 14/14/14 13/13/13
f 59/59/59 13/13/13 12/12/12
f 59/59/59 12/12/12 63/63/63
f 59/59/59 63/63/63 64/64/64
f 59/59/59 64/64/64 60/60/60
f 65/65/65 17/17/17 23/23/23
f 65/65/65 23/23/23 66/66/66
f 65/65/65 66/66/66 67/67/67
f 65/65/65 67/67/67 68/68/68
f 65/65/65 68/68/68 69/69/69
f 65/65/65 69/69/69 70/70/70
f 65/65/65 70/70/70 12/12/12
f 65/65/65 12/12/12 17/17/17
f 71/71/71 72/72/72 73/73/73
f 71/71/71 73/73/73 74/74/74
f 71/71/71 74/74/74 41/41/41
f 71/71/71 41/41/41 40/40/40
f 71/71/71 40/40/40 44/44/44
f 71/71/71 44/44/44 75/75/75
f 71/71/71 75/75/75 76/76/76
f 71/71/71 76/76/76 72/72/72
f 77/77/77 78/78/78 79/79/79
f 77/77/77 79/79/79 80/80/80
f 77/77/77 80/80/80 23/23/23
f 77/77/77 23/23/23 55/55/55
f 77/77/77 55/55/55 58/58/58
f 77/77/77 58/58/58 81/81/81
f 77/77/77 81/81/81 82/82/82
f 77/77/77 82/82/82 78/78/78
f 83/83/83 84/84/84 85/85/85
f 83/83/83 85/85/85 86/86/86
f 83/83/83 86/86/86 49/49/49
f 83/83/83 49/49/49 87/87/87
f 83/83/83 87/87/87 3/3/3
f 83/83/83 3/3/3 88/88/88
f 83/83/83 88/88/88 89/89/89
f 83/83/83 89/89/89 84/84/84
f 90/90/90 91/91/91 79/79/79
f 90/90/90 79/79/79 92/92/92
f 90/90/90 92/92/92 93/93/93
f 90/90/90 93/93/93 94/94/94
f 90/90/90 94/94/94 95/95/95
f 90/90/90 95/95/95 96/96/96
f 90/90/90 96/96/96 64/64/64
f 90/90/90 64/64/64 91/91/91
f 97/97/97 98/98/98 99/99/99
f 97/97/97 99/99/99 100/100/100
f 97/97/97 100/100/100 101/101/101
f 97/97/97 101/101/101 102/102/102
f 97/97/97 102/102/102 103/103/103
f 97/97/97 103/103/103 104/104/104
f 97/97/97 104/104/104 105/105/105
f 97/97/97 105/105/105 98/98/98
f 106/106/106 107/107/107 105/105/105
f 106/106/106 105/105/105 104/104/104
f 106/106/106 104/104/104 103/103/103
f 106/106/106 103/103/103 108/108/108
f 106/106/106 108/108/108 109/109/109
f 106/106/106 109/109/109 110/110/110
f 106/106/106 110/110/110 111/111/111
f 106/106/106 111/111/111 107/107/107
f 112/112/112 113/113/113 111/111/111
f 112/112/112 111/111/111 114/114/114
f 112/112/112 114/114/114 115/115/115
f 112/112/112 115/115/115 116/116/116
f 112/112/112 116/116/116 117/117/117
f 112/112/112 117/117/117 118/118/118
f 112/112/112 118/118/118 119/119/119
f 112/112/112 119/119/119 113/113/113
f 120/120/120 121/121/121 119/119/119
f 120/120/120 119/119/119 118/118/118
f 120/120/120 118/118/118 117/117/117
f 120/120/120 117/117/117 122/122/122
f 120/120/120 122/122/122 123/123/123
f 120/120/120 123/123/123 124/124/124
f 120/120/120 124/124/124 125/125/125
f 120/120/120 125/125/125 121/121/121
f 126/126/126 127/127/127 128/128/128
f 126/126/126 128/128/128 129/129/129
f 126/126/126 129/129/129 130/130/130
f 126/126/126 130/130/130 131/131/131
f 126/126/126 131/131/131 132/132/132
f 126/126/126 132/132/132 133/133/133
f 126/126/126 133/133/133 134/134/134
f 126/126/126 134/134/134 127/127/127
f 135/135/135 136/136/136 137/137/137
f 135/135/135 137/137/137 138/138/138
f 135/135/135 138/138/138 139/139/139
f 135/135/135 139/139/139 140/140/140
f 135/135/135 140/140/140 130/130/130
f 135/135/135 130/130/130 129/129/129
f 135/135/135 129/129/129 128/128/128
f 135/135/135 128/128/128 136/136/136
f 141/141/141 142/142/142 143/143/143
f 141/141/141 143/143/143 144/144/144
f 141/141/141 144/144/144 145/145/145
f 141/141/141 145/145/145 146/146/146
f 141/141/141 146/146/146 147/147/147
f 141/141/141 147/147/147 148/148/148
f 141/141/141 148/148/148 149/149/149
f 141/141/141 149/149/149 142/142/142
f 150/150/150 151/151/151 115/115/115
f 150/150/150 115/115/115 152/152/152
f 150/150/150 152/152/152 153/153/153
f 150/150/150 153/153/153 154/154/154
f 150/150/150 154/154/154 145/145/145
f 150/150/150 145/145/145 144/144/144
f 150/150/150 144/144/144 143/143/143
f 150/150/150 143/143/143 151/151/151
f 155/155/155 156/156/156 157/157/157
f 155/155/155 157/157/157 158/158/158
f 155/155/155 158/158/158 159/159/159
f 155/155/155 159/159/159 160/160/160
f 155/155/155 160/160/160 111/111/111
f 155/155/155 111/111/111 110/110/110
f 155/155/155 110/110/110 109/109/109
f 155/155/155 109/109/109 156/156/156
f 161/161/161 162/162/162 115/115/115
f 161/161/161 115/115/115 114/114/114
f 161/161/161 114/114/114 111/111/111
f 161/161/161 111/111/111 163/163/163
f 161/161/161 163/163/163 164/164/164
f 161/161/161 164/164/164 165/165/165
f 161/161/161 165/165/165 166/166/166
f 161/161/161 166/166/166 162/162/162
f 167/167/167 168/168/168 169/169/169
f 167/167/167 169/169/169 170/170/170
f 167/167/167 170/170/170 171/171/171
f 167/167/167 171/171/171 172/172/172
f 167/167/167 172/172/172 139/139/139
f 167/167/167 139/139/139 138/138/138
f 167/167/167 138/138/138 137/137/137
f 167/167/167 137/137/137 168/168/168
f 173/173/173 174/174/174 175/175/175
f 173/173/173 175/175/175 176/176/176
f 173/173/173 176/176/176 177/177/177
f 173/173/173 177/177/177 178/178/178
f 173/173/173 178/178/178 153/153/153
f 173/173/173 153/153/153 152/152/152
f 173/173/173 152/152/152 115/115/115
f 173/173/173 115/115/115 174/174/174
f 179/179/179 180/180/180 181/181/181
f 179/179/179 181/181/181 182/182/182
f 179/179/179 182/182/182 183/183/183
f 179/179/179 183/183/183 184/184/184
f 179/179/179 184/184/184 99/99/99
f 179/179/179 99/99/99 185/185/185
f 179/179/179 185/185/185 149/149/149
f 179/179/179 149/149/149 180/180/180
f 186/186/186 187/187/187 175/175/175
f 186/186/186 175/175/175 188/188/188
f 186/186/186 188/188/188 159/159/159
f 186/186/186 159/159/159 189/189/189
f 186/186/186 189/189/189 190/190/190
f 186/186/186 190/190/190 191/191/191
f 186/186/186 191/191/191 192/192/192
f 186/186/186 192/192/192 187/187/187
