# Generated by lxe_pbrt_scene_convert
v 24.1119251 -1.37894702 12.3077421
v 23.6832275 -1.42654097 12.530736
v 3.04359603 -1.42654097 -27.148489
v 3.472296 -1.37894702 -27.3714828
v 24.5241528 -1.23799598 12.093317
v 3.88452196 -1.23799598 -27.585907
v 24.9040565 -1.00910103 11.8957052
v 4.264431 -1.00910103 -27.7835217
v 25.2370491 -0.701062024 11.7224913
v 4.59742117 -0.701062024 -27.9567299
v 25.5103302 -0.325713009 11.5803404
v 4.87070179 -0.325713009 -28.0988808
v 25.7133904 0.102518 11.474721
v 5.07376099 0.102518 -28.2045059
v 25.8384457 0.567174971 11.4096718
v 5.19881487 0.567174971 -28.2695541
v 25.8806725 1.05040205 11.3877068
v 5.24104404 1.05040205 -28.2915192
v 25.8806725 13.4351206 11.3877068
v 5.24104404 13.4351206 -28.2915192
v -3.333956 -1.42654097 26.5840511
v -23.973587 -1.42654097 -13.0951738
vn 0.173099995 -0.980799973 -0.0900000036
vn 0.0434999987 -0.99879998 -0.0226000007
vn 0.0434999987 -0.99879998 -0.0226000007
vn 0.173099995 -0.980799973 -0.0900000036
vn 0.33950001 -0.923900008 -0.176599994
vn 0.33950001 -0.923900008 -0.176599994
vn 0.492900014 -0.831399977 -0.256399989
vn 0.492900014 -0.831399977 -0.256399989
vn 0.627300024 -0.707099974 -0.326299995
vn 0.627300024 -0.707099974 -0.326299995
vn 0.737600029 -0.555599988 -0.383700013
vn 0.737600029 -0.555599988 -0.383700013
vn 0.819599986 -0.382699996 -0.426299989
vn 0.819599986 -0.382699996 -0.426299989
vn 0.870100021 -0.195099995 -0.452600002
vn 0.870100021 -0.195099995 -0.452600002
vn 0.886099994 -0.0489999987 -0.460900009
vn 0.886099994 -0.0489999987 -0.460900009
vn 0.887099981 0 -0.461400002
vn 0.887099981 0 -0.461400002
vn 0 -1 0
vn 0 -1 0
f 1//1 2//2 3//3
f 1//1 3//3 4//4
f 5//5 1//1 4//4
f 5//5 4//4 6//6
f 7//7 5//5 6//6
f 7//7 6//6 8//8
f 9//9 7//7 8//8
f 9//9 8//8 10//10
f 11//11 9//9 10//10
f 11//11 10//10 12//12
f 13//13 11//11 12//12
f 13//13 12//12 14//14
f 15//15 13//13 14//14
f 15//15 14//14 16//16
f 17//17 15//15 16//16
f 17//17 16//16 18//18
f 19//19 17//17 18//18
f 19//19 18//18 20//20
f 2//2 21//21 22//22
f 2//2 22//22 3//3
