# Generated by lxe_pbrt_scene_convert
v -1.82964301 -0.0219989996 1.82845902
v -1.766523 -0.0194320008 1.827968
v -1.77106798 -0.0153900003 1.82821095
v -1.832412 -0.0177679993 1.82872605
v -1.89376104 -0.0201450009 1.82924104
v -1.89276803 -0.0245650001 1.82894897
v -1.892959 -0.0291109998 1.82727003
v -1.83161104 -0.0267340001 1.82680297
v -1.77026606 -0.0243560001 1.82633805
v -1.74482405 -0.0185630005 1.82779801
v -1.74881899 -0.0190510005 1.82709706
v -1.75299299 -0.0161259994 1.82724595
v -1.74996102 -0.0145840002 1.82803202
v -1.74915898 -0.02355 1.82617605
v -1.75239897 -0.0227669999 1.82587099
v -1.83965099 -0.0170290004 1.82696295
v -1.89567006 -0.01884 1.82748604
v -1.89376104 -0.0201450009 1.82924104
v -1.832412 -0.0177679993 1.82872605
v -1.77106798 -0.0153900003 1.82821095
v -1.78363597 -0.0152190002 1.82643998
v -1.79593599 -0.0180360004 1.82404399
v -1.84662199 -0.0192789994 1.82455897
v -1.897313 -0.0205230005 1.82507396
v -1.764305 -0.0146009997 1.82625794
v -1.74996102 -0.0145840002 1.82803202
v -1.75299299 -0.0161259994 1.82724595
v -1.76343 -0.0160789993 1.82594097
v -1.77404499 -0.0183649994 1.82415998
v -1.77838099 -0.0176069997 1.82386601
v -1.76323605 -0.0265560001 1.82378304
v -1.78256702 -0.0271729995 1.82394195
v -1.79513395 -0.0270019993 1.82217097
v -1.77758002 -0.0265730005 1.82201004
v -1.77345097 -0.0250070002 1.82278502
v -1.76262903 -0.025045 1.82408595
v -1.75239897 -0.0227669999 1.82587099
v -1.74915898 -0.02355 1.82617605
v -1.77026606 -0.0243560001 1.82633805
v -1.83858204 -0.0289840009 1.82439995
v -1.89460194 -0.0307940003 1.82485795
v -1.89651096 -0.0294889994 1.82310295
v -1.84582102 -0.0282450002 1.82263696
v -1.83161104 -0.0267340001 1.82680297
v -1.892959 -0.0291109998 1.82727003
v -1.78271699 -0.0225939993 1.82224298
v -1.79967999 -0.0229599997 1.82241297
v -1.79593599 -0.0180360004 1.82404399
v -1.77838099 -0.0176069997 1.82386601
v -1.77404499 -0.0183649994 1.82415998
v -1.77724004 -0.0220740009 1.82292998
v -1.77345097 -0.0250070002 1.82278502
v -1.77758002 -0.0265730005 1.82201004
v -1.79513395 -0.0270019993 1.82217097
v -1.84859002 -0.0240139998 1.82290399
v -1.89750397 -0.0250690002 1.82339394
v -1.897313 -0.0205230005 1.82507396
v -1.84662199 -0.0192789994 1.82455897
v -1.84582102 -0.0282450002 1.82263696
v -1.89651096 -0.0294889994 1.82310295
v -1.91447794 -0.0254350007 1.82912004
v -1.91487896 -0.0209519994 1.82941902
v -1.91533196 -0.0221260004 1.82862699
v -1.91523004 -0.0254510008 1.82843304
v -1.91473806 -0.0287679993 1.82715404
v -1.91407704 -0.0299180001 1.82743096
v -1.915012 -0.0194579996 1.82766795
v -1.91487896 -0.0209519994 1.82525301
v -1.91533196 -0.0221260004 1.82554102
v -1.91563106 -0.0209679995 1.82734394
v -1.91487896 -0.0209519994 1.82941902
v -1.91394401 -0.0314120017 1.82501602
v -1.91482902 -0.0299340002 1.82535505
v -1.91473806 -0.0287679993 1.82406795
v -1.91407704 -0.0299180001 1.82326496
v -1.91407704 -0.0299180001 1.82743096
v -1.91447794 -0.0254350007 1.82356501
v -1.91523004 -0.0254510008 1.82426596
v -1.91487896 -0.0209519994 1.82525301
v -1.91407704 -0.0299180001 1.82326496
v -1.91548097 -0.0254560001 1.826352
v -1.91563106 -0.0209679995 1.82734394
v -1.91533196 -0.0221260004 1.82554102
v -1.91473806 -0.0287679993 1.82406795
v -1.91482902 -0.0299340002 1.82535505
v -1.91473806 -0.0287679993 1.82715404
v -1.91533196 -0.0221260004 1.82862699
v -1.76278198 -0.0205569994 1.82501101
v -1.76262903 -0.025045 1.82408595
v -1.77345097 -0.0250070002 1.82278502
v -1.77724004 -0.0220740009 1.82292998
v -1.77404499 -0.0183649994 1.82415998
v -1.76343 -0.0160789993 1.82594097
v -1.75299299 -0.0161259994 1.82724595
v -1.74881899 -0.0190510005 1.82709706
v -1.75239897 -0.0227669999 1.82587099
v -1.82964301 -0.0219989996 -1.82845902
v -1.832412 -0.0177679993 -1.82872605
v -1.77106798 -0.0153900003 -1.82821095
v -1.766523 -0.0194320008 -1.827968
v -1.77026606 -0.0243560001 -1.82633805
v -1.83161104 -0.0267340001 -1.82680297
v -1.892959 -0.0291109998 -1.82727003
v -1.89276803 -0.0245650001 -1.82894897
v -1.89376104 -0.0201450009 -1.82924104
v -1.74482405 -0.0185630005 -1.82779801
v -1.74996102 -0.0145840002 -1.82803202
v -1.75299299 -0.0161259994 -1.82724595
v -1.74881899 -0.0190510005 -1.82709706
v -1.75239897 -0.0227669999 -1.82587099
v -1.74915898 -0.02355 -1.82617605
v -1.83965099 -0.0170290004 -1.82696295
v -1.832412 -0.0177679993 -1.82872605
v -1.89376104 -0.0201450009 -1.82924104
v -1.89567006 -0.01884 -1.82748604
v -1.897313 -0.0205230005 -1.82507396
v -1.84662199 -0.0192789994 -1.82455897
v -1.79593599 -0.0180360004 -1.82404399
v -1.78363597 -0.0152190002 -1.82643998
v -1.77106798 -0.0153900003 -1.82821095
v -1.764305 -0.0146009997 -1.82625794
v -1.74996102 -0.0145840002 -1.82803202
v -1.77838099 -0.0176069997 -1.82386601
v -1.77404499 -0.0183649994 -1.82415998
v -1.76343 -0.0160789993 -1.82594097
v -1.75299299 -0.0161259994 -1.82724595
v -1.76323605 -0.0265560001 -1.82378399
v -1.77758002 -0.0265730005 -1.82201004
v -1.79513395 -0.0270019993 -1.82217097
v -1.78256702 -0.0271729995 -1.82394195
v -1.77026606 -0.0243560001 -1.82633805
v -1.74915898 -0.02355 -1.82617605
v -1.75239897 -0.0227669999 -1.82587099
v -1.76262903 -0.025045 -1.82408595
v -1.77345097 -0.0250070002 -1.82278502
v -1.83858204 -0.0289840009 -1.82439995
v -1.84582102 -0.0282450002 -1.82263696
v -1.89651096 -0.0294889994 -1.82310295
v -1.89460194 -0.0307940003 -1.82485795
v -1.892959 -0.0291109998 -1.82727003
v -1.83161104 -0.0267340001 -1.82680297
v -1.78271699 -0.0225939993 -1.82224298
v -1.77838099 -0.0176069997 -1.82386601
v -1.79593599 -0.0180360004 -1.82404399
v -1.79967999 -0.0229599997 -1.82241297
v -1.79513395 -0.0270019993 -1.82217097
v -1.77758002 -0.0265730005 -1.82201004
v -1.77345097 -0.0250070002 -1.82278502
v -1.77724004 -0.0220740009 -1.82292998
v -1.77404499 -0.0183649994 -1.82415998
v -1.84859002 -0.0240139998 -1.82290399
v -1.84662199 -0.0192789994 -1.82455897
v -1.897313 -0.0205230005 -1.82507396
v -1.89750397 -0.0250690002 -1.82339394
v -1.89651096 -0.0294889994 -1.82310295
v -1.84582102 -0.0282450002 -1.82263696
v -1.91447794 -0.0254350007 -1.82912004
v -1.91487896 -0.0209519994 -1.82941902
v -1.91407704 -0.0299180001 -1.82743096
v -1.91473806 -0.0287679993 -1.82715404
v -1.91523004 -0.0254510008 -1.82843304
v -1.91533196 -0.0221260004 -1.82862699
v -1.915012 -0.0194579996 -1.82766795
v -1.91487896 -0.0209519994 -1.82525301
v -1.91487896 -0.0209519994 -1.82941902
v -1.91563106 -0.0209679995 -1.82734394
v -1.91533196 -0.0221260004 -1.82554102
v -1.91394401 -0.0314120017 -1.82501602
v -1.91407704 -0.0299180001 -1.82326496
v -1.91473806 -0.0287679993 -1.82406795
v -1.91482902 -0.0299340002 -1.82535505
v -1.91407704 -0.0299180001 -1.82743096
v -1.91447794 -0.0254350007 -1.82356405
v -1.91487896 -0.0209519994 -1.82525301
v -1.91523004 -0.0254510008 -1.82426596
v -1.91407704 -0.0299180001 -1.82326496
v -1.91548097 -0.0254560001 -1.826352
v -1.91533196 -0.0221260004 -1.82554102
v -1.91563106 -0.0209679995 -1.82734394
v -1.91533196 -0.0221260004 -1.82862699
v -1.91473806 -0.0287679993 -1.82715404
v -1.91482902 -0.0299340002 -1.82535505
v -1.91473806 -0.0287679993 -1.82406795
v -1.76278198 -0.0205569994 -1.82501101
v -1.77724004 -0.0220740009 -1.82292998
v -1.77345097 -0.0250070002 -1.82278502
v -1.76262903 -0.025045 -1.82408595
v -1.75239897 -0.0227669999 -1.82587099
v -1.74881899 -0.0190510005 -1.82709706
v -1.75299299 -0.0161259994 -1.82724595
v -1.76343 -0.0160789993 -1.82594097
v -1.77404499 -0.0183649994 -1.82415998
vt 0.5 0.375
vt 0.5 0.25
vt 1 0.25
vt 1 0.375
vt 1 0.531300008
vt 0.5 0.531300008
vt 0 0.531199992
vt 0 0.375
vt 0 0.25
vt 0.5 0.125
vt 0.5 0
vt 1 0
vt 1 0.125
vt 0 0.125
vt 0 0
vt 0.375 0.5
vt 0.531300008 0.5
vt 0.531300008 1
vt 0.375 1
vt 0.25 1
vt 0.25 0.5
vt 0.25 0
vt 0.375 -0
vt 0.531300008 -0
vt 0.125 0.5
vt 0.125 1
vt 0 1
vt 0 0.5
vt 0 0
vt 0.125 0
vt 0.875 0.5
vt 0.75 0.5
vt 0.75 0
vt 0.875 0
vt 1 0
vt 1 0.5
vt 1 1
vt 0.875 1
vt 0.75 1
vt 0.625 0.5
vt 0.468800008 0.5
vt 0.468800008 0
vt 0.625 0
vt 0.625 1
vt 0.468800008 1
vt 0.5 0.875
vt 0.5 0.75
vt 1 0.75
vt 1 0.875
vt 1 1
vt 0.5 1
vt 0 1
vt 0 0.875
vt 0 0.75
vt 0.5 0.625
vt 0.5 0.468699992
vt 1 0.468699992
vt 1 0.625
vt 0 0.625
vt 0 0.468800008
vt 0.5 0.75
vt 1 0.75
vt 1 1
vt 0.5 1
vt 0 1
vt 0 0.75
vt 0.75 0.5
vt 0.75 -0
vt 1 0
vt 1 0.5
vt 0.75 1
vt 0.25 0.5
vt 0 0.5
vt 0 0
vt 0.25 0
vt 0.25 1
vt 0.5 0.25
vt 0.5 0
vt 1 0.25
vt 0 0.25
vt 0.5 0.5
vt 0 0.5
vt 0 0
vt 1 0
vt 1 0.5
vt 1 1
vt 0 1
vt 0.5 0.5
vt 0 0.5
vt 0 0
vt 0.5 0
vt 1 0
vt 1 0.5
vt 1 1
vt 0.5 1
vt 0 1
vt 0.5 0.375
vt 1 0.375
vt 1 0.25
vt 0.5 0.25
vt 0 0.25
vt 0 0.375
vt 0 0.531199992
vt 0.5 0.531300008
vt 1 0.531300008
vt 0.5 0.125
vt 1 0.125
vt 1 0
vt 0.5 0
vt 0 0
vt 0 0.125
vt 0.375 0.5
vt 0.375 1
vt 0.531300008 1
vt 0.531300008 0.5
vt 0.531300008 -0
vt 0.375 -0
vt 0.25 0
vt 0.25 0.5
vt 0.25 1
vt 0.125 0.5
vt 0.125 1
vt 0.125 0
vt 0 0
vt 0 0.5
vt 0 1
vt 0.875 0.5
vt 0.875 0
vt 0.75 0
vt 0.75 0.5
vt 0.75 1
vt 0.875 1
vt 1 1
vt 1 0.5
vt 1 0
vt 0.625 0.5
vt 0.625 0
vt 0.468800008 0
vt 0.468800008 0.5
vt 0.468800008 1
vt 0.625 1
vt 0.5 0.875
vt 1 0.875
vt 1 0.75
vt 0.5 0.75
vt 0 0.75
vt 0 0.875
vt 0 1
vt 0.5 1
vt 1 1
vt 0.5 0.625
vt 1 0.625
vt 1 0.468699992
vt 0.5 0.468699992
vt 0 0.468800008
vt 0 0.625
vt 0.5 0.75
vt 1 0.75
vt 0 0.75
vt 0 1
vt 0.5 1
vt 1 1
vt 0.75 0.5
vt 0.75 -0
vt 0.75 1
vt 1 0.5
vt 1 0
vt 0.25 0.5
vt 0.25 0
vt 0 0
vt 0 0.5
vt 0.25 1
vt 0.5 0.25
vt 1 0.25
vt 0.5 0
vt 0 0.25
vt 0.5 0.5
vt 0 0
vt 0 0.5
vt 0 1
vt 1 1
vt 1 0.5
vt 1 0
vt 0.5 0.5
vt 0.5 0
vt 0 0
vt 0 0.5
vt 0 1
vt 0.5 1
vt 1 1
vt 1 0.5
vt 1 0
vn 0.0155999996 -0.197699994 0.980099976
vn 0.0153000001 -0.190400004 0.981599987
vn -0.0133999996 0.576600015 0.816900015
vn -0.0111999996 0.516600013 0.856100023
vn -0.00769999996 0.433400005 0.901199996
vn 0.0159000009 -0.205899999 0.978399992
vn 0.0284000002 -0.60769999 0.793600023
vn 0.0273000002 -0.565900028 0.824000001
vn 0.0263 -0.538399994 0.842299998
vn 0.993099988 0.0702999979 0.0940999985
vn 0.135499999 0.211799994 -0.967899978
vn 0.122900002 0.241799995 -0.962499976
vn 0.487100005 0.859300017 0.1558
vn 0.649399996 -0.743600011 -0.158600003
vn 0.131600007 0.1796 -0.974900007
vn -0.0333000012 0.996399999 -0.0782999992
vn -0.0320000015 0.999300003 0.0166999996
vn -0.00769999996 0.433400005 0.901199996
vn -0.0111999996 0.516600013 0.856100023
vn -0.0133999996 0.576600015 0.816900015
vn -0.0339000002 0.98150003 -0.188299999
vn -0.0230999999 0.549000025 -0.835500002
vn -0.0239000004 0.586799979 -0.809300005
vn -0.0243999995 0.614799976 -0.788299978
vn 0.0513999984 0.870899975 -0.488799989
vn 0.487100005 0.859300017 0.1558
vn 0.122900002 0.241799995 -0.962499976
vn 0.116400003 0.242599994 -0.963100016
vn 0.109700002 0.238299996 -0.964999974
vn 0.0274999999 0.48089999 -0.876299977
vn 0.229000002 -0.868399978 -0.439700007
vn 0.0322999991 -0.970399976 0.239299998
vn 0.00779999979 -0.543799996 -0.839100003
vn 0.0746000037 -0.537299991 -0.84009999
vn 0.1171 0.181600004 -0.976300001
vn 0.125499994 0.177599996 -0.976000011
vn 0.131600007 0.1796 -0.974900007
vn 0.649399996 -0.743600011 -0.158600003
vn 0.0263 -0.538399994 0.842299998
vn 0.0324000008 -0.991400003 0.126900002
vn 0.0315999985 -0.999499977 -0.0027999999
vn 0.00359999994 -0.415899992 -0.909399986
vn 0.00520000001 -0.462700009 -0.886500001
vn 0.0273000002 -0.565900028 0.824000001
vn 0.0284000002 -0.60769999 0.793600023
vn 0.0152000003 0.189099997 -0.98180002
vn -0.0141000003 0.191799998 -0.981299996
vn -0.0230999999 0.549000025 -0.835500002
vn 0.0274999999 0.48089999 -0.876299977
vn 0.109700002 0.238299996 -0.964999974
vn 0.107600003 0.210500002 -0.971599996
vn 0.1171 0.181600004 -0.976300001
vn 0.0746000037 -0.537299991 -0.84009999
vn 0.00779999979 -0.543799996 -0.839100003
vn -0.0142000001 0.199499995 -0.979799986
vn -0.0143999998 0.206100002 -0.978399992
vn -0.0243999995 0.614799976 -0.788299978
vn -0.0239000004 0.586799979 -0.809300005
vn 0.00520000001 -0.462700009 -0.886500001
vn 0.00359999994 -0.415899992 -0.909399986
vn -0.373199999 -0.221300006 0.900900006
vn -0.469000012 0.338999987 0.815500021
vn -0.908200026 -0.000899999985 0.418599993
vn -0.882300019 -0.1734 0.4375
vn -0.866699994 -0.314999998 0.386799991
vn -0.394800007 -0.611199975 0.68599999
vn -0.528400004 0.846499979 0.0649999976
vn -0.462399989 0.5546 -0.691799998
vn -0.904699981 0.163499996 -0.393400013
vn -0.977999985 0.208299994 -0.00039999999
vn -0.469000012 0.338999987 0.815500021
vn -0.426200002 -0.90259999 -0.0592
vn -0.930899978 -0.365099996 -9.99999975e-05
vn -0.896700025 -0.156299993 -0.414000005
vn -0.437700003 -0.396600008 -0.806900024
vn -0.394800007 -0.611199975 0.68599999
vn -0.402799994 0.154699996 -0.902100027
vn -0.898000002 0.0196000002 -0.439500004
vn -0.462399989 0.5546 -0.691799998
vn -0.437700003 -0.396600008 -0.806900024
vn -0.996100008 -0.0883999988 -0.000199999995
vn -0.977999985 0.208299994 -0.00039999999
vn -0.904699981 0.163499996 -0.393400013
vn -0.896700025 -0.156299993 -0.414000005
vn -0.930899978 -0.365099996 -9.99999975e-05
vn -0.866699994 -0.314999998 0.386799991
vn -0.908200026 -0.000899999985 0.418599993
vn 0.119800001 0.211400002 -0.970000029
vn 0.125499994 0.177599996 -0.976000011
vn 0.1171 0.181600004 -0.976300001
vn 0.107600003 0.210500002 -0.971599996
vn 0.109700002 0.238299996 -0.964999974
vn 0.116400003 0.242599994 -0.963100016
vn 0.122900002 0.241799995 -0.962499976
vn 0.135499999 0.211799994 -0.967899978
vn 0.131600007 0.1796 -0.974900007
vn 0.0155999996 -0.197699994 -0.980099976
vn -0.0111999996 0.516600013 -0.856100023
vn -0.0133999996 0.576600015 -0.816900015
vn 0.0153000001 -0.190400004 -0.981599987
vn 0.0263 -0.538299978 -0.842299998
vn 0.0273000002 -0.565900028 -0.824000001
vn 0.0284000002 -0.60769999 -0.79369998
vn 0.0159000009 -0.205899999 -0.978399992
vn -0.00769999996 0.433400005 -0.901199996
vn 0.993099988 0.0702000037 -0.0939999968
vn 0.486999989 0.859300017 -0.1558
vn 0.122900002 0.241799995 0.962499976
vn 0.135399997 0.211799994 0.967899978
vn 0.131600007 0.179499999 0.974900007
vn 0.649399996 -0.743700027 0.158600003
vn -0.0333000012 0.996399999 0.0781999975
vn -0.0111999996 0.516600013 -0.856100023
vn -0.00769999996 0.433400005 -0.901199996
vn -0.0320000015 0.999300003 -0.0167999994
vn -0.0243999995 0.614799976 0.788299978
vn -0.0239000004 0.586799979 0.809300005
vn -0.0230999999 0.549000025 0.835500002
vn -0.0339000002 0.98150003 0.188299999
vn -0.0133999996 0.576600015 -0.816900015
vn 0.0513999984 0.870800018 0.488799989
vn 0.486999989 0.859300017 -0.1558
vn 0.0274999999 0.48089999 0.876299977
vn 0.109700002 0.238299996 0.964999974
vn 0.116400003 0.242599994 0.963100016
vn 0.122900002 0.241799995 0.962499976
vn 0.229000002 -0.868399978 0.439700007
vn 0.0746000037 -0.537299991 0.84009999
vn 0.00779999979 -0.543900013 0.839100003
vn 0.0322999991 -0.970399976 -0.239299998
vn 0.0263 -0.538299978 -0.842299998
vn 0.649399996 -0.743700027 0.158600003
vn 0.131600007 0.179499999 0.974900007
vn 0.125499994 0.177599996 0.976000011
vn 0.1171 0.181600004 0.976300001
vn 0.0324000008 -0.991400003 -0.126900002
vn 0.00520000001 -0.462700009 0.886500001
vn 0.00359999994 -0.415899992 0.909399986
vn 0.0315999985 -0.999499977 0.0027999999
vn 0.0284000002 -0.60769999 -0.79369998
vn 0.0273000002 -0.565900028 -0.824000001
vn 0.0152000003 0.188999996 0.98180002
vn 0.0274999999 0.48089999 0.876299977
vn -0.0230999999 0.549000025 0.835500002
vn -0.0141000003 0.191799998 0.981299996
vn 0.00779999979 -0.543900013 0.839100003
vn 0.0746000037 -0.537299991 0.84009999
vn 0.1171 0.181600004 0.976300001
vn 0.107600003 0.210500002 0.971599996
vn 0.109700002 0.238299996 0.964999974
vn -0.0142000001 0.199499995 0.979799986
vn -0.0239000004 0.586799979 0.809300005
vn -0.0243999995 0.614799976 0.788299978
vn -0.0143999998 0.206100002 0.978399992
vn 0.00359999994 -0.415899992 0.909399986
vn 0.00520000001 -0.462700009 0.886500001
vn -0.373299986 -0.221300006 -0.900900006
vn -0.469000012 0.338999987 -0.815500021
vn -0.394800007 -0.611199975 -0.68599999
vn -0.866699994 -0.314999998 -0.386700004
vn -0.882300019 -0.1734 -0.4375
vn -0.908200026 -0.000899999985 -0.418500006
vn -0.528400004 0.846499979 -0.0649999976
vn -0.462399989 0.5546 0.691799998
vn -0.469000012 0.338999987 -0.815500021
vn -0.977999985 0.208399996 0.00039999999
vn -0.904699981 0.163499996 0.393400013
vn -0.426200002 -0.90259999 0.0592
vn -0.437700003 -0.396600008 0.806900024
vn -0.896700025 -0.156299993 0.414000005
vn -0.930899978 -0.365099996 9.99999975e-05
vn -0.394800007 -0.611199975 -0.68599999
vn -0.402799994 0.154699996 0.902100027
vn -0.462399989 0.5546 0.691799998
vn -0.898000002 0.0196000002 0.439500004
vn -0.437700003 -0.396600008 0.806900024
vn -0.996100008 -0.0883999988 0.000199999995
vn -0.904699981 0.163499996 0.393400013
vn -0.977999985 0.208399996 0.00039999999
vn -0.908200026 -0.000899999985 -0.418500006
vn -0.866699994 -0.314999998 -0.386700004
vn -0.930899978 -0.365099996 9.99999975e-05
vn -0.896700025 -0.156299993 0.414000005
vn 0.119800001 0.211400002 0.970000029
vn 0.107600003 0.210500002 0.971599996
vn 0.1171 0.181600004 0.976300001
vn 0.125499994 0.177599996 0.976000011
vn 0.131600007 0.179499999 0.974900007
vn 0.135399997 0.211799994 0.967899978
vn 0.122900002 0.241799995 0.962499976
vn 0.116400003 0.242599994 0.963100016
vn 0.109700002 0.238299996 0.964999974
f 1/1/1 2/2/2 3/3/3
f 1/1/1 3/3/3 4/4/4
f 1/1/1 4/4/4 5/5/5
f 1/1/1 5/5/5 6/6/6
f 1/1/1 6/6/6 7/7/7
f 1/1/1 7/7/7 8/8/8
f 1/1/1 8/8/8 9/9/9
f 1/1/1 9/9/9 2/2/2
f 10/10/10 11/11/11 12/12/12
f 10/10/10 12/12/12 13/13/13
f 10/10/10 13/13/13 3/3/3
f 10/10/10 3/3/3 2/2/2
f 10/10/10 2/2/2 9/9/9
f 10/10/10 9/9/9 14/14/14
f 10/10/10 14/14/14 15/15/15
f 10/10/10 15/15/15 11/11/11
f 16/16/16 17/17/17 18/18/18
f 16/16/16 18/18/18 19/19/19
f 16/16/16 19/19/19 20/20/20
f 16/16/16 20/20/20 21/21/21
f 16/16/16 21/21/21 22/22/22
f 16/16/16 22/22/22 23/23/23
f 16/16/16 23/23/23 24/24/24
f 16/16/16 24/24/24 17/17/17
f 25/25/25 21/21/21 20/20/20
f 25/25/25 20/20/20 26/26/26
f 25/25/25 26/26/26 27/27/27
f 25/25/25 27/27/27 28/28/28
f 25/25/25 28/28/28 29/29/29
f 25/25/25 29/29/29 30/30/30
f 25/25/25 30/30/30 22/22/22
f 25/25/25 22/22/22 21/21/21
f 31/31/31 32/32/32 33/33/33
f 31/31/31 33/33/33 34/34/34
f 31/31/31 34/34/34 35/35/35
f 31/31/31 35/35/35 36/36/36
f 31/31/31 36/36/36 37/37/37
f 31/31/31 37/37/37 38/38/38
f 31/31/31 38/38/38 39/39/39
f 31/31/31 39/39/39 32/32/32
f 40/40/40 41/41/41 42/42/42
f 40/40/40 42/42/42 43/43/43
f 40/40/40 43/43/43 33/33/33
f 40/40/40 33/33/33 32/32/32
f 40/40/40 32/32/32 39/39/39
f 40/40/40 39/39/39 44/44/44
f 40/40/40 44/44/44 45/45/45
f 40/40/40 45/45/45 41/41/41
f 46/46/46 47/47/47 48/48/48
f 46/46/46 48/48/48 49/49/49
f 46/46/46 49/49/49 50/50/50
f 46/46/46 50/50/50 51/51/51
f 46/46/46 51/51/51 52/52/52
f 46/46/46 52/52/52 53/53/53
f 46/46/46 53/53/53 54/54/54
f 46/46/46 54/54/54 47/47/47
f 55/55/55 56/56/56 57/57/57
f 55/55/55 57/57/57 58/58/58
f 55/55/55 58/58/58 48/48/48
f 55/55/55 48/48/48 47/47/47
f 55/55/55 47/47/47 54/54/54
f 55/55/55 54/54/54 59/59/59
f 55/55/55 59/59/59 60/60/60
f 55/55/55 60/60/60 56/56/56
f 61/61/61 6/6/6 5/5/5
f 61/61/61 5/5/5 62/62/62
f 61/61/61 62/62/62 63/63/63
f 61/61/61 63/63/63 64/64/64
f 61/61/61 64/64/64 65/65/65
f 61/61/61 65/65/65 66/66/66
f 61/61/61 66/66/66 7/7/7
f 61/61/61 7/7/7 6/6/6
f 67/67/67 17/17/17 24/24/24
f 67/67/67 24/24/24 68/68/68
f 67/67/67 68/68/68 69/69/69
f 67/67/67 69/69/69 70/70/70
f 67/67/67 70/70/70 63/63/63
f 67/67/67 63/63/63 71/71/71
f 67/67/67 71/71/71 18/18/18
f 67/67/67 18/18/18 17/17/17
f 72/72/72 73/73/73 74/74/74
f 72/72/72 74/74/74 75/75/75
f 72/72/72 75/75/75 42/42/42
f 72/72/72 42/42/42 41/41/41
f 72/72/72 41/41/41 45/45/45
f 72/72/72 45/45/45 76/76/76
f 72/72/72 76/76/76 65/65/65
f 72/72/72 65/65/65 73/73/73
f 77/77/77 78/78/78 69/69/69
f 77/77/77 69/69/69 79/79/79
f 77/77/77 79/79/79 57/57/57
f 77/77/77 57/57/57 56/56/56
f 77/77/77 56/56/56 60/60/60
f 77/77/77 60/60/60 80/80/80
f 77/77/77 80/80/80 74/74/74
f 77/77/77 74/74/74 78/78/78
f 81/81/81 82/82/82 83/83/83
f 81/81/81 83/83/83 78/78/78
f 81/81/81 78/78/78 84/84/84
f 81/81/81 84/84/84 85/85/85
f 81/81/81 85/85/85 86/86/86
f 81/81/81 86/86/86 64/64/64
f 81/81/81 64/64/64 87/87/87
f 81/81/81 87/87/87 82/82/82
f 88/88/88 89/89/89 90/90/90
f 88/88/88 90/90/90 91/91/91
f 88/88/88 91/91/91 92/92/92
f 88/88/88 92/92/92 93/93/93
f 88/88/88 93/93/93 94/94/94
f 88/88/88 94/94/94 95/95/95
f 88/88/88 95/95/95 96/96/96
f 88/88/88 96/96/96 89/89/89
f 97/97/97 98/98/98 99/99/99
f 97/97/97 99/99/99 100/100/100
f 97/97/97 100/100/100 101/101/101
f 97/97/97 101/101/101 102/102/102
f 97/97/97 102/102/102 103/103/103
f 97/97/97 103/103/103 104/104/104
f 97/97/97 104/104/104 105/105/105
f 97/97/97 105/105/105 98/98/98
f 106/106/106 107/107/107 108/108/108
f 106/106/106 108/108/108 109/109/109
f 106/106/106 109/109/109 110/110/110
f 106/106/106 110/110/110 111/111/111
f 106/106/106 111/111/111 101/101/101
f 106/106/106 101/101/101 100/100/100
f 106/106/106 100/100/100 99/99/99
f 106/106/106 99/99/99 107/107/107
f 112/112/112 113/113/113 114/114/114
f 112/112/112 114/114/114 115/115/115
f 112/112/112 115/115/115 116/116/116
f 112/112/112 116/116/116 117/117/117
f 112/112/112 117/117/117 118/118/118
f 112/112/112 118/118/118 119/119/119
f 112/112/112 119/119/119 120/120/120
f 112/112/112 120/120/120 113/113/113
f 121/121/121 122/122/122 120/120/120
f 121/121/121 120/120/120 119/119/119
f 121/121/121 119/119/119 118/118/118
f 121/121/121 118/118/118 123/123/123
f 121/121/121 123/123/123 124/124/124
f 121/121/121 124/124/124 125/125/125
f 121/121/121 125/125/125 126/126/126
f 121/121/121 126/126/126 122/122/122
f 127/127/127 128/128/128 129/129/129
f 127/127/127 129/129/129 130/130/130
f 127/127/127 130/130/130 131/131/131
f 127/127/127 131/131/131 132/132/132
f 127/127/127 132/132/132 133/133/133
f 127/127/127 133/133/133 134/134/134
f 127/127/127 134/134/134 135/135/135
f 127/127/127 135/135/135 128/128/128
f 136/136/136 137/137/137 138/138/138
f 136/136/136 138/138/138 139/139/139
f 136/136/136 139/139/139 140/140/140
f 136/136/136 140/140/140 141/141/141
f 136/136/136 141/141/141 131/131/131
f 136/136/136 131/131/131 130/130/130
f 136/136/136 130/130/130 129/129/129
f 136/136/136 129/129/129 137/137/137
f 142/142/142 143/143/143 144/144/144
f 142/142/142 144/144/144 145/145/145
f 142/142/142 145/145/145 146/146/146
f 142/142/142 146/146/146 147/147/147
f 142/142/142 147/147/147 148/148/148
f 142/142/142 148/148/148 149/149/149
f 142/142/142 149/149/149 150/150/150
f 142/142/142 150/150/150 143/143/143
f 151/151/151 152/152/152 153/153/153
f 151/151/151 153/153/153 154/154/154
f 151/151/151 154/154/154 155/155/155
f 151/151/151 155/155/155 156/156/156
f 151/151/151 156/156/156 146/146/146
f 151/151/151 146/146/146 145/145/145
f 151/151/151 145/145/145 144/144/144
f 151/151/151 144/144/144 152/152/152
f 157/157/157 158/158/158 105/105/105
f 157/157/157 105/105/105 104/104/104
f 157/157/157 104/104/104 103/103/103
f 157/157/157 103/103/103 159/159/159
f 157/157/157 159/159/159 160/160/160
f 157/157/157 160/160/160 161/161/161
f 157/157/157 161/161/161 162/162/162
f 157/157/157 162/162/162 158/158/158
f 163/163/163 164/164/164 116/116/116
f 163/163/163 116/116/116 115/115/115
f 163/163/163 115/115/115 114/114/114
f 163/163/163 114/114/114 165/165/165
f 163/163/163 165/165/165 162/162/162
f 163/163/163 162/162/162 166/166/166
f 163/163/163 166/166/166 167/167/167
f 163/163/163 167/167/167 164/164/164
f 168/168/168 169/169/169 170/170/170
f 168/168/168 170/170/170 171/171/171
f 168/168/168 171/171/171 160/160/160
f 168/168/168 160/160/160 172/172/172
f 168/168/168 172/172/172 140/140/140
f 168/168/168 140/140/140 139/139/139
f 168/168/168 139/139/139 138/138/138
f 168/168/168 138/138/138 169/169/169
f 173/173/173 174/174/174 167/167/167
f 173/173/173 167/167/167 175/175/175
f 173/173/173 175/175/175 170/170/170
f 173/173/173 170/170/170 176/176/176
f 173/173/173 176/176/176 155/155/155
f 173/173/173 155/155/155 154/154/154
f 173/173/173 154/154/154 153/153/153
f 173/173/173 153/153/153 174/174/174
f 177/177/177 175/175/175 178/178/178
f 177/177/177 178/178/178 179/179/179
f 177/177/177 179/179/179 180/180/180
f 177/177/177 180/180/180 161/161/161
f 177/177/177 161/161/161 181/181/181
f 177/177/177 181/181/181 182/182/182
f 177/177/177 182/182/182 183/183/183
f 177/177/177 183/183/183 175/175/175
f 184/184/184 185/185/185 186/186/186
f 184/184/184 186/186/186 187/187/187
f 184/184/184 187/187/187 188/188/188
f 184/184/184 188/188/188 189/189/189
f 184/184/184 189/189/189 190/190/190
f 184/184/184 190/190/190 191/191/191
f 184/184/184 191/191/191 192/192/192
f 184/184/184 192/192/192 185/185/185
