# Generated by lxe_pbrt_scene_convert
v -4.114923 -0.188538 1.53025103
v -4.11847496 -0.187670007 1.53461397
v -4.11847496 -0.173326001 1.53026497
v -4.114923 -0.175027996 1.52615499
v -4.11847496 -0.160107002 1.52319705
v -4.114923 -0.162578002 1.51949799
v -4.11847496 -0.148519993 1.51368904
v -4.114923 -0.151666 1.51054394
v -4.11847496 -0.139010996 1.50210202
v -4.114923 -0.14271 1.49962997
v -4.11847496 -0.131944999 1.48888302
v -4.114923 -0.136054993 1.48717999
v -4.11847496 -0.127593994 1.47454
v -4.114923 -0.131956995 1.47367203
v -4.11847496 -0.126124993 1.45962095
v -4.114923 -0.130574003 1.45962095
v -4.11847496 -0.127593994 1.44470501
v -4.114923 -0.131956995 1.44557202
v -4.11847496 -0.131944999 1.43036103
v -4.114923 -0.136054993 1.43206298
v -4.11847496 -0.139010996 1.41714299
v -4.114923 -0.14271 1.41961396
v -4.11847496 -0.148519993 1.40555501
v -4.114923 -0.151666 1.40869999
v -4.11847496 -0.160107002 1.396047
v -4.114923 -0.162578002 1.39974594
v -4.11847496 -0.173326001 1.38898003
v -4.114923 -0.175028995 1.39309001
v -4.11847496 -0.187670007 1.38462901
v -4.114923 -0.188538 1.38899195
v -4.11847496 -0.202586994 1.38316
v -4.114923 -0.202586994 1.38760805
v -4.11847496 -0.217503995 1.38462901
v -4.114923 -0.216636002 1.38899195
v -4.11847496 -0.231847003 1.38898003
v -4.114923 -0.230145007 1.39309001
v -4.11847496 -0.245067 1.396047
v -4.114923 -0.242595002 1.39974594
v -4.11847496 -0.256653011 1.40555501
v -4.114923 -0.253506988 1.40869999
v -4.11847496 -0.266162008 1.41714299
v -4.114923 -0.262463003 1.41961396
v -4.11847496 -0.27322799 1.43036103
v -4.114923 -0.269118011 1.43206298
v -4.11847496 -0.27757901 1.44470501
v -4.114923 -0.273216009 1.44557202
v -4.11847496 -0.279047996 1.45962095
v -4.114923 -0.274599999 1.45962095
v -4.11847496 -0.27757901 1.47454
v -4.114923 -0.273216009 1.47367203
v -4.11847496 -0.27322799 1.48888302
v -4.114923 -0.269118011 1.48717999
v -4.11847496 -0.266162008 1.50210202
v -4.114923 -0.262463003 1.49962997
v -4.11847496 -0.256653011 1.51368904
v -4.114923 -0.253506988 1.51054394
v -4.11847496 -0.245067 1.52319705
v -4.114923 -0.242595002 1.51949799
v -4.11847496 -0.231847003 1.53026497
v -4.114923 -0.230145007 1.52615499
v -4.11847496 -0.217503995 1.53461397
v -4.114923 -0.216636002 1.53025103
v -4.11847496 -0.202586994 1.53608501
v -4.114923 -0.202586994 1.531636
v -4.1192441 -0.187481999 1.53555906
v -4.1192441 -0.172957003 1.53115404
v -4.1192441 -0.159572005 1.52399802
v -4.1192441 -0.147838995 1.51436996
v -4.1192441 -0.138209999 1.50263703
v -4.1192441 -0.131055996 1.48925102
v -4.1192441 -0.126650006 1.47472799
v -4.1192441 -0.125162005 1.45962095
v -4.1192441 -0.126650006 1.44451702
v -4.1192441 -0.131055996 1.42999196
v -4.1192441 -0.138209999 1.41660798
v -4.1192441 -0.147838995 1.40487397
v -4.1192441 -0.159572005 1.39524698
v -4.1192441 -0.172958001 1.38809001
v -4.1192441 -0.187481999 1.38368499
v -4.1192441 -0.202586994 1.38219702
v -4.1192441 -0.217692003 1.38368499
v -4.1192441 -0.232216001 1.38809001
v -4.1192441 -0.245600998 1.39524698
v -4.1192441 -0.257333994 1.40487397
v -4.1192441 -0.266963005 1.41660798
v -4.1192441 -0.274118006 1.42999196
v -4.1192441 -0.278524011 1.44451702
v -4.1192441 -0.280010998 1.45962095
v -4.1192441 -0.278524011 1.47472799
v -4.1192441 -0.274118006 1.48925102
v -4.1192441 -0.266963005 1.50263703
v -4.1192441 -0.257333994 1.51436996
v -4.1192441 -0.245600998 1.52399802
v -4.1192441 -0.232216001 1.53115404
v -4.1192441 -0.217692003 1.53555906
v -4.1192441 -0.202586994 1.53704798
v -4.10476112 -0.185287997 1.54658794
v -4.07508802 -0.185287997 1.54658794
v -4.07508802 -0.168653995 1.54154301
v -4.10476112 -0.168653995 1.54154301
v -4.10615921 -0.185287997 1.54658794
v -4.10615921 -0.168653995 1.54154301
v -4.07508802 -0.153323993 1.53334796
v -4.10476112 -0.153323993 1.53334796
v -4.10615921 -0.153323993 1.53334796
v -4.07508802 -0.139887005 1.52232003
v -4.10476112 -0.139887005 1.52232003
v -4.10615921 -0.139887005 1.52232003
v -4.07508802 -0.128859997 1.50888503
v -4.10476112 -0.128859997 1.50888503
v -4.10615921 -0.128859997 1.50888503
v -4.07508802 -0.120665997 1.49355495
v -4.10476112 -0.120665997 1.49355495
v -4.10615921 -0.120665997 1.49355495
v -4.07508802 -0.115620002 1.47692096
v -4.10476112 -0.115620002 1.47692096
v -4.10615921 -0.115620002 1.47692096
v -4.07508802 -0.113916002 1.45962095
v -4.10476112 -0.113916002 1.45962095
v -4.10615921 -0.113916002 1.45962095
v -4.07508802 -0.115620002 1.44232404
v -4.10476112 -0.115620002 1.44232404
v -4.10615921 -0.115620002 1.44232404
v -4.07508802 -0.120665997 1.42568898
v -4.10476112 -0.120665997 1.42568898
v -4.10615921 -0.120665997 1.42568898
v -4.07508802 -0.128859997 1.41035998
v -4.10476112 -0.128859997 1.41035998
v -4.10615921 -0.128859997 1.41035998
v -4.07508802 -0.139887005 1.39692295
v -4.10476112 -0.139887005 1.39692295
v -4.10615921 -0.139887005 1.39692295
v -4.07508802 -0.153323993 1.38589597
v -4.10476112 -0.153323993 1.38589597
v -4.10615921 -0.153323993 1.38589597
v -4.07508802 -0.168653995 1.37770104
v -4.10476112 -0.168653995 1.37770104
v -4.10615921 -0.168653995 1.37770104
v -4.07508802 -0.185287997 1.37265503
v -4.10476112 -0.185287997 1.37265503
v -4.10615921 -0.185287997 1.37265503
v -4.07508802 -0.202586994 1.37094998
v -4.10476112 -0.202586994 1.37094998
v -4.10615921 -0.202586994 1.37094998
v -4.07508802 -0.219885007 1.37265503
v -4.10476112 -0.219885007 1.37265503
v -4.10615921 -0.219885007 1.37265503
v -4.07508802 -0.236518994 1.37770104
v -4.10476112 -0.236518994 1.37770104
v -4.10615921 -0.236518994 1.37770104
v -4.07508802 -0.251848996 1.38589597
v -4.10476112 -0.251848996 1.38589597
v -4.10615921 -0.251848996 1.38589597
v -4.07508802 -0.265285999 1.39692295
v -4.10476112 -0.265285999 1.39692295
v -4.10615921 -0.265285999 1.39692295
v -4.07508802 -0.276313007 1.41035998
v -4.10476112 -0.276313007 1.41035998
v -4.10615921 -0.276313007 1.41035998
v -4.07508802 -0.284507006 1.42568898
v -4.10476112 -0.284507006 1.42568898
v -4.10615921 -0.284507006 1.42568898
v -4.07508802 -0.289552987 1.44232404
v -4.10476112 -0.289552987 1.44232404
v -4.10615921 -0.289552987 1.44232404
v -4.07508802 -0.291256994 1.45962095
v -4.10476112 -0.291256994 1.45962095
v -4.10615921 -0.291256994 1.45962095
v -4.07508802 -0.289552987 1.47692096
v -4.10476112 -0.289552987 1.47692096
v -4.10615921 -0.289552987 1.47692096
v -4.07508802 -0.284507006 1.49355495
v -4.10476112 -0.284507006 1.49355495
v -4.10615921 -0.284507006 1.49355495
v -4.07508802 -0.276313007 1.50888503
v -4.10476112 -0.276313007 1.50888503
v -4.10615921 -0.276313007 1.50888503
v -4.07508802 -0.265285999 1.52232003
v -4.10476112 -0.265285999 1.52232003
v -4.10615921 -0.265285999 1.52232003
v -4.07508802 -0.251848996 1.53334796
v -4.10476112 -0.251848996 1.53334796
v -4.10615921 -0.251848996 1.53334796
v -4.07508802 -0.236518994 1.54154301
v -4.10476112 -0.236518994 1.54154301
v -4.10615921 -0.236518994 1.54154301
v -4.07508802 -0.219885007 1.54658794
v -4.10476112 -0.219885007 1.54658794
v -4.10615921 -0.219885007 1.54658794
v -4.07508802 -0.202586994 1.54829299
v -4.10476112 -0.202586994 1.54829299
v -4.10615921 -0.202586994 1.54829299
v -4.114923 -0.188538 -1.53025103
v -4.114923 -0.175027996 -1.52615499
v -4.11847496 -0.173326001 -1.53026497
v -4.11847496 -0.187670007 -1.53461397
v -4.114923 -0.162578002 -1.51949799
v -4.11847496 -0.160107002 -1.52319705
v -4.114923 -0.151666 -1.51054394
v -4.11847496 -0.148519993 -1.51368904
v -4.114923 -0.14271 -1.49962997
v -4.11847496 -0.139010996 -1.50210202
v -4.114923 -0.136054993 -1.48717999
v -4.11847496 -0.131944999 -1.48888302
v -4.114923 -0.131956995 -1.47367203
v -4.11847496 -0.127593994 -1.47454
v -4.114923 -0.130574003 -1.45962095
v -4.11847496 -0.126124993 -1.45962095
v -4.114923 -0.131956995 -1.44557202
v -4.11847496 -0.127593994 -1.44470501
v -4.114923 -0.136054993 -1.43206298
v -4.11847496 -0.131944999 -1.43036103
v -4.114923 -0.14271 -1.41961396
v -4.11847496 -0.139010996 -1.41714299
v -4.11847496 -0.148519993 -1.40555501
v -4.114923 -0.151666 -1.40869999
v -4.114923 -0.162578002 -1.39974594
v -4.11847496 -0.160107002 -1.396047
v -4.114923 -0.175028995 -1.39309001
v -4.11847496 -0.173326001 -1.38898003
v -4.114923 -0.188538 -1.38899195
v -4.11847496 -0.187670007 -1.38462901
v -4.114923 -0.202586994 -1.38760805
v -4.11847496 -0.202586994 -1.38316
v -4.114923 -0.216636002 -1.38899195
v -4.11847496 -0.217503995 -1.38462901
v -4.114923 -0.230145007 -1.39309001
v -4.11847496 -0.231847003 -1.38898003
v -4.114923 -0.242595002 -1.39974594
v -4.11847496 -0.245067 -1.396047
v -4.114923 -0.253506988 -1.40869999
v -4.11847496 -0.256653011 -1.40555501
v -4.114923 -0.262463003 -1.41961396
v -4.11847496 -0.266162008 -1.41714299
v -4.114923 -0.269118011 -1.43206298
v -4.11847496 -0.27322799 -1.43036103
v -4.114923 -0.273216009 -1.44557202
v -4.11847496 -0.27757901 -1.44470501
v -4.114923 -0.274599999 -1.45962095
v -4.11847496 -0.279047996 -1.45962095
v -4.114923 -0.273216009 -1.47367203
v -4.11847496 -0.27757901 -1.47454
v -4.114923 -0.269118011 -1.48717999
v -4.11847496 -0.27322799 -1.48888302
v -4.114923 -0.262463003 -1.49962997
v -4.11847496 -0.266162008 -1.50210202
v -4.114923 -0.253506988 -1.51054394
v -4.11847496 -0.256653011 -1.51368904
v -4.114923 -0.242595002 -1.51949799
v -4.11847496 -0.245067 -1.52319705
v -4.114923 -0.230145007 -1.52615499
v -4.11847496 -0.231847003 -1.53026497
v -4.114923 -0.216636002 -1.53025103
v -4.11847496 -0.217503995 -1.53461397
v -4.114923 -0.202586994 -1.531636
v -4.11847496 -0.202586994 -1.53608501
v -4.1192441 -0.172957003 -1.53115404
v -4.1192441 -0.187481999 -1.53555906
v -4.1192441 -0.159572005 -1.52399802
v -4.1192441 -0.147838995 -1.51436996
v -4.1192441 -0.138209999 -1.50263703
v -4.1192441 -0.131055996 -1.48925102
v -4.1192441 -0.126650006 -1.47472799
v -4.1192441 -0.125162005 -1.45962095
v -4.1192441 -0.126650006 -1.44451702
v -4.1192441 -0.131055996 -1.42999196
v -4.1192441 -0.138209999 -1.41660798
v -4.1192441 -0.147838995 -1.40487397
v -4.1192441 -0.159572005 -1.39524698
v -4.1192441 -0.172958001 -1.38809001
v -4.1192441 -0.187481999 -1.38368499
v -4.1192441 -0.202586994 -1.38219702
v -4.1192441 -0.217692003 -1.38368499
v -4.1192441 -0.232216001 -1.38809001
v -4.1192441 -0.245600998 -1.39524698
v -4.1192441 -0.257333994 -1.40487397
v -4.1192441 -0.266963005 -1.41660798
v -4.1192441 -0.274118006 -1.42999196
v -4.1192441 -0.278524011 -1.44451702
v -4.1192441 -0.280010998 -1.45962095
v -4.1192441 -0.278524011 -1.47472799
v -4.1192441 -0.274118006 -1.48925102
v -4.1192441 -0.266963005 -1.50263703
v -4.1192441 -0.257333994 -1.51436996
v -4.1192441 -0.245600998 -1.52399802
v -4.1192441 -0.232216001 -1.53115404
v -4.1192441 -0.217692003 -1.53555906
v -4.1192441 -0.202586994 -1.53704798
v -4.10476112 -0.185287997 -1.54658794
v -4.10476112 -0.168653995 -1.54154301
v -4.07508802 -0.168653995 -1.54154301
v -4.07508802 -0.185287997 -1.54658794
v -4.10615921 -0.185287997 -1.54658794
v -4.10615921 -0.168653995 -1.54154301
v -4.10476112 -0.153323993 -1.53334796
v -4.07508802 -0.153323993 -1.53334796
v -4.10615921 -0.153323993 -1.53334796
v -4.10476112 -0.139887005 -1.52232003
v -4.07508802 -0.139887005 -1.52232003
v -4.10615921 -0.139887005 -1.52232003
v -4.10476112 -0.128859997 -1.50888503
v -4.07508802 -0.128859997 -1.50888503
v -4.10615921 -0.128859997 -1.50888503
v -4.10476112 -0.120665997 -1.49355495
v -4.07508802 -0.120665997 -1.49355495
v -4.10615921 -0.120665997 -1.49355495
v -4.10476112 -0.115620002 -1.47692096
v -4.07508802 -0.115620002 -1.47692096
v -4.10615921 -0.115620002 -1.47692096
v -4.10476112 -0.113916002 -1.45962095
v -4.07508802 -0.113916002 -1.45962095
v -4.10615921 -0.113916002 -1.45962095
v -4.10476112 -0.115620002 -1.44232404
v -4.07508802 -0.115620002 -1.44232404
v -4.10615921 -0.115620002 -1.44232404
v -4.10476112 -0.120665997 -1.42568898
v -4.07508802 -0.120665997 -1.42568898
v -4.10615921 -0.120665997 -1.42568898
v -4.10476112 -0.128859997 -1.41035998
v -4.07508802 -0.128859997 -1.41035998
v -4.10615921 -0.128859997 -1.41035998
v -4.10476112 -0.139887005 -1.39692295
v -4.07508802 -0.139887005 -1.39692295
v -4.10615921 -0.139887005 -1.39692295
v -4.10476112 -0.153323993 -1.38589597
v -4.07508802 -0.153323993 -1.38589597
v -4.10615921 -0.153323993 -1.38589597
v -4.10476112 -0.168653995 -1.37770104
v -4.07508802 -0.168653995 -1.37770104
v -4.10615921 -0.168653995 -1.37770104
v -4.10476112 -0.185287997 -1.37265503
v -4.07508802 -0.185287997 -1.37265503
v -4.10615921 -0.185287997 -1.37265503
v -4.10476112 -0.202586994 -1.37094998
v -4.07508802 -0.202586994 -1.37094998
v -4.10615921 -0.202586994 -1.37094998
v -4.10476112 -0.219885007 -1.37265503
v -4.07508802 -0.219885007 -1.37265503
v -4.10615921 -0.219885007 -1.37265503
v -4.10476112 -0.236518994 -1.37770104
v -4.07508802 -0.236518994 -1.37770104
v -4.10615921 -0.236518994 -1.37770104
v -4.10476112 -0.251848996 -1.38589597
v -4.07508802 -0.251848996 -1.38589597
v -4.10615921 -0.251848996 -1.38589597
v -4.10476112 -0.265285999 -1.39692295
v -4.07508802 -0.265285999 -1.39692295
v -4.10615921 -0.265285999 -1.39692295
v -4.10476112 -0.276313007 -1.41035998
v -4.07508802 -0.276313007 -1.41035998
v -4.10615921 -0.276313007 -1.41035998
v -4.10476112 -0.284507006 -1.42568898
v -4.07508802 -0.284507006 -1.42568898
v -4.10615921 -0.284507006 -1.42568898
v -4.10476112 -0.289552987 -1.44232404
v -4.07508802 -0.289552987 -1.44232404
v -4.10615921 -0.289552987 -1.44232404
v -4.10476112 -0.291256994 -1.45962095
v -4.07508802 -0.291256994 -1.45962095
v -4.10615921 -0.291256994 -1.45962095
v -4.10476112 -0.289552987 -1.47692096
v -4.07508802 -0.289552987 -1.47692096
v -4.10615921 -0.289552987 -1.47692096
v -4.10476112 -0.284507006 -1.49355495
v -4.07508802 -0.284507006 -1.49355495
v -4.10615921 -0.284507006 -1.49355495
v -4.10476112 -0.276313007 -1.50888503
v -4.07508802 -0.276313007 -1.50888503
v -4.10615921 -0.276313007 -1.50888503
v -4.10476112 -0.265285999 -1.52232003
v -4.07508802 -0.265285999 -1.52232003
v -4.10615921 -0.265285999 -1.52232003
v -4.10476112 -0.251848996 -1.53334796
v -4.07508802 -0.251848996 -1.53334796
v -4.10615921 -0.251848996 -1.53334796
v -4.10476112 -0.236518994 -1.54154301
v -4.07508802 -0.236518994 -1.54154301
v -4.10615921 -0.236518994 -1.54154301
v -4.10476112 -0.219885007 -1.54658794
v -4.07508802 -0.219885007 -1.54658794
v -4.10615921 -0.219885007 -1.54658794
v -4.10476112 -0.202586994 -1.54829299
v -4.07508802 -0.202586994 -1.54829299
v -4.10615921 -0.202586994 -1.54829299
vn -0.781400025 -0.121699996 -0.611999989
vn -0.781499982 -0.121699996 -0.611899972
vn -0.781499982 -0.238700002 -0.576399982
vn -0.781400025 -0.238800004 -0.576499999
vn -0.781400025 -0.346700013 -0.51880002
vn -0.781400025 -0.346700013 -0.51880002
vn -0.781400025 -0.441199988 -0.441199988
vn -0.781400025 -0.441199988 -0.441199988
vn -0.781499982 -0.51880002 -0.346599996
vn -0.781400025 -0.51880002 -0.346700013
vn -0.781499982 -0.576399982 -0.238700002
vn -0.781400025 -0.576499999 -0.238800004
vn -0.781499982 -0.611899972 -0.121699996
vn -0.781400025 -0.611999989 -0.121699996
vn -0.781499982 -0.623899996 0
vn -0.781400025 -0.624000013 0
vn -0.781499982 -0.611899972 0.121699996
vn -0.781400025 -0.611999989 0.121699996
vn -0.781400025 -0.576499999 0.238700002
vn -0.781400025 -0.576499999 0.238800004
vn -0.781499982 -0.51880002 0.346599996
vn -0.781400025 -0.51880002 0.346700013
vn -0.781499982 -0.441100001 0.441199988
vn -0.781400025 -0.441199988 0.441199988
vn -0.781499982 -0.346599996 0.51880002
vn -0.781400025 -0.346700013 0.51880002
vn -0.781499982 -0.238800004 0.576399982
vn -0.781400025 -0.238800004 0.576499999
vn -0.781499982 -0.121699996 0.611899972
vn -0.781400025 -0.121699996 0.611999989
vn -0.781499982 0 0.623899996
vn -0.781400025 0 0.624000013
vn -0.781499982 0.121699996 0.611899972
vn -0.781400025 0.121699996 0.611999989
vn -0.781400025 0.238800004 0.576399982
vn -0.781400025 0.238800004 0.576499999
vn -0.781400025 0.346700013 0.51880002
vn -0.781400025 0.346700013 0.51880002
vn -0.781499982 0.441199988 0.441199988
vn -0.781400025 0.441199988 0.441199988
vn -0.781499982 0.51880002 0.346599996
vn -0.781400025 0.51880002 0.346700013
vn -0.781499982 0.576399982 0.238800004
vn -0.781400025 0.576499999 0.238800004
vn -0.781499982 0.611899972 0.121699996
vn -0.781400025 0.611999989 0.121699996
vn -0.781499982 0.623899996 0
vn -0.781400025 0.624000013 0
vn -0.781499982 0.611899972 -0.121699996
vn -0.781400025 0.611999989 -0.121699996
vn -0.781499982 0.576399982 -0.238800004
vn -0.781400025 0.576499999 -0.238800004
vn -0.781499982 0.51880002 -0.346599996
vn -0.781400025 0.51880002 -0.346700013
vn -0.781499982 0.441199988 -0.441199988
vn -0.781400025 0.441199988 -0.441199988
vn -0.781499982 0.346700013 -0.51880002
vn -0.781400025 0.346700013 -0.51880002
vn -0.781499982 0.238700002 -0.576399982
vn -0.781400025 0.238800004 -0.576499999
vn -0.781499982 0.121699996 -0.611899972
vn -0.781400025 0.121699996 -0.611999989
vn -0.781499982 0 -0.623899996
vn -0.781400025 0 -0.624000013
vn -0.990700006 0.0265999995 0.133399993
vn -0.990700006 0.052099999 0.125699997
vn -0.990700006 0.0754999965 0.1131
vn -0.990700006 0.0961000025 0.0961999968
vn -0.990700006 0.1131 0.0755999982
vn -0.990700006 0.125699997 0.0520000011
vn -0.990700006 0.133399993 0.0264999997
vn -0.990700006 0.136000007 0
vn -0.990700006 0.133399993 -0.0264999997
vn -0.990700006 0.125599995 -0.052099999
vn -0.990700006 0.1131 -0.0754999965
vn -0.990700006 0.0961999968 -0.0961999968
vn -0.990700006 0.0754999965 -0.1131
vn -0.990700006 0.052099999 -0.125699997
vn -0.990700006 0.0264999997 -0.133399993
vn -0.990700006 0 -0.136000007
vn -0.990700006 -0.0264999997 -0.133399993
vn -0.990700006 -0.052099999 -0.125599995
vn -0.990700006 -0.0754999965 -0.1131
vn -0.990700006 -0.0961999968 -0.0961999968
vn -0.990700006 -0.1131 -0.0754999965
vn -0.990700006 -0.125699997 -0.0520000011
vn -0.990700006 -0.133499995 -0.0264999997
vn -0.990700006 -0.136000007 0
vn -0.990700006 -0.133499995 0.0264999997
vn -0.990700006 -0.125699997 0.0520000011
vn -0.990700006 -0.1131 0.0755999982
vn -0.990700006 -0.0961999968 0.0961999968
vn -0.990700006 -0.0754999965 0.1131
vn -0.990700006 -0.052099999 0.125699997
vn -0.990700006 -0.0265999995 0.133399993
vn -0.990700006 0 0.136099994
vn 0 0.195099995 0.980799973
vn 0 0.195099995 0.980799973
vn 0 0.382699996 0.923900008
vn 0 0.382699996 0.923900008
vn -0.340600014 0.183400005 0.922100008
vn -0.340600014 0.359800011 0.868600011
vn 0 0.555599988 0.831399977
vn 0 0.555599988 0.831399977
vn -0.340600014 0.522400022 0.781700015
vn 0 0.707099974 0.707099974
vn 0 0.707099974 0.707099974
vn -0.340600014 0.664799988 0.664799988
vn 0 0.831399977 0.555599988
vn 0 0.831399977 0.555599988
vn -0.340600014 0.781700015 0.522300005
vn 0 0.923900008 0.382699996
vn 0 0.923900008 0.382699996
vn -0.340700001 0.868600011 0.359800011
vn 0 0.980799973 0.195099995
vn 0 0.980799973 0.195099995
vn -0.340700001 0.922100008 0.183400005
vn 0 1 0
vn 0 1 0
vn -0.340700001 0.940199971 0
vn 0 0.980799973 -0.195099995
vn 0 0.980799973 -0.195099995
vn -0.340700001 0.922100008 -0.183400005
vn 0 0.923900008 -0.382699996
vn 0 0.923900008 -0.382699996
vn -0.340700001 0.868600011 -0.359800011
vn 0 0.831399977 -0.555599988
vn 0 0.831399977 -0.555599988
vn -0.340700001 0.781700015 -0.522300005
vn 0 0.707099974 -0.707099974
vn 0 0.707099974 -0.707099974
vn -0.340700001 0.664799988 -0.664799988
vn 0 0.555599988 -0.831399977
vn 0 0.555599988 -0.831399977
vn -0.340700001 0.522300005 -0.781700015
vn 0 0.382699996 -0.923900008
vn 0 0.382699996 -0.923900008
vn -0.340700001 0.359800011 -0.868600011
vn 0 0.195099995 -0.980799973
vn 0 0.195099995 -0.980799973
vn -0.340700001 0.183400005 -0.922100008
vn 0 0 -1
vn 0 0 -1
vn -0.340700001 0 -0.940199971
vn 0 -0.195099995 -0.980799973
vn 0 -0.195099995 -0.980799973
vn -0.340700001 -0.183400005 -0.922100008
vn 0 -0.382699996 -0.923900008
vn 0 -0.382699996 -0.923900008
vn -0.340700001 -0.359800011 -0.868600011
vn 0 -0.555599988 -0.831399977
vn 0 -0.555599988 -0.831399977
vn -0.340700001 -0.522300005 -0.781700015
vn 0 -0.707099974 -0.707099974
vn 0 -0.707099974 -0.707099974
vn -0.340700001 -0.664799988 -0.664799988
vn 0 -0.831399977 -0.555599988
vn 0 -0.831399977 -0.555599988
vn -0.340700001 -0.781700015 -0.522300005
vn 0 -0.923900008 -0.382699996
vn 0 -0.923900008 -0.382699996
vn -0.340700001 -0.868600011 -0.359800011
vn 0 -0.980799973 -0.195099995
vn 0 -0.980799973 -0.195099995
vn -0.340700001 -0.922100008 -0.183400005
vn 0 -1 0
vn 0 -1 0
vn -0.340700001 -0.940199971 0
vn 0 -0.980799973 0.195099995
vn 0 -0.980799973 0.195099995
vn -0.340700001 -0.922100008 0.183400005
vn 0 -0.923900008 0.382699996
vn 0 -0.923900008 0.382699996
vn -0.340700001 -0.868600011 0.359800011
vn 0 -0.831399977 0.555599988
vn 0 -0.831399977 0.555599988
vn -0.340700001 -0.781700015 0.522300005
vn 0 -0.707099974 0.707099974
vn 0 -0.707099974 0.707099974
vn -0.340600014 -0.664799988 0.664799988
vn 0 -0.555599988 0.831399977
vn 0 -0.555599988 0.831399977
vn -0.340600014 -0.522400022 0.781700015
vn 0 -0.382699996 0.923900008
vn 0 -0.382699996 0.923900008
vn -0.340600014 -0.359800011 0.868600011
vn 0 -0.195099995 0.980799973
vn 0 -0.195099995 0.980799973
vn -0.340700001 -0.183400005 0.922100008
vn 0 0 1
vn 0 0 1
vn -0.340600014 0 0.940199971
vn -0.781400025 -0.121699996 0.611999989
vn -0.781400025 -0.238800004 0.576499999
vn -0.781499982 -0.238700002 0.576399982
vn -0.781499982 -0.121699996 0.611899972
vn -0.781400025 -0.346700013 0.51880002
vn -0.781400025 -0.346700013 0.51880002
vn -0.781400025 -0.441199988 0.441199988
vn -0.781400025 -0.441199988 0.441199988
vn -0.781400025 -0.51880002 0.346700013
vn -0.781499982 -0.51880002 0.346599996
vn -0.781400025 -0.576499999 0.238800004
vn -0.781499982 -0.576399982 0.238700002
vn -0.781400025 -0.611999989 0.121699996
vn -0.781499982 -0.611899972 0.121699996
vn -0.781400025 -0.624000013 0
vn -0.781499982 -0.623899996 0
vn -0.781400025 -0.611999989 -0.121699996
vn -0.781499982 -0.611899972 -0.121699996
vn -0.781400025 -0.576499999 -0.238800004
vn -0.781499982 -0.576399982 -0.238700002
vn -0.781400025 -0.51880002 -0.346700013
vn -0.781499982 -0.51880002 -0.346599996
vn -0.781499982 -0.441100001 -0.441199988
vn -0.781400025 -0.441199988 -0.441199988
vn -0.781400025 -0.346700013 -0.51880002
vn -0.781499982 -0.346599996 -0.51880002
vn -0.781400025 -0.238800004 -0.576499999
vn -0.781499982 -0.238800004 -0.576399982
vn -0.781400025 -0.121699996 -0.611999989
vn -0.781499982 -0.121699996 -0.611899972
vn -0.781400025 0 -0.624000013
vn -0.781499982 0 -0.623899996
vn -0.781400025 0.121699996 -0.611999989
vn -0.781499982 0.121699996 -0.611899972
vn -0.781400025 0.238800004 -0.576499999
vn -0.781400025 0.238800004 -0.576399982
vn -0.781400025 0.346700013 -0.51880002
vn -0.781400025 0.346700013 -0.51880002
vn -0.781400025 0.441199988 -0.441199988
vn -0.781499982 0.441199988 -0.441199988
vn -0.781400025 0.51880002 -0.346700013
vn -0.781499982 0.51880002 -0.346599996
vn -0.781400025 0.576499999 -0.238800004
vn -0.781499982 0.576399982 -0.238700002
vn -0.781400025 0.611999989 -0.121699996
vn -0.781499982 0.611899972 -0.121699996
vn -0.781400025 0.624000013 0
vn -0.781499982 0.623899996 0
vn -0.781400025 0.611999989 0.121699996
vn -0.781499982 0.611899972 0.121699996
vn -0.781400025 0.576499999 0.238800004
vn -0.781499982 0.576399982 0.238800004
vn -0.781400025 0.51880002 0.346700013
vn -0.781499982 0.51880002 0.346599996
vn -0.781400025 0.441199988 0.441199988
vn -0.781400025 0.441199988 0.441199988
vn -0.781400025 0.346700013 0.51880002
vn -0.781400025 0.346700013 0.51880002
vn -0.781400025 0.238800004 0.576499999
vn -0.781499982 0.238700002 0.576399982
vn -0.781400025 0.121699996 0.611999989
vn -0.781499982 0.121699996 0.611899972
vn -0.781400025 0 0.624000013
vn -0.781499982 0 0.623899996
vn -0.990700006 0.052099999 -0.125699997
vn -0.990700006 0.0264999997 -0.133399993
vn -0.990700006 0.0754999965 -0.1131
vn -0.990700006 0.0961999968 -0.0961999968
vn -0.990700006 0.1131 -0.0755999982
vn -0.990700006 0.125699997 -0.0520000011
vn -0.990700006 0.133499995 -0.0264999997
vn -0.990700006 0.136000007 0
vn -0.990700006 0.133399993 0.0264999997
vn -0.990700006 0.125699997 0.052099999
vn -0.990700006 0.1131 0.0755999982
vn -0.990700006 0.0961999968 0.0961999968
vn -0.990700006 0.0754999965 0.1131
vn -0.990700006 0.052099999 0.125699997
vn -0.990700006 0.0264999997 0.133399993
vn -0.990700006 0 0.136099994
vn -0.990700006 -0.0264999997 0.133399993
vn -0.990700006 -0.0520000011 0.125699997
vn -0.990700006 -0.0754999965 0.1131
vn -0.990700006 -0.0961999968 0.0961999968
vn -0.990700006 -0.1131 0.0754999965
vn -0.990700006 -0.125699997 0.052099999
vn -0.990700006 -0.133399993 0.0264999997
vn -0.990700006 -0.136000007 0
vn -0.990700006 -0.133499995 -0.0264999997
vn -0.990700006 -0.125699997 -0.0520000011
vn -0.990700006 -0.1131 -0.0755999982
vn -0.990700006 -0.0961000025 -0.0961999968
vn -0.990700006 -0.0754999965 -0.1131
vn -0.990700006 -0.052099999 -0.125699997
vn -0.990700006 -0.0264999997 -0.133399993
vn -0.990700006 0 -0.136099994
vn 0 0.195099995 -0.980799973
vn 0 0.382699996 -0.923900008
vn 0 0.382699996 -0.923900008
vn 0 0.195099995 -0.980799973
vn -0.340600014 0.183400005 -0.922100008
vn -0.340600014 0.359800011 -0.868600011
vn 0 0.555599988 -0.831399977
vn 0 0.555599988 -0.831399977
vn -0.340600014 0.522400022 -0.781700015
vn 0 0.707099974 -0.707099974
vn 0 0.707099974 -0.707099974
vn -0.340600014 0.664799988 -0.664799988
vn 0 0.831399977 -0.555599988
vn 0 0.831399977 -0.555599988
vn -0.340600014 0.781700015 -0.522300005
vn 0 0.923900008 -0.382699996
vn 0 0.923900008 -0.382699996
vn -0.340700001 0.868600011 -0.359800011
vn 0 0.980799973 -0.195099995
vn 0 0.980799973 -0.195099995
vn -0.340700001 0.922100008 -0.183400005
vn 0 1 0
vn 0 1 0
vn -0.340700001 0.940199971 0
vn 0 0.980799973 0.195099995
vn 0 0.980799973 0.195099995
vn -0.340700001 0.922100008 0.183400005
vn 0 0.923900008 0.382699996
vn 0 0.923900008 0.382699996
vn -0.340700001 0.868600011 0.359800011
vn 0 0.831399977 0.555599988
vn 0 0.831399977 0.555599988
vn -0.340700001 0.781700015 0.522300005
vn 0 0.707099974 0.707099974
vn 0 0.707099974 0.707099974
vn -0.340700001 0.664799988 0.664799988
vn 0 0.555599988 0.831399977
vn 0 0.555599988 0.831399977
vn -0.340700001 0.522300005 0.781700015
vn 0 0.382699996 0.923900008
vn 0 0.382699996 0.923900008
vn -0.340700001 0.359800011 0.868600011
vn 0 0.195099995 0.980799973
vn 0 0.195099995 0.980799973
vn -0.340700001 0.183400005 0.922100008
vn 0 0 1
vn 0 0 1
vn -0.340700001 0 0.940199971
vn 0 -0.195099995 0.980799973
vn 0 -0.195099995 0.980799973
vn -0.340700001 -0.183400005 0.922100008
vn 0 -0.382699996 0.923900008
vn 0 -0.382699996 0.923900008
vn -0.340700001 -0.359800011 0.868600011
vn 0 -0.555599988 0.831399977
vn 0 -0.555599988 0.831399977
vn -0.340700001 -0.522300005 0.781700015
vn 0 -0.707099974 0.707099974
vn 0 -0.707099974 0.707099974
vn -0.340700001 -0.664799988 0.664799988
vn 0 -0.831399977 0.555599988
vn 0 -0.831399977 0.555599988
vn -0.340700001 -0.781700015 0.522300005
vn 0 -0.923900008 0.382699996
vn 0 -0.923900008 0.382699996
vn -0.340700001 -0.868600011 0.359800011
vn 0 -0.980799973 0.195099995
vn 0 -0.980799973 0.195099995
vn -0.340700001 -0.922100008 0.183400005
vn 0 -1 0
vn 0 -1 0
vn -0.340700001 -0.940199971 0
vn 0 -0.980799973 -0.195099995
vn 0 -0.980799973 -0.195099995
vn -0.340700001 -0.922100008 -0.183400005
vn 0 -0.923900008 -0.382699996
vn 0 -0.923900008 -0.382699996
vn -0.340700001 -0.868600011 -0.359800011
vn 0 -0.831399977 -0.555599988
vn 0 -0.831399977 -0.555599988
vn -0.340700001 -0.781700015 -0.522300005
vn 0 -0.707099974 -0.707099974
vn 0 -0.707099974 -0.707099974
vn -0.340600014 -0.664799988 -0.664799988
vn 0 -0.555599988 -0.831399977
vn 0 -0.555599988 -0.831399977
vn -0.340600014 -0.522400022 -0.781700015
vn 0 -0.382699996 -0.923900008
vn 0 -0.382699996 -0.923900008
vn -0.340600014 -0.359800011 -0.868600011
vn 0 -0.195099995 -0.980799973
vn 0 -0.195099995 -0.980799973
vn -0.340700001 -0.183400005 -0.922100008
vn 0 0 -1
vn 0 0 -1
vn -0.340600014 0 -0.940199971
f 1//1 2//2 3//3
f 1//1 3//3 4//4
f 4//4 3//3 5//5
f 4//4 5//5 6//6
f 6//6 5//5 7//7
f 6//6 7//7 8//8
f 8//8 7//7 9//9
f 8//8 9//9 10//10
f 10//10 9//9 11//11
f 10//10 11//11 12//12
f 12//12 11//11 13//13
f 12//12 13//13 14//14
f 14//14 13//13 15//15
f 14//14 15//15 16//16
f 16//16 15//15 17//17
f 16//16 17//17 18//18
f 18//18 17//17 19//19
f 18//18 19//19 20//20
f 20//20 19//19 21//21
f 20//20 21//21 22//22
f 23//23 24//24 22//22
f 23//23 22//22 21//21
f 24//24 23//23 25//25
f 24//24 25//25 26//26
f 26//26 25//25 27//27
f 26//26 27//27 28//28
f 28//28 27//27 29//29
f 28//28 29//29 30//30
f 30//30 29//29 31//31
f 30//30 31//31 32//32
f 32//32 31//31 33//33
f 32//32 33//33 34//34
f 34//34 33//33 35//35
f 34//34 35//35 36//36
f 36//36 35//35 37//37
f 36//36 37//37 38//38
f 38//38 37//37 39//39
f 38//38 39//39 40//40
f 40//40 39//39 41//41
f 40//40 41//41 42//42
f 42//42 41//41 43//43
f 42//42 43//43 44//44
f 44//44 43//43 45//45
f 44//44 45//45 46//46
f 46//46 45//45 47//47
f 46//46 47//47 48//48
f 48//48 47//47 49//49
f 48//48 49//49 50//50
f 50//50 49//49 51//51
f 50//50 51//51 52//52
f 52//52 51//51 53//53
f 52//52 53//53 54//54
f 54//54 53//53 55//55
f 54//54 55//55 56//56
f 56//56 55//55 57//57
f 56//56 57//57 58//58
f 58//58 57//57 59//59
f 58//58 59//59 60//60
f 60//60 59//59 61//61
f 60//60 61//61 62//62
f 62//62 61//61 63//63
f 62//62 63//63 64//64
f 64//64 63//63 2//2
f 64//64 2//2 1//1
f 2//2 65//65 66//66
f 2//2 66//66 3//3
f 3//3 66//66 67//67
f 3//3 67//67 5//5
f 5//5 67//67 68//68
f 5//5 68//68 7//7
f 7//7 68//68 69//69
f 7//7 69//69 9//9
f 9//9 69//69 70//70
f 9//9 70//70 11//11
f 11//11 70//70 71//71
f 11//11 71//71 13//13
f 13//13 71//71 72//72
f 13//13 72//72 15//15
f 15//15 72//72 73//73
f 15//15 73//73 17//17
f 17//17 73//73 74//74
f 17//17 74//74 19//19
f 19//19 74//74 75//75
f 19//19 75//75 21//21
f 21//21 75//75 76//76
f 21//21 76//76 23//23
f 23//23 76//76 77//77
f 23//23 77//77 25//25
f 25//25 77//77 78//78
f 25//25 78//78 27//27
f 27//27 78//78 79//79
f 27//27 79//79 29//29
f 29//29 79//79 80//80
f 29//29 80//80 31//31
f 31//31 80//80 81//81
f 31//31 81//81 33//33
f 33//33 81//81 82//82
f 33//33 82//82 35//35
f 35//35 82//82 83//83
f 35//35 83//83 37//37
f 37//37 83//83 84//84
f 37//37 84//84 39//39
f 39//39 84//84 85//85
f 39//39 85//85 41//41
f 41//41 85//85 86//86
f 41//41 86//86 43//43
f 43//43 86//86 87//87
f 43//43 87//87 45//45
f 45//45 87//87 88//88
f 45//45 88//88 47//47
f 47//47 88//88 89//89
f 47//47 89//89 49//49
f 49//49 89//89 90//90
f 49//49 90//90 51//51
f 51//51 90//90 91//91
f 51//51 91//91 53//53
f 53//53 91//91 92//92
f 53//53 92//92 55//55
f 55//55 92//92 93//93
f 55//55 93//93 57//57
f 57//57 93//93 94//94
f 57//57 94//94 59//59
f 59//59 94//94 95//95
f 59//59 95//95 61//61
f 61//61 95//95 96//96
f 61//61 96//96 63//63
f 63//63 96//96 65//65
f 63//63 65//65 2//2
f 97//97 98//98 99//99
f 97//97 99//99 100//100
f 101//101 97//97 100//100
f 101//101 100//100 102//102
f 100//100 99//99 103//103
f 100//100 103//103 104//104
f 102//102 100//100 104//104
f 102//102 104//104 105//105
f 104//104 103//103 106//106
f 104//104 106//106 107//107
f 105//105 104//104 107//107
f 105//105 107//107 108//108
f 107//107 106//106 109//109
f 107//107 109//109 110//110
f 108//108 107//107 110//110
f 108//108 110//110 111//111
f 110//110 109//109 112//112
f 110//110 112//112 113//113
f 111//111 110//110 113//113
f 111//111 113//113 114//114
f 113//113 112//112 115//115
f 113//113 115//115 116//116
f 114//114 113//113 116//116
f 114//114 116//116 117//117
f 116//116 115//115 118//118
f 116//116 118//118 119//119
f 117//117 116//116 119//119
f 117//117 119//119 120//120
f 119//119 118//118 121//121
f 119//119 121//121 122//122
f 120//120 119//119 122//122
f 120//120 122//122 123//123
f 122//122 121//121 124//124
f 122//122 124//124 125//125
f 123//123 122//122 125//125
f 123//123 125//125 126//126
f 125//125 124//124 127//127
f 125//125 127//127 128//128
f 126//126 125//125 128//128
f 126//126 128//128 129//129
f 128//128 127//127 130//130
f 128//128 130//130 131//131
f 129//129 128//128 131//131
f 129//129 131//131 132//132
f 131//131 130//130 133//133
f 131//131 133//133 134//134
f 132//132 131//131 134//134
f 132//132 134//134 135//135
f 134//134 133//133 136//136
f 134//134 136//136 137//137
f 135//135 134//134 137//137
f 135//135 137//137 138//138
f 137//137 136//136 139//139
f 137//137 139//139 140//140
f 138//138 137//137 140//140
f 138//138 140//140 141//141
f 140//140 139//139 142//142
f 140//140 142//142 143//143
f 141//141 140//140 143//143
f 141//141 143//143 144//144
f 143//143 142//142 145//145
f 143//143 145//145 146//146
f 144//144 143//143 146//146
f 144//144 146//146 147//147
f 146//146 145//145 148//148
f 146//146 148//148 149//149
f 147//147 146//146 149//149
f 147//147 149//149 150//150
f 149//149 148//148 151//151
f 149//149 151//151 152//152
f 150//150 149//149 152//152
f 150//150 152//152 153//153
f 152//152 151//151 154//154
f 152//152 154//154 155//155
f 153//153 152//152 155//155
f 153//153 155//155 156//156
f 155//155 154//154 157//157
f 155//155 157//157 158//158
f 156//156 155//155 158//158
f 156//156 158//158 159//159
f 158//158 157//157 160//160
f 158//158 160//160 161//161
f 159//159 158//158 161//161
f 159//159 161//161 162//162
f 161//161 160//160 163//163
f 161//161 163//163 164//164
f 162//162 161//161 164//164
f 162//162 164//164 165//165
f 164//164 163//163 166//166
f 164//164 166//166 167//167
f 165//165 164//164 167//167
f 165//165 167//167 168//168
f 167//167 166//166 169//169
f 167//167 169//169 170//170
f 168//168 167//167 170//170
f 168//168 170//170 171//171
f 170//170 169//169 172//172
f 170//170 172//172 173//173
f 171//171 170//170 173//173
f 171//171 173//173 174//174
f 173//173 172//172 175//175
f 173//173 175//175 176//176
f 174//174 173//173 176//176
f 174//174 176//176 177//177
f 176//176 175//175 178//178
f 176//176 178//178 179//179
f 177//177 176//176 179//179
f 177//177 179//179 180//180
f 179//179 178//178 181//181
f 179//179 181//181 182//182
f 180//180 179//179 182//182
f 180//180 182//182 183//183
f 182//182 181//181 184//184
f 182//182 184//184 185//185
f 183//183 182//182 185//185
f 183//183 185//185 186//186
f 185//185 184//184 187//187
f 185//185 187//187 188//188
f 186//186 185//185 188//188
f 186//186 188//188 189//189
f 188//188 187//187 190//190
f 188//188 190//190 191//191
f 189//189 188//188 191//191
f 189//189 191//191 192//192
f 191//191 190//190 98//98
f 191//191 98//98 97//97
f 192//192 191//191 97//97
f 192//192 97//97 101//101
f 192//192 101//101 65//65
f 192//192 65//65 96//96
f 101//101 102//102 66//66
f 101//101 66//66 65//65
f 102//102 105//105 67//67
f 102//102 67//67 66//66
f 105//105 108//108 68//68
f 105//105 68//68 67//67
f 108//108 111//111 69//69
f 108//108 69//69 68//68
f 111//111 114//114 70//70
f 111//111 70//70 69//69
f 114//114 117//117 71//71
f 114//114 71//71 70//70
f 117//117 120//120 72//72
f 117//117 72//72 71//71
f 120//120 123//123 73//73
f 120//120 73//73 72//72
f 123//123 126//126 74//74
f 123//123 74//74 73//73
f 126//126 129//129 75//75
f 126//126 75//75 74//74
f 129//129 132//132 76//76
f 129//129 76//76 75//75
f 132//132 135//135 77//77
f 132//132 77//77 76//76
f 135//135 138//138 78//78
f 135//135 78//78 77//77
f 138//138 141//141 79//79
f 138//138 79//79 78//78
f 141//141 144//144 80//80
f 141//141 80//80 79//79
f 144//144 147//147 81//81
f 144//144 81//81 80//80
f 147//147 150//150 82//82
f 147//147 82//82 81//81
f 150//150 153//153 83//83
f 150//150 83//83 82//82
f 153//153 156//156 84//84
f 153//153 84//84 83//83
f 156//156 159//159 85//85
f 156//156 85//85 84//84
f 159//159 162//162 86//86
f 159//159 86//86 85//85
f 162//162 165//165 87//87
f 162//162 87//87 86//86
f 165//165 168//168 88//88
f 165//165 88//88 87//87
f 168//168 171//171 89//89
f 168//168 89//89 88//88
f 171//171 174//174 90//90
f 171//171 90//90 89//89
f 174//174 177//177 91//91
f 174//174 91//91 90//90
f 177//177 180//180 92//92
f 177//177 92//92 91//91
f 180//180 183//183 93//93
f 180//180 93//93 92//92
f 183//183 186//186 94//94
f 183//183 94//94 93//93
f 186//186 189//189 95//95
f 186//186 95//95 94//94
f 189//189 192//192 96//96
f 189//189 96//96 95//95
f 193//193 194//194 195//195
f 193//193 195//195 196//196
f 194//194 197//197 198//198
f 194//194 198//198 195//195
f 197//197 199//199 200//200
f 197//197 200//200 198//198
f 199//199 201//201 202//202
f 199//199 202//202 200//200
f 201//201 203//203 204//204
f 201//201 204//204 202//202
f 203//203 205//205 206//206
f 203//203 206//206 204//204
f 205//205 207//207 208//208
f 205//205 208//208 206//206
f 207//207 209//209 210//210
f 207//207 210//210 208//208
f 209//209 211//211 212//212
f 209//209 212//212 210//210
f 211//211 213//213 214//214
f 211//211 214//214 212//212
f 215//215 214//214 213//213
f 215//215 213//213 216//216
f 216//216 217//217 218//218
f 216//216 218//218 215//215
f 217//217 219//219 220//220
f 217//217 220//220 218//218
f 219//219 221//221 222//222
f 219//219 222//222 220//220
f 221//221 223//223 224//224
f 221//221 224//224 222//222
f 223//223 225//225 226//226
f 223//223 226//226 224//224
f 225//225 227//227 228//228
f 225//225 228//228 226//226
f 227//227 229//229 230//230
f 227//227 230//230 228//228
f 229//229 231//231 232//232
f 229//229 232//232 230//230
f 231//231 233//233 234//234
f 231//231 234//234 232//232
f 233//233 235//235 236//236
f 233//233 236//236 234//234
f 235//235 237//237 238//238
f 235//235 238//238 236//236
f 237//237 239//239 240//240
f 237//237 240//240 238//238
f 239//239 241//241 242//242
f 239//239 242//242 240//240
f 241//241 243//243 244//244
f 241//241 244//244 242//242
f 243//243 245//245 246//246
f 243//243 246//246 244//244
f 245//245 247//247 248//248
f 245//245 248//248 246//246
f 247//247 249//249 250//250
f 247//247 250//250 248//248
f 249//249 251//251 252//252
f 249//249 252//252 250//250
f 251//251 253//253 254//254
f 251//251 254//254 252//252
f 253//253 255//255 256//256
f 253//253 256//256 254//254
f 255//255 193//193 196//196
f 255//255 196//196 256//256
f 196//196 195//195 257//257
f 196//196 257//257 258//258
f 195//195 198//198 259//259
f 195//195 259//259 257//257
f 198//198 200//200 260//260
f 198//198 260//260 259//259
f 200//200 202//202 261//261
f 200//200 261//261 260//260
f 202//202 204//204 262//262
f 202//202 262//262 261//261
f 204//204 206//206 263//263
f 204//204 263//263 262//262
f 206//206 208//208 264//264
f 206//206 264//264 263//263
f 208//208 210//210 265//265
f 208//208 265//265 264//264
f 210//210 212//212 266//266
f 210//210 266//266 265//265
f 212//212 214//214 267//267
f 212//212 267//267 266//266
f 214//214 215//215 268//268
f 214//214 268//268 267//267
f 215//215 218//218 269//269
f 215//215 269//269 268//268
f 218//218 220//220 270//270
f 218//218 270//270 269//269
f 220//220 222//222 271//271
f 220//220 271//271 270//270
f 222//222 224//224 272//272
f 222//222 272//272 271//271
f 224//224 226//226 273//273
f 224//224 273//273 272//272
f 226//226 228//228 274//274
f 226//226 274//274 273//273
f 228//228 230//230 275//275
f 228//228 275//275 274//274
f 230//230 232//232 276//276
f 230//230 276//276 275//275
f 232//232 234//234 277//277
f 232//232 277//277 276//276
f 234//234 236//236 278//278
f 234//234 278//278 277//277
f 236//236 238//238 279//279
f 236//236 279//279 278//278
f 238//238 240//240 280//280
f 238//238 280//280 279//279
f 240//240 242//242 281//281
f 240//240 281//281 280//280
f 242//242 244//244 282//282
f 242//242 282//282 281//281
f 244//244 246//246 283//283
f 244//244 283//283 282//282
f 246//246 248//248 284//284
f 246//246 284//284 283//283
f 248//248 250//250 285//285
f 248//248 285//285 284//284
f 250//250 252//252 286//286
f 250//250 286//286 285//285
f 252//252 254//254 287//287
f 252//252 287//287 286//286
f 254//254 256//256 288//288
f 254//254 288//288 287//287
f 256//256 196//196 258//258
f 256//256 258//258 288//288
f 289//289 290//290 291//291
f 289//289 291//291 292//292
f 293//293 294//294 290//290
f 293//293 290//290 289//289
f 290//290 295//295 296//296
f 290//290 296//296 291//291
f 294//294 297//297 295//295
f 294//294 295//295 290//290
f 295//295 298//298 299//299
f 295//295 299//299 296//296
f 297//297 300//300 298//298
f 297//297 298//298 295//295
f 298//298 301//301 302//302
f 298//298 302//302 299//299
f 300//300 303//303 301//301
f 300//300 301//301 298//298
f 301//301 304//304 305//305
f 301//301 305//305 302//302
f 303//303 306//306 304//304
f 303//303 304//304 301//301
f 304//304 307//307 308//308
f 304//304 308//308 305//305
f 306//306 309//309 307//307
f 306//306 307//307 304//304
f 307//307 310//310 311//311
f 307//307 311//311 308//308
f 309//309 312//312 310//310
f 309//309 310//310 307//307
f 310//310 313//313 314//314
f 310//310 314//314 311//311
f 312//312 315//315 313//313
f 312//312 313//313 310//310
f 313//313 316//316 317//317
f 313//313 317//317 314//314
f 315//315 318//318 316//316
f 315//315 316//316 313//313
f 316//316 319//319 320//320
f 316//316 320//320 317//317
f 318//318 321//321 319//319
f 318//318 319//319 316//316
f 319//319 322//322 323//323
f 319//319 323//323 320//320
f 321//321 324//324 322//322
f 321//321 322//322 319//319
f 322//322 325//325 326//326
f 322//322 326//326 323//323
f 324//324 327//327 325//325
f 324//324 325//325 322//322
f 325//325 328//328 329//329
f 325//325 329//329 326//326
f 327//327 330//330 328//328
f 327//327 328//328 325//325
f 328//328 331//331 332//332
f 328//328 332//332 329//329
f 330//330 333//333 331//331
f 330//330 331//331 328//328
f 331//331 334//334 335//335
f 331//331 335//335 332//332
f 333//333 336//336 334//334
f 333//333 334//334 331//331
f 334//334 337//337 338//338
f 334//334 338//338 335//335
f 336//336 339//339 337//337
f 336//336 337//337 334//334
f 337//337 340//340 341//341
f 337//337 341//341 338//338
f 339//339 342//342 340//340
f 339//339 340//340 337//337
f 340//340 343//343 344//344
f 340//340 344//344 341//341
f 342//342 345//345 343//343
f 342//342 343//343 340//340
f 343//343 346//346 347//347
f 343//343 347//347 344//344
f 345//345 348//348 346//346
f 345//345 346//346 343//343
f 346//346 349//349 350//350
f 346//346 350//350 347//347
f 348//348 351//351 349//349
f 348//348 349//349 346//346
f 349//349 352//352 353//353
f 349//349 353//353 350//350
f 351//351 354//354 352//352
f 351//351 352//352 349//349
f 352//352 355//355 356//356
f 352//352 356//356 353//353
f 354//354 357//357 355//355
f 354//354 355//355 352//352
f 355//355 358//358 359//359
f 355//355 359//359 356//356
f 357//357 360//360 358//358
f 357//357 358//358 355//355
f 358//358 361//361 362//362
f 358//358 362//362 359//359
f 360//360 363//363 361//361
f 360//360 361//361 358//358
f 361//361 364//364 365//365
f 361//361 365//365 362//362
f 363//363 366//366 364//364
f 363//363 364//364 361//361
f 364//364 367//367 368//368
f 364//364 368//368 365//365
f 366//366 369//369 367//367
f 366//366 367//367 364//364
f 367//367 370//370 371//371
f 367//367 371//371 368//368
f 369//369 372//372 370//370
f 369//369 370//370 367//367
f 370//370 373//373 374//374
f 370//370 374//374 371//371
f 372//372 375//375 373//373
f 372//372 373//373 370//370
f 373//373 376//376 377//377
f 373//373 377//377 374//374
f 375//375 378//378 376//376
f 375//375 376//376 373//373
f 376//376 379//379 380//380
f 376//376 380//380 377//377
f 378//378 381//381 379//379
f 378//378 379//379 376//376
f 379//379 382//382 383//383
f 379//379 383//383 380//380
f 381//381 384//384 382//382
f 381//381 382//382 379//379
f 382//382 289//289 292//292
f 382//382 292//292 383//383
f 384//384 293//293 289//289
f 384//384 289//289 382//382
f 384//384 288//288 258//258
f 384//384 258//258 293//293
f 293//293 258//258 257//257
f 293//293 257//257 294//294
f 294//294 257//257 259//259
f 294//294 259//259 297//297
f 297//297 259//259 260//260
f 297//297 260//260 300//300
f 300//300 260//260 261//261
f 300//300 261//261 303//303
f 303//303 261//261 262//262
f 303//303 262//262 306//306
f 306//306 262//262 263//263
f 306//306 263//263 309//309
f 309//309 263//263 264//264
f 309//309 264//264 312//312
f 312//312 264//264 265//265
f 312//312 265//265 315//315
f 315//315 265//265 266//266
f 315//315 266//266 318//318
f 318//318 266//266 267//267
f 318//318 267//267 321//321
f 321//321 267//267 268//268
f 321//321 268//268 324//324
f 324//324 268//268 269//269
f 324//324 269//269 327//327
f 327//327 269//269 270//270
f 327//327 270//270 330//330
f 330//330 270//270 271//271
f 330//330 271//271 333//333
f 333//333 271//271 272//272
f 333//333 272//272 336//336
f 336//336 272//272 273//273
f 336//336 273//273 339//339
f 339//339 273//273 274//274
f 339//339 274//274 342//342
f 342//342 274//274 275//275
f 342//342 275//275 345//345
f 345//345 275//275 276//276
f 345//345 276//276 348//348
f 348//348 276//276 277//277
f 348//348 277//277 351//351
f 351//351 277//277 278//278
f 351//351 278//278 354//354
f 354//354 278//278 279//279
f 354//354 279//279 357//357
f 357//357 279//279 280//280
f 357//357 280//280 360//360
f 360//360 280//280 281//281
f 360//360 281//281 363//363
f 363//363 281//281 282//282
f 363//363 282//282 366//366
f 366//366 282//282 283//283
f 366//366 283//283 369//369
f 369//369 283//283 284//284
f 369//369 284//284 372//372
f 372//372 284//284 285//285
f 372//372 285//285 375//375
f 375//375 285//285 286//286
f 375//375 286//286 378//378
f 378//378 286//286 287//287
f 378//378 287//287 381//381
f 381//381 287//287 288//288
f 381//381 288//288 384//384
